<svg width="1645" height="2958" viewBox="0 0 1645 2958" fill="none" xmlns="http://www.w3.org/2000/svg">
<path fill-rule="evenodd" clip-rule="evenodd" d="M354.966 1350.91C355.135 1362.41 356.286 1388.79 359.169 1399.92C327.05 1348.42 278.922 1292.13 271.603 1229.05C273.884 1228.43 284.005 1227.5 285.772 1226.17C302.39 1233.89 299.246 1210.12 301.702 1199.13C308.334 1175.86 322.268 1152.97 328.323 1129.54C344.237 1122.65 312.278 1119.74 307.635 1119.6C326.939 1098.1 335.818 1068.55 349.562 1043.47C369.758 1000.84 387.846 957.269 403.996 913.014C407.526 940.744 408.159 968.774 406.008 996.657C399.367 1116.09 354.516 1230.93 354.966 1350.91ZM1469.71 1138.76C1459.72 1140.44 1443.07 1142.03 1433.1 1142.85C1446.19 1135.04 1484.87 1120.17 1460.49 1106.81C1452.98 1104.06 1444.91 1107.98 1437.33 1109.19C1405.85 1114.37 1366.98 1114.1 1335.13 1111.49C1346.74 1101.95 1362.02 1088.23 1373.35 1078.36C1379.38 1073.12 1385.21 1071.13 1378.44 1063.31C1366.5 1052.18 1345.15 1060.37 1331.35 1065.26C1293.27 1086.6 1250.28 1109.75 1209.41 1126.17C1208.98 1120.44 1209.25 1113.04 1203.73 1109.19C1187.53 1101.55 1175.61 1103.79 1158.38 1101.75C1138.3 1098.74 1120.45 1095.32 1100.56 1090C1087.55 1080.08 1079.62 1050.81 1058.82 1054.08C1077.24 1007.71 1049.16 959.32 1038.61 914.913C1025.45 869.466 1018.53 822.268 1018.34 775.014C1018.22 699.359 974.41 641.31 911.114 602.489C886.161 585.632 869.404 544.631 838.511 536.418C834.582 521.337 834.344 514.713 830.894 499.517C829.162 495.152 827.875 471.468 823.519 472.274C818.715 448.813 794.236 439.403 773.053 434.49C745.511 428.78 707.076 421.863 682.317 437.975C675.145 443.944 671.995 453.939 671.469 462.868C668.718 474.758 662.996 487.076 656.326 497.392C644.942 493.545 651.385 486.375 640.126 484.705C537.324 469.462 423.212 544.908 356.512 618.508C235.606 742.709 139.019 912.263 154.83 1089.28C150.578 1088.65 131.731 1085.7 132.003 1091.65C132.926 1117.56 137.69 1139.16 139.005 1165.05C137.698 1199.34 173.31 1203.47 199.036 1211.93C197.452 1311.41 233.582 1410.93 290.132 1492.71C303.871 1508.8 324.485 1564.64 349.562 1542.4C352.517 1538.94 329.599 1514.99 325.522 1509.07C311.6 1491.53 274.721 1404.72 300.785 1387.38C306.579 1406.12 362.685 1496.23 372.687 1445.09C385.97 1452.8 407.92 1458.06 423.8 1457.27C453.652 1473.44 482.7 1490.91 511.368 1509.07C524.721 1535.3 544.308 1560.5 560.718 1585.69C447.153 1848.11 336.305 2280.03 190.161 2527.2C177.418 2543.34 247.517 2570.77 259.899 2576.69C236.221 2615.16 233.256 2659.72 215.243 2701.14C211.812 2700.59 208.35 2701.31 205.255 2702.97C183.035 2718.03 174.649 2771.92 173.382 2798.49C174.408 2810.34 170.016 2828.27 179.602 2837C178.262 2838.45 177.262 2840.22 176.55 2842.03C169.804 2847.29 170.635 2858.89 174.241 2866.09C186.93 2892.44 279.674 2889.99 309.771 2895.63C416.381 2904.66 505.86 2906.09 612.456 2896.21C625.539 2893.47 615.645 2873.05 609.185 2867.51C612.169 2865.69 614.077 2862.38 612.771 2858.12C588.538 2788.79 500.953 2793.48 447.955 2756.45C461.891 2748.39 452.896 2750.96 444.141 2754.1C434.849 2748.26 425.809 2741.68 417.436 2734.42C423.867 2730.45 420.695 2727.82 413.738 2731.15C402.773 2722.35 394.232 2708.76 380.264 2704.49C366.582 2701.14 366.582 2695.29 366.582 2691.6C374.725 2658.84 383.619 2625.26 388.19 2592.04C393.066 2599.24 435.139 2541.59 444.141 2527.2C479.119 2471.78 479.025 2417.17 503.502 2356.9C553.767 2225.65 656.732 1950.58 719.524 1825.06C866.443 2064.56 794.884 2388.48 885.517 2643.87C889.545 2651.54 897.119 2680.32 907.609 2672.02C911.687 2672.97 916.022 2673.49 919.905 2674.04C918.784 2701.96 916.693 2729.8 912.056 2757.43C907.736 2758.57 904.066 2760.84 902.164 2764.8C894.89 2759.46 880.962 2838.29 879.77 2846.33C879.752 2856.68 870.826 2879.75 878.978 2885.91C867.233 2890.71 865.313 2908.49 873.574 2917.62C898.103 2950.61 1017.67 2941.54 1061.78 2947.07C1117.56 2945.69 1350.91 2966.58 1367.11 2913.64C1370.33 2901.56 1364.81 2886.3 1353.58 2881.65C1358.07 2871.16 1347.31 2861.02 1340.73 2853.66C1301.9 2813.26 1242.21 2806.9 1190.52 2789.31C1192.45 2787.34 1123.05 2751.77 1108 2742.97C1108.99 2731.03 1084.18 2743 1084.11 2742.97C1072.28 2722.05 1063.9 2689.51 1055.97 2666.95C1070.61 2662.41 1105.88 2658.37 1112.42 2643.87C1133.43 2636.82 1112.35 2606.34 1108 2592.04C984.838 2283.76 1101.69 1894.91 919.905 1603.94C953.226 1584.85 991.453 1543.07 958.539 1508.02C951.952 1499.6 935.84 1473.37 936.105 1477.95C929.984 1452.97 916.315 1409.95 912.056 1384.69C896.418 1291.97 906.668 1205.13 919.905 1111.49C938.282 1181.95 1001.62 1240.66 1066.06 1272.85C1091.21 1283.23 1124.41 1304.66 1152.02 1297.9C1176.94 1290.52 1222.2 1239.35 1227.53 1214.77C1300.17 1223.41 1375.59 1216.47 1445.01 1193.63C1453.92 1190.26 1464.47 1190.55 1461.71 1177.89C1458.96 1167.16 1439.37 1169.89 1430.94 1171.89C1443.82 1164.75 1477.25 1162.88 1477 1144.21C1476.56 1140.31 1473.69 1138.09 1469.71 1138.76Z" fill="white"/>
<path fill-rule="evenodd" clip-rule="evenodd" d="M671.722 447.998C672.827 448.446 673.581 450.127 674.028 452.653C675.258 453.037 676.312 453.946 676.629 455.315C677.561 459.341 676.472 463.539 675.631 467.552L675.536 468.014C674.741 471.899 673.769 475.76 672.581 479.546L672.407 480.505C669.516 496.153 663.941 511.03 657.395 508.503L658.907 511.258C684.594 557.898 757.968 683.127 815.256 665.277C848.616 651.9 848.139 608.416 845.7 578.153C820.93 593.353 816.296 476.997 821.374 464.139C825.417 461.164 827.367 487.93 828.871 491.62C832.153 506.302 836.178 520.795 839.957 535.355C847.944 536.937 855.498 540.122 862.177 544.687C862.495 544.87 862.823 545.036 863.135 545.226C867.143 547.666 870.27 550.778 873.058 554.225C876.209 557.752 878.904 561.613 881.449 565.582C887.043 571.941 892.376 578.536 897.887 584.963C900.502 588.013 903.179 590.97 905.916 593.852L908.026 595.627C908.379 595.921 908.732 596.214 909.087 596.505C972.377 636.038 1016.19 695.189 1016.31 772.235C1016.5 820.368 1023.42 868.442 1036.58 914.734C1047.13 959.966 1081.21 1006.2 1062.78 1053.44C1083.59 1050.1 1085.52 1076.86 1098.53 1086.97L1102.61 1088.07C1120.89 1092.99 1137.65 1097.1 1156.34 1099.95C1173.58 1102.02 1193.5 1099.75 1209.69 1107.53C1215.21 1111.45 1213.23 1118.52 1213.66 1124.35C1254.53 1107.63 1291.23 1084.52 1329.31 1062.79L1330.58 1062.33C1344.68 1057.32 1369.82 1049.8 1381.4 1060.79C1388.17 1068.76 1381.33 1075.88 1375.31 1081.22C1363.98 1091.27 1351.96 1100.48 1340.36 1110.19C1371.64 1112.81 1403.01 1110.72 1433.95 1105.64L1435.63 1105.37C1443.21 1104.13 1452.15 1101.18 1459.67 1103.98C1484.04 1117.59 1455.84 1133.48 1442.75 1141.43C1452.72 1140.6 1462.68 1139.36 1472.67 1137.65C1476.64 1136.97 1479.52 1139.23 1479.95 1143.2C1480.21 1162.21 1455.17 1163.24 1442.29 1170.51L1443.32 1170.27C1451.74 1168.32 1463.85 1166.6 1466.48 1177.1C1469.24 1189.99 1451.88 1195.2 1442.96 1198.63C1373.55 1221.9 1298.13 1228.96 1225.49 1220.16C1220.16 1245.2 1174.91 1297.32 1149.99 1304.83C1122.38 1311.72 1089.17 1289.9 1064.03 1279.32C999.594 1246.53 939.892 1192.44 921.516 1120.66C906.073 1231.95 912.315 1344.14 935.498 1453.63C939.251 1462.17 943.211 1470.57 947.666 1478.76C949.012 1478.98 950.151 1479.88 950.414 1481.7C950.551 1482.7 950.752 1483.67 950.979 1484.62C955.415 1492.16 960.277 1499.41 964.791 1506.91C965.724 1508.45 966.645 1510.06 967.487 1511.71C997.537 1547.17 960.911 1592.86 928.153 1611.98C1109.93 1908.35 992.524 2281.84 1115.68 2595.85L1115.95 2596.75C1120.63 2611.68 1134.87 2642.42 1114.28 2649.46C1107.74 2664.23 1074.8 2665.97 1060.16 2670.6C1068.09 2693.58 1076.91 2716.31 1088.74 2737.62L1088.95 2737.71C1093.66 2734.25 1103.77 2730.66 1107.94 2734.44C1108.96 2734.57 1109.97 2734.85 1110.96 2735.35C1117.42 2738.56 1122.62 2744.7 1128.8 2748.57C1132.15 2750.66 1135.62 2752.56 1139.2 2754.22C1142.53 2755.77 1146.07 2756.78 1148.79 2759.33C1149.65 2760.13 1149.87 2761.15 1149.65 2762.09C1151.8 2763.21 1153.94 2764.33 1156.08 2765.45L1157.24 2764.72C1176.13 2752.95 1191.32 2746.57 1163.84 2769.19C1173.69 2773.74 1183.79 2777.73 1193.95 2781.46C1201.67 2777.75 1209.91 2775.04 1218.4 2774.66C1219.93 2776.56 1208.25 2783.86 1206.33 2785.87C1258.01 2803.78 1314.86 2817.8 1353.69 2858.95L1354.56 2859.93C1361.17 2867.34 1370.84 2877.23 1366.54 2887.46C1377.77 2892.2 1383.29 2907.74 1380.07 2920.05C1363.87 2973.97 1115.52 2952.69 1059.75 2954.09C1015.64 2948.46 896.078 2957.7 871.549 2924.1C863.29 2914.79 865.208 2896.69 876.954 2891.79C868.802 2885.52 877.727 2862.03 877.747 2851.48L877.934 2850.26C879.183 2842.38 884.595 2811.55 890.213 2790.01C890.328 2788.31 890.553 2786.57 890.825 2784.82L891.001 2783.71C892.118 2776.84 893.832 2769.85 898.266 2764.33C901.45 2760.37 905.862 2757.92 910.649 2757.03C911.932 2748.83 912.985 2740.61 913.889 2732.37C914.526 2722.69 914.768 2712.99 914.659 2703.28C914.602 2698.38 914.473 2693.49 914.234 2688.59C914.058 2684.99 914.264 2680.71 913.35 2677.03C912.741 2677.65 911.874 2677.99 910.903 2677.65C908.84 2676.95 906.941 2675.64 905.047 2674.57C904.976 2674.53 904.919 2674.49 904.858 2674.44C894.744 2681.01 887.425 2652.9 883.491 2645.26C792.862 2385.12 864.419 2085.74 717.504 1841.79C697.222 1885.35 679.793 1925.3 660.271 1969.16C599.303 2106.14 524.038 2347.41 473.563 2492.44C459.83 2522.09 443.688 2550.74 424.5 2577.22C418.366 2584.18 414.25 2594.42 405.37 2598.16L404.593 2598.28C402.223 2602.71 398.933 2606.44 394.041 2606.31C392.841 2606.28 391.617 2606.15 390.381 2605.94C386.045 2636.12 380.593 2666.49 373.345 2696.18L374.323 2695.77C379.067 2693.81 384.056 2692.14 388.925 2692.58C400.741 2695.57 396.366 2705.91 387.026 2709.32C398.652 2712.93 406.519 2723.12 415.152 2731.61C422.448 2727.68 430.626 2725.64 439.365 2726.5C440.703 2726.63 441.723 2727.21 442.432 2728.01C442.933 2728.02 443.42 2728.05 443.882 2728.12L442.931 2728.7C444.483 2731.31 443.375 2735.29 439.365 2735.31C436.217 2735.33 433.186 2735.61 430.255 2736.15C428.22 2737.34 426.195 2738.55 424.198 2739.8C430.935 2745.76 438.108 2751.25 445.494 2756.27C449.395 2754.27 453.52 2752.6 457.811 2751.26C463.35 2749.53 465.768 2758.34 460.204 2759.94C459.023 2760.28 457.853 2760.65 456.691 2761.06L455.55 2761.75C455.282 2761.91 455.005 2762.07 454.715 2762.25C507.712 2799.96 597.293 2795.18 621.526 2865.8C622.328 2868.46 621.915 2870.76 620.788 2872.57C626.04 2877.39 628.463 2886.06 627.28 2892.71L627.381 2893.27C628.282 2898.65 626.986 2903.37 621.21 2904.6C582.669 2908.19 544.222 2910.47 505.513 2911.18L502.389 2911.21C446.93 2911.58 177.178 2909.56 165.011 2873.92C161.766 2867.32 160.766 2857.09 165.514 2851.2C166.065 2848.04 167.15 2845.15 169.079 2842.9C161.266 2835 165.109 2815.09 164.153 2805.06C165.868 2771.59 172.654 2735.7 193.098 2708.3C193.432 2707.87 193.836 2707.6 194.253 2707.48C197.823 2703.89 202.514 2701.62 207.878 2701.31C208.045 2700.9 208.215 2700.48 208.378 2700.06C212.548 2690.22 216.509 2680.2 220.444 2670.13C223.364 2658.69 226.41 2647.28 229.461 2635.93C232.51 2624.59 235.493 2613.23 238.411 2601.86C240.735 2592.79 242.734 2582.58 246.756 2573.91C246.647 2573.54 246.542 2573.17 246.422 2572.8L242.237 2571.11C214.823 2559.96 171.386 2541.15 180.93 2528.73C282.629 2317.24 382.178 2016.15 475.506 1796.9C476.964 1792.6 478.506 1788.33 480.199 1784.1C484.32 1773.79 488.496 1763.5 492.73 1753.23L495.278 1747.08L535.937 1649.17C540.193 1638.92 544.991 1628.73 548.345 1618.14C551.577 1607.94 552.445 1597.79 546.305 1588.51C540.811 1580.2 533.069 1573.33 526.875 1565.53C522.191 1559.63 517.625 1553.33 513.533 1546.7C509.817 1541.8 506.711 1536.19 503.94 1531.66C499.499 1524.42 493.852 1516.39 490.629 1508.02C486.472 1505.4 482.307 1502.79 478.127 1500.2C470.908 1496.15 463.805 1491.91 456.891 1487.33C448.159 1482.13 439.371 1477.03 430.514 1472.03C427.317 1470.45 424.118 1468.86 420.915 1467.29C411.319 1468.12 384.809 1456.28 375.778 1448.27C374.746 1448.07 373.719 1447.83 372.698 1447.57C372.29 1452.69 370.62 1457.32 366.729 1460.76C340.852 1473.61 307.87 1415.41 298.78 1395.99C280.716 1413.65 323.818 1501.01 337.741 1518.87L338.484 1519.97C342.208 1525.56 346.112 1531.83 351.394 1535.95L351.927 1536.36C355.548 1539.04 356.22 1543.23 353.266 1546.75C328.189 1569.41 301.865 1519.66 288.127 1503.27C231.581 1419.97 195.45 1318.6 197.034 1217.27C171.31 1208.65 135.698 1204.45 137.005 1169.52C135.69 1143.15 130.926 1117.07 130 1090.68C129.732 1084.62 148.578 1087.63 152.831 1088.27C146.566 1027.64 156.032 966.092 172.915 907.827C217.239 758.741 399.762 490.035 579.413 480.334C579.256 480.041 579.33 479.646 579.733 479.541C587.864 477.428 596.85 477.766 605.206 478.032C613.903 478.308 622.743 478.368 631.394 479.351C640.36 480.369 649.854 483.667 655.877 490.193L657.963 486.426C660.385 482.028 662.718 477.585 664.481 472.732C665.374 470.28 666.073 467.738 666.711 465.169C667.432 461.505 667.613 457.691 669.346 454.363C669.392 454.276 669.449 454.204 669.499 454.123C670.122 452.026 670.835 449.972 671.722 447.998ZM892.213 2891.67C889.645 2894.28 885.194 2895.42 881.252 2894.17C868.151 2931.42 939.228 2929.08 962.04 2931.17C986.365 2933.77 1429.46 2956.83 1354.53 2902.22C1266.61 2935.75 972.569 2939.45 892.213 2891.67ZM1108 2743.97C1102.08 2750.08 1093.17 2752.79 1086.82 2758.62C1068.88 2773.8 1054.45 2795.16 1029.66 2799.18C997.097 2805.26 967.737 2789.18 938.605 2776.44C934.978 2776.27 931.194 2774.74 927.476 2773.6C927.344 2773.87 927.213 2774.14 927.063 2774.39C926.882 2774.32 926.689 2774.26 926.473 2774.22C926.149 2774.17 925.842 2774.14 925.525 2774.09C924.777 2773.49 923.989 2772.99 923.173 2772.56C922.68 2772.49 922.19 2772.43 921.703 2772.4C915.699 2772.03 909.182 2773.43 905.329 2778.41C904.999 2778.83 904.7 2779.28 904.411 2779.74C902.544 2786.36 902.305 2794.37 903.206 2799.97C903.498 2801.8 902.736 2803.6 901.446 2804.64C900.295 2832.35 897.177 2860.17 895 2887.52C905.896 2891.44 917.202 2894.42 928.518 2896.31C1006.6 2905.91 1085.53 2910.38 1164.21 2907.96C1211.05 2906.27 1257.83 2902.08 1304.19 2895.12C1319.17 2893.7 1334.51 2887.9 1349.48 2890.25C1350.12 2889.04 1351.12 2888.01 1352.5 2887.31C1314.12 2834.71 1248.51 2820.49 1191.31 2797.43C1181.86 2803.48 1176.05 2816.06 1165.53 2819.81C1161.44 2820.42 1155.76 2818.01 1156.36 2812.83C1158.06 2802.21 1169.52 2797.37 1177.23 2791.21C1168.95 2787.34 1160.83 2783.13 1152.91 2778.46C1145.12 2785.48 1135.91 2790.82 1128.62 2798.31C1132.77 2808.43 1115.49 2807.55 1115.3 2796.78C1116.5 2784.86 1135.36 2779.82 1143.79 2772.87C1130.63 2764.86 1118.87 2754.75 1108 2743.97ZM180.648 2848.1C180.189 2849.01 179.44 2849.83 178.331 2850.48C176.411 2851.59 177.334 2857.46 177.43 2859.44L177.436 2859.59C177.541 2863.14 177.763 2866.69 178.071 2870.23C181.311 2873.16 185.454 2875.38 190.057 2876.72C330.242 2899.1 473.117 2900.91 614.655 2892.79C614.004 2889.02 611.253 2885.92 608.818 2882.78C519.34 2890.4 427.71 2882.43 338.082 2875.02C285.684 2868.12 230.784 2865.27 180.648 2848.1ZM384.741 2710.37C361.637 2718.33 340.139 2729.37 319.661 2742.6C312.051 2747.55 304.788 2753.23 296.04 2756.07C265.75 2765.19 220.337 2721.38 219.609 2720.89C209.09 2713.8 197.936 2720.41 192.213 2730.23C191.684 2731.14 182.911 2781.36 183.176 2805.97C181.602 2814.33 185.802 2828.01 183.567 2837.12C185.324 2839.24 187.829 2840.24 189.516 2842.45C190.127 2843.25 189.954 2844.16 189.426 2844.84C271.222 2851.58 352.542 2864.36 434.727 2867.05C490.975 2870.03 547.33 2869.35 603.587 2868.67C590.788 2831.06 547.192 2821.13 513.892 2808.76C488.732 2799.71 465.568 2786.24 445.186 2768.92C436.347 2775.13 429.377 2783.83 423.115 2792.57C420.27 2796.12 414.427 2798.8 411.38 2793.88C408.242 2788.77 414.368 2782.32 421.932 2776.66C425.91 2770.77 430.927 2765.74 436.704 2761.61C430.317 2755.91 424.167 2749.98 418.406 2743.67C406.459 2751.76 397.682 2763.42 389.088 2774.72C384.958 2779.23 377.234 2773.27 380.622 2768.19C383.337 2764.69 386.393 2761.46 389.665 2758.43C394.597 2749.12 401.698 2740.52 410.313 2734.57L409.656 2733.74C402.46 2724.49 396.238 2713.41 384.741 2710.37ZM181.177 2842.2C180.979 2842.45 180.771 2842.68 180.549 2842.91C180.747 2843.32 180.899 2843.74 181.011 2844.17L183.11 2844.34C182.381 2843.73 181.739 2843 181.177 2842.2ZM1052.47 2672.12C1009.62 2680.22 965.348 2683.33 922.092 2676.64C927.102 2704.59 930.239 2732.72 928.596 2761.1C993.271 2779.78 1020.14 2810.93 1073.95 2748.68C1071.35 2744.72 1069.85 2739.86 1068.11 2735.17C1060.67 2714.81 1054.53 2693.76 1052.47 2672.12ZM265.344 2580.44C264.733 2581.8 263.631 2582.91 262.043 2583.4C261.477 2585.9 260.892 2588.4 260.268 2590.9C259.218 2603.78 254.36 2616.54 249.336 2628.42L248.311 2630.89C244.997 2640.77 241.523 2650.63 238.096 2660.5C235.5 2670.76 233.213 2681.1 230.823 2691.4C230.362 2698.39 229.37 2705.32 227.845 2712.17C227.774 2712.49 227.679 2712.79 227.574 2713.07C229.969 2714.14 232.281 2715.38 234.461 2716.63C300.077 2765.95 288.745 2732.97 351.746 2705.36C351.384 2702.71 352.711 2700.31 353.794 2697.57L353.934 2697.21C354 2697.03 354.065 2696.86 354.131 2696.68C354.027 2695.64 354.088 2694.51 354.365 2693.32C360.746 2667.21 369.631 2641.55 377.947 2616C379.278 2612.15 380.819 2608.39 382.394 2604.64C342.448 2604.12 302.936 2593.48 265.344 2580.44ZM248.063 2593.13C247.29 2596.54 246.448 2599.91 245.681 2603.16L244.55 2608.01C246.159 2603.11 247.428 2598.13 248.063 2593.13ZM628.061 486.705C614.158 490.089 599.911 491.471 585.928 494.278C489.559 505.775 415.675 574.14 352.032 642.02C231.473 768.697 161.33 924.566 166.507 1100.73C209.56 1108.58 252.169 1120.06 296.034 1122.57C289.659 1112.91 300.335 1100.83 304.01 1091.58C367.457 968.951 416.446 833.577 456.227 704.472L455.146 710.107C442.655 774.903 428.105 839.424 405.897 901.666C412.33 895.339 518.008 811.259 509.748 839.061C477.461 864.306 440.994 884.311 407.163 907.478C447.388 1041.9 389.235 1178.1 378.186 1312.57C375.41 1342.48 375.651 1372.58 371.92 1402.37C370.501 1405.74 371.995 1412.59 369.906 1415.8C371.453 1423.7 374.707 1430.91 381.422 1437.08C384.249 1439.68 387.335 1441.93 390.579 1443.93C398.678 1445.16 406.813 1448.28 413.409 1451.17C428.086 1457.6 441.003 1467.08 454.122 1476.13L454.473 1476.37C475.626 1487.24 496.757 1499.59 517.966 1512.48L518.913 1512.97C526.802 1517.11 534.868 1520.85 541.742 1526.59C542.055 1526.85 542.264 1527.16 542.401 1527.47L555.283 1535.43C658.469 1599.13 764.862 1662.13 885.842 1616.66C919.833 1602.96 969.248 1575.21 962.902 1532.3C961.651 1528.19 959.748 1524.32 957.596 1520.56C956.998 1519.75 956.383 1518.96 955.764 1518.18C951.076 1512.25 945.829 1506.81 941.758 1500.41C940.102 1497.8 938.617 1495.12 937.318 1492.36C936.4 1492.08 935.584 1491.44 935.07 1490.31C929.247 1477.61 923.543 1464.88 918.231 1451.95C853.829 1227.36 932 986.038 954.115 759.507C955.648 746.535 957.905 733.431 957.899 720.365C957.899 719.752 958.787 719.772 958.836 720.365C966.636 778.183 960.719 836.539 953.303 894.096C943.808 966.1 931.333 1037.81 922.762 1109.94C945.547 1182.65 1009.36 1235.19 1076.36 1266.69C1087.76 1272.11 1099.42 1276.94 1111.3 1281.19L1112.1 1281.47C1125.16 1286.04 1139.9 1293.11 1152.49 1283.84C1176.67 1267.43 1193.74 1242.38 1209.41 1218.26C1203.07 1217.57 1196.72 1216.98 1190.37 1216.54C1174.78 1234.39 1155.67 1249.54 1135.5 1261.92C1127.28 1266.63 1117.95 1264.64 1114.15 1255.41C1110.56 1246.71 1114.95 1236.54 1118.13 1228.15L1118.59 1226.93C1134.69 1183.51 1162.63 1143.73 1200.36 1116.54C1171.89 1110.85 1142.33 1111.02 1115.02 1099.77C1116.51 1101.33 1114.56 1103.08 1113.61 1104.41C1113.95 1106.98 1112.08 1108.86 1109.78 1109.55C1087.5 1138.68 1070.61 1173.16 1067.08 1210.1C1068.02 1222.68 1056.77 1237.21 1045.93 1224C1037.46 1187.23 1070.8 1129.77 1100.11 1107.08C1070.71 1086.9 1079.28 1057.77 1060.83 1057.64C1056.06 1066.79 1049.84 1075.56 1041.99 1082.36C1038.45 1085.24 1034.14 1087.42 1030.34 1089.98C1026.34 1092.67 1022.17 1086.75 1025.34 1083.5L1026.17 1082.49C1038.21 1068.09 1052.51 1053.93 1054.99 1034.45C1058.59 1010.45 1047.8 986.143 1039.54 964.224C1023.7 922.203 1013.19 878.481 1008.07 833.864C1002.27 793.888 1009.32 752.422 995.643 713.738C992.924 702.965 989.013 693.153 984.219 684.047C984.105 683.952 983.992 683.855 983.889 683.736C978.198 677.151 973.652 669.826 968.346 662.929C962.797 655.714 956.781 648.848 950.409 642.351C939.76 631.495 928.003 622.437 915.747 613.715C915.52 613.633 915.291 613.527 915.061 613.391C912.765 612.034 910.56 610.386 908.432 608.575L908.225 608.431C901.098 603.476 893.825 598.098 888.262 591.371C882.802 584.766 878.916 577.064 874.458 569.789C868.364 562.353 862.555 554.386 855.206 548.19C851.049 545.816 846.723 543.579 843.013 540.61C842.406 540.356 841.789 540.115 841.161 539.887C842.742 546.335 845.134 552.268 847.289 558.818C850.411 557.5 854.684 558.961 855.209 563.772L855.403 565.568C858.537 595.03 860.124 630.683 842.803 656.192C804.661 711.511 747.69 664.281 718.877 625.383C693.02 594.36 671.282 559.852 655.229 522.766L654.963 522.276C651.974 516.601 645.495 499.294 643.665 490.978C639.036 488.54 633.404 487.359 628.061 486.705ZM505.946 1517.75C505.83 1517.9 505.698 1518.02 505.554 1518.13C510.964 1525.82 516.118 1533.77 521.43 1541.48C517.075 1534.36 512.981 1527.18 509.356 1519.93C508.222 1519.2 507.082 1518.48 505.946 1517.75ZM203.194 1219.18C223.868 1331.45 253.413 1449.56 335.737 1533.5C310.116 1497.4 290.192 1455.26 284.395 1411.13C284.155 1399.28 288.468 1386.77 301.572 1385.01C303.808 1384.71 305.507 1386.72 306.306 1388.5L306.383 1388.68C311.538 1400.99 318.241 1412.69 326.178 1423.42L326.956 1424.43C332.945 1432.18 358.367 1463.75 361.914 1448.66C359.318 1372.36 280.475 1340.9 267.563 1235.81C245.471 1233.47 224.507 1225.08 203.194 1219.18ZM372.687 1441.87C372.772 1443.06 372.813 1444.25 372.795 1445.42C373.966 1444.93 375.17 1444.55 376.401 1444.24C375.151 1443.47 373.915 1442.68 372.687 1441.87ZM371.518 1433.64C371.951 1435.84 372.317 1438.05 372.542 1440.24C374.792 1440.95 377.018 1441.74 379.232 1442.55C377.89 1441.35 376.613 1440.07 375.416 1438.71C374.021 1437.13 372.713 1435.42 371.518 1433.64ZM401.987 912.8C385.838 957.877 367.75 1002.26 347.555 1045.68C333.995 1071.08 324.948 1100.69 306.184 1122.73C306.001 1122.91 305.817 1123.07 305.629 1123.23L305.94 1123.24C311.531 1123.49 341.912 1126.48 326.317 1133.35C320.262 1157.21 312.329 1180.53 305.696 1204.24L305.548 1204.92C303.121 1216.39 300.052 1239.48 283.767 1231.78C282 1233.13 279.879 1234.08 277.598 1234.71C284.918 1298.96 325.549 1340.79 357.668 1393.25C350.488 1365.56 352.586 1336.65 355.086 1308.38L355.706 1301.43C368.977 1171.82 417.679 1044.37 401.987 912.8ZM536.866 1324.78C510.689 1292.14 381.935 969.031 472.924 1164.78C505.263 1232.93 531.882 1305.88 585.233 1361.1C588.922 1365.06 584.062 1372.03 579.268 1368.83C562.047 1357.33 548.109 1342.08 536.866 1324.78ZM443.681 934.251C443.573 933.727 444.244 933.439 444.539 933.888C479.522 1002.96 504.5 1077.18 544.027 1144.16C567.887 1185.64 596.518 1224.3 629.304 1259.16C631.767 1261.78 628.061 1265.4 625.393 1263.07C531.801 1176.72 486.298 1051.19 443.681 934.251ZM1133.49 1218.61L1133.44 1218.62L1132.58 1220.85C1132.28 1221.6 1131.99 1222.36 1131.69 1223.12C1131.83 1223.06 1131.97 1223 1132.12 1222.94C1132.42 1222.63 1132.73 1222.32 1133.04 1221.99C1132.97 1220.85 1133.11 1219.71 1133.49 1218.61ZM153.202 1090.98C148.45 1092.84 142.612 1093.2 137.359 1093.65C143.24 1121.36 148.317 1149.28 153.64 1177.06C156.101 1185.59 161.887 1188.58 169.895 1191.29L176.331 1193.35C206.378 1202.97 236.594 1212.86 267.576 1218.77C269.754 1217.35 272.848 1217.42 274.294 1219.69C275.801 1219.83 277.348 1219.92 278.877 1220.06C287.155 1189.49 301.32 1159.87 320.275 1134.51C267.294 1136.22 213.93 1122.24 163.528 1106.62C161.487 1107.61 158.799 1106.99 157.938 1104.65L157.162 1104.42C148.7 1101.91 137.481 1095.75 155.263 1098.88C154.189 1096.37 153.593 1093.68 153.202 1090.98ZM1371.45 1068.36C1336.34 1062.55 1309.5 1091.01 1279.53 1104.07C1261.58 1111.77 1213.76 1135.64 1196.37 1127.7C1172.54 1150.64 1152.42 1177.45 1138.34 1207.53C1142.18 1207.3 1146.02 1207.13 1149.85 1207.01C1156.8 1204.78 1164.22 1204.66 1171.44 1206.81C1243.71 1207.61 1316.03 1221.65 1388.01 1203.85L1389.66 1203.54C1404.45 1200.74 1454.93 1190.07 1457.81 1179.61C1457.05 1175.06 1443.48 1179.87 1440.87 1180.38C1420.12 1184.47 1399.04 1186.42 1378.02 1188.46C1372.17 1189.03 1372.25 1179.93 1378.02 1179.36C1403.32 1176.84 1427.3 1167.34 1450.52 1157.46C1452.99 1156.36 1459.53 1154.09 1464.05 1151.15C1442.6 1154.8 1420.49 1155.43 1398.78 1154.66C1391.31 1153.69 1390.78 1142.34 1398.78 1142.56C1413.44 1144.18 1427.44 1136.95 1439.4 1129.31L1442 1127.62C1461.95 1114.62 1460.55 1114.06 1435.35 1118.89C1398.32 1125.64 1360.84 1125.39 1323.45 1122.81C1318.11 1122.72 1314.43 1115.54 1318.84 1111.69C1336.06 1096.83 1354.52 1083.57 1371.45 1068.36ZM1201.7 1122.51L1201.3 1122.9C1200.44 1123.72 1199.73 1124.45 1199.34 1124.84L1199.18 1124.99C1198.65 1125.49 1198.14 1126 1197.61 1126.51C1199.91 1127.28 1202.44 1127.32 1205.05 1126.92C1203.48 1125.93 1202.3 1124.32 1201.7 1122.51ZM541.835 1003.49L542.032 1003.7C564.622 1028.15 587.52 1067.79 606.236 1099.06C608.703 1124.68 553.366 1018.36 541.92 1003.6L541.835 1003.49ZM1110.38 1098.07C1110.6 1098.34 1110.81 1098.62 1111.02 1098.91L1111.32 1099.34L1111.81 1099.04C1111.99 1098.93 1112.17 1098.87 1112.37 1098.82C1111.7 1098.57 1111.04 1098.32 1110.38 1098.07ZM1007.03 1014.62C1027.35 1017.81 985.789 1043.06 980.303 1046.68C976.79 1048.02 943.389 1075.59 945.415 1066.64L946.361 1065.43C961.916 1045.64 983.117 1023 1007.03 1014.62ZM211.899 961.695C219.417 949.587 260.332 965.527 273.265 967.436C280.535 969.355 287.726 971.626 295.074 973.238C300.816 975.321 327.59 973.302 317.764 984.653C307.511 990.164 294.125 985.904 283.625 982.978C262.734 977.271 241.771 970.613 220.378 967.446C219.736 967.125 219.697 967.342 220.259 968.099C224.861 978.325 234.539 987.919 245.44 991.215C246.193 991.433 245.876 992.584 245.114 992.39C233.216 990.028 205.506 976.826 211.899 961.695Z" fill="black"/>
<path fill-rule="evenodd" clip-rule="evenodd" d="M586.973 102.401C592.159 96.8357 598.792 92.6897 606.043 91.3647C599.415 94.6757 592.936 98.1267 586.973 102.401ZM576.815 150.385C575.898 146.144 575.282 141.862 575.088 137.581C576.247 139.343 578.098 140.52 580.177 141.128C578.834 144.135 577.692 147.233 576.815 150.385ZM923.835 216.878C917.849 191.961 889.921 144.034 883.32 134.809C876.152 111.968 915.246 93.6507 893.985 75.7897C884.359 67.7307 871.637 64.8787 859.703 62.0207C777.073 42.1767 688.295 52.1847 611.659 88.6757C600.002 86.2227 587.857 91.0167 579.38 99.4367C539.555 139.465 593.829 211.687 605.697 256.813C626.059 307.13 584.115 315.594 588.613 358.167C592.108 380.161 614.385 385.974 633.184 389.298C636.197 390.003 640.225 390.109 641.197 393.294C644.243 411.885 654.685 429.602 668.704 441.626C667.478 445.258 668.414 449.667 672.737 452.857C711.905 481.964 761.292 496.53 810.144 493.912C868.362 490.791 898.469 457.423 905.734 448.831C945.903 394.584 941.103 323.01 932.909 258.361C927.201 213.325 934.439 261.018 923.835 216.878Z" fill="white"/>
<path fill-rule="evenodd" clip-rule="evenodd" d="M744.322 9.54133C746.152 3.82133 751.332 0.381332 757.262 1.09133C762.512 1.71133 768.132 6.92133 767.492 12.6713C767.372 13.7813 767.212 14.8213 767.022 15.8013L767.047 15.8101L767.072 15.8113L766.942 16.1913C766.552 18.0213 766.012 19.6613 765.212 21.2113C764.192 24.1813 763.212 27.1613 762.242 30.1513C763.642 30.0913 765.072 30.1713 766.522 30.4413C768.022 26.6013 769.532 22.7713 771.032 18.9213C772.642 14.8113 773.772 9.53133 776.952 6.35133C781.022 2.29133 788.082 1.45133 793.042 4.35133C798.282 7.41133 800.152 12.8513 799.012 18.6813C798.432 21.6551 796.445 23.7247 793.987 25.025L793.722 25.1613L791.832 29.6413C792.412 29.3913 793.012 29.1613 793.662 28.9713C794.682 28.6713 795.682 28.4813 796.662 28.4013C799.362 23.5113 802.332 18.7613 805.402 14.1013C808.932 8.74133 815.832 6.46133 821.622 9.85133C826.802 12.8813 829.582 20.8413 825.872 26.0713C823.052 30.0413 820.382 34.0913 817.752 38.1813C818.202 38.2613 818.652 38.3613 819.082 38.4913C819.282 38.2213 819.492 37.9513 819.712 37.6813C822.582 34.1213 825.922 31.4513 829.352 28.4913C832.562 25.7113 834.042 21.3413 838.262 19.2313C843.572 16.5813 849.972 17.8513 853.132 23.1313C859.912 34.4413 848.532 42.7013 841.252 49.5513C847.582 45.6013 854.172 41.9913 860.932 38.8713C864.732 37.1213 868.592 35.4313 872.512 33.9713C878.322 31.8113 883.022 32.5023 887.792 36.5213C889.922 38.3213 890.982 42.2523 890.002 44.8713C888.102 49.8913 885.102 52.9413 879.842 54.3913C876.142 55.4113 872.352 56.1013 868.652 57.1713C862.452 58.9513 856.432 61.1213 850.592 63.8313C851.012 64.0913 851.412 64.3713 851.782 64.6913C856.142 63.2813 860.582 62.0613 865.042 61.0213C872.439 59.287 879.967 58.1151 887.529 57.3821L890.041 57.1483C899.107 56.2783 910.008 54.6728 915.572 63.3513C917.402 66.2113 917.602 70.9313 915.572 73.7613C911.692 79.2013 907.832 80.2813 901.412 80.3813C907.732 81.0513 914.042 81.8813 920.322 82.8513C924.65 83.5113 928.979 84.2595 933.289 85.0895L935.442 85.5113C940.692 86.5613 946.552 87.1713 951.062 90.2113C960.902 96.8513 956.282 109.781 945.382 111.161C940.112 111.821 934.262 109.591 929.092 108.551C924.072 107.541 919.032 106.651 913.972 105.871C911.352 105.461 908.732 105.101 906.102 104.771C911.452 105.541 916.762 106.631 921.932 108.171L923.368 108.605C933.363 111.651 946.854 116.502 949.972 127.181C951.862 133.671 946.692 139.331 940.432 139.711C934.612 140.061 929.762 136.591 924.822 134.031C921.222 132.171 917.562 130.781 913.682 129.591C909.672 128.361 905.582 127.341 901.462 126.511C904.944 128.43 908.334 130.538 911.589 132.896L913.086 134.002C921.737 140.448 934.93 150.428 931.882 162.511C930.922 166.321 926.672 169.961 922.592 169.571C911.972 168.581 906.112 157.271 898.102 151.211C896.012 149.631 893.722 148.071 891.322 146.551C903.462 161.031 913.122 177.771 920.472 195.061C936.625 233.099 941.581 268.325 941.7 309.225L941.702 310.491C941.722 333.051 941.212 356.021 939.012 378.481C936.972 399.231 933.232 419.711 923.822 438.502C908.052 470.011 877.322 494.551 843.432 503.891C805.722 514.291 763.572 506.161 732.682 482.161C724.802 476.041 735.252 462.752 743.302 468.401C775.452 490.951 817.032 498.091 853.932 482.831C883.202 470.731 906.772 444.701 916.762 414.731C923.12 395.665 924.972 375.335 927.24 355.465L927.392 354.141C929.792 333.361 931.182 312.441 931.162 291.521C931.132 252.671 925.552 220.691 908.462 185.451C900.422 168.851 889.992 153.502 877.532 140.031C873.752 140.801 869.732 139.721 865.912 139.311C863.962 139.101 862.012 138.901 860.062 138.721C862.054 140.009 864.007 141.349 865.928 142.719L868.446 144.535C876.328 150.18 886.328 156.609 884.302 167.521C883.752 170.471 880.812 173.181 877.962 173.851C867.632 176.311 860.532 166.271 853.552 160.311C847.482 155.131 841.132 150.491 834.662 145.841C833.192 144.791 831.712 143.741 830.222 142.701C831.622 144.333 832.983 145.991 834.312 147.664L836.276 150.153C842.218 157.588 850.784 167.253 845.492 176.891C843.992 179.611 840.792 181.421 837.692 181.361C827.032 181.141 822.792 169.041 817.792 161.401C813.492 154.851 808.822 148.681 803.992 142.511C802.662 140.821 801.322 139.131 799.962 137.441C777.572 138.601 755.262 141.561 733.342 146.291C718.282 149.541 703.472 153.752 688.772 158.361L687.55 158.75C679.595 161.311 671.398 164.59 665.662 170.211C664.843 174.085 665.471 178.169 666.255 182.037L666.865 184.998C669.38 197.379 671.094 209.53 669.812 222.241C668.482 235.351 664.532 247.141 659.712 259.321C657.432 265.061 655.072 264.021 654.262 270.181C653.641 274.873 654.025 279.717 654.449 284.448L654.803 288.459C655.692 298.966 656.139 310.422 649.252 319.091C648.182 320.421 645.892 319.891 645.132 318.561C644.832 318.031 644.512 317.521 644.162 317.031C640.842 312.221 635.752 309.481 629.932 308.421C629.192 308.291 629.482 307.301 630.102 307.221C635.022 306.641 639.682 307.871 643.642 310.411C641.764 303.918 627.226 307.076 622.446 308.338L622.282 308.381C616.322 309.981 610.682 312.581 605.712 316.261C595.712 323.661 589.932 335.201 590.222 347.631C590.512 359.851 596.822 371.141 607.662 376.991C612.892 379.811 618.842 381.171 624.762 381.111C630.942 381.051 636.442 378.341 642.632 378.721C646.212 378.941 648.952 382.781 646.882 386.131C645.502 388.371 643.702 390.131 641.622 391.481C646.692 403.171 653.162 414.321 660.622 424.611C664.752 430.321 669.432 435.591 674.582 440.401C678.602 444.161 687.312 448.511 686.822 454.781C686.652 457.041 685.482 458.421 683.422 459.261C677.017 461.88 669.23 452.864 664.946 448.518L664.602 448.171C659.262 442.851 654.392 436.971 650.152 430.731C642.632 419.651 637.962 407.161 636.032 394.041C625.762 397.131 612.162 394.231 603.782 390.441C577.442 378.541 568.832 343.071 584.842 319.451C587.942 314.881 591.822 310.971 596.242 307.811C595.272 307.281 594.362 306.601 593.552 305.741C589.071 300.982 585.903 294.771 582.759 289.046L582.382 288.361C579.591 283.321 576.958 278.202 574.49 273.004L573.572 271.051C568.062 259.201 563.232 254.021 559.302 241.561C555.522 229.541 552.542 217.291 550.612 204.831L550.099 201.533C548.983 194.303 547.927 186.572 548.742 179.231C543.132 181.061 537.492 182.191 531.942 179.441C528.282 177.631 526.262 172.351 527.512 168.561C528.422 165.771 529.942 163.581 531.872 161.861C530.722 161.281 529.642 160.541 528.692 159.721L527.862 159.002C524.502 156.081 524.262 150.531 526.302 146.871C526.502 146.521 526.702 146.161 526.892 145.811C528.832 142.341 532.842 140.071 536.802 140.131C537.442 140.141 538.082 140.141 538.732 140.131C536.882 139.721 535.072 139.091 533.352 138.031C525.592 133.261 526.572 120.331 535.962 118.051C539.902 117.101 544.252 117.491 548.592 118.511C548.432 118.421 548.272 118.331 548.112 118.231C544.832 116.221 542.082 112.291 542.392 108.261C542.732 103.801 544.172 100.621 548.112 98.2813C551.532 96.2613 556.372 96.0713 559.772 98.2813C562.722 100.211 565.612 102.341 568.392 104.631C565.602 101.201 563.182 97.4713 562.202 93.5113C560.992 88.5813 563.012 83.2113 567.452 80.6113C570.992 78.5413 574.732 78.7713 578.072 80.3713C577.892 77.7813 578.522 75.1413 580.242 72.8013C583.762 68.0023 590.162 65.2413 595.732 68.7413C596.462 69.2013 597.442 69.9913 598.392 70.9613C596.542 65.0713 598.212 58.8913 604.522 56.2313C608.372 54.6013 613.582 55.4213 616.922 58.2313C614.802 46.7613 631.732 38.3313 638.312 50.1813C639.805 52.8658 641.283 55.6924 642.604 58.5841L643.092 59.6713L643.142 59.6513L642.805 58.8563L642.462 58.0613C640.632 53.8113 638.302 49.3913 637.662 44.7813C636.722 37.9613 639.762 31.4913 647.182 30.4913C651.012 29.9713 655.272 31.7113 657.842 34.7523C656.452 24.1713 668.272 16.4813 676.782 24.3813C680.812 28.1213 682.962 33.5913 685.522 38.3913C686.972 41.1013 688.452 43.8013 689.902 46.5213C690.272 46.0813 690.672 45.6413 691.092 45.2113C688.942 38.7713 687.272 32.1713 685.862 25.5313C684.522 19.2713 687.652 12.7713 694.112 11.0023C699.982 9.38133 707.332 13.0023 708.642 19.2523C709.562 23.6513 710.652 28.0023 711.852 32.3313C712.672 32.1313 713.482 31.9913 714.282 31.8913C714.348 31.078 714.424 30.2602 714.508 29.4469L714.823 26.5542C715.522 19.9447 716.228 12.3998 719.682 6.78133C725.572 -2.81867 740.672 1.16133 740.832 12.5113C740.922 18.3813 738.532 24.2013 737.702 30.0113C737.342 32.5413 737.132 35.1013 737.012 37.6613C738.622 29.1613 740.832 20.7713 743.392 12.5113C743.692 11.5213 744.012 10.5313 744.322 9.54133ZM614.042 337.322C627.292 335.272 639.402 342.662 647.252 353.012C648.682 354.902 647.742 357.572 646.452 359.162C645.522 360.332 644.272 360.472 642.862 360.652C641.242 360.862 639.192 359.552 638.482 358.142C633.432 348.062 624.422 341.692 614.042 337.772C613.852 337.702 613.792 337.362 614.042 337.322ZM632.409 156.717L632.811 156.286C635.492 153.505 631.255 149.257 628.568 152.044C625.739 154.978 623.859 158.542 622.051 162.154C620.328 165.598 625.502 168.64 627.232 165.183L628.02 163.612C629.256 161.169 630.574 158.755 632.409 156.717ZM595.199 151.009C598.999 150.369 597.388 144.586 593.604 145.224C588.702 146.05 583.819 146.989 578.916 147.816C575.117 148.456 576.728 154.239 580.512 153.602C585.414 152.775 590.297 151.836 595.199 151.009ZM821.567 111.528C817.896 110.303 816.321 116.096 819.972 117.314C825.017 118.997 830.021 120.722 834.807 123.059C838.264 124.747 841.309 119.574 837.835 117.878C832.582 115.313 827.105 113.376 821.567 111.528ZM594.335 103.752C590.75 102.318 589.193 108.119 592.74 109.538L605.7 114.721C609.285 116.155 610.842 110.355 607.295 108.936L594.335 103.752ZM866.821 89.6648L866.348 89.3663C863.098 87.2603 860.087 92.4523 863.319 94.5473C865.216 95.7765 867.523 96.6102 869.26 98.0745L869.624 98.3983C872.43 101.048 876.681 96.8143 873.867 94.1553C871.808 92.2119 869.202 91.1298 866.821 89.6648Z" fill="black"/>
<path fill-rule="evenodd" clip-rule="evenodd" d="M833.943 371.352C835.477 368.685 839.009 366.214 842.241 366.593C856.72 368.291 856.695 385.845 851.104 396.093C846.147 405.18 835.888 410.514 825.62 409.735C814.833 408.916 805.642 402.574 801.597 392.483C798.922 385.808 797.686 373.485 804.802 369C804.934 368.916 805.152 368.937 805.257 369.058C808.669 373.027 808.803 378.986 811.79 383.405C814.568 387.515 818.884 390.909 823.94 391.433C827.716 391.825 831.536 390.463 833.013 387.073C833.812 385.239 833.721 384.244 833.421 382.982L833.148 381.885C832.202 378.044 831.778 375.119 833.943 371.352ZM837.814 294.367C845.365 298.957 856.871 309.66 848.748 321.04C839.185 331.073 825.418 319.569 818.634 314.366C812.343 310.334 805.275 320.705 811.112 325.413C860.135 361.708 880.03 295.568 841.633 288.971C837.406 288.244 835.835 292.947 837.814 294.367ZM758.071 262.893C762.706 255.939 773.286 256.963 775.839 265.215C777.222 269.685 775.312 273.703 775.411 278.167C775.494 281.938 775.247 286.14 774.091 289.792C771.455 298.12 763.965 304.002 755.104 303.758C746.272 303.515 738.493 297.925 734.794 290.052C731.082 282.149 731.868 273.97 734.578 265.934C734.708 265.548 735.214 265.361 735.519 265.686C738.722 269.09 741.067 272.684 743.494 276.496L745.98 280.403C747.881 283.345 750.643 287.103 754.191 286.867L754.723 286.815C755.71 286.73 755.558 286.926 756.319 285.582C756.671 284.96 756.607 283.804 756.777 283.07L756.836 282.822L756.804 282.688C756.729 282.333 756.654 281.663 756.594 280.5L756.581 280.244C756.324 274.807 754.787 267.82 758.071 262.893ZM875.563 267.522C874.732 258.628 887.236 256.653 891.393 263.234C893.561 266.666 894.192 270.977 894.672 275.062L894.896 277C895.388 281.195 895.583 285.559 893.762 289.472C890.894 295.635 884.657 298.893 877.929 298.377C871.504 297.883 865.642 294.158 862.552 288.503C859.797 283.457 857.058 273.605 860.404 268.342C860.606 268.023 861.01 267.982 861.287 268.228C864.449 271.035 864.964 276.155 866.844 279.812C868.783 283.584 871.724 287.26 876.181 287.833C880.445 288.381 882.074 286.052 880.986 281.987C879.583 276.739 876.091 273.169 875.563 267.522ZM761.448 210.016L763.493 209.233C770.499 206.586 780.118 203.527 785.814 209.224C789.328 212.737 789.997 217.912 787.489 222.199C784.45 227.392 778.999 227.52 773.735 228.285C767.748 229.155 761.659 230.809 756.085 233.167C749.806 235.824 743.979 239.136 738.27 242.835C732.844 246.35 727.437 252.095 720.942 253.178C720.677 253.222 720.376 253.108 720.307 252.817C718.832 246.467 722.931 240.218 726.589 235.264C731.015 229.266 736.378 224.343 742.372 219.929C748.157 215.668 754.767 212.589 761.448 210.016ZM888.716 232.593L889.34 232.483C893.589 231.776 897.439 231.939 900.641 235.304C903.085 237.871 904.027 241.198 902.862 244.592C901.787 247.723 899.383 250.904 895.894 251.56C884.115 253.776 871.068 253.41 859.23 251.732C853.814 250.963 848.349 250.024 843.073 248.542L840.646 247.838C836.242 246.58 831.2 245.266 828.001 242.027C826.851 240.863 827.514 239.197 828.89 238.658C834.472 236.472 842.123 237.635 848.075 237.464C854.999 237.266 861.934 236.747 868.825 236.032C875.559 235.332 882.075 233.811 888.716 232.593Z" fill="black"/>
<path fill-rule="evenodd" clip-rule="evenodd" d="M837.963 342.325C825.77 336.836 803.874 341.626 795.925 343.53C777.445 347.958 758.854 357.529 753.108 372.523C746.634 389.421 759.552 394.741 761.452 393.872C774.245 394.772 789.48 386.736 802.886 384.662C813.769 382.963 825.25 381.481 835.447 375.703C842.891 379.795 859.706 382.007 873.277 385.585C884.834 388.631 889.842 395.237 900.556 393.832C913.397 392.149 908.141 365.16 893.829 354.227C878.166 342.261 851.674 337.408 837.963 342.325ZM862.106 457.724C851.438 460.324 850.722 436.959 849.527 428.704C848.593 422.255 843.327 405.624 829.978 406.342C816.628 407.059 811.609 420.993 812.287 429.659C812.726 435.279 817.908 463.746 801.366 467.348C790.82 467.31 778.619 466.599 767.529 464.556C754.477 461.602 737.506 451.26 733.023 471.627C731.409 478.957 788.903 500.735 814.416 502.705C840.29 507.945 870.563 499.888 888.984 480.109C893.175 475.609 904.978 456.932 905.819 452.356C907.586 442.741 903.495 436.554 891.59 439.943C883.181 444.431 868.967 456.053 862.106 457.724Z" fill="black"/>
<path fill-rule="evenodd" clip-rule="evenodd" d="M912.134 313.318C905.401 322.363 892.919 325.244 881.406 324.249C856.575 321.859 848.76 293.658 847.946 271.739C864.597 276.423 846.538 243.249 903.457 239.601C923.522 237.929 917.99 250.047 926.855 258.901C926.673 277.483 923.58 297.674 912.134 313.318ZM793.863 291.966C779.203 360.619 698.925 344.289 690.492 282.403C698.279 276.907 696.228 263.336 705.902 258.419C721.234 248.623 740.4 249.042 757.811 249.272C780.066 250.801 786.408 260.02 797.84 270.078C797.29 276.796 795.704 284.758 793.863 291.966ZM943.935 228.231C943.112 228.094 942.288 227.965 941.464 227.844C940.821 227.479 940.066 227.198 939.188 227.029C937.183 226.52 935.192 226.177 933.204 225.992C904.672 219.571 838.665 228.688 835.941 253.036C826.855 256.069 818.993 253.353 808.462 253.623C800.446 220.118 661.863 224.847 655.198 245.047C655.173 245.04 655.148 245.034 655.122 245.026C648.718 243.044 639.277 243.522 631.947 243.208C616.296 242.88 600.627 244.275 585.314 247.576C556.639 252.133 517.504 257.468 537.447 293.276C537.451 293.282 537.454 293.289 537.459 293.295L537.462 293.292C540.899 296.815 546.732 293.978 546.949 289.209C540.244 272.245 555.388 270.208 567.04 265.333C596.033 254.917 625.551 253.473 655.537 256.695C657.793 259.351 661.216 261.667 664.834 262.879C684.883 266.207 674.317 281.079 686.99 283.242C684.662 335.084 747.603 363.382 784.072 329.303C798.633 315.067 802.104 293.978 805.48 274.969C807.265 274.568 808.4 273.592 809.063 272.3C813.356 268.014 816.053 264.056 824.542 262.879C833.031 261.703 839.566 264.064 840.45 264.787C840.673 265.236 840.912 265.686 841.19 266.136C841.578 266.807 842.106 267.342 842.706 267.763C834.323 319.387 874.4 352.035 914.859 325.26C932.439 308.723 936.154 283.405 936.888 260.807C939.271 259.369 940.78 256.582 939.955 253.078C938.818 248.248 941.484 244.066 945.73 241.966C951.247 239.239 950.271 229.28 943.935 228.231Z" fill="black"/>
</svg>
