<svg width="2532" height="2999" viewBox="0 0 2532 2999" fill="none" xmlns="http://www.w3.org/2000/svg">
<path fill-rule="evenodd" clip-rule="evenodd" d="M2304.81 1135.11L2306.19 1151.5L2307.21 1149.58C2307.36 1182.64 2312.26 1216.06 2317.67 1249.05C2331.81 1237.43 2343.43 1227.19 2340.07 1207.37C2331.57 1179.12 2320.67 1151.56 2311.86 1123.46L2310.38 1130.83L2304.56 1132L2304.81 1135.11ZM1295.15 2876.75C1297.75 2865.26 1300.59 2853.1 1303.25 2841.58C1303.52 2840.61 1305.95 2840.39 1306.74 2840.13C1320.81 2805.7 1333.13 2797.86 1360.38 2793.17C1404.34 2785.23 1447.71 2768.01 1489.23 2742.5C1488.26 2738.7 1485.61 2732.14 1483.2 2725.14C1483.52 2725.25 1483.83 2725.34 1484.16 2725.4C1484.72 2725.51 1485.24 2725.54 1485.74 2725.5C1488.56 2732.11 1491.62 2737.91 1493.24 2740.05C1498.43 2736.71 1504.2 2733.03 1509.28 2729.48L1509.26 2729.42C1513.78 2726.29 1519.37 2722.42 1523.8 2720.01C1524.63 2715.43 1531.35 2714.01 1534.86 2710.98C1541.67 2706.12 1545.45 2703.62 1551.7 2709.82C1565.17 2692.34 1576.03 2673.85 1586.7 2649.95C1593.38 2635.98 1596.66 2620.51 1605.64 2608.04C1605.46 2607.94 1599.76 2606.16 1599.62 2606C1701.65 2380.21 1718 2128.97 1739.76 1887.61C1744.56 1833.64 1749.59 1779.17 1758.95 1726.78C1760.23 1718.85 1761.38 1711.04 1766.16 1704.71C1708.82 1657.51 1708.26 1566.04 1736.04 1498.19C1672.18 1326.11 1797.35 1143.35 1788.11 967.739C1782.94 848.617 1804.4 710.592 1939.11 682.011C1955.82 672.406 1975.84 670.972 1991.79 670.713C2006.14 663.471 2008.4 647.482 2013.51 634.338L2018.5 634.37C2019.96 628.421 2021.41 621.898 2022.67 615.905C2024.57 612.105 2023.45 607.152 2029.41 608.205C2042.94 588.643 2151.2 578.808 2152.43 610.307C2156.33 612.608 2157.11 617.101 2158.02 622.557C2164.02 661.243 2205.38 692.094 2242.64 685.872L2243.25 685.328C2401.89 679.455 2464.35 792.193 2495.35 945.837C2519.57 1065.22 2534.97 1194.59 2516 1314.17C2497.47 1368.36 2441.33 1394.43 2397.91 1427.82C2402.91 1440.42 2403.38 1454.32 2403.53 1467.96C2404.11 1483.7 2405.25 1499.56 2406.65 1515.09C2409.5 1534.77 2414.13 1568.65 2387.3 1570.95C2376.91 1806.17 2355.21 2040.78 2388.37 2276.69C2415.9 2407.16 2405.36 2565.02 2371.33 2692.67C2369.36 2698.98 2364.32 2704.65 2357.88 2702.64C2354.6 2704.75 2352.05 2706.07 2349.34 2704.08C2347.75 2707.03 2346 2709.86 2344.11 2712.61C2343.4 2747.68 2339.42 2782.09 2341.23 2817.39C2343.93 2817.07 2349.88 2814.1 2352.19 2816.04L2352.52 2818.73L2354.72 2819.48C2359.32 2832.45 2362.21 2846.07 2364.34 2857.05C2373.66 2875.88 2385.56 2909.2 2378.92 2930.17C2379.24 2930.55 2381.03 2932.62 2381.31 2932.94C2382.89 2933.84 2383.19 2935.06 2383.57 2936.45C2388.09 2938.14 2388.56 2943.3 2389.02 2948.58C2391.29 2961.36 2387.92 2972.98 2386.77 2985.49L2386.7 2985.4C2386.7 2985.4 2382.91 2989.8 2382.9 2989.8C2335.21 2992.7 2288.24 2993.44 2240.76 2995.15C2237.18 2988.29 2236.1 2979.03 2233.41 2971.5C2177.12 3012.63 2079.59 2996.9 2008.88 2986.79C1980.17 2982.66 1953.04 2978.75 1928.99 2977.45C1927.42 2977.24 1927.31 2976.56 1927.27 2975.94C1927.04 2966.52 1925.26 2956.87 1926.15 2947.73C1921.18 2942.91 1923.45 2934.13 1926.86 2926.42C1939.41 2899.27 1973.52 2896.3 2001.16 2891.66C2053.15 2881.58 2094.96 2862.62 2128.78 2833.64C2126.51 2831.59 2124.44 2829.57 2122.56 2827.59C2123.29 2827.1 2124.03 2826.61 2124.76 2826.12C2126.54 2825.34 2128.24 2824.54 2129.8 2823.53C2130.6 2823.98 2131.6 2824.07 2132.58 2823.52C2135.98 2821.61 2138.75 2818.81 2141.98 2816.66C2142.62 2817.58 2143.26 2818.52 2143.91 2819.5C2147.01 2816.24 2150.51 2812.55 2153.57 2809.13C2153.68 2808.19 2153.44 2805.83 2154.59 2805.57C2163.3 2806.45 2173.38 2809.38 2182.49 2812.64C2192.79 2778.84 2198.75 2742.27 2198.06 2707.73C2187.94 2707.73 2179.07 2707.63 2171.52 2702.83C2169.46 2703.38 2166.58 2704.58 2166.05 2701.34C2162.98 2688.11 2162.19 2674.1 2161.42 2660.56C2145.75 2404.38 2121.87 2198.52 2042.67 1981.51C2035.07 2011.64 2022.3 2042.98 2010.68 2072.98C1957.82 2198.34 1919.73 2333.53 1887.09 2465.11C1874.24 2514.36 1860.28 2568.48 1846.49 2617.22C1841.14 2640.65 1830.27 2649.23 1807.49 2649.04C1789.93 2649.87 1772.32 2649.61 1754.69 2648.37C1730.66 2670.26 1720.81 2699.8 1713.79 2726.39C1719.64 2730.74 1728.92 2729.1 1735.76 2730.54C1741.65 2740.03 1739.61 2753.3 1739.48 2765.01C1738.55 2780.23 1739.34 2796.55 1734.91 2810.92C1734.11 2826.63 1734.01 2843.85 1732.83 2862.11C1745.86 2869.66 1743.47 2886.33 1739.15 2902.29C1737.21 2906.34 1667.2 2905.54 1649.83 2905.37C1629.42 2904.18 1600.32 2909.39 1593.62 2887.04C1545.03 2914 1471.11 2904.89 1414.51 2896.96C1373.42 2891.96 1336.2 2887.3 1295.86 2878.82C1295.44 2878.64 1294.86 2877.34 1295.15 2876.75V2876.75Z" fill="white"/>
<path fill-rule="evenodd" clip-rule="evenodd" d="M1735.73 2730.1C1724.78 2736.17 1716.02 2745.64 1704.52 2750.9C1654.78 2775.8 1591.8 2762.39 1553.9 2722.46C1548.55 2722.57 1544.26 2716.72 1545.39 2711.46C1534.02 2712.46 1525.05 2721.22 1516.59 2728.13C1517.75 2736.13 1517.21 2744.16 1513.97 2751.82C1513.72 2752.43 1512.62 2752.68 1512.49 2751.82C1511.51 2746 1510.49 2740.13 1509.17 2734.38C1506.79 2736.33 1504.36 2738.19 1501.89 2740.04C1501.68 2744.82 1496.68 2748.31 1492.6 2746.66C1459.11 2769.37 1421.25 2785.49 1381.93 2794.91C1351.17 2801.34 1335.19 2800.67 1321.55 2833.04C1326.61 2834.06 1331.58 2836.51 1339.18 2838.36C1467.8 2853.36 1597.6 2837.2 1726.42 2848.14C1728.15 2819.84 1729.69 2791.56 1731.63 2763.28C1732.32 2753.1 1732.62 2742.83 1736.57 2733.32C1736.49 2732.16 1736.31 2731.01 1735.94 2730.12C1735.87 2730.11 1735.8 2730.11 1735.73 2730.1ZM1730.92 2660.43C1730.51 2658.54 1731.99 2656.95 1733.45 2655.71C1735.13 2652.88 1737.05 2650.21 1739.32 2647.95C1694.65 2644 1651.82 2630.27 1609.86 2616.11C1604.79 2652.16 1586.79 2684.89 1566.51 2714.63C1600.93 2750.48 1656.98 2759.21 1702.03 2739.61C1699.03 2732.99 1705.48 2723.42 1707.12 2716.58C1712.77 2700.18 1720.51 2684.51 1727.21 2668.59C1728.36 2665.96 1729.56 2663.17 1730.92 2660.43ZM1740.12 2659.81C1739.82 2660.02 1739.51 2660.24 1739.2 2660.44C1739.02 2660.88 1738.85 2661.33 1738.66 2661.78C1739.13 2661.27 1739.6 2660.78 1740.08 2660.29C1740.09 2660.13 1740.1 2659.97 1740.12 2659.81ZM2153.09 2808.48C2152.19 2810.06 2151.26 2811.62 2150.29 2813.15C2152.16 2814.32 2166.25 2844.22 2158.38 2839.44C2154 2833.22 2149.63 2826.95 2144.91 2820.96C2143.6 2822.71 2142.25 2824.42 2140.85 2826.1C2145.7 2829.59 2143.82 2837.75 2137.39 2837.77C2135.09 2837.78 2133.31 2837.31 2131.17 2836.51C2102.42 2864 2064.61 2880.26 2026.56 2890.34C1995.03 2900.21 1935.64 2895.17 1934.03 2940.07C1937.24 2939.99 1940.68 2941.03 1943.12 2943.34C2082.33 2990.4 2226.16 2940.79 2366.57 2927.05C2364.63 2923.16 2367.1 2916.15 2372.23 2916.45C2372.28 2885 2363.58 2853.78 2350.99 2825.16C2279.54 2893.24 2228.39 2826.64 2156.33 2810.36C2154.94 2810.08 2153.87 2809.39 2153.09 2808.48ZM2116.26 2796.25C2116.46 2796.25 2116.99 2796.19 2117.19 2796.25C2120.09 2806.02 2126.26 2814.83 2134.1 2821.14C2136.19 2819.23 2138.25 2817.28 2140.26 2815.3C2135.02 2809.22 2129.28 2803.6 2122.64 2798.86C2120.78 2797.58 2118.61 2796.11 2116.26 2796.25ZM2394.05 1538.14C2395.91 1531.34 2393.8 1524.23 2393.59 1517.32C2392 1498.52 2389.83 1479.57 2390.25 1460.68C2390.76 1453.88 2390.9 1447.31 2389.39 1440.67C2389.85 1438.89 2391.44 1443.1 2391.92 1443.5C2392.01 1442.96 2392.14 1442.43 2392.25 1441.9C2391.49 1441.03 2390.68 1440.27 2389.81 1439.55C2352.47 1470.39 2316.29 1502.62 2281.4 1536.2C2277.78 1539.67 2272.44 1539.46 2268.8 1536.2C2261.24 1529.45 2253.4 1523.11 2245.33 1517.14C2242.54 1526.24 2238.28 1534.68 2233.4 1542.83C2265.29 1546.72 2296.76 1538.26 2328.42 1535.79C2349.66 1534.16 2370.97 1535.16 2392.06 1537.96C2392.61 1538.04 2393.46 1538.04 2394.05 1538.14ZM2323.74 1236.14C2334.87 1226.53 2339.54 1220.24 2338.17 1205.1C2331.59 1182.73 2323.05 1160.98 2315.76 1138.84C2314.82 1143.52 2314.74 1148.31 2314.35 1153.05C2316.92 1180.81 2318.92 1208.67 2323.74 1236.14ZM2312.41 1131.06C2312.57 1130.77 2312.73 1130.48 2312.89 1130.2C2312.65 1129.45 2312.41 1128.71 2312.16 1127.96C2312.25 1129 2312.33 1130.03 2312.41 1131.06ZM2513.21 1301.95C2513.14 1290.08 2514.7 1278.13 2515.39 1266.29C2521.08 1166.67 2514.1 1066.32 2494.57 968.456C2468.83 830.088 2421.13 691.142 2256.31 688.32C2250.53 693.547 2248.5 701.611 2245.28 708.54C2235.56 727.742 2221.29 744.371 2204.94 758.262C2137.14 813.374 1957.84 876.291 1942.09 742.769C1942.05 738.622 1942.33 734.245 1943 729.867C1941.51 725.275 1942.2 719.519 1943.25 714.354C1942.54 710.656 1943.63 706.414 1945.51 702.424C1945.2 702.162 1944.91 701.871 1944.65 701.551C1952.05 687.444 1964.74 682.828 1978.82 677.515C1980.77 675.574 1979.04 671.555 1976.06 672.603C1969.5 674.904 1962.75 676.456 1955.91 677.631C1954.96 677.797 1954.36 678.292 1954.05 678.922C1794.21 727.242 1799.44 858.724 1801.9 997.695C1799.47 1147.42 1712.62 1287.99 1737.96 1439.27C1767.88 1256.72 1826.72 1079.19 1840.08 893.816C1841.08 877.192 1843.55 860.777 1845.43 844.24C1846.39 837.275 1847.43 817.766 1849.82 821.029C1861.23 884.783 1852.32 950.287 1842.75 1013.76C1821.64 1142.75 1786.77 1268.96 1763.17 1397.46C1750.15 1454.59 1748.76 1514.66 1806.13 1547.69C1868.15 1581.78 1945.31 1574.93 2012.32 1561.11C2017.66 1559.86 2021.71 1562.64 2023.63 1566.46C2036.71 1539.09 2066.07 1525.61 2085.18 1503.16C2104.32 1478.66 2116.84 1449.7 2134.43 1424.1C2132.65 1408.53 2147.14 1383.98 2163.69 1383.65C2205.48 1340.08 2250.68 1299.75 2299.53 1264.22C2300.23 1261.98 2302.14 1260.72 2303.48 1258.71C2305.48 1255.32 2306.77 1251.1 2306.46 1247.19C2299.04 1204.41 2297.31 1160.02 2308.91 1117.79C2288.23 1053.63 2275.65 987.366 2263.84 921.152C2262.74 917.949 2268.11 916.447 2268.91 919.754C2270.3 926.782 2271.63 933.82 2272.93 940.858C2296.76 1028.71 2325.16 1115.11 2356.13 1200.68C2359.74 1212.61 2363.13 1224.52 2361.08 1237.01C2359.32 1244.3 2348.26 1243.59 2346.99 1236.13C2344.52 1235.4 2342.33 1236.05 2340.39 1237.52C2340.37 1237.49 2340.36 1237.46 2340.34 1237.44C2325.52 1258.6 2305.88 1276.09 2285.9 1292.65C2251.66 1321.72 2218.09 1351.56 2186.47 1383.46C2178.95 1393.15 2153.73 1410.47 2151.95 1423.58C2155.26 1446.92 2179.45 1458 2198.45 1467.12C2226.09 1480.53 2252.01 1497.52 2275 1517.88C2325.05 1471.67 2377.18 1427.61 2432.29 1387.51C2463.89 1364.8 2503.03 1342.28 2513.21 1301.95ZM1952.33 703.676C1952.2 704.424 1952.07 705.172 1951.94 705.909C1952.54 705.084 1953.15 704.269 1953.8 703.492C1953.31 703.56 1952.83 703.618 1952.33 703.676ZM1771.85 1690C1772.38 1688.41 1772.94 1686.84 1773.51 1685.27C1772.04 1678.25 1769.84 1671.67 1769.17 1664.29C1755 1649.91 1746.2 1630.32 1743.85 1610.34C1743.15 1604.47 1742.74 1598.84 1747.06 1594.24C1748.64 1592.55 1752.01 1592.37 1753.56 1594.24C1758.85 1600.6 1757.48 1610.18 1759.36 1617.94C1763.33 1634.37 1772.51 1649.86 1785.67 1660.31C1793.08 1666.36 1802.54 1673.99 1811.02 1676.32C1804.4 1650.48 1789.84 1625.89 1787.91 1598.67C1787.35 1590.69 1787.85 1583.23 1789.81 1575.46C1791.26 1570.62 1793.45 1566.42 1791.72 1561.38C1771.71 1548.48 1754.03 1529.9 1745.05 1507.45C1741.85 1507.8 1738.57 1506.38 1737.12 1502.83C1729.94 1555.92 1720.25 1611.98 1748 1660.66C1754.22 1671.7 1762.24 1681.71 1771.85 1690ZM2057.24 1567.07C2065.06 1559.07 2072.09 1550.42 2079.28 1541.86C2086.91 1533.96 2099.92 1546.28 2086.45 1557.84C2062.98 1587.13 2063.82 1623.66 2074.97 1657.59C2076.89 1648.87 2078.43 1640.21 2081.31 1631.66C2088.48 1610.45 2099.34 1590.68 2112.9 1572.9C2116.17 1568.62 2124.63 1570.79 2122.48 1576.93C2115.7 1596.25 2112.64 1617.64 2115.71 1638.02C2117.15 1647.53 2121.25 1656.57 2121.81 1666.21C2121.99 1669.55 2120.01 1678 2125.29 1676.09C2127.32 1675.35 2129.13 1671.05 2129.99 1668.31C2134.3 1654.18 2133.4 1639.2 2135.05 1624.67C2137.1 1605.78 2140.26 1586.37 2153.82 1572.02C2156.79 1568.87 2161.18 1570.9 2162.59 1574.33C2173.31 1600.17 2162.22 1632.21 2181.29 1654.87C2182.24 1655.92 2187.68 1661.23 2188.57 1660.53C2190.06 1659.34 2188.45 1652.65 2188.2 1651.1C2175.09 1597 2219.64 1552.09 2235.56 1510.15C2203.87 1484.12 2149.62 1475.8 2135.85 1433.13C2123.01 1461.46 2111.88 1491.43 2091.53 1515.46C2071.57 1539.32 2034.13 1555.07 2032.58 1589.91C2042.12 1584.38 2049.54 1574.83 2057.24 1567.07ZM2344.49 2698.33C2320 2698.71 2295.39 2706.3 2271.11 2705.9C2248.69 2706.69 2226.24 2705.66 2203.85 2704.31C2212.31 2737.64 2209.05 2776.73 2197.86 2809.06C2241.38 2829.39 2281.01 2858.43 2328.74 2830.07C2329.27 2825.88 2330.7 2821.72 2332.08 2817.64C2331.53 2815.38 2331.11 2812.44 2333.18 2810.65C2333.06 2772.97 2336.96 2735.26 2344.49 2698.33ZM1487.65 2698.83C1484.76 2701.88 1495.06 2725.62 1497.54 2729.64C1500.47 2727.75 1503.38 2725.89 1506.27 2723.91C1503.97 2717.08 1500.88 2710.55 1496.39 2704.58C1495.17 2702.97 1490.38 2696.48 1487.65 2698.83ZM1301.28 2836.83C1301.76 2834.77 1303.73 2832.9 1305.88 2832.37C1312.07 2816.42 1321.96 2800.46 1337.27 2792.06C1346.51 2787.27 1356.76 2785.89 1366.84 2783.89C1409.14 2775.65 1449.35 2758.9 1486.09 2736.75C1482.48 2726.55 1479.1 2716.43 1476.93 2705.87C1473.4 2694.04 1482.81 2684.15 1494.62 2689.11C1505.01 2693.77 1511.28 2708.05 1514.37 2718.27C1516.99 2716.48 1519.75 2714.68 1522.59 2713.05C1524.06 2708.93 1528.94 2707.17 1532.71 2704.83C1538.57 2700.93 1546.44 2694.09 1553.49 2699.38C1566.23 2682.41 1576.44 2663.59 1585.06 2644.25C1591.83 2630.62 1594.41 2615.11 1603.9 2602.94C1602.57 2594.51 1607.73 2586.1 1611.18 2578.6C1614.38 2571.76 1617.43 2564.84 1620.31 2557.85C1680.01 2395.58 1701.25 2221.59 1726.31 2051.32C1744.34 1936.68 1741.6 1819.06 1767.03 1705.73C1705.24 1655.55 1706.71 1562.93 1733.61 1494.47C1676.15 1334.12 1773.57 1174.5 1785.34 1014.78C1789.12 898.217 1769.7 758.251 1891.03 692.447C1906.4 683.981 1922.9 677.148 1940.16 673.759C1956.14 664.786 1975.18 662.6 1993.27 662.246C2003.47 656.71 2006.37 644.003 2010.03 633.793C2011.03 630.114 2013.28 625.969 2013.68 622.203C2013.72 621.873 2014.22 621.737 2014.31 622.115C2028.48 659.409 1992.75 698.378 1956.41 703.075C1940.02 760.793 1974.49 812.251 2036.6 808.981C2108.52 803.594 2210.19 763.96 2236.19 691.009C2224.72 690.795 2213.81 687.223 2203 683.824C2200.5 682.683 2197.03 682.854 2195.49 680.321C2170.64 667.846 2151.46 644.38 2147.32 616.795C2147.5 616.932 2147.8 617.136 2148.28 617.437C2147.85 617.165 2147.46 616.873 2147.11 616.573C2146.76 612.34 2146.71 608.108 2147.12 603.866C2149.03 602.147 2151.73 601.215 2154.87 601.846C2164.43 603.768 2164.63 613.835 2166.16 621.387C2167.54 628.192 2170.13 634.454 2173.61 640.453C2187.78 664.512 2214.9 681.251 2243.27 677.613C2244.57 676.448 2246.38 675.875 2248.14 676.457C2248.02 676.564 2247.88 676.671 2247.75 676.768C2414.39 670.66 2473.84 798.495 2502.85 941.152C2526.04 1045.84 2535.19 1153.64 2529.79 1260.73C2528.47 1273.11 2530.1 1306.85 2522.01 1314.14C2504.21 1368.17 2448.46 1393.56 2406.41 1425.89C2410.85 1438.59 2410.94 1452.12 2411.17 1465.43C2411.83 1480.64 2412.86 1495.84 2414.25 1511.01C2415.5 1524.7 2419.09 1540.07 2414.12 1553.39C2410.95 1561.79 2403.86 1570.56 2394.47 1571.67C2391.95 1594.64 2391.13 1617.88 2389.15 1640.86C2386.78 1851.36 2362.68 2062.97 2395.94 2272.32C2408.2 2351.82 2418.29 2432.34 2409.94 2512.79C2403.67 2572.56 2391.82 2631.68 2378.8 2690.28C2376.42 2698.02 2370.29 2705.39 2361.64 2704.06C2358.66 2705.86 2355.03 2707.25 2351.79 2705.68C2351.34 2743.12 2346.48 2780.5 2349.17 2817.96C2350.97 2816.88 2352.78 2815.82 2354.61 2814.79C2355.66 2812.55 2357.76 2810.38 2360.3 2811.73C2360.85 2811.47 2361.57 2811.96 2361.44 2812.53C2366.06 2825.04 2369.18 2838.65 2371.74 2851.8C2380.74 2869.09 2386.19 2888.36 2388.01 2907.83C2388.9 2915.43 2390.2 2925.25 2383.52 2930.69C2385.84 2930.77 2388.72 2930.96 2389.42 2933.66C2392.71 2941.71 2398.08 2991.23 2385.87 2991.01C2338.57 2993.9 2291.06 2994.66 2243.7 2996.36C2241.13 2996.46 2238.67 2994.47 2238.01 2992.03C2236.5 2986.51 2234.88 2981.01 2233.3 2975.51C2158.11 3016.72 1978.56 2992.7 1933.26 2983.5C1923.93 2983.5 1923.33 2954.48 1923.93 2945.63C1918.66 2938.96 1921.97 2927.8 1925.2 2920.75C1938.86 2891.16 1974.64 2887.99 2003 2883.26C2046.76 2874.84 2089.63 2858.33 2124.22 2829.75C2114.88 2820.9 2103.82 2806.29 2105.01 2792.95C2106.26 2787.15 2111.48 2783.93 2117.19 2784.27C2130.21 2785.36 2139.68 2799.04 2147.02 2808.43C2148.56 2806.81 2150.07 2805.17 2151.56 2803.52C2151.73 2800.04 2154.05 2796.64 2158.11 2797.13C2166.16 2798.09 2173.99 2800.05 2181.65 2802.65C2183.54 2793.85 2187.04 2785.25 2189 2776.4C2194.15 2754.23 2195.37 2731.57 2195.86 2708.87C2186.46 2708.72 2181.06 2708.27 2173.75 2704.4C2169.79 2705.57 2165.3 2704.1 2164.07 2698.79C2160.08 2681.54 2159.86 2663.72 2158.65 2646.09C2145.14 2422.56 2120.8 2197.43 2043.13 1985.88C2035.03 2011.38 2024.36 2035.96 2015.24 2061.11C1951.53 2226.93 1911.92 2400.41 1865.89 2571.61C1861.99 2585.99 1858.04 2600.35 1853.98 2614.68C1848.32 2639.1 1836.47 2650.36 1810.47 2650.25C1793.41 2651.05 1776.3 2650.85 1759.25 2649.72C1739.1 2668.75 1729.34 2694.17 1722.28 2720.19C1727.43 2722.75 1742.64 2718.98 1743.32 2725.94C1749.7 2736.37 1746.98 2749.84 1747.1 2761.5C1746.15 2777.15 1746.96 2793.73 1742.31 2808.72C1742.05 2824.51 1741.42 2840.31 1740.59 2856.09C1754.5 2866.12 1750.34 2886.09 1746.51 2900.22C1747.3 2910.23 1664.37 2905.73 1652.56 2906.6C1633.11 2905 1604.44 2911.05 1594.15 2889.91C1529.63 2921.63 1440.23 2899.04 1370.76 2892.61C1346.28 2889.03 1321.91 2884.79 1297.66 2879.94C1294.14 2879.23 1292.44 2875.22 1293.17 2872.04C1295.83 2860.29 1298.57 2848.57 1301.28 2836.83Z" fill="black"/>
<path fill-rule="evenodd" clip-rule="evenodd" d="M1931.06 410.804C1937.39 333.563 1956.68 265.151 2047.29 262.234C2088.18 262.599 2129.92 271.291 2167.52 287.371C2258.92 333.218 2287.91 500.745 2207.39 568.182C2207.87 568.455 2207.99 569.242 2207.42 569.622C2190.79 580.82 2172.29 590.032 2153.77 597.774C2104.44 618.64 2046.37 627.703 1996.06 605.069C1919.28 572.383 1918.13 481.434 1931.06 410.804V410.804Z" fill="white"/>
<path fill-rule="evenodd" clip-rule="evenodd" d="M1779.94 374.802C1776.78 371.958 1774.43 368.229 1773.24 364.047C1772.15 360.235 1772.08 356.072 1773.23 352.268C1774.47 348.188 1777.13 344.939 1776.53 340.693C1776.47 340.277 1776.38 339.843 1776.26 339.41C1773.95 331.415 1768.27 325.646 1770.3 316.784C1770.88 314.282 1771.96 312.03 1773.46 310.258C1773.29 308.338 1773.15 306.399 1773.03 304.461C1769.7 296.66 1769.82 287.392 1773.37 279.712C1773.8 275.78 1774.46 271.884 1775.38 268.053C1774.95 264.665 1775.55 260.936 1776.63 257.973C1778.55 252.759 1780.91 247.621 1783.48 242.568C1783.17 241.186 1783.31 239.726 1784.07 238.427C1785.46 236.066 1787.29 233.991 1789.16 231.963C1790.48 229.597 1791.82 227.251 1793.14 224.935C1793.75 223.87 1794.43 222.69 1795.17 221.439C1793.14 217.667 1792.06 213.991 1794.21 209.556C1795.01 207.889 1797.23 206.661 1799.06 206.77C1801.06 206.889 1803.08 206.978 1805.1 207.055C1808.89 202.478 1813.18 198.369 1817.78 196.004C1822.44 192.053 1827.17 188.176 1831.76 184.216C1833.06 183.09 1834.37 181.964 1835.67 180.838C1835.68 180.81 1835.69 180.773 1835.7 180.745C1836.66 177.247 1837.74 173.794 1838.82 170.323C1839.49 168.173 1839.7 165.92 1841.79 164.748C1846.17 162.302 1852.89 161.914 1857.91 161.498C1858.41 161.055 1858.91 160.622 1859.41 160.178C1857.13 154.104 1857.53 147.652 1860.4 141.569C1861.38 139.501 1864.78 138.568 1866.64 139.935C1870.94 143.092 1876.04 144.209 1881.09 143.747C1888.51 138.042 1918.43 112.245 1923.05 109.522C1923.11 109.424 1923.15 109.326 1923.22 109.229C1925.81 105.077 1928.97 101.743 1932.52 99.0694C1933.03 98.5405 1933.53 98.0106 1934.04 97.4808C1933.59 94.3154 1932.42 91.259 1930.53 88.702C1930.33 88.4066 1930.1 88.1204 1929.87 87.8435C1926.57 83.911 1930.6 78.8524 1935.21 80.9109C1935.54 81.0586 1935.88 81.2063 1936.21 81.3633C1939.75 82.9455 1943.68 84.6652 1947.76 86.1163C1949.26 85.556 1950.78 85.0483 1952.18 84.4889L1967.06 78.5007C1969.51 77.5148 1972.1 76.6794 1974.47 75.5209C1975.3 70.0201 1980.81 66.4126 1986.53 66.6009C1986.2 65.5448 1985.71 64.5193 1985.02 63.5472C1984.81 63.2611 1984.59 62.9841 1984.36 62.7164C1981.42 59.2917 1985.35 52.9407 1989.56 55.9869C1989.85 56.1993 1990.16 56.4116 1990.45 56.6239C1991.62 57.4445 1992.82 58.2144 1994.03 58.9603C1995.96 58.1147 1998.14 57.9218 2000.43 58.8163C2005.48 60.7964 2010.14 62.8097 2014.59 65.9132C2014.77 66.0396 2014.96 66.1458 2015.14 66.2649C2017.35 63.5952 2020.86 61.8099 2024.01 61.8293C2024.08 61.8293 2024.13 61.8284 2024.19 61.8275C2026.55 58.2283 2030.88 56.1365 2035.06 56.6451C2034.77 51.4803 2039.94 46.8712 2044.65 46.3109C2050.14 45.6573 2055.1 48.8504 2056.75 54.2155C2057.21 55.7091 2057.67 57.2036 2058.12 58.6981C2062.39 56.5427 2066.9 54.8912 2071.6 54.0669C2082.32 52.1893 2092.79 54.1887 2103.12 57.1648C2104.15 57.4621 2105.18 57.7676 2106.21 58.0723C2107.69 56.3654 2109.07 54.618 2110.39 52.9868C2112.67 50.1714 2118.14 52.4237 2117.77 56.0423C2117.51 58.5393 2118.53 60.3357 2120.16 61.6124C2121.95 61.8745 2123.68 61.9539 2126.3 61.9013C2129.75 61.8312 2131.32 61.7232 2134.93 60.3145C2136.62 59.6591 2138.71 57.9356 2139.69 56.3885C2143.45 50.4557 2153 48.8578 2157.55 54.5146C2162.34 52.4182 2168.38 55.3094 2171.04 59.3858C2172.43 61.5173 2175.33 62.709 2178.98 63.7337C2181.72 64.5017 2184.53 65.0833 2187.34 65.5919C2188.6 63.8888 2191.24 62.7469 2193.18 64.1749C2194.49 65.1451 2195.76 66.1412 2197.02 67.1621C2206.72 68.4988 2216.37 68.5468 2225.61 64.7639C2233.44 61.5607 2240.63 70.309 2239.34 77.6533C2241.6 78.8339 2244.06 79.6195 2246.3 80.8565C2251.19 83.5575 2255.2 87.8269 2257.64 92.8431C2258.08 93.7412 2258.48 94.6533 2258.86 95.5699C2260.68 97.0571 2262.49 98.5839 2264.25 100.195C2267.18 98.69 2270.11 97.1854 2273.04 95.6807C2275.24 94.5545 2278.94 95.3391 2279.37 98.2562C2280.08 103.056 2281.81 107.035 2284.27 110.367C2292.28 114.577 2299.98 119.303 2307.36 124.556C2315.83 127.214 2324.85 128.765 2332.26 130.51C2334.8 131.11 2336.18 134.424 2334.75 136.63C2333.24 138.965 2331.72 141.301 2330.22 143.636C2334.44 147.753 2338.39 152.055 2342.13 156.504C2352.53 168.874 2361.23 182.435 2369.02 196.798C2372.1 198.044 2375.18 199.281 2378.26 200.528C2381.23 201.728 2382.57 205.18 2380.16 207.719C2379.02 208.928 2377.99 210.202 2377.12 211.54C2381.48 218.768 2386.62 225.359 2393.81 229.679C2396 230.99 2397.64 233.049 2398.51 235.384C2399.26 235.883 2400 236.418 2400.73 236.963C2402.76 238.495 2403.99 241.837 2401.61 243.821C2399.94 245.225 2398.37 246.886 2397.04 248.723C2396.75 249.766 2396.46 250.819 2396.16 251.862C2402.84 258.01 2408.4 265.155 2412.57 273.167C2413.55 273.01 2414.57 273.112 2415.39 273.721C2422.84 279.232 2423.07 288.011 2420.07 295.857C2421.88 307.682 2420.71 319.803 2417.23 331.258C2421.81 335.837 2424.57 342.447 2425.7 348.816C2427.68 360.004 2427.82 377.211 2428.33 388.63C2433.34 393.458 2436.9 399.707 2438.88 406.427C2440.55 407.258 2442.22 408.089 2443.89 408.92C2445.38 409.658 2446.46 411.606 2446.37 413.249C2445.95 421.197 2442.67 427.474 2438.33 433.161C2436.79 437.545 2434.51 441.589 2431.52 445.466C2429.45 448.124 2427.43 450.672 2425.65 453.543C2425.47 453.829 2425.35 454.097 2425.27 454.281C2425.97 455.038 2426.55 456.294 2427.06 457.189C2431.32 464.703 2431.39 473.51 2425.34 480.055C2427.61 481.919 2427.69 485.686 2425.68 487.993C2412.58 502.957 2401.67 521.152 2383.5 529.1C2383.42 529.238 2383.35 529.376 2383.28 529.515C2386.96 538.377 2387.46 542.983 2384.45 552.14C2384.43 552.223 2384.41 552.297 2384.38 552.38C2382.77 557.181 2379.82 564.87 2374.5 566.365C2372.82 566.836 2371.17 567.049 2369.53 567.039C2365.31 571.11 2361.09 575.19 2356.87 579.271C2356.51 581.292 2356.27 583.332 2356.2 585.391C2356.08 588.834 2352.84 591.622 2349.36 590.606C2348.13 590.246 2341.34 583.646 2340.09 583.683C2339.46 584.311 2338.86 584.938 2338.25 585.575C2336 587.929 2332.89 591.64 2332.64 594.105C2332.14 598.748 2329.09 604.065 2324.18 605.007C2322.33 606.881 2319.38 607.444 2317.12 604.998C2316.97 604.841 2316.82 604.684 2316.67 604.545C2316.43 604.518 2316.19 604.49 2315.95 604.462C2314.87 607.712 2313.78 610.961 2312.68 614.201C2310.53 620.589 2302.32 624.697 2296.49 620.967C2295.55 621.531 2294.62 622.131 2293.7 622.731C2292.3 623.626 2290.88 624.54 2289.42 625.398C2289.34 625.638 2289.25 625.878 2289.18 626.109C2288.24 628.98 2284.33 630.522 2281.92 628.869C2281.17 629.109 2280.4 629.303 2279.63 629.46C2275.56 630.263 2271.46 630.042 2267.53 628.685C2264.72 627.725 2262.03 625.888 2259.01 625.638C2258.82 625.623 2258.62 625.636 2258.43 625.63C2255.96 630.691 2250.32 635.051 2245.88 636.533C2240.05 638.474 2234.09 637.78 2228.79 635.403C2227.36 638.266 2225.56 640.976 2223.41 643.482C2222.22 644.867 2220.07 644.571 2218.85 643.482C2216.51 641.415 2214.2 639.338 2211.89 637.258C2210.21 636.613 2208.52 635.839 2206.76 635.119C2201.25 632.866 2195.21 631.933 2190.11 628.678C2187.69 627.133 2185.41 625.161 2183.54 622.876C2180.01 620.836 2176.76 618.295 2173.84 615.383C2172.38 615.392 2170.86 615.05 2169.38 614.303C2163.21 611.164 2159.96 604.776 2159.68 598.24C2154.67 586.471 2151.72 573.917 2150.91 561.067C2150.65 556.848 2150.61 552.593 2150.93 548.374C2151.15 545.402 2151.9 543.417 2153.02 540.731C2153.4 539.854 2153.74 539.051 2154.01 538.164C2153.95 535.321 2153.91 532.478 2153.87 529.644C2153.11 527.253 2151.74 525.029 2149.84 523.155C2146.9 520.256 2145.55 514.237 2148.22 510.656C2149.97 508.339 2151.7 506.022 2153.45 503.705C2152.96 493.763 2150.58 477.941 2155.86 476.279C2155.64 474.802 2155.19 473.344 2154.93 471.876C2153.7 464.823 2154.43 458.518 2158.18 452.352C2158.96 451.069 2159.63 449.934 2160.17 448.826C2160.51 446.795 2160.86 444.764 2161.2 442.733C2161.72 439.604 2162.24 436.447 2162.68 433.271C2162.91 429.228 2163.13 425.185 2163.36 421.133C2163.57 417.403 2163.81 413.674 2164.06 409.935C2163.96 408.264 2163.81 406.594 2163.6 404.923C2162.33 394.962 2158.26 391.279 2151.21 384.356C2150.11 384.18 2149.01 383.987 2147.93 383.765C2142.9 382.722 2137.64 381.106 2132.47 381.688C2126.85 382.316 2121.82 384.743 2116.36 381.642C2114.75 380.719 2111.22 378.171 2110.91 376.149C2110.89 376.02 2110.87 375.909 2110.83 375.826C2110.45 375.771 2109.96 375.725 2109.66 375.715C2105.32 375.568 2101.18 377.276 2096.81 376.805C2091.63 376.251 2087 373.952 2083.95 370.546C2080.05 371.506 2076.06 371.94 2072.01 371.405C2068.62 370.961 2065.57 369.854 2062.57 368.211C2060.38 367.029 2061.07 366.687 2058.69 367.647C2053.27 369.844 2048.37 372.743 2042.28 371.238C2039.11 370.463 2036.38 368.755 2034.08 366.457C2033.54 365.921 2032.62 365.118 2032 364.361C2029.1 365.829 2021.81 369.143 2020.61 369.438C2017.22 370.269 2013.62 370.14 2010.32 369.032C2007.89 368.22 2004.92 366.004 2002.79 365.552C2000.03 364.961 1993.9 368.801 1990.61 370.121C1984.83 372.438 1978.71 373.011 1972.86 370.62C1970.85 369.798 1966.94 366.521 1965.44 366.549C1962.99 369.568 1956.16 386.082 1954.12 392.11C1945.82 416.48 1943.67 492.572 1947.5 511.985C1947.65 512.557 1947.81 513.12 1947.96 513.693C1952.67 530.576 1957.57 547.746 1965.44 563.476C1972.86 578.301 1983.13 591.649 1997.87 599.745C2013.15 608.145 2031.08 610.352 2048.26 609.216C2059.33 608.496 2070.21 606.272 2080.91 603.484C2086.5 602.034 2092.04 600.419 2097.56 598.739C2099.97 598.01 2102.42 597.327 2104.78 596.477C2108.95 594.973 2111.13 594.853 2115.13 596.782C2118.76 598.536 2119.7 603.715 2117.8 606.973C2114.72 612.29 2109.08 612.659 2103.62 614.21C2098.07 615.789 2092.5 617.303 2086.89 618.66C2076.14 621.244 2065.21 623.229 2054.2 624.143C2034.47 625.795 2014.14 623.248 1996.19 614.635C1994.16 613.656 1992.2 612.613 1990.31 611.487C1991.01 612.466 1991.72 613.444 1992.44 614.413C1994.44 617.1 1992.96 621.669 1990.16 623.137C1989.28 623.598 1988.39 624.041 1987.5 624.475C1987.38 624.761 1987.25 625.048 1987.1 625.334C1984.55 630.466 1979.19 633.494 1973.74 634.805C1967.26 636.356 1960.01 635.257 1953.42 635.063C1947.32 634.879 1941.21 634.694 1935.11 634.51C1933.67 634.473 1932.23 634.426 1930.79 634.38C1923.54 634.159 1916.3 633.946 1909.05 633.725C1902.6 633.531 1902.9 634.029 1896.84 631.445C1894.13 630.282 1891.92 628.638 1890.06 626.451C1888.89 625.934 1887.77 625.343 1886.69 624.669C1883.22 622.509 1880.14 619.61 1877.3 616.417C1872.47 617.94 1865.71 616.527 1864.77 610.462C1863.25 600.761 1850.65 596.616 1844.76 589.6C1840.01 583.941 1836.62 576.529 1836.79 569.412C1824.82 563.615 1818.3 548.337 1816.78 535.377C1816.07 529.367 1816.18 522.933 1815.15 516.822C1814.7 516.333 1814.3 515.816 1813.96 515.262C1810.95 510.397 1808.33 505.385 1806.02 500.252C1802.88 497.991 1799.11 496.597 1795.16 496.366C1785.45 495.803 1783.63 482.704 1792.88 479.547C1792.93 479.528 1792.96 479.519 1793.01 479.501C1790.5 473.224 1790.71 465.793 1793.76 459.848C1793.63 459.202 1793.51 458.565 1793.39 457.918C1788.19 452.334 1785.21 444.57 1785.55 437.01C1783.18 435.339 1780.52 434.047 1777.61 433.244C1773.12 432.007 1773.09 426.523 1776.41 424.068C1777.75 423.08 1778.86 421.926 1779.78 420.652C1777.48 413.748 1778.39 405.763 1783.08 400.095C1780.1 396.273 1777.12 392.451 1774.14 388.63C1772.17 386.1 1771.13 381.808 1774.14 379.408C1776.07 377.866 1778 376.334 1779.94 374.802Z" fill="black"/>
<path fill-rule="evenodd" clip-rule="evenodd" d="M2025.13 551.244C2023.63 548.611 2020.16 546.173 2016.99 546.547C2002.79 548.223 2002.81 565.548 2008.3 575.662C2013.16 584.631 2023.22 589.895 2033.3 589.126C2043.88 588.318 2052.9 582.059 2056.86 572.099C2059.49 565.511 2060.7 553.349 2053.72 548.922C2053.59 548.839 2053.38 548.86 2053.27 548.98C2049.93 552.897 2049.79 558.778 2046.86 563.14C2044.14 567.196 2039.9 570.546 2034.95 571.063C2031.24 571.45 2027.49 570.106 2026.04 566.76C2025.26 564.95 2025.35 563.967 2025.64 562.722L2025.91 561.639C2026.84 557.848 2027.26 554.961 2025.13 551.244ZM2021.33 475.262C2013.93 479.793 2002.64 490.356 2010.61 501.587C2019.99 511.49 2033.5 500.136 2040.15 495.001C2046.32 491.021 2053.26 501.256 2047.53 505.903C1999.44 541.726 1979.92 476.447 2017.59 469.936C2021.74 469.218 2023.28 473.861 2021.33 475.262ZM2099.56 444.198C2095.02 437.335 2084.64 438.345 2082.13 446.49C2080.78 450.901 2082.65 454.867 2082.55 459.273C2082.47 462.995 2082.71 467.142 2083.85 470.746C2086.43 478.966 2093.78 484.771 2102.47 484.53C2111.14 484.29 2118.77 478.773 2122.4 471.003C2126.04 463.203 2125.27 455.131 2122.61 447.199C2122.48 446.818 2121.99 446.634 2121.69 446.955C2118.54 450.314 2116.24 453.861 2113.86 457.624L2111.42 461.48C2109.56 464.384 2106.85 468.093 2103.37 467.86L2102.85 467.808C2101.88 467.725 2102.03 467.918 2101.28 466.591C2100.94 465.977 2101 464.836 2100.83 464.112L2100.77 463.867V463.867L2100.81 463.735C2100.88 463.384 2100.95 462.723 2101.01 461.576L2101.02 461.323C2101.28 455.957 2102.78 449.061 2099.56 444.198ZM1984.3 448.767C1985.12 439.989 1972.85 438.04 1968.77 444.535C1966.65 447.922 1966.03 452.177 1965.56 456.208L1965.34 458.122C1964.85 462.262 1964.66 466.569 1966.45 470.431C1969.26 476.514 1975.38 479.729 1981.98 479.22C1988.29 478.733 1994.04 475.056 1997.07 469.475C1999.77 464.495 2002.46 454.771 1999.17 449.577C1998.98 449.262 1998.58 449.221 1998.31 449.464C1995.21 452.234 1994.7 457.288 1992.86 460.897C1990.95 464.62 1988.07 468.248 1983.7 468.814C1979.51 469.354 1977.92 467.056 1978.98 463.044C1980.36 457.864 1983.79 454.341 1984.3 448.767ZM2096.25 392.011L2094.24 391.238C2087.37 388.625 2077.93 385.606 2072.35 391.229C2068.9 394.696 2068.24 399.804 2070.7 404.035C2073.68 409.16 2079.03 409.286 2084.2 410.041C2090.07 410.9 2096.04 412.533 2101.51 414.86C2107.67 417.482 2113.39 420.751 2118.99 424.402C2124.31 427.871 2129.61 433.541 2135.99 434.61C2136.25 434.653 2136.54 434.541 2136.61 434.254C2138.06 427.986 2134.04 421.819 2130.45 416.929C2126.1 411.01 2120.84 406.151 2114.96 401.794C2109.29 397.589 2102.8 394.55 2096.25 392.011ZM1971.4 414.293L1970.79 414.185C1966.62 413.487 1962.84 413.647 1959.7 416.968C1957.3 419.502 1956.38 422.786 1957.52 426.135C1958.58 429.226 1960.94 432.365 1964.36 433.013C1975.91 435.2 1988.71 434.838 2000.33 433.182C2005.64 432.424 2011 431.497 2016.18 430.034L2018.56 429.339C2022.88 428.098 2027.82 426.801 2030.96 423.604C2032.09 422.455 2031.44 420.811 2030.09 420.279C2024.61 418.121 2017.11 419.269 2011.27 419.1C2004.48 418.905 1997.67 418.393 1990.91 417.687C1984.31 416.996 1977.91 415.495 1971.4 414.293Z" fill="black"/>
<path fill-rule="evenodd" clip-rule="evenodd" d="M1052.53 2861.67C1058.57 2837.27 1049.69 2817.81 1024.19 2803.44C1021.99 2797.63 972.704 2778.8 933.539 2751.17C898.354 2726.34 872.832 2692.26 871.762 2690.37C871.762 2690.37 863.85 2671.96 862.948 2663.65C858.623 2623.81 861.125 2597.69 858.454 2585.3C876.45 2582.94 920.692 1414.16 913.537 1375.42C925.256 1372.84 937.684 1370.13 948.856 1363.52C949.747 1363.29 948.282 1360.7 948.324 1360.21C976.352 1305.18 933.356 1118.07 906.408 1066.27C927.808 1065.71 955.995 1062.8 969.244 1044.93C975.516 1042.86 979.47 1039.27 982.514 1033.49C986.019 1027.99 989.272 1022.21 992.201 1016.29C1006.46 986.668 1015.25 953.777 1010.5 921.141C1011.41 920.853 1016.07 920.823 1016.31 919.517C1016.76 911.494 1015.29 904.424 1012.88 896.846C988.396 811.492 958.922 727.457 919.962 647.1C900.439 604.09 860.047 588.396 818.195 572.249C798.061 564.338 777.918 555.207 756.905 550.025C756.64 548.555 757.895 544.082 755.141 544.447C751.74 545.156 752.411 550.625 751.15 553.694C702.561 513.916 733.374 493.418 704.076 471.633C673.76 455.895 636.788 455.256 603.363 458.662C591.032 459.019 581.165 464.578 578.257 476.991C567.657 502.675 542.82 521.579 515.724 527.375C513.485 523.389 507.329 511.957 503.881 515.566C464.748 516.902 405.415 531.269 368.787 542.017C332.017 551.409 294.819 568.554 285.199 608.51C267.744 679.71 295.514 972.319 341.064 1028.67L342.545 1028.7C350.62 1036.96 361.596 1043.02 374.034 1047.08C373.755 1073.42 365.452 1099.14 361.32 1124.91C352.017 1171.63 344.867 1218.41 334.504 1265.38C334.458 1270.62 314.741 1342.24 334.18 1327.88C338.192 1329.85 343.107 1332 347.428 1333.84C326.776 1380.91 317.326 1456.86 318.79 1515.01C319.156 1549.64 317.724 1579.97 309.957 1615.43C252.494 1915.89 201.83 2587.93 200.639 2596.91C199.544 2605.5 206.815 2652.11 200.639 2664.41C195.158 2675.32 171.778 2668.87 167.305 2673.08C155.69 2692 161.008 2704.06 151.481 2722.94C146.595 2727.32 135.671 2736.88 132.087 2743.6C124.832 2750.59 4.67695 2829.44 9.54695 2841.41C9.54695 2841.41 8.99895 2847.15 8.81495 2848.4C-1.42905 2908 15.629 2907.51 70.819 2916.28C151.441 2930.5 211.695 2903.14 279.831 2866.58C302.473 2851.31 334.655 2822.15 324.18 2787.62C323.891 2785.51 317.678 2749.19 315.214 2730.75C315.214 2730.75 321.891 2715.98 296.047 2717.82C300.297 2713.16 309.634 2652.72 306.449 2644.72C304.426 2624.13 307.567 2605.43 306.573 2584.24C317.399 2585.04 507.466 1683.88 626.684 1627.88C627.421 1633.87 625.991 1645.01 633.935 1646.12C670.81 1933.83 759.47 2578.35 763.541 2579.48C757.431 2612.34 757.616 2688.5 757.502 2721.12C756.567 2721.99 752.275 2725.82 751.584 2726.75C751.44 2726.51 748.645 2729.3 748.502 2729.37L748.124 2728.51C735.566 2756.83 717.263 2786 733.44 2813.75C721.434 2812.88 723.361 2835.98 722.824 2846.61C729.662 2867.42 924.064 2923.56 967.506 2926.23C981.779 2928.72 1048.25 2907.57 1061.04 2904.53C1077.62 2901.43 1061.36 2870.62 1052.53 2861.67Z" fill="white"/>
<path fill-rule="evenodd" clip-rule="evenodd" d="M586.347 469.999C592.639 469.803 593.84 477.721 589.539 481.004L589.362 481.134C585.695 483.735 583.975 486.061 581.985 490.211C572.282 515.892 544.92 530.621 518.159 525.167C527.454 542.507 533.696 559.289 543.001 576.336C585.845 664.597 726.549 693.31 743.377 572.21C717.595 567.228 702.316 509.248 718.859 491.95L719.306 494.056C724.074 516.765 727.336 540.015 744.551 557.138C745.075 557.291 745.576 557.338 746.07 557.338C746.726 554.229 747.482 551.154 748.423 548.138C750.714 540.779 762.181 542.163 761.859 550.124C796.192 560.586 829.186 575.405 862.025 589.721C889.327 601.631 911.65 622.935 924.368 649.913C960.025 723.708 987.251 801.606 1010.99 879.97C1012.58 890.56 1030.33 929.918 1016.01 933.702C1019.52 966.124 1010.54 998.919 996.657 1028.03C990.217 1038.97 985.671 1054.14 972.733 1058.7C959.3 1075.57 934.737 1079.95 914.287 1081.14C941.791 1145.89 979.162 1310.83 953.89 1375.17C956.133 1385.72 927.012 1390.74 919.22 1393.15C925.5 1430.68 924.13 1469.34 921.422 1507.14C896.061 1829.55 891.248 2153.73 917.93 2476.23C919.5 2496.33 921.191 2516.43 922.98 2536.52L924.063 2548.56C925.482 2564.6 926.688 2580.58 926.32 2596.75C926.201 2602.36 921.55 2605.73 916.9 2606.02C901.283 2615.98 880.307 2616.07 862.24 2618.47C865.431 2635.89 867.219 2663.06 872.804 2677.72C884.43 2674.68 891.923 2685.52 880.336 2691.64C894.599 2699.55 901.937 2714.71 913.355 2725.34C944.718 2712.6 950.558 2731.64 924.929 2735.98C931.897 2741.79 939.294 2747.17 946.941 2752.27L947.484 2752.19C956.526 2750.82 973.571 2743.34 977.852 2753.25C979.773 2760.41 970.924 2762.69 964.514 2763.56C970.202 2767.15 975.909 2770.72 981.617 2774.28C986.612 2772.08 991.566 2769.33 996.659 2767.57C1009.2 2764.78 1010.28 2781.05 993.917 2781.97C1004.17 2789.54 1018.31 2785.18 1024.87 2795.87C1048.84 2805.55 1060.17 2834.78 1054.57 2858.14C1062.99 2865.63 1068.9 2876.85 1069.58 2888.12C1071.2 2900.2 1061.59 2911.56 1048.57 2914.74C1033.9 2919.62 1019.02 2924.08 1004.18 2928.27L1002.63 2928.8C990.399 2932.97 977.044 2936.71 964.325 2935.98C888.895 2931.48 788.309 2900.49 727.935 2861.94C712.877 2850.62 710.244 2822.63 730.968 2813.68C721.418 2796.36 725.981 2783.78 730.029 2764.92C732.84 2752.62 736.657 2740 743.566 2728.63C744.179 2727.62 745.653 2727.92 745.735 2728.91C746.639 2741.78 745.438 2754.94 744.48 2767.9L744.375 2769.34C743.517 2781.29 741.581 2785.69 744.822 2797C752.581 2825.86 827.381 2840.28 856.775 2852.18C879.85 2859.33 903.277 2865.73 927.033 2871.36L928.775 2871.74C948.829 2876.15 969.478 2882.83 990.6 2879.36C1001.55 2871.39 1017.99 2873.64 1028.76 2864.52C1044.99 2846.99 1032.23 2821.29 1020.85 2805.36C1009.85 2808.87 1000.45 2799.42 992.35 2794.43L992.051 2794.24C983.782 2789.01 975.534 2792.68 967.252 2787.46L965.381 2787.81C934.955 2793.61 911.398 2800.23 959.925 2782.87C951.932 2777.88 943.919 2772.84 936.155 2767.54C920.218 2769.46 902.757 2777.83 887.945 2778.59C897.913 2769.3 911.512 2764.16 924.326 2759.05C916.866 2753.39 909.767 2747.32 903.417 2740.65L897.351 2742.17C860.085 2751.42 845.436 2754.1 895.606 2731.53C885.739 2720.57 884.136 2704.35 873.288 2694.04C855.842 2697.7 839.812 2705.37 825.603 2715.28C819.857 2719.39 815.529 2724.53 810.978 2729.68C789.413 2757.42 756.005 2761.71 745.799 2725.72C745.622 2724.98 746.779 2724.52 747.105 2725.15L747.143 2725.23C752.024 2736.29 767.774 2745.25 780.93 2738.38L781.328 2738.17C794.193 2731.46 800.169 2717.78 810.303 2708.46C823.979 2696.11 841.121 2687.84 858.808 2681.62C854.52 2665.95 853.073 2637.43 853.56 2619.05C823.78 2620.45 793.805 2619.02 764.55 2613.36C769.237 2647.53 766.156 2692 768.31 2722.48C771.424 2732.7 752.48 2739.09 750.466 2728.91C749.353 2695.93 752.578 2648.37 757.6 2611.58L755.498 2611.07C753.515 2610.57 751.431 2609.98 749.73 2609.02C730.956 2611.14 736.077 2563.44 732.925 2550.02C711.744 2254.14 667.127 1960.91 629.21 1666.98C623.952 1664.97 623.019 1658.51 622.15 1653.12C574.37 1685.46 564.848 1750.1 543.46 1800.2C450.053 2059.62 408.319 2333.31 343.581 2600.45L343.937 2600.54C344.191 2600.62 344.193 2600.65 343.662 2600.62L343.54 2600.61V2600.63C347.54 2601.16 350.691 2605.36 348.25 2609.27C340.962 2623.98 320.759 2618.77 307.46 2617.84C308.751 2640.49 303.9 2689.37 306.974 2709.56C323.379 2709.86 324.422 2727.92 326.594 2738.65L326.762 2739.75C329.661 2758.09 339.404 2792.47 332.126 2807.3C343.377 2820.69 335.284 2838.88 323.612 2848.02C311.113 2857.25 295.555 2862.66 281.426 2869.78C214.927 2896.65 150.592 2948.45 69.1016 2928.51L65.5538 2927.76C8.44025 2915.69 -7.96895 2910.33 3.37357 2853.8C-1.28443 2842.32 -1.31543 2829.74 5.23857 2819.58C16.9266 2804.58 36.5646 2796.37 52.1906 2784.97C78.6576 2767.19 106.827 2751.64 132.678 2733.13C131.717 2732.29 133.051 2731.99 133.835 2732.13C152.079 2717.84 150.372 2693.11 163.1 2675.47C166.283 2666.38 182.356 2664.16 192.941 2665.42C189.634 2648.48 205.789 2571.34 207.841 2625.83L207.84 2626.61C207.88 2635.02 209.257 2663.1 206.781 2668.6C241.915 2679.34 249.491 2713.09 257.01 2740.35L257.494 2740.48C259.894 2741.09 263.108 2741.6 264.309 2743.95C275.607 2736.77 278.764 2722.64 289.706 2715.03C286.637 2712.63 286.475 2708.05 288.041 2704.5C293.137 2685.81 296.192 2638.26 303.89 2617.39C267.721 2611.97 230.874 2609.21 195.55 2599.38C190.96 2603.89 181.54 2602.29 181.91 2594.15C192.85 2416.79 211.666 2239.97 235.385 2063.89C254.887 1899.06 289.195 1736.34 313.092 1572.38L313.294 1549.87C313.939 1482.23 315.746 1413.57 340.97 1349.88C338.75 1348.91 336.55 1347.91 334.38 1346.86C307.029 1358.19 328.578 1289.3 329.584 1276.89C343.025 1204.9 358.858 1132.93 368.953 1060.5C358.371 1056.67 348.6 1051.24 340.449 1043.35C291.031 1003.12 262.383 677.332 280.344 611.825C289.719 570.619 329.448 550.376 367.313 541.062L372.905 539.482C415.195 527.585 458.218 516.805 502.248 514.156C503.816 512.734 508.427 513.143 509.031 514.329C511.789 515.99 514.407 519.233 516.621 522.659C577.735 515.635 561.205 475.686 586.347 469.999ZM732.554 2816.28C723.998 2835.71 735.367 2850.49 754.428 2858.66C820.435 2889.27 894.126 2913.86 969.777 2918.56C992.86 2912.98 1015.72 2903.75 1039.11 2898.04L1040.12 2897.86C1048.36 2896.35 1052.22 2894.83 1051.52 2886.28L1051.82 2882.82C1052.35 2876.68 1052.79 2870.54 1052.36 2864.4C1045.17 2881.61 1023.63 2891.07 1004.75 2894.54C974.808 2908.75 941.279 2894.3 911.865 2888.22C864.089 2873.69 760.726 2850.86 732.554 2816.28ZM317.872 2816.69L316.883 2816.99C308.315 2819.64 299.602 2822.89 289.999 2820.5C247.099 2835.04 205.342 2851.54 163.899 2868.71C119.183 2890.12 47.1806 2915.01 8.43057 2863.27C14.0016 2890.41 6.12557 2899.69 43.1226 2906.46C101.827 2925.6 148.996 2915.8 197.708 2889.64C233.397 2872.29 271.783 2858.5 306.328 2839.64L306.794 2839.31C313.589 2834.46 321.788 2825.61 317.872 2816.69ZM228.77 2699.86C217.569 2679.19 187.427 2667.85 165.01 2675.46C162.729 2695.39 168.638 2717.71 155.984 2735.01C167.189 2736.98 178.358 2739.24 189.511 2741.58L199.717 2743.74C204.725 2744.84 211.099 2746.71 210.263 2752.03C209.337 2757.9 201.63 2756.11 196.501 2754.63L194.514 2754.05C180.11 2749.81 165.73 2745.48 151.509 2740.63C144.013 2748.88 133.95 2755.36 124.191 2761.6L128.238 2762.06C142.42 2763.66 156.738 2765.1 170.75 2767.98C176.872 2769.79 175.551 2778.14 169.287 2777.47C152.559 2773.1 135.875 2768.17 118.86 2765.04C110.543 2770.54 102.265 2776.07 93.9276 2781.54C110.325 2783.91 126.794 2784.13 143.183 2785.52C153.794 2786.5 153.791 2801.01 143.182 2800.17C124.037 2798.41 104.904 2792.75 86.6756 2786.31L77.0689 2792.63C65.8563 2800 54.6189 2807.34 43.2696 2814.54C36.4406 2818.89 27.6206 2823.03 22.8486 2829.33C7.77857 2853.67 45.4346 2876.93 70.8806 2876.54C109.528 2876.95 141.716 2856.89 175.57 2844.87C194.297 2840.24 289.508 2792.57 298.172 2805.12C303.619 2802.5 311.195 2801.56 315.117 2797.24C315.911 2777.31 311.712 2756.43 308.188 2736.33C307.47 2732.82 305.754 2728.61 305.562 2725.01C289.702 2730.86 285.186 2753 264.31 2751.11C261.043 2756.33 250.981 2753.9 246.441 2749.76C241.5 2745.25 240.88 2738.9 239.701 2733.24L239.154 2730.64C236.938 2720.22 234.28 2709.54 228.77 2699.86ZM698.732 1009.43L696.18 1010.07C670.203 1016.57 643.028 1021.28 616.332 1019.53C611.717 1036.99 614.123 1078.53 595.352 1085.16C588.939 1087.58 579.289 1085.62 576.349 1079.07C537.522 1078.38 498.423 1074.91 459.594 1072.6C430.365 1070.3 400.039 1070.39 371.902 1061.52C375.311 1078.69 376.485 1095.54 374.577 1113.1C368.013 1187.98 346.406 1260.94 339.164 1335.5L338.831 1339.05L338.621 1338.93C338.621 1339.07 338.611 1339.21 338.6 1339.35C340.71 1339.96 342.82 1340.6 344.92 1341.25C345.67 1340.87 346.691 1341.24 347.23 1341.96C501.866 1390.06 666.003 1410.95 827.17 1389.78C855.395 1386.25 883.416 1381.32 911.24 1375.47C910.997 1372.98 914.794 1372.33 915.46 1374.68C921.635 1373.6 927.809 1372.42 933.951 1371.63C933.21 1369.54 933.08 1367.28 933.841 1365.24C945.818 1329.3 940.346 1288.32 936.568 1251.05C931.75 1193.82 919.741 1137.69 910.04 1081.24C864.116 1079.15 818.467 1071.65 772.321 1072.59C767.46 1085.19 750.514 1095.77 737.247 1088.57C727.879 1083.51 725.105 1072.48 721.345 1063.37C713.912 1045.34 706.322 1027.39 698.732 1009.43ZM504.145 515.864C455.92 530.111 406.512 540.285 358.726 556.097C319.012 565.993 291.901 590.911 290.227 633.407C286.95 724.44 296.93 815.933 311.994 905.643L312.78 909.694C321.138 952.93 328.63 996.921 344.414 1038.13C367.456 1048.84 393.618 1051.89 418.827 1053.13C455.614 1055.01 492.399 1056.93 529.154 1059.34L557.972 1061.21C566.333 1061.75 577.959 1060.32 584.242 1066.82C584.798 1067.73 585.931 1067.62 586.792 1068.19L586.961 1068.31C587.878 1068.93 588.802 1070.45 590.124 1070.15C592.273 1069.49 593.098 1065.2 593.603 1063.15L593.65 1062.97C596.449 1052.02 598.477 1040.83 601.062 1029.82C606.954 1008.16 609.492 985.254 618.447 964.517C605.628 956.336 593.554 946.983 583.2 935.885L570.715 931.489C540.848 921.008 510.644 910.855 479.514 904.573C478.768 911.406 468.962 915.313 465.305 908.162C459.243 889.944 458.119 870.164 453.939 851.387C444.45 795.366 433.176 739.549 426.613 683.082C444.707 733.094 454.082 794.478 467.911 848.529C468.552 848.156 469.439 848.373 469.466 849.258C518.429 830.741 572.789 831.495 621.109 851.145C633.213 856 645.506 860.359 657.546 865.366C661.658 867.688 669.849 867.546 671.23 872.623C672.709 869.177 674.697 865.95 677.337 863.773C678.161 862.075 687.52 859.044 688.434 862.404C743.328 869.938 796.702 893.82 853.185 889.788C846.501 865.386 847.292 839.034 846.844 813.833L846.98 810.996C848.142 786.17 848.983 755.444 857.399 735.013C852.014 786.445 855.924 837.963 862.496 888.917C902.335 883.777 883.991 906.557 857.456 905.702C803.907 909.56 754.488 885.877 705.206 868.618C678.288 857.857 675.237 866.971 676.437 892.547C676.462 925.847 691.542 956.239 705.202 985.784L711.338 999.584C721.539 1022.55 731.599 1045.36 741.509 1068.6C784.806 1054.24 833.553 1062.12 878.407 1064.73C912.632 1069.03 937.208 1067.51 966.162 1047.71C976.606 1027.75 990.367 1008.83 995.748 986.322C1001.99 965.694 1004.07 944.087 1005.89 922.71L1004.25 916.729C983.144 839.981 959.792 763.608 927.881 690.506L926.154 686.479C915.335 661.162 904.346 634.596 882.459 616.863C845.726 589.74 800.296 577.71 761.682 553.576L761.435 555.342C757.516 583.027 750.748 611.725 733.029 633.999C700.289 674.201 638.473 675.332 596.576 649.222C552.99 625.123 526.841 580.254 514.119 533.353L513.969 532.838C512.778 528.658 509.463 516.002 504.145 515.864ZM622.511 967.054C622.484 981.797 619.575 996.329 617.607 1010.88C640.266 1006.41 662.858 1003.29 685.144 997.246C663.435 989.044 642.339 979.163 622.511 967.054ZM567.95 848.148C534.909 841.68 501.081 845.549 468.41 850.759C471.96 867.262 476.015 883.617 479.405 900.142C491.105 899.606 602.092 919.261 589.566 935.039C605.949 943.8 621.469 954.099 637.777 963.05C654.179 972.052 671.255 979.789 688.872 986.074L687.942 984.006C672.781 950.134 658.615 912.017 670.298 874.998C654.589 881.303 633.145 867.759 617.925 862.692C601.769 856.208 585.129 851.093 567.95 848.148ZM330.08 716.989C330.19 710.809 349.276 728.528 351.767 730.368L353.273 731.731C371.588 748.352 389.681 766.637 399.886 789.444C400.632 811.859 367.227 757.559 362.596 754.242C352.491 741.236 340.181 729.941 330.08 716.989ZM858.228 769.75C853.064 771.45 867.158 753.936 872.654 755.214C874.841 754.895 876.744 758.065 874.316 759.155L873.11 759.686C867.47 762.132 861.704 764.221 858.228 769.75Z" fill="black"/>
<path fill-rule="evenodd" clip-rule="evenodd" d="M482.973 102.401C488.159 96.8357 494.792 92.6897 502.043 91.3647C495.415 94.6757 488.936 98.1267 482.973 102.401ZM472.815 150.385C471.898 146.144 471.282 141.862 471.088 137.581C472.247 139.343 474.098 140.52 476.177 141.128C474.834 144.135 473.692 147.233 472.815 150.385ZM819.835 216.878C813.849 191.961 785.921 144.034 779.32 134.809C772.152 111.968 811.246 93.6507 789.985 75.7897C780.359 67.7307 767.637 64.8787 755.703 62.0207C673.073 42.1767 584.295 52.1847 507.659 88.6757C496.002 86.2227 483.857 91.0167 475.38 99.4367C435.555 139.465 489.829 211.687 501.697 256.813C522.059 307.13 480.115 315.594 484.613 358.167C488.108 380.161 510.385 385.974 529.184 389.298C532.197 390.003 536.225 390.109 537.197 393.294C540.243 411.885 550.685 429.602 564.704 441.626C563.478 445.258 564.414 449.667 568.737 452.857C607.905 481.964 657.292 496.53 706.144 493.912C764.362 490.791 794.469 457.423 801.734 448.831C841.903 394.584 837.103 323.01 828.909 258.361C823.201 213.325 830.439 261.018 819.835 216.878Z" fill="white"/>
<path fill-rule="evenodd" clip-rule="evenodd" d="M640.322 9.54133C642.152 3.82133 647.332 0.381332 653.262 1.09133C658.512 1.71133 664.132 6.92133 663.492 12.6713C663.372 13.7813 663.212 14.8213 663.022 15.8013L663.047 15.8101V15.8101L663.072 15.8113L662.942 16.1913C662.552 18.0213 662.012 19.6613 661.212 21.2113C660.192 24.1813 659.212 27.1613 658.242 30.1513C659.642 30.0913 661.072 30.1713 662.522 30.4413C664.022 26.6013 665.532 22.7713 667.032 18.9213C668.642 14.8113 669.772 9.53133 672.952 6.35133C677.022 2.29133 684.082 1.45133 689.042 4.35133C694.282 7.41133 696.152 12.8513 695.012 18.6813C694.432 21.6551 692.445 23.7247 689.987 25.025L689.722 25.1613L687.832 29.6413C688.412 29.3913 689.012 29.1613 689.662 28.9713C690.682 28.6713 691.682 28.4813 692.662 28.4013C695.362 23.5113 698.332 18.7613 701.402 14.1013C704.932 8.74133 711.832 6.46133 717.622 9.85133C722.802 12.8813 725.582 20.8413 721.872 26.0713C719.052 30.0413 716.382 34.0913 713.752 38.1813C714.202 38.2613 714.652 38.3613 715.082 38.4913C715.282 38.2213 715.492 37.9513 715.712 37.6813C718.582 34.1213 721.922 31.4513 725.352 28.4913C728.562 25.7113 730.042 21.3413 734.262 19.2313C739.572 16.5813 745.972 17.8513 749.132 23.1313C755.912 34.4413 744.532 42.7013 737.252 49.5513C743.582 45.6013 750.172 41.9913 756.932 38.8713C760.732 37.1213 764.592 35.4313 768.512 33.9713C774.322 31.8113 779.022 32.5023 783.792 36.5213C785.922 38.3213 786.982 42.2523 786.002 44.8713C784.102 49.8913 781.102 52.9413 775.842 54.3913C772.142 55.4113 768.352 56.1013 764.652 57.1713C758.452 58.9513 752.432 61.1213 746.592 63.8313C747.012 64.0913 747.412 64.3713 747.782 64.6913C752.142 63.2813 756.582 62.0613 761.042 61.0213C768.439 59.287 775.967 58.1151 783.529 57.3821L786.041 57.1483C795.107 56.2783 806.008 54.6728 811.572 63.3513C813.402 66.2113 813.602 70.9313 811.572 73.7613C807.692 79.2013 803.832 80.2813 797.412 80.3813C803.732 81.0513 810.042 81.8813 816.322 82.8513C820.65 83.5113 824.979 84.2595 829.289 85.0895L831.442 85.5113C836.692 86.5613 842.552 87.1713 847.062 90.2113C856.902 96.8513 852.282 109.781 841.382 111.161C836.112 111.821 830.262 109.591 825.092 108.551C820.072 107.541 815.032 106.651 809.972 105.871C807.352 105.461 804.732 105.101 802.102 104.771C807.452 105.541 812.762 106.631 817.932 108.171L819.368 108.605C829.363 111.651 842.854 116.502 845.972 127.181C847.862 133.671 842.692 139.331 836.432 139.711C830.612 140.061 825.762 136.591 820.822 134.031C817.222 132.171 813.562 130.781 809.682 129.591C805.672 128.361 801.582 127.341 797.462 126.511C800.944 128.43 804.334 130.538 807.589 132.896L809.086 134.002C817.737 140.448 830.93 150.428 827.882 162.511C826.922 166.321 822.672 169.961 818.592 169.571C807.972 168.581 802.112 157.271 794.102 151.211C792.012 149.631 789.722 148.071 787.322 146.551C799.462 161.031 809.122 177.771 816.472 195.061C832.625 233.099 837.581 268.325 837.7 309.225L837.702 310.491C837.722 333.051 837.212 356.021 835.012 378.481C832.972 399.231 829.232 419.711 819.822 438.502C804.052 470.011 773.322 494.551 739.432 503.891C701.722 514.291 659.572 506.161 628.682 482.161C620.802 476.041 631.252 462.752 639.302 468.401C671.452 490.951 713.032 498.091 749.932 482.831C779.202 470.731 802.772 444.701 812.762 414.731C819.12 395.665 820.972 375.335 823.24 355.465L823.392 354.141C825.792 333.361 827.182 312.441 827.162 291.521C827.132 252.671 821.552 220.691 804.462 185.451C796.422 168.851 785.992 153.502 773.532 140.031C769.752 140.801 765.732 139.721 761.912 139.311C759.962 139.101 758.012 138.901 756.062 138.721C758.054 140.009 760.007 141.349 761.928 142.719L764.446 144.535C772.328 150.18 782.328 156.609 780.302 167.521C779.752 170.471 776.812 173.181 773.962 173.851C763.632 176.311 756.532 166.271 749.552 160.311C743.482 155.131 737.132 150.491 730.662 145.841C729.192 144.791 727.712 143.741 726.222 142.701C727.622 144.333 728.983 145.991 730.312 147.664L732.276 150.153C738.218 157.588 746.784 167.253 741.492 176.891C739.992 179.611 736.792 181.421 733.692 181.361C723.032 181.141 718.792 169.041 713.792 161.401C709.492 154.851 704.822 148.681 699.992 142.511C698.662 140.821 697.322 139.131 695.962 137.441C673.572 138.601 651.262 141.561 629.342 146.291C614.282 149.541 599.472 153.752 584.772 158.361L583.55 158.75C575.595 161.311 567.398 164.59 561.662 170.211C560.843 174.085 561.471 178.169 562.255 182.037L562.865 184.998C565.38 197.379 567.094 209.53 565.812 222.241C564.482 235.351 560.532 247.141 555.712 259.321C553.432 265.061 551.072 264.021 550.262 270.181C549.641 274.873 550.025 279.717 550.449 284.448L550.803 288.459C551.692 298.966 552.139 310.422 545.252 319.091C544.182 320.421 541.892 319.891 541.132 318.561C540.832 318.031 540.512 317.521 540.162 317.031C536.842 312.221 531.752 309.481 525.932 308.421C525.192 308.291 525.482 307.301 526.102 307.221C531.022 306.641 535.682 307.871 539.642 310.411C537.764 303.918 523.226 307.076 518.446 308.338L518.282 308.381C512.322 309.981 506.682 312.581 501.712 316.261C491.712 323.661 485.932 335.201 486.222 347.631C486.512 359.851 492.822 371.141 503.662 376.991C508.892 379.811 514.842 381.171 520.762 381.111C526.942 381.051 532.442 378.341 538.632 378.721C542.212 378.941 544.952 382.781 542.882 386.131C541.502 388.371 539.702 390.131 537.622 391.481C542.692 403.171 549.162 414.321 556.622 424.611C560.752 430.321 565.432 435.591 570.582 440.401C574.602 444.161 583.312 448.511 582.822 454.781C582.652 457.041 581.482 458.421 579.422 459.261C573.017 461.88 565.23 452.864 560.946 448.518L560.602 448.171C555.262 442.851 550.392 436.971 546.152 430.731C538.632 419.651 533.962 407.161 532.032 394.041C521.762 397.131 508.162 394.231 499.782 390.441C473.442 378.541 464.832 343.071 480.842 319.451C483.942 314.881 487.822 310.971 492.242 307.811C491.272 307.281 490.362 306.601 489.552 305.741C485.071 300.982 481.903 294.771 478.759 289.046L478.382 288.361C475.591 283.321 472.958 278.202 470.49 273.004L469.572 271.051C464.062 259.201 459.232 254.021 455.302 241.561C451.522 229.541 448.542 217.291 446.612 204.831L446.099 201.533C444.983 194.303 443.927 186.572 444.742 179.231C439.132 181.061 433.492 182.191 427.942 179.441C424.282 177.631 422.262 172.351 423.512 168.561C424.422 165.771 425.942 163.581 427.872 161.861C426.722 161.281 425.642 160.541 424.692 159.721L423.862 159.002V159.002C420.502 156.081 420.262 150.531 422.302 146.871C422.502 146.521 422.702 146.161 422.892 145.811C424.832 142.341 428.842 140.071 432.802 140.131C433.442 140.141 434.082 140.141 434.732 140.131C432.882 139.721 431.072 139.091 429.352 138.031C421.592 133.261 422.572 120.331 431.962 118.051C435.902 117.101 440.252 117.491 444.592 118.511C444.432 118.421 444.272 118.331 444.112 118.231C440.832 116.221 438.082 112.291 438.392 108.261C438.732 103.801 440.172 100.621 444.112 98.2813C447.532 96.2613 452.372 96.0713 455.772 98.2813C458.722 100.211 461.612 102.341 464.392 104.631C461.602 101.201 459.182 97.4713 458.202 93.5113C456.992 88.5813 459.012 83.2113 463.452 80.6113C466.992 78.5413 470.732 78.7713 474.072 80.3713C473.892 77.7813 474.522 75.1413 476.242 72.8013C479.762 68.0023 486.162 65.2413 491.732 68.7413C492.462 69.2013 493.442 69.9913 494.392 70.9613C492.542 65.0713 494.212 58.8913 500.522 56.2313C504.372 54.6013 509.582 55.4213 512.922 58.2313C510.802 46.7613 527.732 38.3313 534.312 50.1813C535.805 52.8658 537.283 55.6924 538.604 58.5841L539.092 59.6713L539.142 59.6513L538.805 58.8563V58.8563L538.462 58.0613C536.632 53.8113 534.302 49.3913 533.662 44.7813C532.722 37.9613 535.762 31.4913 543.182 30.4913C547.012 29.9713 551.272 31.7113 553.842 34.7523C552.452 24.1713 564.272 16.4813 572.782 24.3813C576.812 28.1213 578.962 33.5913 581.522 38.3913C582.972 41.1013 584.452 43.8013 585.902 46.5213C586.272 46.0813 586.672 45.6413 587.092 45.2113C584.942 38.7713 583.272 32.1713 581.862 25.5313C580.522 19.2713 583.652 12.7713 590.112 11.0023C595.982 9.38133 603.332 13.0023 604.642 19.2523C605.562 23.6513 606.652 28.0023 607.852 32.3313C608.672 32.1313 609.482 31.9913 610.282 31.8913C610.348 31.078 610.424 30.2602 610.508 29.4469L610.823 26.5542C611.522 19.9447 612.228 12.3998 615.682 6.78133C621.572 -2.81867 636.672 1.16133 636.832 12.5113C636.922 18.3813 634.532 24.2013 633.702 30.0113C633.342 32.5413 633.132 35.1013 633.012 37.6613C634.622 29.1613 636.832 20.7713 639.392 12.5113C639.692 11.5213 640.012 10.5313 640.322 9.54133ZM510.042 337.322C523.292 335.272 535.402 342.662 543.252 353.012C544.682 354.902 543.742 357.572 542.452 359.162C541.522 360.332 540.272 360.472 538.862 360.652C537.242 360.862 535.192 359.552 534.482 358.142C529.432 348.062 520.422 341.692 510.042 337.772C509.852 337.702 509.792 337.362 510.042 337.322ZM528.409 156.717L528.811 156.286C531.492 153.505 527.255 149.257 524.568 152.044C521.739 154.978 519.859 158.542 518.051 162.154C516.328 165.598 521.502 168.64 523.232 165.183L524.02 163.612C525.256 161.169 526.574 158.755 528.409 156.717V156.717ZM491.199 151.009C494.999 150.369 493.388 144.586 489.604 145.224C484.702 146.05 479.819 146.989 474.916 147.816C471.117 148.456 472.728 154.239 476.512 153.602C481.414 152.775 486.297 151.836 491.199 151.009ZM717.567 111.528C713.896 110.303 712.321 116.096 715.972 117.314C721.017 118.997 726.021 120.722 730.807 123.059C734.264 124.747 737.309 119.574 733.835 117.878C728.582 115.313 723.105 113.376 717.567 111.528ZM490.335 103.752C486.75 102.318 485.193 108.119 488.74 109.538L501.7 114.721V114.721C505.285 116.155 506.842 110.355 503.295 108.936L490.335 103.752V103.752ZM762.821 89.6648L762.348 89.3663C759.098 87.2603 756.087 92.4523 759.319 94.5473C761.216 95.7765 763.523 96.6102 765.261 98.0745L765.624 98.3983C768.43 101.048 772.681 96.8143 769.867 94.1553C767.808 92.2119 765.202 91.1298 762.821 89.6648V89.6648Z" fill="black"/>
<path fill-rule="evenodd" clip-rule="evenodd" d="M810.133 328.318C803.4 337.363 790.918 340.244 779.405 339.249C754.574 336.859 746.759 308.658 745.945 286.739C762.596 291.423 744.537 258.249 801.456 254.601C821.521 252.929 815.989 265.047 824.854 273.901C824.672 292.483 821.579 312.674 810.133 328.318M691.862 306.966C677.202 375.619 596.924 359.289 588.491 297.403C596.278 291.907 594.227 278.336 603.901 273.419C619.233 263.623 638.399 264.042 655.81 264.272C678.065 265.801 684.407 275.02 695.839 285.078C695.289 291.796 693.703 299.758 691.862 306.966M841.934 243.231C841.111 243.094 840.287 242.965 839.463 242.844C838.82 242.479 838.065 242.198 837.187 242.029C835.182 241.52 833.191 241.177 831.203 240.992C802.671 234.571 736.664 243.688 733.94 268.036C724.854 271.069 716.992 268.353 706.461 268.623C698.445 235.118 559.862 239.847 553.197 260.047C553.172 260.04 553.147 260.034 553.121 260.026C546.717 258.044 537.276 258.522 529.946 258.208C514.295 257.88 498.626 259.275 483.313 262.576C454.638 267.133 415.503 272.468 435.446 308.276C435.45 308.282 435.453 308.289 435.458 308.295L435.461 308.292C438.898 311.815 444.731 308.978 444.948 304.209C438.243 287.245 453.387 285.208 465.039 280.333C494.032 269.917 523.55 268.473 553.536 271.695C555.792 274.351 559.215 276.667 562.833 277.879C582.882 281.207 572.316 296.079 584.989 298.242C582.661 350.084 645.602 378.382 682.071 344.303C696.632 330.067 700.103 308.978 703.479 289.969C705.264 289.568 706.399 288.592 707.062 287.3C711.355 283.014 714.052 279.056 722.541 277.879C731.03 276.703 737.565 279.064 738.449 279.787C738.672 280.236 738.911 280.686 739.189 281.136C739.577 281.807 740.105 282.342 740.705 282.763C732.322 334.387 772.399 367.035 812.858 340.26C830.438 323.723 834.153 298.405 834.887 275.807C837.27 274.369 838.779 271.582 837.954 268.078C836.817 263.248 839.483 259.066 843.729 256.966C849.246 254.239 848.27 244.28 841.934 243.231" fill="black"/>
<path fill-rule="evenodd" clip-rule="evenodd" d="M737.805 385.464C741.628 378.728 753.035 379.823 754.779 387.679C758.317 403.605 739.298 418.312 724.854 418.679C710.5 419.043 694.395 406.843 696.472 391.433C696.986 387.621 702.085 388.084 703.823 390.474L704.498 391.391C709.218 397.724 715.448 404.279 724.209 402.735C727.84 402.096 731.138 399.831 733.333 396.915C735.98 393.395 735.69 389.193 737.805 385.464ZM646.533 268.948C648.478 268.413 650.441 268.62 652.165 269.352C656.013 270.057 659.228 273.261 660.358 276.919C660.447 277.236 660.546 277.549 660.656 277.858L660.828 278.32L660.366 277.147C660.579 278.302 661.521 279.516 661.859 280.676C662.276 282.101 662.378 283.72 662.237 285.289C663.461 285.301 664.684 285.342 665.905 285.448L667.085 285.553C673.684 286.166 680.93 287.289 684.842 292.983C687.039 296.183 684.977 301.945 680.94 302.561C674.726 303.51 669.374 300.076 663.181 299.389C657.327 298.738 651.201 299.111 645.423 300.167C633.493 302.345 622.531 307.173 610.906 310.203L609.323 310.604V310.604L609.326 310.596C607.333 311.077 605.072 308.311 607.043 306.693C616.356 299.053 628.28 292.861 640.027 289.09C638.316 286.372 637.786 282.792 638.956 279.873C639.137 279.269 639.362 278.681 639.599 278.094L640.094 276.888V276.888C640.142 276.32 640.251 275.758 640.409 275.207L640.435 275.039V275.039L640.449 275.049V275.049C641.324 272.211 643.608 269.754 646.533 268.948ZM765.355 269.388C767.902 266.843 771.482 267.219 774.14 269.222L774.493 269.498V269.498C776.998 270.609 779.072 273.038 780.433 275.289C781.847 277.627 782.787 280.008 782.823 282.581C788.989 282.601 794.896 284.448 799.423 289.419C800.884 291.024 801.883 293.498 801.078 295.674L800.599 296.968V296.968C799.079 301.076 792.245 303.441 789.922 298.609L789.815 298.374C787.347 292.637 777.873 293.239 772.838 293.825C769.328 294.236 765.862 295.107 762.473 296.083C761.279 296.427 760.095 296.8 758.913 297.181L757.731 297.564C757.1 297.768 753.816 299.549 755.859 299.127C756.408 299.014 756.822 299.813 756.261 300.081C753.826 301.243 751.227 298.928 751.39 296.316C751.672 291.781 758.883 289.294 762.353 287.731L762.561 287.636C763.891 287.022 765.285 286.433 766.723 285.887C765.915 284.685 765.246 283.35 764.69 281.917C764.164 280.564 763.813 279.249 763.62 277.81C763.431 277.107 763.431 276.404 763.62 275.7L763.649 275.498V275.498C763.551 275.033 763.505 274.553 763.511 274.069L763.491 273.881H763.511C763.579 272.186 764.253 270.488 765.355 269.388ZM724.656 317.681C734.442 320.701 750.586 328.926 745.487 341.623C738.366 353.283 719.482 344.714 710.331 340.946C702.109 338.227 697.828 349.733 705.778 353.201C771.47 379.153 771.228 310.66 727.038 311.666C722.172 311.776 722.02 316.678 724.656 317.681ZM637.744 228.374L639.413 227.887C648.087 225.378 656.942 221.046 664.643 227.806C667.667 230.461 668.29 235.977 666.126 239.288C661.197 246.833 653.886 245.68 645.926 246.323C639.864 246.813 633.893 248.591 628.236 250.813C623.612 252.63 619.323 255.188 615.274 258.04C611.297 260.845 608.579 265.23 604.499 267.755C603.004 268.681 601.277 267.728 600.74 266.227C598.837 260.903 602.052 254.271 604.773 249.735C608.094 244.201 613.14 239.674 618.564 236.25C624.505 232.499 631.074 230.333 637.744 228.374V228.374ZM764.135 222.645C778.796 222.641 792.904 230.784 801.105 242.721C803.891 246.777 801.849 252.785 797.849 255.12C793.362 257.742 788.564 255.854 785.606 252.098L785.431 251.87C780.728 245.616 774.666 240.691 767.479 237.484C763.973 235.919 760.096 234.649 756.303 234.005L755.077 233.795C753.359 233.508 751.367 233.233 749.813 233.502C748.981 233.611 748.216 233.886 747.512 234.304C747.851 235.043 746.976 235.933 746.168 235.49C742.525 233.492 742.972 229.927 745.981 227.157C750.239 223.237 758.636 222.646 764.135 222.645Z" fill="black"/>
<path fill-rule="evenodd" clip-rule="evenodd" d="M729.914 352.328C718.793 347.319 698.823 351.69 691.573 353.428C674.718 357.47 657.762 366.205 652.522 379.89C646.617 395.313 658.399 400.168 660.132 399.375C671.8 400.197 685.695 392.862 697.922 390.969C707.848 389.419 718.319 388.066 727.619 382.792C734.409 386.527 749.745 388.546 762.122 391.812C772.663 394.592 777.23 400.621 787.002 399.339C798.714 397.803 793.92 373.17 780.867 363.191C766.581 352.27 742.419 347.841 729.914 352.328ZM751.934 457.654C742.205 460.026 741.551 438.701 740.461 431.167C739.61 425.281 734.807 410.102 722.631 410.757C710.455 411.412 705.879 424.129 706.496 432.039C706.897 437.168 711.623 463.15 696.536 466.437C686.917 466.403 675.789 465.754 665.675 463.889C653.771 461.193 638.292 451.754 634.203 470.343C632.732 477.033 685.169 496.91 708.438 498.708C732.037 503.49 759.647 496.137 776.448 478.084C780.27 473.977 791.036 456.93 791.803 452.754C793.415 443.979 789.683 438.332 778.825 441.425C771.155 445.521 758.191 456.128 751.934 457.654Z" fill="black"/>
</svg>
