<svg width="1534" height="2361" viewBox="0 0 1534 2361" fill="none" xmlns="http://www.w3.org/2000/svg">
<path fill-rule="evenodd" clip-rule="evenodd" d="M822.162 1334.32C824.401 1357.68 819.823 1379.98 808.918 1398.84L805.37 1404.98L812.123 1407.34C824.413 1411.64 838.08 1413.73 853.906 1413.73C870.193 1413.73 887.13 1411.46 900.739 1409.64L909.452 1408.47L905.172 1400.9C901.73 1394.82 901.093 1387.45 900.418 1379.65C900.236 1377.55 900.049 1375.38 899.803 1373.24C886.908 1257.98 870.608 1141.21 854.845 1028.29C850.696 998.579 846.407 967.853 842.246 937.629L830.31 938.089C827.099 994.032 823.983 1050.92 820.97 1105.94C819.645 1130.13 818.319 1154.32 816.983 1178.51C812.22 1239.67 813.865 1289.19 822.162 1334.32ZM827.033 2025.49C809.504 2025.49 791.941 2023.66 774.834 2020.06C721.301 2008.83 672.666 1982.31 631.282 1958.35C629.169 1957.15 627.025 1955.95 624.824 1954.72C608.622 1945.65 588.459 1934.38 575.823 1920.62C561.961 1905.52 559.575 1890.48 568.316 1873.28L569.699 1870.56L568.254 1867.87C559.203 1851.03 559.876 1830.18 569.89 1817.19L578.306 1806.27L564.469 1807.74C550.517 1809.22 536.455 1811.22 522.855 1813.16C507.766 1815.32 492.161 1817.54 476.793 1819.03L472.522 1819.45L471.54 1823.56C470.993 1825.85 470.318 1827.24 465.577 1827.24C461.466 1827.24 455.941 1826.04 450.094 1824.76C442.837 1823.18 434.611 1821.39 426.679 1821.39C423.19 1821.39 420.052 1821.72 417.084 1822.41L415.357 1822.81L414.128 1824.07C413.342 1824.87 412.004 1825.37 410.637 1825.37C409.603 1825.37 408.644 1825.08 408.003 1824.58L406.065 1823.07L403.606 1823.34C360.763 1828.04 323.82 1836.3 290.67 1848.57L290.52 1848.63L289.801 1848.94C277.814 1854.11 265.421 1859.46 254.134 1859.46C245.883 1859.46 239.183 1856.65 233.047 1850.63L231.313 1848.93L228.867 1848.9C204.049 1848.67 192.709 1819.73 191.141 1800.34L190.944 1797.9L189.052 1796.31C145.8 1760.01 120.266 1710.16 110.988 1643.91C102.538 1583.56 109.026 1519.93 116.487 1465.65C133.746 1324.97 151.747 1198.86 197.505 1079.25L199.643 1073.66L193.946 1071.61C174.183 1064.51 159.079 1056.04 147.77 1045.71L146.987 1044.99L146.001 1044.59C129.793 1037.93 121.855 1013.35 119.808 1005.98L119.644 1005.38L119.358 1004.83C116.051 998.489 115.288 989.665 117.266 980.622L117.478 979.647L117.355 978.657C116.287 970.071 119.832 961.095 123.585 951.591C125.3 947.249 127.072 942.761 128.367 938.292C132.819 925.518 137.266 912.518 141.568 899.944C151.22 871.734 161.199 842.563 171.83 814.186L173.284 810.305L170.081 807.631C164.613 803.063 166.439 797.687 174.324 784.832C176.187 781.796 177.949 778.923 179.289 776.092C189.396 758.628 200.228 741.863 211.49 726.257L211.722 725.937L211.907 725.59C269.696 617.662 372.203 558.224 500.544 558.224L503.16 558.229L504.606 557.359C528.66 542.894 545.831 518.075 557.1 481.485L557.46 480.318L557.321 479.106C556.935 475.734 556.512 471.312 556.657 467.022C557.024 456.156 561.283 446.46 568.341 440.418C581.732 428.957 602.061 427.997 621.736 427.997L624.561 428.002C649.716 428.074 667.475 432.441 680.451 441.748C695.527 452.562 703.859 470.018 705.924 495.113C706.541 502.622 706.52 510.401 706.501 517.924L706.496 520.024L706.749 520.857C708.557 526.821 710.675 532.552 713.043 537.892L715.479 543.386L721.019 540.909C724.602 539.308 729.144 538.484 734.908 538.392C736.57 538.353 738.191 538.335 739.826 538.335C753.209 538.335 767.525 539.557 781.371 540.738C791.803 541.629 802.591 542.55 813.033 542.959L813.176 542.965C813.176 542.965 814.618 542.956 815.265 542.956C840.644 542.956 859.042 546.947 873.163 555.517C888.368 564.744 899.301 579.552 907.568 602.12C951.91 731.48 970.14 870.817 986.22 993.747C995.341 1058.03 998.115 1123.94 1000.8 1187.67C1003.63 1254.94 1006.56 1324.5 1016.93 1392.5L1017.75 1397.88L1023.25 1397.52C1047.48 1395.96 1073.67 1392.59 1101.39 1389.02C1143.51 1383.61 1187.07 1378 1229.17 1378C1288.04 1378 1332.68 1389.59 1365.61 1413.41C1388.56 1435.05 1400.44 1464.34 1399.95 1498.14C1399.26 1545.9 1374 1598.71 1335.59 1632.67L1335.45 1632.8C1286.9 1678.66 1198.29 1718.44 1072.06 1751.03C955.992 1781 835.932 1797.28 774.695 1804.32L759.539 1806.07L771.841 1814.96C776.82 1818.56 781.363 1821.73 785.73 1824.65L788.547 1826.54L791.633 1825.12C800.433 1821.08 806.022 1820.24 809.163 1820.24C811.95 1820.24 815.312 1820.84 815.497 1823.73C815.618 1825.62 814.274 1828.42 811.437 1828.77L796.373 1830.65L808.673 1839.43C816.889 1845.29 829.147 1852.35 843.342 1860.53C889.781 1887.28 959.961 1927.72 947.891 1963.23L947.099 1965.56L948.221 1967.76C951.464 1974.12 951.741 1980.02 949.065 1985.8C943.335 1998.2 925.41 2007.6 910.187 2011.43L909.926 2011.49L909.671 2011.58C883.183 2020.81 855.379 2025.49 827.033 2025.49Z" fill="white"/>
<mask id="mask0" mask-type="alpha" maskUnits="userSpaceOnUse" x="100" y="451" width="1305" height="1580">
<path fill-rule="evenodd" clip-rule="evenodd" d="M100 451.002H1404.94V2030.99H100V451.002Z" fill="white"/>
</mask>
<g mask="url(#mask0)">
<path fill-rule="evenodd" clip-rule="evenodd" d="M914.984 1406.97C918.094 1390.01 912.195 1372.49 911.174 1355.41C895.734 1233.58 878.685 1111.83 856.094 991.068C850.554 962.167 844.955 933.385 838.535 904.641C839.505 887.236 840.355 869.83 840.915 852.415C872.265 832.704 907.615 819.948 944.174 813.515C954.054 868.559 963.924 923.564 970.775 979.1C992.125 1116.56 979.945 1256.44 1000.65 1393.74C971.924 1396.96 943.415 1401.73 914.984 1406.97ZM970.128 1514.06C948.523 1519.81 926.898 1525.3 905.12 1530.37C866.366 1539.4 827.622 1548.45 788.967 1557.88C769.673 1562.58 750.336 1567.15 731.082 1572.01C721.945 1574.31 712.867 1576.87 703.926 1579.84C699.464 1581.32 695.103 1583.02 690.743 1584.77C686.923 1586.29 683.319 1588.4 679.119 1588.1C678.869 1588.08 678.713 1587.84 678.836 1587.61C681.033 1583.58 685.56 1581.66 689.557 1579.62C693.964 1577.37 698.556 1575.43 703.152 1573.59C713.361 1569.49 723.994 1566.48 734.599 1563.56C773.143 1552.95 812.018 1543.45 850.853 1533.94C889.873 1524.39 928.895 1515.24 968.433 1508.01C972.416 1507.28 974.139 1513 970.128 1514.06ZM778.745 1840.68C780.474 1840.22 782.214 1839.8 783.945 1839.39C811.665 1862.47 942.214 1922.4 932.285 1958.2C928.775 1962.65 920.375 1963.66 915.064 1965.1C905.814 1967.6 896.474 1969.77 887.045 1971.49C856.564 1977.03 824.995 1978 794.554 1971.67C783.355 1969.97 773.245 1965.19 763.045 1960.57C730.085 1946.07 693.785 1930.05 660.984 1915.67C619.314 1899.15 546.224 1866.6 576.285 1811.66C604.765 1843.7 640.915 1840.9 659.125 1801.08C665.405 1789 670.884 1772.71 685.634 1767.82C693.415 1762.56 703.365 1761.47 709.865 1767.33C710.335 1766.6 710.755 1765.57 710.984 1764.67C718.314 1775.1 724.634 1786.08 733.224 1795.62C730.275 1795.78 699.575 1818.5 708.634 1818.51C719.535 1812.9 730.365 1808.22 742.134 1805.19C750.665 1813.77 760.045 1821.75 769.765 1829.13C760.325 1835.36 751.844 1843 745.025 1851.28C744.435 1852.01 745.155 1852.96 746.035 1852.56C756.625 1847.84 767.515 1843.7 778.745 1840.68ZM919.265 1995.47C813.234 2043.1 700.984 1990.06 610.564 1933.52C589.695 1921.87 562.245 1905.35 566.464 1877.92C581.835 1900.41 607.174 1913.21 631.495 1924.31C672.355 1942.78 713.484 1960.66 754.445 1978.9C758.314 1991.74 776.814 1992.23 787.995 1995.08C837.765 2004.73 891.265 1999.93 938.105 1980.69C935.394 1988.71 926.525 1992.4 919.265 1995.47ZM496.224 1810.02C493.605 1810.35 490.984 1810.66 488.365 1810.95C488.634 1807.49 486.545 1804.02 483.185 1802.95C484.695 1795.6 485.254 1788 484.445 1780.55C488.825 1791.86 502.964 1788.43 511.945 1785.17C524.775 1781.68 537.525 1777.93 550.205 1773.93C555.205 1783.22 560.504 1792.37 567.015 1800.78C543.314 1802.89 519.835 1807.07 496.224 1810.02ZM485.795 1774.42C485.165 1775.75 484.265 1777.16 484.245 1778.75C483.605 1773.25 482.355 1767.81 480.455 1762.6C482.234 1766.54 484.015 1770.48 485.795 1774.42ZM470.835 1744.9C459.174 1729.7 437.625 1717.28 417.705 1721.51C416.424 1721.79 416.394 1723.85 417.705 1724.1C444.464 1727.74 467.964 1748.97 468.894 1776.41C471.004 1788.83 462.365 1801.03 465.275 1812.94C464.695 1812.98 464.115 1813.01 463.545 1813.05C463.335 1813.85 463.144 1814.56 462.894 1815.18C465.785 1815.66 466.634 1820.31 463.224 1821.14C461.205 1821.63 459.094 1821.89 456.945 1822C446.035 1819.05 434.525 1818.37 424.094 1814.02C413.775 1809.46 416.355 1796.64 412.714 1787.77C410.045 1777.53 406.974 1767.34 403.105 1757.52C402.825 1756.73 401.755 1756.91 401.665 1757.7C398.935 1777.3 399.025 1797.22 399.685 1816.97C396.105 1817.34 392.545 1817.74 388.974 1818.18C389.205 1812.67 372.655 1745.46 363.935 1762.71C368.325 1781.67 368.855 1801.48 369.325 1820.99C343.435 1825.26 317.924 1831.61 293.105 1840.26C275.615 1845.56 254.814 1861.24 237.835 1847.06C224.685 1836.19 220.255 1817.22 221.495 1801.07C238.594 1705.56 373.655 1694.4 453.384 1701.46C460.915 1718.83 468.585 1736.15 476.355 1753.43C474.745 1750.45 472.905 1747.6 470.835 1744.9ZM198.905 1799.21C197.445 1777.52 201.094 1750.52 217.165 1734.36C253.945 1703.26 305.445 1693.48 351.405 1682.22C372.814 1677.99 394.515 1675.19 416.304 1673.79C424.035 1673.18 433.855 1674.93 439.314 1668.61C442.125 1675.27 444.974 1681.91 447.825 1688.56C356.325 1676.58 165.424 1718.22 218.884 1843.57C207.564 1831.3 200.064 1816.37 198.905 1799.21ZM135.025 1397.71C137.585 1379.09 140.384 1360.5 143.344 1341.93C155.445 1253.12 180.455 1166.68 195.365 1078.47C221.174 1086.86 247.605 1093.26 273.665 1100.81C217.195 1194.72 171.005 1294.45 135.025 1397.71ZM347.068 1310.32C342.103 1286.72 336.535 1262.67 334.004 1238.68C333.89 1237.6 335.549 1237.48 335.845 1238.43C339.992 1251.72 342.818 1265.49 346.316 1278.96C349.827 1292.48 353.091 1306.06 356.548 1319.59C357.652 1323.91 358.759 1328.23 359.867 1332.55C360.531 1332.58 361.193 1332.6 361.852 1332.62C364.384 1332.67 365.143 1335.85 363.106 1337.18C362.511 1337.56 361.915 1337.9 361.317 1338.2C371.903 1379.38 382.75 1420.46 394.588 1461.33C408.382 1508.94 423.912 1555.98 436.324 1603.99C436.611 1605.1 436.097 1605.87 435.345 1606.21C441.801 1628.05 447.211 1650.18 453.113 1672.19C454.342 1676.77 447.574 1679.74 445.26 1675.45C441.697 1668.84 440.91 1659.81 439.166 1652.55C437.201 1644.37 435.334 1636.17 433.47 1627.97C430.505 1614.92 427.845 1601.71 425.652 1588.48C417.48 1567.95 410.162 1547.18 403.686 1526.01C389.183 1478.59 375.805 1430.86 363.897 1382.75C360.381 1368.55 356.935 1354.33 353.647 1340.07C338.677 1340.3 323.035 1323.37 307.992 1332.38C307.296 1332.8 306.591 1331.85 307.139 1331.29C313.136 1325.22 321.425 1324.69 329.478 1326.19C334.711 1327.17 339.728 1329.02 344.851 1330.42C347.108 1331.04 349.425 1331.49 351.767 1331.82C350.152 1324.67 348.578 1317.5 347.068 1310.32ZM669.585 1757.21C661.935 1762.21 655.695 1769.61 651.295 1777.56C623.094 1851.34 592.935 1811.82 555.464 1772.23C587.174 1760.26 629.174 1751.3 653.495 1727.51C657.705 1738.03 662.855 1748.05 669.585 1757.21ZM659.496 1577.25C657.047 1565.11 655.029 1552.89 653.193 1540.65C651.431 1528.91 648.678 1516.33 649.127 1504.45C649.144 1503.98 649.812 1503.89 649.956 1504.34C653.768 1516.19 654.91 1529.29 657.328 1541.49C659.667 1553.29 662.237 1565.04 664.826 1576.78C670.142 1600.89 677.659 1624.63 682.209 1648.89C682.697 1651.49 679.186 1652.4 678.232 1649.97C669.121 1626.78 664.4 1601.57 659.496 1577.25ZM143.734 1030.3C131.415 1017.03 121.734 1000.09 123.605 982.114C131.005 972.244 133.455 959.37 137.765 947.963C154.615 900.228 170.255 852.128 188.594 804.906C227.605 816.904 265.984 831.295 302.185 850.198C308.844 853.597 315.435 857.123 321.945 860.778C328.765 864.599 336.205 871.239 344.384 869.337C335.445 881.995 317.035 895.165 313.924 909.793C313.255 914.423 316.535 918.717 321.575 917.683C400.464 973.722 481.935 1028.58 556.504 1091C612.344 1135.21 655.214 1171.06 674.365 1242.79C687.275 1289.26 687.314 1337.82 685.415 1385.6C685.045 1394.88 685.035 1404.39 684.285 1413.74C685.405 1420.73 683.275 1434.97 675.415 1435.22C675.594 1436.92 676.155 1438.48 677.045 1439.86C676.795 1440.2 676.535 1440.51 676.265 1440.84C675.875 1438.93 675.495 1437.02 675.134 1435.11C669.015 1408.01 668.195 1376.55 669.214 1347.69C669.644 1339.42 656.955 1339.61 656.245 1347.69C654.335 1369.51 652.424 1391.33 650.515 1413.14C648.224 1427.27 651.835 1445.76 640.535 1456.51C629.045 1445.89 632.844 1424.95 633.405 1411.25C634.304 1388.9 635.275 1366.55 636.105 1344.2C636.365 1337.12 624.634 1335.3 623.304 1342.5C619.535 1363.03 615.455 1383.5 611.064 1403.91C608.415 1411.8 606.594 1447.2 593.355 1441.05C585.464 1435.67 591.155 1404.07 590.115 1393.61C590.605 1372.91 590.894 1352.23 592.415 1331.58C593.035 1323.24 579.464 1321.47 577.605 1329.61C574.585 1342.78 571.695 1355.95 569.075 1369.2C563.325 1391.56 565.415 1421.85 544.655 1436.71C536.525 1378.65 548.224 1321 549.865 1263.15C548.884 1244.4 545.665 1225.84 542.825 1207.32C539.685 1186.84 537.855 1164.55 545.205 1144.8C543.195 1135.96 535.295 1159.88 534.554 1161.87C528.605 1150.15 514.115 1149.25 502.655 1145.59C477.185 1137.35 451.094 1131.13 425.325 1123.8C356.984 1104.82 288.564 1086.13 220.125 1067.49C192.785 1059.92 164.005 1050.97 143.734 1030.3ZM828.085 1339.12C818.655 1288.01 818.915 1236.21 822.945 1184.54C827.375 1104.4 831.674 1024.23 836.275 944.102C856.245 1089.14 877.535 1234.01 893.814 1379.51C894.974 1389.63 894.795 1400.35 899.905 1409.38C871.665 1413.17 841.564 1416.98 814.105 1407.37C826.155 1386.54 830.405 1362.82 828.085 1339.12ZM215.144 746.464C262.745 648.738 359.804 579.362 468.655 564.232C468.775 564.35 468.905 564.468 469.025 564.596C468.665 564.922 468.335 565.276 468.035 565.641C470.964 563.483 474.984 566.192 473.685 569.176C475.295 572.851 476.484 576.634 477.974 580.337C478.605 580.278 479.245 580.219 479.884 580.121C486.344 592.946 489.844 607.731 496.594 620.517C533.535 684.525 624.695 710.51 693.075 684.672C747.335 661.16 755.035 594.207 750.174 542.738C749.924 539.271 748.165 536.818 745.814 535.37C775.405 540.108 804.995 544.886 834.615 549.387C848.884 551.555 863.545 554.687 874.564 564.488C917.935 609.12 925.674 729.226 940.265 791.667C905.355 795.322 866.335 815.22 841.314 839.343C842.495 811.92 840.804 784.634 837.644 757.408C837.594 756.078 835.375 755.625 835.165 757.083C828.915 784.683 824.105 812.521 822.125 840.8C813.894 954.602 809.005 1068.63 801.955 1182.51C799.545 1224.42 796.535 1266.7 802.505 1308.47C821.724 1394.45 787.835 1436.65 696.875 1422.36C707.924 1313.39 699.915 1188.72 608.665 1113.16C605.884 1110.68 602.545 1110.85 600.015 1112.33C525.825 1049.28 447.525 990.891 364.185 940.042C364.785 929.533 338.495 920.244 331.134 912.994C358.464 884.684 379.275 850.267 397.424 815.653C399.025 811.89 419.894 774.025 413.254 776.409C393.424 805.793 373.705 835.364 350.355 862.255C351.625 849.853 319.495 841.539 309.605 835.875C271.394 819.78 231.445 807.182 190.275 800.66C197.685 782.211 205.785 764.037 215.144 746.464ZM723.625 547.142C722.375 545.004 721.185 542.817 720.045 540.601C723.905 540.749 727.665 540.887 731.464 541.517C731.295 547.634 731.634 553.8 731.705 559.967C729.804 555.455 726.085 551.338 723.625 547.142ZM1368.44 1408.57C1277.25 1342.25 1127.47 1384.5 1021.83 1391.32C1001.69 1259.25 1009.91 1125.03 991.144 992.753C973.855 860.6 955.625 726.606 912.205 599.989C894.285 551.033 863.285 536.493 812.245 536.887C786.344 535.873 758.955 531.726 733.785 532.317C728.265 532.405 722.495 533.134 717.515 535.361C710.515 519.58 706.714 502.638 704.795 485.567C704.674 484.483 703.295 484.286 702.884 485.321C696.964 500.185 696.335 516.408 699.554 531.972C701.884 543.123 715.755 587.006 731.865 569.837C733.144 605.84 725.234 648.837 689.964 667.523C628.335 694.395 543.144 669.927 507.445 612.893C500.545 601.496 494.594 589.369 486.955 578.426C540.185 563.355 570.064 499.574 557.525 451.002C549.775 488.778 535.644 530.987 500.455 552.146C372.314 551.86 265.775 610.223 205.575 722.636C193.795 738.958 182.905 755.92 172.924 773.178C167.554 784.723 151.825 800.779 165.174 811.93C149.755 853.084 136.075 894.811 121.615 936.29C117.644 950.111 108.564 964.61 110.375 979.14C108.415 988.094 108.505 998.683 112.995 1007.29C117.255 1022.64 126.814 1043.29 142.665 1049.8C156.115 1062.08 173.125 1070.54 190.865 1076.91C143.554 1200.56 125.545 1333.9 109.515 1464.54C93.8036 1578.82 85.6946 1717.84 184.134 1800.43C186.045 1824.07 200.064 1854.18 227.785 1854.43C246.984 1873.29 270.384 1862.94 291.755 1853.72C327.825 1840.37 365.655 1832.96 403.245 1828.83C407.275 1831.98 413.835 1831.46 417.424 1827.79C440.195 1822.54 471.754 1843.8 476.355 1824.54C505.714 1821.69 534.754 1816.35 564.085 1813.24C551.724 1829.28 552.615 1852.93 561.924 1870.25C538.214 1916.9 593.445 1943.9 627.214 1963.04C672.804 1989.44 720.415 2014.49 772.554 2025.44C818.394 2035.08 866.415 2032.15 910.644 2016.75C933.884 2010.91 966.344 1991.73 952.554 1964.71C970.035 1913.29 847.275 1860.01 811.165 1834.26C825.924 1832.42 826.464 1801.78 788.075 1819.39C783.435 1816.28 778.875 1813.08 774.365 1809.82C929.644 1791.97 1226.19 1742.87 1338.57 1636.72C1400.31 1582.14 1435.93 1471.74 1368.44 1408.57Z" fill="black"/>
</g>
<path fill-rule="evenodd" clip-rule="evenodd" d="M462.973 102.401C468.159 96.8357 474.792 92.6897 482.043 91.3647C475.415 94.6757 468.936 98.1267 462.973 102.401ZM452.815 150.385C451.898 146.144 451.282 141.862 451.088 137.581C452.247 139.343 454.098 140.52 456.177 141.128C454.834 144.135 453.692 147.233 452.815 150.385ZM799.835 216.878C793.849 191.961 765.921 144.034 759.32 134.809C752.152 111.968 791.246 93.6507 769.985 75.7897C760.359 67.7307 747.637 64.8787 735.703 62.0207C653.073 42.1767 564.295 52.1847 487.659 88.6757C476.002 86.2227 463.857 91.0167 455.38 99.4367C415.555 139.465 469.829 211.687 481.697 256.813C502.059 307.13 460.115 315.594 464.613 358.167C468.108 380.161 490.385 385.974 509.184 389.298C512.197 390.003 516.225 390.109 517.197 393.294C520.243 411.885 530.685 429.602 544.704 441.626C543.478 445.258 544.414 449.667 548.737 452.857C587.905 481.964 637.292 496.53 686.144 493.912C744.362 490.791 774.469 457.423 781.734 448.831C821.903 394.584 817.103 323.01 808.909 258.361C803.201 213.325 810.439 261.018 799.835 216.878Z" fill="white"/>
<path fill-rule="evenodd" clip-rule="evenodd" d="M620.322 9.54133C622.152 3.82133 627.332 0.381332 633.262 1.09133C638.512 1.71133 644.132 6.92133 643.492 12.6713C643.372 13.7813 643.212 14.8213 643.022 15.8013L643.047 15.8101L643.072 15.8113L642.942 16.1913C642.552 18.0213 642.012 19.6613 641.212 21.2113C640.192 24.1813 639.212 27.1613 638.242 30.1513C639.642 30.0913 641.072 30.1713 642.522 30.4413C644.022 26.6013 645.532 22.7713 647.032 18.9213C648.642 14.8113 649.772 9.53133 652.952 6.35133C657.022 2.29133 664.082 1.45133 669.042 4.35133C674.282 7.41133 676.152 12.8513 675.012 18.6813C674.432 21.6551 672.445 23.7247 669.987 25.025L669.722 25.1613L667.832 29.6413C668.412 29.3913 669.012 29.1613 669.662 28.9713C670.682 28.6713 671.682 28.4813 672.662 28.4013C675.362 23.5113 678.332 18.7613 681.402 14.1013C684.932 8.74133 691.832 6.46133 697.622 9.85133C702.802 12.8813 705.582 20.8413 701.872 26.0713C699.052 30.0413 696.382 34.0913 693.752 38.1813C694.202 38.2613 694.652 38.3613 695.082 38.4913C695.282 38.2213 695.492 37.9513 695.712 37.6813C698.582 34.1213 701.922 31.4513 705.352 28.4913C708.562 25.7113 710.042 21.3413 714.262 19.2313C719.572 16.5813 725.972 17.8513 729.132 23.1313C735.912 34.4413 724.532 42.7013 717.252 49.5513C723.582 45.6013 730.172 41.9913 736.932 38.8713C740.732 37.1213 744.592 35.4313 748.512 33.9713C754.322 31.8113 759.022 32.5023 763.792 36.5213C765.922 38.3213 766.982 42.2523 766.002 44.8713C764.102 49.8913 761.102 52.9413 755.842 54.3913C752.142 55.4113 748.352 56.1013 744.652 57.1713C738.452 58.9513 732.432 61.1213 726.592 63.8313C727.012 64.0913 727.412 64.3713 727.782 64.6913C732.142 63.2813 736.582 62.0613 741.042 61.0213C748.439 59.287 755.967 58.1151 763.529 57.3821L766.041 57.1483C775.107 56.2783 786.008 54.6728 791.572 63.3513C793.402 66.2113 793.602 70.9313 791.572 73.7613C787.692 79.2013 783.832 80.2813 777.412 80.3813C783.732 81.0513 790.042 81.8813 796.322 82.8513C800.65 83.5113 804.979 84.2595 809.289 85.0895L811.442 85.5113C816.692 86.5613 822.552 87.1713 827.062 90.2113C836.902 96.8513 832.282 109.781 821.382 111.161C816.112 111.821 810.262 109.591 805.092 108.551C800.072 107.541 795.032 106.651 789.972 105.871C787.352 105.461 784.732 105.101 782.102 104.771C787.452 105.541 792.762 106.631 797.932 108.171L799.368 108.605C809.363 111.651 822.854 116.502 825.972 127.181C827.862 133.671 822.692 139.331 816.432 139.711C810.612 140.061 805.762 136.591 800.822 134.031C797.222 132.171 793.562 130.781 789.682 129.591C785.672 128.361 781.582 127.341 777.462 126.511C780.944 128.43 784.334 130.538 787.589 132.896L789.086 134.002C797.737 140.448 810.93 150.428 807.882 162.511C806.922 166.321 802.672 169.961 798.592 169.571C787.972 168.581 782.112 157.271 774.102 151.211C772.012 149.631 769.722 148.071 767.322 146.551C779.462 161.031 789.122 177.771 796.472 195.061C812.625 233.099 817.581 268.325 817.7 309.225L817.702 310.491C817.722 333.051 817.212 356.021 815.012 378.481C812.972 399.231 809.232 419.711 799.822 438.502C784.052 470.011 753.322 494.551 719.432 503.891C681.722 514.291 639.572 506.161 608.682 482.161C600.802 476.041 611.252 462.752 619.302 468.401C651.452 490.951 693.032 498.091 729.932 482.831C759.202 470.731 782.772 444.701 792.762 414.731C799.12 395.665 800.972 375.335 803.24 355.465L803.392 354.141C805.792 333.361 807.182 312.441 807.162 291.521C807.132 252.671 801.552 220.691 784.462 185.451C776.422 168.851 765.992 153.502 753.532 140.031C749.752 140.801 745.732 139.721 741.912 139.311C739.962 139.101 738.012 138.901 736.062 138.721C738.054 140.009 740.007 141.349 741.928 142.719L744.446 144.535C752.328 150.18 762.328 156.609 760.302 167.521C759.752 170.471 756.812 173.181 753.962 173.851C743.632 176.311 736.532 166.271 729.552 160.311C723.482 155.131 717.132 150.491 710.662 145.841C709.192 144.791 707.712 143.741 706.222 142.701C707.622 144.333 708.983 145.991 710.312 147.664L712.276 150.153C718.218 157.588 726.784 167.253 721.492 176.891C719.992 179.611 716.792 181.421 713.692 181.361C703.032 181.141 698.792 169.041 693.792 161.401C689.492 154.851 684.822 148.681 679.992 142.511C678.662 140.821 677.322 139.131 675.962 137.441C653.572 138.601 631.262 141.561 609.342 146.291C594.282 149.541 579.472 153.752 564.772 158.361L563.55 158.75C555.595 161.311 547.398 164.59 541.662 170.211C540.843 174.085 541.471 178.169 542.255 182.037L542.865 184.998C545.38 197.379 547.094 209.53 545.812 222.241C544.482 235.351 540.532 247.141 535.712 259.321C533.432 265.061 531.072 264.021 530.262 270.181C529.641 274.873 530.025 279.717 530.449 284.448L530.803 288.459C531.692 298.966 532.139 310.422 525.252 319.091C524.182 320.421 521.892 319.891 521.132 318.561C520.832 318.031 520.512 317.521 520.162 317.031C516.842 312.221 511.752 309.481 505.932 308.421C505.192 308.291 505.482 307.301 506.102 307.221C511.022 306.641 515.682 307.871 519.642 310.411C517.764 303.918 503.226 307.076 498.446 308.338L498.282 308.381C492.322 309.981 486.682 312.581 481.712 316.261C471.712 323.661 465.932 335.201 466.222 347.631C466.512 359.851 472.822 371.141 483.662 376.991C488.892 379.811 494.842 381.171 500.762 381.111C506.942 381.051 512.442 378.341 518.632 378.721C522.212 378.941 524.952 382.781 522.882 386.131C521.502 388.371 519.702 390.131 517.622 391.481C522.692 403.171 529.162 414.321 536.622 424.611C540.752 430.321 545.432 435.591 550.582 440.401C554.602 444.161 563.312 448.511 562.822 454.781C562.652 457.041 561.482 458.421 559.422 459.261C553.017 461.88 545.23 452.864 540.946 448.518L540.602 448.171C535.262 442.851 530.392 436.971 526.152 430.731C518.632 419.651 513.962 407.161 512.032 394.041C501.762 397.131 488.162 394.231 479.782 390.441C453.442 378.541 444.832 343.071 460.842 319.451C463.942 314.881 467.822 310.971 472.242 307.811C471.272 307.281 470.362 306.601 469.552 305.741C465.071 300.982 461.903 294.771 458.759 289.046L458.382 288.361C455.591 283.321 452.958 278.202 450.49 273.004L449.572 271.051C444.062 259.201 439.232 254.021 435.302 241.561C431.522 229.541 428.542 217.291 426.612 204.831L426.099 201.533C424.983 194.303 423.927 186.572 424.742 179.231C419.132 181.061 413.492 182.191 407.942 179.441C404.282 177.631 402.262 172.351 403.512 168.561C404.422 165.771 405.942 163.581 407.872 161.861C406.722 161.281 405.642 160.541 404.692 159.721L403.862 159.002C400.502 156.081 400.262 150.531 402.302 146.871C402.502 146.521 402.702 146.161 402.892 145.811C404.832 142.341 408.842 140.071 412.802 140.131C413.442 140.141 414.082 140.141 414.732 140.131C412.882 139.721 411.072 139.091 409.352 138.031C401.592 133.261 402.572 120.331 411.962 118.051C415.902 117.101 420.252 117.491 424.592 118.511C424.432 118.421 424.272 118.331 424.112 118.231C420.832 116.221 418.082 112.291 418.392 108.261C418.732 103.801 420.172 100.621 424.112 98.2813C427.532 96.2613 432.372 96.0713 435.772 98.2813C438.722 100.211 441.612 102.341 444.392 104.631C441.602 101.201 439.182 97.4713 438.202 93.5113C436.992 88.5813 439.012 83.2113 443.452 80.6113C446.992 78.5413 450.732 78.7713 454.072 80.3713C453.892 77.7813 454.522 75.1413 456.242 72.8013C459.762 68.0023 466.162 65.2413 471.732 68.7413C472.462 69.2013 473.442 69.9913 474.392 70.9613C472.542 65.0713 474.212 58.8913 480.522 56.2313C484.372 54.6013 489.582 55.4213 492.922 58.2313C490.802 46.7613 507.732 38.3313 514.312 50.1813C515.805 52.8658 517.283 55.6924 518.604 58.5841L519.092 59.6713L519.142 59.6513L518.805 58.8563L518.462 58.0613C516.632 53.8113 514.302 49.3913 513.662 44.7813C512.722 37.9613 515.762 31.4913 523.182 30.4913C527.012 29.9713 531.272 31.7113 533.842 34.7523C532.452 24.1713 544.272 16.4813 552.782 24.3813C556.812 28.1213 558.962 33.5913 561.522 38.3913C562.972 41.1013 564.452 43.8013 565.902 46.5213C566.272 46.0813 566.672 45.6413 567.092 45.2113C564.942 38.7713 563.272 32.1713 561.862 25.5313C560.522 19.2713 563.652 12.7713 570.112 11.0023C575.982 9.38133 583.332 13.0023 584.642 19.2523C585.562 23.6513 586.652 28.0023 587.852 32.3313C588.672 32.1313 589.482 31.9913 590.282 31.8913C590.348 31.078 590.424 30.2602 590.508 29.4469L590.823 26.5542C591.522 19.9447 592.228 12.3998 595.682 6.78133C601.572 -2.81867 616.672 1.16133 616.832 12.5113C616.922 18.3813 614.532 24.2013 613.702 30.0113C613.342 32.5413 613.132 35.1013 613.012 37.6613C614.622 29.1613 616.832 20.7713 619.392 12.5113C619.692 11.5213 620.012 10.5313 620.322 9.54133ZM490.042 337.322C503.292 335.272 515.402 342.662 523.252 353.012C524.682 354.902 523.742 357.572 522.452 359.162C521.522 360.332 520.272 360.472 518.862 360.652C517.242 360.862 515.192 359.552 514.482 358.142C509.432 348.062 500.422 341.692 490.042 337.772C489.852 337.702 489.792 337.362 490.042 337.322ZM508.409 156.717L508.811 156.286C511.492 153.505 507.255 149.257 504.568 152.044C501.739 154.978 499.859 158.542 498.051 162.154C496.328 165.598 501.502 168.64 503.232 165.183L504.02 163.612C505.256 161.169 506.574 158.755 508.409 156.717ZM471.199 151.009C474.999 150.369 473.388 144.586 469.604 145.224C464.702 146.05 459.819 146.989 454.916 147.816C451.117 148.456 452.728 154.239 456.512 153.602C461.414 152.775 466.297 151.836 471.199 151.009ZM697.567 111.528C693.896 110.303 692.321 116.096 695.972 117.314C701.017 118.997 706.021 120.722 710.807 123.059C714.264 124.747 717.309 119.574 713.835 117.878C708.582 115.313 703.105 113.376 697.567 111.528ZM470.335 103.752C466.75 102.318 465.193 108.119 468.74 109.538L481.7 114.721C485.285 116.155 486.842 110.355 483.295 108.936L470.335 103.752ZM742.821 89.6648L742.348 89.3663C739.098 87.2603 736.087 92.4523 739.319 94.5473C741.216 95.7765 743.523 96.6102 745.26 98.0745L745.624 98.3983C748.43 101.048 752.681 96.8143 749.867 94.1553C747.808 92.2119 745.202 91.1298 742.821 89.6648Z" fill="black"/>
<path fill-rule="evenodd" clip-rule="evenodd" d="M716.298 379.662C717.891 376.895 721.557 374.332 724.912 374.725C739.942 376.487 739.916 394.7 734.112 405.332C728.967 414.76 718.317 420.295 707.658 419.486C696.461 418.637 686.92 412.057 682.721 401.587C679.944 394.661 678.661 381.876 686.048 377.222C686.185 377.135 686.411 377.157 686.52 377.282C690.062 381.4 690.201 387.583 693.302 392.168C696.186 396.432 700.666 399.954 705.914 400.497C709.834 400.904 713.8 399.491 715.333 395.974C716.162 394.071 716.068 393.038 715.756 391.729L715.473 390.591C714.491 386.605 714.05 383.571 716.298 379.662ZM720.316 299.787C728.155 304.55 740.099 315.655 731.666 327.461C721.74 337.871 707.448 325.935 700.406 320.537C693.876 316.354 686.539 327.113 692.597 331.999C743.487 369.656 764.139 301.033 724.281 294.188C719.892 293.434 718.262 298.314 720.316 299.787ZM637.538 267.131C642.349 259.916 653.332 260.979 655.982 269.54C657.418 274.178 655.435 278.347 655.538 282.979C655.624 286.891 655.368 291.251 654.168 295.04C651.431 303.681 643.656 309.784 634.458 309.53C625.29 309.278 617.215 303.478 613.375 295.31C609.522 287.11 610.338 278.624 613.151 270.286C613.286 269.886 613.811 269.692 614.128 270.029C617.453 273.561 619.887 277.29 622.406 281.245L624.987 285.299C626.96 288.351 629.827 292.251 633.51 292.006L634.063 291.951C635.087 291.863 634.93 292.066 635.719 290.672C636.085 290.027 636.018 288.827 636.195 288.066L636.256 287.808L636.223 287.67C636.145 287.301 636.067 286.606 636.005 285.4L635.991 285.134C635.724 279.492 634.129 272.243 637.538 267.131ZM759.502 271.934C758.639 262.707 771.619 260.657 775.934 267.485C778.185 271.046 778.84 275.519 779.338 279.757L779.571 281.768C780.081 286.121 780.284 290.649 778.393 294.709C775.416 301.103 768.942 304.483 761.958 303.948C755.288 303.435 749.203 299.57 745.995 293.703C743.136 288.468 740.292 278.246 743.766 272.785C743.975 272.454 744.395 272.412 744.682 272.667C747.965 275.579 748.499 280.892 750.451 284.686C752.464 288.599 755.517 292.413 760.143 293.008C764.569 293.577 766.26 291.16 765.131 286.943C763.675 281.498 760.05 277.793 759.502 271.934ZM641.044 212.269L643.167 211.457C650.439 208.711 660.424 205.537 666.337 211.448C669.985 215.092 670.68 220.462 668.076 224.91C664.921 230.298 659.263 230.43 653.799 231.224C647.584 232.127 641.263 233.843 635.477 236.289C628.959 239.046 622.91 242.483 616.984 246.32C611.351 249.967 605.738 255.928 598.996 257.052C598.721 257.097 598.409 256.979 598.337 256.677C596.806 250.089 601.061 243.605 604.858 238.465C609.453 232.242 615.02 227.134 621.242 222.554C627.247 218.134 634.109 214.939 641.044 212.269ZM773.155 235.694L773.804 235.58C778.214 234.846 782.211 235.015 785.534 238.506C788.071 241.17 789.049 244.622 787.84 248.143C786.724 251.392 784.228 254.692 780.607 255.373C768.379 257.672 754.836 257.292 742.547 255.551C736.925 254.754 731.252 253.779 725.776 252.241L723.256 251.511C718.684 250.206 713.45 248.842 710.129 245.482C708.936 244.274 709.624 242.545 711.052 241.986C716.847 239.718 724.789 240.925 730.967 240.747C738.155 240.542 745.354 240.003 752.507 239.262C759.498 238.535 766.262 236.957 773.155 235.694Z" fill="black"/>
<path fill-rule="evenodd" clip-rule="evenodd" d="M710.914 347.328C699.793 342.319 679.823 346.69 672.573 348.428C655.718 352.47 638.762 361.205 633.522 374.89C627.617 390.313 639.399 395.168 641.132 394.375C652.8 395.197 666.695 387.862 678.922 385.969C688.848 384.419 699.319 383.066 708.619 377.792C715.409 381.527 730.745 383.546 743.122 386.812C753.663 389.592 758.23 395.621 768.002 394.339C779.714 392.803 774.92 368.17 761.867 358.191C747.581 347.27 723.419 342.841 710.914 347.328ZM732.934 452.654C723.205 455.026 722.551 433.701 721.461 426.167C720.61 420.281 715.807 405.102 703.631 405.757C691.455 406.412 686.879 419.129 687.496 427.039C687.897 432.168 692.623 458.15 677.536 461.437C667.917 461.403 656.789 460.754 646.675 458.889C634.771 456.193 619.292 446.754 615.203 465.343C613.732 472.033 666.169 491.91 689.438 493.708C713.037 498.49 740.647 491.137 757.448 473.084C761.27 468.977 772.036 451.93 772.803 447.754C774.415 438.979 770.683 433.332 759.825 436.425C752.155 440.521 739.191 451.128 732.934 452.654Z" fill="black"/>
<path fill-rule="evenodd" clip-rule="evenodd" d="M799.134 331.318C792.401 340.363 779.919 343.244 768.406 342.249C743.575 339.859 735.76 311.658 734.946 289.739C751.597 294.423 733.538 261.249 790.457 257.601C810.522 255.929 804.99 268.047 813.855 276.901C813.673 295.483 810.58 315.674 799.134 331.318ZM680.863 309.966C666.203 378.619 585.925 362.289 577.492 300.403C585.279 294.907 583.228 281.336 592.902 276.419C608.234 266.623 627.4 267.042 644.811 267.272C667.066 268.801 673.408 278.02 684.84 288.078C684.29 294.796 682.704 302.758 680.863 309.966ZM830.935 246.231C830.112 246.094 829.288 245.965 828.464 245.844C827.821 245.479 827.066 245.198 826.188 245.029C824.183 244.52 822.192 244.177 820.204 243.992C791.672 237.571 725.665 246.688 722.941 271.036C713.855 274.069 705.993 271.353 695.462 271.623C687.446 238.118 548.863 242.847 542.198 263.047C542.173 263.04 542.148 263.034 542.122 263.026C535.718 261.044 526.277 261.522 518.947 261.208C503.296 260.88 487.627 262.275 472.314 265.576C443.639 270.133 404.504 275.468 424.447 311.276C424.451 311.282 424.454 311.289 424.459 311.295L424.462 311.292C427.899 314.815 433.732 311.978 433.949 307.209C427.244 290.245 442.388 288.208 454.04 283.333C483.033 272.917 512.551 271.473 542.537 274.695C544.793 277.351 548.216 279.667 551.834 280.879C571.883 284.207 561.317 299.079 573.99 301.242C571.662 353.084 634.603 381.382 671.072 347.303C685.633 333.067 689.104 311.978 692.48 292.969C694.265 292.568 695.4 291.592 696.063 290.3C700.356 286.014 703.053 282.056 711.542 280.879C720.031 279.703 726.566 282.064 727.45 282.787C727.673 283.236 727.912 283.686 728.19 284.136C728.578 284.807 729.106 285.342 729.706 285.763C721.323 337.387 761.4 370.035 801.859 343.26C819.439 326.723 823.154 301.405 823.888 278.807C826.271 277.369 827.78 274.582 826.955 271.078C825.818 266.248 828.484 262.066 832.73 259.966C838.247 257.239 837.271 247.28 830.935 246.231Z" fill="black"/>
</svg>
