<svg width="1534" height="2348" viewBox="0 0 1534 2348" fill="none" xmlns="http://www.w3.org/2000/svg">
<path fill-rule="evenodd" clip-rule="evenodd" d="M822.162 1321.32C824.401 1344.68 819.823 1366.98 808.918 1385.84L805.37 1391.98L812.123 1394.34C824.413 1398.64 838.08 1400.73 853.906 1400.73C870.193 1400.73 887.13 1398.46 900.739 1396.64L909.452 1395.47L905.172 1387.9C901.73 1381.82 901.093 1374.45 900.418 1366.65C900.236 1364.55 900.049 1362.38 899.803 1360.24C886.908 1244.98 870.608 1128.21 854.845 1015.29C850.696 985.579 846.407 954.853 842.246 924.629L830.31 925.089C827.099 981.032 823.983 1037.92 820.97 1092.94C819.645 1117.13 818.319 1141.32 816.983 1165.51C812.22 1226.67 813.865 1276.19 822.162 1321.32ZM827.033 2012.49C809.504 2012.49 791.941 2010.66 774.834 2007.06C721.301 1995.83 672.666 1969.31 631.282 1945.35C629.169 1944.15 627.025 1942.95 624.824 1941.72C608.622 1932.65 588.459 1921.38 575.823 1907.62C561.961 1892.52 559.575 1877.48 568.316 1860.28L569.699 1857.56L568.254 1854.87C559.203 1838.03 559.876 1817.18 569.89 1804.19L578.306 1793.27L564.469 1794.74C550.517 1796.22 536.455 1798.22 522.855 1800.16C507.766 1802.32 492.161 1804.54 476.793 1806.03L472.522 1806.45L471.54 1810.56C470.993 1812.85 470.318 1814.24 465.577 1814.24C461.466 1814.24 455.941 1813.04 450.094 1811.76C442.837 1810.18 434.611 1808.39 426.679 1808.39C423.19 1808.39 420.052 1808.72 417.084 1809.41L415.357 1809.81L414.128 1811.07C413.342 1811.87 412.004 1812.37 410.637 1812.37C409.603 1812.37 408.644 1812.08 408.003 1811.58L406.065 1810.07L403.606 1810.34C360.763 1815.04 323.82 1823.3 290.67 1835.57L290.52 1835.63L289.801 1835.94C277.814 1841.11 265.421 1846.46 254.134 1846.46C245.883 1846.46 239.183 1843.65 233.047 1837.63L231.313 1835.93L228.867 1835.9C204.049 1835.67 192.709 1806.73 191.141 1787.34L190.944 1784.9L189.052 1783.31C145.8 1747.01 120.266 1697.16 110.988 1630.91C102.538 1570.56 109.026 1506.93 116.487 1452.65C133.746 1311.97 151.747 1185.86 197.505 1066.25L199.643 1060.66L193.946 1058.61C174.183 1051.51 159.079 1043.04 147.77 1032.71L146.987 1031.99L146.001 1031.59C129.793 1024.93 121.855 1000.35 119.808 992.976L119.644 992.381L119.358 991.833C116.051 985.489 115.288 976.665 117.266 967.622L117.478 966.647L117.355 965.657C116.287 957.071 119.832 948.095 123.585 938.591C125.3 934.249 127.072 929.761 128.367 925.292C132.819 912.518 137.266 899.518 141.568 886.944C151.22 858.734 161.199 829.563 171.83 801.186L173.284 797.305L170.081 794.631C164.613 790.063 166.439 784.687 174.324 771.832C176.187 768.796 177.949 765.923 179.289 763.092C189.396 745.628 200.228 728.863 211.49 713.257L211.722 712.937L211.907 712.59C269.696 604.662 372.203 545.224 500.544 545.224L503.16 545.229L504.606 544.359C528.66 529.894 545.831 505.075 557.1 468.485L557.46 467.318L557.321 466.106C556.935 462.734 556.512 458.312 556.657 454.022C557.024 443.156 561.283 433.46 568.341 427.418C581.732 415.957 602.061 414.997 621.736 414.997L624.561 415.002C649.716 415.074 667.475 419.441 680.451 428.748C695.527 439.562 703.859 457.018 705.924 482.113C706.541 489.622 706.52 497.401 706.501 504.924L706.496 507.024L706.749 507.857C708.557 513.821 710.675 519.552 713.043 524.892L715.479 530.386L721.019 527.909C724.602 526.308 729.144 525.484 734.908 525.392C736.57 525.353 738.191 525.335 739.826 525.335C753.209 525.335 767.525 526.557 781.371 527.738C791.803 528.629 802.591 529.55 813.033 529.959L813.176 529.965C813.176 529.965 814.618 529.956 815.265 529.956C840.644 529.956 859.042 533.947 873.163 542.517C888.368 551.744 899.301 566.552 907.568 589.12C951.91 718.48 970.14 857.817 986.22 980.747C995.341 1045.03 998.115 1110.94 1000.8 1174.67C1003.63 1241.94 1006.56 1311.5 1016.93 1379.5L1017.75 1384.88L1023.25 1384.52C1047.48 1382.96 1073.67 1379.59 1101.39 1376.02C1143.51 1370.61 1187.07 1365 1229.17 1365C1288.04 1365 1332.68 1376.59 1365.61 1400.41C1388.56 1422.05 1400.44 1451.34 1399.95 1485.14C1399.26 1532.9 1374 1585.71 1335.59 1619.67L1335.45 1619.8C1286.9 1665.66 1198.29 1705.44 1072.06 1738.03C955.992 1768 835.932 1784.28 774.695 1791.32L759.539 1793.07L771.841 1801.96C776.82 1805.56 781.363 1808.73 785.73 1811.65L788.547 1813.54L791.633 1812.12C800.433 1808.08 806.022 1807.24 809.163 1807.24C811.95 1807.24 815.312 1807.84 815.497 1810.73C815.618 1812.62 814.274 1815.42 811.437 1815.77L796.373 1817.65L808.673 1826.43C816.889 1832.29 829.147 1839.35 843.342 1847.53C889.781 1874.28 959.961 1914.72 947.891 1950.23L947.099 1952.56L948.221 1954.76C951.464 1961.12 951.741 1967.02 949.065 1972.8C943.335 1985.2 925.41 1994.6 910.187 1998.43L909.926 1998.49L909.671 1998.58C883.183 2007.81 855.379 2012.49 827.033 2012.49Z" fill="white"/>
<mask id="mask0" mask-type="alpha" maskUnits="userSpaceOnUse" x="100" y="438" width="1305" height="1580">
<path fill-rule="evenodd" clip-rule="evenodd" d="M100 438.002H1404.94V2017.99H100V438.002Z" fill="white"/>
</mask>
<g mask="url(#mask0)">
<path fill-rule="evenodd" clip-rule="evenodd" d="M914.984 1393.97C918.094 1377.01 912.195 1359.49 911.174 1342.41C895.734 1220.58 878.685 1098.83 856.094 978.068C850.554 949.167 844.955 920.385 838.535 891.641C839.505 874.236 840.355 856.83 840.915 839.415C872.265 819.704 907.615 806.948 944.174 800.515C954.054 855.559 963.924 910.564 970.775 966.1C992.125 1103.56 979.945 1243.44 1000.65 1380.74C971.924 1383.96 943.415 1388.73 914.984 1393.97ZM970.128 1501.06C948.523 1506.81 926.898 1512.3 905.12 1517.37C866.366 1526.4 827.622 1535.45 788.967 1544.88C769.673 1549.58 750.336 1554.15 731.082 1559.01C721.945 1561.31 712.867 1563.87 703.926 1566.84C699.464 1568.32 695.103 1570.02 690.743 1571.77C686.923 1573.29 683.319 1575.4 679.119 1575.1C678.869 1575.08 678.713 1574.84 678.836 1574.61C681.033 1570.58 685.56 1568.66 689.557 1566.62C693.964 1564.37 698.556 1562.43 703.152 1560.59C713.361 1556.49 723.994 1553.48 734.599 1550.56C773.143 1539.95 812.018 1530.45 850.853 1520.94C889.873 1511.39 928.895 1502.24 968.433 1495.01C972.416 1494.28 974.139 1500 970.128 1501.06ZM778.745 1827.68C780.474 1827.22 782.214 1826.8 783.945 1826.39C811.665 1849.47 942.214 1909.4 932.285 1945.2C928.775 1949.65 920.375 1950.66 915.064 1952.1C905.814 1954.6 896.474 1956.77 887.045 1958.49C856.564 1964.03 824.995 1965 794.554 1958.67C783.355 1956.97 773.245 1952.19 763.045 1947.57C730.085 1933.07 693.785 1917.05 660.984 1902.67C619.314 1886.15 546.224 1853.6 576.285 1798.66C604.765 1830.7 640.915 1827.9 659.125 1788.08C665.405 1776 670.884 1759.71 685.634 1754.82C693.415 1749.56 703.365 1748.47 709.865 1754.33C710.335 1753.6 710.755 1752.57 710.984 1751.67C718.314 1762.1 724.634 1773.08 733.224 1782.62C730.275 1782.78 699.575 1805.5 708.634 1805.51C719.535 1799.9 730.365 1795.22 742.134 1792.19C750.665 1800.77 760.045 1808.75 769.765 1816.13C760.325 1822.36 751.844 1830 745.025 1838.28C744.435 1839.01 745.155 1839.96 746.035 1839.56C756.625 1834.84 767.515 1830.7 778.745 1827.68ZM919.265 1982.47C813.234 2030.1 700.984 1977.06 610.564 1920.52C589.695 1908.87 562.245 1892.35 566.464 1864.92C581.835 1887.41 607.174 1900.21 631.495 1911.31C672.355 1929.78 713.484 1947.66 754.445 1965.9C758.314 1978.74 776.814 1979.23 787.995 1982.08C837.765 1991.73 891.265 1986.93 938.105 1967.69C935.394 1975.71 926.525 1979.4 919.265 1982.47ZM496.224 1797.02C493.605 1797.35 490.984 1797.66 488.365 1797.95C488.634 1794.49 486.545 1791.02 483.185 1789.95C484.695 1782.6 485.254 1775 484.445 1767.55C488.825 1778.86 502.964 1775.43 511.945 1772.17C524.775 1768.68 537.525 1764.93 550.205 1760.93C555.205 1770.22 560.504 1779.37 567.015 1787.78C543.314 1789.89 519.835 1794.07 496.224 1797.02ZM485.795 1761.42C485.165 1762.75 484.265 1764.16 484.245 1765.75C483.605 1760.25 482.355 1754.81 480.455 1749.6C482.234 1753.54 484.015 1757.48 485.795 1761.42ZM470.835 1731.9C459.174 1716.7 437.625 1704.28 417.705 1708.51C416.424 1708.79 416.394 1710.85 417.705 1711.1C444.464 1714.74 467.964 1735.97 468.894 1763.41C471.004 1775.83 462.365 1788.03 465.275 1799.94C464.695 1799.98 464.115 1800.01 463.545 1800.05C463.335 1800.85 463.144 1801.56 462.894 1802.18C465.785 1802.66 466.634 1807.31 463.224 1808.14C461.205 1808.63 459.094 1808.89 456.945 1809C446.035 1806.05 434.525 1805.37 424.094 1801.02C413.775 1796.46 416.355 1783.64 412.714 1774.77C410.045 1764.53 406.974 1754.34 403.105 1744.52C402.825 1743.73 401.755 1743.91 401.665 1744.7C398.935 1764.3 399.025 1784.22 399.685 1803.97C396.105 1804.34 392.545 1804.74 388.974 1805.18C389.205 1799.67 372.655 1732.46 363.935 1749.71C368.325 1768.67 368.855 1788.48 369.325 1807.99C343.435 1812.26 317.924 1818.61 293.105 1827.26C275.615 1832.56 254.814 1848.24 237.835 1834.06C224.685 1823.19 220.255 1804.22 221.495 1788.07C238.594 1692.56 373.655 1681.4 453.384 1688.46C460.915 1705.83 468.585 1723.15 476.355 1740.43C474.745 1737.45 472.905 1734.6 470.835 1731.9ZM198.905 1786.21C197.445 1764.52 201.094 1737.52 217.165 1721.36C253.945 1690.26 305.445 1680.48 351.405 1669.22C372.814 1664.99 394.515 1662.19 416.304 1660.79C424.035 1660.18 433.855 1661.93 439.314 1655.61C442.125 1662.27 444.974 1668.91 447.825 1675.56C356.325 1663.58 165.424 1705.22 218.884 1830.57C207.564 1818.3 200.064 1803.37 198.905 1786.21ZM135.025 1384.71C137.585 1366.09 140.384 1347.5 143.344 1328.93C155.445 1240.12 180.455 1153.68 195.365 1065.47C221.174 1073.86 247.605 1080.26 273.665 1087.81C217.195 1181.72 171.005 1281.45 135.025 1384.71ZM347.068 1297.32C342.103 1273.72 336.535 1249.67 334.004 1225.68C333.89 1224.6 335.549 1224.48 335.845 1225.43C339.992 1238.72 342.818 1252.49 346.316 1265.96C349.827 1279.48 353.091 1293.06 356.548 1306.59C357.652 1310.91 358.759 1315.23 359.867 1319.55C360.531 1319.58 361.193 1319.6 361.852 1319.62C364.384 1319.67 365.143 1322.85 363.106 1324.18C362.511 1324.56 361.915 1324.9 361.317 1325.2C371.903 1366.38 382.75 1407.46 394.588 1448.33C408.382 1495.94 423.912 1542.98 436.324 1590.99C436.611 1592.1 436.097 1592.87 435.345 1593.21C441.801 1615.05 447.211 1637.18 453.113 1659.19C454.342 1663.77 447.574 1666.74 445.26 1662.45C441.697 1655.84 440.91 1646.81 439.166 1639.55C437.201 1631.37 435.334 1623.17 433.47 1614.97C430.505 1601.92 427.845 1588.71 425.652 1575.48C417.48 1554.95 410.162 1534.18 403.686 1513.01C389.183 1465.59 375.805 1417.86 363.897 1369.75C360.381 1355.55 356.935 1341.33 353.647 1327.07C338.677 1327.3 323.035 1310.37 307.992 1319.38C307.296 1319.8 306.591 1318.85 307.139 1318.29C313.136 1312.22 321.425 1311.69 329.478 1313.19C334.711 1314.17 339.728 1316.02 344.851 1317.42C347.108 1318.04 349.425 1318.49 351.767 1318.82C350.152 1311.67 348.578 1304.5 347.068 1297.32ZM669.585 1744.21C661.935 1749.21 655.695 1756.61 651.295 1764.56C623.094 1838.34 592.935 1798.82 555.464 1759.23C587.174 1747.26 629.174 1738.3 653.495 1714.51C657.705 1725.03 662.855 1735.05 669.585 1744.21ZM659.496 1564.25C657.047 1552.11 655.029 1539.89 653.193 1527.65C651.431 1515.91 648.678 1503.33 649.127 1491.45C649.144 1490.98 649.812 1490.89 649.956 1491.34C653.768 1503.19 654.91 1516.29 657.328 1528.49C659.667 1540.29 662.237 1552.04 664.826 1563.78C670.142 1587.89 677.659 1611.63 682.209 1635.89C682.697 1638.49 679.186 1639.4 678.232 1636.97C669.121 1613.78 664.4 1588.57 659.496 1564.25ZM143.734 1017.3C131.415 1004.03 121.734 987.091 123.605 969.114C131.005 959.244 133.455 946.37 137.765 934.963C154.615 887.228 170.255 839.128 188.594 791.906C227.605 803.904 265.984 818.295 302.185 837.198C308.844 840.597 315.435 844.123 321.945 847.778C328.765 851.599 336.205 858.239 344.384 856.337C335.445 868.995 317.035 882.165 313.924 896.793C313.255 901.423 316.535 905.717 321.575 904.683C400.464 960.722 481.935 1015.58 556.504 1078C612.344 1122.21 655.214 1158.06 674.365 1229.79C687.275 1276.26 687.314 1324.82 685.415 1372.6C685.045 1381.88 685.035 1391.39 684.285 1400.74C685.405 1407.73 683.275 1421.97 675.415 1422.22C675.594 1423.92 676.155 1425.48 677.045 1426.86C676.795 1427.2 676.535 1427.51 676.265 1427.84C675.875 1425.93 675.495 1424.02 675.134 1422.11C669.015 1395.01 668.195 1363.55 669.214 1334.69C669.644 1326.42 656.955 1326.61 656.245 1334.69C654.335 1356.51 652.424 1378.33 650.515 1400.14C648.224 1414.27 651.835 1432.76 640.535 1443.51C629.045 1432.89 632.844 1411.95 633.405 1398.25C634.304 1375.9 635.275 1353.55 636.105 1331.2C636.365 1324.12 624.634 1322.3 623.304 1329.5C619.535 1350.03 615.455 1370.5 611.064 1390.91C608.415 1398.8 606.594 1434.2 593.355 1428.05C585.464 1422.67 591.155 1391.07 590.115 1380.61C590.605 1359.91 590.894 1339.23 592.415 1318.58C593.035 1310.24 579.464 1308.47 577.605 1316.61C574.585 1329.78 571.695 1342.95 569.075 1356.2C563.325 1378.56 565.415 1408.85 544.655 1423.71C536.525 1365.65 548.224 1308 549.865 1250.15C548.884 1231.4 545.665 1212.84 542.825 1194.32C539.685 1173.84 537.855 1151.55 545.205 1131.8C543.195 1122.96 535.295 1146.88 534.554 1148.87C528.605 1137.15 514.115 1136.25 502.655 1132.59C477.185 1124.35 451.094 1118.13 425.325 1110.8C356.984 1091.82 288.564 1073.13 220.125 1054.49C192.785 1046.92 164.005 1037.97 143.734 1017.3ZM828.085 1326.12C818.655 1275.01 818.915 1223.21 822.945 1171.54C827.375 1091.4 831.674 1011.23 836.275 931.102C856.245 1076.14 877.535 1221.01 893.814 1366.51C894.974 1376.63 894.795 1387.35 899.905 1396.38C871.665 1400.17 841.564 1403.98 814.105 1394.37C826.155 1373.54 830.405 1349.82 828.085 1326.12ZM215.144 733.464C262.745 635.738 359.804 566.362 468.655 551.232C468.775 551.35 468.905 551.468 469.025 551.596C468.665 551.922 468.335 552.276 468.035 552.641C470.964 550.483 474.984 553.192 473.685 556.176C475.295 559.851 476.484 563.634 477.974 567.337C478.605 567.278 479.245 567.219 479.884 567.121C486.344 579.946 489.844 594.731 496.594 607.517C533.535 671.525 624.695 697.51 693.075 671.672C747.335 648.16 755.035 581.207 750.174 529.738C749.924 526.271 748.165 523.818 745.814 522.37C775.405 527.108 804.995 531.886 834.615 536.387C848.884 538.555 863.545 541.687 874.564 551.488C917.935 596.12 925.674 716.226 940.265 778.667C905.355 782.322 866.335 802.22 841.314 826.343C842.495 798.92 840.804 771.634 837.644 744.408C837.594 743.078 835.375 742.625 835.165 744.083C828.915 771.683 824.105 799.521 822.125 827.8C813.894 941.602 809.005 1055.63 801.955 1169.51C799.545 1211.42 796.535 1253.7 802.505 1295.47C821.724 1381.45 787.835 1423.65 696.875 1409.36C707.924 1300.39 699.915 1175.72 608.665 1100.16C605.884 1097.68 602.545 1097.85 600.015 1099.33C525.825 1036.28 447.525 977.891 364.185 927.042C364.785 916.533 338.495 907.244 331.134 899.994C358.464 871.684 379.275 837.267 397.424 802.653C399.025 798.89 419.894 761.025 413.254 763.409C393.424 792.793 373.705 822.364 350.355 849.255C351.625 836.853 319.495 828.539 309.605 822.875C271.394 806.78 231.445 794.182 190.275 787.66C197.685 769.211 205.785 751.037 215.144 733.464ZM723.625 534.142C722.375 532.004 721.185 529.817 720.045 527.601C723.905 527.749 727.665 527.887 731.464 528.517C731.295 534.634 731.634 540.8 731.705 546.967C729.804 542.455 726.085 538.338 723.625 534.142ZM1368.44 1395.57C1277.25 1329.25 1127.47 1371.5 1021.83 1378.32C1001.69 1246.25 1009.91 1112.03 991.144 979.753C973.855 847.6 955.625 713.606 912.205 586.989C894.285 538.033 863.285 523.493 812.245 523.887C786.344 522.873 758.955 518.726 733.785 519.317C728.265 519.405 722.495 520.134 717.515 522.361C710.515 506.58 706.714 489.638 704.795 472.567C704.674 471.483 703.295 471.286 702.884 472.321C696.964 487.185 696.335 503.408 699.554 518.972C701.884 530.123 715.755 574.006 731.865 556.837C733.144 592.84 725.234 635.837 689.964 654.523C628.335 681.395 543.144 656.927 507.445 599.893C500.545 588.496 494.594 576.369 486.955 565.426C540.185 550.355 570.064 486.574 557.525 438.002C549.775 475.778 535.644 517.987 500.455 539.146C372.314 538.86 265.775 597.223 205.575 709.636C193.795 725.958 182.905 742.92 172.924 760.178C167.554 771.723 151.825 787.779 165.174 798.93C149.755 840.084 136.075 881.811 121.615 923.29C117.644 937.111 108.564 951.61 110.375 966.14C108.415 975.094 108.505 985.683 112.995 994.292C117.255 1009.64 126.814 1030.29 142.665 1036.8C156.115 1049.08 173.125 1057.54 190.865 1063.91C143.554 1187.56 125.545 1320.9 109.515 1451.54C93.8036 1565.82 85.6946 1704.84 184.134 1787.43C186.045 1811.07 200.064 1841.18 227.785 1841.43C246.984 1860.29 270.384 1849.94 291.755 1840.72C327.825 1827.37 365.655 1819.96 403.245 1815.83C407.275 1818.98 413.835 1818.46 417.424 1814.79C440.195 1809.54 471.754 1830.8 476.355 1811.54C505.714 1808.69 534.754 1803.35 564.085 1800.24C551.724 1816.28 552.615 1839.93 561.924 1857.25C538.214 1903.9 593.445 1930.9 627.214 1950.04C672.804 1976.44 720.415 2001.49 772.554 2012.44C818.394 2022.08 866.415 2019.15 910.644 2003.75C933.884 1997.91 966.344 1978.73 952.554 1951.71C970.035 1900.29 847.275 1847.01 811.165 1821.26C825.924 1819.42 826.464 1788.78 788.075 1806.39C783.435 1803.28 778.875 1800.08 774.365 1796.82C929.644 1778.97 1226.19 1729.87 1338.57 1623.72C1400.31 1569.14 1435.93 1458.74 1368.44 1395.57Z" fill="black"/>
</g>
<path fill-rule="evenodd" clip-rule="evenodd" d="M464.973 102.401C470.159 96.8357 476.792 92.6897 484.043 91.3647C477.415 94.6757 470.936 98.1267 464.973 102.401ZM454.815 150.385C453.898 146.144 453.282 141.862 453.088 137.581C454.247 139.343 456.098 140.52 458.177 141.128C456.834 144.135 455.692 147.233 454.815 150.385ZM801.835 216.878C795.849 191.961 767.921 144.034 761.32 134.809C754.152 111.968 793.246 93.6507 771.985 75.7897C762.359 67.7307 749.637 64.8787 737.703 62.0207C655.073 42.1767 566.295 52.1847 489.659 88.6757C478.002 86.2227 465.857 91.0167 457.38 99.4367C417.555 139.465 471.829 211.687 483.697 256.813C504.059 307.13 462.115 315.594 466.613 358.167C470.108 380.161 492.385 385.974 511.184 389.298C514.197 390.003 518.225 390.109 519.197 393.294C522.243 411.885 532.685 429.602 546.704 441.626C545.478 445.258 546.414 449.667 550.737 452.857C589.905 481.964 639.292 496.53 688.144 493.912C746.362 490.791 776.469 457.423 783.734 448.831C823.903 394.584 819.103 323.01 810.909 258.361C805.201 213.325 812.439 261.018 801.835 216.878Z" fill="white"/>
<path fill-rule="evenodd" clip-rule="evenodd" d="M622.322 9.54133C624.152 3.82133 629.332 0.381332 635.262 1.09133C640.512 1.71133 646.132 6.92133 645.492 12.6713C645.372 13.7813 645.212 14.8213 645.022 15.8013L645.047 15.8101L645.072 15.8113L644.942 16.1913C644.552 18.0213 644.012 19.6613 643.212 21.2113C642.192 24.1813 641.212 27.1613 640.242 30.1513C641.642 30.0913 643.072 30.1713 644.522 30.4413C646.022 26.6013 647.532 22.7713 649.032 18.9213C650.642 14.8113 651.772 9.53133 654.952 6.35133C659.022 2.29133 666.082 1.45133 671.042 4.35133C676.282 7.41133 678.152 12.8513 677.012 18.6813C676.432 21.6551 674.445 23.7247 671.987 25.025L671.722 25.1613L669.832 29.6413C670.412 29.3913 671.012 29.1613 671.662 28.9713C672.682 28.6713 673.682 28.4813 674.662 28.4013C677.362 23.5113 680.332 18.7613 683.402 14.1013C686.932 8.74133 693.832 6.46133 699.622 9.85133C704.802 12.8813 707.582 20.8413 703.872 26.0713C701.052 30.0413 698.382 34.0913 695.752 38.1813C696.202 38.2613 696.652 38.3613 697.082 38.4913C697.282 38.2213 697.492 37.9513 697.712 37.6813C700.582 34.1213 703.922 31.4513 707.352 28.4913C710.562 25.7113 712.042 21.3413 716.262 19.2313C721.572 16.5813 727.972 17.8513 731.132 23.1313C737.912 34.4413 726.532 42.7013 719.252 49.5513C725.582 45.6013 732.172 41.9913 738.932 38.8713C742.732 37.1213 746.592 35.4313 750.512 33.9713C756.322 31.8113 761.022 32.5023 765.792 36.5213C767.922 38.3213 768.982 42.2523 768.002 44.8713C766.102 49.8913 763.102 52.9413 757.842 54.3913C754.142 55.4113 750.352 56.1013 746.652 57.1713C740.452 58.9513 734.432 61.1213 728.592 63.8313C729.012 64.0913 729.412 64.3713 729.782 64.6913C734.142 63.2813 738.582 62.0613 743.042 61.0213C750.439 59.287 757.967 58.1151 765.529 57.3821L768.041 57.1483C777.107 56.2783 788.008 54.6728 793.572 63.3513C795.402 66.2113 795.602 70.9313 793.572 73.7613C789.692 79.2013 785.832 80.2813 779.412 80.3813C785.732 81.0513 792.042 81.8813 798.322 82.8513C802.65 83.5113 806.979 84.2595 811.289 85.0895L813.442 85.5113C818.692 86.5613 824.552 87.1713 829.062 90.2113C838.902 96.8513 834.282 109.781 823.382 111.161C818.112 111.821 812.262 109.591 807.092 108.551C802.072 107.541 797.032 106.651 791.972 105.871C789.352 105.461 786.732 105.101 784.102 104.771C789.452 105.541 794.762 106.631 799.932 108.171L801.368 108.605C811.363 111.651 824.854 116.502 827.972 127.181C829.862 133.671 824.692 139.331 818.432 139.711C812.612 140.061 807.762 136.591 802.822 134.031C799.222 132.171 795.562 130.781 791.682 129.591C787.672 128.361 783.582 127.341 779.462 126.511C782.944 128.43 786.334 130.538 789.589 132.896L791.086 134.002C799.737 140.448 812.93 150.428 809.882 162.511C808.922 166.321 804.672 169.961 800.592 169.571C789.972 168.581 784.112 157.271 776.102 151.211C774.012 149.631 771.722 148.071 769.322 146.551C781.462 161.031 791.122 177.771 798.472 195.061C814.625 233.099 819.581 268.325 819.7 309.225L819.702 310.491C819.722 333.051 819.212 356.021 817.012 378.481C814.972 399.231 811.232 419.711 801.822 438.502C786.052 470.011 755.322 494.551 721.432 503.891C683.722 514.291 641.572 506.161 610.682 482.161C602.802 476.041 613.252 462.752 621.302 468.401C653.452 490.951 695.032 498.091 731.932 482.831C761.202 470.731 784.772 444.701 794.762 414.731C801.12 395.665 802.972 375.335 805.24 355.465L805.392 354.141C807.792 333.361 809.182 312.441 809.162 291.521C809.132 252.671 803.552 220.691 786.462 185.451C778.422 168.851 767.992 153.502 755.532 140.031C751.752 140.801 747.732 139.721 743.912 139.311C741.962 139.101 740.012 138.901 738.062 138.721C740.054 140.009 742.007 141.349 743.928 142.719L746.446 144.535C754.328 150.18 764.328 156.609 762.302 167.521C761.752 170.471 758.812 173.181 755.962 173.851C745.632 176.311 738.532 166.271 731.552 160.311C725.482 155.131 719.132 150.491 712.662 145.841C711.192 144.791 709.712 143.741 708.222 142.701C709.622 144.333 710.983 145.991 712.312 147.664L714.276 150.153C720.218 157.588 728.784 167.253 723.492 176.891C721.992 179.611 718.792 181.421 715.692 181.361C705.032 181.141 700.792 169.041 695.792 161.401C691.492 154.851 686.822 148.681 681.992 142.511C680.662 140.821 679.322 139.131 677.962 137.441C655.572 138.601 633.262 141.561 611.342 146.291C596.282 149.541 581.472 153.752 566.772 158.361L565.55 158.75C557.595 161.311 549.398 164.59 543.662 170.211C542.843 174.085 543.471 178.169 544.255 182.037L544.865 184.998C547.38 197.379 549.094 209.53 547.812 222.241C546.482 235.351 542.532 247.141 537.712 259.321C535.432 265.061 533.072 264.021 532.262 270.181C531.641 274.873 532.025 279.717 532.449 284.448L532.803 288.459C533.692 298.966 534.139 310.422 527.252 319.091C526.182 320.421 523.892 319.891 523.132 318.561C522.832 318.031 522.512 317.521 522.162 317.031C518.842 312.221 513.752 309.481 507.932 308.421C507.192 308.291 507.482 307.301 508.102 307.221C513.022 306.641 517.682 307.871 521.642 310.411C519.764 303.918 505.226 307.076 500.446 308.338L500.282 308.381C494.322 309.981 488.682 312.581 483.712 316.261C473.712 323.661 467.932 335.201 468.222 347.631C468.512 359.851 474.822 371.141 485.662 376.991C490.892 379.811 496.842 381.171 502.762 381.111C508.942 381.051 514.442 378.341 520.632 378.721C524.212 378.941 526.952 382.781 524.882 386.131C523.502 388.371 521.702 390.131 519.622 391.481C524.692 403.171 531.162 414.321 538.622 424.611C542.752 430.321 547.432 435.591 552.582 440.401C556.602 444.161 565.312 448.511 564.822 454.781C564.652 457.041 563.482 458.421 561.422 459.261C555.017 461.88 547.23 452.864 542.946 448.518L542.602 448.171C537.262 442.851 532.392 436.971 528.152 430.731C520.632 419.651 515.962 407.161 514.032 394.041C503.762 397.131 490.162 394.231 481.782 390.441C455.442 378.541 446.832 343.071 462.842 319.451C465.942 314.881 469.822 310.971 474.242 307.811C473.272 307.281 472.362 306.601 471.552 305.741C467.071 300.982 463.903 294.771 460.759 289.046L460.382 288.361C457.591 283.321 454.958 278.202 452.49 273.004L451.572 271.051C446.062 259.201 441.232 254.021 437.302 241.561C433.522 229.541 430.542 217.291 428.612 204.831L428.099 201.533C426.983 194.303 425.927 186.572 426.742 179.231C421.132 181.061 415.492 182.191 409.942 179.441C406.282 177.631 404.262 172.351 405.512 168.561C406.422 165.771 407.942 163.581 409.872 161.861C408.722 161.281 407.642 160.541 406.692 159.721L405.862 159.002C402.502 156.081 402.262 150.531 404.302 146.871C404.502 146.521 404.702 146.161 404.892 145.811C406.832 142.341 410.842 140.071 414.802 140.131C415.442 140.141 416.082 140.141 416.732 140.131C414.882 139.721 413.072 139.091 411.352 138.031C403.592 133.261 404.572 120.331 413.962 118.051C417.902 117.101 422.252 117.491 426.592 118.511C426.432 118.421 426.272 118.331 426.112 118.231C422.832 116.221 420.082 112.291 420.392 108.261C420.732 103.801 422.172 100.621 426.112 98.2813C429.532 96.2613 434.372 96.0713 437.772 98.2813C440.722 100.211 443.612 102.341 446.392 104.631C443.602 101.201 441.182 97.4713 440.202 93.5113C438.992 88.5813 441.012 83.2113 445.452 80.6113C448.992 78.5413 452.732 78.7713 456.072 80.3713C455.892 77.7813 456.522 75.1413 458.242 72.8013C461.762 68.0023 468.162 65.2413 473.732 68.7413C474.462 69.2013 475.442 69.9913 476.392 70.9613C474.542 65.0713 476.212 58.8913 482.522 56.2313C486.372 54.6013 491.582 55.4213 494.922 58.2313C492.802 46.7613 509.732 38.3313 516.312 50.1813C517.805 52.8658 519.283 55.6924 520.604 58.5841L521.092 59.6713L521.142 59.6513L520.805 58.8563L520.462 58.0613C518.632 53.8113 516.302 49.3913 515.662 44.7813C514.722 37.9613 517.762 31.4913 525.182 30.4913C529.012 29.9713 533.272 31.7113 535.842 34.7523C534.452 24.1713 546.272 16.4813 554.782 24.3813C558.812 28.1213 560.962 33.5913 563.522 38.3913C564.972 41.1013 566.452 43.8013 567.902 46.5213C568.272 46.0813 568.672 45.6413 569.092 45.2113C566.942 38.7713 565.272 32.1713 563.862 25.5313C562.522 19.2713 565.652 12.7713 572.112 11.0023C577.982 9.38133 585.332 13.0023 586.642 19.2523C587.562 23.6513 588.652 28.0023 589.852 32.3313C590.672 32.1313 591.482 31.9913 592.282 31.8913C592.348 31.078 592.424 30.2602 592.508 29.4469L592.823 26.5542C593.522 19.9447 594.228 12.3998 597.682 6.78133C603.572 -2.81867 618.672 1.16133 618.832 12.5113C618.922 18.3813 616.532 24.2013 615.702 30.0113C615.342 32.5413 615.132 35.1013 615.012 37.6613C616.622 29.1613 618.832 20.7713 621.392 12.5113C621.692 11.5213 622.012 10.5313 622.322 9.54133ZM492.042 337.322C505.292 335.272 517.402 342.662 525.252 353.012C526.682 354.902 525.742 357.572 524.452 359.162C523.522 360.332 522.272 360.472 520.862 360.652C519.242 360.862 517.192 359.552 516.482 358.142C511.432 348.062 502.422 341.692 492.042 337.772C491.852 337.702 491.792 337.362 492.042 337.322ZM510.409 156.717L510.811 156.286C513.492 153.505 509.255 149.257 506.568 152.044C503.739 154.978 501.859 158.542 500.051 162.154C498.328 165.598 503.502 168.64 505.232 165.183L506.02 163.612C507.256 161.169 508.574 158.755 510.409 156.717ZM473.199 151.009C476.999 150.369 475.388 144.586 471.604 145.224C466.702 146.05 461.819 146.989 456.916 147.816C453.117 148.456 454.728 154.239 458.512 153.602C463.414 152.775 468.297 151.836 473.199 151.009ZM699.567 111.528C695.896 110.303 694.321 116.096 697.972 117.314C703.017 118.997 708.021 120.722 712.807 123.059C716.264 124.747 719.309 119.574 715.835 117.878C710.582 115.313 705.105 113.376 699.567 111.528ZM472.335 103.752C468.75 102.318 467.193 108.119 470.74 109.538L483.7 114.721C487.285 116.155 488.842 110.355 485.295 108.936L472.335 103.752ZM744.821 89.6648L744.348 89.3663C741.098 87.2603 738.087 92.4523 741.319 94.5473C743.216 95.7765 745.523 96.6102 747.26 98.0745L747.624 98.3983C750.43 101.048 754.681 96.8143 751.867 94.1553C749.808 92.2119 747.202 91.1298 744.821 89.6648Z" fill="black"/>
<path fill-rule="evenodd" clip-rule="evenodd" d="M645.608 335.932C663.165 333.802 680.184 339.175 697.348 341.884C706.41 343.313 715.483 344.38 724.654 344.777C726.499 344.858 728.344 344.905 730.19 344.942C730.362 343.318 731.272 341.827 733.242 340.933C737.281 339.103 740.514 338.277 744.948 338.454C749.008 338.614 753.081 339.031 757.079 339.763C764.337 341.093 771.628 344.112 776.937 349.357C789.225 361.493 787.355 380.987 777.86 394.206C758.244 421.521 722.442 422.788 691.779 422.432L688.95 422.395C661.03 421.996 621.086 426.158 608.401 394.403C603.737 382.726 604.385 369.191 610.096 357.991C616.907 344.632 631.246 337.674 645.608 335.932ZM732.819 381.412L732.568 381.422C719.696 381.918 706.826 382.266 693.946 382.494C694.332 385.8 694.725 389.108 695.175 392.407C695.527 395.004 695.906 397.597 696.299 400.187C696.466 401.284 697.077 402.987 696.904 404.073L696.842 404.503C697.503 404.802 698.103 405.283 698.55 405.982C698.705 406.224 698.817 406.468 698.93 406.711C708.929 406.789 719.69 406.595 729.884 404.778L729.904 404.557C730.089 403.255 730.631 402.379 731.35 401.778C732.067 397.627 732.001 393.203 732.278 389.084C732.451 386.526 732.638 383.969 732.819 381.412ZM684.109 382.669C674.831 382.827 665.549 382.949 656.273 382.836L652.062 382.77C652.951 387.54 653.919 392.293 654.723 397.094C655.562 402.098 651.156 405.279 647.343 405.151C647.771 405.221 648.199 405.294 648.627 405.354C660.541 407.038 672.911 406.591 685.002 406.578C684.351 402.783 684.615 398.5 684.517 395.332L684.499 394.842C684.314 390.782 684.184 386.726 684.109 382.669ZM621.088 381.794C621.41 384.274 622.036 386.701 622.973 388.961C626.934 398.508 636.013 402.963 645.62 404.84C643.953 404.264 642.63 402.882 642.296 400.514C641.463 394.626 641.163 388.641 641.141 382.662C634.445 382.6 627.705 382.457 621.088 381.794ZM767.734 379.756C762.967 380.88 757.428 380.365 752.751 380.577C748.37 380.776 743.986 380.949 739.605 381.127C739.812 384.117 740.013 387.106 740.232 390.094C740.514 393.957 740.54 398.039 741.28 401.885C750.098 398.876 757.999 394.052 763.927 386.337C765.404 384.415 766.726 382.159 767.734 379.756ZM643.593 351.596C635.658 353.474 628.149 357.442 624.113 364.701C621.717 369.008 620.663 374.113 620.866 379.144C627.572 378.363 634.394 378.067 641.184 377.822C641.206 376.6 641.235 375.379 641.272 374.161L641.376 371.039C641.561 365.083 641.654 357.605 643.593 351.596ZM684.664 352.322L681.171 351.93C671.469 350.825 661.772 349.665 652.069 350.33C650.665 350.427 649.239 350.58 647.81 350.789C649.525 356.976 649.381 364.242 650.098 370.366C650.375 372.734 650.724 375.082 651.111 377.422L652.795 377.343C663.206 376.779 673.628 376.432 684.047 376.019C684.046 374.063 684.057 372.106 684.088 370.149L684.127 368.191C684.245 363.191 683.922 357.558 684.664 352.322ZM733.386 351.529C723.224 353.168 712.722 353.517 702.74 353.529C698.753 353.535 694.768 353.29 690.785 352.937C691.045 355.057 691.18 357.201 691.375 359.291C691.768 363.516 692.218 367.734 692.706 371.948L693.142 375.635C705.949 375.055 718.755 374.427 731.559 373.777L733.366 373.68L733.872 366.594C734.217 361.869 734.596 357.145 735.132 352.441L734.73 352.296C734.258 352.102 733.81 351.835 733.386 351.529ZM737.799 353.288C738.359 359.969 738.669 366.678 739.081 373.37L747.522 372.92C748.928 372.843 750.335 372.765 751.742 372.684C757.211 372.368 764.24 370.713 769.647 372.257C770.06 367.343 768.655 362.555 764.218 359.254C756.43 353.455 746.512 355.52 737.799 353.288ZM708.96 293.56C721.53 286.365 753.066 279.01 755.064 301.623C755.982 312.028 748.243 320.65 739.207 324.498L738.868 324.64C730.392 328.123 715.37 332.057 708.035 324.503C701.931 318.217 710.028 306.945 717.613 312.095C721.511 314.741 729.716 312.791 734.066 311.532L734.338 311.453C739.032 310.074 745.29 305.66 743.35 299.882C741.632 294.771 734.323 293.837 729.746 293.671C722.913 293.426 716.264 295.012 709.494 295.528C708.422 295.61 708.091 294.058 708.96 293.56ZM761.027 257.199C778.086 256.401 788.698 275.021 784.775 290.278C784.097 292.911 781.151 295.495 778.308 295.199L777.592 295.133C777.228 295.098 776.862 295.052 776.526 294.959C773.826 294.212 771.406 291.404 771.603 288.495L771.655 287.647C772.053 280.439 771.272 272.136 762.703 270.39C755.436 268.91 751.379 275.902 751.293 282.338C751.277 283.481 749.993 284.278 748.982 283.664C743.728 280.468 742.819 274.111 744.825 268.636C747.369 261.699 753.733 257.54 761.027 257.199ZM634.43 261.193C646.844 257.052 660.238 263.668 666.249 274.64C668.358 275.25 670.464 276.875 670.171 279.363C669.748 282.942 669.111 285.199 666.628 287.913C662.745 292.16 655.472 289.989 653.858 284.761L653.789 284.525C651.956 277.769 644.516 273.311 637.739 275.676C629.822 278.438 630.051 286.797 624.498 291.667C623.845 292.239 623.063 292.33 622.28 291.953C616.382 289.103 617.442 280.527 619.545 275.619C622.303 269.177 627.664 263.449 634.43 261.193ZM617.522 223.506C627.582 213.245 653.815 203.315 660.696 222.264C662.007 225.873 659.216 230.74 655.457 231.489C649.302 232.713 643.841 230.042 637.726 230.521C632.776 230.911 627.613 232.565 623.655 235.63C612.694 244.12 610.283 258.48 602.646 269.286C602.274 269.813 601.552 269.592 601.483 268.971C599.744 253.239 606.504 234.744 617.522 223.506ZM748.72 213.405C755.396 211.048 762.956 211.249 769.667 213.34C776.426 215.447 782.632 219.449 787.413 224.677C789.583 227.05 791.59 229.669 793.2 232.457C794.055 233.935 794.955 236.987 795.927 238.804C801.185 241.84 803.433 248.756 798.725 253.677L798.513 253.892L797.883 254.517C795.352 257.021 791.536 258.107 788.081 257.106C780.35 254.87 779.411 248.783 776.735 242.322C774.967 238.055 771.938 234.279 768.266 231.505C759.588 224.952 745.359 222.864 734.911 225.952C734.354 226.117 733.701 225.409 734.097 224.895C736.077 222.331 737.218 220.227 739.869 218.159C742.56 216.06 745.496 214.543 748.72 213.405Z" fill="black"/>
<path fill-rule="evenodd" clip-rule="evenodd" d="M719.086 323.552C706.689 320.253 684.427 323.132 676.345 324.276C657.556 326.938 638.654 332.691 632.812 341.703C626.23 351.86 639.364 355.057 641.296 354.535C654.303 355.076 669.792 350.246 683.423 348.999C694.488 347.978 706.16 347.087 716.528 343.614C724.097 346.074 741.193 347.403 754.99 349.554C766.741 351.385 771.832 355.355 782.726 354.511C795.782 353.499 790.438 337.277 775.887 330.706C759.961 323.514 733.026 320.597 719.086 323.552ZM745.357 457.191C734.523 459.268 733.795 440.599 732.581 434.004C731.633 428.851 726.285 415.563 712.727 416.136C699.169 416.709 694.073 427.843 694.76 434.767C695.206 439.257 700.47 462.003 683.67 464.88C672.959 464.851 660.567 464.282 649.305 462.65C636.05 460.29 618.813 452.026 614.26 468.3C612.622 474.157 671.012 491.558 696.923 493.132C723.2 497.318 753.945 490.881 772.654 475.077C776.91 471.481 788.897 456.558 789.752 452.902C791.546 445.22 787.391 440.276 775.301 442.984C766.76 446.57 752.324 455.856 745.357 457.191Z" fill="black"/>
<path fill-rule="evenodd" clip-rule="evenodd" d="M801.134 292.318C794.401 301.363 781.919 304.244 770.406 303.249C745.575 300.859 737.76 272.658 736.946 250.739C753.597 255.423 735.538 222.249 792.457 218.601C812.522 216.929 806.99 229.047 815.855 237.901C815.673 256.483 812.58 276.674 801.134 292.318ZM682.863 270.966C668.203 339.619 587.925 323.289 579.492 261.403C587.279 255.907 585.228 242.336 594.902 237.419C610.234 227.623 629.4 228.042 646.811 228.272C669.066 229.801 675.408 239.02 686.84 249.078C686.29 255.796 684.704 263.758 682.863 270.966ZM832.935 207.231C832.112 207.094 831.288 206.965 830.464 206.844C829.821 206.479 829.066 206.198 828.188 206.029C826.183 205.52 824.192 205.177 822.204 204.992C793.672 198.571 727.665 207.688 724.941 232.036C715.855 235.069 707.993 232.353 697.462 232.623C689.446 199.118 550.863 203.847 544.198 224.047C544.173 224.04 544.148 224.034 544.122 224.026C537.718 222.044 528.277 222.522 520.947 222.208C505.296 221.88 489.627 223.275 474.314 226.576C445.639 231.133 406.504 236.468 426.447 272.276C426.451 272.282 426.454 272.289 426.459 272.295L426.462 272.292C429.899 275.815 435.732 272.978 435.949 268.209C429.244 251.245 444.388 249.208 456.04 244.333C485.033 233.917 514.551 232.473 544.537 235.695C546.793 238.351 550.216 240.667 553.834 241.879C573.883 245.207 563.317 260.079 575.99 262.242C573.662 314.084 636.603 342.382 673.072 308.303C687.633 294.067 691.104 272.978 694.48 253.969C696.265 253.568 697.4 252.592 698.063 251.3C702.356 247.014 705.053 243.056 713.542 241.879C722.031 240.703 728.566 243.064 729.45 243.787C729.673 244.236 729.912 244.686 730.19 245.136C730.578 245.807 731.106 246.342 731.706 246.763C723.323 298.387 763.4 331.035 803.859 304.26C821.439 287.723 825.154 262.405 825.888 239.807C828.271 238.369 829.78 235.582 828.955 232.078C827.818 227.248 830.484 223.066 834.73 220.966C840.247 218.239 839.271 208.28 832.935 207.231Z" fill="black"/>
</svg>
