<svg width="3399" height="2660" viewBox="0 0 3399 2660" fill="none" xmlns="http://www.w3.org/2000/svg">
<rect width="3398.22" height="2436" rx="21.3333" fill="#FFBD12"/>
<path fill-rule="evenodd" clip-rule="evenodd" d="M2957.32 2176.27C2918.2 2678.36 2235.32 2750.45 2099 2266.67L2098.92 2266.7C2098.44 2264.82 2097.41 2261.06 2096.86 2259.2L2096.95 2259.18C2084.85 2211.79 2080.34 2160.5 2083.78 2110.83L2083.79 2110.83C2090.32 2008.36 2133.93 1905.92 2203.92 1831.06L2203.92 1831.07C2223.43 1809.92 2244.86 1790.87 2267.75 1774C2310.99 1904.61 2373.69 2021.4 2453.16 2118.53L2450.08 2122.33C2453.91 2124.46 2457.72 2126.58 2461.52 2128.71C2462.84 2130.31 2464.27 2132.09 2465.57 2133.74C2460.26 2147.31 2471.53 2160.47 2484.84 2163.06C2480.79 2172.61 2490.72 2176.38 2496.68 2178.1C2516.33 2182.6 2539.41 2183.58 2554.28 2172.56C2573.49 2154.96 2566.75 2120.23 2545.99 2107.04C2546.07 2106.82 2546.15 2106.59 2546.22 2106.37C2543.44 2106.07 2540.92 2105.04 2538.86 2103.35C2528.47 2099.33 2516.36 2099.37 2506.18 2103.87C2437.13 1991.51 2367.88 1869.39 2329.55 1736.27C2345.74 1728.17 2362.57 1721 2379.66 1714.99L2379.65 1714.97C2380.11 1714.82 2381.49 1714.35 2381.92 1714.19L2381.93 1714.2C2397.79 1708.73 2414.11 1704.16 2430.54 1700.61L2430.54 1700.6C2431.99 1700.3 2435.01 1699.67 2436.47 1699.36L2436.47 1699.37C2465.76 1693.47 2496.26 1690.68 2526.65 1691.11L2526.65 1691.11C2527.79 1691.13 2532.11 1691.22 2533.52 1691.24L2533.51 1691.27C2543.84 1691.56 2554.46 1692.32 2564.83 1693.32C2564.72 1693.7 2564.56 1694.2 2564.36 1694.78C2565.21 1694.82 2566.03 1694.95 2566.84 1695.15C2566.96 1694.63 2567.09 1694.11 2567.2 1693.59C2575.38 1694.52 2583.65 1695.64 2591.78 1697.02L2591.78 1697.01L2597.6 1698.02L2597.6 1698.04C2701.92 1716.48 2800.22 1778.46 2864.26 1863.38L2864.25 1863.38C2891.28 1898.64 2913 1937.93 2928.87 1980.24L2928.87 1980.24L2931.42 1987.16L2931.4 1987.17C2952.73 2046.67 2961.65 2111.99 2957.22 2176.28L2957.32 2176.27ZM2211.37 1517.16C2054.52 1666.69 1880.53 1805.81 1747.74 1978.62L1722.9 1963.6L1725.41 1963.12C1717.11 1962.3 1709.44 1954.53 1703.29 1949.47C1716.53 1950.4 1720.75 1952.86 1728.63 1937.73C1756.27 1888 1780.1 1837.27 1809.9 1788.18C1834.28 1744.91 1858.68 1702.05 1883.05 1658.33C1895.92 1639.5 1917.44 1589.36 1881.98 1564.15C1974.88 1521.72 2081.91 1470.74 2181.13 1408.9C2189.15 1445.25 2201.68 1480.41 2213.19 1515.46L2211.37 1517.16ZM1678.36 1254.16C1665.06 1241.92 1650.43 1230.11 1643.75 1212.37C1664.29 1215.75 1684.61 1217.7 1707.29 1218.08C1708.59 1218.08 1709.78 1216.86 1709.8 1215.5C1710.26 1189.33 1710.22 1160.52 1707.85 1132.55C1719 1138.08 1727.96 1131.76 1738.06 1126.34C1748.63 1134.25 1759.55 1131.91 1772.48 1126.35C1772.6 1126.31 1824.7 1106.99 1824.82 1106.97C1836.44 1103.33 1841.42 1099.86 1844.35 1092.47C1845.85 1092.87 1848.88 1093.66 1850.38 1094.05C1862.86 1112.58 2043.91 1170.1 2060.01 1148.76C2076.84 1155.92 2096.98 1150.13 2114.8 1148.85C2128.73 1150.02 2142.89 1153.16 2156.8 1151.39C2159.55 1165.83 2162.33 1180.27 2165.12 1194.7C2127.73 1249.23 2122.17 1273.94 2132.82 1339.46C2135.13 1353.02 2139.59 1357.58 2156.26 1359.55C2057.2 1413.84 1957.58 1465.88 1859.75 1523.94C1873.59 1491.12 1887.35 1457.67 1900.37 1424.87C1905 1414.8 1911.18 1400 1911.68 1386.21C1915.5 1335.03 1755.93 1288.09 1693.42 1271.15C1691.65 1263.86 1683.63 1259.57 1678.36 1254.16V1254.16ZM2187.25 1347.98C2187.97 1346.74 2190.79 1340.8 2191.48 1339.42C2193.08 1342.45 2196.21 1348.05 2198.21 1350.78C2194.31 1352.18 2184.75 1357.41 2180.97 1359.41L2187.25 1347.98ZM1631.55 1608.59C1629.86 1615.41 1628.34 1621.89 1626.86 1628.12C1589.9 1647.4 1553.15 1665.03 1516.06 1683.93L1517.24 1686.1C1496.25 1698.39 1473.42 1705.83 1452.81 1718.59C1436.7 1649.02 1424.41 1578.54 1415.28 1507.5C1423.79 1507.19 1432.25 1506.39 1440.85 1504.63C1449.43 1504.85 1457.47 1503.9 1464.3 1501.64C1511.99 1536.87 1562.45 1569.49 1614.31 1598.65C1620.08 1602.49 1626.08 1603.74 1632.6 1604.33L1631.55 1608.59ZM1625.56 2136.13C1619.77 2135.56 1614.53 2141.63 1608.96 2143.62C1591.67 2152.57 1574.78 2161.69 1558.16 2170.97C1552.4 2137.46 1538 2106.45 1537.01 2071.81L1536.46 2072.86C1534.37 2068.79 1530.11 2061.54 1527.67 2057.63C1531.76 2058.59 1539.5 2060.37 1543.54 2061.29L1543.09 2061.91C1548.32 2061.01 1555.46 2064.33 1560.41 2064.98C1578.36 2068.37 1596.69 2071.86 1614.9 2074.51C1610.22 2081.82 1610.47 2082.21 1619.14 2082.23C1614.18 2092.18 1613.03 2104.23 1613.5 2114.72C1613.64 2116.62 1614.41 2116.24 1615.38 2116.99C1617.3 2122.46 1621.07 2126.23 1627.46 2128.62L1625.56 2136.13ZM1467.42 1755.28L1465.8 1750.2L1467.82 1749.52C1467.49 1748.72 1466.23 1748.27 1465.25 1748.47L1465.06 1747.89C1514.81 1726.63 1563.5 1702.72 1612.56 1680.08C1583.75 1763.34 1526.49 1835.33 1512.11 1923.64L1504.53 1924.14C1487.64 1867.04 1473.83 1808.56 1460.47 1752L1462.84 1751.2C1462.52 1753.69 1464.99 1755.86 1467.42 1755.28V1755.28ZM1503.23 2167.65C1497.83 2169.49 1491.3 2170.15 1485.28 2169.53C1459.13 2164.48 1432.48 2160.36 1406.48 2156.29C1421.27 2014.29 1373.97 1869.62 1277.55 1765.44C1313.41 1732.79 1351.45 1698.4 1392.09 1661.87C1430.06 1846.37 1473.23 2028.5 1506.61 2166.52L1503.23 2167.65ZM1342.3 2111.71C1342.07 2123.03 1341.36 2134.47 1340.33 2145.74C1232.59 2128.9 1116.82 2111.38 1000.48 2097.43L1005.67 2091.84C1012.19 2083.81 1001.22 2070.63 994.728 2066.95C982.547 2059.69 968.897 2062.43 955.419 2068.85L950.953 2062.6C975.838 2040.04 1000.77 2017.68 1025.54 1995C1054.33 2007.29 1083.47 2017.9 1112.51 2029.16L1111.37 2036.15C1117.86 2036.18 1124.4 2035.33 1130.61 2035.96C1202.36 2062.75 1278.07 2088.53 1342.37 2108.79L1342.3 2111.71ZM1335.23 2182.74C1330.84 2207.28 1324.33 2231.49 1316.03 2254.87L1315.97 2254.84C1225.36 2541.98 832.367 2639.62 628.41 2411.31C399.325 2186.73 511.103 1740.84 832.048 1673.31C850.419 1706.4 865.852 1739.76 882.332 1773.26C890.257 1792.62 904.562 1809.83 907.805 1831.04C909.945 1838.84 911.947 1846.63 913.874 1854.42C914.188 1854.57 914.503 1854.71 914.822 1854.85C914.798 1854.75 914.774 1854.65 914.751 1854.54L921.845 1851.6C936.03 1876.02 954.166 1918.82 970.316 1944.86C991.235 1976.39 990.223 1974.1 1005.8 1975.9C987.287 1994.3 968.489 2012.99 949.977 2031.36C933.557 2047.34 918.046 2067.64 893.338 2072.19C885.303 2072.94 878.485 2075.51 873.71 2080.94C872.595 2084.31 870.926 2087.47 869.031 2090.5C860.555 2122.42 904.21 2147.24 926.99 2120.2C1064.13 2141.25 1198.73 2157.14 1335.93 2178.83L1335.23 2182.74ZM1041.43 1615.77C1096.35 1615 1162.78 1621.69 1235.45 1617.63C1239.78 1616.47 1244.75 1615.61 1248.07 1613.2C1267.44 1623.06 1287.12 1633.23 1307.03 1642.44C1305.5 1651.08 1314.85 1656.23 1317.82 1663.79C1293.52 1686.69 1268.51 1709.08 1245.45 1733.58C1187.24 1680.7 1116.25 1642.51 1040.41 1623.44L1041.43 1615.77ZM3014.39 2072.85C2986.67 1845.72 2786.65 1643.8 2556.68 1631.95L2555.52 1624.43C2566.49 1620.16 2576.12 1611.36 2584.14 1598.27C2511.44 1590.98 2436.4 1599.56 2369.53 1624.21C2357.12 1629.03 2343.64 1633.82 2329.88 1632.01C2327.88 1628.06 2325.46 1623.93 2322.8 1619.77C2322.69 1619.75 2322.57 1619.73 2322.46 1619.69C2318.4 1618.25 2314.5 1616.27 2312.52 1612.23C2310.69 1608.5 2310.75 1604.01 2309.99 1599.99C2309.86 1599.26 2310.03 1598.64 2310.38 1598.16C2304 1587.18 2298.08 1576.08 2284.41 1574.85L2288.91 1570.04C2290.79 1567.85 2289.67 1563.97 2286.43 1563.3C2268.16 1497.18 2245.82 1433.83 2228.45 1367.29L2222.89 1368.89C2222.17 1367.08 2217.77 1356.1 2216.96 1354.06L2226.81 1360.91L2225.63 1356.35C2311.99 1389.93 2395.85 1404.73 2476.39 1390.66L2476.43 1390.43C2485.95 1387.54 2494.88 1383.43 2502.28 1378.19C2506.95 1378.53 2508.19 1375.75 2510.47 1368.11C2515.21 1352.43 2520.54 1336.64 2525.6 1321.35C2554.63 1226.41 2594.6 1135.23 2620.9 1040.79C2621.59 1040.23 2624 1037.93 2623.52 1037.8C2519.89 977.275 2270.46 995.654 2135.22 1015.95C2137.56 1052.49 2144.55 1088.26 2151.3 1123.02C2102.19 1088.13 2055.27 1047.07 1996.3 1029.56L2010.18 1026.73C2012.45 1026.35 2013.9 1021.95 2011.51 1021.03L2008.78 1020.05C2013.86 980.601 1969.48 975.964 1944.63 995.38C1939.19 999.88 1933.13 1015.38 1943.2 1018.78L1942.75 1026.34C1934.47 1027.59 1923.86 1032.26 1915.01 1036.8C1917 1024.74 1912.56 1008.24 1898.51 1019.6C1697.17 927.389 1784.52 832.675 1768.17 683.169C1767.12 638.28 1761.72 635.458 1719.07 615.345C1694.46 600.307 1668.01 589.777 1642.52 576.554L1644.33 574.744C1641.98 570.039 1636.89 559.86 1634.08 554.253L1633.04 554.561C1629.16 545.182 1626.17 535.676 1624.41 525.803C1623.39 514.334 1618.03 507.382 1605.26 505.19C1573.15 498.424 1541.03 503.604 1528.16 537.55L1528 537.578C1524.88 546.547 1518.85 555.705 1511.35 560.076L1515.99 564.231C1515.8 564.589 1515.61 564.946 1515.41 565.301L1508.12 563.125C1508.14 562.731 1508.18 562.181 1508.21 561.782C1504.12 563.646 1499.27 565.047 1494.3 565.042C1338.81 538.623 1292.25 660.361 1315.37 794.621C1306.21 829.268 1298.12 863.973 1289.76 898.458C1265.39 1013.56 1192.19 1085.11 1167.26 1196.38C1160.69 1223.42 1133.4 1273.15 1157.36 1290.49C1153.25 1322.27 1166.58 1356.41 1190.35 1380.31C1154.44 1381.32 1104.38 1439.94 1146.75 1468.79C1162.16 1475.55 1180.67 1474.77 1197.49 1477.68L1196.19 1482.01C1196.88 1485.84 1203.33 1485.59 1206.44 1485.21C1206.43 1494.41 1205.26 1504.45 1209.01 1512.6C1209.43 1517.25 1211.33 1518.77 1212.28 1518.45C1218.48 1518.65 1224.78 1517.88 1231.05 1518.25C1240.53 1533.54 1254.73 1543.2 1269.41 1535.39C1278.35 1530.74 1278.19 1518.3 1286.65 1512C1308.78 1498.09 1333.92 1500.38 1357.31 1500.75C1367 1533.3 1371.37 1566.34 1378.99 1599.2C1368.99 1611.76 1357.56 1624.51 1344.43 1637.86L1342.72 1637.46L1340.98 1637.99C1331.01 1629.06 1319.94 1613.83 1305.78 1619.38C1187.62 1512.33 997.482 1528.79 851.386 1529.83C785.305 1530.62 717.073 1531.34 650.061 1534.39C630.944 1534.83 618.611 1536.25 617.953 1550.64C605.316 1551.19 595.932 1554.3 584.045 1555.22C576.62 1555.61 572.752 1556.21 572.498 1558.32C573.934 1578.86 574.742 1600.35 581.897 1619.53C589.386 1638.51 612.231 1638.5 629.673 1631.49C636.217 1628.68 630.575 1620.57 630.384 1615.6C626.405 1599.34 623.921 1582.71 623.172 1565.61C631.417 1566.26 638.632 1566.65 648.132 1566.77L648.293 1571.18C665.001 1571.83 736.011 1573.08 753.328 1570.66C746.225 1579.26 743.474 1588.09 750.294 1597.77C768.31 1617.85 801.525 1608.71 825.183 1611.74L825.549 1619.42C452.913 1688.85 311.037 2194.87 581.32 2455.39C845.628 2742.82 1350.97 2571.67 1402.05 2189.16C1424.05 2192.85 1446.15 2195.78 1468.08 2200.44C1455.13 2212.24 1436.53 2218.21 1423.82 2229.51C1401.77 2251 1395.23 2265.11 1405.34 2276.2L1405.53 2276.04C1413.62 2280.55 1423.5 2280.17 1432.53 2277.1C1438.26 2277.88 1444.19 2278.78 1449.88 2278.78C1459.13 2278.59 1467.88 2276.27 1470.32 2268.95C1470.59 2266.17 1465.27 2261.43 1462.68 2259.11C1476.94 2249.15 1491.28 2237.7 1507.64 2226.9C1511.65 2224.9 1513.54 2222.92 1514.94 2219.4C1585.31 2244.6 1658.98 2190.72 1703.85 2150.73C1703.79 2150.96 1703.74 2151.2 1703.69 2151.43C1709.14 2146.06 1714.87 2140.83 1721.08 2139.91C1722.89 2138.08 1724.91 2136.36 1727.18 2134.75L1760.34 2135.93C1769.28 2136.25 1781.19 2138.2 1789.31 2135.19C1808.11 2126.14 1800.07 2098.38 1790.51 2085.59C1805.58 2084.7 1820.87 2084.95 1835.84 2082.93C1874.19 2078.43 1863.29 2040.01 1832.54 2031.32C1824.02 2020.32 1786.16 2008.67 1785.12 1994.85C1927.89 1843.04 2082.17 1698.36 2225.15 1554.9C2229.85 1570.36 2230.84 1586.86 2230.99 1602.48C2231.01 1640.04 2240.97 1677.24 2250.02 1713.11C1919.58 1922.03 1963.28 2468.18 2326.72 2616.67C2682.81 2779.93 3069.61 2445.63 3014.39 2072.85V2072.85Z" fill="white"/>
<path fill-rule="evenodd" clip-rule="evenodd" d="M2584.6 1596.48C2577.32 1608.48 2567.41 1619.39 2553.8 1624.69C2742.11 1636.92 2910.55 1767.14 2979.17 1939.44C3151.05 2345.16 2749.93 2800.55 2322.04 2616.88C1953.47 2458.75 1911.08 1927.96 2242.43 1708.02C2235.15 1679.38 2227.77 1650.24 2224.91 1620.8C2224.27 1613.63 2224.11 1606.41 2223.95 1599.19C2223.66 1585.7 2223.36 1572.22 2219.94 1559.05C2077.59 1699.35 1935.25 1839.7 1794.62 1981.67L1789.82 1986.54C1789.55 1986.82 1789.22 1987.13 1788.87 1987.45C1787.54 1988.66 1785.94 1990.14 1785.87 1991.66C1787.46 1997.8 1799.91 2004.72 1811.61 2011.23C1820.37 2016.1 1828.71 2020.73 1831.75 2024.63C1865.64 2035.95 1876.03 2077.27 1833.25 2083.41C1823.74 2084.73 1814.11 2085.07 1804.51 2085.4C1801.06 2085.52 1797.61 2085.63 1794.17 2085.8C1803.13 2100.27 1806.54 2127.34 1787.61 2135.44C1780.42 2138.07 1771.9 2137.45 1763.94 2136.87C1761.58 2136.7 1759.28 2136.53 1757.06 2136.45L1752.99 2136.31C1743.75 2135.98 1734.52 2135.65 1725.28 2135.32C1708.71 2147.83 1707.06 2168.02 1705.43 2187.85C1704.7 2196.64 1703.99 2205.36 1701.98 2213.31C1694.21 2271.5 1653.9 2309.94 1593.44 2309.95C1526.88 2314.62 1458.05 2311.04 1393.53 2293.5C1393.3 2293.85 1392.86 2294.16 1392.43 2294C1384.19 2288.98 1393.11 2278.3 1397.96 2273.79C1384.51 2257.35 1406.05 2234.74 1417.99 2223.32C1423.92 2217.7 1431.35 2213.67 1438.8 2209.63C1444.7 2206.43 1450.61 2203.22 1455.8 2199.21C1444.03 2196.85 1432.16 2195.01 1420.29 2193.16C1414.23 2192.22 1408.17 2191.28 1402.13 2190.27C1339.51 2576.37 854.084 2744.06 575.425 2454.78C305.052 2185.46 439.121 1691.1 821.623 1612.24C814.826 1611.5 807.296 1611.6 799.575 1611.69C779.004 1611.95 757.083 1612.23 744.088 1596.8C738.955 1589.8 737.319 1579.29 742.258 1572.03C732.993 1572.98 577.584 1573.22 644.936 1567.3C638.003 1567.2 631.085 1566.96 624.191 1566.45C624.612 1573.34 625.274 1580.22 626.24 1587.05C627.397 1595.28 629.217 1603.32 631.043 1611.38C631.835 1614.87 632.628 1618.37 633.368 1621.89C634.287 1626.25 632.082 1630.56 627.619 1631.86C608.016 1639.21 584.588 1639.54 575.143 1617.61C568.449 1599.73 567.144 1580.18 565.875 1561.17C565.736 1559.09 565.598 1557.02 565.454 1554.96C565.688 1548.75 573.569 1548.34 580.7 1547.96C584.116 1547.78 587.361 1547.6 589.509 1546.81C596.804 1545.27 604.054 1544.31 611.415 1543.66C613.77 1527.94 631.97 1527.49 646.824 1527.13C650.453 1527.04 653.882 1526.95 656.831 1526.65C720.569 1524.05 784.372 1523.31 848.167 1522.57C864.96 1522.37 881.752 1522.18 898.542 1521.95C901.473 1521.91 904.412 1521.86 907.359 1521.82C1043.56 1519.75 1195.88 1517.43 1303.61 1611.68C1316.26 1608.06 1326.31 1617.95 1334.86 1626.36C1336.22 1627.71 1337.56 1629.02 1338.85 1630.23C1339.25 1630.11 1339.66 1630.1 1340.04 1630.19C1351.09 1618.89 1361.72 1607.21 1371.63 1594.86C1368.93 1583.07 1366.62 1571.18 1364.32 1559.29C1360.53 1539.78 1356.75 1520.26 1351.22 1501.19L1350.43 1501.17C1329.24 1500.57 1304.17 1499.85 1285.95 1511.66C1282.35 1514.57 1280.39 1518.65 1278.45 1522.71C1276.01 1527.81 1273.59 1532.88 1267.93 1535.54C1250.97 1544.61 1234.7 1532.63 1225.74 1518.7C1222.98 1518.61 1220.25 1518.73 1217.53 1518.84C1214.68 1518.96 1211.84 1519.08 1208.99 1518.97C1204.19 1518.71 1202.72 1514.64 1202.09 1510.3C1199 1503.19 1199.15 1495.43 1199.3 1487.9C1199.31 1487.26 1199.32 1486.62 1199.33 1485.99C1194.85 1486.26 1187.81 1482.56 1189.32 1477.52C1184.92 1476.87 1180.46 1476.43 1175.99 1475.99C1164.29 1474.83 1152.55 1473.67 1141.79 1468.87C1098.83 1442.52 1140.62 1380.6 1179.53 1374.25C1158.65 1351.15 1146.97 1319.79 1150.13 1288.83C1131.83 1274.06 1144.05 1239.72 1153.46 1213.28C1156.33 1205.22 1158.93 1197.9 1160.34 1192.09C1169.98 1147.73 1190.01 1106.73 1209.88 1066.08L1210.78 1064.22C1216.94 1052.31 1222.7 1041.52 1228.1 1031.4C1252.64 985.427 1269.72 953.413 1282.82 894.245C1284.72 886.41 1286.6 878.571 1288.48 870.731C1294.88 844.104 1301.28 817.471 1308.26 790.998C1307.74 787.079 1307.25 783.515 1306.8 780.215C1303.63 757.064 1302.25 746.991 1303.54 719.262C1306.95 607.016 1361.7 539.629 1491.7 557.813C1508.17 556.708 1516.96 545.709 1521.8 531.138C1522.25 530.133 1523.8 530.877 1523.54 531.859C1521.37 541.951 1518.03 553.428 1508.9 559.386C1504.36 612.668 1590.57 630.465 1626.96 604.042C1638.09 597.11 1640.99 590.974 1641.25 578.366C1636.27 572.255 1635.39 564.709 1634.52 557.162C1634.05 553.114 1633.58 549.066 1632.48 545.239L1645.93 572.141C1654 576.241 1662.18 580.108 1670.36 583.972C1686.41 591.559 1702.44 599.137 1717.6 608.453C1760.89 628.944 1767.79 632.517 1768.91 679.453C1772.92 724.584 1769.76 763.003 1766.98 796.88C1759.56 887.041 1754.79 945.03 1895 1011.74C1907.91 1002.7 1916.82 1014.2 1916.12 1027.02C1923.42 1023.46 1930.75 1020.61 1938.92 1019.14C1925.67 1015.09 1930.84 995.889 1939.05 988.972C1965.87 968.567 2011.95 972.303 2009.69 1013.99C2015.86 1016.2 2013.97 1025.92 2007.82 1027.17C2048.75 1041.45 2083.56 1067.28 2118.04 1092.87C2126.18 1098.91 2134.3 1104.93 2142.48 1110.79C2136.06 1077.66 2130.03 1044.3 2128.06 1010.72C2127.55 1010.54 2127.46 1009.77 2127.99 1009.54C2127.1 1003.98 2129.33 1003.11 2130.79 1008.85C2231.97 990.585 2335.85 989.9 2438.44 991.273C2493.75 991.968 2549.42 999.344 2600.83 1020.23C2602.15 1020.91 2604.26 1021.7 2606.68 1022.6C2616.15 1026.15 2630.45 1031.5 2621.39 1039.43C2619.56 1050.97 2615.72 1062.19 2611.91 1073.31C2611.26 1075.22 2610.61 1077.12 2609.97 1079.01L2605.48 1091.54C2579 1165.31 2552.52 1239.07 2528.05 1313.52C2527.41 1315.45 2526.77 1317.38 2526.13 1319.31C2521.22 1334.05 2516.32 1348.79 2511.71 1363.63C2511.5 1364.33 2511.29 1365.06 2511.07 1365.82C2509.38 1371.65 2507.36 1378.65 2500.36 1378.7C2493.13 1383.64 2485.08 1387.35 2476.73 1390.04C2460.88 1481.14 2387.17 1548.69 2321.4 1608.98L2320.17 1610.11C2323.42 1614.88 2326.51 1619.82 2329.2 1624.95C2341.7 1626.06 2353.41 1621.61 2365 1617.2C2370.73 1615.02 2376.44 1612.86 2382.19 1611.38C2445.84 1590.69 2514.86 1584.41 2581.42 1591.02C2584.03 1591.28 2586.23 1593.96 2584.6 1596.48ZM2185.87 2484.21C2416.52 2730.34 2830.35 2638.31 2949.54 2329.8C3113.46 1942.92 2724.09 1510.31 2320.48 1699.5L2320.69 1700.23C2322.6 1706.84 2324.51 1713.45 2326.51 1720.05C2553.82 1604.39 2842.93 1727.47 2931.58 1959.91C3085.81 2323.88 2726.38 2732.97 2342.25 2568.19C2018.34 2430.85 1973.61 1963.02 2257.66 1761.48C2255.45 1754.46 2253.33 1747.41 2251.28 1740.35C2010.74 1905.61 1980.22 2279.97 2185.87 2484.21ZM2585.82 2162.16C2579.25 2156.81 2572.7 2151.43 2566.19 2146C2565.71 2150.81 2564.5 2155.53 2562.49 2159.98C2570.27 2160.69 2578.05 2161.43 2585.82 2162.16ZM2551.31 2153.16C2551.02 2153.69 2550.7 2154.21 2550.38 2154.72C2550.41 2154.82 2550.43 2154.9 2550.46 2154.99C2550.77 2154.39 2551.05 2153.78 2551.31 2153.16ZM2549.37 2156.28C2548.83 2157.09 2548.25 2157.9 2547.63 2158.68L2548.12 2158.73C2548.62 2158.09 2549.08 2157.42 2549.49 2156.73C2549.47 2156.66 2549.45 2156.58 2549.43 2156.51L2549.37 2156.28ZM2523.84 2147.98C2523.8 2148.68 2523.85 2148.91 2523.92 2148.91C2524.05 2148.91 2524.26 2148.09 2524.1 2148.06C2524.11 2148.06 2524.07 2148.05 2523.97 2148.02C2523.93 2148.01 2523.89 2147.99 2523.84 2147.98ZM2516.8 2122.15C2519.84 2125.85 2523.02 2129.73 2524.14 2134.44C2524.86 2137.5 2524.61 2140.34 2524.3 2143.33C2525.82 2142.14 2527.21 2140.5 2528.61 2138.84C2532.18 2134.64 2535.83 2130.33 2541.8 2132.89C2542.87 2118.02 2524.75 2107.5 2511.43 2112.17C2511.29 2112.32 2510.84 2113.11 2510.97 2113.39C2512.09 2116.41 2514.4 2119.23 2516.8 2122.15ZM2505.52 2160.09C2505.52 2159.49 2505.62 2158.88 2505.83 2158.31C2502.7 2161.02 2498.91 2162.72 2494.83 2163.56C2495.86 2163.88 2496.93 2164.17 2497.97 2164.45C2499.1 2162.06 2502.66 2160.97 2505.34 2160.15L2505.52 2160.09ZM2495.65 2105.77C2493.22 2106.54 2490.49 2107.41 2490.52 2109.7C2491.42 2109.56 2490.64 2110.6 2490.2 2110.65C2492.14 2111.09 2494.05 2111.73 2495.91 2112.52C2495.95 2109.95 2496.88 2107.01 2498.13 2104.85C2497.46 2105.19 2496.58 2105.47 2495.65 2105.77ZM2477.1 2129.56C2478 2130.92 2478.91 2132.27 2479.76 2133.66C2484.53 2141.8 2472.32 2148.92 2466.8 2141.17C2467.12 2142.18 2467.53 2143.15 2468.01 2144.04C2468.39 2143.74 2468.69 2144.31 2468.26 2144.49C2472.47 2151.75 2481.51 2154.61 2489.83 2154.47C2489.38 2148.73 2490.04 2148.65 2490.41 2154.43C2512.13 2151.61 2508.47 2116.06 2472.81 2120.64C2472.58 2120.84 2472.34 2121.05 2472.12 2121.27C2473.53 2124.22 2475.31 2126.9 2477.1 2129.56ZM2262.63 1776.99C2240.57 1793.56 2219.63 1812.68 2200.87 1833.37C2253.79 1893.43 2305.36 1954.83 2356.91 2016.2C2376.31 2039.29 2395.7 2062.39 2415.16 2085.4C2417.35 2088 2419.57 2090.57 2421.8 2093.16C2427.32 2099.57 2432.86 2106 2437.9 2112.75C2440.91 2114.41 2443.94 2116.05 2447 2117.63C2364.58 2016.75 2303.85 1899.63 2262.63 1776.99ZM2084.26 2112.01C2081.28 2161.15 2086.07 2211.2 2098.46 2258.22C2173.17 2231.1 2248.7 2206.1 2324.21 2181.1C2360.67 2169.03 2397.12 2156.96 2433.47 2144.66C2371.64 2131.58 2308.62 2128.71 2245.59 2125.82C2191.59 2123.36 2137.58 2120.89 2084.26 2112.01ZM2357.31 2174.93C2282.77 2199.61 2208.23 2224.28 2133.41 2248.14C2130.78 2248.98 2128.15 2249.85 2125.5 2250.72C2116.62 2253.65 2107.66 2256.6 2098.59 2258.7C2236.48 2742.75 2903.34 2673.09 2949.88 2177.02C2831.91 2183.07 2713.42 2179.89 2595.96 2166.91C2659.16 2215.35 2724.15 2261.5 2789.09 2307.63C2815.63 2326.48 2842.17 2345.33 2868.58 2364.33C2870.21 2365.8 2868.12 2368.11 2866.32 2367.21C2770.99 2305.5 2679.81 2236.79 2590.91 2166.29C2581.05 2165.08 2571.22 2163.73 2561.42 2162.22C2559.83 2165.23 2557.85 2168.03 2555.47 2170.45C2594.64 2299.47 2622.43 2432.46 2636.11 2566.47C2636.25 2568.52 2632.82 2568.97 2632.45 2566.95C2613.32 2434.12 2588.08 2302.17 2553.44 2172.34C2536.46 2184.71 2512.32 2182.9 2492.7 2178.53C2504.62 2312.89 2515.01 2447.56 2523.03 2582.15C2522.83 2585.12 2518.16 2586.08 2517.5 2582.88C2506.21 2448.18 2498.35 2313.01 2490.94 2178C2483.47 2175.69 2475.19 2170.58 2477.1 2162.35C2470.24 2160.22 2464.25 2155.61 2460.74 2149.79C2457.04 2155.26 2453.33 2160.72 2449.62 2166.17C2442.09 2177.26 2434.56 2188.33 2427.15 2199.49C2428.65 2198.29 2430.16 2197.09 2431.66 2195.9C2444.85 2185.41 2458.04 2174.91 2471.62 2164.97C2473.21 2163.8 2475.09 2165.21 2475.44 2166.81C2466.31 2177.14 2454.36 2185.76 2442.42 2194.37C2433.96 2200.47 2425.5 2206.57 2418.06 2213.27C2360.58 2300.98 2310.78 2393.59 2269.97 2489.95C2268.27 2493.98 2261.53 2492.26 2263.22 2488.12C2300.37 2395.78 2347.46 2307.48 2402.92 2224.52C2378.11 2243.44 2353.18 2262.72 2328.2 2282.04C2277.55 2321.2 2226.73 2360.5 2176.41 2397.29C2236.24 2349.43 2296.47 2302.03 2356.74 2254.72C2365.26 2248.05 2373.78 2241.37 2382.3 2234.7C2392.02 2227.09 2401.75 2219.47 2411.46 2211.86C2425.07 2192 2439.3 2172.55 2454.4 2153.83C2430.9 2168.67 2407.44 2183.65 2383.96 2198.64C2312.26 2244.41 2240.41 2290.28 2166.98 2332.6C2165.13 2333.01 2164.16 2331.01 2165.24 2329.65C2221.35 2292.04 2279.76 2256.94 2338.07 2221.89C2378.87 2197.36 2419.63 2172.86 2459.53 2147.55C2457.18 2142.63 2456.48 2137 2458.13 2131.22C2457.37 2130.26 2456.6 2129.31 2455.84 2128.38C2349.46 2068.74 2234.76 2014.96 2123.43 1970.85C2227.16 2007.12 2327.47 2052.5 2423.74 2105C2400.13 2076.34 2376.38 2047.76 2352.63 2019.18C2301.51 1957.67 2250.37 1896.14 2200.58 1833.69C2131.56 1909.44 2090.28 2009.37 2084.3 2111.39C2133.49 2117.63 2183.26 2119.11 2233.01 2120.59C2307.25 2122.8 2381.45 2125.01 2453.66 2143.01C2457.07 2144.14 2455.63 2148.72 2452.21 2148.21C2448.85 2147.7 2445.51 2147.1 2442.17 2146.45C2434.55 2149.64 2426.64 2152.16 2418.75 2154.68C2415.88 2155.59 2413.02 2156.5 2410.17 2157.45C2392.55 2163.27 2374.93 2169.1 2357.31 2174.93ZM2856.27 1860.11C2763.13 1942.4 2666.37 2022.02 2564.07 2092.88C2555.23 2092.89 2568.07 2083.62 2574.26 2079.15C2575.59 2078.18 2576.62 2077.44 2577.05 2077.06C2672.28 2007.47 2764.48 1933.97 2855.72 1859.39C2791.26 1776 2696.23 1716.54 2591.97 1698.19L2591.15 1704.35C2575.27 1824.24 2559.39 1944.16 2550.51 2064.8C2603.95 1960.1 2662.91 1853.44 2733.61 1760.87C2671.46 1863.22 2609.41 1965.76 2556.3 2073.02C2555 2075.62 2553.73 2078.28 2552.45 2080.96C2551.21 2083.56 2549.96 2086.17 2548.66 2088.76C2548.5 2090.27 2548.42 2091.81 2548.33 2093.36C2548.18 2096.33 2548.02 2099.32 2547.28 2102.12C2560.47 2111.93 2567.52 2128.86 2566.28 2144.92C2574.24 2150.79 2582.18 2156.67 2590.12 2162.58L2592.07 2162.76C2605.72 2164.06 2619.35 2165.35 2633.01 2166.5C2738.46 2175.53 2844.53 2177.01 2950.23 2172.14C2954.62 2107.44 2945.49 2041.86 2923.34 1981.65C2803.16 2017.73 2684.3 2058.17 2567.12 2102.72C2564.02 2103.71 2561.93 2098.87 2564.9 2097.53C2681.79 2051.77 2801.63 2013.13 2923.15 1981.12C2907.13 1937.54 2884.48 1896.42 2856.27 1860.11ZM2382.02 1713.84C2388.92 1727.44 2395.2 1741.19 2401.12 1755.22C2403.58 1760.11 2411.3 1781.65 2398.7 1775.71C2394.36 1771.1 2391.79 1764.97 2389.65 1759.13C2384.39 1744.93 2379.8 1730.59 2376.07 1715.92C2360.79 1721.36 2345.64 1727.77 2331.07 1734.95C2368.69 1863.9 2434.72 1981.71 2504.7 2095.74C2514.54 2092.12 2525.91 2092.27 2535.68 2095.88C2542.45 2083.49 2542.83 2076.56 2543.51 2064.42C2543.59 2062.94 2543.67 2061.39 2543.78 2059.74C2554.06 1938.63 2566.22 1817.21 2589.86 1697.81C2582.31 1696.5 2574.71 1695.39 2567.07 1694.5C2566.85 1695.45 2566.62 1696.42 2566.4 1697.39C2564.82 1704.1 2563.19 1711.05 2562.68 1717.94C2562.57 1719.13 2561.84 1720.55 2560.49 1720.77C2546.1 1721.62 2553.24 1701.88 2556.13 1693.89L2556.31 1693.37C2546.64 1692.49 2536.91 1691.93 2527.12 1691.71C2517.58 1821.4 2513.01 1951.31 2511.65 2081.28C2511.54 2083.51 2508.27 2083.5 2508.14 2081.28C2506.13 1951.35 2512.62 1820.95 2526.06 1691.68C2494.28 1691.04 2462.51 1693.92 2431.8 1700.29C2449.43 1818.91 2469.64 1937.14 2491.77 2054.97C2491.99 2057.15 2488.62 2057.4 2488.04 2055.47C2463.68 1938.19 2444.1 1819.62 2429.97 1700.68C2413.75 1704.11 2397.76 1708.49 2382.02 1713.84ZM2238.41 1599.9C2238.96 1612.71 2239.51 1625.52 2241.92 1638.19C2274.22 1813.7 2354.41 1979.2 2467.49 2118.16C2467.51 2118.16 2467.54 2118.16 2467.57 2118.16C2465.31 2108.16 2482.13 2108.85 2488.45 2110.27C2486.34 2106.98 2491.26 2103.57 2494.7 2101.19C2495.6 2100.57 2496.39 2100.02 2496.94 2099.56C2400.88 1980.09 2295.54 1736.07 2288.53 1584.01C2288.53 1582.89 2290.29 1582.62 2290.53 1583.74C2296.77 1612.25 2304.02 1640.57 2311.79 1668.74C2378.33 1637.75 2450.46 1622.37 2524.1 1623.4C2527.78 1621.68 2531.24 1619.98 2534.08 1617.26C2535.96 1616.35 2537.64 1615.97 2539.4 1615.56C2540.07 1615.41 2540.74 1615.26 2541.44 1615.07C2545.43 1612.73 2549.82 1610.99 2554.2 1609.25C2561.61 1606.32 2568.99 1603.4 2574.39 1597.59C2514.78 1592.24 2454.19 1597.46 2396.44 1612.97C2375.54 1620.06 2354.57 1626.95 2333.27 1632.82C2334.03 1634.01 2334.59 1635.38 2335.14 1636.76C2336.08 1639.07 2337.01 1641.38 2338.91 1642.79C2342.97 1646.24 2339.65 1652.09 2335.34 1653.36C2328.13 1655.49 2325.29 1648.32 2323.79 1643C2320.45 1631.09 2316.52 1619.18 2310.47 1608.3C2308.62 1604.94 2306.96 1601.41 2305.3 1597.88C2300.52 1587.74 2295.72 1577.54 2286.24 1570.9C2282.69 1571.79 2278.97 1571.74 2275.28 1571.69C2273.61 1571.66 2271.95 1571.64 2270.31 1571.7C2262.74 1571.82 2255.23 1572.92 2247.74 1574.01C2244.12 1574.55 2240.5 1575.08 2236.88 1575.49C2237.71 1583.6 2238.06 1591.75 2238.41 1599.9ZM2225.69 1528.58C2227.93 1535.84 2230.16 1543.1 2232.2 1550.41C2233.84 1556.65 2235.11 1562.92 2236.05 1569.21C2248.16 1561.15 2262.82 1557.51 2277.26 1556.29C2269.29 1526.66 2260.33 1497.08 2251.39 1467.52C2240.25 1430.73 2229.12 1393.97 2219.93 1357.21C2219.91 1356.93 2219.91 1356.66 2219.93 1356.38C2219.94 1356.25 2219.95 1356.11 2219.96 1355.97L2219.16 1355.55C2211.12 1351.29 2205.14 1348.12 2195.52 1350.65C2189.76 1351.81 2184.93 1354.5 2183.9 1360.39C2183.75 1361.26 2183.19 1361.73 2182.52 1361.88C2194.18 1399.89 2205.77 1438.07 2212.65 1477.32C2215.31 1494.85 2220.5 1511.71 2225.69 1528.58ZM1949.66 1815.86C1982.07 1783.02 2014.48 1750.18 2047.14 1717.58C2103.49 1661.05 2160.27 1604.93 2217.41 1549.19C2215.12 1541.43 2212.7 1533.73 2210.28 1526.02C2208.94 1521.77 2207.6 1517.52 2206.29 1513.26C2146.14 1578.52 2081.32 1639.87 2016.5 1701.23C1924.42 1788.38 1832.34 1875.54 1753.62 1973.92C1753.33 1974.3 1753.01 1974.65 1752.66 1974.97C1754.81 1974.94 1772.69 1977.08 1763.35 1977.46C1766.03 1978.13 1767.9 1981.53 1765.16 1983.13C1769.59 1985.81 1774.01 1988.49 1778.44 1991.16C1779.33 1985.36 1785.53 1979.71 1791.36 1974.4C1794.47 1971.56 1797.48 1968.82 1799.5 1966.21C1850.14 1916.7 1899.9 1866.29 1949.66 1815.86ZM1828.92 2032.35C1827.47 2031.38 1825.97 2030.37 1825.7 2028.63C1801.51 2013.97 1777.32 1999.31 1753.14 1984.64C1750.05 1985.31 1746.64 1985.42 1743.22 1985.54C1735.5 1985.8 1727.68 1986.07 1723.19 1992.67C1723.36 1993.76 1722.96 1994.97 1721.91 1995.48C1719.78 1997.79 1714.79 1996.99 1714.64 1992.73C1714.97 1982.78 1730.2 1977.61 1738.46 1975.73C1732.05 1971.84 1725.64 1967.95 1719.23 1964.06C1711.41 1965.8 1703.72 1968.14 1696.19 1970.88C1695.32 1971.2 1694.39 1971.63 1693.43 1972.08C1690.83 1973.28 1687.99 1974.6 1685.45 1974.05C1685.24 1974.3 1685.05 1974.56 1684.89 1974.81C1685.59 1975.11 1686.27 1975.42 1686.64 1975.52C1689.78 1976.4 1689 1980.8 1685.89 1980.96C1681.06 1981.2 1673.26 1979.89 1674.88 1973.19C1679.07 1963.78 1697.07 1959.81 1707.2 1957.59C1707.54 1957.51 1707.88 1957.44 1708.21 1957.36C1706.78 1956.5 1705.34 1955.62 1703.88 1954.73C1688.85 1945.55 1672.27 1935.42 1654.37 1937.04C1651.7 1938.91 1648.45 1938.77 1645.43 1937.86C1633.8 1940.3 1623.28 1946.23 1613.66 1952.94C1606.58 1957.24 1600.28 1962.97 1593.99 1968.7C1583.43 1978.31 1572.88 1987.92 1558.67 1990.73C1539.41 1993.33 1514.27 1973.64 1509.78 1956.24C1509.52 1956.2 1509.25 1956.15 1508.98 1956.08C1508.82 1956.04 1508.66 1955.99 1508.51 1955.95C1502.52 1975.27 1502.71 1995.49 1503.26 2015.4C1537.06 2017.54 1570.84 2020.23 1604.62 2022.93C1656.38 2027.05 1708.15 2031.18 1760.03 2033.32C1776.01 2034.11 1791.98 2034.81 1807.96 2035.44C1815.48 2035.81 1822.84 2035.69 1829.9 2033.03C1829.59 2032.8 1829.26 2032.58 1828.92 2032.35ZM1503.05 2017.38C1502.97 2017.95 1502.87 2018.53 1502.76 2019.11C1504.91 2018.72 1507.13 2018.65 1509.34 2018.66C1507.15 2018.4 1504.98 2018.03 1503.05 2017.38ZM1827.64 2073.73C1857.6 2072.61 1859.87 2051.2 1835.44 2036.74C1832.4 2038.57 1828.43 2038.78 1824.89 2038.96C1823.9 2039.01 1822.95 2039.06 1822.06 2039.14C1820.64 2043.56 1806.34 2042.37 1795.1 2041.44C1790.02 2041.02 1785.56 2040.65 1783.22 2040.88C1738.36 2039.86 1693.65 2035.98 1648.97 2032.11C1603.67 2028.18 1558.4 2024.25 1513.03 2023.31C1512.5 2023.3 1511.94 2023.3 1511.38 2023.29C1506.71 2023.21 1501.25 2023.11 1498.84 2026.74C1498.77 2036.05 1501.01 2043.67 1511.51 2045.01C1579.44 2061.76 1648.87 2072.12 1718.82 2075C1754.95 2076.39 1791.57 2076.77 1827.64 2073.73ZM1775.99 2115.38C1775.98 2112.98 1775.97 2110.58 1776 2108.17C1776.02 2107.14 1776.11 2105.9 1776.21 2104.6C1776.35 2102.82 1776.5 2100.91 1776.47 2099.19C1764.05 2097.92 1751.63 2096.67 1739.18 2095.75C1739.82 2097.12 1740.14 2098.63 1740.06 2100.09C1742.14 2102 1743.3 2104.97 1742.89 2107.85C1744.39 2110.22 1744.91 2113.14 1744.15 2115.73C1754.75 2115.96 1765.36 2115.86 1775.99 2115.41V2115.38ZM1503.04 2207.22C1575.18 2239.86 1646.81 2187.75 1699.47 2142.81C1700.91 2139.89 1702.63 2137.13 1704.67 2134.59C1695.02 2133.85 1685.42 2133.74 1675.84 2133.63C1658.73 2133.42 1641.68 2133.22 1624.56 2129.47C1631.83 2137.13 1621.03 2140.65 1613.14 2143.22C1611.02 2143.91 1609.11 2144.54 1607.81 2145.16C1591.36 2151.64 1574.81 2157.89 1558.17 2163.9C1564.08 2217.95 1512.14 2208.78 1500.23 2167.08C1496.57 2167.98 1492.85 2168.26 1489.06 2168.09C1488.35 2168.99 1487.21 2169.6 1485.79 2169.39C1472.53 2167.49 1459.32 2165.2 1446.11 2162.91C1439.49 2161.76 1432.87 2160.61 1426.24 2159.52C1415.3 2157.85 1404.38 2155.98 1393.46 2154.11C1373.35 2150.66 1353.24 2147.22 1332.99 2145.03C1333.01 2144.82 1333.03 2144.59 1333.05 2144.38C1300.25 2139.5 1267.46 2134.42 1234.66 2129.34C1138.57 2114.46 1042.42 2099.57 945.782 2089.72C941.178 2089.28 937.297 2085.84 937.999 2080.94C937.984 2080.95 937.968 2080.96 937.953 2080.97C937.403 2084.18 937.085 2087.51 936.765 2090.86C935.758 2101.39 934.735 2112.09 926.439 2119.77C1107.65 2135.96 1288.08 2162.3 1467.29 2192.89C1477.72 2195.58 1487.35 2200.01 1497.03 2204.47C1499.03 2205.39 1501.03 2206.31 1503.04 2207.22ZM1603.24 2295.73C1663.65 2292.82 1684.62 2245.7 1689.56 2192.89C1689.98 2189.61 1690.33 2186.2 1690.69 2182.71C1691.53 2174.57 1692.4 2166.05 1694.27 2157.95C1645.48 2199.47 1580.91 2241.72 1513.78 2220.73C1512.36 2223.53 1509.35 2225.25 1506.43 2226.92C1505.15 2227.65 1503.88 2228.38 1502.77 2229.18C1490.42 2238.18 1478.05 2247.17 1465.66 2256.12C1470.1 2260.25 1473.6 2265.96 1468.68 2271.16C1458.95 2281.72 1443.78 2279.64 1430.56 2277.82L1429.73 2277.71C1421.21 2280.4 1411.31 2281.16 1402.97 2277.25C1398.54 2280.94 1393.81 2285.64 1393.69 2291.59C1394.36 2290.98 1394.51 2291.48 1394.28 2292.11L1395.05 2292.17C1464.23 2297.21 1534.01 2302.3 1603.24 2295.73ZM1425.84 2224.65C1415.32 2234.61 1404.72 2246.91 1401.83 2261.34C1400.98 2268.54 1407.41 2270.37 1413.28 2269.84C1414.28 2268.47 1417.02 2267.96 1418.65 2268.82C1422.22 2267.77 1425.63 2266.1 1428.92 2264.47C1455.57 2251.49 1480.79 2235.77 1503.51 2216.87C1500.37 2215.86 1496.07 2213.78 1491.37 2211.5C1481.32 2206.62 1469.46 2200.87 1463.41 2202.93C1460.24 2204.88 1457.11 2206.89 1453.97 2208.9C1444.93 2214.72 1435.89 2220.53 1425.84 2224.65ZM599.004 2432.46C822.668 2668.87 1224.61 2581.77 1341.16 2283.83C1354.33 2251.94 1363.9 2218.94 1369.83 2185.14C1361.1 2183.77 1352.38 2182.41 1343.64 2181.06C1286.37 2523.7 865.324 2677.08 616.735 2415.76C384.358 2180.82 489.91 1740.48 820.93 1660.11C819.356 1655.58 818.133 1650.96 817.385 1646.23C466.921 1727.84 349.792 2184.29 599.004 2432.46ZM1220.39 1748.89C1139.01 1675.72 1031.42 1633.69 921.157 1634.09C886.935 1634.09 853.29 1637.91 820.494 1645.49C821.693 1650.16 823.36 1654.65 825.339 1659.03C960.398 1625.96 1108.41 1667.32 1208.14 1762.92C1211.22 1759.86 1214.31 1756.79 1217.4 1753.72C1217.6 1752.52 1218.43 1751.47 1219.25 1750.44C1219.66 1749.92 1220.07 1749.41 1220.39 1748.89ZM797.573 1602.32C804.661 1602.17 811.341 1602.03 816.824 1602.59C851.711 1603.85 886.25 1603.21 921.157 1601.89C996.904 1606.04 1072.63 1607.19 1148.43 1608.34C1175.84 1608.75 1203.25 1609.17 1230.68 1609.73C1230.97 1609.29 1231.35 1608.89 1231.82 1608.54C1199.09 1589.47 1163.72 1571.18 1125.03 1569.06C1043.66 1565.68 962.091 1567.65 880.547 1569.62C835.159 1570.72 789.779 1571.82 744.447 1571.99C741.72 1577.28 742.678 1583.71 745.887 1588.83C755.011 1603.22 777.871 1602.74 797.573 1602.32ZM623.911 1561.22C645.53 1558.9 667.311 1557.67 689.067 1557.11C832.268 1553.77 975.772 1550.42 1118.95 1554.96C1136.67 1556.52 1153.57 1560.3 1170.07 1566.12C1179.83 1568.76 1189.39 1572.08 1198.64 1576.17C1206.56 1579.56 1213.9 1583.95 1221.24 1588.34C1228.29 1592.56 1235.34 1596.78 1242.9 1600.11C1249.12 1603.22 1255.36 1606.3 1261.6 1609.37C1276.71 1616.83 1291.84 1624.28 1306.63 1632.28C1310.58 1634.41 1310.03 1638.62 1307.54 1640.94C1309.03 1643.46 1310.96 1645.67 1312.89 1647.88C1313.4 1648.46 1313.91 1649.04 1314.41 1649.63C1316.55 1647.88 1318.74 1646.19 1320.94 1644.51C1324.36 1641.88 1327.79 1639.26 1331 1636.37C1329.55 1635.12 1327.83 1633.31 1325.93 1631.3C1319.1 1624.08 1309.87 1614.34 1302.18 1618.97C1301.68 1619.32 1301.16 1619.28 1300.73 1619.05C1187.42 1528.02 1032.87 1527.25 892.342 1531.43C818.488 1531.99 744.619 1532.98 670.775 1534.43C667.268 1534.98 661.46 1534.84 654.873 1534.69C638.577 1534.31 617.515 1533.82 614.734 1543.27C623.902 1543.08 623.903 1552.28 623.903 1559.32C623.903 1559.97 623.903 1560.61 623.911 1561.22ZM614.126 1614.54C613.187 1617.51 611.172 1619.53 608.813 1620.47C610.987 1620.17 613.168 1619.65 615.287 1619.03C614.874 1617.54 614.492 1616.05 614.126 1614.54ZM1305.7 1653.87C1303.29 1650.89 1300.87 1647.89 1300.05 1644.19C1299.91 1643.52 1299.85 1642.55 1299.89 1641.5C1283.38 1633.81 1267.13 1625.52 1250.9 1617.24C1248.96 1616.25 1247.02 1615.26 1245.08 1614.28C1242.88 1615.6 1239.62 1616.42 1236.59 1617.18C1236.02 1617.32 1235.46 1617.46 1234.92 1617.6C1234.14 1619.01 1232.69 1620.04 1230.55 1620C1166.44 1618.78 1102.33 1617.56 1038.22 1616.29C1113.82 1635.33 1184.1 1672.88 1242.1 1724.78C1258.95 1707.06 1276.87 1690.38 1294.79 1673.69C1299.81 1669.01 1304.83 1664.34 1309.82 1659.64C1308.71 1657.61 1307.21 1655.74 1305.7 1653.87ZM917.609 1897.65C912.368 1874.47 907.129 1851.3 900.848 1828.48C898.946 1815.58 892.49 1803.87 886.018 1792.14C882.246 1785.3 878.468 1778.45 875.584 1771.35C871.454 1762.97 867.389 1754.59 863.328 1746.22C851.628 1722.1 839.971 1698.06 826.936 1674.43C818.585 1676.46 810.288 1678.77 802.07 1681.36C831.111 1771.75 857.88 1862.93 884.63 1954.04C891.866 1978.69 899.101 2003.33 906.379 2027.95L906.953 2027.85C917.041 2026.1 927.629 2024.26 935.756 2017.71C940.235 2014.1 946.623 2020.08 942.751 2023.87C933.228 2031.97 920.814 2034.36 908.502 2036.73C893.276 2039.65 878.206 2042.55 868.956 2056.2C865.357 2061.99 864.032 2069.38 867.904 2074.83C873.054 2068.02 881.596 2066.07 889.669 2064.97C908.699 2061.52 922.562 2047.24 935.692 2033.72C938.522 2030.81 941.317 2027.93 944.122 2025.2C959.125 2010.31 974.122 1995.4 989.118 1980.5L993.987 1975.66C976.68 1974.09 951.289 1921.99 932.82 1884.09C925.701 1869.48 919.611 1856.99 915.408 1850.31C919.051 1866.27 922.909 1882.19 926.768 1898.12C935.502 1934.17 944.239 1970.23 950.502 2006.75C950.706 2008.48 950.723 2010.21 950.74 2011.93C950.755 2013.43 950.77 2014.93 950.907 2016.43C950.945 2016.77 950.443 2016.79 950.329 2016.51C935.789 1978.06 926.696 1937.84 917.609 1897.65ZM1053.62 2235.6C1044.13 2230 1061.61 2221.65 1066.71 2227.03C1066.94 2227.2 1067.01 2227.45 1066.96 2227.65C1131.88 2227.57 1196.69 2231.82 1261.25 2238.4C1269.71 2239.28 1278.15 2240.27 1286.59 2241.34C1289.3 2241.88 1292.13 2242.13 1294.96 2242.39C1300.43 2242.89 1305.92 2243.39 1310.7 2245.92C1318.3 2223.99 1324.15 2201.54 1328.25 2178.69C1257.36 2167.52 1186.26 2157.78 1115.16 2148.03C1051.8 2139.35 988.452 2130.67 925.247 2120.99C897.685 2149.39 850.6 2119.77 863.074 2083.38C847.759 2068.96 860.28 2045.26 876.481 2037.16C884.435 2032.66 893.206 2030.4 902.118 2028.72C893.447 1999.43 884.687 1970.16 875.926 1940.88C850.142 1854.72 824.347 1768.51 800.753 1681.78C497.671 1775.54 411.037 2185.53 628.085 2405.25C838.925 2630.99 1208.6 2538.28 1307.8 2254.05C1299.32 2253.29 1290.84 2252.51 1282.36 2251.74C1214.62 2245.57 1146.65 2239.38 1078.56 2237.2C1076.56 2237.11 1074.54 2237.05 1072.51 2236.99C1066.19 2236.8 1059.79 2236.6 1053.62 2235.6ZM1363.25 1617.89C1361.63 1619.35 1360.02 1620.79 1358.45 1622.26C1292.92 1685.95 1228.37 1750.63 1163.82 1815.31C1121.59 1857.63 1079.35 1899.95 1036.84 1942C1020.94 1956.87 1005.77 1972.64 990.594 1988.41C964.595 2015.44 938.574 2042.49 908.833 2065.06C904.619 2067.43 900.077 2069.35 895.38 2070.56C893.851 2070.89 892.261 2071.16 890.654 2071.44C883.604 2072.65 876.239 2073.91 872.259 2080.39C856.124 2107.63 889.737 2138.49 916.117 2119.54C915.728 2119.57 914.789 2119.24 915.518 2118.94C922.59 2117.09 927.213 2107.45 928.526 2100.67C918.515 2105.98 912.5 2096.11 907.447 2087.82C906.137 2085.67 904.892 2083.63 903.659 2081.98C901.243 2081.82 898.79 2082.28 896.254 2082.75C895.348 2082.91 894.432 2083.08 893.502 2083.23C880.569 2082.78 890.06 2071.34 902.585 2075.09C908.751 2074.26 914.996 2078.65 919.957 2082.17C921.185 2082.98 922.536 2083.59 923.881 2084.21C926.032 2085.19 928.167 2086.16 929.757 2087.89C929.913 2085.91 930.108 2083.93 930.435 2081.96C924.958 2080.41 921.741 2073.86 923.759 2068.63C924.514 2065 928.151 2062.01 932.024 2061.94C931.806 2061.98 931.596 2062.01 931.385 2062.05C931.711 2062.02 933.639 2061.72 933.555 2061.68C935.502 2061.86 938.067 2062.44 939.035 2064.18C1019.97 1988.44 1102.29 1914.07 1184.62 1839.69C1251.57 1779.21 1318.52 1718.73 1384.73 1657.51C1381.2 1640.74 1377.69 1623.98 1374.2 1607.22C1370.91 1611.03 1367.06 1614.48 1363.25 1617.89ZM933.497 2061.68C933.529 2061.68 933.548 2061.68 933.555 2061.68C933.535 2061.68 933.516 2061.68 933.497 2061.68ZM1023.18 1996.19C1005.77 2012.02 988.362 2027.85 970.959 2043.66C1015.86 2033.9 1062.19 2031.6 1107.96 2029.42C1100.02 2026.34 1092.06 2023.3 1084.09 2020.27C1063.67 2012.48 1043.23 2004.7 1023.18 1996.19ZM950.557 2061.99C963.848 2055.44 980.212 2052.02 993.449 2060.16C1002.47 2065.06 1014.06 2081.75 1005.38 2091.11C1115.14 2104.4 1224.46 2120.82 1333.67 2137.88C1334.52 2128.06 1335.05 2118.2 1335.27 2108.26C1277 2089.88 1219.19 2070.05 1161.72 2049.38C1149.83 2045.06 1137.96 2040.67 1126.11 2036.24C1119.03 2036.36 1111.94 2036.55 1104.86 2036.79C1077.6 2037.33 1050.45 2039.7 1023.31 2042.06C1004.9 2043.66 986.489 2045.26 968.053 2046.29C966.07 2048.08 964.028 2049.85 961.976 2051.63C958.101 2054.99 954.188 2058.39 950.557 2061.99ZM1375.19 2144.49C1375.89 2136.58 1376.39 2128.64 1376.7 2120.66C1368 2118.26 1359.36 2115.7 1350.73 2113.07C1350.45 2122.2 1349.89 2131.28 1349.09 2140.32C1357.79 2141.7 1366.49 2143.08 1375.19 2144.49ZM1241.24 1797.56C1313.76 1881.78 1352.64 1992.44 1350.94 2103.61C1359.59 2106.22 1368.27 2108.75 1376.98 2111.16C1379.73 1991.7 1336.36 1872.84 1255.88 1784.2C1251 1788.66 1246.11 1793.1 1241.24 1797.56ZM1279.91 1762.33C1318.57 1805.02 1349.33 1853.7 1371.47 1907.32C1403 1983.22 1415.3 2067.28 1407.56 2149.63L1408.23 2149.74C1433.17 2153.65 1458.13 2157.56 1482.88 2162.33C1488.26 2162.75 1493.72 2162.32 1498.85 2160.59C1459.16 1996.38 1420.71 1831.5 1386.51 1665.94C1350.88 1697.97 1315.34 1730.08 1279.91 1762.33ZM1508.94 2167.51C1508.53 2166.35 1508.17 2165.14 1507.87 2163.94C1508.22 2165.13 1508.57 2166.32 1508.94 2167.51ZM1620.85 2102.03C1626.92 2085.94 1644.82 2079.12 1655.4 2095.29C1669.6 2125.4 1614.18 2130.22 1620.85 2102.03ZM1606.47 2111.42C1606.29 2101.75 1606.6 2091.59 1610.27 2082.59C1606.19 2082.46 1603.39 2077.55 1605.45 2074.11C1589.35 2071.62 1573.31 2068.75 1557.37 2065.5C1555.94 2065.54 1553.57 2064.87 1550.97 2064.13C1544.71 2062.37 1537.06 2060.21 1537.73 2066.47C1537.95 2087.47 1543.6 2107.51 1549.25 2127.54C1552.43 2138.83 1555.61 2150.12 1557.82 2161.58C1573.16 2153.06 1588.61 2144.78 1604.2 2136.7C1606.35 2135.85 1608.4 2134.55 1610.46 2133.24C1614.37 2130.75 1618.3 2128.26 1622.95 2128.9C1616.84 2126.6 1611.74 2122.77 1609.13 2116.32C1607.61 2115.43 1606.51 2113.81 1606.47 2111.42ZM1533.8 2060.4C1533.42 2060.31 1533.03 2060.23 1532.65 2060.14C1532.87 2060.5 1533.07 2060.88 1533.27 2061.25C1533.43 2060.95 1533.61 2060.67 1533.8 2060.4ZM1404.33 1502.2C1390.97 1500.77 1377.62 1499.22 1364.27 1497.63C1375.17 1554.56 1388.19 1611.03 1401.2 1667.5C1414.93 1727.1 1428.66 1786.71 1439.91 1846.86C1440.49 1849.71 1441.06 1852.57 1441.63 1855.43C1462.25 1958.18 1482.9 2061.13 1513.32 2161.59C1513.78 2163.04 1514.21 2164.51 1514.65 2165.99C1517.14 2174.4 1519.68 2182.97 1526.24 2189.3C1534.18 2195.32 1544 2196.28 1548.72 2186.84C1550.34 2181.2 1549.22 2175.58 1548.07 2169.85C1547.9 2168.97 1547.72 2168.08 1547.55 2167.19C1544.5 2152.5 1542 2137.61 1539.49 2122.72C1535.87 2101.22 1532.25 2079.73 1527.01 2058.86C1493.32 2052.43 1487.74 2047.15 1489.8 2012.91L1489.82 2012.54C1490.64 1998.87 1491.46 1985.07 1494.1 1971.62C1495.81 1963.53 1498.72 1955.59 1502.39 1947.99C1502.55 1943.26 1502.86 1938.55 1503.32 1933.87C1495.69 1933.96 1493.79 1925.93 1492.09 1918.72C1491.45 1915.98 1490.83 1913.37 1489.93 1911.36C1489.56 1910.08 1489.17 1908.8 1488.79 1907.52C1486.91 1901.17 1485.02 1894.83 1483.17 1888.48C1445.83 1762.18 1417.7 1632.97 1404.33 1502.2ZM1463.45 1748.1C1463.53 1748.09 1463.61 1748.19 1463.57 1748.26C1462.9 1749.56 1461.6 1748.82 1461.12 1747.73C1474.72 1805.3 1488.34 1862.9 1505.13 1919.66C1513.47 1866.95 1537.64 1819.6 1561.8 1772.26C1576.57 1743.32 1591.34 1714.38 1602.49 1684.22C1589.66 1690.17 1576.82 1696.22 1563.96 1702.27C1530.55 1718 1497.04 1733.77 1463.45 1748.1ZM1463.45 1748.1C1463.44 1748.11 1463.43 1748.11 1463.42 1748.12C1463.43 1748.11 1463.44 1748.11 1463.45 1748.1ZM1495.49 1696.68C1482.27 1703.67 1469.05 1710.65 1455.89 1717.7C1455.38 1717.87 1454.84 1717.89 1454.32 1717.8C1456.47 1727.52 1458.67 1737.24 1460.93 1746.94C1461.02 1745.04 1463.61 1743.76 1465.5 1742.82C1466.01 1742.57 1466.46 1742.34 1466.81 1742.14C1482.74 1733.05 1499.2 1724.91 1515.65 1716.78C1517.46 1715.88 1519.28 1714.98 1521.1 1714.08C1529.16 1710.12 1537.22 1706.14 1545.27 1702.16C1565.73 1692.05 1586.18 1681.95 1606.76 1672.12C1611.56 1657.88 1615.23 1643.33 1618.75 1628.72C1578.54 1652.78 1536.98 1674.75 1495.49 1696.68ZM1418.4 1517.05C1418.92 1521.14 1419.44 1525.19 1420.63 1529.18C1423.79 1576.04 1433.79 1622.27 1443.77 1668.36C1446.71 1681.95 1449.64 1695.53 1452.4 1709.1C1461.93 1703.53 1471.97 1698.95 1482.03 1694.37C1492.23 1689.72 1502.44 1685.07 1512.12 1679.37C1493.48 1688.61 1474.81 1697.79 1455.91 1706.43C1488.88 1687.97 1523 1671.01 1557.11 1654.05C1578.28 1643.52 1599.45 1632.99 1620.34 1622.11C1621.75 1616.16 1623.16 1610.22 1624.63 1604.29C1618.96 1603.58 1613.94 1601.65 1609.09 1598.56C1557.46 1569.55 1508 1537.62 1460.41 1502.56C1453.31 1504.68 1445.55 1505.3 1438.05 1505.17C1431.09 1506.54 1424.01 1507.44 1416.94 1507.79C1417.62 1510.89 1418.01 1513.98 1418.4 1517.05ZM1575.26 1971.06C1594.95 1955.12 1616.05 1939.31 1640.6 1931.57C1638.87 1922.22 1639.5 1912.33 1643.11 1903.52C1586.71 1903.49 1550.34 1908.62 1514.6 1955.35C1514.92 1956.27 1515.88 1956.78 1516.73 1957.23C1517.77 1957.78 1518.64 1958.24 1517.97 1959.25C1531.48 1976.49 1556.92 1988.25 1575.26 1971.06ZM1264.3 1518.72C1268.13 1508.57 1274.5 1499.37 1284.98 1495.03C1285.97 1494.56 1286.99 1494.12 1288 1493.71C1260.52 1491.94 1233.45 1487.99 1206.62 1481.76C1207.06 1483.61 1207.43 1485.49 1207.81 1487.38C1208.94 1493.11 1210.09 1498.9 1213.05 1504.04C1226.59 1499.91 1235.12 1506.56 1242.32 1517.16C1247.75 1523.42 1259.61 1528.56 1264.3 1518.72ZM1170.79 1213.13C1167.26 1219.07 1164.47 1225.36 1162.39 1231.86C1158.16 1245.14 1156.94 1259.29 1158.58 1273.16C1257.72 1211.12 1380.02 1195.58 1494.24 1217.23C1522.93 1221.32 1552.14 1223.45 1580.98 1219.53C1576.42 1193.84 1578.63 1167.44 1580.82 1141.41C1581.26 1136.17 1581.69 1130.94 1582.08 1125.73C1583.26 1108.15 1585.24 1089.16 1597.55 1075.36C1534.26 1064.09 1471.07 1043.78 1417.04 1008.85C1340.79 958.736 1328.67 897.398 1313.09 818.519C1312.04 813.164 1310.96 807.727 1309.85 802.208C1302.58 862.876 1289.87 901.569 1272.79 953.54C1269.57 963.364 1266.18 973.661 1262.65 984.671C1251.09 1017.49 1236.3 1047.61 1221.62 1077.48C1200.66 1120.15 1179.94 1162.34 1169.22 1211.21C1170.19 1210.85 1171.41 1212.1 1170.79 1213.13ZM1483.28 567.433C1401.25 561.612 1348.43 572.171 1329.14 648.056C1302.43 757.171 1328.22 859.564 1379.23 959.247C1425.92 1025.54 1513.17 1043.11 1590.35 1058.65C1592.91 1059.16 1595.46 1059.68 1598 1060.19C1601.46 1057.41 1610.27 1060.56 1618.67 1063.56C1624.71 1065.73 1630.55 1067.81 1634.02 1067.56C1634.5 1067.03 1634.97 1066.38 1635.49 1065.93C1634.48 1066.81 1634.49 1066.81 1634.81 1066.47C1635.13 1066.15 1635.75 1065.52 1636.05 1065.08C1640.8 1058.12 1644.24 1050.22 1647.57 1042.53L1647.57 1042.52C1647.58 1042.5 1647.59 1042.47 1647.61 1042.45C1647.61 1042.42 1647.62 1042.4 1647.64 1042.37C1651.43 1033.46 1654.82 1026.51 1658.21 1019.56C1661.6 1012.62 1664.99 1005.68 1668.78 996.785C1516.09 963.917 1396.98 854.779 1439.09 701.883C1439.3 701.278 1440.23 701.362 1440.24 702.037C1440.27 707.698 1440.2 713.357 1440.13 719.016C1439.98 730.807 1439.83 742.594 1440.58 754.391C1445.68 865.122 1512.73 917.816 1617.13 962.664C1605.82 893.241 1580.88 842.082 1557.18 793.44C1524.08 725.53 1493.37 662.526 1505.46 561.571C1498.89 565.221 1491.14 566.824 1483.28 567.433ZM1650.93 595.195C1625.07 638.812 1552.02 635.311 1518.63 601.804C1515.7 598.744 1513.04 595.34 1510.8 591.721C1513.89 680.058 1540.88 734.286 1569.39 791.561C1591.97 836.938 1615.5 884.227 1628.86 951.906C1630.86 929.25 1632.72 908.708 1634.44 889.637C1644.09 783.005 1649.58 722.36 1650.93 595.195ZM1708.89 612.617C1694.37 601.791 1678.81 592.24 1662.04 585.093L1661.62 584.878C1659.37 583.742 1657.06 582.578 1654.77 581.346C1668.09 700.635 1662.1 769.983 1654.06 863.241C1651.23 896.042 1648.15 931.799 1645.56 973.728C1657.98 977.857 1670.69 981.195 1683.59 983.666C1690.76 985.046 1690.86 994.846 1685.96 998.227C1685.5 999.057 1685.03 997.698 1684.6 996.425C1684.19 995.234 1683.81 994.117 1683.48 994.93C1683.5 994.876 1683.53 994.792 1683.58 994.662C1682.22 997.877 1680.97 1001.14 1679.72 1004.39C1689.61 1006.59 1699.26 1009.85 1708.89 1013.1C1720.49 1017.02 1732.06 1020.93 1743.99 1022.96C1735.57 1016.16 1727.12 1009.15 1720.34 1000.7C1717.87 997.255 1715.74 996.566 1713.2 995.743C1711.35 995.144 1709.28 994.473 1706.69 992.61C1706.57 995.323 1706.44 997.045 1706.33 998.453C1706.13 1001.15 1706.01 1002.7 1706.2 1007.87C1706.35 1011.93 1700.35 1011.74 1699.93 1007.87C1699.22 1003.36 1698.52 999.054 1697.85 994.878C1694.13 971.976 1691.08 953.136 1691.39 928.02C1691.41 917.95 1691.41 908.359 1691.4 899.158C1691.35 813.619 1691.32 761.677 1713.24 670.155C1713.42 669.686 1714.03 669.786 1714.09 670.269C1714.92 676.575 1714.66 682.913 1714.4 689.252C1714.35 690.429 1714.3 691.605 1714.26 692.782C1712.82 715.286 1711.33 735.063 1709.96 753.348C1705.26 816.067 1701.87 861.219 1706.05 938.595C1706.79 943.425 1706.67 949.225 1706.55 955.234C1706.28 968.109 1706 981.945 1714.1 989.26C1724.71 1000.92 1737.46 1006.63 1750.89 1012.64C1757.69 1015.68 1764.67 1018.8 1771.63 1022.82C1773.65 1024.39 1776.07 1023.9 1778.47 1023.42C1779.37 1023.24 1780.27 1023.06 1781.15 1022.99C1786.89 1022 1792.49 1021.39 1798.24 1022.76C1812.14 1026.13 1821.76 1037.7 1829.89 1048.53C1840.57 1042.24 1852.84 1040.58 1865.14 1038.91C1874.06 1037.7 1882.98 1036.5 1891.32 1033.52C1890.58 1031.71 1889.97 1029.85 1889.58 1027.97C1738.08 951.886 1740.96 905.324 1753.05 757.483C1753.23 748.73 1753.44 741 1753.63 733.917C1754.47 702.548 1754.98 683.876 1751.28 645.272C1748.49 631.397 1737.63 626.712 1726.1 621.738C1720.21 619.196 1714.15 616.577 1708.89 612.617ZM1901.63 1029.52C1903.75 1033.98 1906.32 1039.42 1900.18 1041.7C1887.57 1046.34 1874.27 1047.72 1860.95 1049.1C1851.72 1050.06 1842.48 1051.02 1833.45 1053.06C1834.24 1054.13 1835.55 1055.44 1836.99 1056.87C1841.81 1061.68 1848.05 1067.91 1840.75 1071.55C1841.1 1072.33 1841.45 1073.12 1841.78 1073.92C1857.03 1071.99 1872.33 1070.42 1887.64 1068.85C1897.8 1067.81 1907.97 1066.77 1918.11 1065.62C1909.59 1053.61 1905.08 1039.24 1904.52 1024.63C1903.99 1026.34 1902.74 1027.89 1901.31 1028.83C1901.41 1029.06 1901.52 1029.29 1901.63 1029.52ZM2113.61 1106.98C2062.38 1068.63 2006.62 1026.88 1939.07 1029.66C1931.64 1029.55 1923.89 1029.54 1916.44 1030.37C1917.34 1039.7 1920.76 1048.8 1925.67 1056.81C1986.55 1046.88 2040.32 1081.68 2080.74 1122.91C2099.85 1137.23 2124.93 1139.04 2148.1 1139.72C2147.25 1135.32 2146.4 1130.91 2145.54 1126.5L2145.26 1125.07C2137.59 1125.6 2131.76 1120.86 2126 1116.18C2123.48 1114.14 2120.99 1112.11 2118.35 1110.53C2116.78 1109.35 2115.2 1108.17 2113.61 1106.98ZM1990.25 1001.6C1984.27 988.639 1963.53 994.98 1953.32 999.354C1951.11 1000.63 1949.33 1002.04 1948.03 1003.93C1951.02 1004.94 1953.1 1007.99 1953.07 1010.96C1965.8 1012.96 1978.75 1013.95 1991.65 1013.71C1992.07 1009.84 1991.95 1006.54 1990.86 1003.3C1990.87 1003.32 1990.21 1001.6 1990.25 1001.6ZM2075.17 1134.27C2075.07 1134.37 2074.97 1134.47 2074.86 1134.57C2072.9 1136.31 2070.96 1138.16 2069 1140.02C2067.6 1141.36 2066.18 1142.7 2064.75 1144.02C2073.45 1145.92 2082.46 1144.95 2091.3 1144.01C2091.89 1143.94 2092.47 1143.88 2093.05 1143.82C2086.71 1141.34 2080.72 1138.2 2075.17 1134.27ZM1714.13 1117.19C1715.59 1116.64 1717.06 1115.93 1718.55 1115.14C1717.89 1114.59 1717.23 1114.03 1716.57 1113.47C1712.09 1109.67 1707.61 1105.87 1702.98 1102.28C1702.62 1108.4 1708.14 1112.69 1712.62 1116.17C1712.82 1116.33 1713.02 1116.48 1713.22 1116.64C1713.52 1116.83 1713.82 1117.02 1714.13 1117.19ZM1821.78 1055.48C1813.32 1044.01 1804.63 1032.21 1789.39 1031.91C1789.84 1032.14 1790.28 1032.39 1790.71 1032.64C1782.66 1029.86 1774.44 1030.98 1766.27 1032.1C1761.31 1032.77 1756.37 1033.44 1751.49 1033.24C1737.05 1032.07 1723.9 1027.03 1710.76 1022C1699.76 1017.78 1688.76 1013.57 1677.02 1011.63C1675.61 1015.41 1674.23 1019.21 1672.85 1023.01C1666.68 1040.01 1660.49 1057.09 1651.45 1072.75C1680.75 1068.08 1706.33 1089.22 1727.59 1106.79C1728.46 1107.5 1729.31 1108.2 1730.16 1108.9C1730.29 1108.85 1730.42 1108.79 1730.56 1108.73C1730.69 1108.68 1730.82 1108.62 1730.95 1108.57C1733.2 1111.09 1736.18 1112.61 1739.09 1114.09C1739.57 1114.33 1740.05 1114.58 1740.53 1114.82C1740.56 1116.53 1742.3 1117.11 1743.94 1117.66C1744.69 1117.91 1745.41 1118.15 1745.95 1118.49C1745.89 1118.57 1745.84 1118.66 1745.79 1118.75C1745.73 1118.86 1745.66 1118.97 1745.59 1119.07C1751.3 1120.68 1756.68 1118.76 1762.28 1116.76C1762.58 1116.65 1762.88 1116.54 1763.18 1116.43C1772.04 1113.04 1781.08 1109.97 1790.11 1106.9C1803.99 1102.19 1817.87 1097.48 1831.13 1091.57C1835.64 1087.93 1833.78 1083.21 1832.01 1078.72C1830.44 1074.71 1828.94 1070.89 1832.06 1068.17C1828.41 1064.47 1825.12 1060 1821.78 1055.48ZM1649.27 1075.97C1645.66 1080.82 1640.98 1084.55 1634.19 1084.85C1632.51 1084.93 1630.83 1084.8 1629.18 1084.56C1628.83 1091.73 1628.38 1098.93 1627.92 1106.14C1626.05 1135.92 1624.16 1165.94 1629.82 1195.32C1652.23 1200.2 1674.96 1203.74 1697.86 1205.37C1698.8 1178.32 1697.66 1151.23 1695.57 1124.25C1688.98 1116.32 1684.26 1103.07 1696.1 1097.18C1682.11 1087 1665.87 1080.66 1649.27 1075.97ZM1598.52 1145.99C1597.66 1162.72 1596.8 1179.46 1597.63 1196.22C1597.47 1198.79 1597.91 1201.91 1598.37 1205.16C1599.47 1212.95 1600.69 1221.51 1594.05 1225.15C1592.98 1230.76 1577.31 1232.16 1567.62 1233.02C1565.12 1233.25 1563.02 1233.43 1561.67 1233.65C1585.95 1235.77 1609.34 1242.34 1632.72 1248.9C1643.22 1251.85 1653.72 1254.8 1664.29 1257.34C1652.4 1245.94 1640.98 1230.61 1643.72 1213.41C1618.48 1210 1612.39 1207.27 1612.4 1180.83C1610.81 1148.37 1612.23 1114.04 1624.92 1083.69C1618.91 1081.96 1613.2 1080.4 1607.08 1078.75C1600.37 1092.87 1599.92 1108.64 1599.47 1124.05C1599.4 1126.57 1599.32 1129.09 1599.22 1131.58C1599.02 1136.38 1598.77 1141.18 1598.52 1145.99ZM2125.85 1336.77C2114.84 1274.02 2121.22 1242.73 2157.84 1190.44C2155.38 1177.7 2152.93 1164.96 2150.5 1152.21C2141.69 1152.98 2132.5 1151.83 2123.48 1150.7C2119.49 1150.21 2115.52 1149.71 2111.64 1149.39C2107.07 1149.72 2102.42 1150.34 2097.74 1150.95C2084.3 1152.72 2070.63 1154.52 2057.83 1149.89C2042.63 1164.67 1954.9 1138.06 1932.96 1131.15C1927.24 1129.25 1921.48 1127.45 1915.71 1125.64C1891.4 1118.02 1867.05 1110.39 1845.9 1095.72C1841.72 1093.02 1845.63 1086.39 1849.83 1089.1C1859.18 1095.13 1868.96 1100.46 1879.14 1104.96C1918.75 1119.68 1960.13 1128.3 2001.46 1136.9C2011.28 1138.94 2021.09 1140.99 2030.87 1143.11C2033.07 1143.29 2035.4 1143.93 2037.76 1144.57C2043.02 1146.01 2048.41 1147.49 2052.71 1143.94C2056.49 1140.7 2060.2 1137.36 2063.91 1134.03C2065.6 1132.51 2067.3 1130.98 2069 1129.47C2032.01 1089.37 1983.46 1064.35 1928.06 1060.77C1936.47 1075.01 1919.84 1077.84 1908.96 1077.92C1898.95 1079.03 1888.97 1080.27 1878.99 1081.51C1867.57 1082.93 1856.16 1084.35 1844.71 1085.58C1845.86 1098.25 1833.25 1104.22 1822.79 1107.33C1805.46 1113.75 1788.14 1120.17 1770.81 1126.58C1759.34 1131.68 1745.85 1135.08 1734.65 1127.5C1733.57 1128.06 1732.48 1128.65 1731.37 1129.26C1724.44 1133.03 1716.94 1137.11 1709.03 1134.62C1710.98 1160.44 1710.97 1186.33 1710.55 1212.2C1710.51 1215.62 1707.59 1218.66 1704.05 1218.6C1685.06 1218.27 1666.07 1216.86 1647.29 1213.97C1652.45 1224.8 1661.39 1232.88 1670.18 1240.82C1672.82 1243.21 1675.46 1245.59 1677.97 1248.03C1679.55 1249.65 1681.37 1251.17 1683.2 1252.7C1687.3 1256.12 1691.46 1259.6 1693.24 1264.5C1763.8 1282.32 1834.17 1307.36 1894.78 1347.77C1922.22 1366.48 1912.38 1397.9 1900.85 1422.94C1889.11 1452.49 1877.07 1481.92 1864.76 1511.25C1932.2 1471.48 2001.13 1434.18 2070.04 1396.89C2093.98 1383.94 2117.91 1370.99 2141.77 1357.94C2131.83 1356.02 2127.13 1345.76 2125.85 1336.77ZM1837.69 1576.81C1837.81 1576.75 1837.93 1576.68 1838.04 1576.62C1837.88 1576.66 1837.72 1576.71 1837.56 1576.75C1837.21 1576.85 1836.87 1576.94 1836.53 1577.04C1836.49 1577.14 1836.45 1577.24 1836.41 1577.34L1836.31 1577.55C1836.77 1577.3 1837.23 1577.06 1837.69 1576.81ZM2170.12 1387.66C2169.61 1384.71 2169.09 1381.76 2168.5 1378.81C2167.19 1372.44 2165.99 1365.36 2167.89 1358.96C2161.28 1357.49 2154.75 1356.66 2148.02 1358.28C2105.88 1387.49 2060.67 1412.06 2015.52 1436.6C1999.87 1445.1 1984.23 1453.6 1968.73 1462.29C1962.02 1466.04 1955.31 1469.77 1948.6 1473.51C1919.36 1489.8 1890.1 1506.09 1861.45 1523.36C1854.92 1531.95 1850.78 1542.73 1846.64 1553.51C1843.9 1560.65 1841.17 1567.78 1837.74 1574.27C1838.73 1573.87 1839.72 1573.48 1840.71 1573.09C1863.19 1564.17 1885.89 1555.16 1906.47 1542.46C1908.77 1541.99 1914.52 1538.45 1920.72 1534.65C1930.2 1528.83 1940.72 1522.37 1941.57 1525.19C1995.87 1498.4 2049.33 1470.02 2102.31 1440.81C2113.37 1434.74 2124.39 1428.62 2135.38 1422.44C2138.23 1421.2 2142.43 1418.57 2147.07 1415.65C2156.63 1409.63 2168.08 1402.44 2173.48 1403.97C2172.02 1398.58 2171.07 1393.12 2170.12 1387.66ZM1743.11 1980.47C1743.98 1980.36 1744.86 1980.25 1745.74 1980.15C1745.59 1980.06 1745.45 1979.97 1745.3 1979.88C1744.57 1980.06 1743.83 1980.26 1743.11 1980.47ZM1742.09 1969.18C1742.23 1968.61 1742.48 1968.08 1742.85 1967.59C1851.31 1835.72 1978.08 1719.73 2104.42 1604.13C2138.29 1573.14 2172.12 1542.17 2205.57 1510.94C2203.78 1505.49 2201.97 1500.05 2200.15 1494.61C2191.03 1467.22 2181.91 1439.82 2175.42 1411.7C2083.26 1468.74 1984.63 1516.65 1885.84 1561.86C1914.52 1587.78 1900.88 1628.63 1883.31 1656.86C1867.01 1686.1 1850.53 1715.25 1834.05 1744.4C1826.07 1758.52 1818.09 1772.65 1810.12 1786.78C1790.08 1820.07 1772.15 1854.45 1754.22 1888.83C1746.74 1903.17 1739.26 1917.51 1731.62 1931.77C1730.71 1933.14 1729.8 1934.7 1728.86 1936.32C1724.84 1943.23 1720.14 1951.3 1711.8 1950.76C1718.45 1956.31 1726.18 1957.2 1734.55 1955.5C1737.86 1955.12 1738.48 1960.47 1735.32 1961.16C1733.7 1961.51 1732.08 1961.84 1730.46 1962.15L1734.4 1964.53C1736.96 1966.08 1739.53 1967.63 1742.09 1969.18ZM2177.57 1292.06C2176.51 1286.6 2175.45 1281.14 2174.39 1275.68C2172.9 1268.03 2171.41 1260.38 2169.93 1252.73C2166.42 1234.68 2162.91 1216.63 2159.42 1198.58C2157.75 1201.97 2156.04 1205.36 2154.33 1208.74C2143.54 1230.14 2132.71 1251.59 2132.96 1276.17C2132.48 1293.06 2134.63 1310 2137.03 1326.69C2137.16 1327.63 2137.28 1328.65 2137.4 1329.73C2137.95 1334.71 2138.63 1340.78 2141.93 1344.17C2145.03 1346.4 2148.81 1345.71 2152.67 1345C2155.79 1344.43 2158.95 1343.85 2161.86 1344.78C2162.71 1344.92 2163.61 1345.2 2164.55 1345.48C2166.85 1346.17 2169.31 1346.91 2171.36 1345.86C2176.63 1341.93 2178.55 1335.57 2180.43 1329.34C2181.27 1326.55 2182.11 1323.78 2183.24 1321.27C2181.36 1311.53 2179.47 1301.8 2177.57 1292.06ZM2189.25 1345.67C2189 1345.29 2188.76 1344.91 2188.55 1344.53C2188.23 1345.19 2187.88 1345.84 2187.53 1346.49C2188.09 1346.19 2188.66 1345.92 2189.25 1345.67ZM2223.37 1364.08C2223.22 1363.3 2223.09 1362.52 2222.97 1361.74C2222.72 1361.61 2222.48 1361.46 2222.26 1361.31C2222.63 1362.23 2223 1363.16 2223.37 1364.08ZM2471.21 1391.63C2399.26 1404.9 2322.89 1390.06 2253.77 1369.08C2245.15 1366.23 2236.6 1363.11 2228.22 1359.61C2237.79 1396.78 2249.18 1433.5 2260.56 1470.23C2269.52 1499.12 2278.48 1528.01 2286.56 1557.13C2291.05 1559.15 2291.79 1565.94 2288.61 1569.33C2298.44 1571.84 2303.93 1581.41 2309.06 1590.34C2310.7 1593.19 2312.3 1595.98 2313.99 1598.45C2379.05 1540.11 2441.62 1474.93 2471.21 1391.63ZM2491.31 1045.75C2492.26 1042.94 2487.75 1041.73 2486.8 1044.53C2466.06 1112.78 2448.49 1182.19 2433.24 1251.82C2430.34 1261.42 2438.06 1260.91 2437.38 1256.04C2451.83 1185.26 2471 1115.13 2491.31 1045.75ZM593.077 1616.46C594.776 1618.19 596.856 1619.51 599.418 1620.15C600.4 1620.4 601.397 1620.57 602.41 1620.66C600.137 1619.99 597.963 1618.26 596.567 1616.06C595.438 1616.39 594.246 1616.52 593.077 1616.46ZM581.377 1572.62C581.478 1571.08 581.618 1569.55 581.79 1568.03C581.862 1567.39 581.927 1566.71 581.994 1566C582.302 1562.75 582.665 1558.91 584.103 1556.2C582.273 1556.91 580.45 1557.64 578.619 1558.39C579.733 1563.09 580.59 1567.85 581.377 1572.62Z" fill="black"/>
<path fill-rule="evenodd" clip-rule="evenodd" d="M1440.07 212.493C1444.65 207.575 1450.51 203.912 1456.92 202.741C1451.07 205.667 1445.34 208.716 1440.07 212.493ZM1431.09 254.898C1430.28 251.15 1429.74 247.366 1429.57 243.583C1430.59 245.14 1432.23 246.18 1434.06 246.717C1432.88 249.374 1431.87 252.112 1431.09 254.898ZM1737.76 313.659C1732.47 291.64 1707.79 249.285 1701.96 241.133C1695.62 220.948 1730.17 204.761 1711.38 188.977C1702.88 181.855 1691.63 179.334 1681.09 176.809C1608.07 159.272 1529.61 168.116 1461.89 200.364C1451.58 198.196 1440.85 202.433 1433.36 209.874C1398.17 245.248 1446.13 309.072 1456.62 348.95C1474.61 393.417 1437.54 400.896 1441.52 438.519C1444.61 457.956 1464.29 463.093 1480.91 466.03C1483.57 466.653 1487.13 466.747 1487.99 469.562C1490.68 485.991 1499.91 501.648 1512.3 512.274C1511.21 515.483 1512.04 519.38 1515.86 522.199C1550.48 547.921 1594.12 560.794 1637.29 558.48C1688.74 555.722 1715.35 526.234 1721.77 518.641C1757.26 470.702 1753.02 407.45 1745.78 350.318C1740.74 310.519 1747.13 352.667 1737.76 313.659Z" fill="white"/>
<path fill-rule="evenodd" clip-rule="evenodd" d="M1579.12 130.432C1580.74 125.377 1585.32 122.337 1590.56 122.964C1595.2 123.512 1600.16 128.116 1599.6 133.198C1599.49 134.179 1599.35 135.098 1599.18 135.964L1599.2 135.972V135.972L1599.23 135.973L1599.11 136.309C1598.77 137.926 1598.29 139.375 1597.58 140.745C1596.68 143.37 1595.82 146.003 1594.96 148.645C1596.2 148.592 1597.46 148.663 1598.74 148.902C1600.07 145.508 1601.4 142.123 1602.73 138.721C1604.15 135.089 1605.15 130.423 1607.96 127.613C1611.55 124.025 1617.79 123.283 1622.18 125.845C1626.81 128.55 1628.46 133.357 1627.45 138.509C1626.94 141.137 1625.18 142.966 1623.01 144.115L1622.78 144.236L1621.11 148.195C1621.62 147.974 1622.15 147.77 1622.72 147.603C1623.63 147.337 1624.51 147.17 1625.38 147.099C1627.76 142.777 1630.39 138.58 1633.1 134.462C1636.22 129.725 1642.32 127.71 1647.43 130.706C1652.01 133.383 1654.47 140.418 1651.19 145.04C1648.7 148.548 1646.34 152.127 1644.01 155.742C1644.41 155.812 1644.81 155.901 1645.19 156.016C1645.37 155.777 1645.55 155.538 1645.75 155.3C1648.28 152.154 1651.23 149.794 1654.26 147.178C1657.1 144.722 1658.41 140.86 1662.14 138.995C1666.83 136.653 1672.49 137.776 1675.28 142.442C1681.27 152.436 1671.21 159.736 1664.78 165.79C1670.37 162.299 1676.2 159.109 1682.17 156.351C1685.53 154.805 1688.94 153.311 1692.41 152.021C1697.54 150.112 1701.69 150.723 1705.91 154.275C1707.79 155.865 1708.73 159.339 1707.86 161.654C1706.18 166.09 1703.53 168.785 1698.88 170.067C1695.61 170.968 1692.26 171.578 1688.99 172.523C1683.52 174.096 1678.2 176.014 1673.03 178.409C1673.41 178.639 1673.76 178.886 1674.09 179.169C1677.94 177.923 1681.86 176.845 1685.8 175.926C1692.34 174.393 1698.99 173.357 1705.68 172.71L1707.9 172.503C1715.91 171.734 1725.54 170.315 1730.46 177.985C1732.08 180.512 1732.25 184.683 1730.46 187.184C1727.03 191.992 1723.62 192.946 1717.95 193.035C1723.53 193.627 1729.11 194.36 1734.66 195.217C1738.48 195.801 1742.31 196.462 1746.12 197.195L1748.02 197.568C1752.66 198.496 1757.84 199.035 1761.82 201.722C1770.52 207.59 1766.44 219.016 1756.8 220.236C1752.15 220.819 1746.98 218.848 1742.41 217.929C1737.97 217.036 1733.52 216.25 1729.05 215.561C1726.73 215.198 1724.41 214.88 1722.09 214.589C1726.82 215.269 1731.51 216.232 1736.08 217.593L1737.35 217.976C1746.18 220.668 1758.1 224.955 1760.86 234.393C1762.53 240.128 1757.96 245.13 1752.43 245.466C1747.29 245.775 1743 242.709 1738.63 240.446C1735.45 238.803 1732.22 237.574 1728.79 236.523C1725.25 235.436 1721.63 234.534 1717.99 233.801C1721.07 235.496 1724.06 237.359 1726.94 239.443L1728.26 240.42C1735.91 246.117 1747.57 254.936 1744.87 265.615C1744.02 268.982 1740.27 272.198 1736.66 271.854C1727.28 270.979 1722.1 260.984 1715.02 255.629C1713.17 254.232 1711.15 252.854 1709.03 251.51C1719.76 264.307 1728.29 279.1 1734.79 294.38C1749.06 327.995 1753.44 359.125 1753.55 395.268L1753.55 396.388C1753.57 416.324 1753.12 436.623 1751.17 456.472C1749.37 474.809 1746.07 492.908 1737.75 509.514C1723.81 537.359 1696.66 559.045 1666.71 567.299C1633.38 576.49 1596.13 569.305 1568.84 548.096C1561.87 542.688 1571.11 530.944 1578.22 535.936C1606.63 555.864 1643.38 562.174 1675.99 548.688C1701.85 537.995 1722.68 514.992 1731.51 488.507C1737.13 471.657 1738.77 453.692 1740.77 436.132L1740.9 434.962C1743.03 416.598 1744.25 398.111 1744.24 379.623C1744.21 345.291 1739.28 317.029 1724.18 285.887C1717.07 271.217 1707.85 257.653 1696.84 245.749C1693.5 246.429 1689.95 245.475 1686.57 245.112C1684.85 244.927 1683.13 244.75 1681.4 244.591C1683.16 245.729 1684.89 246.913 1686.59 248.124L1688.81 249.729C1695.78 254.717 1704.62 260.399 1702.83 270.042C1702.34 272.649 1699.74 275.044 1697.22 275.636C1688.09 277.81 1681.82 268.937 1675.65 263.67C1670.29 259.093 1664.67 254.992 1658.96 250.883C1657.66 249.955 1656.35 249.027 1655.03 248.108C1656.27 249.55 1657.47 251.015 1658.65 252.494L1660.38 254.693C1665.63 261.264 1673.21 269.805 1668.53 278.323C1667.2 280.726 1664.37 282.326 1661.63 282.273C1652.21 282.078 1648.47 271.385 1644.05 264.634C1640.25 258.845 1636.12 253.393 1631.85 247.94C1630.68 246.447 1629.49 244.953 1628.29 243.46C1608.51 244.485 1588.79 247.101 1569.42 251.281C1556.11 254.153 1543.02 257.874 1530.03 261.947L1528.95 262.291C1521.92 264.554 1514.68 267.451 1509.61 272.419C1508.88 275.842 1509.44 279.452 1510.13 282.87L1510.67 285.487C1512.89 296.428 1514.41 307.166 1513.28 318.399C1512.1 329.985 1508.61 340.404 1504.35 351.168C1502.34 356.24 1500.25 355.321 1499.53 360.765C1498.99 364.911 1499.32 369.192 1499.7 373.373L1500.01 376.918C1500.8 386.203 1501.19 396.326 1495.11 403.988C1494.16 405.163 1492.14 404.695 1491.47 403.519C1491.2 403.051 1490.92 402.6 1490.61 402.167C1487.67 397.916 1483.18 395.495 1478.03 394.558C1477.38 394.443 1477.64 393.569 1478.18 393.498C1482.53 392.985 1486.65 394.072 1490.15 396.317C1488.49 390.578 1475.64 393.369 1471.42 394.484L1471.27 394.523C1466.01 395.937 1461.02 398.235 1456.63 401.487C1447.79 408.026 1442.68 418.224 1442.94 429.209C1443.2 440.008 1448.77 449.985 1458.35 455.155C1462.97 457.647 1468.23 458.849 1473.46 458.796C1478.93 458.743 1483.79 456.348 1489.26 456.684C1492.42 456.878 1494.84 460.272 1493.01 463.232C1491.79 465.212 1490.2 466.767 1488.36 467.96C1492.84 478.291 1498.56 488.144 1505.15 497.238C1508.8 502.284 1512.94 506.941 1517.49 511.192C1521.04 514.515 1528.74 518.359 1528.31 523.9C1528.16 525.897 1527.12 527.116 1525.3 527.859C1519.64 530.173 1512.76 522.205 1508.98 518.364L1508.67 518.058C1503.95 513.357 1499.65 508.161 1495.9 502.646C1489.26 492.855 1485.13 481.817 1483.42 470.223C1474.35 472.953 1462.33 470.39 1454.92 467.041C1431.65 456.525 1424.04 425.179 1438.19 404.306C1440.93 400.267 1444.35 396.812 1448.26 394.019C1447.4 393.551 1446.6 392.95 1445.88 392.19C1441.92 387.984 1439.12 382.495 1436.35 377.436L1436.01 376.831C1433.55 372.377 1431.22 367.853 1429.04 363.26L1428.23 361.534C1423.36 351.062 1419.09 346.484 1415.62 335.473C1412.28 324.85 1409.64 314.025 1407.94 303.014L1407.48 300.099C1406.5 293.71 1405.56 286.878 1406.28 280.39C1401.33 282.008 1396.34 283.006 1391.44 280.576C1388.2 278.976 1386.42 274.31 1387.52 270.961C1388.33 268.496 1389.67 266.56 1391.38 265.04C1390.36 264.528 1389.4 263.874 1388.57 263.149L1387.83 262.514V262.514C1384.86 259.932 1384.65 255.028 1386.45 251.793C1386.63 251.484 1386.81 251.166 1386.97 250.856C1388.69 247.79 1392.23 245.784 1395.73 245.837C1396.3 245.846 1396.86 245.846 1397.44 245.837C1395.8 245.475 1394.2 244.918 1392.68 243.981C1385.83 239.766 1386.69 228.339 1394.99 226.324C1398.47 225.485 1402.32 225.83 1406.15 226.731C1406.01 226.651 1405.87 226.572 1405.73 226.483C1402.83 224.707 1400.4 221.234 1400.67 217.673C1400.97 213.731 1402.25 210.921 1405.73 208.853C1408.75 207.068 1413.03 206.9 1416.03 208.853C1418.64 210.559 1421.19 212.441 1423.65 214.465C1421.18 211.434 1419.04 208.137 1418.18 204.638C1417.11 200.281 1418.89 195.536 1422.82 193.238C1425.95 191.409 1429.25 191.612 1432.2 193.026C1432.04 190.737 1432.6 188.404 1434.12 186.336C1437.23 182.095 1442.89 179.655 1447.81 182.748C1448.45 183.155 1449.32 183.853 1450.16 184.71C1448.53 179.505 1450 174.043 1455.58 171.693C1458.98 170.252 1463.58 170.977 1466.54 173.46C1464.66 163.324 1479.62 155.874 1485.44 166.346C1486.76 168.719 1488.06 171.217 1489.23 173.772L1489.66 174.733L1489.71 174.715L1489.41 174.013V174.013L1489.11 173.31C1487.49 169.554 1485.43 165.648 1484.86 161.574C1484.03 155.547 1486.72 149.83 1493.28 148.946C1496.66 148.486 1500.43 150.024 1502.7 152.711C1501.47 143.361 1511.91 136.565 1519.44 143.546C1523 146.851 1524.9 151.685 1527.16 155.927C1528.44 158.322 1529.75 160.708 1531.03 163.112C1531.36 162.723 1531.71 162.334 1532.08 161.954C1530.18 156.263 1528.71 150.43 1527.46 144.563C1526.28 139.03 1529.04 133.286 1534.75 131.723C1539.94 130.29 1546.43 133.49 1547.59 139.014C1548.4 142.901 1549.37 146.746 1550.43 150.572C1551.15 150.395 1551.87 150.271 1552.57 150.183C1552.63 149.464 1552.7 148.742 1552.78 148.023L1553.05 145.466C1553.67 139.626 1554.29 132.958 1557.35 127.993C1562.55 119.509 1575.9 123.026 1576.04 133.056C1576.12 138.244 1574.01 143.387 1573.27 148.522C1572.95 150.757 1572.77 153.02 1572.66 155.282C1574.08 147.77 1576.04 140.356 1578.3 133.056C1578.57 132.182 1578.85 131.307 1579.12 130.432ZM1463.99 420.098C1475.7 418.287 1486.4 424.817 1493.34 433.964C1494.6 435.634 1493.77 437.994 1492.63 439.399C1491.81 440.433 1490.71 440.556 1489.46 440.715C1488.03 440.901 1486.22 439.743 1485.59 438.497C1481.13 429.589 1473.16 423.96 1463.99 420.496C1463.82 420.434 1463.77 420.134 1463.99 420.098ZM1480.22 260.494L1480.58 260.113C1482.95 257.656 1479.2 253.902 1476.83 256.365C1474.33 258.957 1472.67 262.107 1471.07 265.299C1469.55 268.343 1474.12 271.031 1475.65 267.976L1476.34 266.587C1477.44 264.428 1478.6 262.295 1480.22 260.494V260.494ZM1447.34 255.45C1450.7 254.885 1449.27 249.774 1445.93 250.338C1441.6 251.068 1437.28 251.898 1432.95 252.628C1429.59 253.194 1431.02 258.305 1434.36 257.742C1438.69 257.011 1443.01 256.181 1447.34 255.45ZM1647.39 220.56C1644.14 219.477 1642.75 224.597 1645.98 225.673C1650.43 227.16 1654.86 228.685 1659.09 230.75C1662.14 232.242 1664.83 227.67 1661.76 226.172C1657.12 223.905 1652.28 222.193 1647.39 220.56ZM1446.58 213.688C1443.41 212.421 1442.03 217.547 1445.17 218.801L1456.62 223.382V223.382C1459.79 224.649 1461.16 219.523 1458.03 218.269L1446.58 213.688V213.688ZM1687.38 201.239L1686.96 200.975C1684.09 199.114 1681.43 203.702 1684.28 205.553C1685.96 206.64 1688 207.376 1689.53 208.67L1689.85 208.957C1692.33 211.299 1696.09 207.557 1693.6 205.207C1691.78 203.49 1689.48 202.533 1687.38 201.239V201.239Z" fill="black"/>
<path fill-rule="evenodd" clip-rule="evenodd" d="M1729.19 412.142C1723.24 420.135 1712.21 422.681 1702.03 421.802C1680.09 419.69 1673.18 394.768 1672.46 375.398C1687.18 379.537 1671.22 350.22 1721.52 346.997C1739.25 345.519 1734.36 356.228 1742.2 364.052C1742.04 380.474 1739.3 398.317 1729.19 412.142M1624.67 393.273C1611.71 453.943 1540.77 439.511 1533.32 384.822C1540.2 379.965 1538.39 367.972 1546.94 363.626C1560.49 354.969 1577.42 355.34 1592.81 355.543C1612.48 356.894 1618.08 365.041 1628.18 373.93C1627.7 379.867 1626.3 386.903 1624.67 393.273M1757.29 336.949C1756.56 336.828 1755.84 336.714 1755.11 336.607C1754.54 336.284 1753.87 336.036 1753.1 335.886C1751.32 335.437 1749.56 335.134 1747.81 334.97C1722.59 329.296 1664.26 337.353 1661.85 358.869C1653.82 361.55 1646.88 359.15 1637.57 359.388C1630.49 329.779 1508.02 333.958 1502.13 351.809C1502.11 351.803 1502.08 351.798 1502.06 351.791C1496.4 350.039 1488.06 350.462 1481.58 350.184C1467.75 349.894 1453.9 351.127 1440.37 354.044C1415.03 358.071 1380.44 362.786 1398.07 394.43C1398.07 394.436 1398.08 394.442 1398.08 394.447L1398.08 394.444C1401.12 397.558 1406.27 395.051 1406.47 390.836C1400.54 375.845 1413.92 374.045 1424.22 369.737C1449.84 360.532 1475.93 359.256 1502.43 362.103C1504.42 364.45 1507.45 366.497 1510.64 367.568C1528.36 370.509 1519.02 383.652 1530.22 385.563C1528.17 431.377 1583.79 456.384 1616.02 426.268C1628.88 413.687 1631.95 395.051 1634.94 378.252C1636.51 377.898 1637.52 377.035 1638.1 375.893C1641.9 372.106 1644.28 368.608 1651.78 367.568C1659.28 366.529 1665.06 368.615 1665.84 369.254C1666.04 369.651 1666.25 370.048 1666.49 370.446C1666.84 371.039 1667.3 371.512 1667.83 371.884C1660.42 417.505 1695.84 446.357 1731.6 422.695C1747.13 408.081 1750.41 385.707 1751.06 365.737C1753.17 364.466 1754.5 362.003 1753.77 358.907C1752.77 354.638 1755.12 350.942 1758.88 349.087C1763.75 346.677 1762.89 337.876 1757.29 336.949" fill="black"/>
<path fill-rule="evenodd" clip-rule="evenodd" d="M1665.27 462.642C1668.65 456.689 1678.73 457.657 1680.27 464.6C1683.39 478.674 1666.59 491.67 1653.82 491.995C1641.14 492.316 1626.9 481.535 1628.74 467.917C1629.19 464.548 1633.7 464.957 1635.24 467.07L1635.83 467.88C1640 473.477 1645.51 479.27 1653.25 477.905C1656.46 477.341 1659.38 475.339 1661.32 472.762C1663.65 469.652 1663.4 465.938 1665.27 462.642ZM1584.61 359.675C1586.33 359.202 1588.06 359.385 1589.59 360.032C1592.99 360.655 1595.83 363.486 1596.83 366.719C1596.9 366.999 1596.99 367.276 1597.09 367.549L1597.24 367.957L1596.83 366.921C1597.02 367.941 1597.85 369.014 1598.15 370.039C1598.52 371.298 1598.61 372.729 1598.49 374.115C1599.57 374.126 1600.65 374.162 1601.73 374.256L1602.77 374.349C1608.6 374.89 1615.01 375.883 1618.46 380.915C1620.4 383.743 1618.58 388.835 1615.01 389.379C1609.52 390.218 1604.79 387.184 1599.32 386.576C1594.15 386.001 1588.73 386.33 1583.63 387.263C1573.08 389.188 1563.4 393.455 1553.12 396.133L1551.73 396.487V396.487L1551.73 396.48C1549.97 396.905 1547.97 394.461 1549.71 393.031C1557.94 386.279 1568.48 380.807 1578.86 377.475C1577.35 375.073 1576.88 371.909 1577.91 369.33C1578.07 368.795 1578.27 368.276 1578.48 367.757L1578.92 366.692V366.692C1578.96 366.189 1579.06 365.693 1579.2 365.206L1579.22 365.058V365.058L1579.23 365.066V365.066C1580 362.558 1582.02 360.387 1584.61 359.675ZM1689.61 360.063C1691.86 357.814 1695.03 358.147 1697.38 359.917L1697.69 360.161V360.161C1699.9 361.143 1701.74 363.289 1702.94 365.279C1704.19 367.344 1705.02 369.448 1705.05 371.723C1710.5 371.74 1715.72 373.373 1719.72 377.766C1721.01 379.184 1721.89 381.37 1721.18 383.293L1720.76 384.436V384.436C1719.42 388.067 1713.38 390.157 1711.32 385.887L1711.23 385.679C1709.05 380.609 1700.68 381.141 1696.23 381.66C1693.13 382.022 1690.06 382.792 1687.07 383.655C1686.01 383.958 1684.97 384.288 1683.92 384.625L1682.88 384.963C1682.32 385.143 1679.42 386.717 1681.22 386.345C1681.71 386.244 1682.07 386.95 1681.58 387.187C1679.42 388.215 1677.13 386.169 1677.27 383.86C1677.52 379.852 1683.89 377.655 1686.96 376.273L1687.14 376.19C1688.32 375.647 1689.55 375.127 1690.82 374.644C1690.11 373.582 1689.52 372.402 1689.03 371.136C1688.56 369.94 1688.25 368.778 1688.08 367.507C1687.91 366.885 1687.91 366.264 1688.08 365.641L1688.11 365.463V365.463C1688.02 365.052 1687.98 364.628 1687.98 364.2L1687.97 364.034H1687.98C1688.04 362.536 1688.64 361.036 1689.61 360.063ZM1653.65 402.741C1662.3 405.41 1676.56 412.679 1672.06 423.899C1665.76 434.203 1649.07 426.63 1640.99 423.301C1633.72 420.898 1629.94 431.066 1636.96 434.131C1695.02 457.065 1694.8 396.537 1655.75 397.426C1651.45 397.523 1651.32 401.854 1653.65 402.741ZM1576.84 323.818L1578.32 323.388C1585.98 321.171 1593.81 317.342 1600.61 323.317C1603.28 325.663 1603.83 330.538 1601.92 333.464C1597.57 340.131 1591.11 339.113 1584.07 339.681C1578.72 340.114 1573.44 341.685 1568.44 343.648C1564.35 345.254 1560.56 347.515 1556.98 350.036C1553.47 352.514 1551.07 356.389 1547.46 358.62C1546.14 359.438 1544.61 358.597 1544.14 357.27C1542.46 352.565 1545.3 346.704 1547.7 342.696C1550.64 337.805 1555.1 333.805 1559.89 330.779C1565.14 327.464 1570.95 325.55 1576.84 323.818V323.818ZM1688.54 318.756C1701.49 318.752 1713.96 325.948 1721.21 336.498C1723.67 340.082 1721.86 345.391 1718.33 347.455C1714.36 349.771 1710.12 348.103 1707.51 344.784L1707.36 344.583C1703.2 339.056 1697.84 334.703 1691.49 331.87C1688.39 330.486 1684.97 329.364 1681.61 328.795L1680.53 328.61C1679.01 328.355 1677.25 328.113 1675.88 328.35C1675.14 328.447 1674.47 328.69 1673.85 329.059C1674.15 329.712 1673.37 330.499 1672.66 330.108C1669.44 328.342 1669.83 325.191 1672.49 322.743C1676.26 319.279 1683.68 318.757 1688.54 318.756Z" fill="black"/>
<path fill-rule="evenodd" clip-rule="evenodd" d="M1658.29 433.36C1648.47 428.934 1630.82 432.797 1624.41 434.332C1609.52 437.904 1594.53 445.624 1589.9 457.718C1584.68 471.347 1595.1 475.638 1596.63 474.937C1606.94 475.663 1619.22 469.181 1630.02 467.508C1638.79 466.138 1648.05 464.943 1656.27 460.282C1662.27 463.583 1675.82 465.367 1686.76 468.253C1696.07 470.71 1700.11 476.038 1708.74 474.905C1719.09 473.548 1714.86 451.779 1703.32 442.96C1690.7 433.309 1669.35 429.395 1658.29 433.36ZM1677.75 526.439C1669.16 528.535 1668.58 509.689 1667.61 503.031C1666.86 497.83 1662.62 484.416 1651.86 484.995C1641.1 485.573 1637.05 496.812 1637.6 503.802C1637.95 508.335 1642.13 531.296 1628.8 534.2C1620.3 534.17 1610.46 533.597 1601.52 531.949C1591.01 529.566 1577.33 521.224 1573.71 537.652C1572.41 543.564 1618.75 561.13 1639.32 562.719C1660.17 566.945 1684.57 560.447 1699.42 544.493C1702.8 540.864 1712.31 525.799 1712.99 522.108C1714.41 514.354 1711.11 509.363 1701.52 512.097C1694.74 515.716 1683.28 525.09 1677.75 526.439Z" fill="black"/>
</svg>
