<svg width="1351" height="2958" viewBox="0 0 1351 2958" fill="none" xmlns="http://www.w3.org/2000/svg">
<path fill-rule="evenodd" clip-rule="evenodd" d="M225.966 1350.91C226.135 1362.41 227.286 1388.79 230.169 1399.92C198.05 1348.42 149.922 1292.13 142.603 1229.05C144.884 1228.43 155.005 1227.5 156.772 1226.17C173.39 1233.89 170.246 1210.12 172.702 1199.13C179.334 1175.86 193.268 1152.97 199.323 1129.54C215.237 1122.65 183.278 1119.74 178.635 1119.6C197.939 1098.1 206.818 1068.55 220.562 1043.47C240.758 1000.84 258.846 957.269 274.996 913.014C278.526 940.744 279.159 968.774 277.008 996.657C270.367 1116.09 225.516 1230.93 225.966 1350.91ZM1340.71 1138.76C1330.72 1140.44 1314.07 1142.03 1304.1 1142.85C1317.19 1135.04 1355.87 1120.17 1331.49 1106.81C1323.98 1104.06 1315.91 1107.98 1308.33 1109.19C1276.85 1114.37 1237.98 1114.1 1206.13 1111.49C1217.74 1101.95 1233.02 1088.23 1244.35 1078.36C1250.38 1073.12 1256.21 1071.13 1249.44 1063.31C1237.5 1052.18 1216.15 1060.37 1202.35 1065.26C1164.27 1086.6 1121.28 1109.75 1080.41 1126.17C1079.98 1120.44 1080.25 1113.04 1074.73 1109.19C1058.53 1101.55 1046.61 1103.79 1029.38 1101.75C1009.3 1098.74 991.447 1095.32 971.558 1090C958.55 1080.08 950.617 1050.81 929.817 1054.08C948.239 1007.71 920.16 959.32 909.612 914.913C896.448 869.466 889.532 822.268 889.344 775.014C889.215 699.359 845.41 641.31 782.114 602.489C757.161 585.632 740.404 544.631 709.511 536.418C705.582 521.337 705.344 514.713 701.894 499.517C700.162 495.152 698.875 471.468 694.519 472.274C689.715 448.813 665.236 439.403 644.053 434.49C616.511 428.78 578.076 421.863 553.317 437.975C546.145 443.944 542.995 453.939 542.469 462.868C539.718 474.758 533.996 487.076 527.326 497.392C515.942 493.545 522.385 486.375 511.126 484.705C408.324 469.462 294.212 544.908 227.512 618.508C106.606 742.709 10.0192 912.263 25.8297 1089.28C21.5775 1088.65 2.73091 1085.7 3.00291 1091.65C3.92595 1117.56 8.69011 1139.16 10.0052 1165.05C8.69811 1199.34 44.3103 1203.47 70.0362 1211.93C68.4522 1311.41 104.582 1410.93 161.132 1492.71C174.871 1508.8 195.485 1564.64 220.562 1542.4C223.517 1538.94 200.599 1514.99 196.522 1509.07C182.6 1491.53 145.721 1404.72 171.785 1387.38C177.579 1406.12 233.685 1496.23 243.687 1445.09C256.97 1452.8 278.92 1458.06 294.8 1457.27C324.652 1473.44 353.7 1490.91 382.368 1509.07C395.721 1535.3 415.308 1560.5 431.718 1585.69C318.153 1848.11 207.305 2280.03 61.1608 2527.2C48.4184 2543.34 118.517 2570.77 130.899 2576.69C107.221 2615.16 104.256 2659.72 86.2427 2701.14C82.8115 2700.59 79.3504 2701.31 76.2553 2702.97C54.0345 2718.03 45.6493 2771.92 44.3822 2798.49C45.4083 2810.34 41.0161 2828.27 50.6024 2837C49.2624 2838.45 48.2624 2840.22 47.5503 2842.03C40.8041 2847.29 41.6351 2858.89 45.2412 2866.09C57.9297 2892.44 150.674 2889.99 180.771 2895.63C287.381 2904.66 376.86 2906.09 483.456 2896.21C496.539 2893.47 486.645 2873.05 480.185 2867.51C483.169 2865.69 485.077 2862.38 483.771 2858.12C459.538 2788.79 371.953 2793.48 318.955 2756.45C332.891 2748.39 323.896 2750.96 315.141 2754.1C305.849 2748.26 296.809 2741.68 288.436 2734.42C294.867 2730.45 291.695 2727.82 284.738 2731.15C273.773 2722.35 265.232 2708.76 251.264 2704.49C237.582 2701.14 237.582 2695.29 237.582 2691.6C245.725 2658.84 254.619 2625.26 259.19 2592.04C264.066 2599.24 306.139 2541.59 315.141 2527.2C350.119 2471.78 350.025 2417.17 374.502 2356.9C424.767 2225.65 527.732 1950.58 590.524 1825.06C737.443 2064.56 665.884 2388.48 756.517 2643.87C760.545 2651.54 768.119 2680.32 778.609 2672.02C782.687 2672.97 787.022 2673.49 790.905 2674.04C789.784 2701.96 787.693 2729.8 783.056 2757.43C778.736 2758.57 775.066 2760.84 773.164 2764.8C765.89 2759.46 751.962 2838.29 750.77 2846.33C750.752 2856.68 741.826 2879.75 749.978 2885.91C738.233 2890.71 736.313 2908.49 744.574 2917.62C769.103 2950.61 888.668 2941.54 932.778 2947.07C988.558 2945.69 1221.91 2966.58 1238.11 2913.64C1241.33 2901.56 1235.81 2886.3 1224.58 2881.65C1229.07 2871.16 1218.31 2861.02 1211.73 2853.66C1172.9 2813.26 1113.21 2806.9 1061.52 2789.31C1063.45 2787.34 994.045 2751.77 979 2742.97C979.993 2731.03 955.18 2743 955.111 2742.97C943.281 2722.05 934.9 2689.51 926.968 2666.95C941.608 2662.41 976.88 2658.37 983.417 2643.87C1004.43 2636.82 983.353 2606.34 979 2592.04C855.838 2283.76 972.686 1894.91 790.905 1603.94C824.226 1584.85 862.453 1543.07 829.539 1508.02C822.952 1499.6 806.84 1473.37 807.105 1477.95C800.984 1452.97 787.315 1409.95 783.056 1384.69C767.418 1291.97 777.668 1205.13 790.905 1111.49C809.282 1181.95 872.624 1240.66 937.06 1272.85C962.208 1283.23 995.415 1304.66 1023.02 1297.9C1047.94 1290.52 1093.2 1239.35 1098.53 1214.77C1171.17 1223.41 1246.59 1216.47 1316.01 1193.63C1324.92 1190.26 1335.47 1190.55 1332.71 1177.89C1329.96 1167.16 1310.37 1169.89 1301.94 1171.89C1314.82 1164.75 1348.25 1162.88 1348 1144.21C1347.56 1140.31 1344.69 1138.09 1340.71 1138.76Z" fill="white"/>
<path fill-rule="evenodd" clip-rule="evenodd" d="M542.722 447.998C543.827 448.446 544.581 450.127 545.028 452.653C546.258 453.037 547.312 453.946 547.629 455.315C548.561 459.341 547.472 463.539 546.631 467.552L546.536 468.014C545.741 471.899 544.769 475.76 543.581 479.546L543.407 480.505C540.516 496.153 534.941 511.03 528.395 508.503L529.907 511.258C555.594 557.898 628.968 683.127 686.256 665.277C719.616 651.9 719.139 608.416 716.7 578.153C691.93 593.353 687.296 476.997 692.374 464.139C696.417 461.164 698.367 487.93 699.871 491.62C703.153 506.302 707.178 520.795 710.957 535.355C718.944 536.937 726.498 540.122 733.177 544.687C733.495 544.87 733.823 545.036 734.135 545.226C738.143 547.666 741.27 550.778 744.058 554.225C747.209 557.752 749.904 561.613 752.449 565.582C758.043 571.941 763.376 578.536 768.887 584.963C771.502 588.013 774.179 590.97 776.916 593.852L779.026 595.627C779.379 595.921 779.732 596.214 780.087 596.505C843.377 636.038 887.192 695.189 887.315 772.235C887.502 820.368 894.418 868.442 907.582 914.734C918.129 959.966 952.207 1006.2 933.785 1053.44C954.586 1050.1 956.518 1076.86 969.526 1086.97L973.613 1088.07C991.887 1092.99 1008.65 1097.1 1027.34 1099.95C1044.58 1102.02 1064.5 1099.75 1080.69 1107.53C1086.21 1111.45 1084.23 1118.52 1084.66 1124.35C1125.53 1107.63 1162.23 1084.52 1200.31 1062.79L1201.58 1062.33C1215.68 1057.32 1240.82 1049.8 1252.4 1060.79C1259.17 1068.76 1252.33 1075.88 1246.31 1081.22C1234.98 1091.27 1222.96 1100.48 1211.36 1110.19C1242.64 1112.81 1274.01 1110.72 1304.95 1105.64L1306.63 1105.37C1314.21 1104.13 1323.15 1101.18 1330.67 1103.98C1355.04 1117.59 1326.84 1133.48 1313.75 1141.43C1323.72 1140.6 1333.68 1139.36 1343.67 1137.65C1347.64 1136.97 1350.52 1139.23 1350.95 1143.2C1351.21 1162.21 1326.17 1163.24 1313.29 1170.51L1314.32 1170.27C1322.74 1168.32 1334.85 1166.6 1337.48 1177.1C1340.24 1189.99 1322.88 1195.2 1313.96 1198.63C1244.55 1221.9 1169.13 1228.96 1096.49 1220.16C1091.16 1245.2 1045.91 1297.32 1020.99 1304.83C993.381 1311.72 960.175 1289.9 935.028 1279.32C870.594 1246.53 810.892 1192.44 792.516 1120.66C777.073 1231.95 783.315 1344.14 806.498 1453.63C810.251 1462.17 814.211 1470.57 818.666 1478.76C820.012 1478.98 821.151 1479.88 821.414 1481.7C821.551 1482.7 821.752 1483.67 821.979 1484.62C826.415 1492.16 831.277 1499.41 835.791 1506.91C836.724 1508.45 837.645 1510.06 838.487 1511.71C868.537 1547.17 831.911 1592.86 799.153 1611.98C980.928 1908.35 863.524 2281.84 986.681 2595.85L986.955 2596.75C991.629 2611.68 1005.87 2642.42 985.276 2649.46C978.739 2664.23 945.797 2665.97 931.159 2670.6C939.09 2693.58 947.909 2716.31 959.739 2737.62L959.953 2737.71C964.665 2734.25 974.769 2730.66 978.945 2734.44C979.961 2734.57 980.973 2734.85 981.961 2735.35C988.424 2738.56 993.623 2744.7 999.805 2748.57C1003.15 2750.66 1006.62 2752.56 1010.2 2754.22C1013.53 2755.77 1017.07 2756.78 1019.79 2759.33C1020.65 2760.13 1020.87 2761.15 1020.65 2762.09C1022.8 2763.21 1024.94 2764.33 1027.08 2765.45L1028.24 2764.72C1047.13 2752.95 1062.32 2746.57 1034.84 2769.19C1044.69 2773.74 1054.79 2777.73 1064.95 2781.46C1072.67 2777.75 1080.91 2775.04 1089.4 2774.66C1090.93 2776.56 1079.25 2783.86 1077.33 2785.87C1129.01 2803.78 1185.86 2817.8 1224.69 2858.95L1225.56 2859.93C1232.17 2867.34 1241.84 2877.23 1237.54 2887.46C1248.77 2892.2 1254.29 2907.74 1251.07 2920.05C1234.87 2973.97 986.524 2952.69 930.747 2954.09C886.639 2948.46 767.078 2957.7 742.549 2924.1C734.29 2914.79 736.208 2896.69 747.954 2891.79C739.802 2885.52 748.727 2862.03 748.747 2851.48L748.934 2850.26C750.183 2842.38 755.595 2811.55 761.213 2790.01C761.328 2788.31 761.553 2786.57 761.825 2784.82L762.001 2783.71C763.118 2776.84 764.832 2769.85 769.266 2764.33C772.45 2760.37 776.862 2757.92 781.649 2757.03C782.932 2748.83 783.985 2740.61 784.889 2732.37C785.526 2722.69 785.768 2712.99 785.659 2703.28C785.602 2698.38 785.473 2693.49 785.234 2688.59C785.058 2684.99 785.264 2680.71 784.35 2677.03C783.741 2677.65 782.874 2677.99 781.903 2677.65C779.84 2676.95 777.941 2675.64 776.047 2674.57C775.976 2674.53 775.919 2674.49 775.858 2674.44C765.744 2681.01 758.425 2652.9 754.491 2645.26C663.862 2385.12 735.419 2085.74 588.504 1841.79C568.222 1885.35 550.793 1925.3 531.271 1969.16C470.303 2106.14 395.038 2347.41 344.563 2492.44C330.83 2522.09 314.688 2550.74 295.5 2577.22C289.366 2584.18 285.25 2594.42 276.37 2598.16L275.593 2598.28C273.223 2602.71 269.933 2606.44 265.041 2606.31C263.841 2606.28 262.617 2606.15 261.381 2605.94C257.045 2636.12 251.593 2666.49 244.345 2696.18L245.323 2695.77C250.067 2693.81 255.056 2692.14 259.925 2692.58C271.741 2695.57 267.366 2705.91 258.026 2709.32C269.652 2712.93 277.519 2723.12 286.152 2731.61C293.448 2727.68 301.626 2725.64 310.365 2726.5C311.703 2726.63 312.723 2727.21 313.432 2728.01C313.933 2728.02 314.42 2728.05 314.882 2728.12L313.931 2728.7C315.483 2731.31 314.375 2735.29 310.365 2735.31C307.217 2735.33 304.186 2735.61 301.255 2736.15C299.22 2737.34 297.195 2738.55 295.198 2739.8C301.935 2745.76 309.108 2751.25 316.494 2756.27C320.395 2754.27 324.52 2752.6 328.811 2751.26C334.35 2749.53 336.768 2758.34 331.204 2759.94C330.023 2760.28 328.853 2760.65 327.691 2761.06L326.55 2761.75C326.282 2761.91 326.005 2762.07 325.715 2762.25C378.712 2799.96 468.293 2795.18 492.526 2865.8C493.328 2868.46 492.915 2870.76 491.788 2872.57C497.04 2877.39 499.463 2886.06 498.28 2892.71L498.381 2893.27C499.282 2898.65 497.986 2903.37 492.21 2904.6C453.669 2908.19 415.222 2910.47 376.513 2911.18L373.389 2911.21C317.93 2911.58 48.1785 2909.56 36.0108 2873.92C32.7658 2867.32 31.7658 2857.09 36.5138 2851.2C37.0648 2848.04 38.1498 2845.15 40.0788 2842.9C32.2658 2835 36.1088 2815.09 35.1528 2805.06C36.8678 2771.59 43.6538 2735.7 64.0978 2708.3C64.4318 2707.87 64.8358 2707.6 65.2528 2707.48C68.8228 2703.89 73.5138 2701.62 78.8778 2701.31C79.0448 2700.9 79.2148 2700.48 79.3778 2700.06C83.5478 2690.22 87.5088 2680.2 91.4438 2670.13C94.3638 2658.69 97.4098 2647.28 100.461 2635.93C103.51 2624.59 106.493 2613.23 109.411 2601.86C111.735 2592.79 113.734 2582.58 117.756 2573.91C117.647 2573.54 117.542 2573.17 117.422 2572.8L113.237 2571.11C85.8228 2559.96 42.3861 2541.15 51.9298 2528.73C153.629 2317.24 253.178 2016.15 346.506 1796.9C347.964 1792.6 349.506 1788.33 351.199 1784.1C355.32 1773.79 359.496 1763.5 363.73 1753.23L366.278 1747.08L406.937 1649.17C411.193 1638.92 415.991 1628.73 419.345 1618.14C422.577 1607.94 423.445 1597.79 417.305 1588.51C411.811 1580.2 404.069 1573.33 397.875 1565.53C393.191 1559.63 388.625 1553.33 384.533 1546.7C380.817 1541.8 377.711 1536.19 374.94 1531.66C370.499 1524.42 364.852 1516.39 361.629 1508.02C357.472 1505.4 353.307 1502.79 349.127 1500.2C341.908 1496.15 334.805 1491.91 327.891 1487.33C319.159 1482.13 310.371 1477.03 301.514 1472.03C298.317 1470.45 295.118 1468.86 291.915 1467.29C282.319 1468.12 255.809 1456.28 246.778 1448.27C245.746 1448.07 244.719 1447.83 243.698 1447.57C243.29 1452.69 241.62 1457.32 237.729 1460.76C211.852 1473.61 178.87 1415.41 169.78 1395.99C151.716 1413.65 194.818 1501.01 208.741 1518.87L209.484 1519.97C213.208 1525.56 217.112 1531.83 222.394 1535.95L222.927 1536.36C226.548 1539.04 227.22 1543.23 224.266 1546.75C199.189 1569.41 172.865 1519.66 159.127 1503.27C102.581 1419.97 66.4498 1318.6 68.0338 1217.27C42.3098 1208.65 6.6978 1204.45 8.0048 1169.52C6.6898 1143.15 1.9258 1117.07 0.999903 1090.68C0.731796 1084.62 19.5778 1087.63 23.8308 1088.27C17.5658 1027.64 27.0318 966.092 43.9148 907.827C88.2388 758.741 270.762 490.035 450.413 480.334C450.256 480.041 450.33 479.646 450.733 479.541C458.864 477.428 467.85 477.766 476.206 478.032C484.903 478.308 493.743 478.368 502.394 479.351C511.36 480.369 520.854 483.667 526.877 490.193L528.963 486.426C531.385 482.028 533.718 477.585 535.481 472.732C536.374 470.28 537.073 467.738 537.711 465.169C538.432 461.505 538.613 457.691 540.346 454.363C540.392 454.276 540.449 454.204 540.499 454.123C541.122 452.026 541.835 449.972 542.722 447.998ZM763.213 2891.67C760.645 2894.28 756.194 2895.42 752.252 2894.17C739.151 2931.42 810.228 2929.08 833.04 2931.17C857.365 2933.77 1300.46 2956.83 1225.53 2902.22C1137.61 2935.75 843.569 2939.45 763.213 2891.67ZM979 2743.97C973.085 2750.08 964.166 2752.79 957.821 2758.62C939.884 2773.8 925.455 2795.16 900.665 2799.18C868.097 2805.26 838.737 2789.18 809.605 2776.44C805.978 2776.27 802.194 2774.74 798.476 2773.6C798.344 2773.87 798.213 2774.14 798.063 2774.39C797.882 2774.32 797.689 2774.26 797.473 2774.22C797.149 2774.17 796.842 2774.14 796.525 2774.09C795.777 2773.49 794.989 2772.99 794.173 2772.56C793.68 2772.49 793.19 2772.43 792.703 2772.4C786.699 2772.03 780.182 2773.43 776.329 2778.41C775.999 2778.83 775.7 2779.28 775.411 2779.74C773.544 2786.36 773.305 2794.37 774.206 2799.97C774.498 2801.8 773.736 2803.6 772.446 2804.64C771.295 2832.35 768.177 2860.17 766 2887.52C776.896 2891.44 788.202 2894.42 799.518 2896.31C877.605 2905.91 956.526 2910.38 1035.21 2907.96C1082.05 2906.27 1128.83 2902.08 1175.19 2895.12C1190.17 2893.7 1205.51 2887.9 1220.48 2890.25C1221.12 2889.04 1222.12 2888.01 1223.5 2887.31C1185.12 2834.71 1119.51 2820.49 1062.31 2797.43C1052.86 2803.48 1047.05 2816.06 1036.53 2819.81C1032.44 2820.42 1026.76 2818.01 1027.36 2812.83C1029.06 2802.21 1040.52 2797.37 1048.23 2791.21C1039.95 2787.34 1031.83 2783.13 1023.91 2778.46C1016.12 2785.48 1006.91 2790.82 999.623 2798.31C1003.77 2808.43 986.495 2807.55 986.302 2796.78C987.497 2784.86 1006.36 2779.82 1014.79 2772.87C1001.63 2764.86 989.873 2754.75 979 2743.97ZM51.6478 2848.1C51.1888 2849.01 50.4398 2849.83 49.3308 2850.48C47.411 2851.59 48.3336 2857.46 48.4301 2859.44L48.4358 2859.59C48.5408 2863.14 48.7628 2866.69 49.0708 2870.23C52.3108 2873.16 56.4538 2875.38 61.0568 2876.72C201.242 2899.1 344.117 2900.91 485.655 2892.79C485.004 2889.02 482.253 2885.92 479.818 2882.78C390.34 2890.4 298.71 2882.43 209.082 2875.02C156.684 2868.12 101.784 2865.27 51.6478 2848.1ZM255.741 2710.37C232.637 2718.33 211.139 2729.37 190.661 2742.6C183.051 2747.55 175.788 2753.23 167.04 2756.07C136.75 2765.19 91.3368 2721.38 90.6088 2720.89C80.0898 2713.8 68.9358 2720.41 63.2128 2730.23C62.6838 2731.14 53.9108 2781.36 54.1758 2805.97C52.6018 2814.33 56.8018 2828.01 54.5668 2837.12C56.3238 2839.24 58.8288 2840.24 60.5158 2842.45C61.1268 2843.25 60.9538 2844.16 60.4258 2844.84C142.222 2851.58 223.542 2864.36 305.727 2867.05C361.975 2870.03 418.33 2869.35 474.587 2868.67C461.788 2831.06 418.192 2821.13 384.892 2808.76C359.732 2799.71 336.568 2786.24 316.186 2768.92C307.347 2775.13 300.377 2783.83 294.115 2792.57C291.27 2796.12 285.427 2798.8 282.38 2793.88C279.242 2788.77 285.368 2782.32 292.932 2776.66C296.91 2770.77 301.927 2765.74 307.704 2761.61C301.317 2755.91 295.167 2749.98 289.406 2743.67C277.459 2751.76 268.682 2763.42 260.088 2774.72C255.958 2779.23 248.234 2773.27 251.622 2768.19C254.337 2764.69 257.393 2761.46 260.665 2758.43C265.597 2749.12 272.698 2740.52 281.313 2734.57L280.656 2733.74C273.46 2724.49 267.238 2713.41 255.741 2710.37ZM52.1768 2842.2C51.9788 2842.45 51.7708 2842.68 51.5488 2842.91C51.7468 2843.32 51.8988 2843.74 52.0108 2844.17L54.1098 2844.34C53.3808 2843.73 52.7388 2843 52.1768 2842.2ZM923.474 2672.12C880.619 2680.22 836.348 2683.33 793.092 2676.64C798.102 2704.59 801.239 2732.72 799.596 2761.1C864.271 2779.78 891.143 2810.93 944.954 2748.68C942.354 2744.72 940.854 2739.86 939.108 2735.17C931.672 2714.81 925.526 2693.76 923.474 2672.12ZM136.344 2580.44C135.733 2581.8 134.631 2582.91 133.043 2583.4C132.477 2585.9 131.892 2588.4 131.268 2590.9C130.218 2603.78 125.36 2616.54 120.336 2628.42L119.311 2630.89C115.997 2640.77 112.523 2650.63 109.096 2660.5C106.5 2670.76 104.213 2681.1 101.823 2691.4C101.362 2698.39 100.37 2705.32 98.8448 2712.17C98.7738 2712.49 98.6788 2712.79 98.5738 2713.07C100.969 2714.14 103.281 2715.38 105.461 2716.63C171.077 2765.95 159.745 2732.97 222.746 2705.36C222.384 2702.71 223.711 2700.31 224.794 2697.57L224.934 2697.21C225 2697.03 225.065 2696.86 225.131 2696.68C225.027 2695.64 225.088 2694.51 225.365 2693.32C231.746 2667.21 240.631 2641.55 248.947 2616C250.278 2612.15 251.819 2608.39 253.394 2604.64C213.448 2604.12 173.936 2593.48 136.344 2580.44ZM119.063 2593.13C118.29 2596.54 117.448 2599.91 116.681 2603.16L115.55 2608.01C117.159 2603.11 118.428 2598.13 119.063 2593.13ZM499.061 486.705C485.158 490.089 470.911 491.471 456.928 494.278C360.559 505.775 286.675 574.14 223.032 642.02C102.473 768.697 32.3298 924.566 37.5068 1100.73C80.5598 1108.58 123.169 1120.06 167.034 1122.57C160.659 1112.91 171.335 1100.83 175.01 1091.58C238.457 968.951 287.446 833.577 327.227 704.472L326.146 710.107C313.655 774.903 299.105 839.424 276.897 901.666C283.33 895.339 389.008 811.259 380.748 839.061C348.461 864.306 311.994 884.311 278.163 907.478C318.388 1041.9 260.235 1178.1 249.186 1312.57C246.41 1342.48 246.651 1372.58 242.92 1402.37C241.501 1405.74 242.995 1412.59 240.906 1415.8C242.453 1423.7 245.707 1430.91 252.422 1437.08C255.249 1439.68 258.335 1441.93 261.579 1443.93C269.678 1445.16 277.813 1448.28 284.409 1451.17C299.086 1457.6 312.003 1467.08 325.122 1476.13L325.473 1476.37C346.626 1487.24 367.757 1499.59 388.966 1512.48L389.913 1512.97C397.802 1517.11 405.868 1520.85 412.742 1526.59C413.055 1526.85 413.264 1527.16 413.401 1527.47L426.283 1535.43C529.469 1599.13 635.862 1662.13 756.842 1616.66C790.833 1602.96 840.248 1575.21 833.902 1532.3C832.651 1528.19 830.748 1524.32 828.596 1520.56C827.998 1519.75 827.383 1518.96 826.764 1518.18C822.076 1512.25 816.829 1506.81 812.758 1500.41C811.102 1497.8 809.617 1495.12 808.318 1492.36C807.4 1492.08 806.584 1491.44 806.07 1490.31C800.247 1477.61 794.543 1464.88 789.231 1451.95C724.829 1227.36 803 986.038 825.115 759.507C826.648 746.535 828.905 733.431 828.899 720.365C828.899 719.752 829.787 719.772 829.836 720.365C837.636 778.183 831.719 836.539 824.303 894.096C814.808 966.1 802.333 1037.81 793.762 1109.94C816.547 1182.65 880.357 1235.19 947.36 1266.69C958.76 1272.11 970.416 1276.94 982.301 1281.19L983.098 1281.47C996.157 1286.04 1010.9 1293.11 1023.49 1283.84C1047.67 1267.43 1064.74 1242.38 1080.41 1218.26C1074.07 1217.57 1067.72 1216.98 1061.37 1216.54C1045.78 1234.39 1026.67 1249.54 1006.5 1261.92C998.284 1266.63 988.948 1264.64 985.149 1255.41C981.563 1246.71 985.954 1236.54 989.133 1228.15L989.592 1226.93C1005.69 1183.51 1033.63 1143.73 1071.36 1116.54C1042.89 1110.85 1013.33 1111.02 986.019 1099.77C987.508 1101.33 985.557 1103.08 984.609 1104.41C984.946 1106.98 983.077 1108.86 980.78 1109.55C958.498 1138.68 941.611 1173.16 938.085 1210.1C939.023 1222.68 927.77 1237.21 916.934 1224C908.459 1187.23 941.797 1129.77 971.112 1107.08C941.715 1086.9 950.284 1057.77 931.828 1057.64C927.059 1066.79 920.836 1075.56 912.993 1082.36C909.448 1085.24 905.143 1087.42 901.338 1089.98C897.336 1092.67 893.17 1086.75 896.339 1083.5L897.175 1082.49C909.212 1068.09 923.506 1053.93 925.992 1034.45C929.586 1010.45 918.805 986.143 910.541 964.224C894.698 922.203 884.19 878.481 879.071 833.864C873.272 793.888 880.324 752.422 866.643 713.738C863.924 702.965 860.013 693.153 855.219 684.047C855.105 683.952 854.992 683.855 854.889 683.736C849.198 677.151 844.652 669.826 839.346 662.929C833.797 655.714 827.781 648.848 821.409 642.351C810.76 631.495 799.003 622.437 786.747 613.715C786.52 613.633 786.291 613.527 786.061 613.391C783.765 612.034 781.56 610.386 779.432 608.575L779.225 608.431C772.098 603.476 764.825 598.098 759.262 591.371C753.802 584.766 749.916 577.064 745.458 569.789C739.364 562.353 733.555 554.386 726.206 548.19C722.049 545.816 717.723 543.579 714.013 540.61C713.406 540.356 712.789 540.115 712.161 539.887C713.742 546.335 716.134 552.268 718.289 558.818C721.411 557.5 725.684 558.961 726.209 563.772L726.403 565.568C729.537 595.03 731.124 630.683 713.803 656.192C675.661 711.511 618.69 664.281 589.877 625.383C564.02 594.36 542.282 559.852 526.229 522.766L525.963 522.276C522.974 516.601 516.495 499.294 514.665 490.978C510.036 488.54 504.404 487.359 499.061 486.705ZM376.946 1517.75C376.83 1517.9 376.698 1518.02 376.554 1518.13C381.964 1525.82 387.118 1533.77 392.43 1541.48C388.075 1534.36 383.981 1527.18 380.356 1519.93C379.222 1519.2 378.082 1518.48 376.946 1517.75ZM74.1938 1219.18C94.8678 1331.45 124.413 1449.56 206.737 1533.5C181.116 1497.4 161.192 1455.26 155.395 1411.13C155.155 1399.28 159.468 1386.77 172.572 1385.01C174.808 1384.71 176.507 1386.72 177.306 1388.5L177.383 1388.68C182.538 1400.99 189.241 1412.69 197.178 1423.42L197.956 1424.43C203.945 1432.18 229.367 1463.75 232.914 1448.66C230.318 1372.36 151.475 1340.9 138.563 1235.81C116.471 1233.47 95.5068 1225.08 74.1938 1219.18ZM243.687 1441.87C243.772 1443.06 243.813 1444.25 243.795 1445.42C244.966 1444.93 246.17 1444.55 247.401 1444.24C246.151 1443.47 244.915 1442.68 243.687 1441.87ZM242.518 1433.64C242.951 1435.84 243.317 1438.05 243.542 1440.24C245.792 1440.95 248.018 1441.74 250.232 1442.55C248.89 1441.35 247.613 1440.07 246.416 1438.71C245.021 1437.13 243.713 1435.42 242.518 1433.64ZM272.987 912.8C256.838 957.877 238.75 1002.26 218.555 1045.68C204.995 1071.08 195.948 1100.69 177.184 1122.73C177.001 1122.91 176.817 1123.07 176.629 1123.23L176.94 1123.24C182.531 1123.49 212.912 1126.48 197.317 1133.35C191.262 1157.21 183.329 1180.53 176.696 1204.24L176.548 1204.92C174.121 1216.39 171.052 1239.48 154.767 1231.78C153 1233.13 150.879 1234.08 148.598 1234.71C155.918 1298.96 196.549 1340.79 228.668 1393.25C221.488 1365.56 223.586 1336.65 226.086 1308.38L226.706 1301.43C239.977 1171.82 288.679 1044.37 272.987 912.8ZM407.866 1324.78C381.689 1292.14 252.935 969.031 343.924 1164.78C376.263 1232.93 402.882 1305.88 456.233 1361.1C459.922 1365.06 455.062 1372.03 450.268 1368.83C433.047 1357.33 419.109 1342.08 407.866 1324.78ZM314.681 934.251C314.573 933.727 315.244 933.439 315.539 933.888C350.522 1002.96 375.5 1077.18 415.027 1144.16C438.887 1185.64 467.518 1224.3 500.304 1259.16C502.767 1261.78 499.061 1265.4 496.393 1263.07C402.801 1176.72 357.298 1051.19 314.681 934.251ZM1004.49 1218.61L1004.44 1218.62L1003.58 1220.85C1003.28 1221.6 1002.99 1222.36 1002.69 1223.12C1002.83 1223.06 1002.97 1223 1003.12 1222.94C1003.42 1222.63 1003.73 1222.32 1004.04 1221.99C1003.97 1220.85 1004.11 1219.71 1004.49 1218.61ZM24.2018 1090.98C19.4498 1092.84 13.6118 1093.2 8.3588 1093.65C14.2398 1121.36 19.3168 1149.28 24.6398 1177.06C27.1008 1185.59 32.8868 1188.58 40.8948 1191.29L47.331 1193.35C77.3775 1202.97 107.594 1212.86 138.576 1218.77C140.754 1217.35 143.848 1217.42 145.294 1219.69C146.801 1219.83 148.348 1219.92 149.877 1220.06C158.155 1189.49 172.32 1159.87 191.275 1134.51C138.294 1136.22 84.9298 1122.24 34.5278 1106.62C32.4868 1107.61 29.7988 1106.99 28.9378 1104.65L28.1616 1104.42C19.7001 1101.91 8.48076 1095.75 26.2628 1098.88C25.1888 1096.37 24.5928 1093.68 24.2018 1090.98ZM1242.45 1068.36C1207.34 1062.55 1180.5 1091.01 1150.53 1104.07C1132.58 1111.77 1084.76 1135.64 1067.37 1127.7C1043.54 1150.64 1023.42 1177.45 1009.34 1207.53C1013.18 1207.3 1017.02 1207.13 1020.85 1207.01C1027.8 1204.78 1035.22 1204.66 1042.44 1206.81C1114.71 1207.61 1187.03 1221.65 1259.01 1203.85L1260.66 1203.54C1275.45 1200.74 1325.93 1190.07 1328.81 1179.61C1328.05 1175.06 1314.48 1179.87 1311.87 1180.38C1291.12 1184.47 1270.04 1186.42 1249.02 1188.46C1243.17 1189.03 1243.25 1179.93 1249.02 1179.36C1274.32 1176.84 1298.3 1167.34 1321.52 1157.46C1323.99 1156.36 1330.53 1154.09 1335.05 1151.15C1313.6 1154.8 1291.49 1155.43 1269.78 1154.66C1262.31 1153.69 1261.78 1142.34 1269.78 1142.56C1284.44 1144.18 1298.44 1136.95 1310.4 1129.31L1313 1127.62C1332.95 1114.62 1331.55 1114.06 1306.35 1118.89C1269.32 1125.64 1231.84 1125.39 1194.45 1122.81C1189.11 1122.72 1185.43 1115.54 1189.84 1111.69C1207.06 1096.83 1225.52 1083.57 1242.45 1068.36ZM1072.7 1122.51L1072.3 1122.9C1071.44 1123.72 1070.73 1124.45 1070.34 1124.84L1070.18 1124.99C1069.65 1125.49 1069.14 1126 1068.61 1126.51C1070.91 1127.28 1073.44 1127.32 1076.05 1126.92C1074.48 1125.93 1073.3 1124.32 1072.7 1122.51ZM412.835 1003.49L413.032 1003.7C435.622 1028.15 458.52 1067.79 477.236 1099.06C479.703 1124.68 424.366 1018.36 412.92 1003.6L412.835 1003.49ZM981.385 1098.07C981.603 1098.34 981.815 1098.62 982.019 1098.91L982.321 1099.34L982.807 1099.04C982.986 1098.93 983.174 1098.87 983.366 1098.82C982.704 1098.57 982.045 1098.32 981.385 1098.07ZM878.027 1014.62C898.353 1017.81 856.789 1043.06 851.303 1046.68C847.79 1048.02 814.389 1075.59 816.415 1066.64L817.361 1065.43C832.916 1045.64 854.117 1023 878.027 1014.62ZM82.8991 961.695C90.4171 949.587 131.332 965.527 144.265 967.436C151.535 969.355 158.726 971.626 166.074 973.238C171.816 975.321 198.59 973.302 188.764 984.653C178.511 990.164 165.125 985.904 154.625 982.978C133.734 977.271 112.771 970.613 91.3781 967.446C90.7361 967.125 90.6971 967.342 91.2591 968.099C95.8611 978.325 105.539 987.919 116.44 991.215C117.193 991.433 116.876 992.584 116.114 992.39C104.216 990.028 76.5061 976.826 82.8991 961.695Z" fill="black"/>
<path fill-rule="evenodd" clip-rule="evenodd" d="M457.973 102.401C463.159 96.8357 469.792 92.6897 477.043 91.3647C470.415 94.6757 463.936 98.1267 457.973 102.401ZM447.815 150.385C446.898 146.144 446.282 141.862 446.088 137.581C447.247 139.343 449.098 140.52 451.177 141.128C449.834 144.135 448.692 147.233 447.815 150.385ZM794.835 216.878C788.849 191.961 760.921 144.034 754.32 134.809C747.152 111.968 786.246 93.6507 764.985 75.7897C755.359 67.7307 742.637 64.8787 730.703 62.0207C648.073 42.1767 559.295 52.1847 482.659 88.6757C471.002 86.2227 458.857 91.0167 450.38 99.4367C410.555 139.465 464.829 211.687 476.697 256.813C497.059 307.13 455.115 315.594 459.613 358.167C463.108 380.161 485.385 385.974 504.184 389.298C507.197 390.003 511.225 390.109 512.197 393.294C515.243 411.885 525.685 429.602 539.704 441.626C538.478 445.258 539.414 449.667 543.737 452.857C582.905 481.964 632.292 496.53 681.144 493.912C739.362 490.791 769.469 457.423 776.734 448.831C816.903 394.584 812.103 323.01 803.909 258.361C798.201 213.325 805.439 261.018 794.835 216.878Z" fill="white"/>
<path fill-rule="evenodd" clip-rule="evenodd" d="M615.322 9.54133C617.152 3.82133 622.332 0.381332 628.262 1.09133C633.512 1.71133 639.132 6.92133 638.492 12.6713C638.372 13.7813 638.212 14.8213 638.022 15.8013L638.047 15.8101L638.072 15.8113L637.942 16.1913C637.552 18.0213 637.012 19.6613 636.212 21.2113C635.192 24.1813 634.212 27.1613 633.242 30.1513C634.642 30.0913 636.072 30.1713 637.522 30.4413C639.022 26.6013 640.532 22.7713 642.032 18.9213C643.642 14.8113 644.772 9.53133 647.952 6.35133C652.022 2.29133 659.082 1.45133 664.042 4.35133C669.282 7.41133 671.152 12.8513 670.012 18.6813C669.432 21.6551 667.445 23.7247 664.987 25.025L664.722 25.1613L662.832 29.6413C663.412 29.3913 664.012 29.1613 664.662 28.9713C665.682 28.6713 666.682 28.4813 667.662 28.4013C670.362 23.5113 673.332 18.7613 676.402 14.1013C679.932 8.74133 686.832 6.46133 692.622 9.85133C697.802 12.8813 700.582 20.8413 696.872 26.0713C694.052 30.0413 691.382 34.0913 688.752 38.1813C689.202 38.2613 689.652 38.3613 690.082 38.4913C690.282 38.2213 690.492 37.9513 690.712 37.6813C693.582 34.1213 696.922 31.4513 700.352 28.4913C703.562 25.7113 705.042 21.3413 709.262 19.2313C714.572 16.5813 720.972 17.8513 724.132 23.1313C730.912 34.4413 719.532 42.7013 712.252 49.5513C718.582 45.6013 725.172 41.9913 731.932 38.8713C735.732 37.1213 739.592 35.4313 743.512 33.9713C749.322 31.8113 754.022 32.5023 758.792 36.5213C760.922 38.3213 761.982 42.2523 761.002 44.8713C759.102 49.8913 756.102 52.9413 750.842 54.3913C747.142 55.4113 743.352 56.1013 739.652 57.1713C733.452 58.9513 727.432 61.1213 721.592 63.8313C722.012 64.0913 722.412 64.3713 722.782 64.6913C727.142 63.2813 731.582 62.0613 736.042 61.0213C743.439 59.287 750.967 58.1151 758.529 57.3821L761.041 57.1483C770.107 56.2783 781.008 54.6728 786.572 63.3513C788.402 66.2113 788.602 70.9313 786.572 73.7613C782.692 79.2013 778.832 80.2813 772.412 80.3813C778.732 81.0513 785.042 81.8813 791.322 82.8513C795.65 83.5113 799.979 84.2595 804.289 85.0895L806.442 85.5113C811.692 86.5613 817.552 87.1713 822.062 90.2113C831.902 96.8513 827.282 109.781 816.382 111.161C811.112 111.821 805.262 109.591 800.092 108.551C795.072 107.541 790.032 106.651 784.972 105.871C782.352 105.461 779.732 105.101 777.102 104.771C782.452 105.541 787.762 106.631 792.932 108.171L794.368 108.605C804.363 111.651 817.854 116.502 820.972 127.181C822.862 133.671 817.692 139.331 811.432 139.711C805.612 140.061 800.762 136.591 795.822 134.031C792.222 132.171 788.562 130.781 784.682 129.591C780.672 128.361 776.582 127.341 772.462 126.511C775.944 128.43 779.334 130.538 782.589 132.896L784.086 134.002C792.737 140.448 805.93 150.428 802.882 162.511C801.922 166.321 797.672 169.961 793.592 169.571C782.972 168.581 777.112 157.271 769.102 151.211C767.012 149.631 764.722 148.071 762.322 146.551C774.462 161.031 784.122 177.771 791.472 195.061C807.625 233.099 812.581 268.325 812.7 309.225L812.702 310.491C812.722 333.051 812.212 356.021 810.012 378.481C807.972 399.231 804.232 419.711 794.822 438.502C779.052 470.011 748.322 494.551 714.432 503.891C676.722 514.291 634.572 506.161 603.682 482.161C595.802 476.041 606.252 462.752 614.302 468.401C646.452 490.951 688.032 498.091 724.932 482.831C754.202 470.731 777.772 444.701 787.762 414.731C794.12 395.665 795.972 375.335 798.24 355.465L798.392 354.141C800.792 333.361 802.182 312.441 802.162 291.521C802.132 252.671 796.552 220.691 779.462 185.451C771.422 168.851 760.992 153.502 748.532 140.031C744.752 140.801 740.732 139.721 736.912 139.311C734.962 139.101 733.012 138.901 731.062 138.721C733.054 140.009 735.007 141.349 736.928 142.719L739.446 144.535C747.328 150.18 757.328 156.609 755.302 167.521C754.752 170.471 751.812 173.181 748.962 173.851C738.632 176.311 731.532 166.271 724.552 160.311C718.482 155.131 712.132 150.491 705.662 145.841C704.192 144.791 702.712 143.741 701.222 142.701C702.622 144.333 703.983 145.991 705.312 147.664L707.276 150.153C713.218 157.588 721.784 167.253 716.492 176.891C714.992 179.611 711.792 181.421 708.692 181.361C698.032 181.141 693.792 169.041 688.792 161.401C684.492 154.851 679.822 148.681 674.992 142.511C673.662 140.821 672.322 139.131 670.962 137.441C648.572 138.601 626.262 141.561 604.342 146.291C589.282 149.541 574.472 153.752 559.772 158.361L558.55 158.75C550.595 161.311 542.398 164.59 536.662 170.211C535.843 174.085 536.471 178.169 537.255 182.037L537.865 184.998C540.38 197.379 542.094 209.53 540.812 222.241C539.482 235.351 535.532 247.141 530.712 259.321C528.432 265.061 526.072 264.021 525.262 270.181C524.641 274.873 525.025 279.717 525.449 284.448L525.803 288.459C526.692 298.966 527.139 310.422 520.252 319.091C519.182 320.421 516.892 319.891 516.132 318.561C515.832 318.031 515.512 317.521 515.162 317.031C511.842 312.221 506.752 309.481 500.932 308.421C500.192 308.291 500.482 307.301 501.102 307.221C506.022 306.641 510.682 307.871 514.642 310.411C512.764 303.918 498.226 307.076 493.446 308.338L493.282 308.381C487.322 309.981 481.682 312.581 476.712 316.261C466.712 323.661 460.932 335.201 461.222 347.631C461.512 359.851 467.822 371.141 478.662 376.991C483.892 379.811 489.842 381.171 495.762 381.111C501.942 381.051 507.442 378.341 513.632 378.721C517.212 378.941 519.952 382.781 517.882 386.131C516.502 388.371 514.702 390.131 512.622 391.481C517.692 403.171 524.162 414.321 531.622 424.611C535.752 430.321 540.432 435.591 545.582 440.401C549.602 444.161 558.312 448.511 557.822 454.781C557.652 457.041 556.482 458.421 554.422 459.261C548.017 461.88 540.23 452.864 535.946 448.518L535.602 448.171C530.262 442.851 525.392 436.971 521.152 430.731C513.632 419.651 508.962 407.161 507.032 394.041C496.762 397.131 483.162 394.231 474.782 390.441C448.442 378.541 439.832 343.071 455.842 319.451C458.942 314.881 462.822 310.971 467.242 307.811C466.272 307.281 465.362 306.601 464.552 305.741C460.071 300.982 456.903 294.771 453.759 289.046L453.382 288.361C450.591 283.321 447.958 278.202 445.49 273.004L444.572 271.051C439.062 259.201 434.232 254.021 430.302 241.561C426.522 229.541 423.542 217.291 421.612 204.831L421.099 201.533C419.983 194.303 418.927 186.572 419.742 179.231C414.132 181.061 408.492 182.191 402.942 179.441C399.282 177.631 397.262 172.351 398.512 168.561C399.422 165.771 400.942 163.581 402.872 161.861C401.722 161.281 400.642 160.541 399.692 159.721L398.862 159.002C395.502 156.081 395.262 150.531 397.302 146.871C397.502 146.521 397.702 146.161 397.892 145.811C399.832 142.341 403.842 140.071 407.802 140.131C408.442 140.141 409.082 140.141 409.732 140.131C407.882 139.721 406.072 139.091 404.352 138.031C396.592 133.261 397.572 120.331 406.962 118.051C410.902 117.101 415.252 117.491 419.592 118.511C419.432 118.421 419.272 118.331 419.112 118.231C415.832 116.221 413.082 112.291 413.392 108.261C413.732 103.801 415.172 100.621 419.112 98.2813C422.532 96.2613 427.372 96.0713 430.772 98.2813C433.722 100.211 436.612 102.341 439.392 104.631C436.602 101.201 434.182 97.4713 433.202 93.5113C431.992 88.5813 434.012 83.2113 438.452 80.6113C441.992 78.5413 445.732 78.7713 449.072 80.3713C448.892 77.7813 449.522 75.1413 451.242 72.8013C454.762 68.0023 461.162 65.2413 466.732 68.7413C467.462 69.2013 468.442 69.9913 469.392 70.9613C467.542 65.0713 469.212 58.8913 475.522 56.2313C479.372 54.6013 484.582 55.4213 487.922 58.2313C485.802 46.7613 502.732 38.3313 509.312 50.1813C510.805 52.8658 512.283 55.6924 513.604 58.5841L514.092 59.6713L514.142 59.6513L513.805 58.8563L513.462 58.0613C511.632 53.8113 509.302 49.3913 508.662 44.7813C507.722 37.9613 510.762 31.4913 518.182 30.4913C522.012 29.9713 526.272 31.7113 528.842 34.7523C527.452 24.1713 539.272 16.4813 547.782 24.3813C551.812 28.1213 553.962 33.5913 556.522 38.3913C557.972 41.1013 559.452 43.8013 560.902 46.5213C561.272 46.0813 561.672 45.6413 562.092 45.2113C559.942 38.7713 558.272 32.1713 556.862 25.5313C555.522 19.2713 558.652 12.7713 565.112 11.0023C570.982 9.38133 578.332 13.0023 579.642 19.2523C580.562 23.6513 581.652 28.0023 582.852 32.3313C583.672 32.1313 584.482 31.9913 585.282 31.8913C585.348 31.078 585.424 30.2602 585.508 29.4469L585.823 26.5542C586.522 19.9447 587.228 12.3998 590.682 6.78133C596.572 -2.81867 611.672 1.16133 611.832 12.5113C611.922 18.3813 609.532 24.2013 608.702 30.0113C608.342 32.5413 608.132 35.1013 608.012 37.6613C609.622 29.1613 611.832 20.7713 614.392 12.5113C614.692 11.5213 615.012 10.5313 615.322 9.54133ZM485.042 337.322C498.292 335.272 510.402 342.662 518.252 353.012C519.682 354.902 518.742 357.572 517.452 359.162C516.522 360.332 515.272 360.472 513.862 360.652C512.242 360.862 510.192 359.552 509.482 358.142C504.432 348.062 495.422 341.692 485.042 337.772C484.852 337.702 484.792 337.362 485.042 337.322ZM503.409 156.717L503.811 156.286C506.492 153.505 502.255 149.257 499.568 152.044C496.739 154.978 494.859 158.542 493.051 162.154C491.328 165.598 496.502 168.64 498.232 165.183L499.02 163.612C500.256 161.169 501.574 158.755 503.409 156.717ZM466.199 151.009C469.999 150.369 468.388 144.586 464.604 145.224C459.702 146.05 454.819 146.989 449.916 147.816C446.117 148.456 447.728 154.239 451.512 153.602C456.414 152.775 461.297 151.836 466.199 151.009ZM692.567 111.528C688.896 110.303 687.321 116.096 690.972 117.314C696.017 118.997 701.021 120.722 705.807 123.059C709.264 124.747 712.309 119.574 708.835 117.878C703.582 115.313 698.105 113.376 692.567 111.528ZM465.335 103.752C461.75 102.318 460.193 108.119 463.74 109.538L476.7 114.721C480.285 116.155 481.842 110.355 478.295 108.936L465.335 103.752ZM737.821 89.6648L737.348 89.3663C734.098 87.2603 731.087 92.4523 734.319 94.5473C736.216 95.7765 738.523 96.6102 740.26 98.0745L740.624 98.3983C743.43 101.048 747.681 96.8143 744.867 94.1553C742.808 92.2119 740.202 91.1298 737.821 89.6648Z" fill="black"/>
<path fill-rule="evenodd" clip-rule="evenodd" d="M704.943 371.352C706.477 368.685 710.009 366.214 713.241 366.593C727.72 368.291 727.695 385.845 722.104 396.093C717.147 405.18 706.888 410.514 696.62 409.735C685.833 408.916 676.642 402.574 672.597 392.483C669.922 385.808 668.686 373.485 675.802 369C675.934 368.916 676.152 368.937 676.257 369.058C679.669 373.027 679.803 378.986 682.79 383.405C685.568 387.515 689.884 390.909 694.94 391.433C698.716 391.825 702.536 390.463 704.013 387.073C704.812 385.239 704.721 384.244 704.421 382.982L704.148 381.885C703.202 378.044 702.778 375.119 704.943 371.352ZM708.814 294.367C716.365 298.957 727.871 309.66 719.748 321.04C710.185 331.073 696.418 319.569 689.634 314.366C683.343 310.334 676.275 320.705 682.112 325.413C731.135 361.708 751.03 295.568 712.633 288.971C708.406 288.244 706.835 292.947 708.814 294.367ZM629.071 262.893C633.706 255.939 644.286 256.963 646.839 265.215C648.222 269.685 646.312 273.703 646.411 278.167C646.494 281.938 646.247 286.14 645.091 289.792C642.455 298.12 634.965 304.002 626.104 303.758C617.272 303.515 609.493 297.925 605.794 290.052C602.082 282.149 602.868 273.97 605.578 265.934C605.708 265.548 606.214 265.361 606.519 265.686C609.722 269.09 612.067 272.684 614.494 276.496L616.98 280.403C618.881 283.345 621.643 287.103 625.191 286.867L625.723 286.815C626.71 286.73 626.558 286.926 627.319 285.582C627.671 284.96 627.607 283.804 627.777 283.07L627.836 282.822L627.804 282.688C627.729 282.333 627.654 281.663 627.594 280.5L627.581 280.244C627.324 274.807 625.787 267.82 629.071 262.893ZM746.563 267.522C745.732 258.628 758.236 256.653 762.393 263.234C764.561 266.666 765.192 270.977 765.672 275.062L765.896 277C766.388 281.195 766.583 285.559 764.762 289.472C761.894 295.635 755.657 298.893 748.929 298.377C742.504 297.883 736.642 294.158 733.552 288.503C730.797 283.457 728.058 273.605 731.404 268.342C731.606 268.023 732.01 267.982 732.287 268.228C735.449 271.035 735.964 276.155 737.844 279.812C739.783 283.584 742.724 287.26 747.181 287.833C751.445 288.381 753.074 286.052 751.986 281.987C750.583 276.739 747.091 273.169 746.563 267.522ZM632.448 210.016L634.493 209.233C641.499 206.586 651.118 203.527 656.814 209.224C660.328 212.737 660.997 217.912 658.489 222.199C655.45 227.392 649.999 227.52 644.735 228.285C638.748 229.155 632.659 230.809 627.085 233.167C620.806 235.824 614.979 239.136 609.27 242.835C603.844 246.35 598.437 252.095 591.942 253.178C591.677 253.222 591.376 253.108 591.307 252.817C589.832 246.467 593.931 240.218 597.589 235.264C602.015 229.266 607.378 224.343 613.372 219.929C619.157 215.668 625.767 212.589 632.448 210.016ZM759.716 232.593L760.34 232.483C764.589 231.776 768.439 231.939 771.641 235.304C774.085 237.871 775.027 241.198 773.862 244.592C772.787 247.723 770.383 250.904 766.894 251.56C755.115 253.776 742.068 253.41 730.23 251.732C724.814 250.963 719.349 250.024 714.073 248.542L711.646 247.838C707.242 246.58 702.2 245.266 699.001 242.027C697.851 240.863 698.514 239.197 699.89 238.658C705.472 236.472 713.123 237.635 719.075 237.464C725.999 237.266 732.934 236.747 739.825 236.032C746.559 235.332 753.075 233.811 759.716 232.593Z" fill="black"/>
<path fill-rule="evenodd" clip-rule="evenodd" d="M708.963 342.325C696.77 336.836 674.874 341.626 666.925 343.53C648.445 347.958 629.854 357.529 624.108 372.523C617.634 389.421 630.552 394.741 632.452 393.872C645.245 394.772 660.48 386.736 673.886 384.662C684.769 382.963 696.25 381.481 706.447 375.703C713.891 379.795 730.706 382.007 744.277 385.585C755.834 388.631 760.842 395.237 771.556 393.832C784.397 392.149 779.141 365.16 764.829 354.227C749.166 342.261 722.674 337.408 708.963 342.325ZM733.106 457.724C722.438 460.324 721.722 436.959 720.527 428.704C719.593 422.255 714.327 405.624 700.978 406.342C687.628 407.059 682.609 420.993 683.287 429.659C683.726 435.279 688.908 463.746 672.366 467.348C661.82 467.31 649.619 466.599 638.529 464.556C625.477 461.602 608.506 451.26 604.023 471.627C602.409 478.957 659.903 500.735 685.416 502.705C711.29 507.945 741.563 499.888 759.984 480.109C764.175 475.609 775.978 456.932 776.819 452.356C778.586 442.741 774.495 436.554 762.59 439.943C754.181 444.431 739.967 456.053 733.106 457.724Z" fill="black"/>
<path fill-rule="evenodd" clip-rule="evenodd" d="M783.134 313.318C776.401 322.363 763.919 325.244 752.406 324.249C727.575 321.859 719.76 293.658 718.946 271.739C735.597 276.423 717.538 243.249 774.457 239.601C794.522 237.929 788.99 250.047 797.855 258.901C797.673 277.483 794.58 297.674 783.134 313.318ZM664.863 291.966C650.203 360.619 569.925 344.289 561.492 282.403C569.279 276.907 567.228 263.336 576.902 258.419C592.234 248.623 611.4 249.042 628.811 249.272C651.066 250.801 657.408 260.02 668.84 270.078C668.29 276.796 666.704 284.758 664.863 291.966ZM814.935 228.231C814.112 228.094 813.288 227.965 812.464 227.844C811.821 227.479 811.066 227.198 810.188 227.029C808.183 226.52 806.192 226.177 804.204 225.992C775.672 219.571 709.665 228.688 706.941 253.036C697.855 256.069 689.993 253.353 679.462 253.623C671.446 220.118 532.863 224.847 526.198 245.047C526.173 245.04 526.148 245.034 526.122 245.026C519.718 243.044 510.277 243.522 502.947 243.208C487.296 242.88 471.627 244.275 456.314 247.576C427.639 252.133 388.504 257.468 408.447 293.276C408.451 293.282 408.454 293.289 408.459 293.295L408.462 293.292C411.899 296.815 417.732 293.978 417.949 289.209C411.244 272.245 426.388 270.208 438.04 265.333C467.033 254.917 496.551 253.473 526.537 256.695C528.793 259.351 532.216 261.667 535.834 262.879C555.883 266.207 545.317 281.079 557.99 283.242C555.662 335.084 618.603 363.382 655.072 329.303C669.633 315.067 673.104 293.978 676.48 274.969C678.265 274.568 679.4 273.592 680.063 272.3C684.356 268.014 687.053 264.056 695.542 262.879C704.031 261.703 710.566 264.064 711.45 264.787C711.673 265.236 711.912 265.686 712.19 266.136C712.578 266.807 713.106 267.342 713.706 267.763C705.323 319.387 745.4 352.035 785.859 325.26C803.439 308.723 807.154 283.405 807.888 260.807C810.271 259.369 811.78 256.582 810.955 253.078C809.818 248.248 812.484 244.066 816.73 241.966C822.247 239.239 821.271 229.28 814.935 228.231Z" fill="black"/>
</svg>
