<svg width="926" height="2570" viewBox="0 0 926 2570" fill="none" xmlns="http://www.w3.org/2000/svg">
<g clip-path="url(#clip0)">
<path fill-rule="evenodd" clip-rule="evenodd" d="M153.459 1197.3C153.576 1205.2 154.367 1223.33 156.348 1230.97C134.277 1195.59 101.205 1156.91 96.1757 1113.56C97.7431 1113.13 104.698 1112.49 105.912 1111.58C117.331 1116.89 115.171 1100.55 116.859 1093C121.416 1077.01 130.991 1061.28 135.151 1045.18C146.087 1040.45 124.126 1038.44 120.936 1038.35C134.2 1023.58 140.302 1003.27 149.747 986.033C163.624 956.743 176.054 926.802 187.152 896.391C189.577 915.446 190.012 934.707 188.534 953.867C183.971 1035.94 153.15 1114.85 153.459 1197.3ZM919.476 1051.52C912.61 1052.67 901.167 1053.76 894.314 1054.33C903.309 1048.96 929.893 1038.74 913.14 1029.56C907.974 1027.67 902.431 1030.36 897.222 1031.2C875.59 1034.76 848.878 1034.57 826.993 1032.77C834.971 1026.22 845.475 1016.79 853.26 1010.01C857.398 1006.41 861.41 1005.05 856.756 999.667C848.552 992.024 833.881 997.653 824.396 1001.01C798.23 1015.68 768.687 1031.58 740.604 1042.86C740.31 1038.93 740.492 1033.84 736.698 1031.2C725.571 1025.95 717.378 1027.48 705.538 1026.09C691.738 1024.02 679.471 1021.66 665.804 1018.01C656.865 1011.19 651.415 991.082 637.121 993.33C649.781 961.461 630.486 928.212 623.237 897.696C614.192 866.467 609.439 834.034 609.31 801.563C609.221 749.576 579.12 709.686 535.625 683.01C518.478 671.427 506.964 643.252 485.735 637.609C483.035 627.246 482.871 622.693 480.501 612.252C479.31 609.252 478.426 592.977 475.433 593.531C472.132 577.409 455.31 570.943 440.754 567.567C421.829 563.643 395.417 558.89 378.404 569.962C373.476 574.064 371.311 580.932 370.95 587.068C369.059 595.238 365.127 603.702 360.544 610.791C352.721 608.147 357.148 603.22 349.412 602.073C278.77 591.599 200.356 643.443 154.522 694.018C71.4403 779.365 5.06892 895.876 15.9334 1017.51C13.0114 1017.08 0.0606932 1015.05 0.247608 1019.15C0.881883 1036.95 4.15565 1051.79 5.0593 1069.58C4.16114 1093.14 28.6326 1095.98 46.3105 1101.79C45.222 1170.16 70.0494 1238.54 108.909 1294.74C118.349 1305.79 132.515 1344.17 149.747 1328.88C151.777 1326.51 136.029 1310.05 133.227 1305.98C123.66 1293.93 98.3185 1234.28 116.228 1222.36C120.21 1235.24 158.764 1297.16 165.637 1262.01C174.765 1267.31 189.848 1270.93 200.76 1270.38C221.273 1281.5 241.234 1293.5 260.934 1305.98C270.11 1324.01 283.569 1341.32 294.845 1358.63C216.807 1538.96 140.637 1835.76 40.2116 2005.6C31.4555 2016.69 79.6249 2035.54 88.133 2039.61C71.8624 2066.04 69.8253 2096.67 57.447 2125.13C55.0893 2124.75 52.7109 2125.25 50.5841 2126.39C35.3147 2136.73 29.5527 2173.77 28.682 2192.02C29.3871 2200.17 26.3689 2212.49 32.9563 2218.49C32.0355 2219.48 31.3483 2220.7 30.859 2221.94C26.2232 2225.55 26.7943 2233.53 29.2723 2238.48C37.9913 2256.58 101.722 2254.9 122.403 2258.77C195.662 2264.98 257.149 2265.96 330.398 2259.17C339.388 2257.29 332.589 2243.26 328.15 2239.45C330.201 2238.2 331.512 2235.93 330.614 2233C313.962 2185.36 253.777 2188.58 217.359 2163.14C226.935 2157.6 220.754 2159.37 214.738 2161.52C208.353 2157.51 202.141 2152.99 196.387 2148C200.806 2145.27 198.627 2143.47 193.846 2145.75C186.311 2139.71 180.442 2130.36 170.844 2127.43C161.442 2125.13 161.442 2121.11 161.442 2118.57C167.037 2096.06 173.149 2072.98 176.29 2050.16C179.641 2055.1 208.552 2015.49 214.738 2005.6C238.774 1967.52 238.709 1929.99 255.529 1888.58C290.069 1798.39 360.823 1609.37 403.971 1523.12C504.929 1687.69 455.756 1910.28 518.036 2085.78C520.804 2091.05 526.008 2110.82 533.217 2105.12C536.019 2105.77 538.998 2106.13 541.666 2106.5C540.896 2125.69 539.459 2144.82 536.272 2163.81C533.304 2164.59 530.782 2166.15 529.475 2168.88C524.477 2165.2 514.906 2219.38 514.087 2224.9C514.075 2232.01 507.941 2247.86 513.543 2252.09C505.472 2255.4 504.152 2267.61 509.829 2273.89C526.685 2296.55 608.845 2290.32 639.156 2294.12C677.486 2293.17 837.836 2307.53 848.969 2271.15C851.183 2262.85 847.389 2252.37 839.672 2249.17C842.76 2241.96 835.364 2234.99 830.841 2229.93C804.163 2202.17 763.141 2197.8 727.622 2185.72C728.946 2184.36 681.257 2159.92 670.918 2153.87C671.6 2145.67 654.55 2153.9 654.503 2153.87C646.373 2139.5 640.615 2117.14 635.164 2101.63C645.224 2098.51 669.462 2095.74 673.954 2085.78C688.392 2080.93 673.909 2059.98 670.918 2050.16C586.286 1838.32 666.58 1571.12 541.666 1371.17C564.563 1358.05 590.832 1329.35 568.214 1305.26C563.688 1299.47 552.616 1281.45 552.798 1284.59C548.592 1267.43 539.199 1237.87 536.272 1220.51C525.527 1156.8 532.57 1097.12 541.666 1032.77C554.294 1081.19 597.82 1121.54 642.098 1143.66C659.379 1150.79 682.198 1165.51 701.17 1160.87C718.293 1155.8 749.39 1120.64 753.055 1103.75C802.97 1109.68 854.797 1104.92 902.499 1089.22C908.623 1086.91 915.869 1087.1 913.976 1078.41C912.088 1071.03 898.623 1072.91 892.833 1074.28C901.683 1069.37 924.657 1068.09 924.481 1055.26C924.182 1052.58 922.208 1051.06 919.476 1051.52Z" fill="white"/>
<path fill-rule="evenodd" clip-rule="evenodd" d="M371.123 576.848C371.882 577.156 372.401 578.311 372.708 580.046C373.553 580.31 374.277 580.935 374.495 581.876C375.136 584.642 374.387 587.527 373.81 590.284L373.744 590.602C373.198 593.272 372.53 595.925 371.713 598.526L371.594 599.185C369.607 609.938 365.777 620.161 361.278 618.425L362.318 620.318C379.969 652.367 430.388 738.42 469.755 726.154C492.678 716.962 492.351 687.081 490.675 666.286C473.654 676.73 470.469 596.775 473.959 587.939C476.737 585.895 478.077 604.288 479.11 606.823C481.366 616.912 484.131 626.871 486.728 636.876C492.217 637.963 497.408 640.152 501.997 643.289C502.216 643.415 502.441 643.529 502.655 643.659C505.41 645.336 507.558 647.474 509.474 649.843C511.639 652.267 513.491 654.92 515.24 657.647C519.084 662.017 522.749 666.549 526.536 670.965C528.333 673.061 530.172 675.093 532.053 677.073L533.503 678.293C533.745 678.495 533.988 678.696 534.232 678.896C577.723 706.062 607.831 746.709 607.915 799.652C608.044 832.727 612.796 865.762 621.842 897.572C629.09 928.654 652.507 960.423 639.848 992.883C654.141 990.592 655.469 1008.98 664.408 1015.93L667.216 1016.69C679.774 1020.07 691.291 1022.89 704.139 1024.85C715.98 1026.27 729.669 1024.71 740.796 1030.05C744.589 1032.75 743.232 1037.6 743.527 1041.61C771.608 1030.12 796.829 1014.24 822.994 999.307L823.87 998.994C833.555 995.554 850.831 990.386 858.788 997.938C863.442 1003.42 858.743 1008.31 854.606 1011.98C846.82 1018.88 838.561 1025.21 830.585 1031.88C852.079 1033.68 873.64 1032.25 894.897 1028.76L896.056 1028.57C901.264 1027.72 907.405 1025.69 912.571 1027.61C929.323 1036.97 909.939 1047.89 900.945 1053.35C907.798 1052.78 914.639 1051.93 921.506 1050.75C924.238 1050.28 926.211 1051.84 926.512 1054.56C926.686 1067.63 909.479 1068.34 900.631 1073.33L901.34 1073.17C907.125 1071.83 915.443 1070.65 917.256 1077.86C919.15 1086.72 907.217 1090.3 901.094 1092.66C853.393 1108.65 801.568 1113.5 751.655 1107.45C747.991 1124.66 716.893 1160.47 699.771 1165.63C680.8 1170.37 657.982 1155.37 640.702 1148.1C596.425 1125.57 555.4 1088.4 542.773 1039.08C532.161 1115.55 536.45 1192.64 552.381 1267.88C554.96 1273.75 557.681 1279.52 560.742 1285.15C561.667 1285.3 562.45 1285.92 562.63 1287.17C562.725 1287.86 562.863 1288.52 563.019 1289.18C566.067 1294.36 569.408 1299.34 572.51 1304.49C573.151 1305.55 573.784 1306.66 574.362 1307.79C595.012 1332.16 569.844 1363.56 547.333 1376.69C672.243 1580.35 591.567 1837 676.196 2052.78L676.384 2053.39C679.597 2063.65 689.38 2084.78 675.231 2089.61C670.739 2099.76 648.102 2100.96 638.043 2104.14C643.493 2119.93 649.553 2135.55 657.682 2150.19L657.83 2150.26V2150.26C661.067 2147.88 668.011 2145.41 670.88 2148.01C671.578 2148.1 672.274 2148.29 672.953 2148.63C677.394 2150.84 680.966 2155.06 685.214 2157.72C687.512 2159.16 689.899 2160.46 692.359 2161.6C694.648 2162.66 697.08 2163.36 698.948 2165.11C699.538 2165.66 699.687 2166.37 699.542 2167.01C701.016 2167.78 702.49 2168.55 703.958 2169.32L704.756 2168.82C717.736 2160.73 728.175 2156.34 709.292 2171.89C716.058 2175.02 722.997 2177.76 729.98 2180.32C735.284 2177.77 740.945 2175.91 746.782 2175.65C747.831 2176.95 739.808 2181.97 738.485 2183.35C774.002 2195.66 813.068 2205.29 839.745 2233.57L840.343 2234.24C844.886 2239.33 851.53 2246.13 848.576 2253.16C856.292 2256.42 860.087 2267.09 857.873 2275.55C846.741 2312.6 676.088 2297.98 637.76 2298.95C607.451 2295.08 525.293 2301.42 508.437 2278.34C502.762 2271.94 504.08 2259.5 512.151 2256.14C506.55 2251.83 512.683 2235.68 512.696 2228.43L512.825 2227.6C513.683 2222.18 517.402 2201 521.262 2186.19C521.341 2185.03 521.496 2183.83 521.683 2182.63L521.804 2181.86C522.572 2177.14 523.75 2172.35 526.796 2168.55C528.984 2165.82 532.016 2164.14 535.305 2163.53C536.187 2157.9 536.911 2152.25 537.532 2146.59C537.969 2139.93 538.136 2133.27 538.061 2126.6C538.022 2123.23 537.933 2119.87 537.769 2116.5C537.648 2114.03 537.789 2111.09 537.161 2108.56C536.743 2108.99 536.147 2109.22 535.48 2108.99C534.062 2108.5 532.757 2107.61 531.456 2106.87C531.407 2106.84 531.368 2106.81 531.326 2106.78C524.376 2111.3 519.347 2091.97 516.643 2086.73C454.366 1907.97 503.538 1702.25 402.583 1534.61C388.646 1564.54 376.669 1592 363.254 1622.14C321.359 1716.26 269.64 1882.05 234.955 1981.72C225.519 2002.09 214.426 2021.78 201.241 2039.97C197.026 2044.75 194.198 2051.79 188.096 2054.36L187.562 2054.44V2054.44C185.933 2057.49 183.672 2060.05 180.311 2059.97C179.486 2059.95 178.645 2059.85 177.796 2059.71C174.816 2080.44 171.07 2101.31 166.089 2121.72L166.761 2121.44C170.021 2120.09 173.449 2118.94 176.795 2119.24C184.915 2121.3 181.908 2128.4 175.49 2130.75C183.479 2133.23 188.885 2140.23 194.817 2146.07C199.831 2143.36 205.451 2141.96 211.456 2142.55C212.375 2142.64 213.076 2143.04 213.563 2143.59C213.907 2143.6 214.242 2143.62 214.56 2143.67L213.906 2144.06V2144.06C214.973 2145.86 214.211 2148.59 211.456 2148.61C209.292 2148.62 207.21 2148.81 205.196 2149.19C203.797 2150 202.406 2150.83 201.033 2151.69C205.663 2155.79 210.592 2159.56 215.667 2163.01C218.348 2161.64 221.182 2160.49 224.131 2159.57C227.937 2158.38 229.599 2164.43 225.775 2165.53C224.964 2165.76 224.16 2166.02 223.361 2166.3L222.577 2166.78C222.394 2166.89 222.203 2167 222.004 2167.12C258.421 2193.03 319.978 2189.75 336.63 2238.27C337.181 2240.1 336.898 2241.68 336.123 2242.93C339.732 2246.24 341.397 2252.2 340.584 2256.76L340.654 2257.15C341.273 2260.85 340.382 2264.09 336.413 2264.94C309.929 2267.41 283.51 2268.97 256.91 2269.46L254.764 2269.48C216.654 2269.73 31.2905 2268.35 22.9293 2243.86C20.6995 2239.32 20.0123 2232.29 23.275 2228.24C23.6536 2226.07 24.3992 2224.09 25.7247 2222.54C20.3559 2217.11 22.9967 2203.43 22.3397 2196.54C23.5182 2173.54 28.1813 2148.87 42.2297 2130.05C42.4592 2129.75 42.7368 2129.57 43.0234 2129.48C45.4766 2127.01 48.7001 2125.45 52.386 2125.24C52.5008 2124.96 52.6176 2124.67 52.7296 2124.39C55.5951 2117.62 58.3169 2110.74 61.0209 2103.82C63.0274 2095.96 65.1205 2088.11 67.2171 2080.31C69.3122 2072.52 71.3621 2064.72 73.3672 2056.91C74.9642 2050.68 76.3378 2043.65 79.1016 2037.7C79.0267 2037.45 78.9545 2037.19 78.8721 2036.94L75.9961 2035.77C57.1583 2028.11 27.3102 2015.19 33.8683 2006.65C103.752 1861.32 172.159 1654.43 236.29 1503.77C237.292 1500.81 238.352 1497.88 239.515 1494.97C242.348 1487.88 245.217 1480.81 248.126 1473.76L249.877 1469.53L277.817 1402.25V1402.25C280.741 1395.21 284.038 1388.2 286.343 1380.93C288.564 1373.92 289.16 1366.94 284.941 1360.57C281.166 1354.86 275.846 1350.14 271.589 1344.77C268.371 1340.72 265.233 1336.39 262.421 1331.84C259.868 1328.47 257.733 1324.61 255.829 1321.5C252.778 1316.52 248.897 1311.01 246.682 1305.26C243.826 1303.45 240.964 1301.66 238.092 1299.89C233.131 1297.1 228.25 1294.19 223.499 1291.04C217.499 1287.47 211.46 1283.96 205.374 1280.53C203.177 1279.44 200.978 1278.35 198.777 1277.27C192.183 1277.84 173.967 1269.7 167.761 1264.2C167.052 1264.06 166.346 1263.9 165.644 1263.72C165.364 1267.24 164.217 1270.42 161.543 1272.78C143.761 1281.61 121.097 1241.62 114.851 1228.27C102.438 1240.41 132.056 1300.44 141.623 1312.71L142.134 1313.47C144.693 1317.31 147.375 1321.62 151.005 1324.45L151.371 1324.73C153.86 1326.57 154.321 1329.45 152.291 1331.87C135.059 1347.44 116.971 1313.25 107.53 1301.99C68.6739 1244.75 43.8459 1175.1 44.9344 1105.46C27.2578 1099.54 2.78648 1096.65 3.6846 1072.65C2.78098 1054.53 -0.492672 1036.61 -1.12891 1018.48C-1.31315 1014.31 11.6372 1016.38 14.5597 1016.82C10.2546 975.158 16.7593 932.863 28.3607 892.826C58.8186 790.379 184.242 605.734 307.692 599.068C307.584 598.866 307.635 598.595 307.912 598.523C313.499 597.071 319.674 597.303 325.416 597.486C331.392 597.676 337.467 597.717 343.411 598.392C349.572 599.092 356.096 601.358 360.235 605.843L361.669 603.254C363.333 600.232 364.936 597.179 366.147 593.844C366.761 592.159 367.241 590.412 367.68 588.647C368.175 586.129 368.3 583.508 369.49 581.221C369.522 581.162 369.561 581.112 369.596 581.057C370.024 579.616 370.514 578.204 371.123 576.848ZM522.637 2256.05C520.872 2257.85 517.813 2258.63 515.105 2257.77C506.102 2283.36 554.944 2281.76 570.619 2283.2C587.335 2284.98 891.814 2300.83 840.322 2263.3C779.91 2286.34 577.854 2288.88 522.637 2256.05ZM670.918 2154.56C666.854 2158.75 660.725 2160.62 656.365 2164.62C644.039 2175.06 634.124 2189.73 617.089 2192.5C594.71 2196.68 574.535 2185.63 554.516 2176.87C552.024 2176.75 549.424 2175.7 546.869 2174.92C546.778 2175.11 546.688 2175.29 546.585 2175.46C546.461 2175.41 546.328 2175.37 546.179 2175.35C545.957 2175.31 545.746 2175.29 545.528 2175.26C545.014 2174.84 544.473 2174.5 543.912 2174.21C543.573 2174.16 543.236 2174.11 542.902 2174.09C538.776 2173.84 534.298 2174.8 531.65 2178.22C531.423 2178.52 531.218 2178.82 531.019 2179.14C529.736 2183.68 529.572 2189.19 530.191 2193.04C530.392 2194.3 529.868 2195.53 528.982 2196.25C528.191 2215.29 526.048 2234.41 524.552 2253.2C532.04 2255.89 539.809 2257.94 547.585 2259.24C601.243 2265.84 655.475 2268.91 709.546 2267.25C741.734 2266.08 773.877 2263.21 805.731 2258.42C816.028 2257.45 826.568 2253.46 836.858 2255.07C837.297 2254.25 837.98 2253.54 838.93 2253.05C812.554 2216.91 767.471 2207.14 728.167 2191.3C721.675 2195.45 717.679 2204.1 710.448 2206.67C707.641 2207.1 703.738 2205.44 704.15 2201.88C705.316 2194.58 713.191 2191.25 718.494 2187.02C712.804 2184.36 707.222 2181.47 701.777 2178.26C696.428 2183.08 690.098 2186.75 685.09 2191.9C687.937 2198.85 676.069 2198.25 675.936 2190.85C676.757 2182.66 689.722 2179.19 695.513 2174.42C686.468 2168.91 678.39 2161.96 670.918 2154.56ZM33.6748 2226.12C33.3594 2226.74 32.8447 2227.3 32.0826 2227.75C30.7634 2228.51 31.3974 2232.55 31.4637 2233.91L31.4676 2234.01C31.5398 2236.45 31.6923 2238.89 31.904 2241.32C34.1304 2243.33 36.9773 2244.86 40.1403 2245.78C136.47 2261.16 234.649 2262.4 331.909 2256.82C331.462 2254.23 329.571 2252.1 327.898 2249.95C266.412 2255.18 203.447 2249.7 141.858 2244.61C105.852 2239.87 68.1265 2237.91 33.6748 2226.12ZM173.92 2131.47C158.044 2136.94 143.271 2144.53 129.2 2153.62C123.97 2157.02 118.979 2160.92 112.968 2162.87C92.1539 2169.14 60.9477 2139.03 60.4474 2138.7C53.2191 2133.83 45.5545 2138.37 41.6219 2145.12C41.2584 2145.74 35.2299 2180.26 35.412 2197.16C34.3304 2202.91 37.2165 2212.31 35.6806 2218.57C36.888 2220.03 38.6093 2220.71 39.7686 2222.23C40.1884 2222.78 40.0696 2223.4 39.7067 2223.87C95.914 2228.5 151.794 2237.28 208.269 2239.14C246.921 2241.18 285.646 2240.71 324.303 2240.24C315.508 2214.41 285.551 2207.58 262.668 2199.08C245.379 2192.86 229.462 2183.6 215.456 2171.7C209.382 2175.97 204.593 2181.95 200.29 2187.95C198.335 2190.39 194.319 2192.24 192.226 2188.85C190.069 2185.34 194.279 2180.91 199.477 2177.02C202.21 2172.97 205.658 2169.52 209.627 2166.68C205.238 2162.76 201.012 2158.68 197.054 2154.35C188.844 2159.91 182.813 2167.92 176.907 2175.69C174.069 2178.79 168.762 2174.69 171.09 2171.2C172.956 2168.79 175.055 2166.57 177.304 2164.49C180.693 2158.1 185.573 2152.19 191.492 2148.1L191.041 2147.53C186.096 2141.18 181.821 2133.56 173.92 2131.47ZM34.0381 2222.06C33.902 2222.23 33.7591 2222.39 33.6066 2222.55C33.7426 2222.83 33.8471 2223.12 33.924 2223.41L35.3664 2223.53V2223.53C34.8654 2223.11 34.4243 2222.61 34.0381 2222.06ZM632.763 2105.19C603.314 2110.75 572.893 2112.89 543.169 2108.29C546.611 2127.5 548.767 2146.83 547.638 2166.33C592.08 2179.17 610.546 2200.57 647.523 2157.8C645.736 2155.08 644.706 2151.73 643.506 2148.51C638.396 2134.52 634.173 2120.06 632.763 2105.19ZM91.875 2042.19C91.4551 2043.12 90.6979 2043.88 89.6066 2044.22C89.2177 2045.94 88.8157 2047.66 88.3869 2049.37C87.6654 2058.22 84.3272 2066.99 80.8748 2075.16L80.1705 2076.85V2076.85C77.8932 2083.64 75.506 2090.42 73.1511 2097.2C71.3672 2104.25 69.7957 2111.35 68.1534 2118.43C67.8366 2123.24 67.1549 2128 66.107 2132.71C66.0582 2132.93 65.9929 2133.13 65.9208 2133.32C67.5665 2134.06 69.1552 2134.91 70.6533 2135.77C115.742 2169.66 107.955 2147 151.247 2128.03C150.998 2126.2 151.911 2124.56 152.655 2122.67L152.751 2122.42C152.796 2122.3 152.841 2122.18 152.886 2122.06C152.815 2121.35 152.857 2120.57 153.047 2119.75C157.432 2101.81 163.537 2084.18 169.252 2066.62C170.166 2063.98 171.225 2061.39 172.308 2058.81C144.858 2058.46 117.707 2051.15 91.875 2042.19ZM79.9997 2050.91C79.4684 2053.25 78.8902 2055.56 78.3628 2057.8L77.5857 2061.13V2061.13C78.6913 2057.76 79.5633 2054.34 79.9997 2050.91ZM341.121 603.446C331.567 605.771 321.777 606.721 312.169 608.65C245.947 616.55 195.177 663.528 151.444 710.173C68.5997 797.221 20.3999 904.329 23.9574 1025.38C53.5419 1030.78 82.8213 1038.67 112.964 1040.39C108.583 1033.75 115.919 1025.45 118.445 1019.1C162.043 934.828 195.707 841.804 223.043 753.088L222.3 756.96C213.716 801.486 203.718 845.822 188.458 888.592C192.878 884.245 265.496 826.468 259.82 845.573C237.634 862.92 212.575 876.667 189.328 892.586C216.969 984.956 177.008 1078.55 169.416 1170.95C167.508 1191.5 167.674 1212.19 165.11 1232.66C164.135 1234.97 165.161 1239.68 163.726 1241.89C164.789 1247.32 167.025 1252.27 171.639 1256.51C173.582 1258.29 175.703 1259.84 177.932 1261.22C183.497 1262.06 189.087 1264.2 193.62 1266.19C203.705 1270.61 212.581 1277.12 221.596 1283.35L221.837 1283.51V1283.51C236.373 1290.98 250.893 1299.47 265.468 1308.32L266.118 1308.66C271.539 1311.51 277.082 1314.07 281.806 1318.02C282.021 1318.2 282.164 1318.41 282.258 1318.62L291.111 1324.09C362.017 1367.87 435.126 1411.16 518.259 1379.91C541.616 1370.5 575.572 1351.43 571.212 1321.94C570.352 1319.12 569.044 1316.46 567.566 1313.87C567.155 1313.32 566.732 1312.77 566.307 1312.24C563.085 1308.16 559.48 1304.43 556.682 1300.03C555.544 1298.24 554.524 1296.39 553.631 1294.5C553.001 1294.31 552.44 1293.86 552.087 1293.09C548.085 1284.36 544.166 1275.62 540.515 1266.73C496.261 1112.4 549.977 946.57 565.174 790.906C566.227 781.992 567.778 772.987 567.774 764.009C567.774 763.588 568.384 763.601 568.418 764.009C573.778 803.739 569.712 843.839 564.616 883.391C558.091 932.869 549.519 982.142 543.629 1031.71C559.286 1081.67 603.134 1117.78 649.176 1139.43C657.01 1143.15 665.019 1146.47 673.186 1149.39L673.734 1149.58C682.708 1152.72 692.836 1157.58 701.493 1151.21C718.108 1139.93 729.837 1122.72 740.604 1106.15C736.248 1105.67 731.887 1105.26 727.522 1104.96C716.805 1117.23 703.674 1127.64 689.816 1136.14C684.169 1139.38 677.754 1138.01 675.143 1131.67C672.679 1125.69 675.696 1118.71 677.881 1112.94L678.196 1112.1C689.256 1082.27 708.458 1054.93 734.386 1036.25C714.824 1032.33 694.506 1032.45 675.741 1024.72C676.764 1025.8 675.424 1027 674.772 1027.91C675.004 1029.68 673.719 1030.97 672.141 1031.45C656.83 1051.46 645.226 1075.16 642.803 1100.54C643.447 1109.18 635.714 1119.16 628.268 1110.09C622.445 1084.82 645.353 1045.34 665.498 1029.75C645.297 1015.88 651.185 995.861 638.503 995.769C635.226 1002.06 630.95 1008.09 625.56 1012.76C623.124 1014.74 620.166 1016.23 617.551 1017.99C614.801 1019.84 611.939 1015.77 614.116 1013.54L614.691 1012.85C622.962 1002.95 632.784 993.224 634.493 979.836C636.962 963.346 629.554 946.642 623.875 931.58C612.989 902.705 605.768 872.661 602.25 842.001C598.265 814.531 603.111 786.037 593.71 759.455C591.842 752.052 589.154 745.31 585.86 739.052C585.782 738.987 585.704 738.92 585.633 738.839C581.723 734.314 578.599 729.28 574.953 724.541C571.14 719.583 567.006 714.865 562.627 710.4C555.309 702.941 547.23 696.716 538.808 690.723C538.652 690.666 538.495 690.594 538.337 690.5C536.759 689.568 535.244 688.435 533.782 687.191L533.64 687.092C528.742 683.687 523.744 679.991 519.922 675.369C516.17 670.83 513.5 665.537 510.436 660.538C506.249 655.429 502.257 649.954 497.207 645.696C494.35 644.065 491.378 642.528 488.828 640.488C488.411 640.313 487.987 640.147 487.556 639.991C488.642 644.422 490.286 648.499 491.767 652.999C493.912 652.094 496.848 653.098 497.209 656.404L497.342 657.638C499.496 677.883 500.587 702.382 488.684 719.911C462.474 757.925 423.326 725.47 403.526 698.741C385.758 677.423 370.821 653.71 359.79 628.226L359.607 627.889C357.553 623.989 353.101 612.097 351.843 606.382C348.663 604.707 344.792 603.895 341.121 603.446ZM257.208 1311.94C257.128 1312.04 257.037 1312.13 256.938 1312.21C260.656 1317.49 264.198 1322.95 267.848 1328.25C264.855 1323.36 262.042 1318.43 259.551 1313.44C258.772 1312.94 257.988 1312.44 257.208 1311.94ZM49.1672 1106.78C63.3736 1183.92 83.6759 1265.09 140.246 1322.77C122.64 1297.96 108.949 1269.01 104.966 1238.68C104.801 1230.54 107.764 1221.94 116.769 1220.73C118.306 1220.53 119.473 1221.9 120.022 1223.13L120.075 1223.25C123.617 1231.71 128.223 1239.75 133.677 1247.12L134.212 1247.82C138.328 1253.14 155.797 1274.84 158.234 1264.47C156.45 1212.04 102.272 1190.42 93.3993 1118.2C78.2184 1116.6 63.8127 1110.83 49.1672 1106.78ZM165.637 1259.8C165.695 1260.62 165.723 1261.44 165.711 1262.24C166.516 1261.91 167.343 1261.64 168.189 1261.43C167.33 1260.9 166.481 1260.35 165.637 1259.8ZM164.834 1254.15C165.131 1255.65 165.383 1257.17 165.537 1258.68C167.083 1259.17 168.613 1259.71 170.134 1260.27C169.212 1259.44 168.335 1258.56 167.512 1257.63C166.554 1256.54 165.655 1255.37 164.834 1254.15ZM185.771 896.244C174.674 927.219 162.244 957.717 148.367 987.551C139.049 1005.01 132.832 1025.35 119.939 1040.5C119.813 1040.62 119.686 1040.74 119.557 1040.84L119.771 1040.85C123.613 1041.02 144.489 1043.07 133.773 1047.8C129.612 1064.19 124.161 1080.22 119.603 1096.51L119.502 1096.98C117.834 1104.86 115.725 1120.73 104.534 1115.43C103.32 1116.36 101.863 1117.01 100.295 1117.45C105.325 1161.6 133.245 1190.34 155.316 1226.39C150.383 1207.36 151.825 1187.5 153.542 1168.07L153.968 1163.29C163.088 1074.23 196.554 986.656 185.771 896.244ZM278.455 1179.34C260.467 1156.91 171.992 934.884 234.517 1069.4C256.739 1116.22 275.03 1166.36 311.691 1204.3C314.226 1207.02 310.887 1211.81 307.592 1209.61C295.759 1201.71 286.181 1191.23 278.455 1179.34ZM214.421 910.984C214.347 910.624 214.808 910.426 215.011 910.735C239.05 958.198 256.214 1009.2 283.376 1055.23C299.771 1083.73 319.445 1110.29 341.975 1134.25C343.667 1136.05 341.121 1138.54 339.287 1136.94C274.974 1077.6 243.706 991.343 214.421 910.984ZM688.436 1106.39L688.396 1106.39V1106.39L687.805 1107.92C687.604 1108.44 687.4 1108.96 687.194 1109.49C687.292 1109.44 687.391 1109.4 687.49 1109.36C687.701 1109.15 687.912 1108.93 688.123 1108.71C688.075 1107.93 688.172 1107.14 688.436 1106.39ZM14.8149 1018.68C11.5495 1019.96 7.53779 1020.21 3.92812 1020.52C7.96933 1039.56 11.4581 1058.74 15.1158 1077.84C16.807 1083.7 20.7829 1085.75 26.2857 1087.61L30.7084 1089.03C51.3553 1095.64 72.1189 1102.44 93.4086 1106.5C94.9053 1105.52 97.0314 1105.57 98.025 1107.13C99.0606 1107.23 100.124 1107.28 101.174 1107.38C106.863 1086.38 116.596 1066.02 129.622 1048.59C93.2148 1049.77 56.545 1040.17 21.9105 1029.43C20.508 1030.11 18.6609 1029.68 18.0693 1028.07L17.5359 1027.92C11.7214 1026.2 4.01193 1021.96 16.2311 1024.11C15.4931 1022.39 15.0835 1020.54 14.8149 1018.68ZM851.954 1003.14C827.822 999.147 809.38 1018.7 788.784 1027.68C776.453 1032.97 743.592 1049.37 731.646 1043.92C715.267 1059.68 701.439 1078.1 691.769 1098.77C694.405 1098.61 697.041 1098.5 699.678 1098.41C704.453 1096.88 709.55 1096.8 714.508 1098.28C764.17 1098.82 813.866 1108.47 863.328 1096.24L864.466 1096.03C874.626 1094.1 909.316 1086.77 911.292 1079.58C910.773 1076.46 901.445 1079.76 899.652 1080.11C885.397 1082.92 870.912 1084.26 856.466 1085.67C852.448 1086.06 852.499 1079.81 856.466 1079.41C873.854 1077.68 890.329 1071.15 906.284 1064.36C907.98 1063.61 912.474 1062.05 915.582 1060.03C900.841 1062.54 885.65 1062.97 870.734 1062.44C865.599 1061.78 865.237 1053.98 870.734 1054.13C880.804 1055.24 890.424 1050.27 898.644 1045.02L900.433 1043.86C914.136 1034.93 913.179 1034.54 895.862 1037.86C870.416 1042.5 844.663 1042.33 818.966 1040.56C815.298 1040.5 812.766 1035.56 815.801 1032.92C827.633 1022.7 840.318 1013.59 851.954 1003.14ZM735.308 1040.35L735.029 1040.61C734.438 1041.18 733.954 1041.68 733.683 1041.95L733.573 1042.06C733.21 1042.4 732.857 1042.75 732.497 1043.09C734.075 1043.62 735.815 1043.65 737.611 1043.38C736.527 1042.7 735.722 1041.59 735.308 1040.35ZM281.87 958.562L282.005 958.708C297.529 975.506 313.263 1002.75 326.124 1024.23C327.819 1041.84 289.794 968.782 281.928 958.636L281.87 958.562ZM672.557 1023.56C672.707 1023.74 672.852 1023.93 672.992 1024.13L673.2 1024.43L673.534 1024.22C673.657 1024.15 673.786 1024.1 673.918 1024.07C673.463 1023.9 673.01 1023.73 672.557 1023.56ZM601.534 966.21C615.501 968.402 586.94 985.756 583.17 988.242C580.756 989.16 557.804 1008.11 559.196 1001.96L559.846 1001.13C570.535 987.524 585.103 971.967 601.534 966.21ZM55.1493 929.844C60.3154 921.523 88.4307 932.477 97.3178 933.789C102.313 935.107 107.255 936.668 112.304 937.776C116.25 939.207 134.648 937.82 127.896 945.62C120.85 949.407 111.652 946.479 104.437 944.469C90.0813 940.547 75.6763 935.972 60.9757 933.796C60.5346 933.575 60.5078 933.724 60.894 934.244C64.0563 941.271 70.7067 947.864 78.1975 950.129C78.7149 950.279 78.4971 951.069 77.9734 950.936C69.7976 949.313 50.7562 940.241 55.1493 929.844Z" fill="black"/>
<path fill-rule="evenodd" clip-rule="evenodd" d="M312.886 339.366C316.45 335.542 321.008 332.693 325.99 331.782C321.436 334.058 316.983 336.429 312.886 339.366ZM305.906 372.339C305.276 369.425 304.852 366.482 304.719 363.541C305.515 364.751 306.787 365.56 308.216 365.978C307.293 368.044 306.508 370.173 305.906 372.339ZM544.366 418.031C540.252 400.909 521.061 367.975 516.525 361.636C511.6 345.94 538.464 333.353 523.854 321.08C517.239 315.542 508.497 313.582 500.296 311.618C443.516 297.982 382.511 304.859 329.849 329.935C321.839 328.249 313.493 331.543 307.668 337.329C280.302 364.835 317.597 414.463 325.752 445.472C339.744 480.049 310.922 485.865 314.013 515.119C316.415 530.233 331.722 534.227 344.64 536.511C346.711 536.996 349.479 537.069 350.147 539.257C352.24 552.032 359.415 564.207 369.049 572.469C368.206 574.965 368.849 577.995 371.82 580.187C398.735 600.188 432.672 610.198 466.241 608.398C506.247 606.254 526.935 583.325 531.927 577.42C559.53 540.144 556.232 490.961 550.601 446.536C546.679 415.589 551.652 448.362 544.366 418.031Z" fill="white"/>
<path fill-rule="evenodd" clip-rule="evenodd" d="M421.011 275.556C422.268 271.626 425.828 269.262 429.903 269.75C433.51 270.176 437.372 273.756 436.933 277.707C436.85 278.47 436.74 279.185 436.61 279.858L436.627 279.864V279.864L436.644 279.865L436.555 280.126C436.287 281.384 435.916 282.511 435.366 283.576C434.665 285.617 433.991 287.664 433.325 289.719C434.287 289.678 435.27 289.733 436.266 289.918C437.297 287.28 438.334 284.648 439.365 282.002C440.471 279.178 441.248 275.55 443.433 273.364C446.23 270.575 451.081 269.997 454.49 271.99C458.09 274.093 459.375 277.831 458.592 281.837C458.194 283.881 456.828 285.303 455.139 286.196L454.957 286.29L453.658 289.369C454.057 289.197 454.469 289.039 454.916 288.908C455.617 288.702 456.304 288.571 456.977 288.516C458.832 285.156 460.873 281.892 462.983 278.69C465.409 275.007 470.15 273.44 474.129 275.77C477.688 277.852 479.599 283.321 477.049 286.915C475.111 289.643 473.277 292.426 471.469 295.237C471.779 295.292 472.088 295.361 472.383 295.45C472.521 295.264 472.665 295.079 472.816 294.893C474.788 292.447 477.084 290.612 479.441 288.578C481.646 286.668 482.663 283.665 485.563 282.215C489.212 280.394 493.61 281.267 495.781 284.895C500.44 292.667 492.62 298.343 487.618 303.05C491.968 300.336 496.496 297.855 501.141 295.711C503.752 294.508 506.405 293.347 509.099 292.344C513.091 290.86 516.321 291.334 519.598 294.096C521.062 295.333 521.79 298.034 521.117 299.834C519.811 303.284 517.75 305.379 514.135 306.376C511.593 307.077 508.989 307.551 506.446 308.286C502.186 309.509 498.049 311 494.036 312.863C494.325 313.041 494.599 313.234 494.854 313.454C497.85 312.485 500.901 311.646 503.965 310.932C509.048 309.74 514.222 308.935 519.418 308.431L521.144 308.27C527.374 307.672 534.865 306.569 538.688 312.533C539.945 314.498 540.083 317.742 538.688 319.686C536.022 323.424 533.369 324.167 528.958 324.235C533.3 324.696 537.636 325.266 541.952 325.933C544.926 326.386 547.901 326.9 550.862 327.471L552.342 327.76C555.949 328.482 559.976 328.901 563.075 330.99C569.837 335.553 566.662 344.438 559.172 345.386C555.551 345.84 551.531 344.307 547.978 343.593C544.529 342.899 541.065 342.287 537.588 341.751C535.788 341.469 533.988 341.222 532.18 340.995C535.857 341.524 539.506 342.273 543.058 343.332L544.045 343.629C550.913 345.723 560.184 349.056 562.326 356.395C563.625 360.854 560.072 364.744 555.771 365.005C551.771 365.245 548.439 362.861 545.044 361.102C542.57 359.823 540.055 358.868 537.389 358.051C534.634 357.205 531.823 356.504 528.992 355.934C531.385 357.252 533.715 358.701 535.951 360.322L536.979 361.081C542.924 365.511 551.99 372.369 549.896 380.672C549.236 383.29 546.315 385.791 543.512 385.523C536.214 384.843 532.187 377.071 526.683 372.907C525.247 371.821 523.673 370.749 522.024 369.705C530.366 379.655 537.004 391.158 542.055 403.039C553.155 429.178 556.56 453.384 556.642 481.488L556.643 482.359C556.657 497.861 556.307 513.645 554.795 529.079C553.393 543.338 550.823 557.411 544.357 570.323C533.52 591.975 512.404 608.838 489.116 615.256C463.203 622.403 434.239 616.816 413.012 600.324C407.597 596.119 414.778 586.987 420.31 590.869C442.402 606.364 470.975 611.271 496.331 600.785C516.444 592.47 532.641 574.583 539.506 553.989C543.875 540.887 545.147 526.917 546.706 513.263L546.81 512.353C548.459 498.074 549.414 483.699 549.401 469.323C549.38 442.627 545.546 420.651 533.802 396.436C528.277 385.029 521.11 374.481 512.548 365.225C509.951 365.754 507.188 365.012 504.563 364.73C503.223 364.586 501.883 364.448 500.543 364.324C501.912 365.209 503.255 366.13 504.574 367.071L506.305 368.32C511.721 372.198 518.592 376.616 517.2 384.115C516.822 386.142 514.802 388.004 512.844 388.465C505.745 390.155 500.866 383.256 496.07 379.16C491.899 375.601 487.535 372.412 483.089 369.217C482.079 368.496 481.062 367.774 480.038 367.059C481 368.181 481.936 369.32 482.849 370.469L484.198 372.18C488.282 377.289 494.168 383.93 490.531 390.553C489.501 392.423 487.302 393.666 485.171 393.625C477.846 393.474 474.933 385.159 471.497 379.909C468.542 375.408 465.333 371.169 462.014 366.929C461.1 365.767 460.179 364.606 459.245 363.445C443.859 364.242 428.529 366.276 413.466 369.526C403.117 371.76 392.94 374.653 382.839 377.82L381.999 378.087C376.533 379.848 370.9 382.1 366.959 385.963C366.396 388.625 366.828 391.432 367.366 394.09L367.786 396.124C369.514 404.632 370.692 412.982 369.81 421.716C368.896 430.725 366.182 438.827 362.87 447.196C361.303 451.141 359.681 450.426 359.125 454.659C358.698 457.883 358.962 461.212 359.253 464.463L359.497 467.219C360.108 474.439 360.415 482.311 355.682 488.268C354.947 489.182 353.373 488.818 352.851 487.904C352.645 487.54 352.425 487.189 352.185 486.853C349.903 483.548 346.405 481.665 342.406 480.936C341.898 480.847 342.097 480.167 342.523 480.112C345.904 479.713 349.106 480.558 351.827 482.304C350.537 477.842 340.547 480.012 337.262 480.879L337.149 480.909C333.054 482.008 329.178 483.795 325.763 486.324C318.891 491.409 314.92 499.339 315.119 507.88C315.318 516.277 319.654 524.035 327.103 528.055C330.697 529.993 334.786 530.927 338.854 530.886C343.1 530.845 346.88 528.983 351.133 529.244C353.593 529.395 355.476 532.034 354.054 534.336C353.105 535.875 351.868 537.084 350.439 538.012C353.923 546.045 358.369 553.707 363.495 560.778C366.333 564.702 369.549 568.323 373.088 571.628C375.85 574.212 381.836 577.201 381.499 581.51C381.382 583.063 380.578 584.011 379.163 584.588C374.762 586.387 369.41 580.192 366.467 577.206L366.23 576.968C362.561 573.312 359.214 569.271 356.301 564.983C351.133 557.37 347.924 548.787 346.598 539.771C339.541 541.895 330.195 539.902 324.437 537.298C306.337 529.12 300.42 504.747 311.422 488.516C313.552 485.375 316.218 482.689 319.256 480.517C318.589 480.153 317.964 479.686 317.407 479.095C314.328 475.824 312.151 471.556 309.991 467.622L309.731 467.152C307.814 463.688 306.004 460.171 304.308 456.599L303.678 455.257C299.891 447.114 296.572 443.555 293.872 434.992C291.274 426.733 289.226 418.315 287.9 409.753L287.548 407.487C286.781 402.518 286.055 397.206 286.615 392.161C282.76 393.419 278.885 394.195 275.071 392.306C272.556 391.062 271.168 387.434 272.027 384.829C272.652 382.912 273.697 381.407 275.023 380.225C274.233 379.827 273.49 379.318 272.838 378.755L272.267 378.261V378.261C269.958 376.254 269.793 372.44 271.195 369.925C271.333 369.684 271.47 369.437 271.601 369.196C272.934 366.812 275.689 365.252 278.411 365.293C278.85 365.3 279.29 365.3 279.737 365.293C278.465 365.012 277.222 364.579 276.04 363.85C270.707 360.573 271.381 351.687 277.833 350.121C280.541 349.468 283.53 349.736 286.512 350.437C286.402 350.375 286.292 350.313 286.182 350.244C283.928 348.863 282.039 346.163 282.252 343.393C282.485 340.329 283.475 338.143 286.182 336.535C288.532 335.147 291.858 335.017 294.195 336.535C296.222 337.862 298.208 339.325 300.118 340.899C298.201 338.542 296.538 335.979 295.865 333.258C295.033 329.87 296.421 326.18 299.472 324.393C301.905 322.971 304.475 323.129 306.77 324.228C306.646 322.449 307.079 320.634 308.261 319.027C310.68 315.729 315.078 313.832 318.905 316.237C319.407 316.553 320.08 317.096 320.733 317.762C319.462 313.715 320.609 309.468 324.945 307.64C327.591 306.52 331.171 307.084 333.466 309.015C332.009 301.133 343.643 295.34 348.165 303.483C349.191 305.328 350.206 307.27 351.114 309.257L351.449 310.004L351.484 309.99L351.253 309.444V309.444L351.016 308.898C349.759 305.977 348.158 302.94 347.718 299.772C347.072 295.086 349.161 290.64 354.26 289.953C356.892 289.595 359.819 290.791 361.585 292.881C360.63 285.61 368.752 280.325 374.6 285.754C377.369 288.324 378.847 292.083 380.606 295.381C381.602 297.243 382.619 299.099 383.615 300.968C383.87 300.665 384.145 300.363 384.433 300.068C382.956 295.642 381.808 291.107 380.839 286.544C379.918 282.243 382.069 277.776 386.508 276.56C390.542 275.447 395.593 277.935 396.493 282.23C397.125 285.252 397.874 288.242 398.699 291.217C399.262 291.08 399.819 290.983 400.368 290.915C400.414 290.356 400.466 289.794 400.524 289.235L400.741 287.247C401.221 282.705 401.706 277.521 404.079 273.66C408.127 267.063 418.503 269.798 418.613 277.597C418.675 281.631 417.032 285.63 416.462 289.623C416.215 291.361 416.07 293.12 415.988 294.88C417.094 289.039 418.613 283.273 420.372 277.597C420.578 276.917 420.798 276.237 421.011 275.556ZM331.487 500.796C340.592 499.387 348.914 504.465 354.308 511.577C355.29 512.876 354.644 514.711 353.758 515.803C353.119 516.607 352.26 516.703 351.291 516.827C350.178 516.971 348.769 516.071 348.281 515.102C344.811 508.176 338.62 503.799 331.487 501.105C331.356 501.057 331.315 500.823 331.487 500.796ZM344.109 376.691L344.385 376.394C346.227 374.483 343.315 371.564 341.469 373.48C339.525 375.496 338.233 377.945 336.991 380.427C335.807 382.793 339.362 384.884 340.551 382.508L341.092 381.428C341.942 379.75 342.848 378.091 344.109 376.691V376.691ZM318.539 372.768C321.15 372.328 320.043 368.355 317.443 368.793C314.074 369.361 310.719 370.006 307.35 370.574C304.739 371.014 305.846 374.988 308.447 374.55C311.815 373.982 315.171 373.337 318.539 372.768ZM474.091 345.638C471.568 344.797 470.486 348.777 472.995 349.614C476.462 350.771 479.9 351.956 483.189 353.562C485.565 354.722 487.657 351.167 485.27 350.002C481.66 348.239 477.897 346.908 474.091 345.638ZM317.945 340.295C315.482 339.31 314.412 343.296 316.849 344.271L325.755 347.832V347.832C328.218 348.818 329.288 344.832 326.851 343.857L317.945 340.295V340.295ZM505.188 330.615L504.863 330.409C502.63 328.962 500.56 332.53 502.781 333.97C504.085 334.814 505.67 335.387 506.864 336.393L507.114 336.616C509.042 338.437 511.963 335.527 510.03 333.7C508.615 332.365 506.824 331.621 505.188 330.615V330.615Z" fill="black"/>
<path fill-rule="evenodd" clip-rule="evenodd" d="M482.596 524.18C483.65 522.347 486.078 520.649 488.298 520.91C498.248 522.076 498.231 534.139 494.389 541.181C490.982 547.425 483.933 551.09 476.877 550.555C469.465 549.992 463.149 545.634 460.369 538.7C458.531 534.113 457.682 525.645 462.572 522.564C462.662 522.506 462.812 522.52 462.884 522.603C465.229 525.331 465.321 529.426 467.374 532.462C469.283 535.286 472.248 537.619 475.723 537.979C478.317 538.248 480.942 537.312 481.957 534.983C482.506 533.723 482.444 533.038 482.237 532.171L482.05 531.418C481.4 528.778 481.108 526.768 482.596 524.18ZM485.256 471.279C490.445 474.433 498.352 481.787 492.769 489.607C486.199 496.502 476.738 488.596 472.076 485.021C467.753 482.25 462.896 489.377 466.907 492.612C500.594 517.553 514.266 472.103 487.881 467.57C484.975 467.071 483.896 470.303 485.256 471.279ZM430.46 449.65C433.645 444.872 440.915 445.575 442.669 451.246C443.619 454.317 442.307 457.079 442.375 460.146C442.432 462.737 442.262 465.625 441.468 468.134C439.657 473.857 434.51 477.899 428.421 477.731C422.352 477.564 417.006 473.723 414.464 468.313C411.914 462.882 412.454 457.262 414.316 451.74C414.405 451.475 414.753 451.346 414.963 451.57C417.164 453.909 418.775 456.378 420.443 458.998L422.151 461.683C423.457 463.704 425.355 466.287 427.793 466.125L428.159 466.089C428.837 466.03 428.733 466.165 429.256 465.241C429.497 464.814 429.453 464.02 429.57 463.515L429.611 463.345V463.345L429.589 463.253C429.537 463.009 429.486 462.548 429.444 461.75L429.436 461.573C429.259 457.837 428.203 453.036 430.46 449.65ZM511.196 452.831C510.625 446.72 519.217 445.363 522.074 449.885C523.563 452.243 523.997 455.206 524.327 458.012L524.481 459.344C524.819 462.227 524.953 465.226 523.701 467.915C521.731 472.15 517.445 474.389 512.822 474.034C508.406 473.694 504.378 471.135 502.255 467.249C500.362 463.781 498.48 457.012 500.779 453.395C500.918 453.176 501.195 453.148 501.386 453.317C503.559 455.245 503.912 458.764 505.204 461.277C506.537 463.869 508.558 466.395 511.62 466.788C514.55 467.165 515.67 465.565 514.922 462.771C513.958 459.165 511.559 456.712 511.196 452.831ZM432.78 413.315L434.186 412.777C439 410.958 445.61 408.856 449.524 412.771C451.939 415.185 452.398 418.741 450.675 421.687C448.587 425.256 444.841 425.343 441.224 425.869C437.11 426.467 432.925 427.604 429.095 429.224C424.78 431.05 420.776 433.326 416.853 435.867C413.125 438.283 409.409 442.231 404.946 442.975C404.764 443.005 404.557 442.927 404.51 442.727C403.496 438.363 406.313 434.069 408.827 430.665C411.868 426.543 415.553 423.16 419.672 420.127C423.647 417.199 428.189 415.083 432.78 413.315ZM520.234 428.829L520.663 428.754C523.583 428.268 526.228 428.38 528.429 430.692C530.108 432.456 530.755 434.742 529.955 437.074C529.216 439.226 527.564 441.412 525.167 441.863C517.072 443.385 508.107 443.134 499.972 441.981C496.251 441.453 492.495 440.807 488.87 439.789L487.202 439.305C484.176 438.441 480.711 437.538 478.513 435.312C477.723 434.512 478.178 433.367 479.124 432.997C482.96 431.495 488.217 432.294 492.307 432.176C497.065 432.04 501.83 431.684 506.566 431.192C511.193 430.711 515.671 429.666 520.234 428.829Z" fill="black"/>
<path fill-rule="evenodd" clip-rule="evenodd" d="M485.358 504.234C476.979 500.462 461.933 503.753 456.471 505.062C443.772 508.105 430.997 514.681 427.049 524.985C422.6 536.597 431.476 540.252 432.782 539.655C441.573 540.274 452.042 534.751 461.254 533.326C468.733 532.159 476.622 531.14 483.629 527.17C488.744 529.982 500.299 531.502 509.624 533.961C517.566 536.054 521.007 540.593 528.369 539.628C537.194 538.471 533.582 519.925 523.747 512.412C512.984 504.19 494.779 500.855 485.358 504.234ZM501.948 583.532C494.618 585.318 494.125 569.263 493.304 563.59C492.663 559.159 489.044 547.731 479.871 548.224C470.697 548.717 467.249 558.292 467.714 564.247C468.016 568.109 471.577 587.67 460.21 590.145C452.963 590.119 444.579 589.631 436.958 588.227C427.99 586.197 416.327 579.09 413.246 593.086C412.138 598.123 451.646 613.088 469.177 614.442C486.957 618.042 507.759 612.506 520.418 598.914C523.298 595.822 531.408 582.988 531.986 579.843C533.201 573.236 530.389 568.985 522.209 571.314C516.43 574.397 506.662 582.384 501.948 583.532Z" fill="black"/>
<path fill-rule="evenodd" clip-rule="evenodd" d="M536.325 484.301C531.699 490.517 523.122 492.497 515.21 491.813C498.147 490.171 492.777 470.792 492.218 455.73C503.66 458.949 491.25 436.153 530.363 433.646C544.151 432.497 540.349 440.824 546.441 446.908C546.316 459.677 544.191 473.551 536.325 484.301M455.054 469.629C444.98 516.805 389.816 505.584 384.021 463.058C389.372 459.281 387.962 449.956 394.61 446.577C405.146 439.845 418.316 440.133 430.28 440.291C445.573 441.342 449.931 447.677 457.787 454.588C457.409 459.205 456.319 464.676 455.054 469.629M558.178 425.833C557.612 425.739 557.046 425.65 556.48 425.567C556.038 425.316 555.519 425.123 554.916 425.007C553.538 424.657 552.17 424.421 550.804 424.294C531.198 419.882 485.84 426.147 483.968 442.878C477.725 444.962 472.322 443.096 465.086 443.281C459.577 420.258 364.348 423.507 359.768 437.388C359.751 437.383 359.734 437.379 359.716 437.374C355.315 436.012 348.828 436.34 343.791 436.124C333.036 435.899 322.269 436.858 311.746 439.126C292.042 442.257 265.15 445.923 278.854 470.529C278.857 470.533 278.859 470.538 278.862 470.542L278.864 470.54C281.226 472.961 285.234 471.012 285.383 467.735C280.776 456.078 291.182 454.678 299.189 451.328C319.112 444.17 339.396 443.178 360.001 445.392C361.551 447.217 363.904 448.809 366.39 449.642C380.167 451.929 372.906 462.148 381.615 463.634C380.015 499.258 423.266 518.704 448.326 495.286C458.332 485.503 460.717 471.012 463.037 457.949C464.263 457.674 465.043 457.003 465.499 456.115C468.449 453.17 470.302 450.45 476.135 449.642C481.969 448.834 486.459 450.456 487.067 450.953C487.22 451.261 487.384 451.57 487.575 451.88C487.842 452.341 488.205 452.708 488.617 452.998C482.857 488.472 510.396 510.906 538.198 492.508C550.278 481.144 552.831 463.746 553.336 448.218C554.973 447.23 556.01 445.315 555.443 442.907C554.662 439.588 556.494 436.714 559.411 435.271C563.203 433.397 562.532 426.554 558.178 425.833" fill="black"/>
</g>
<defs>
<clipPath id="clip0">
<rect width="926" height="2570" fill="white"/>
</clipPath>
</defs>
</svg>
