<svg width="1534" height="2322" viewBox="0 0 1534 2322" fill="none" xmlns="http://www.w3.org/2000/svg">
<path fill-rule="evenodd" clip-rule="evenodd" d="M822.162 1295.32C824.401 1318.68 819.823 1340.98 808.918 1359.84L805.37 1365.98L812.123 1368.34C824.413 1372.64 838.08 1374.73 853.906 1374.73C870.193 1374.73 887.13 1372.46 900.739 1370.64L909.452 1369.47L905.172 1361.9C901.73 1355.82 901.093 1348.45 900.418 1340.65C900.236 1338.55 900.049 1336.38 899.803 1334.24C886.908 1218.98 870.608 1102.21 854.845 989.292C850.696 959.579 846.407 928.853 842.246 898.629L830.31 899.089C827.099 955.032 823.983 1011.92 820.97 1066.94C819.645 1091.13 818.319 1115.32 816.983 1139.51C812.22 1200.67 813.865 1250.19 822.162 1295.32ZM827.033 1986.49C809.504 1986.49 791.941 1984.66 774.834 1981.06C721.301 1969.83 672.666 1943.31 631.282 1919.35C629.169 1918.15 627.025 1916.95 624.824 1915.72C608.622 1906.65 588.459 1895.38 575.823 1881.62C561.961 1866.52 559.575 1851.48 568.316 1834.28L569.699 1831.56L568.254 1828.87C559.203 1812.03 559.876 1791.18 569.89 1778.19L578.306 1767.27L564.469 1768.74C550.517 1770.22 536.455 1772.22 522.855 1774.16C507.766 1776.32 492.161 1778.54 476.793 1780.03L472.522 1780.45L471.54 1784.56C470.993 1786.85 470.318 1788.24 465.577 1788.24C461.466 1788.24 455.941 1787.04 450.094 1785.76C442.837 1784.18 434.611 1782.39 426.679 1782.39C423.19 1782.39 420.052 1782.72 417.084 1783.41L415.357 1783.81L414.128 1785.07C413.342 1785.87 412.004 1786.37 410.637 1786.37C409.603 1786.37 408.644 1786.08 408.003 1785.58L406.065 1784.07L403.606 1784.34C360.763 1789.04 323.82 1797.3 290.67 1809.57L290.52 1809.63L289.801 1809.94C277.814 1815.11 265.421 1820.46 254.134 1820.46C245.883 1820.46 239.183 1817.65 233.047 1811.63L231.313 1809.93L228.867 1809.9C204.049 1809.67 192.709 1780.73 191.141 1761.34L190.944 1758.9L189.052 1757.31C145.8 1721.01 120.266 1671.16 110.988 1604.91C102.538 1544.56 109.026 1480.93 116.487 1426.65C133.746 1285.97 151.747 1159.86 197.505 1040.25L199.643 1034.66L193.946 1032.61C174.183 1025.51 159.079 1017.04 147.77 1006.71L146.987 1005.99L146.001 1005.59C129.793 998.931 121.855 974.35 119.808 966.976L119.644 966.381L119.358 965.833C116.051 959.489 115.288 950.665 117.266 941.622L117.478 940.647L117.355 939.657C116.287 931.071 119.832 922.095 123.585 912.591C125.3 908.249 127.072 903.761 128.367 899.292C132.819 886.518 137.266 873.518 141.568 860.944C151.22 832.734 161.199 803.563 171.83 775.186L173.284 771.305L170.081 768.631C164.613 764.063 166.439 758.687 174.324 745.832C176.187 742.796 177.949 739.923 179.289 737.092C189.396 719.628 200.228 702.863 211.49 687.257L211.722 686.937L211.907 686.59C269.696 578.662 372.203 519.224 500.544 519.224L503.16 519.229L504.606 518.359C528.66 503.894 545.831 479.075 557.1 442.485L557.46 441.318L557.321 440.106C556.935 436.734 556.512 432.312 556.657 428.022C557.024 417.156 561.283 407.46 568.341 401.418C581.732 389.957 602.061 388.997 621.736 388.997L624.561 389.002C649.716 389.074 667.475 393.441 680.451 402.748C695.527 413.562 703.859 431.018 705.924 456.113C706.541 463.622 706.52 471.401 706.501 478.924L706.496 481.024L706.749 481.857C708.557 487.821 710.675 493.552 713.043 498.892L715.479 504.386L721.019 501.909C724.602 500.308 729.144 499.484 734.908 499.392C736.57 499.353 738.191 499.335 739.826 499.335C753.209 499.335 767.525 500.557 781.371 501.738C791.803 502.629 802.591 503.55 813.033 503.959L813.176 503.965C813.176 503.965 814.618 503.956 815.265 503.956C840.644 503.956 859.042 507.947 873.163 516.517C888.368 525.744 899.301 540.552 907.568 563.12C951.91 692.48 970.14 831.817 986.22 954.747C995.341 1019.03 998.115 1084.94 1000.8 1148.67C1003.63 1215.94 1006.56 1285.5 1016.93 1353.5L1017.75 1358.88L1023.25 1358.52C1047.48 1356.96 1073.67 1353.59 1101.39 1350.02C1143.51 1344.61 1187.06 1339 1229.17 1339C1288.04 1339 1332.67 1350.59 1365.61 1374.41C1388.56 1396.05 1400.44 1425.34 1399.95 1459.14C1399.26 1506.9 1374 1559.71 1335.59 1593.67L1335.45 1593.8C1286.9 1639.66 1198.28 1679.44 1072.06 1712.03C955.992 1742 835.932 1758.28 774.695 1765.32L759.539 1767.07L771.841 1775.96C776.82 1779.56 781.363 1782.73 785.73 1785.65L788.547 1787.54L791.633 1786.12C800.433 1782.08 806.022 1781.24 809.163 1781.24C811.95 1781.24 815.312 1781.84 815.497 1784.73C815.618 1786.62 814.274 1789.42 811.437 1789.77L796.373 1791.65L808.673 1800.43C816.889 1806.29 829.147 1813.35 843.342 1821.53C889.781 1848.28 959.961 1888.72 947.891 1924.23L947.099 1926.56L948.221 1928.76C951.464 1935.12 951.741 1941.02 949.065 1946.8C943.335 1959.2 925.41 1968.6 910.187 1972.43L909.926 1972.49L909.671 1972.58C883.183 1981.81 855.379 1986.49 827.033 1986.49Z" fill="white"/>
<mask id="mask0" mask-type="alpha" maskUnits="userSpaceOnUse" x="100" y="412" width="1305" height="1580">
<path fill-rule="evenodd" clip-rule="evenodd" d="M100 412.002H1404.94V1991.99H100V412.002Z" fill="white"/>
</mask>
<g mask="url(#mask0)">
<path fill-rule="evenodd" clip-rule="evenodd" d="M914.983 1367.97C918.094 1351.01 912.194 1333.49 911.173 1316.41C895.733 1194.58 878.685 1072.83 856.094 952.068C850.553 923.167 844.954 894.385 838.534 865.641C839.504 848.236 840.354 830.83 840.914 813.415C872.264 793.704 907.615 780.948 944.173 774.515C954.053 829.559 963.923 884.564 970.774 940.1C992.125 1077.56 979.944 1217.44 1000.65 1354.74C971.923 1357.96 943.414 1362.73 914.983 1367.97ZM970.128 1475.06C948.523 1480.81 926.898 1486.3 905.12 1491.37C866.365 1500.4 827.622 1509.45 788.966 1518.88C769.672 1523.58 750.336 1528.15 731.081 1533.01C721.945 1535.31 712.867 1537.87 703.926 1540.84C699.464 1542.32 695.103 1544.02 690.742 1545.77C686.922 1547.29 683.318 1549.4 679.119 1549.1C678.869 1549.08 678.713 1548.84 678.836 1548.61C681.033 1544.58 685.56 1542.66 689.557 1540.62C693.964 1538.37 698.555 1536.43 703.151 1534.59C713.361 1530.49 723.994 1527.48 734.599 1524.56C773.143 1513.95 812.018 1504.45 850.853 1494.94C889.872 1485.39 928.894 1476.24 968.432 1469.01C972.415 1468.28 974.138 1474 970.128 1475.06ZM778.745 1801.68C780.474 1801.22 782.214 1800.8 783.945 1800.39C811.664 1823.47 942.214 1883.4 932.284 1919.2C928.774 1923.65 920.374 1924.66 915.063 1926.1C905.813 1928.6 896.474 1930.77 887.044 1932.49C856.563 1938.03 824.995 1939 794.554 1932.67C783.354 1930.97 773.245 1926.19 763.044 1921.57C730.084 1907.07 693.784 1891.05 660.984 1876.67C619.313 1860.15 546.223 1827.6 576.284 1772.66C604.764 1804.7 640.914 1801.9 659.125 1762.08C665.404 1750 670.883 1733.71 685.633 1728.82C693.414 1723.56 703.365 1722.47 709.865 1728.33C710.334 1727.6 710.755 1726.57 710.984 1725.67C718.313 1736.1 724.633 1747.08 733.224 1756.62C730.274 1756.78 699.574 1779.5 708.633 1779.51C719.534 1773.9 730.365 1769.22 742.133 1766.19C750.664 1774.77 760.044 1782.75 769.765 1790.13C760.325 1796.36 751.844 1804 745.024 1812.28C744.435 1813.01 745.154 1813.96 746.034 1813.56C756.625 1808.84 767.514 1804.7 778.745 1801.68ZM919.265 1956.47C813.234 2004.1 700.984 1951.06 610.564 1894.52C589.695 1882.87 562.245 1866.35 566.464 1838.92C581.835 1861.41 607.173 1874.21 631.495 1885.31C672.354 1903.78 713.484 1921.66 754.445 1939.9C758.313 1952.74 776.814 1953.23 787.995 1956.08C837.765 1965.73 891.264 1960.93 938.104 1941.69C935.393 1949.71 926.524 1953.4 919.265 1956.47ZM496.224 1771.02C493.605 1771.35 490.984 1771.66 488.365 1771.95C488.634 1768.49 486.544 1765.02 483.185 1763.95C484.695 1756.6 485.254 1749 484.445 1741.55C488.825 1752.86 502.964 1749.43 511.945 1746.17C524.775 1742.68 537.525 1738.93 550.204 1734.93C555.204 1744.22 560.504 1753.37 567.015 1761.78C543.314 1763.89 519.835 1768.07 496.224 1771.02ZM485.794 1735.42C485.164 1736.75 484.264 1738.16 484.245 1739.75C483.604 1734.25 482.354 1728.81 480.454 1723.6C482.233 1727.54 484.014 1731.48 485.794 1735.42ZM470.835 1705.9C459.173 1690.7 437.624 1678.28 417.704 1682.51C416.423 1682.79 416.393 1684.85 417.704 1685.1C444.464 1688.74 467.964 1709.97 468.893 1737.41C471.004 1749.83 462.365 1762.03 465.275 1773.94C464.694 1773.98 464.115 1774.01 463.544 1774.05C463.334 1774.85 463.143 1775.56 462.893 1776.18C465.785 1776.66 466.633 1781.31 463.223 1782.14C461.204 1782.63 459.094 1782.89 456.944 1783C446.034 1780.05 434.525 1779.37 424.094 1775.02C413.775 1770.46 416.354 1757.64 412.714 1748.77C410.044 1738.53 406.974 1728.34 403.104 1718.52C402.824 1717.73 401.754 1717.91 401.664 1718.7C398.935 1738.3 399.025 1758.22 399.685 1777.97C396.104 1778.34 392.544 1778.74 388.973 1779.18C389.204 1773.67 372.655 1706.46 363.935 1723.71C368.324 1742.67 368.854 1762.48 369.324 1781.99C343.435 1786.26 317.923 1792.61 293.104 1801.26C275.614 1806.56 254.813 1822.24 237.834 1808.06C224.684 1797.19 220.254 1778.22 221.494 1762.07C238.593 1666.56 373.655 1655.4 453.383 1662.46C460.914 1679.83 468.585 1697.15 476.354 1714.43C474.745 1711.45 472.905 1708.6 470.835 1705.9ZM198.905 1760.21C197.444 1738.52 201.093 1711.52 217.164 1695.36C253.945 1664.26 305.445 1654.48 351.404 1643.22C372.814 1638.99 394.514 1636.19 416.303 1634.79C424.034 1634.18 433.854 1635.93 439.314 1629.61C442.124 1636.27 444.973 1642.91 447.824 1649.56C356.324 1637.58 165.424 1679.22 218.883 1804.57C207.563 1792.3 200.063 1777.37 198.905 1760.21ZM135.024 1358.71C137.584 1340.09 140.383 1321.5 143.343 1302.93C155.444 1214.12 180.454 1127.68 195.365 1039.47C221.174 1047.86 247.604 1054.26 273.665 1061.81C217.194 1155.72 171.005 1255.45 135.024 1358.71ZM347.068 1271.32C342.103 1247.72 336.535 1223.67 334.003 1199.68C333.889 1198.6 335.548 1198.48 335.844 1199.43C339.992 1212.72 342.818 1226.49 346.316 1239.96C349.826 1253.48 353.09 1267.06 356.548 1280.59C357.651 1284.91 358.759 1289.23 359.867 1293.55C360.53 1293.58 361.193 1293.6 361.852 1293.62C364.384 1293.67 365.142 1296.85 363.105 1298.18C362.51 1298.56 361.914 1298.9 361.316 1299.2C371.902 1340.38 382.75 1381.46 394.587 1422.33C408.382 1469.94 423.911 1516.98 436.324 1564.99C436.611 1566.1 436.096 1566.87 435.345 1567.21C441.801 1589.05 447.211 1611.18 453.113 1633.19C454.341 1637.77 447.574 1640.74 445.26 1636.45C441.697 1629.84 440.909 1620.81 439.165 1613.55C437.201 1605.37 435.333 1597.17 433.47 1588.97C430.504 1575.92 427.844 1562.71 425.651 1549.48C417.479 1528.95 410.161 1508.18 403.686 1487.01C389.182 1439.59 375.805 1391.86 363.897 1343.75C360.38 1329.55 356.935 1315.33 353.646 1301.07C338.676 1301.3 323.035 1284.37 307.992 1293.38C307.296 1293.8 306.59 1292.85 307.139 1292.29C313.135 1286.22 321.424 1285.69 329.477 1287.19C334.71 1288.17 339.727 1290.02 344.85 1291.42C347.107 1292.04 349.424 1292.49 351.766 1292.82C350.152 1285.67 348.577 1278.5 347.068 1271.32ZM669.585 1718.21C661.935 1723.21 655.695 1730.61 651.294 1738.56C623.094 1812.34 592.935 1772.82 555.464 1733.23C587.173 1721.26 629.174 1712.3 653.495 1688.51C657.705 1699.03 662.854 1709.05 669.585 1718.21ZM659.495 1538.25C657.046 1526.11 655.029 1513.89 653.192 1501.65C651.43 1489.91 648.677 1477.33 649.126 1465.45C649.143 1464.98 649.811 1464.89 649.955 1465.34C653.767 1477.19 654.909 1490.29 657.327 1502.49C659.667 1514.29 662.236 1526.04 664.826 1537.78C670.141 1561.89 677.658 1585.63 682.208 1609.89C682.696 1612.49 679.185 1613.4 678.231 1610.97C669.12 1587.78 664.399 1562.57 659.495 1538.25ZM143.733 991.302C131.414 978.034 121.733 961.091 123.604 943.114C131.004 933.244 133.454 920.37 137.764 908.963C154.614 861.228 170.254 813.128 188.593 765.906C227.604 777.904 265.983 792.295 302.184 811.198C308.843 814.597 315.434 818.123 321.945 821.778C328.764 825.599 336.204 832.239 344.383 830.337C335.444 842.995 317.034 856.165 313.923 870.793C313.254 875.423 316.534 879.717 321.574 878.683C400.464 934.722 481.935 989.579 556.504 1052C612.344 1096.21 655.214 1132.06 674.365 1203.79C687.274 1250.26 687.313 1298.82 685.414 1346.6C685.044 1355.88 685.034 1365.39 684.284 1374.74C685.404 1381.73 683.274 1395.97 675.414 1396.22C675.594 1397.92 676.154 1399.48 677.044 1400.86C676.794 1401.2 676.535 1401.51 676.265 1401.84C675.875 1399.93 675.495 1398.02 675.133 1396.11C669.014 1369.01 668.195 1337.55 669.214 1308.69C669.643 1300.42 656.955 1300.61 656.245 1308.69C654.335 1330.51 652.424 1352.33 650.515 1374.14C648.224 1388.27 651.834 1406.76 640.534 1417.51C629.044 1406.89 632.844 1385.95 633.404 1372.25C634.304 1349.9 635.274 1327.55 636.104 1305.2C636.365 1298.12 624.633 1296.3 623.303 1303.5C619.534 1324.03 615.455 1344.5 611.064 1364.91C608.414 1372.8 606.593 1408.2 593.354 1402.05C585.464 1396.67 591.155 1365.07 590.115 1354.61C590.604 1333.91 590.893 1313.23 592.414 1292.58C593.034 1284.24 579.464 1282.47 577.604 1290.61C574.585 1303.78 571.694 1316.95 569.074 1330.2C563.324 1352.56 565.415 1382.85 544.655 1397.71C536.525 1339.65 548.224 1282 549.865 1224.15C548.883 1205.4 545.664 1186.84 542.824 1168.32C539.684 1147.84 537.854 1125.55 545.204 1105.8C543.194 1096.96 535.294 1120.88 534.553 1122.87C528.604 1111.15 514.115 1110.25 502.655 1106.59C477.185 1098.35 451.093 1092.13 425.324 1084.8C356.983 1065.82 288.563 1047.13 220.124 1028.49C192.784 1020.92 164.004 1011.97 143.733 991.302ZM828.084 1300.12C818.654 1249.01 818.914 1197.21 822.945 1145.54C827.375 1065.4 831.674 985.235 836.274 905.102C856.245 1050.14 877.534 1195.01 893.813 1340.51C894.974 1350.63 894.794 1361.35 899.904 1370.38C871.664 1374.17 841.563 1377.98 814.104 1368.37C826.154 1347.54 830.404 1323.82 828.084 1300.12ZM215.144 707.464C262.745 609.738 359.803 540.362 468.655 525.232C468.775 525.35 468.905 525.468 469.025 525.596C468.664 525.922 468.335 526.276 468.035 526.641C470.964 524.483 474.983 527.192 473.685 530.176C475.294 533.851 476.483 537.634 477.974 541.337C478.604 541.278 479.245 541.219 479.884 541.121C486.344 553.946 489.844 568.731 496.594 581.517C533.535 645.525 624.695 671.51 693.074 645.672C747.334 622.16 755.034 555.207 750.173 503.738C749.923 500.271 748.164 497.818 745.813 496.37C775.404 501.108 804.995 505.886 834.615 510.387C848.884 512.555 863.544 515.687 874.563 525.488C917.935 570.12 925.673 690.226 940.264 752.667C905.354 756.322 866.334 776.22 841.313 800.343C842.495 772.92 840.804 745.634 837.643 718.408C837.594 717.078 835.375 716.625 835.164 718.083C828.914 745.683 824.104 773.521 822.124 801.8C813.893 915.602 809.005 1029.63 801.954 1143.51C799.544 1185.42 796.534 1227.7 802.504 1269.47C821.723 1355.45 787.835 1397.65 696.875 1383.36C707.924 1274.39 699.914 1149.72 608.665 1074.16C605.884 1071.68 602.544 1071.85 600.014 1073.33C525.824 1010.28 447.525 951.891 364.185 901.042C364.785 890.533 338.494 881.244 331.133 873.994C358.464 845.684 379.275 811.267 397.423 776.653C399.025 772.89 419.893 735.025 413.254 737.409C393.423 766.793 373.704 796.364 350.355 823.255C351.624 810.853 319.495 802.539 309.605 796.875C271.394 780.78 231.445 768.182 190.274 761.66C197.685 743.211 205.785 725.037 215.144 707.464ZM723.625 508.142C722.375 506.004 721.185 503.817 720.044 501.601C723.904 501.749 727.664 501.887 731.464 502.517C731.294 508.634 731.633 514.8 731.704 520.967C729.803 516.455 726.084 512.338 723.625 508.142ZM1368.44 1369.57C1277.25 1303.25 1127.47 1345.5 1021.83 1352.32C1001.69 1220.25 1009.91 1086.03 991.143 953.753C973.854 821.6 955.624 687.606 912.204 560.989C894.284 512.033 863.284 497.493 812.245 497.887C786.344 496.873 758.954 492.726 733.784 493.317C728.264 493.405 722.495 494.134 717.515 496.361C710.515 480.58 706.714 463.638 704.794 446.567C704.674 445.483 703.294 445.286 702.883 446.321C696.964 461.185 696.334 477.408 699.553 492.972C701.883 504.123 715.755 548.006 731.865 530.837C733.143 566.84 725.234 609.837 689.964 628.523C628.334 655.395 543.143 630.927 507.444 573.893C500.544 562.496 494.594 550.369 486.954 539.426C540.185 524.355 570.064 460.574 557.525 412.002C549.775 449.778 535.643 491.987 500.454 513.146C372.314 512.86 265.774 571.223 205.574 683.636C193.794 699.958 182.904 716.92 172.923 734.178C167.553 745.723 151.824 761.779 165.173 772.93C149.754 814.084 136.074 855.811 121.614 897.29C117.643 911.111 108.563 925.61 110.374 940.14C108.414 949.094 108.504 959.683 112.994 968.292C117.254 983.639 126.813 1004.29 142.664 1010.8C156.114 1023.08 173.124 1031.54 190.864 1037.91C143.553 1161.56 125.544 1294.9 109.514 1425.54C93.8035 1539.82 85.6945 1678.84 184.133 1761.43C186.045 1785.07 200.063 1815.18 227.784 1815.43C246.983 1834.29 270.383 1823.94 291.755 1814.72C327.825 1801.37 365.655 1793.96 403.245 1789.83C407.275 1792.98 413.835 1792.46 417.423 1788.79C440.194 1783.54 471.753 1804.8 476.354 1785.54C505.714 1782.69 534.754 1777.35 564.085 1774.24C551.724 1790.28 552.615 1813.93 561.923 1831.25C538.214 1877.9 593.444 1904.9 627.214 1924.04C672.804 1950.44 720.414 1975.49 772.553 1986.44C818.393 1996.08 866.414 1993.15 910.643 1977.75C933.883 1971.91 966.343 1952.73 952.553 1925.71C970.034 1874.29 847.274 1821.01 811.164 1795.26C825.923 1793.42 826.464 1762.78 788.075 1780.39C783.435 1777.28 778.875 1774.08 774.365 1770.82C929.643 1752.97 1226.19 1703.87 1338.57 1597.72C1400.31 1543.14 1435.93 1432.74 1368.44 1369.57Z" fill="black"/>
</g>
<path fill-rule="evenodd" clip-rule="evenodd" d="M454.973 102.401C460.159 96.8357 466.792 92.6897 474.043 91.3647C467.415 94.6757 460.936 98.1267 454.973 102.401ZM444.815 150.385C443.898 146.144 443.282 141.862 443.088 137.581C444.247 139.343 446.098 140.52 448.177 141.128C446.834 144.135 445.692 147.233 444.815 150.385ZM791.835 216.878C785.849 191.961 757.921 144.034 751.32 134.809C744.152 111.968 783.246 93.6507 761.985 75.7897C752.359 67.7307 739.637 64.8787 727.703 62.0207C645.073 42.1767 556.295 52.1847 479.659 88.6757C468.002 86.2227 455.857 91.0167 447.38 99.4367C407.555 139.465 461.829 211.687 473.697 256.813C494.059 307.13 452.115 315.594 456.613 358.167C460.108 380.161 482.385 385.974 501.184 389.298C504.197 390.003 508.225 390.109 509.197 393.294C512.243 411.885 522.685 429.602 536.704 441.626C535.478 445.258 536.414 449.667 540.737 452.857C579.905 481.964 629.292 496.53 678.144 493.912C736.362 490.791 766.469 457.423 773.734 448.831C813.903 394.584 809.103 323.01 800.909 258.361C795.201 213.325 802.439 261.018 791.835 216.878Z" fill="white"/>
<path fill-rule="evenodd" clip-rule="evenodd" d="M612.322 9.54133C614.152 3.82133 619.332 0.381332 625.262 1.09133C630.512 1.71133 636.132 6.92133 635.492 12.6713C635.372 13.7813 635.212 14.8213 635.022 15.8013L635.047 15.8101L635.072 15.8113L634.942 16.1913C634.552 18.0213 634.012 19.6613 633.212 21.2113C632.192 24.1813 631.212 27.1613 630.242 30.1513C631.642 30.0913 633.072 30.1713 634.522 30.4413C636.022 26.6013 637.532 22.7713 639.032 18.9213C640.642 14.8113 641.772 9.53133 644.952 6.35133C649.022 2.29133 656.082 1.45133 661.042 4.35133C666.282 7.41133 668.152 12.8513 667.012 18.6813C666.432 21.6551 664.445 23.7247 661.987 25.025L661.722 25.1613L659.832 29.6413C660.412 29.3913 661.012 29.1613 661.662 28.9713C662.682 28.6713 663.682 28.4813 664.662 28.4013C667.362 23.5113 670.332 18.7613 673.402 14.1013C676.932 8.74133 683.832 6.46133 689.622 9.85133C694.802 12.8813 697.582 20.8413 693.872 26.0713C691.052 30.0413 688.382 34.0913 685.752 38.1813C686.202 38.2613 686.652 38.3613 687.082 38.4913C687.282 38.2213 687.492 37.9513 687.712 37.6813C690.582 34.1213 693.922 31.4513 697.352 28.4913C700.562 25.7113 702.042 21.3413 706.262 19.2313C711.572 16.5813 717.972 17.8513 721.132 23.1313C727.912 34.4413 716.532 42.7013 709.252 49.5513C715.582 45.6013 722.172 41.9913 728.932 38.8713C732.732 37.1213 736.592 35.4313 740.512 33.9713C746.322 31.8113 751.022 32.5023 755.792 36.5213C757.922 38.3213 758.982 42.2523 758.002 44.8713C756.102 49.8913 753.102 52.9413 747.842 54.3913C744.142 55.4113 740.352 56.1013 736.652 57.1713C730.452 58.9513 724.432 61.1213 718.592 63.8313C719.012 64.0913 719.412 64.3713 719.782 64.6913C724.142 63.2813 728.582 62.0613 733.042 61.0213C740.439 59.287 747.967 58.1151 755.529 57.3821L758.041 57.1483C767.107 56.2783 778.008 54.6728 783.572 63.3513C785.402 66.2113 785.602 70.9313 783.572 73.7613C779.692 79.2013 775.832 80.2813 769.412 80.3813C775.732 81.0513 782.042 81.8813 788.322 82.8513C792.65 83.5113 796.979 84.2595 801.289 85.0895L803.442 85.5113C808.692 86.5613 814.552 87.1713 819.062 90.2113C828.902 96.8513 824.282 109.781 813.382 111.161C808.112 111.821 802.262 109.591 797.092 108.551C792.072 107.541 787.032 106.651 781.972 105.871C779.352 105.461 776.732 105.101 774.102 104.771C779.452 105.541 784.762 106.631 789.932 108.171L791.368 108.605C801.363 111.651 814.854 116.502 817.972 127.181C819.862 133.671 814.692 139.331 808.432 139.711C802.612 140.061 797.762 136.591 792.822 134.031C789.222 132.171 785.562 130.781 781.682 129.591C777.672 128.361 773.582 127.341 769.462 126.511C772.943 128.43 776.334 130.538 779.589 132.896L781.086 134.002C789.737 140.448 802.929 150.428 799.882 162.511C798.922 166.321 794.672 169.961 790.592 169.571C779.972 168.581 774.112 157.271 766.102 151.211C764.012 149.631 761.722 148.071 759.322 146.551C771.462 161.031 781.122 177.771 788.472 195.061C804.625 233.099 809.581 268.325 809.7 309.225L809.702 310.491C809.722 333.051 809.212 356.021 807.012 378.481C804.972 399.231 801.232 419.711 791.822 438.502C776.052 470.011 745.322 494.551 711.432 503.891C673.722 514.291 631.572 506.161 600.682 482.161C592.802 476.041 603.252 462.752 611.302 468.401C643.452 490.951 685.032 498.091 721.932 482.831C751.202 470.731 774.772 444.701 784.762 414.731C791.12 395.665 792.972 375.335 795.24 355.465L795.392 354.141C797.792 333.361 799.182 312.441 799.162 291.521C799.132 252.671 793.552 220.691 776.462 185.451C768.422 168.851 757.992 153.502 745.532 140.031C741.752 140.801 737.732 139.721 733.912 139.311C731.962 139.101 730.012 138.901 728.062 138.721C730.054 140.009 732.007 141.349 733.928 142.719L736.446 144.535C744.328 150.18 754.327 156.609 752.302 167.521C751.752 170.471 748.812 173.181 745.962 173.851C735.632 176.311 728.532 166.271 721.552 160.311C715.482 155.131 709.132 150.491 702.662 145.841C701.192 144.791 699.712 143.741 698.222 142.701C699.622 144.333 700.983 145.991 702.312 147.664L704.275 150.153C710.218 157.588 718.784 167.253 713.492 176.891C711.992 179.611 708.792 181.421 705.692 181.361C695.032 181.141 690.792 169.041 685.792 161.401C681.492 154.851 676.822 148.681 671.992 142.511C670.662 140.821 669.322 139.131 667.962 137.441C645.572 138.601 623.262 141.561 601.342 146.291C586.282 149.541 571.472 153.752 556.772 158.361L555.55 158.75C547.594 161.311 539.398 164.59 533.662 170.211C532.843 174.085 533.471 178.169 534.255 182.037L534.865 184.998C537.38 197.379 539.094 209.53 537.812 222.241C536.482 235.351 532.532 247.141 527.712 259.321C525.432 265.061 523.072 264.021 522.262 270.181C521.641 274.873 522.025 279.717 522.449 284.448L522.803 288.459C523.692 298.966 524.138 310.422 517.252 319.091C516.182 320.421 513.892 319.891 513.132 318.561C512.832 318.031 512.512 317.521 512.162 317.031C508.842 312.221 503.752 309.481 497.932 308.421C497.192 308.291 497.482 307.301 498.102 307.221C503.022 306.641 507.682 307.871 511.642 310.411C509.764 303.918 495.226 307.076 490.446 308.338L490.282 308.381C484.322 309.981 478.682 312.581 473.712 316.261C463.712 323.661 457.932 335.201 458.222 347.631C458.512 359.851 464.822 371.141 475.662 376.991C480.892 379.811 486.842 381.171 492.762 381.111C498.942 381.051 504.442 378.341 510.632 378.721C514.212 378.941 516.952 382.781 514.882 386.131C513.502 388.371 511.702 390.131 509.622 391.481C514.692 403.171 521.162 414.321 528.622 424.611C532.752 430.321 537.432 435.591 542.582 440.401C546.602 444.161 555.312 448.511 554.822 454.781C554.652 457.041 553.482 458.421 551.422 459.261C545.017 461.88 537.229 452.864 532.946 448.518L532.602 448.171C527.262 442.851 522.392 436.971 518.152 430.731C510.632 419.651 505.962 407.161 504.032 394.041C493.762 397.131 480.162 394.231 471.782 390.441C445.442 378.541 436.832 343.071 452.842 319.451C455.942 314.881 459.822 310.971 464.242 307.811C463.272 307.281 462.362 306.601 461.552 305.741C457.071 300.982 453.903 294.771 450.759 289.046L450.382 288.361C447.591 283.321 444.957 278.202 442.489 273.004L441.572 271.051C436.062 259.201 431.232 254.021 427.302 241.561C423.522 229.541 420.542 217.291 418.612 204.831L418.099 201.533C416.983 194.303 415.927 186.572 416.742 179.231C411.132 181.061 405.492 182.191 399.942 179.441C396.282 177.631 394.262 172.351 395.512 168.561C396.422 165.771 397.942 163.581 399.872 161.861C398.722 161.281 397.642 160.541 396.692 159.721L395.862 159.002C392.502 156.081 392.262 150.531 394.302 146.871C394.502 146.521 394.702 146.161 394.892 145.811C396.832 142.341 400.842 140.071 404.802 140.131C405.442 140.141 406.082 140.141 406.732 140.131C404.882 139.721 403.072 139.091 401.352 138.031C393.592 133.261 394.572 120.331 403.962 118.051C407.902 117.101 412.252 117.491 416.592 118.511C416.432 118.421 416.272 118.331 416.112 118.231C412.832 116.221 410.082 112.291 410.392 108.261C410.732 103.801 412.172 100.621 416.112 98.2813C419.532 96.2613 424.372 96.0713 427.772 98.2813C430.722 100.211 433.612 102.341 436.392 104.631C433.602 101.201 431.182 97.4713 430.202 93.5113C428.992 88.5813 431.012 83.2113 435.452 80.6113C438.992 78.5413 442.732 78.7713 446.072 80.3713C445.892 77.7813 446.522 75.1413 448.242 72.8013C451.762 68.0023 458.162 65.2413 463.732 68.7413C464.462 69.2013 465.442 69.9913 466.392 70.9613C464.542 65.0713 466.212 58.8913 472.522 56.2313C476.372 54.6013 481.582 55.4213 484.922 58.2313C482.802 46.7613 499.732 38.3313 506.312 50.1813C507.805 52.8658 509.283 55.6924 510.604 58.5841L511.092 59.6713L511.142 59.6513L510.805 58.8563L510.462 58.0613C508.632 53.8113 506.302 49.3913 505.662 44.7813C504.722 37.9613 507.762 31.4913 515.182 30.4913C519.012 29.9713 523.272 31.7113 525.842 34.7523C524.452 24.1713 536.272 16.4813 544.782 24.3813C548.812 28.1213 550.962 33.5913 553.522 38.3913C554.972 41.1013 556.452 43.8013 557.902 46.5213C558.272 46.0813 558.672 45.6413 559.092 45.2113C556.942 38.7713 555.272 32.1713 553.862 25.5313C552.522 19.2713 555.652 12.7713 562.112 11.0023C567.982 9.38133 575.332 13.0023 576.642 19.2523C577.562 23.6513 578.652 28.0023 579.852 32.3313C580.672 32.1313 581.482 31.9913 582.282 31.8913C582.348 31.078 582.424 30.2602 582.508 29.4469L582.823 26.5542C583.522 19.9447 584.228 12.3998 587.682 6.78133C593.572 -2.81867 608.672 1.16133 608.832 12.5113C608.922 18.3813 606.532 24.2013 605.702 30.0113C605.342 32.5413 605.132 35.1013 605.012 37.6613C606.622 29.1613 608.832 20.7713 611.392 12.5113C611.692 11.5213 612.012 10.5313 612.322 9.54133ZM482.042 337.322C495.292 335.272 507.402 342.662 515.252 353.012C516.682 354.902 515.742 357.572 514.452 359.162C513.522 360.332 512.272 360.472 510.862 360.652C509.242 360.862 507.192 359.552 506.482 358.142C501.432 348.062 492.422 341.692 482.042 337.772C481.852 337.702 481.792 337.362 482.042 337.322ZM500.409 156.717L500.811 156.286C503.492 153.505 499.255 149.257 496.568 152.044C493.739 154.978 491.859 158.542 490.051 162.154C488.328 165.598 493.502 168.64 495.232 165.183L496.019 163.612C497.256 161.169 498.574 158.755 500.409 156.717ZM463.199 151.009C466.999 150.369 465.388 144.586 461.604 145.224C456.702 146.05 451.819 146.989 446.916 147.816C443.117 148.456 444.728 154.239 448.512 153.602C453.414 152.775 458.297 151.836 463.199 151.009ZM689.567 111.528C685.896 110.303 684.321 116.096 687.972 117.314C693.017 118.997 698.021 120.722 702.807 123.059C706.264 124.747 709.309 119.574 705.835 117.878C700.582 115.313 695.105 113.376 689.567 111.528ZM462.335 103.752C458.75 102.318 457.193 108.119 460.74 109.538L473.7 114.721C477.285 116.155 478.842 110.355 475.295 108.936L462.335 103.752ZM734.821 89.6648L734.348 89.3663C731.098 87.2603 728.087 92.4523 731.319 94.5473C733.216 95.7765 735.523 96.6102 737.26 98.0745L737.624 98.3983C740.43 101.048 744.681 96.8143 741.867 94.1553C739.808 92.2119 737.202 91.1298 734.821 89.6648Z" fill="black"/>
<path fill-rule="evenodd" clip-rule="evenodd" d="M718.22 370.905C718.904 370.72 719.507 371.639 718.94 372.142C716.618 374.202 715.144 378.041 713.45 380.658C711.838 383.148 710.285 385.612 708.868 388.218C707.279 391.138 705.745 394.048 704.508 397.138L704.264 397.761C704.634 398.643 704.924 399.513 705.137 400.083L705.199 400.245C707.311 405.64 702.877 411.636 697.876 413.145C689.322 415.724 681.983 408.698 681.779 400.343C681.619 393.77 686.073 387.913 690.6 383.568C694.559 379.767 698.993 376.532 703.952 374.162C706.14 373.118 708.413 372.244 710.789 371.737C713.219 371.219 715.84 371.548 718.22 370.905ZM702.098 394.725C702.725 395.021 703.261 395.744 703.711 396.589C703.487 395.873 703.022 395.16 702.098 394.725ZM707.45 303.396C714.897 307.924 726.244 318.481 718.233 329.705C708.803 339.601 695.226 328.254 688.535 323.122C682.332 319.145 675.362 329.374 681.117 334.018C729.463 369.818 749.082 304.58 711.217 298.073C707.048 297.356 705.499 301.996 707.45 303.396ZM646.236 259.923L647.552 259.813C653.259 259.31 659.037 258.543 664.665 259.834C672.226 261.57 671.672 272.572 664.665 274.595C658.49 276.377 651.647 275.606 645.273 275.667C644.27 275.677 643.269 275.703 642.267 275.719C642.07 278.103 641.287 280.159 640.09 282.213C639.232 283.686 638.138 285.086 637.061 286.395C634.501 289.506 628.462 289.436 625.879 286.395C623.968 284.144 622.446 281.555 622.421 278.508C622.415 277.728 622.51 276.899 622.696 276.084L619.217 276.145C610.702 276.275 602.121 276.218 593.76 274.864C590.785 275.48 588.351 270.112 592.457 268.505C603.617 264.14 616.085 262.855 627.928 261.544C634.014 260.869 640.133 260.404 646.236 259.923ZM741.313 255.412L741.617 255.382C749.002 254.625 757.143 253.315 764.543 254.069C775.592 255.192 775.573 270.131 764.543 271.249C760.494 271.659 756.228 271.46 751.973 271.067C754.148 275.682 751.568 281.192 746.329 281.897C741.46 282.551 736.413 277.818 738.011 272.743L738.085 272.518C738.397 271.638 738.677 270.653 739.009 269.682L737.247 269.533C731.98 269.067 724.67 268.116 722.732 263.957C722.147 262.703 722.282 261.539 723.182 260.468C726.875 256.073 735.976 255.928 741.313 255.412ZM662.78 221.207C668.125 219.265 673.68 223.81 674.373 228.932C675.171 234.835 670.915 238.721 665.52 239.426L665.249 239.459C653.34 240.77 641.521 243.169 629.596 244.525C624.181 245.141 618.724 245.545 613.272 245.691L609.376 245.779C604.601 245.899 599.48 246.008 595.072 244.364L595.089 244.334C593.918 243.995 593.38 242.306 594.682 241.383C599.376 238.064 605.702 236.809 611.165 235.232C616.658 233.645 622.191 232.182 627.739 230.808C639.39 227.926 651.492 225.308 662.78 221.207ZM712.074 222.587C713.49 215.119 724.067 214.318 727.951 219.752C730.462 220.614 734.144 221.514 736.425 222.19C740.399 223.369 744.376 224.541 748.362 225.676C756.616 228.028 764.671 231.008 772.786 233.787C773.622 234.074 773.393 235.135 772.589 235.241C761.263 236.715 750.126 237.401 738.731 236.929L736.394 236.823C726.354 236.432 709.308 237.178 712.074 222.587Z" fill="black"/>
<path fill-rule="evenodd" clip-rule="evenodd" d="M700.841 346.576C689.599 341.507 669.414 345.931 662.085 347.69C645.048 351.78 627.909 360.621 622.612 374.471C616.643 390.08 628.552 394.994 630.304 394.192C642.098 395.023 656.144 387.6 668.503 385.684C678.536 384.115 689.12 382.746 698.521 377.408C705.384 381.188 720.886 383.232 733.397 386.537C744.052 389.351 748.668 395.453 758.546 394.155C770.385 392.601 765.539 367.67 752.345 357.57C737.904 346.518 713.481 342.035 700.841 346.576ZM723.099 453.174C713.264 455.575 712.603 433.992 711.502 426.367C710.641 420.41 705.786 405.047 693.479 405.71C681.171 406.373 676.545 419.244 677.169 427.249C677.574 432.441 682.352 458.736 667.102 462.063C657.379 462.028 646.13 461.372 635.907 459.484C623.874 456.756 608.228 447.202 604.095 466.016C602.607 472.787 655.612 492.904 679.132 494.724C702.986 499.564 730.895 492.121 747.878 473.851C751.741 469.694 762.623 452.442 763.398 448.214C765.027 439.334 761.256 433.619 750.28 436.749C742.527 440.894 729.423 451.63 723.099 453.174Z" fill="black"/>
<path fill-rule="evenodd" clip-rule="evenodd" d="M791.783 310.907C785.496 319.362 773.842 322.055 763.093 321.125C739.909 318.891 732.612 292.529 731.852 272.039C747.399 276.418 730.538 245.407 783.681 241.997C802.416 240.434 797.25 251.762 805.527 260.039C805.358 277.409 802.47 296.283 791.783 310.907ZM681.356 290.947C667.669 355.123 592.715 339.858 584.842 282.008C592.112 276.87 590.197 264.184 599.23 259.588C613.545 250.431 631.439 250.823 647.696 251.038C668.475 252.467 674.396 261.085 685.07 270.487C684.556 276.767 683.075 284.209 681.356 290.947ZM821.475 231.369C820.706 231.241 819.937 231.12 819.168 231.007C818.567 230.666 817.862 230.403 817.042 230.245C815.17 229.769 813.312 229.449 811.455 229.276C784.816 223.274 723.187 231.796 720.644 254.556C712.16 257.391 704.82 254.853 694.987 255.105C687.503 223.785 558.111 228.206 551.889 247.088C551.865 247.082 551.842 247.076 551.818 247.069C545.838 245.216 537.024 245.663 530.18 245.369C515.567 245.063 500.937 246.367 486.64 249.452C459.867 253.712 423.327 258.699 441.948 292.172C441.951 292.177 441.954 292.184 441.959 292.19L441.962 292.187C445.171 295.48 450.617 292.828 450.819 288.37C444.559 272.512 458.699 270.608 469.578 266.051C496.648 256.315 524.208 254.965 552.205 257.977C554.311 260.459 557.507 262.624 560.885 263.757C579.605 266.868 569.739 280.77 581.572 282.792C579.398 331.253 638.165 357.706 672.215 325.849C685.81 312.542 689.051 292.828 692.203 275.059C693.869 274.684 694.929 273.772 695.548 272.564C699.556 268.557 702.075 264.857 710.001 263.757C717.927 262.658 724.028 264.865 724.853 265.541C725.062 265.961 725.285 266.381 725.544 266.802C725.907 267.429 726.4 267.929 726.96 268.323C719.133 316.58 756.552 347.099 794.327 322.07C810.741 306.611 814.21 282.945 814.895 261.82C817.12 260.476 818.529 257.871 817.759 254.595C816.697 250.08 819.186 246.171 823.151 244.208C828.302 241.659 827.39 232.349 821.475 231.369Z" fill="black"/>
</svg>
