<svg width="3400" height="2437" viewBox="0 0 3400 2437" fill="none" xmlns="http://www.w3.org/2000/svg">
<g clip-path="url(#clip0)">
<rect x="2.13411" y="1.3348" width="3395.55" height="2433.33" rx="20" fill="#FFBD12"/>
<path fill-rule="evenodd" clip-rule="evenodd" d="M107.965 2438.78C114.546 2448.78 127.491 2447.24 133.049 2439.5C196.336 2454.24 261.217 2448.43 325.384 2444.82C506.202 2437.46 688.039 2460.52 868.126 2436.39C887.23 2432.57 909.465 2434.4 925.096 2421.15C950.097 2391.85 944.713 2347.37 940.73 2311.69C908.807 2110.54 863.422 1907.54 840.782 1705.1C839.518 1685.81 847.465 1661.85 854.589 1643.73C856.349 1640.35 867.471 1637.05 873.242 1633.16C890.954 1620.45 888.082 1597.66 872.728 1584.29C823.014 1549.25 753.809 1561.5 701.072 1574.43C690.966 1536.47 679.605 1511.5 660.363 1509.03C623.737 1504.32 534.893 1489.94 507.526 1509.03C494.434 1518.16 486.031 1550.33 476.606 1566.01C407.877 1564.78 268.384 1472.83 239.706 1576.38C216.406 1577.99 193.328 1598.33 197.785 1622.74C167.567 1649.44 191.401 1689.48 190.983 1722.72C187.01 1793.23 148.853 1856.3 132.978 1924.42C96.6918 2056.54 55.6213 2296.86 100.627 2425.82C99.6585 2425.32 97.543 2426.08 98.9134 2427.15C104.009 2428.59 104.672 2435.01 107.965 2438.78Z" fill="white"/>
<path fill-rule="evenodd" clip-rule="evenodd" d="M898.149 2405.18C889.708 2337.42 883.838 2255.61 883.771 2187.28C883.764 2180.84 893.749 2180.86 893.755 2187.28C893.823 2255.61 899.693 2337.42 908.134 2405.18C908.928 2411.55 898.933 2411.47 898.149 2405.18M835.618 1985.01C822.576 1992.99 805.448 1987.45 792.54 1982.17C786.662 1979.77 789.251 1970.11 795.193 1972.54C805.017 1976.56 819.376 1982.48 829.744 1976.88C840.092 1971.28 840.559 1955.88 840.636 1945.73C840.685 1939.29 850.668 1939.3 850.621 1945.73C850.516 1959.55 848.668 1977.03 835.618 1985.01M811.476 2295.11C798.317 2288.37 787.089 2279.15 778.053 2267.44C774.125 2262.35 782.803 2257.39 786.675 2262.4C794.628 2272.7 804.99 2280.58 816.516 2286.49C822.242 2289.43 817.184 2298.04 811.476 2295.11M748.227 1946.64C725.648 2037.11 710.496 2129.21 703.07 2222.17C701.56 2241.04 700.499 2259.89 699.9 2278.75C699.301 2283.67 698.726 2288.6 698.19 2293.53C696.155 2312.17 694.595 2331.12 694.732 2349.89C694.795 2358.32 695.057 2366.7 695.631 2375.1C694.633 2372.29 693.709 2369.47 692.81 2366.67C690.976 2360.91 689.765 2354.95 687.893 2349.23C686.345 2344.5 684.348 2339.97 682.488 2335.39V2335.38C683.05 2316.62 681.777 2297.68 681.128 2279.01C680.292 2254.82 679.256 2230.66 678.719 2206.46C677.646 2158.06 678.182 2109.62 679.93 2061.24C683.437 1963.76 692.299 1866.75 701.235 1769.67C703.719 1742.67 706.39 1715.69 708.237 1688.64C710.097 1661.31 710.846 1633.92 711.058 1606.52C711.07 1604.54 708.075 1604.02 707.526 1605.93C707.039 1599.42 706.178 1592.93 704.742 1586.66C726.272 1600.39 748.976 1612.26 771.229 1624.74C782.949 1631.31 794.619 1638 806.701 1643.9C813.341 1647.14 820.043 1650.12 826.883 1652.94C833.972 1655.86 840.749 1659.88 848.55 1657.85C849.224 1657.67 849.861 1657.42 850.472 1657.1C849.586 1658.78 848.7 1660.46 847.851 1662.16C844.906 1668.01 842.097 1673.89 839.376 1679.82C838.653 1680.35 838.016 1681.09 837.517 1682.05C836.194 1684.63 834.908 1687.24 833.66 1689.89C833.41 1689.65 833.161 1689.41 832.911 1689.18C831.863 1688.19 830.415 1689.67 831.339 1690.75C831.763 1691.23 832.175 1691.71 832.587 1692.2C824.449 1709.71 817.834 1728.12 811.019 1746.09C802.644 1768.18 794.706 1790.44 787.23 1812.84C772.49 1856.91 759.485 1901.56 748.227 1946.64M425.427 2274.99C383.814 2297.27 344.927 2323.9 307.526 2352.63C302.428 2356.54 297.46 2347.86 302.486 2344.01C339.887 2315.28 378.775 2288.65 420.388 2266.36C426.057 2263.33 431.095 2271.95 425.427 2274.99M284.877 2013.98C282.714 2013.82 280.612 2012.57 280.063 2010.32C276.692 1996.52 274.052 1981.48 277.187 1967.4C278.585 1961.12 288.209 1963.8 286.815 1970.06C284.343 1981.16 286.307 1993.16 288.875 2004.23C325.169 2005.82 360.976 1992.79 395.699 1984.05C401.944 1982.47 404.581 1992.11 398.354 1993.67C361.52 2002.95 323.42 2016.84 284.877 2013.98M1007.41 2382.13C1007.45 2382.04 1007.48 2381.94 1007.51 2381.85C1009.64 2375.39 1009.69 2367.88 1009.93 2361.1C1010.34 2349.04 1009.91 2336.96 1008.82 2324.94C1006.52 2299.64 1001.58 2274.75 995.678 2250.08C983.983 2201.2 967.458 2153.65 958.484 2104.11C940.873 2006.87 945.054 1905.62 910.494 1811.83C896.128 1772.84 875.609 1735.36 847.726 1704.38C849.761 1698.19 851.745 1691.98 853.68 1685.76C857.062 1674.92 860.519 1663.74 862.604 1652.58C862.654 1652.28 862.716 1651.97 862.754 1651.66C874.623 1646.54 885.419 1636.89 887.267 1624.06C888.065 1618.52 887.142 1612.38 884.745 1607.03C889.638 1602.51 892.783 1596.64 892.034 1588.78C890.636 1573.98 873.35 1570.17 861.318 1567.27C847.639 1563.99 833.448 1563.08 819.457 1564.63C812.392 1565.4 805.403 1566.7 798.576 1568.65C792.647 1570.33 786.194 1572.07 781.439 1576.13C780.877 1576.61 781.339 1577.53 782.013 1577.53C791.636 1577.5 801.222 1573.96 810.944 1573.5C821.129 1573.03 831.289 1573.86 841.274 1575.96C851.034 1578.01 860.769 1581 869.643 1585.63C872.139 1586.94 875.796 1587.83 872.863 1590.48C870.717 1592.41 866.498 1592.57 863.74 1592.86C857.636 1593.5 852.369 1597.07 851.595 1603.58C850.909 1609.33 854.341 1615.85 860.457 1617.15C860.794 1617.22 861.106 1617.31 861.381 1617.42C861.543 1617.73 861.793 1618 861.768 1617.57C861.768 1617.57 861.78 1617.56 861.78 1617.57C861.93 1618.48 861.98 1618.84 861.98 1618.91C861.942 1618.83 861.88 1618.52 861.83 1618.27C861.867 1618.5 861.942 1618.86 862.042 1619.39C861.905 1618.81 862.017 1620.24 861.905 1620.47C858.66 1626.46 849.062 1628.15 843.47 1630.73C842.384 1631.23 841.448 1631.81 840.65 1632.47C839.327 1632.01 837.979 1631.55 836.618 1631.04C829.916 1628.53 823.226 1626.1 816.436 1623.84C803.331 1619.46 790.063 1615.55 776.958 1611.16C752.146 1602.84 728.157 1592.35 703.806 1582.84C703.032 1579.97 702.134 1577.16 701.073 1574.42C700.861 1573.85 699.837 1573.66 699.725 1574.42C699.35 1576.85 699.051 1579.28 698.801 1581.73C698.701 1581.95 698.677 1582.2 698.726 1582.44C697.316 1596.67 697.691 1611.23 696.967 1625.45C696.068 1643.17 693.559 1660.77 692.848 1678.51V1678.83C690.227 1693.97 687.855 1709.16 685.709 1724.4C683.3 1723.65 680.541 1723.8 677.721 1725.31C657.776 1735.96 635.36 1741.88 612.806 1743.21C601.448 1743.87 590.203 1743.5 578.907 1742.18C571.481 1741.34 564.167 1739.79 556.841 1738.31C560.698 1722.15 564.841 1706.06 569.522 1690.14C573.378 1677.04 577.672 1664.01 582.976 1651.42C588.331 1638.7 594.996 1626.56 601.199 1614.23C604.057 1608.52 600.687 1599.8 593.261 1600.4C591.064 1600.57 588.867 1600.71 586.658 1600.81C565.166 1601.83 542.812 1599.44 521.594 1597.3C497.443 1594.86 472.968 1592.32 449.029 1588.34C447.256 1588.05 446.533 1590.46 448.28 1591.05C459.638 1594.87 470.858 1599.19 482.503 1602.05C494.485 1605 506.542 1607.7 518.698 1609.81C530.343 1611.82 542.038 1613.5 553.771 1614.93C561.421 1615.86 569.16 1616.34 576.861 1616.96C566.489 1633.54 559.337 1652.23 553.109 1670.64C545.109 1694.28 539.23 1718.61 533.476 1742.88C521.17 1794.92 511.023 1847.47 503.085 1900.36C497.393 1938.28 492.788 1976.34 489.33 2014.51C488.307 2002.91 487.059 1991.36 485.648 1979.81C480.931 1941.48 474.041 1903.4 464.83 1865.9C465.654 1864.45 466.041 1862.71 465.766 1861.03C464.106 1850.72 459.738 1841.75 455.906 1832.19C452.099 1818.83 447.993 1805.56 443.575 1792.4C438.557 1774.46 432.928 1756.8 425.726 1739.55C420.222 1726.41 413.944 1713.6 406.955 1701.18C398.605 1683.82 389.431 1666.84 379.359 1650.6C378.835 1649.09 377.986 1647.68 376.775 1646.49C374.941 1643.6 373.081 1640.74 371.184 1637.9C369.948 1636.06 366.404 1637.18 367.34 1639.53C367.777 1640.63 368.213 1641.72 368.663 1642.81C327.637 1632.55 287.41 1648.24 248.332 1659.82C238.472 1662.75 228.512 1665.4 218.402 1667.31C210.452 1668.81 201.191 1670.63 193.265 1668.98C187.961 1667.88 185.614 1665.47 188.198 1659.81C190.869 1653.94 198.158 1650.09 204.486 1647.49C206.87 1646.98 209.216 1646.07 211.475 1644.69C216.742 1641.5 219.051 1634.83 216.568 1629.15C214.308 1624.03 207.718 1619.61 201.89 1621.95C201.053 1622.29 200.23 1622.61 199.406 1622.94C199.319 1622.81 199.219 1622.64 199.131 1622.39C198.295 1620.11 197.933 1622.84 198.295 1619.57C198.894 1614.23 204.548 1609.37 208.417 1606.31C218.04 1598.69 231.944 1593.05 244.363 1595.93C245.299 1596.14 246.235 1596.4 247.159 1596.73C259.952 1601.16 266.18 1582.74 255.958 1575.87C255.334 1575.46 254.548 1574.94 253.686 1574.33C249.43 1571.37 243.202 1566.39 244.9 1561.9C246.997 1556.31 259.365 1553.11 264.046 1551.21C280.97 1544.35 299.255 1540.45 317.503 1539.65C335.862 1538.85 354.459 1540.88 372.17 1545.83C380.857 1548.25 389.781 1551.93 397.993 1555.65C405.37 1558.99 421.42 1563.39 422.444 1572.73C422.669 1574.79 425.602 1575.49 426.238 1573.24C431.268 1555.32 411.748 1543.75 398.867 1536.35C390.417 1531.48 380.832 1528.44 371.558 1525.46C362.672 1522.59 353.598 1520.48 344.337 1519.21C324.455 1516.49 304.335 1516.84 284.615 1520.66C266.654 1524.14 246.672 1530.08 232.156 1541.64C223.245 1548.73 219.214 1560.01 222.796 1571.02C222.92 1571.38 223.045 1571.75 223.17 1572.12C207.132 1574.99 191.955 1584.17 181.808 1596.98C173.47 1607.5 169.102 1622.14 176.565 1634.39C176.253 1634.61 175.941 1634.85 175.642 1635.1C168.528 1640.79 163.236 1649.05 161.663 1658.09C158.58 1675.91 169.351 1688.38 184.416 1693.15C180.684 1696.79 177.102 1700.66 173.595 1704.53C165.744 1713.2 158.243 1722.65 151.628 1732.29C138.223 1751.81 126.766 1773.06 116.743 1794.48C96.137 1838.46 83.1442 1885.8 76.2546 1933.81C72.7848 1958 70.4633 1982.31 69.5772 2006.72C68.5537 2034.55 69.5896 2062.4 69.0529 2090.25C68.5287 2117.01 65.5707 2143.12 59.5922 2169.2C53.8634 2194.15 46.2249 2218.6 39.3104 2243.23C31.5097 2270.96 22.9227 2298.57 18.8039 2327.16C16.7195 2341.71 15.2218 2356.31 16.3825 2371.02C17.5558 2386.01 22.9975 2398.83 28.015 2412.77C29.288 2416.33 33.1697 2417.76 36.2775 2417C36.9764 2423.68 39.4976 2430.19 43.2544 2435.84C51.2299 2447.79 63.5113 2455.42 77.5776 2458.19C93.4286 2461.3 109.766 2460.56 125.817 2459.99C143.228 2459.36 160.652 2458.8 178.063 2458.08C196.292 2457.32 214.519 2456.55 232.748 2455.77C232.145 2437.09 231.426 2418.41 230.614 2399.74C226.219 2298.79 219.298 2197.77 219.115 2096.69C218.762 2096.48 218.415 2096.24 218.083 2095.91C209.876 2087.98 199.802 2082.77 190.336 2076.56C184.979 2073.05 189.986 2064.41 195.376 2067.94C203.356 2073.18 211.672 2077.83 219.151 2083.69C219.195 2073.17 219.287 2062.65 219.496 2052.12C219.623 2045.7 229.608 2045.7 229.481 2052.12C228.854 2083.84 229.064 2115.56 229.781 2147.28C232.104 2250.04 239.406 2352.62 242.73 2455.35C291.657 2453.26 340.585 2451.15 389.519 2449.36C429.321 2447.92 469.123 2446.47 508.926 2445.02C517.276 2444.72 521.969 2438.76 522.992 2430.95C524.864 2416.6 521.344 2401.76 513.382 2389.69C512.558 2388.44 511.584 2387.33 510.498 2386.39C510.686 2377.79 511.035 2369.17 510.548 2360.57C509.824 2347.44 508.739 2334.31 507.79 2321.2C505.868 2294.92 504.383 2268.6 503.796 2242.27C502.598 2189.6 503.472 2136.88 506.454 2084.28C512.433 1979.2 526.349 1874.8 549.128 1772.01C550.788 1764.53 552.46 1757.04 554.195 1749.56C571.906 1758.76 593.448 1762.07 612.806 1762.19C637.07 1762.34 660.796 1756.76 682.713 1746.62C682.563 1747.75 682.414 1748.87 682.276 1750.01C676.161 1798.69 671.006 1847.46 666.513 1896.3C657.551 1993.67 652.059 2091.43 652.821 2189.23C653.033 2216.33 654.069 2243.34 655.354 2270.4C656.665 2297.92 658.674 2327 666.338 2353.55C667.187 2356.48 669.071 2358.17 671.243 2358.78C671.355 2362.65 671.605 2366.53 671.879 2370.35C672.766 2382.77 675.299 2408.56 680.716 2419.82C685.996 2430.81 694.795 2439.52 706.015 2444.31C720.269 2450.39 735.683 2448.64 750.735 2447.67C816.186 2443.4 881.588 2437.68 947.001 2432.67C956.112 2431.97 965.224 2431.28 974.322 2430.57C982.423 2429.94 990.798 2429.39 997.987 2425.19C1006.16 2420.41 1012.54 2396.93 1009.72 2387.22C1009.21 2385.45 1008.43 2383.7 1007.41 2382.13" fill="black"/>
<path fill-rule="evenodd" clip-rule="evenodd" d="M918.892 1172.99C918.138 1130.54 917.304 1087.23 910.995 1045.18C904.826 1004.08 887.855 966.924 858.692 937.075C796.749 873.672 706.959 858.186 623.381 843.994L480.485 819.729C436.89 812.327 390.381 800.497 346.335 810.993C324.632 816.165 306.2 828.181 289.354 842.398C273.117 856.101 255.659 870.816 244.657 889.251C233.635 907.713 229.844 929.295 226.261 950.175C222.22 973.717 219.08 997.442 216.85 1021.22C212.381 1068.87 211.771 1116.88 215.012 1164.62C216.583 1187.78 219.082 1210.87 222.273 1233.86C223.855 1245.26 225.644 1256.64 227.663 1267.97C228.258 1271.31 228.711 1275.01 229.321 1278.75C224.814 1291.57 222.252 1304.85 222.459 1318.07C223.067 1357.02 255.934 1381.55 289.068 1394.71C308.281 1402.35 328.366 1407.54 347.243 1416.06C367.101 1425.04 380.618 1439.58 394.195 1456.17C420.09 1487.81 449.312 1516.24 482.679 1539.97C553.423 1590.27 643.027 1614.06 728.864 1596C749.459 1591.67 770.236 1584.94 788.749 1574.81C808.295 1564.1 822.992 1548.59 835.334 1530.26C858.25 1496.22 874.685 1457.88 887.118 1418.88C899.799 1379.09 908.801 1339.23 913.71 1297.74C918.602 1256.38 919.633 1214.61 918.892 1172.99V1172.99Z" fill="white"/>
<path fill-rule="evenodd" clip-rule="evenodd" d="M462.898 671.828C522.032 663.692 603.649 690.136 633.099 743.458C773.696 710.302 951.026 709.216 1066.91 819.592C1187.82 950.522 1035.95 1123.15 935.237 1162.08C942.57 1197.72 931.137 1426.07 850.243 1527.93C786.044 1614.24 636.539 1654.06 567.358 1550.98L566.819 1550.13C559.407 1538.23 565.79 1538.61 573.399 1547.46C641.142 1607.06 733.248 1608.07 804.225 1545.18C937.248 1430.24 923.532 1148.39 860.234 985.335C679.992 965.533 487.01 1020.18 362.52 1155.9L370.938 1206.59C372.372 1215.23 374.001 1223.86 375.244 1232.53C376.04 1238.08 376.129 1243.6 372.283 1248.1C359.583 1262.94 338.179 1240.64 320.567 1231.77C315.368 1231.04 310.16 1230.75 305.052 1231.12C220.439 1242.02 237.11 1406.21 330.105 1377.43C337.919 1372.56 344.632 1374.04 347.663 1381.11C369.829 1401.42 384.445 1437.64 421.272 1472.53C434.266 1485.62 446.091 1496.56 460.706 1507.06C469.291 1515.75 495.195 1524.6 486.984 1539.46C471.455 1573.28 379.883 1467.06 363.692 1437.68C312.966 1457.72 256.75 1450.91 204.182 1446.02C-73.1436 1431.59 -36.1213 1139.17 191.196 954.548C233.986 923.037 281.196 897.331 330.27 877.55C336.97 874.849 334.042 863.845 327.248 866.584C294.777 879.674 263.122 895.255 232.947 913.289L232.902 902.508C232.858 884.348 233.142 865.443 236.295 848.851C237.872 837.355 240.522 825.075 244.604 815.837C249.649 787.516 328.686 690.303 462.898 671.828ZM301.35 1268.81C305.632 1264.74 313.626 1269.59 317.438 1269.47C327.186 1270.81 336.447 1274.92 343.67 1280.01C348.439 1282.68 351.781 1285.19 354.574 1287.5L354.65 1287.48C354.629 1287.48 354.602 1287.5 354.579 1287.5L354.842 1287.68C358.909 1290.57 373.795 1306.85 364.39 1302.47C363.689 1301.56 362.971 1300.68 362.247 1299.83C362.17 1299.94 362.062 1300.06 361.933 1300.17L362.461 1300.96C370.455 1312.98 356.653 1300.31 354.53 1296.95C354.43 1297.03 354.316 1297.08 354.204 1297.14L356.969 1300.51C357.356 1300.98 357.66 1301.37 357.912 1301.69L358.495 1302.25C367.738 1311.34 368.026 1319.52 357.289 1306.08C357.711 1306.72 358.051 1307.39 358.098 1307.98L358.734 1308.79C367.165 1319.66 360.308 1315.8 356.118 1311.16L355.768 1310.76L355.839 1310.87C359.737 1316.87 352.004 1312.66 350.637 1309.45L350.58 1309.3C349.091 1308.09 348.175 1306.72 347.86 1306.38L347.802 1306.32C340.553 1298.89 330.045 1292.61 321.119 1289.75C319.825 1289.5 318.516 1289.31 317.193 1289.17C311.826 1287.97 306.399 1287.15 300.916 1286.7C300.245 1286.62 299.565 1286.13 299.057 1285.49C290.766 1285.21 293.325 1281.81 296.765 1281.18L296.826 1281.17L296.143 1281.12C290.822 1280.6 287.188 1278.69 292.568 1277.51L293.25 1277.38C293.167 1277.25 293.093 1277.12 293.021 1276.99C288.413 1276.48 291.42 1272 293.978 1273.08C292.902 1269.56 297.82 1271.32 298.434 1270.8C298.902 1270.28 299.484 1269.82 299.819 1269.8C301.301 1268.75 300.583 1268.84 301.35 1268.81ZM329.544 1211.83L328.464 1212.46C327.591 1212.97 326.693 1213.31 325.791 1213.51C327.064 1214.05 328.322 1214.63 329.567 1215.26C329.547 1214.49 329.532 1213.73 329.532 1212.97L329.544 1211.83Z" fill="black"/>
<path fill-rule="evenodd" clip-rule="evenodd" d="M703.241 1451.22C691.292 1446.35 680.63 1438.23 672.835 1427.86C670.125 1424.25 669.423 1420.44 669.991 1416.96C670.63 1413.04 672.951 1409.5 676.115 1407.11C679.288 1404.73 683.258 1403.55 687.097 1404.15C690.432 1404.67 693.752 1406.49 696.379 1410.28L696.928 1411.03C701.562 1417.29 707.601 1422.43 714.482 1425.74C721.113 1428.93 728.53 1430.42 736.206 1429.56C750.824 1427.91 760.899 1420.01 771.609 1409.29C772.936 1407.94 774.264 1406.54 775.599 1405.12C776.442 1403.84 777.612 1403.01 778.911 1402.58C780.353 1402.1 781.984 1402.12 783.478 1402.64C784.919 1403.15 786.207 1404.1 787.071 1405.36C787.892 1406.57 788.358 1408.06 788.206 1409.77C787.226 1420.88 781.41 1430.79 773.147 1438.58C763.971 1447.23 751.807 1453.21 740.355 1455.31C727.738 1457.62 714.882 1455.96 703.241 1451.22V1451.22ZM746.307 1279.82C759.729 1287.96 780.182 1306.96 765.742 1327.16C748.745 1344.97 724.273 1324.55 712.213 1315.32C701.031 1308.16 688.467 1326.57 698.842 1334.92C785.984 1399.35 821.348 1281.95 753.096 1270.24C745.581 1268.94 742.79 1277.29 746.307 1279.82ZM590.149 1204.87C591.632 1186.48 619.669 1182.31 622.458 1200.5C624.955 1216.8 622.015 1231.77 614.665 1246.44C607.642 1260.45 589.99 1253.91 588.655 1241.15C586.866 1224.04 589.226 1216.3 590.149 1204.87ZM803.566 1196.73C807.475 1191.62 813.118 1188.13 819.88 1190.1C841.006 1196.26 834.779 1226.22 827.36 1240.8C823.328 1248.71 810.297 1250.72 804.408 1243.75C794.81 1232.38 790.213 1209.68 802.416 1198.48C802.746 1197.9 803.114 1197.32 803.566 1196.73ZM614.367 1124.43L617.704 1123.84C628.027 1122.06 640.864 1120.35 648.167 1128.64C652.04 1133.03 653.373 1141.2 648.167 1145.41C639.009 1152.81 628.884 1149.94 617.909 1150.57C608.865 1151.09 600.173 1152.58 591.461 1155.07C572.349 1160.52 556.776 1170.48 540.453 1181.42C538.311 1182.85 536.125 1180.11 537.147 1178.11C546.57 1159.68 564.83 1144.54 583.121 1135.31C592.883 1130.39 603.566 1126.3 614.367 1124.43ZM784.309 1116.17L786.863 1116.69C814.659 1122.5 850.772 1134.09 863.934 1161.35C864.436 1165.21 863.906 1166.03 863.475 1166.57L863.332 1166.75C862.977 1167.21 862.693 1167.85 861.02 1168.37C860.555 1168.26 860.086 1168.15 859.613 1168.02C853.579 1166.44 848.805 1164.27 844.184 1162.01L839.173 1159.54C833.36 1156.7 827.495 1153.95 821.279 1151.93C808.015 1147.61 794.372 1144.57 780.517 1142.94C777.514 1142.59 774.622 1141.58 772.341 1139.84C770.176 1138.2 768.522 1135.92 767.767 1132.89C766.79 1128.96 767.071 1126 769.178 1122.46C770.762 1119.8 773.029 1117.96 775.631 1116.9C778.285 1115.82 781.306 1115.57 784.309 1116.17Z" fill="black"/>
<path fill-rule="evenodd" clip-rule="evenodd" d="M916.471 1274.12C899.775 1294.98 834.41 1318.13 799.622 1293C764.833 1267.86 751.085 1250.34 746.435 1218.94C745.939 1215.59 739.884 1213.36 737.324 1215.74C722.989 1229.05 713.71 1246.01 704.517 1263.01C694.148 1282.19 683.936 1301.48 665.094 1314.46C631.72 1332.35 571.345 1334.89 553.507 1327C519.338 1311.89 492.308 1279.56 486.162 1235.07C486.162 1235.07 479.91 1215.34 474.433 1211.18C469.241 1207.25 440.589 1203.74 437.45 1203.16C380.885 1192.66 309.344 1185.97 258.963 1222.9C252.145 1227.02 228.804 1242.5 228.459 1238.7C228.215 1223.78 245.115 1190.03 283.551 1173.97C331.081 1154.11 401.736 1152.95 442.667 1157.33C444.726 1157.55 451.743 1155.83 452.239 1155.61C514.251 1128.76 585.604 1135.89 651.956 1147.18C661.464 1149.02 746.582 1170.1 780.439 1157.33C836.417 1134.48 896.1 1117.92 956.55 1124.43C957.055 1124.49 964.686 1170.81 958.742 1173.97C954.011 1176.48 945.961 1182.93 943.101 1186.45C940.545 1189.61 938.934 1193.53 939.077 1198.95C940.226 1230.36 931.264 1255.64 916.471 1274.12ZM686.312 1246.09C693.41 1235.82 695.65 1212.76 692.678 1195.93C691.174 1187.41 688.252 1180.63 684.586 1177.26C682.149 1175.01 679.368 1173.96 676.335 1174.11C674.673 1174.2 672.871 1174.67 670.965 1175.7C645.149 1161.74 613.875 1156.71 584.229 1158.15C560.63 1158.15 543.792 1163.72 532.374 1172.39C518.634 1182.82 512.444 1197.82 512.086 1214.09C511.661 1233.39 519.59 1254.5 532.596 1271.21C545.045 1287.2 562.075 1299.06 580.55 1301.79C601.523 1305.96 622.895 1301.93 641.477 1292.08C660.536 1281.97 676.635 1265.74 686.312 1246.09ZM893.263 1256.98C905.225 1242.85 913.179 1224.46 914.389 1206.24C915.491 1189.65 911.051 1173.23 898.774 1159.66C887.644 1150.1 867.977 1149.95 847.288 1155.27C820.536 1162.14 792.861 1177.52 783.635 1187.44C781.462 1188.58 779.445 1190.57 777.687 1194.82L777.675 1196.34C774.88 1209.23 776.538 1222.31 781.373 1234.38C786.624 1247.48 795.631 1259.38 806.613 1268.46C821.204 1280.48 836.435 1284.16 850.69 1282.22C866.838 1280.02 881.853 1270.46 893.263 1256.98Z" fill="white"/>
<path fill-rule="evenodd" clip-rule="evenodd" d="M778.513 1152.22C835.199 1129.08 895.791 1112.4 957.134 1119.01C962.207 1117.08 968.504 1118.71 970.752 1125.88C992.603 1192.44 943.877 1173.93 944.531 1198.81C949.639 1338.32 762.122 1362.15 741.037 1219.74L740.65 1219.96V1219.96C710.315 1248.27 703.925 1294.33 668.189 1318.95C596.102 1371.67 493.914 1329.9 480.789 1236.05L480.502 1234.78C476.097 1215.63 470.829 1210.88 449.1 1210.97L445.667 1210.29C389.211 1199.17 314.031 1189.17 262.032 1227.42C250.722 1234 250.191 1250.91 240.635 1258.25C230.165 1260.29 223.716 1247.69 223.006 1238.98C221.348 1152.11 376.807 1145.86 446.43 1153.31C447.76 1151.94 450.599 1152.11 451.556 1153.82C514.521 1126.56 585.46 1130.33 652.878 1141.8C694.641 1149.88 735.89 1168.3 778.513 1152.22ZM951.49 1135.05C917.475 1133.35 886.012 1135.21 852.625 1143.38C835.029 1147.63 821.526 1153 804.683 1159.45C699.628 1205.99 687.511 1123.26 452.025 1155.69C455.071 1168.74 455.631 1181.66 455.795 1193.92C503.877 1191.98 492.557 1237.89 510.57 1270.14L511.125 1271.11C537.379 1318.16 599.33 1340.11 649.304 1308.9C690.996 1284.6 695.063 1222.97 736.573 1198.51C772.556 1197.1 758.184 1245.66 777.766 1265.62C805.329 1302.4 863.917 1307.54 898.479 1272.95C914.694 1256.3 923.312 1235.16 923.789 1212.46C924.693 1197.95 922.205 1183.21 933.172 1173.01C940.861 1165.2 954.521 1167.8 956.088 1156C957.085 1149.02 954.182 1141.44 951.49 1135.05ZM581.821 1154.06C615.61 1152.4 651.362 1158.27 680.375 1174.84C701.85 1157.75 707.112 1225.67 692.858 1245.31C672.321 1287.33 624.508 1314.96 578.47 1305.78C506.65 1295.38 456.609 1153.94 581.821 1154.06ZM678.312 1179.39L676.474 1179.12C645.349 1174.37 560.599 1152.37 527.911 1187.1C496.188 1244.7 576.668 1341.45 660.418 1264.39C683.727 1240.66 692.761 1211.88 678.312 1179.39ZM776.949 1186.75C793.067 1167.67 875.217 1129.01 903.852 1153.82C956.113 1212.39 873.233 1330.85 803.813 1273.14C780.692 1253.84 765.481 1223.11 772.138 1193.34L772.148 1192.09C772.162 1191.64 772.247 1191.74 772.731 1191.18C773.587 1188.93 775.13 1187.49 776.949 1186.75ZM903.123 1222.25C920.748 1126.66 847.085 1163 786.589 1188.51C789.836 1191.48 789.821 1195.53 788.888 1198.86C782.508 1269.79 868.717 1309.98 903.123 1222.25ZM445.208 1157.96C419.975 1166.5 253.073 1151.22 237.654 1229.46C253.929 1203.09 287.637 1192.63 317.939 1186.95C359.157 1179.22 400.149 1183.7 440.788 1191.82L441.627 1183.41C442.529 1174.49 443.479 1166.15 445.208 1157.96Z" fill="black"/>
<path fill-rule="evenodd" clip-rule="evenodd" d="M2091.72 914.358C2154.19 917.441 2251.45 944.226 2256.31 961.344C2263.91 988.074 2247.59 1088.29 2274.88 1142.26C2286.52 1165.27 2330.69 1163.21 2347.81 1170.7C2405.08 1195.78 2574.63 1243.33 2609.59 1303.21C2623.59 1327.2 2709.66 1624.85 2755.4 1776.7C2760.55 1793.82 2766.38 1809.65 2772.71 1824.32L2775.03 1812.92C2793.68 1721.14 2803 1665.58 2803 1646.24C2803 1616.01 2778.9 1488.5 2803 1456.07C2826.87 1423.96 2884.38 1397.71 2910.25 1397.19L2911.03 1397.18C2928.02 1397.18 2942.76 1391.87 2955.25 1381.25L2973.57 1372.04C3066.76 1325.27 3121.2 1299.62 3136.9 1295.08C3161.96 1287.83 3204.6 1303.27 3183.28 1326.44C3169.06 1341.88 3133.35 1369.21 3076.13 1408.41L3054.55 1425.56L3057.16 1426.92C3085.04 1441.6 3101.44 1453.96 3106.34 1463.99C3111.4 1474.33 3108.97 1486.57 3099.06 1500.69L3100.57 1502.16C3113.1 1514.46 3119.37 1522.71 3119.37 1526.91V1547.44C3131.84 1565.7 3134.95 1580.93 3128.72 1593.13C3122.48 1605.33 3112.6 1615.9 3099.06 1624.85C3089.09 1651.09 3077.21 1669.76 3063.43 1680.87C3049.65 1691.99 3025.83 1701.24 2991.97 1708.62L2961.34 1781.89L2936.51 1884.82L2924 1999.67L2927.64 2002.3C2944.47 2014.56 2955.25 2023.65 2955.25 2033.05C2955.25 2047.68 2887.33 2391.85 2781.65 2407.25C2758.8 2410.58 2640.27 2394.24 2601.35 2362.58L2601.93 2366C2611.09 2421.31 2609.15 2450.04 2596.12 2452.18C2435.97 2478.44 1981.14 2486.55 1231.62 2476.52C1227.16 2078.65 1247.32 1813.67 1292.11 1681.59C1406.66 1343.78 1532.95 1228.4 1577.13 1218.52C1615.84 1209.87 1750.04 1156.44 1787.56 1142.26C1812.05 1133.01 1817.29 1105.26 1845.2 1105.26L1847.46 1105.27C1874.44 1105.54 1898.38 1110.37 1911.82 1096.49C1947.11 1060.05 1937.24 1009.63 1951.88 961.344C1959.95 934.74 2015.07 910.575 2091.72 914.358Z" fill="white"/>
<path fill-rule="evenodd" clip-rule="evenodd" d="M1920.1 1009.75C1923.77 1002.48 1933.5 1003.43 1939.93 1006.72C1959.19 1020.81 1939.03 1048.1 1933.71 1065.29C1920 1098.63 1896.19 1131.21 1863.33 1146.79C1866.05 1179.93 1869.14 1212.99 1870.28 1246.23C1912.3 1298.36 1983.14 1317.38 2046.02 1332.01C2144.79 1359.33 2256.25 1303.36 2289.59 1205.72C2251.65 1184.16 2239.37 1127.71 2250.69 1088.32C2251.68 1085.56 2255.96 1084.34 2257.49 1087.42C2267.88 1108.8 2266.49 1134.87 2278.3 1155.98C2391.66 1166.83 2537.97 1209.62 2612.23 1301.31C2645.15 1347.18 2658.18 1406.84 2674.39 1460.01C2708.98 1569.61 2736.54 1681.44 2770.46 1791.16L2774.46 1770.4C2785.42 1713.21 2795.37 1655.25 2787.97 1597.09L2787.84 1594.31C2785.42 1548.03 2770.94 1462.04 2806.82 1430.79C2839.28 1405.99 2886.3 1386.05 2927.03 1397.49C2999.51 1365.23 3062.07 1310.91 3139.27 1289.75C3163.03 1284.86 3197.21 1290.65 3191.59 1322.88C3176.03 1379.26 3110.85 1401.15 3066.3 1430.22C3094.86 1437.96 3129.68 1472.69 3107.36 1502.99C3107.17 1503.52 3107 1503.93 3106.83 1504.25C3124.92 1512.27 3127.46 1532.43 3123.02 1549.72C3122.57 1554.28 3121.37 1550.36 3124.05 1554.5C3144.47 1573.76 3135.44 1627.44 3104.68 1629.26C3106.7 1654.7 3090.36 1679.4 3069.67 1693.28C3047.36 1708.22 3015.12 1708.87 2996.65 1729.33C2953.3 1805.78 2938.35 1896.03 2933.62 1983.58C2962.2 1994.28 2987.84 2026.27 2961.88 2053.41C2961.36 2053.47 2960.85 2053.53 2960.33 2053.57C2945.28 2093.74 2939.47 2136.56 2931.51 2178.52C2919.26 2250.1 2887.35 2315.83 2846.6 2375.46C2799.47 2454.4 2672.75 2441.88 2608.91 2390.94C2609.16 2404.31 2611.37 2417.59 2607.09 2430.51C2600.77 2444.44 2585.37 2438.42 2583.84 2424.7C2550.1 2443.68 2542.15 2381.02 2579.66 2390.96C2576.78 2345.66 2575.1 2300.3 2573.75 2254.93C2531.27 2268.68 2529.44 2198.2 2572.89 2212.29L2572.83 2192.81C2572.52 2043.41 2574.17 1893.5 2593.88 1745.28C2595.7 1734.2 2598.79 1723.47 2600.59 1712.45C2600.78 1711.31 2602.56 1711.63 2602.57 1712.73C2605.62 1920.24 2592.06 2128.2 2606.21 2335.78C2617.99 2339.37 2622.68 2352.89 2631.4 2360.76C2650.76 2378.64 2677.13 2387.35 2702.91 2390.38C2775.11 2400.5 2806.28 2378.45 2838.43 2315.69C2823.93 2325.38 2804.33 2308.26 2813.17 2292.92L2813.45 2292.46C2822.63 2276.21 2848.55 2285.95 2845.27 2304.15C2877.59 2252.38 2894.51 2194 2907.01 2134.77L2908.7 2127.69C2914.77 2102.54 2922.65 2073.73 2937.24 2050.98C2848.29 2028.3 2761.28 1959.22 2747.36 1864.45C2724.78 1935.41 2694.18 2004.78 2665.03 2073.8C2656.02 2097.79 2652.27 2123.59 2639.36 2145.85C2636.36 2151 2628.74 2149.67 2627.05 2144.24C2615.44 2092.33 2650.62 2042.95 2668.88 1996.22C2683.8 1969.81 2726.61 1849.21 2753.15 1848.91C2723.33 1718.16 2683.54 1588.39 2645.66 1459.26C2609.02 1284.91 2534.36 1251.29 2376.21 1196.39C2404.74 1341.79 2534.98 1482.53 2465.67 1635.03L2463.99 1638.98C2456.9 1655.8 2451.01 1672.74 2455.96 1691.2C2460.76 1709.1 2471.7 1724.65 2480.45 1740.76C2529.36 1831.74 2495.69 1937.98 2476.78 2032.73C2452.89 2143.83 2429.3 2255.04 2404.61 2365.98C2399.74 2388.11 2396.58 2410.91 2389.23 2432.35C2385.44 2443.42 2366.5 2442.37 2367.73 2429.46C2370.06 2404.41 2377.09 2379.98 2382.25 2355.38C2412.99 2196.12 2454.59 2038.74 2481.04 1878.79C2498.06 1760.38 2431.07 1742.18 2433.57 1665.68C2442.68 1626.55 2466.78 1591.63 2465.39 1549.93C2470.75 1422.29 2377.79 1316.99 2366.32 1192.85L2346.05 1185.62C2335.92 1182 2325.81 1178.34 2315.72 1174.6C2368.8 1545.88 2352.69 1925.28 2326.15 2298.4C2320.73 2315.62 2325.89 2435.88 2303.16 2425.21C2302.01 2431.93 2298.44 2438.54 2290.68 2438.51C2220.2 2439.15 2149.7 2440.27 2079.21 2441.11C2045.31 2437.98 1998.71 2450.93 1969.88 2431.36C1936.58 2421.86 1932.76 2331.68 1923.86 2299.54L1920.38 2276.16C1863.81 1894.19 1813.18 1504.33 1853.85 1118.57C1797.27 1120.75 1785.59 1181.82 1781.4 1226.29C1770.91 1324.43 1707.5 1408.95 1704.46 1508.22C1704.21 1532.3 1708.75 1555.63 1718.38 1577.75C1743.92 1631.92 1788.08 1694.56 1755.07 1755.07C1716.03 1802.17 1719.41 1814.57 1733.74 1872.78C1774.04 2065.22 1840.98 2250.22 1904.65 2435.77C1890.82 2507.88 1807.6 2240.16 1799.77 2219.97C1762.94 2238.5 1742.82 2177.02 1785.07 2172.64C1757.93 2081.79 1732.95 1990.26 1712.16 1897.72L1711.61 1895.11C1702.43 1852.36 1684.36 1802.29 1714.87 1764.37C1793.53 1684.81 1662.9 1595.88 1679.38 1499.49C1665.15 1510.04 1643.61 1498.94 1643.93 1481.22C1643.29 1461.26 1670.08 1451.04 1682.98 1466.27C1696.24 1388.07 1742.37 1319.8 1756.33 1241.83L1756.96 1238.17C1761.69 1210.61 1763.02 1181.62 1776.55 1156.5C1758.13 1168.47 1738.51 1178.14 1718.34 1186.68C1754.41 1216.81 1684.55 1244.32 1690.33 1197.76C1492.49 1255.01 1447.77 1334.85 1375.13 1518.19C1388.7 1505.01 1411.94 1522.07 1403.82 1538.88C1397.34 1556.6 1369.07 1551.42 1369.08 1532.54L1365.77 1540.43C1321.72 1645.78 1281.63 1753.68 1261.48 1866.41C1301 1860.83 1290.94 1924 1255.13 1906.19C1240.76 2006.45 1240.53 2108.13 1242.29 2209.2C1275.63 2191.72 1276.63 2251.13 1242.61 2234.19C1243.86 2317.02 1245.68 2399.84 1247.05 2482.67C1247.33 2500.29 1220.14 2500.21 1219.71 2482.67C1216.54 2355.4 1210.75 2227.91 1213.5 2100.6C1210.91 1879.65 1274.42 1666.69 1369.05 1468.77C1452.77 1240.87 1568.43 1214.95 1781.21 1148.69C1800.85 1119.53 1842.81 1091.95 1877.05 1110.26C1896.2 1079.34 1905.93 1042.7 1920.1 1009.75ZM1555.55 1804.02C1556.34 1801.22 1560.35 1801.92 1560.48 1804.69C1562.26 1840.44 1560.67 1876.42 1558.23 1912.33C1556.74 1934.25 1554.92 1956.14 1553.38 1977.91C1549.28 2035.34 1545.98 2092.84 1543.47 2150.38C1544.35 2150.01 1545.25 2149.69 1546.2 2149.44C1550.53 2148.25 1554.86 2148.25 1559.19 2149.44C1563.05 2150.51 1566.43 2152.4 1569.34 2155.12L1569.95 2155.72C1572.33 2157.93 1574.03 2160.54 1575.01 2163.57C1576.42 2166.26 1577.13 2169.14 1577.13 2172.21L1577.11 2172.98C1577.09 2177.4 1576 2181.5 1573.77 2185.31C1571.61 2188.98 1568.69 2191.9 1565.02 2194.08C1561.21 2196.3 1557.11 2197.39 1552.69 2197.41C1552.22 2197.45 1551.75 2197.5 1551.28 2197.52C1548 2197.65 1544.93 2196.96 1542.1 2195.48L1541.67 2195.35V2195.35C1540.6 2224.54 1539.72 2253.75 1539.08 2282.96C1538.5 2308.42 1537.73 2333.87 1537.21 2359.33L1536.97 2372.06V2372.06L1536.51 2400.2C1536.35 2411.78 1536.43 2422.86 1532.49 2433.77L1532.02 2435.03C1529.19 2442.32 1526.99 2452.47 1519.41 2456.52C1513.37 2459.76 1505.22 2458.56 1501.75 2452.25C1498.83 2446.98 1501.36 2439.38 1505.67 2435.82C1505.58 2435.59 1505.46 2435.38 1505.35 2435.14C1504.68 2433.21 1503.67 2431.39 1503.08 2429.44C1501.19 2423.26 1501.7 2416.68 1501.68 2410.26C1501.68 2398.94 1502.07 2387.62 1502.37 2376.31C1503.03 2352.25 1503.8 2328.21 1504.75 2304.17C1507.93 2223.52 1513.93 2142.87 1520.81 2062.45L1523.14 2035.31C1526.25 1999.21 1529.46 1963.08 1534.02 1927.17C1534.23 1925.45 1534.45 1923.74 1534.68 1922.02C1532.24 1920.8 1529.96 1919.1 1528.16 1917.22C1520.94 1909.63 1516.56 1898.29 1512.45 1888.52L1511.5 1886.29C1507.04 1875.87 1502.93 1865.32 1500.8 1854.12L1500.6 1853.09C1499.63 1848.33 1497.72 1839.88 1502.78 1837.57C1505.41 1836.37 1507.08 1837.22 1507.94 1839.86C1508.05 1840.2 1507.96 1840.59 1507.77 1840.89C1509.85 1844.08 1513.11 1847.07 1515.17 1850.03L1522.21 1860.1V1860.1L1525.7 1865.17C1530.11 1871.67 1534.83 1877.88 1539.7 1884.02C1543.54 1857.08 1548.23 1830.25 1555.55 1804.02ZM1844.46 2404.28C1853.28 2397.37 1867.62 2401.13 1867.62 2413.87C1867.62 2426.67 1853.25 2430.36 1844.46 2423.45L1844.03 2423.13V2423.13L1843.61 2422.79C1838.82 2419.05 1838.66 2409.31 1843.24 2405.25L1843.61 2404.95C1843.88 2404.71 1844.16 2404.49 1844.46 2404.28ZM1460.55 2379.38L1461.31 2379.4C1465.29 2379.4 1469 2380.41 1472.46 2382.43C1473.96 2383.56 1475.44 2384.72 1476.94 2385.88C1479.68 2388.62 1481.57 2391.88 1482.62 2395.64L1483.41 2401.51V2401.51C1483.52 2404.56 1482.9 2407.39 1481.5 2410.03C1480.6 2412.77 1479.08 2415.15 1476.94 2417.15C1474.92 2419.31 1472.56 2420.84 1469.82 2421.71C1467.4 2422.99 1464.82 2423.64 1462.06 2423.64L1461.31 2423.62C1457.3 2423.62 1453.59 2422.62 1450.13 2420.6C1448.63 2419.46 1447.15 2418.3 1445.65 2417.15C1442.93 2414.4 1441.02 2411.14 1439.97 2407.39C1439.71 2405.44 1439.46 2403.46 1439.18 2401.51C1439.07 2398.47 1439.71 2395.64 1441.08 2393C1441.99 2390.25 1443.51 2387.87 1445.65 2385.88C1447.67 2383.71 1450.03 2382.19 1452.77 2381.31C1455.19 2380.03 1457.79 2379.39 1460.55 2379.38V2379.38ZM2464.3 2338.61L2469.92 2339.36V2339.36C2475.3 2340.58 2479.63 2344.55 2482.53 2349.08C2484.07 2351.5 2484.91 2354.12 2485.03 2356.93C2485.66 2359.71 2485.53 2362.52 2484.65 2365.33C2484 2368.08 2482.74 2370.48 2480.87 2372.52C2480.23 2373.53 2479.48 2374.45 2478.62 2375.26C2476.86 2378.2 2474.21 2380.13 2471.46 2382.1C2469.15 2383.58 2466.64 2384.38 2463.93 2384.51C2462.15 2384.98 2460.35 2384.98 2458.55 2384.51C2455.87 2384.38 2453.36 2383.58 2451.05 2382.1C2449.68 2381.05 2448.31 2379.98 2446.95 2378.93C2445.75 2377.54 2444.64 2376.1 2443.59 2374.6C2442.88 2372.95 2442.19 2371.31 2441.51 2369.69C2440.24 2365.76 2440.86 2362.29 2441.55 2358.36C2441.66 2357.7 2441.83 2357.1 2442.07 2356.45L2442.53 2355.21C2443.76 2351.95 2444.42 2350.84 2446.61 2348.01L2447.44 2346.89C2447.86 2346.33 2448.29 2345.79 2448.78 2345.3C2450.15 2343.89 2452.1 2342.71 2453.64 2341.49C2456.94 2339.58 2460.5 2338.63 2464.3 2338.61ZM1736.3 2324.88L1737.01 2324.89C1740.12 2324.91 1743.04 2325.68 1745.74 2327.25L1749.26 2329.97V2329.97C1751.4 2332.13 1752.88 2334.66 1753.72 2337.61C1753.91 2339.15 1754.13 2340.69 1754.34 2342.21C1754.42 2344.6 1753.93 2346.82 1752.84 2348.91C1752.15 2351.05 1750.95 2352.89 1749.26 2354.48C1747.69 2356.15 1745.83 2357.36 1743.68 2358.06C1741.81 2359.04 1739.8 2359.55 1737.66 2359.56L1737.01 2359.54C1733.88 2359.54 1730.97 2358.75 1728.26 2357.18L1724.75 2354.48V2354.48C1722.6 2352.32 1721.12 2349.76 1720.29 2346.82C1720.1 2345.28 1719.88 2343.76 1719.67 2342.21C1719.58 2339.83 1720.07 2337.61 1721.17 2335.54C1721.87 2333.4 1723.05 2331.53 1724.75 2329.97C1726.31 2328.27 1728.18 2327.07 1730.32 2326.39C1732.2 2325.4 1734.17 2324.91 1736.3 2324.88V2324.88ZM1594.79 2317.79C1599.27 2317.74 1603.81 2319.01 1607.48 2321.6C1611.04 2324.13 1613.74 2326.86 1615.48 2330.95C1615.95 2332.07 1616.42 2333.16 1616.83 2334.28C1618.67 2339.19 1619.02 2344.12 1616.47 2348.93C1614 2353.58 1608.68 2355.62 1603.92 2357.01C1599.89 2358.21 1595.32 2358.41 1591.31 2356.97C1589.32 2356.26 1587.37 2355.51 1585.57 2354.42C1582.2 2352.34 1580.38 2349.87 1578.13 2346.82C1576.37 2343.82 1575.49 2340.56 1575.49 2337.09C1575.49 2333.59 1576.37 2330.35 1578.13 2327.33C1581.58 2321.43 1587.97 2317.83 1594.79 2317.79ZM1367.49 2321.93C1373.16 2321.93 1378.13 2324.54 1381.54 2328.96C1384.99 2333.44 1386.26 2339.02 1384.73 2344.58C1383.13 2350.45 1378.26 2355.6 1372.23 2357.08C1367.77 2358.17 1364.13 2358.13 1359.69 2357.37C1355.94 2356.73 1353.06 2354.5 1350.19 2352.18C1346.91 2349.5 1345.9 2344.62 1346.44 2340.67C1346.95 2336.72 1348.78 2334.15 1351.54 2331.81L1351.56 2331.75L1350.53 2332.54C1350.92 2332.2 1351.3 2331.83 1351.69 2331.47C1351.82 2331.26 1351.93 2331.02 1352.03 2330.78C1353.62 2328.08 1355.76 2325.96 1358.44 2324.37C1361.25 2322.74 1364.26 2321.93 1367.49 2321.93ZM2687.48 2256.97C2690.58 2256.13 2693.72 2256.13 2696.82 2256.97C2699.12 2257.5 2701.11 2258.55 2702.81 2260.12C2704.53 2261.24 2705.93 2262.67 2706.99 2264.45L2707.33 2265.05C2709.78 2269.21 2710.16 2273.97 2709.11 2278.6C2707.81 2284.33 2702.53 2289.54 2696.82 2290.89L2696.63 2290.93V2290.93L2696.44 2290.98C2694.12 2291.71 2691.79 2291.82 2689.47 2291.28C2687.13 2291.17 2684.97 2290.49 2682.97 2289.2C2680.44 2287.57 2678.32 2285.47 2676.69 2282.94C2675.4 2280.92 2674.72 2278.76 2674.61 2276.42C2674.2 2274.87 2674.2 2273.33 2674.61 2271.79C2674.72 2269.45 2675.4 2267.28 2676.69 2265.27L2679.43 2261.73V2261.73L2679.72 2261.49V2261.49C2681.9 2259.3 2684.5 2257.8 2687.48 2256.97ZM2471.59 2143.47C2499.7 2143.47 2499.66 2187.09 2471.59 2187.09C2443.48 2187.09 2443.52 2143.47 2471.59 2143.47ZM1442.39 2137.96C1445.35 2137.3 1448.31 2137.43 1451.25 2138.35C1453.03 2139.1 1454.79 2139.85 1456.54 2140.58L1461.05 2144.05V2144.05C1461.88 2144.76 1462.29 2145.53 1463.06 2146.54L1464.03 2147.8C1465.42 2149.67 1465.46 2150.06 1466.99 2154.05C1468.02 2157.86 1468.02 2161.68 1466.99 2165.5C1466.49 2167.34 1465.74 2169.08 1464.78 2170.69C1463.9 2172.23 1462.84 2173.59 1461.65 2174.83L1461.05 2175.45C1459.03 2177.62 1456.65 2179.14 1453.91 2180.04C1452.17 2181.05 1450.3 2181.54 1448.31 2181.54C1445.35 2182.2 1442.39 2182.08 1439.46 2181.15C1437.68 2180.4 1435.92 2179.65 1434.16 2178.92L1429.66 2175.45L1426.18 2170.95L1425.07 2168.3V2168.3L1423.95 2165.65L1423.16 2159.75C1423.05 2156.68 1423.67 2153.85 1425.06 2151.19C1425.6 2149.33 1426.55 2147.68 1427.92 2146.3C1428.91 2144.63 1430.23 2143.3 1431.91 2142.32C1433.28 2140.94 1434.93 2140 1436.8 2139.46C1438.53 2138.45 1440.4 2137.96 1442.39 2137.96ZM2832.77 2106.8C2835.11 2106.72 2837.3 2107.21 2839.31 2108.28C2840.02 2108.52 2840.71 2108.82 2841.37 2109.16C2843.96 2110.68 2846.02 2112.74 2847.55 2115.32C2848.79 2117.29 2849.48 2119.41 2849.58 2121.7C2850.05 2123.77 2850.01 2125.86 2849.44 2127.93L2849.26 2128.55C2848.79 2130.24 2848.08 2131.81 2847.14 2133.24C2847.05 2133.41 2846.95 2133.59 2846.82 2133.74C2845.38 2136.01 2843.47 2137.88 2841.11 2139.27C2838.5 2140.77 2835.69 2141.54 2832.64 2141.57C2826.57 2141.57 2821.34 2138.28 2818.15 2133.24C2817.7 2132.53 2817.44 2131.63 2817.12 2130.91C2816.84 2130.22 2816.39 2129.34 2816.15 2128.55C2815.34 2125.5 2815.34 2122.46 2816.15 2119.41C2816.69 2117.18 2817.7 2115.23 2819.22 2113.58C2820.44 2111.71 2822.05 2110.23 2824.04 2109.16C2826.52 2107.72 2829.18 2106.95 2832 2106.82L2832.77 2106.8ZM1645.88 2085.46C1648.85 2084.65 1651.8 2084.59 1654.75 2085.28L1655.49 2085.46C1657.85 2086.02 1659.88 2087.09 1661.64 2088.68C1663.59 2089.97 1665.16 2091.66 1666.29 2093.76C1667.93 2096.57 1668.74 2099.62 1668.76 2102.87C1668.74 2106.14 1667.93 2109.18 1666.29 2111.99C1664.69 2114.71 1662.52 2116.86 1659.8 2118.47L1657.44 2119.6V2119.6C1655.47 2120.85 1653.37 2121.51 1651.09 2121.62C1649.57 2122.03 1648.05 2122.03 1646.55 2121.62C1645 2121.62 1643.56 2121.23 1642.24 2120.46C1640.78 2120.05 1639.53 2119.32 1638.46 2118.25C1636.6 2117.05 1635.14 2115.47 1634.07 2113.47L1632.33 2109.37V2109.37L1631.73 2104.83V2104.83L1632.33 2100.3V2100.3L1633.27 2098.07V2098.07C1634.13 2095 1635.68 2092.35 1637.93 2090.09C1640.18 2087.86 1642.84 2086.32 1645.88 2085.46ZM2709.26 2049.28C2712.39 2048.3 2715.5 2048.17 2718.61 2048.85C2720.71 2048.85 2722.68 2049.39 2724.51 2050.46C2726.5 2051.02 2728.22 2052 2729.68 2053.47C2732.23 2055.11 2734.22 2057.3 2735.7 2060.03L2738.06 2065.63V2065.63C2739.47 2069.25 2738.96 2074.59 2738.1 2078.24C2737.4 2081.24 2736.02 2083.85 2733.99 2086.08C2732.96 2087.82 2731.58 2089.19 2729.85 2090.22C2727.86 2092.03 2725.57 2093.32 2722.97 2094.08L2722.26 2094.27L2722 2094.34C2721.95 2094.36 2721.91 2094.36 2721.87 2094.36C2721.85 2094.38 2721.8 2094.38 2721.78 2094.38C2720.76 2094.64 2719.71 2094.79 2718.61 2094.83C2715.5 2095.52 2712.39 2095.39 2709.26 2094.41C2707.42 2093.63 2705.55 2092.84 2703.69 2092.05C2702.1 2090.85 2700.53 2089.62 2698.95 2088.4C2697.73 2086.81 2696.5 2085.22 2695.28 2083.66C2693.56 2080.98 2692.64 2078.06 2692.52 2074.95C2691.96 2072.87 2691.96 2070.82 2692.52 2068.73C2692.52 2066.61 2693.05 2064.66 2694.1 2062.84C2695.05 2059.92 2696.65 2057.41 2698.95 2055.29C2700.53 2054.06 2702.1 2052.84 2703.69 2051.64C2705.55 2050.85 2707.42 2050.06 2709.26 2049.28ZM1341.66 1972.5C1344.89 1971.63 1348.13 1971.63 1351.37 1972.5L1355.72 1974.33V1974.33C1357.87 1975.49 1359.56 1977.05 1360.85 1979.05C1362.48 1980.8 1363.57 1982.88 1364.13 1985.27C1365.39 1988.53 1365.24 1993.69 1364.24 1997.02C1363.1 2000.79 1361.34 2003.79 1358.62 2006.63C1354.09 2011.3 1347.14 2012.65 1340.99 2011.24C1339.3 2010.85 1337.69 2010.1 1336.23 2009.18C1331.58 2006.3 1328.45 2001.29 1328.47 1995.73C1328.47 1995.13 1328.51 1994.53 1328.6 1993.93C1328.3 1992.71 1328.19 1991.44 1328.23 1990.11L1328.88 1985.27V1985.27L1328.92 1985.14C1329.78 1982.07 1331.32 1979.41 1333.57 1977.16C1335.65 1975.1 1338.08 1973.61 1340.85 1972.72L1341.55 1972.5H1341.66ZM2959.69 1490.93C2953.83 1442.9 2931.81 1391.23 2864.63 1419.43L2859.64 1421.3C2843.02 1427.59 2823.65 1435.86 2813.54 1450.4C2806.57 1460.41 2808.93 1479.82 2807.96 1491.51C2803.58 1529.51 2805.93 1567.46 2810.5 1605.3C2816.39 1694 2797.74 1785.9 2760.62 1866.52C2797.77 1926.64 2847.49 1982.72 2915.32 2007.78C2918.19 1939.42 2931.57 1872.32 2945.82 1805.61L2946.38 1802.7C2952.07 1772.62 2954.92 1741.75 2974.68 1716.74C3014.85 1673.11 3070.12 1697.8 3096.56 1627.72C3091 1624.91 3094.07 1615.3 3100.76 1617.15C3123.95 1621.26 3127.72 1578.26 3111.85 1567.9C3095.31 1557.82 3111.96 1539.21 3104.92 1525.78C3101 1519.99 3092.53 1519.8 3088.69 1513.13C3078.51 1488.57 3129.44 1472.84 3069.55 1445.16C3057.29 1440.8 3043.59 1443.5 3031.22 1443.45C3013.03 1445.15 2998.58 1457.97 2981.95 1462C3000.06 1508.9 2954.36 1554.06 2913.12 1516.6C2890.67 1537.82 2865.57 1586.18 2920.13 1563.64C2946.83 1545.81 2969.82 1522.77 3000.82 1511.8L3001.47 1511.59C3012.98 1507.82 3063.33 1483.35 3060.84 1504.53C3041.98 1522.74 3010.87 1522.52 2989.02 1537.3C2958.74 1551.31 2939.38 1585.25 2903.12 1584.78C2894.77 1635.54 2952.35 1604.65 2973.8 1590.65L2979.74 1587.43C3009.99 1571.09 3040.7 1555.94 3075.97 1555.74C3085.71 1555.68 3085.66 1570.69 3075.97 1570.82C3030 1571.11 2992.58 1599.85 2954.07 1621.22C2950.28 1650.84 2993.66 1637.87 3010.12 1633.5C3027.38 1631.08 3055.1 1612.41 3070.21 1622.27C3076.11 1637.45 3050.11 1636.32 3041.06 1640.93C3082.39 1660.78 3046.18 1673.28 3035.1 1642.77L3031.86 1643.88C3004.19 1653.18 2937.09 1672.32 2945.07 1625.44C2934.94 1629.92 2922.59 1632.61 2911.4 1630.12C2883.49 1671.4 2838.98 1655.43 2903.68 1627.29C2889.1 1620.5 2884.23 1594.31 2898.24 1584.57C2847.3 1581.46 2885.12 1528.01 2906.2 1510.2C2904.21 1508.19 2902.28 1506.14 2900.48 1504.06C2888.33 1509.85 2875.55 1513.37 2861.89 1514.61C2848.81 1515.79 2845.9 1493.53 2858.8 1491.7C2872.63 1489.75 2885.37 1486.06 2897.55 1479.11C2916.01 1471.14 2922.31 1505.4 2940.78 1506.61C2950.85 1508.6 2957.67 1499.77 2959.69 1490.93ZM2530.88 1932.91C2535.34 1932.91 2539.31 1934.78 2542.54 1937.74C2545.78 1940.7 2547.18 1945.14 2547.37 1949.39C2547.45 1951.66 2546.98 1953.78 2545.95 1955.75C2545.29 1957.79 2544.15 1959.55 2542.54 1961.05C2539.54 1964.03 2535.1 1965.88 2530.88 1965.88C2526.42 1965.88 2522.45 1964.01 2519.21 1961.05C2515.98 1958.07 2514.58 1953.65 2514.39 1949.39C2514.3 1947.13 2514.78 1945.01 2515.8 1943.04C2516.4 1941.2 2517.38 1939.58 2518.75 1938.19L2519.21 1937.74C2522.22 1934.74 2526.65 1932.91 2530.88 1932.91ZM2666.03 1831.2L2666.74 1831.22C2670.51 1831.24 2674.01 1832.18 2677.27 1834.07C2678.68 1835.16 2680.1 1836.24 2681.49 1837.33C2684.09 1839.95 2685.87 1843.01 2686.85 1846.55C2687.86 1850.24 2687.86 1853.95 2686.85 1857.64C2686.51 1859.76 2685.72 1861.82 2684.47 1863.6C2682.63 1866.67 2680.19 1869.14 2677.1 1870.96C2673.9 1872.82 2670.45 1873.74 2666.74 1873.77C2663.03 1873.74 2659.58 1872.82 2656.38 1870.96C2653.3 1869.14 2650.85 1866.67 2649.03 1863.6C2647.76 1861.82 2646.97 1859.76 2646.63 1857.64C2645.62 1853.95 2645.62 1850.24 2646.63 1846.55C2647.54 1843.26 2649.14 1840.39 2651.44 1837.9L2651.99 1837.33C2653.87 1835.29 2656.1 1833.86 2658.7 1833.02C2660.98 1831.82 2663.42 1831.21 2666.03 1831.2ZM1634.64 1832.35C1636.23 1831.92 1637.8 1831.92 1639.38 1832.35C1641.74 1832.46 1643.95 1833.17 1645.99 1834.46C1647.19 1835.4 1648.39 1836.32 1649.59 1837.24L1650.64 1838.5C1652.88 1841.23 1652.93 1841.69 1654.65 1845.84C1655.36 1848.16 1655.47 1850.48 1654.95 1852.79C1654.95 1854.36 1654.54 1855.82 1653.77 1857.17C1653.34 1858.65 1652.62 1859.93 1651.52 1861.01C1650.75 1862.31 1649.72 1863.36 1648.41 1864.14C1646.74 1865.66 1644.77 1866.71 1642.49 1867.25L1637.88 1867.87V1867.87C1637.28 1867.78 1636.66 1867.7 1636.06 1867.63C1635.34 1867.61 1634.63 1867.53 1633.95 1867.4L1633.25 1867.25V1867.25L1632.62 1867.08C1631.78 1866.83 1630.96 1866.5 1630.16 1866.09C1628.66 1865.66 1627.36 1864.91 1626.24 1863.79C1624.31 1862.55 1622.77 1860.88 1621.65 1858.8L1621.35 1858.11V1858.11C1620.94 1857.38 1620.6 1856.63 1620.34 1855.82C1619.61 1854.53 1619.25 1853.16 1619.23 1851.68C1618.8 1849.71 1618.83 1847.76 1619.34 1845.81L1619.53 1845.16L1621.18 1841.23C1622.04 1839.9 1622.94 1838.55 1624.09 1837.46C1624.79 1836.84 1626.49 1835.51 1627.45 1834.85L1628.04 1834.46V1834.46C1630.08 1833.17 1632.29 1832.46 1634.64 1832.35ZM1376.13 1801.69C1379.22 1789.53 1395.18 1785.69 1403.86 1794.37C1412.54 1803.06 1408.71 1819.02 1396.55 1822.1L1395.15 1822.45V1822.45C1383.4 1825.43 1372.81 1814.81 1375.79 1803.06L1376.13 1801.69V1801.69ZM2847.89 1702.5C2847.8 1701.3 2849.34 1700.87 2850.12 1701.58C2860.45 1710.84 2867.03 1721.95 2879.58 1729.13C2892.19 1736.34 2905.18 1735.76 2918.32 1740.41C2922.78 1742 2922.81 1747.97 2918.32 1749.53C2893.45 1758.22 2849.77 1728.77 2847.89 1702.5ZM1679.16 1700.61C1681.93 1699.75 1684.72 1699.63 1687.48 1700.25C1689.37 1700.25 1691.13 1700.72 1692.73 1701.66C1694.51 1702.16 1696.04 1703.06 1697.34 1704.34C1698.91 1705.27 1700.16 1706.53 1701.1 1708.09C1702.94 1710.11 1704.19 1712.47 1704.83 1715.17L1705.56 1720.73V1720.73L1704.83 1726.28V1726.28C1704.12 1727.93 1703.41 1729.61 1702.73 1731.26L1700.81 1733.85C1699.26 1735.93 1699.01 1735.95 1695.24 1738.74C1692.84 1740.26 1690.25 1741.1 1687.48 1741.21C1685.64 1741.72 1683.79 1741.72 1681.93 1741.21C1680.06 1741.21 1678.3 1740.74 1676.68 1739.79C1674.92 1739.3 1673.37 1738.4 1672.06 1737.11C1669.79 1735.63 1668.01 1733.68 1666.7 1731.26C1666 1729.61 1665.29 1727.93 1664.6 1726.28L1663.85 1720.73V1720.73L1664.6 1715.17V1715.17L1664.64 1715V1715C1665.63 1711.53 1667.39 1708.5 1669.92 1705.95L1674.08 1702.73V1702.73C1675.71 1701.68 1677.4 1701.15 1679.16 1700.61ZM2680.12 1704.77C2686.06 1703.14 2692.58 1704.86 2696.93 1709.21C2701.29 1713.57 2703 1720.06 2701.37 1726C2699.76 1731.79 2695.11 1736.49 2689.3 1738.06C2687.56 1738.53 2685.8 1738.79 2684.02 1738.7C2681.04 1738.68 2678.26 1737.93 2675.66 1736.43L2672.32 1733.83V1733.83C2670.68 1732.33 2669.55 1730.55 2668.88 1728.49C2667.83 1726.52 2667.36 1724.4 2667.45 1722.1L2667.43 1721.69C2667.36 1720.88 2667.47 1720.06 2667.73 1719.27C2667.73 1718.43 2667.86 1717.62 2668.07 1716.82C2669.64 1711.03 2674.35 1706.36 2680.12 1704.77ZM1399.66 1646.7C1401.57 1646.63 1403.35 1647.02 1405 1647.9C1406.73 1648.45 1408.21 1649.4 1409.46 1650.77C1410.83 1652.01 1411.77 1653.51 1412.33 1655.23C1413.21 1656.88 1413.6 1658.66 1413.53 1660.57C1413.53 1663.08 1412.89 1665.42 1411.64 1667.56C1410.92 1668.51 1410.19 1669.45 1409.46 1670.37C1407.74 1672.11 1405.7 1673.29 1403.35 1673.95L1401.97 1674.42V1674.42C1399.96 1675.15 1397.99 1675.2 1395.88 1674.92C1393.68 1674.62 1391.64 1674.02 1389.84 1672.64C1388.08 1671.62 1386.69 1670.22 1385.66 1668.46L1384.48 1665.67V1665.67C1384.22 1664.73 1384.11 1663.32 1384.05 1662.33C1384.05 1662.18 1384.05 1662.05 1384.03 1661.9C1384.03 1661.06 1384.28 1659.03 1384.5 1658.19C1384.97 1656.43 1385.93 1654.76 1387.03 1653.34C1387.97 1651.87 1389.26 1650.71 1390.85 1649.85L1390.99 1649.74V1649.74L1391.15 1649.63C1391.64 1649.29 1392.15 1648.95 1392.67 1648.58C1394.81 1647.34 1397.15 1646.7 1399.66 1646.7ZM2506.93 1631.47C2510.36 1631.47 2513.56 1632.35 2516.52 1634.06C2516.62 1634.1 2516.73 1634.15 2516.81 1634.19C2519.65 1635.86 2521.9 1638.12 2523.57 1640.95C2525.29 1643.89 2526.14 1647.06 2526.14 1650.45C2526.14 1653.86 2525.29 1657.01 2523.57 1659.95C2521.9 1662.78 2519.65 1665.03 2516.81 1666.71C2516.73 1666.77 2516.62 1666.81 2516.52 1666.85C2513.56 1668.57 2510.36 1669.43 2506.93 1669.45C2503.52 1669.43 2500.33 1668.57 2497.37 1666.85C2491.58 1663.47 2487.95 1657.14 2487.95 1650.45C2487.95 1643.75 2491.58 1637.43 2497.37 1634.06C2500.33 1632.35 2503.52 1631.47 2506.93 1631.47ZM1616.46 1606.67L1617.04 1606.66C1619.32 1606.57 1621.44 1607.04 1623.39 1608.09C1625.43 1608.76 1627.21 1609.9 1628.71 1611.5L1631.84 1614.12V1614.12L1632.75 1614.85C1632.9 1614.98 1633.04 1615.11 1633.19 1615.24C1635.29 1617.36 1636.73 1619.84 1637.54 1622.72C1637.8 1624.37 1638.01 1626 1638.19 1627.65C1638.66 1631.94 1636.13 1636.34 1633.34 1639.38C1631.84 1640.99 1630.06 1642.13 1628 1642.81C1626.03 1643.84 1623.88 1644.31 1621.61 1644.23C1616.96 1643.82 1612.54 1642.83 1609.2 1639.23C1608.81 1638.8 1608.44 1638.35 1608.06 1637.9L1605.38 1634.81V1634.81C1603.34 1632.76 1601.92 1630.33 1601.15 1627.54C1600.94 1626.06 1600.75 1624.61 1600.55 1623.15C1600.36 1618.75 1602.5 1614.63 1605.38 1611.5C1608.03 1608.6 1612.54 1606.83 1616.46 1606.67ZM1508.22 1561.51C1530.52 1561.51 1530.48 1596.11 1508.22 1596.11C1485.94 1596.11 1485.98 1561.51 1508.22 1561.51ZM2629.41 1513.01L2630.12 1513.02C2633.81 1513.04 2637.26 1513.97 2640.45 1515.83L2644.61 1519.03V1519.03C2647.14 1521.6 2648.9 1524.6 2649.89 1528.08C2650.12 1529.9 2650.36 1531.72 2650.62 1533.52C2650.72 1536.36 2650.12 1538.99 2648.84 1541.44C2648.02 1543.97 2646.61 1546.18 2644.61 1548.04C2642.75 1550.04 2640.56 1551.45 2638.01 1552.27C2635.56 1553.56 2632.93 1554.16 2630.12 1554.05C2626.41 1554.03 2622.95 1553.1 2619.76 1551.24C2618.37 1550.17 2616.99 1549.09 2615.6 1548.04C2613.27 1545.67 2611.59 1542.93 2610.58 1539.79L2610.35 1538.99L2609.6 1533.52C2609.49 1530.72 2610.09 1528.08 2611.37 1525.63C2612.19 1523.08 2613.61 1520.89 2615.6 1519.03C2617.47 1517.03 2619.68 1515.62 2622.21 1514.8C2624.44 1513.62 2626.85 1513.02 2629.41 1513.01ZM2528.97 1448.26C2530.96 1448.19 2532.81 1448.6 2534.55 1449.5C2536.33 1450.08 2537.87 1451.08 2539.18 1452.48C2541.95 1454.69 2543.64 1459.11 2543.64 1462.69C2543.64 1466.27 2541.95 1470.69 2539.18 1472.89C2537.38 1474.67 2535.25 1475.92 2532.81 1476.61L2528.97 1477.12V1477.12C2525.24 1477.29 2521.44 1475.34 2518.79 1472.89C2518.25 1472.4 2517.73 1471.91 2517.2 1471.44C2514.78 1469.21 2513.73 1465.88 2513.57 1462.69C2513.51 1460.99 2513.88 1459.41 2514.65 1457.93C2515.14 1456.38 2516 1455.07 2517.2 1453.94C2517.73 1453.46 2518.25 1452.97 2518.79 1452.48C2521.68 1449.8 2525.07 1448.45 2528.97 1448.26ZM3165.34 1332.9C3179.43 1315.73 3171.23 1303.51 3150.06 1307.76C3113.58 1312.69 3079.25 1335.75 3047.13 1352.28C3012.07 1370.8 2975.94 1386.08 2940.17 1403.48C2954.93 1412.54 2965.9 1426.73 2974.29 1442.91C2991.02 1430.2 3012.42 1424.13 3033.3 1423.33C3071.19 1387.04 3133.93 1378.73 3165.34 1332.9ZM1500.72 1389.88C1504.54 1389.9 1508.12 1390.8 1511.47 1392.59L1512.19 1392.99L1516.78 1396.55C1519.01 1398.61 1520.57 1401.05 1521.49 1403.86C1522.91 1406.56 1523.55 1409.5 1523.45 1412.63C1523.55 1415.76 1522.91 1418.68 1521.49 1421.38C1520.57 1424.21 1519.01 1426.64 1516.78 1428.7C1515.51 1430.35 1513.88 1431.63 1511.93 1432.58C1510.11 1433.33 1508.31 1434.1 1506.48 1434.87C1504.45 1435.52 1502.09 1435.6 1499.88 1435.71C1495.87 1435.69 1492.14 1434.68 1488.66 1432.66L1484.16 1429.19V1429.19C1482 1427.17 1480.45 1424.79 1479.55 1422.03C1478.27 1419.59 1477.63 1416.99 1477.63 1414.21L1477.64 1413.45C1477.64 1413.28 1477.64 1413.08 1477.67 1412.89C1477.92 1410.87 1478.2 1408.86 1478.48 1406.84C1479.19 1403.88 1480.54 1401.29 1482.55 1399.1C1483.07 1398.07 1483.76 1397.23 1484.64 1396.55C1487.47 1393.72 1490.81 1391.79 1494.67 1390.69C1496.69 1390.44 1498.7 1390.15 1500.72 1389.88ZM2495.64 1333.06L2496.29 1333.07C2499.19 1333.07 2501.87 1333.8 2504.36 1335.23C2505.45 1336.07 2506.52 1336.91 2507.59 1337.74C2509.59 1339.74 2510.96 1342.1 2511.71 1344.8L2512.29 1349.04V1349.04C2512.35 1351.25 2511.9 1353.29 2510.9 1355.2C2510.25 1357.17 2509.16 1358.89 2507.59 1360.35C2506.16 1361.91 2504.44 1363.01 2502.45 1363.65C2500.56 1364.66 2498.5 1365.11 2496.29 1365.02C2493.42 1365.02 2490.72 1364.29 2488.23 1362.83C2487.16 1362.02 2486.06 1361.18 2484.99 1360.35C2483.18 1358.52 2481.88 1356.38 2481.1 1353.96L2480.9 1353.29L2480.32 1349.04C2480.23 1346.84 2480.68 1344.8 2481.69 1342.89C2482.33 1340.9 2483.45 1339.18 2484.99 1337.74C2486.45 1336.18 2488.17 1335.08 2490.14 1334.44C2491.86 1333.53 2493.7 1333.08 2495.64 1333.06V1333.06ZM1626.05 1309.83L1626.8 1309.84C1631.07 1309.86 1635.03 1310.93 1638.72 1313.08C1640.31 1314.3 1641.9 1315.53 1643.48 1316.77C1646.42 1319.71 1648.43 1323.18 1649.57 1327.19L1650.41 1333.45V1333.45C1650.54 1336.71 1649.85 1339.74 1648.37 1342.55C1647.43 1345.49 1645.8 1348.01 1643.48 1350.16C1641.36 1352.46 1638.83 1354.08 1635.89 1355.03C1633.08 1356.51 1630.06 1357.2 1626.8 1357.07C1622.53 1357.07 1618.56 1355.99 1614.88 1353.85C1613.29 1352.63 1611.71 1351.38 1610.1 1350.16C1607.18 1347.2 1605.16 1343.73 1604.03 1339.74L1603.19 1333.45V1333.45C1603.06 1330.21 1603.75 1327.17 1605.23 1324.36C1606.17 1321.45 1607.8 1318.89 1610.1 1316.77C1612.24 1314.45 1614.77 1312.82 1617.71 1311.88C1620.3 1310.51 1623.08 1309.84 1626.05 1309.83ZM2420.02 1250.87C2421.98 1250.35 2423.93 1250.35 2425.88 1250.87C2428.79 1250.99 2431.52 1251.87 2434.05 1253.48L2438.49 1256.91V1256.91C2438.55 1256.98 2438.62 1257.04 2438.68 1257.13C2441.36 1259.83 2443.22 1263.03 2444.25 1266.69L2445.03 1272.46V1272.46C2445.13 1275.44 2444.51 1278.23 2443.16 1280.8C2442.36 1283.28 2441.03 1285.43 2439.19 1287.29L2438.49 1287.99C2436.49 1290.13 2434.15 1291.65 2431.43 1292.53C2429.72 1293.54 2427.85 1294.04 2425.88 1294.04C2422.96 1294.7 2420.02 1294.57 2417.11 1293.65C2415.37 1292.9 2413.61 1292.17 2411.86 1291.44L2411.3 1291.12C2404.67 1287.5 2400.57 1279.9 2400.57 1272.46C2400.57 1265.02 2404.67 1257.4 2411.3 1253.78C2411.49 1253.7 2411.66 1253.59 2411.86 1253.48C2414.39 1251.87 2417.11 1250.99 2420.02 1250.87Z" fill="black"/>
<path fill-rule="evenodd" clip-rule="evenodd" d="M2540.29 892.8C2531.98 880.509 2511.96 791.312 2499.18 777.593C2500.14 724.901 2514.71 542.467 2473.1 460.459C2481.86 451.609 2505.11 375.381 2499.18 346.564C2518.78 286.215 2392.86 190.364 2344.94 164.463C2122.22 45.0341 1799.48 176.864 1698.19 398.105C1637.32 531.344 1636.2 680.521 1629.32 823.888C1628.51 854.576 1625.69 885.503 1625.72 916.153C1630.12 943.087 1651.48 970.515 1635.29 992.911C1617.4 1005.28 1581.26 1035.41 1597.35 1052.5C1606.78 1060.35 1621.85 1055.8 1632.08 1063.35C1637.29 1066.26 1640.54 1072.65 1646.64 1073.62C1702.3 1071.51 1741.57 1071.33 1797.41 1069.07C1821.85 1068.27 1859.07 1078.61 1887.12 1058.03C1985.12 1112.54 1944.13 1033.46 1963.95 977.155C2024.29 997.559 2144.5 1062.62 2208.82 1064.72C2261.09 1071.18 2309.97 1040.74 2361.36 1047.67C2425.2 1071.39 2500.02 1076.66 2558.49 1036.54C2573.09 1026.03 2589.32 1038.2 2607.71 1026.85C2643.46 1009.76 2558.33 911.765 2540.29 892.8Z" fill="white"/>
<path fill-rule="evenodd" clip-rule="evenodd" d="M2467.33 453.461C2466.54 448.909 2472.81 445.514 2475.24 450.127C2492.86 483.635 2499.92 522.442 2506.16 559.455C2512.47 596.857 2516.63 634.414 2516.86 672.382C2517.04 701.588 2514.39 731.132 2509.41 760.359L2510.01 762.439V762.439C2511.13 766.259 2512.26 770.077 2513.4 773.891L2515.12 779.611C2518.45 790.594 2521.6 801.627 2525.01 812.583C2532.14 835.448 2539.65 858.379 2548.85 880.506C2557.82 902.098 2568.74 922.921 2581.71 942.384C2594.21 961.145 2614.05 977.01 2622.86 997.847C2625.93 1005.11 2621.39 1014.71 2612.91 1013.55C2612.36 1014.21 2611.52 1014.69 2610.38 1014.8C2603.8 1015.37 2597.63 1014.82 2591.06 1014.21C2587.39 1013.86 2587.4 1008.85 2591.06 1008.51C2593.85 1008.24 2596.56 1008.01 2599.28 1007.86C2580.49 996.724 2567.09 974.986 2556.37 957.191C2542.6 934.328 2532.2 909.347 2523.72 884.085C2515.01 858.148 2508.85 831.67 2503.89 804.785C2503.32 801.69 2502.78 798.593 2502.26 795.492C2496 822.107 2487.94 848.234 2478.38 873.345L2477.05 876.841C2455.02 933.942 2425.18 991.593 2375.56 1029.34C2373.31 1031.05 2371.01 1032.67 2368.69 1034.26L2371.52 1035.88C2374.33 1037.48 2377.09 1039.02 2379.8 1040.29C2389.83 1044.96 2400.71 1048.53 2411.48 1051.06C2433.72 1056.28 2457.07 1054.78 2479.76 1055.51C2487.2 1055.75 2491.43 1066.91 2483.83 1070.53C2458.77 1082.46 2431.7 1079.93 2405.84 1071.53C2393.04 1067.38 2381.03 1061.56 2369.92 1053.96C2365.32 1050.82 2359.99 1046.95 2355.48 1042.47C2305.86 1070.23 2244.18 1073.34 2188.95 1063.41C2160.25 1058.25 2132.43 1048.82 2107.96 1032.7C2084.42 1017.2 2067.64 997.568 2055.66 972.137C2054.6 969.883 2057.56 967.075 2059.37 969.279C2097 1014.98 2161.75 1034.05 2218.71 1037.67C2249.11 1039.61 2280.2 1038 2309.42 1028.91C2337.15 1020.28 2360.93 1004.46 2380.79 983.422C2421.05 940.78 2445.17 882.77 2462.49 827.564C2481.34 767.507 2490.31 704.318 2492.16 641.466C2493.1 609.622 2491.92 577.51 2486.92 546.019C2481.96 514.787 2472.75 484.56 2467.33 453.461ZM1903.19 182.913C1905.86 181.559 1907.74 185.083 1905.48 186.817C1858.56 222.8 1816.54 268.426 1782.53 316.716C1719.81 405.781 1679.58 508.846 1661.06 615.94C1650.12 679.185 1647.27 743.388 1648.36 807.476C1648.79 832.934 1650.25 858.315 1651.86 883.703L1653.69 911.846C1654.54 924.957 1655.25 937.957 1654.7 951.133L1654.55 954.177C1653.68 969.508 1655.19 984.963 1651.34 999.92C1649.37 1007.59 1638.55 1008.8 1634.64 1002.1C1633.87 1000.79 1633.15 999.44 1632.45 998.075C1623.28 1013.05 1611.39 1026.43 1598.2 1038.39C1604.5 1037.04 1610.87 1036.19 1617.4 1036.97C1627.76 1038.21 1637.06 1042.21 1643.63 1049.22C1650.16 1046.28 1656.87 1044.26 1664.59 1044.21C1670.27 1044.18 1674.53 1050.9 1671.29 1055.9C1664.82 1065.86 1655.79 1071.45 1645.53 1076.97C1638.26 1080.88 1629.58 1077.53 1626.9 1069.8L1626.75 1069.33C1623.72 1059.54 1607.65 1061.12 1600.07 1062.63L1597.84 1063.09C1583.73 1066.03 1569.95 1069.79 1555.57 1065.91C1546.29 1063.41 1543.87 1049.45 1552.81 1044.81C1581.05 1030.18 1604.76 1010.52 1629.13 990.78C1623.75 977.589 1620.7 962.851 1617.17 949.438C1612.21 930.559 1610.77 910.245 1608.98 890.852C1605.57 853.98 1604.27 816.708 1604.64 779.692C1605.87 654.665 1627.26 529.251 1681.88 416.036C1705.8 366.441 1737.24 320.549 1774.4 279.929C1811.33 239.547 1854.47 207.659 1903.19 182.913ZM1859.47 795.199C1858.02 793.19 1860.85 790.534 1862.83 791.836C1905.77 820.044 1935.57 862.876 1954.8 909.93C1973.84 956.514 1985.53 1013.57 1966.75 1062.15C1963.77 1069.89 1949.45 1072.76 1947.99 1062.15C1941.45 1014.77 1940.43 967.327 1926.04 921.265C1911.77 875.604 1887.36 833.79 1859.47 795.199ZM1826.17 949.011C1826.4 948.175 1827.77 948.319 1827.71 949.221C1826.64 965.928 1825.91 982.839 1823.81 999.453C1822.78 1007.53 1821.43 1015.55 1820.28 1023.61C1819.11 1031.87 1819.28 1040.21 1814.48 1047.26C1808.11 1056.62 1791.2 1053.99 1791.77 1041.11C1792.16 1032.23 1796.24 1026.54 1800.07 1018.74C1802.52 1013.74 1804.65 1008.58 1806.71 1003.39L1809.78 995.608C1815.86 980.174 1821.68 964.999 1826.17 949.011ZM1749.27 904.754C1749.53 903.44 1751.65 903.756 1751.59 905.067C1750.44 928.714 1747.77 952.095 1743.6 975.397C1741.69 986.018 1739.47 996.579 1737.12 1007.11L1736.11 1011.62C1733.6 1022.71 1731.98 1035.75 1726.35 1045.66C1720.72 1055.57 1707.37 1048.37 1709.1 1038.39C1711.12 1026.74 1718.27 1015.02 1722.43 1003.82C1726.27 993.49 1729.62 982.974 1732.76 972.409C1739.36 950.168 1744.77 927.511 1749.27 904.754ZM1892.47 970.404L1892.97 969.891C1894.93 967.767 1897.84 969.183 1898.77 971.424C1902.59 980.61 1900.68 991.442 1900.41 1001.19L1900.36 1003.32C1900.15 1013.2 1900.3 1022.45 1895.82 1031.57C1890.38 1042.65 1876.05 1035.77 1874.94 1025.92C1873.72 1015.17 1878.81 1004.64 1882.09 994.575C1884.18 988.175 1885.7 981.52 1888.87 975.712C1886.16 976.18 1883.45 977.117 1880.97 977.794C1879.86 978.094 1879.44 976.463 1880.5 976.085C1884.6 974.633 1889.23 973.543 1892.47 970.404V970.404ZM2464.17 1003C2462.86 1001.54 2464.5 999.585 2466.2 1000.38C2486.62 1009.92 2505.72 1016.12 2528.26 1018.15C2538.02 1019.03 2538.08 1034.37 2528.26 1033.48C2504.74 1031.37 2480.09 1020.82 2464.17 1003ZM1745.66 680.743C1763.64 640.298 1820.52 604.42 1858.67 642.032C1859.38 642.735 1858.65 644.267 1857.62 643.838C1833.89 634.006 1804.85 646.511 1788.43 664.396C1775.4 678.583 1767.57 696.8 1766.02 716C1764.46 735.217 1769.06 755.275 1781.82 770.139C1788.52 777.937 1797.56 785.317 1808.2 786.254C1818.94 787.2 1827.89 779.635 1838.05 777.58C1845.7 776.033 1851.48 780.836 1852.23 788.383C1853.89 805.037 1837.3 816.215 1822.93 818.931C1807.47 821.849 1791.69 818.66 1778.37 810.281C1735.34 783.22 1726.05 724.857 1745.66 680.743ZM2149.39 284.323C2157.2 276.85 2170.5 284.279 2167.62 294.939C2161.48 317.626 2148.44 336.801 2134 355.001C2120.1 372.511 2105.21 389.337 2089.25 404.998C2073.39 420.556 2056.16 434.953 2038.06 447.812L2032.6 451.675C2019.77 460.72 2006.18 469.868 1991.82 476.383C1988.35 506.262 1981.56 535.742 1971.3 563.967C1961.41 591.145 1948.83 617.412 1933.59 641.992L1931.4 645.512C1917.39 667.961 1900.55 693.05 1876.78 705.356C1876.07 705.728 1875.35 705.954 1874.65 706.086C1879.96 709.632 1884.46 714.092 1887.13 720.499C1890.06 727.515 1883.94 734.135 1878.07 736.452C1865.67 741.352 1853.57 733.057 1842.42 724.208C1841.95 725.269 1841.51 726.341 1841.12 727.421C1838.63 734.487 1837.9 741.708 1831.47 746.396C1828.41 748.625 1824.65 746.631 1822.73 744.107C1816.43 735.825 1822.95 724.542 1828.49 717.773C1829.26 716.838 1830.05 715.949 1830.87 715.096C1828.53 713.374 1826.24 711.848 1824.03 710.676C1811.01 703.782 1791.71 702.559 1784.21 717.822C1783.64 718.994 1781.83 718.388 1781.83 717.176C1781.85 698.429 1801.06 688.247 1817.72 686.863C1829.9 685.852 1841.67 690.123 1852.63 695.095L1854.68 696.034C1858.76 697.928 1862.96 699.714 1866.98 701.712C1866.33 699.987 1866.34 697.957 1867.37 695.944C1879.97 671.33 1901.61 651.314 1917.22 628.518C1932.7 605.902 1945.99 581.699 1956.6 556.427C1966.89 531.897 1974.96 506.597 1980.6 480.792C1978.74 481.176 1976.65 479.522 1976.78 477.582C1977.09 472.89 1979.39 468.662 1983.42 466.861C1987.86 442.589 1990.13 417.906 1990 393.024C1989.99 391.095 1992.78 391.164 1992.94 393.024C1994.91 415.147 1995.07 437.486 1993.42 459.695C2003.9 450.045 2014.96 440.872 2025.06 430.967C2040.26 416.063 2054.96 400.761 2069.14 384.89C2083.61 368.699 2097.28 351.912 2109.79 334.15L2116.33 324.836C2126.39 310.556 2136.73 296.426 2149.39 284.323ZM2129.66 124.914C2215.95 119.527 2308.11 130.132 2385.63 170.64C2428.2 192.885 2461.1 226.506 2484.61 268.347C2498.65 293.332 2509.3 320.999 2513.33 349.444C2517.48 378.671 2512.61 404.732 2493.95 427.964C2486.54 437.19 2474.06 426.884 2475.88 417.444C2487.05 359.691 2468.93 302.629 2436.8 254.817C2390.16 185.435 2308.72 154.614 2229.43 140.866C2190.47 134.114 2150.96 131.292 2111.43 132.665C2081.3 133.714 2050.39 136.521 2021.79 146.659C2020.59 147.087 2020.11 145.208 2021.27 144.766C2055.38 131.738 2093.46 127.174 2129.66 124.914ZM2257.64 255.506C2262.08 252.69 2267.52 255.58 2269.04 260.149C2274.43 276.256 2263.14 297.536 2255.59 311.475C2247.05 327.249 2236.07 341.998 2224.72 355.852C2202.03 383.558 2172.2 406.677 2139.47 421.208C2137.47 422.099 2135.13 419.679 2136.97 417.968C2162.3 394.386 2185.26 369.103 2205.14 340.74C2214.9 326.803 2223.05 312.1 2230.83 296.997C2237.79 283.481 2244.34 263.94 2257.64 255.506ZM2402.77 274.481C2405.61 264.567 2421.78 266.255 2421.11 276.964C2419.38 304.626 2406.33 332.394 2392.15 355.838C2377.55 379.978 2359.06 401.491 2337.86 420.07C2336.82 420.986 2335.39 419.575 2336.33 418.542C2354.62 398.522 2369.39 375.717 2380.33 350.9C2391.26 326.118 2395.38 300.261 2402.77 274.481ZM2322.4 270.002C2325.5 261.382 2340.3 262.022 2339.39 272.302C2336.9 300.563 2320.31 330.179 2304.95 353.521C2288.65 378.286 2267.84 400.103 2244.59 418.426C2243.72 419.112 2242.49 417.975 2243.34 417.174C2264.23 397.496 2281.16 374.765 2294.57 349.411C2301.42 336.474 2307.16 323.002 2311.69 309.086C2315.88 296.212 2317.85 282.692 2322.4 270.002Z" fill="black"/>
<path fill-rule="evenodd" clip-rule="evenodd" d="M2236.91 831.425C2247.5 813.185 2270.08 857.869 2272.48 865.552C2274.6 872.358 2276 879.33 2276.72 886.383C2284.93 888.31 2293.46 888.314 2301.87 886.625C2314.38 884.113 2322.02 877.075 2332.89 871.032C2340.4 866.855 2349.86 871.753 2353.77 878.679C2358.36 886.831 2355.44 895.292 2349.4 901.37C2337.94 912.894 2315.4 915.541 2300.45 912.481C2291.88 910.728 2284.03 907.365 2277.1 902.478C2277.05 903.39 2277.02 904.302 2276.95 905.213L2276.82 906.792C2275.67 919.574 2272.32 935.646 2262.83 943.963C2247.28 957.606 2228.08 931.368 2243.2 917.741L2243.66 917.332C2253.06 909.386 2255.11 888.067 2254.6 876.324C2254.27 868.66 2252.94 860.897 2250.63 853.598L2250.15 852.144C2249.45 850.082 2241.87 830.523 2239.13 833.014L2239 833.154C2237.86 834.567 2236.04 832.921 2236.91 831.425ZM2321.48 728.495C2335.78 737.594 2357.57 758.81 2342.19 781.367C2324.08 801.256 2298.01 778.452 2285.16 768.138C2273.25 760.145 2259.87 780.703 2270.92 790.036C2363.75 861.983 2401.42 730.874 2328.72 717.797C2320.71 716.356 2317.74 725.68 2321.48 728.495ZM2168.79 644.395C2182.77 641.8 2197.08 645.438 2208.65 653.997L2209.52 654.657C2220.66 663.186 2233.13 678.163 2226.74 692.865C2224.17 698.768 2216.48 699.694 2211.61 697.018C2203.49 692.562 2202.02 681.598 2194.78 675.53C2188.84 670.557 2180.84 667.54 2173.19 668.267C2155.21 669.976 2144.16 688.532 2138.58 704.523C2137.86 706.569 2134.99 707.364 2133.87 705.167C2120.71 679.414 2144.01 648.998 2168.79 644.395ZM2392.64 634.676C2419.41 632.367 2450.74 661.419 2443.69 690.998C2440.31 705.192 2420.2 704.785 2416.63 690.998C2414.66 683.412 2414.85 676.7 2409.64 670.401C2405.33 665.199 2399.21 662.178 2392.64 662.642C2385.39 663.154 2378.7 666.946 2373.62 672.276C2369.03 677.089 2366.29 684.132 2361.54 688.392C2360.37 689.438 2358.8 689.506 2357.64 688.392C2349.46 680.496 2354.37 664.059 2359.56 655.817C2366.98 644.023 2379.07 635.848 2392.64 634.676ZM2117.81 591.931C2134.98 576.018 2166.19 560.649 2189.35 568.481C2202.66 572.983 2208.46 595.44 2193.6 602.558C2176.39 610.8 2156.55 607.446 2139.03 615.99C2131.67 619.58 2124.75 624.066 2119.63 630.645C2115.6 635.831 2111.49 642.654 2105.65 645.643C2104.12 646.43 2102.04 646.45 2100.81 644.991C2088.02 629.842 2106.64 602.281 2117.81 591.931ZM2363.12 567.693C2373.73 564.575 2385.51 564.638 2396.29 566.597C2407.07 568.555 2418.01 573.231 2426.81 580.052L2427.83 580.851C2437.44 588.429 2448.9 599.455 2448.29 612.879C2447.78 624.088 2436.51 631.671 2426.78 625.795C2418.86 621.004 2415.13 611.406 2408.41 605.015C2402.87 599.74 2396.37 595.581 2389.43 592.668C2381.71 589.43 2373.99 587.914 2365.72 587.769C2359.34 587.658 2352.93 589.847 2346.68 590.546C2347.2 591.653 2342.25 591.137 2339.42 590.156C2337.32 589.22 2337.31 586.443 2338.04 584.641C2341.65 575.715 2354.77 570.143 2363.12 567.693Z" fill="black"/>
<path fill-rule="evenodd" clip-rule="evenodd" d="M2539.12 573.462C2537.46 573.186 2535.81 572.927 2534.15 572.685C2532.86 571.952 2531.34 571.387 2529.58 571.048C2525.55 570.026 2521.54 569.337 2517.55 568.966C2460.19 556.074 2327.5 574.379 2322.03 623.265C2303.76 629.355 2287.96 623.902 2266.79 624.444C2250.67 557.172 1972.09 566.667 1958.69 607.225C1958.64 607.211 1958.59 607.199 1958.53 607.183C1945.66 603.203 1926.68 604.163 1911.95 603.533C1880.49 602.874 1848.99 605.675 1818.2 612.303C1760.56 621.452 1681.89 632.164 1721.98 704.06C1721.99 704.072 1721.99 704.086 1722 704.098L1722.01 704.092C1728.92 711.166 1740.64 705.469 1741.08 695.894C1727.6 661.834 1758.05 657.744 1781.47 647.956C1839.75 627.042 1899.09 624.143 1959.37 630.612C1963.9 635.945 1970.79 640.595 1978.06 643.028C2018.36 649.71 1997.12 679.571 2022.6 683.914C2017.92 788.003 2144.44 844.82 2217.76 776.396C2247.03 747.812 2254 705.469 2260.79 667.303C2264.38 666.498 2266.66 664.538 2267.99 661.944C2276.62 653.339 2282.05 645.392 2299.11 643.028C2316.18 640.667 2329.31 645.408 2331.09 646.859C2331.54 647.761 2332.02 648.664 2332.58 649.568C2333.36 650.915 2334.42 651.989 2335.62 652.835C2318.77 756.486 2399.34 822.037 2480.67 768.278C2516.01 735.075 2523.48 684.241 2524.95 638.868C2529.74 635.981 2532.78 630.385 2531.12 623.35C2528.83 613.652 2534.19 605.255 2542.73 601.039C2553.82 595.564 2551.86 575.568 2539.12 573.462M2189.64 622.635C2179.55 620.417 2175.24 635.963 2185.36 638.187C2192.53 639.762 2198.61 643.374 2202.72 649.493L2203.15 650.159C2208.66 658.917 2222.6 650.832 2217.05 642.018C2210.8 632.099 2201.1 625.151 2189.64 622.635ZM2485.32 612.996C2481.76 610.492 2476.38 612.351 2474.31 615.889C2472.04 619.786 2473.53 624.124 2476.86 626.673L2477.2 626.921C2480.26 629.074 2483.23 632.932 2483.61 636.884L2483.64 637.379C2484.04 647.724 2500.14 647.776 2499.74 637.379C2499.34 627.208 2493.45 618.71 2485.32 612.996Z" fill="black"/>
</g>
<rect x="2.13411" y="1.3348" width="3395.55" height="2433.33" rx="20" stroke="#18191F" stroke-width="2.66667"/>
<defs>
<clipPath id="clip0">
</clipPath>
</defs>
</svg>
