<svg width="2280" height="2971" viewBox="0 0 2280 2971" fill="none" xmlns="http://www.w3.org/2000/svg">
<path fill-rule="evenodd" clip-rule="evenodd" d="M2104.24 1143.87C2129.99 1174.04 2127.71 1182.43 2113.99 1212.9C2083.68 1283.59 2040.21 1355.45 1990.87 1421C1994.13 1273.94 1996.93 1126.08 2001.75 977.675C2031.09 1035.02 2062.33 1086.81 2104.24 1143.87M2109.1 2961.43C2125.31 2959.86 2239.39 2964.08 2208.86 2930.76C2218.29 2910.26 2191.96 2892.97 2175.73 2877.38C2160.55 2862.87 2145.59 2846.75 2130 2828.1C2115.49 2810.8 2099.12 2790.36 2088.54 2766.51C2086.2 2762.77 2083.82 2760.16 2081.47 2758.73L2080.11 2757.9L2079.26 2756.56C2070.33 2742.28 2062.96 2727.53 2054.85 2712.99C2074.69 2705.81 2092.72 2698.59 2115.19 2688.63C2083.48 2501.54 2035.95 2319.26 2005.22 2131.62C1986.52 1968.34 1976.47 1803.52 1933.67 1642.71L1928.2 1643.13L1925.14 1632.59C1929.64 1632.47 1938.75 1632.17 1943.26 1631.99L1942.2 1637.39C1962.6 1635.02 1982.6 1629.19 2002.44 1624.25C2012.56 1622.87 2022.71 1615.61 2019.07 1603.52C2017.89 1585.99 2014.27 1568.88 2012.57 1551.35C2019.02 1546.93 2025.68 1541.89 2032.06 1536.72C2048.93 1544.69 2069.32 1570.42 2087.77 1563.88C2130.87 1505.91 2167.05 1436.24 2199.79 1380.57C2278.86 1251.84 2303.95 1171.37 2222.4 1037.14C2151.9 924.692 2075.84 745.966 1934.5 717.745C1918.63 714.777 1902 714.652 1886.75 707.409C1885.97 697.023 1880.79 691.057 1877 690.972C1867.79 688.946 1857.67 685.687 1848.68 685.604C1845.51 684.278 1841.64 685.368 1838.59 685.967C1829.53 667.74 1830.34 644.47 1820.4 627.383C1820.04 614.437 1816.11 600.133 1776.28 597.531C1749.17 595.264 1710.77 593.08 1689.1 604.947C1673.94 617.177 1673.78 644.575 1675.68 663.88C1677.77 678.058 1676.84 694.546 1665.75 711.198C1634.17 701.429 1612.14 722.078 1592.37 760.6C1509.59 771.89 1491.75 778.301 1459.63 860.441C1444.31 896.062 1428.37 934.118 1416.43 973.113C1400.44 1020.78 1399.04 1070.69 1383.49 1118.69C1341.27 1224.5 1298.34 1292.78 1284.82 1415.97C1278.23 1470.35 1282.02 1497.32 1288.29 1505.49C1306.13 1500.32 1329.15 1496.37 1347.88 1494.16L1327.83 1509.44C1344.82 1586.62 1295.89 1806.71 1428.57 1789.8C1429.75 1786.93 1427.58 1771.13 1427.01 1764.57C1430.64 1764.83 1437.35 1765.07 1440.92 1764.62C1447.25 1782.91 1456.75 1799.34 1462.74 1817.95C1465.71 1829.28 1469.46 1840.7 1473.12 1851.72C1556.67 2133.64 1573.22 2405.04 1535.93 2688.06L1537.62 2688.67L1538.3 2689.89L1539.33 2690.27C1541.96 2693.8 1545.69 2693.95 1551.64 2693.96C1588.19 2695.24 1620.3 2696.89 1650.08 2697.73C1646.92 2713.57 1648.94 2730.25 1650.33 2746.36C1633 2745.14 1617.1 2752.19 1601.26 2760.65C1570.99 2775.54 1540.84 2791.18 1511.53 2808.27C1482.43 2826.93 1435.37 2842.88 1458.74 2876.41L1451.98 2879.07C1451.75 2879.15 1451.61 2879.23 1451.52 2879.29C1450.72 2882.13 1459.88 2893.92 1462.59 2893.79C1526.58 2896.79 1581.15 2881.82 1663 2866.13C1681.74 2859.32 1776.13 2847.74 1776.53 2829.86C1776.23 2824.29 1770.48 2824.66 1766.47 2823.97C1778.49 2763.13 1737.84 2758.22 1732.02 2703.02C1740.07 2704.55 1748.77 2705.87 1757.02 2703.6C1764.25 2585.8 1752.63 2465.21 1765.48 2346.25L1778.54 2344.8C1822.46 2474.25 1867.99 2606.69 1902.96 2741.14C1903.63 2744.06 1906.9 2742.06 1908.39 2741C1931.25 2740.45 1954.11 2738.01 1976.53 2734.15C1977.06 2747.38 1977.63 2760.85 1978.19 2774.06L1974.73 2775.91C1972.5 2779.02 1973.44 2793.56 1973.85 2799.82C1974.25 2806.22 1974.59 2810.85 1974.02 2815.19C1966.81 2829.43 1991.46 2860.29 2004.5 2877.44C2032.9 2914.27 2056.43 2968.81 2109.1 2961.43" fill="white"/>
<path fill-rule="evenodd" clip-rule="evenodd" d="M1827.12 628.859C1819.38 623.612 1830.4 669.146 1830.42 673.527L1830.61 674.481C1832.54 683.755 1835.93 694.545 1843.75 700.494C1840.15 730.011 1835.66 759.434 1830.14 788.644L1826.89 789.071C1778.7 795.461 1730.2 804.248 1681.21 799.67C1654.81 799.879 1637.34 781.805 1626.7 759.388C1627.42 756.744 1628.14 754.111 1628.88 751.467C1662.4 730.925 1687.78 689.238 1672.68 649.886C1672.04 648.204 1670.04 648.088 1669.01 648.963C1668.84 648.979 1668.69 649.115 1668.7 649.3L1669.2 656.978C1670.25 673.73 1670.72 691.092 1661.65 706.176C1625.18 697.854 1602.5 728.283 1587.25 757.082L1576.29 758.704C1534.38 764.934 1493.96 772.309 1473.26 815.274L1470.43 821.308C1441.51 883.048 1414.56 946.533 1398.79 1013.02C1390.85 1048.38 1387.97 1084.83 1376.32 1119.33C1352.13 1183.38 1318.04 1243.58 1299.56 1309.89C1288.09 1333.82 1255.82 1513.94 1287.66 1515.31C1299.11 1511.87 1310.77 1509.1 1322.56 1507.12C1320.74 1508.51 1320.08 1510.86 1320.42 1513.27C1324.54 1542.14 1324.85 1571.38 1324.83 1600.5C1322.65 1671 1324.6 1822.69 1430.72 1798.34C1438.46 1795.49 1433.43 1783.06 1433.74 1774.37C1434.35 1774.4 1434.96 1774.39 1435.58 1774.35C1441.67 1790.8 1450.21 1805.98 1455.57 1822.7C1460.11 1837.07 1463.28 1852.52 1469.6 1866.27C1536.6 2104.69 1564.26 2355.46 1538.06 2602.23C1536.59 2617.01 1534.94 2631.77 1533.09 2646.49C1533.33 2655.7 1522.42 2694.26 1532.21 2696.85C1532.59 2697.6 1533.91 2698.45 1534.7 2698.72C1540.65 2705.14 1550.53 2702.76 1558.38 2703.61C1586.11 2704.85 1613.85 2705.99 1641.6 2706.91C1639.94 2718.69 1641.28 2730.65 1642.26 2742.41C1622.02 2742.58 1603.43 2754.91 1585.53 2763.28C1558.95 2776.4 1532.8 2790.42 1507.14 2805.3C1483.46 2821.88 1430.55 2837.9 1448.75 2875.51C1435.18 2881.02 1454.04 2904.08 1464.35 2904.33C1531.49 2904 1598.2 2888.76 1663.82 2875.38C1701.09 2865.52 1741.77 2861.77 1776.26 2844.77C1786.05 2840.34 1784 2822.68 1773.23 2821.04C1781.23 2762.14 1748.77 2762.95 1739.64 2713.9C1744.95 2714.77 1750.82 2714.28 1756.15 2713.2C1768.48 2724.61 1763.95 2634.75 1765.63 2625.98C1765.96 2533.84 1761.6 2441.5 1771.41 2349.67L1788.08 2398.79C1826.94 2513.42 1865.22 2628.35 1895.69 2745.54C1897.51 2752.61 1904.93 2753.46 1909.67 2750.37C1929.68 2749.79 1949.61 2747.9 1969.35 2744.71C1969.73 2754.08 1970.13 2763.46 1970.52 2772.83C1962.01 2777.42 1967.77 2806.35 1966.68 2816.13C1957.47 2837.37 1994.82 2878.27 2007.1 2895.79C2029 2926.41 2050.74 2969.24 2093.09 2970.67L2094.38 2970.7C2125.98 2971.47 2157.88 2969.62 2189.18 2965.1L2192.56 2964.55C2201.6 2963.05 2211.71 2960.93 2216.94 2952.85C2221.34 2946.05 2220.8 2937.26 2215.46 2932.06C2222.51 2906.42 2195.04 2890.9 2179.69 2875.29C2151.02 2847.61 2124.97 2817.16 2102.43 2784.28L2101.14 2781.21C2096.96 2771.35 2091.97 2760.4 2084.2 2755.68C2076.78 2743.9 2070.45 2731.49 2063.75 2719.31C2082.03 2712.59 2100.04 2705.08 2117.84 2697.18C2121.39 2695.6 2122.52 2690.99 2121.9 2687.56L2121.85 2687.33C2087.09 2506.64 2045.41 2327.25 2013 2146.15C1992.3 1979.25 1983.81 1810.22 1940.28 1646.99C1961.4 1644.79 1982.42 1638.72 2003.14 1633.53C2019.75 1629.99 2028.15 1621.54 2024.88 1603.93C2023.75 1588.27 2020.62 1572.87 2018.93 1557.28C2023.35 1554.18 2027.67 1550.93 2031.87 1547.58C2039.66 1553.4 2047.69 1558.88 2055.95 1563.99C2075.72 1578.24 2090.99 1580.46 2103.2 1557.1C2138.58 1501.15 2172.7 1444.39 2204.9 1386.55C2234.77 1331.06 2271.78 1275.69 2279.36 1211.8C2290.38 1096.83 2155.61 912.838 2088.1 819.398C2050.87 774.391 2005.53 728.07 1946.56 714.982C1928.42 712.291 1909.3 711.925 1892.01 705.339C1890.61 696.925 1886.66 689.178 1877.75 687.119C1868.37 685.042 1858.31 681.835 1848.87 681.602C1846.73 680.999 1844.21 680.618 1841.95 681.034C1835.49 664.226 1834.54 645.288 1827.12 628.859ZM2188.34 2945.35C2186.73 2946.14 2185.06 2946.84 2183.34 2947.45C2181.24 2947.74 2179.14 2948.01 2177.05 2948.25C2180.84 2947.39 2184.61 2946.43 2188.34 2945.35ZM1978.53 2781.95C2009.5 2793.2 2018.01 2740.36 2078.93 2761.75C2102.73 2805.99 2133.55 2846.18 2168.78 2881.91C2181.3 2897.49 2218.36 2915.19 2198.39 2938.04L2195.33 2938.6C2160.65 2944.91 2125.44 2949.93 2090.1 2947.07C2063.39 2939.7 2043.36 2918.27 2027.17 2896.66C2015.46 2875.88 2001.76 2856.32 1987.78 2837.03C1980.09 2827.45 1979.31 2815.24 1979.35 2803.44C1979.09 2796.27 1978.82 2789.11 1978.53 2781.95ZM1630.61 2756.01C1643.76 2751.18 1657.25 2755.72 1669.21 2761.64C1689.64 2770.8 1733.9 2781.76 1752.8 2767.17C1762.07 2782.52 1765.18 2799.58 1762.64 2817.29L1762.61 2818.38C1762.39 2825.53 1761.39 2831.29 1752.72 2831.79L1728.08 2838C1644.95 2858.89 1561.01 2879.09 1475.45 2884.9C1452.61 2870.63 1451.97 2851.86 1476.25 2838.79L1482.46 2834.98C1530.11 2805.79 1578.88 2777.1 1630.61 2756.01ZM1449.77 2877.41C1450 2877.81 1450.22 2878.2 1450.45 2878.58C1450.1 2878.76 1449.77 2879.01 1449.46 2879.28C1449.46 2878.63 1449.56 2878 1449.77 2877.41ZM2059.13 2720.98C2058.81 2727.47 2062 2734.8 2064.24 2740.62C2065.55 2744.07 2066.91 2748.98 2069.01 2752.92C2016.92 2737.54 2001.08 2782.61 1982.3 2773.24L1981.73 2772.94V2772.93C1985.56 2764.16 1981.38 2751.82 1978.81 2743.08C2006.16 2738.12 2033.01 2730.42 2059.13 2720.98ZM1647.61 2707.11L1662.62 2707.57C1685.98 2708.28 1709.34 2708.9 1732.71 2708.87C1730.26 2725.69 1735.05 2753.43 1745.92 2766.5C1745.94 2766.51 1745.96 2766.51 1745.97 2766.51C1715.2 2771.18 1686.06 2757.07 1658.66 2745.2C1657.51 2732.31 1652.45 2719.16 1647.61 2707.11ZM1748.07 2758.34L1750.88 2763.59V2763.59C1750.48 2764.04 1750.01 2764.46 1749.52 2764.81C1749.81 2762.63 1749.03 2760.47 1748.07 2758.34ZM2062.49 2719.78C2063.01 2722.04 2063.61 2724.3 2064.26 2726.56C2063.28 2724.34 2062.16 2722.21 2060.81 2720.39L2062.49 2719.78V2719.78ZM1734.32 2708.88L1735.97 2708.9V2708.9L1735.98 2709.84V2709.84C1735.59 2710.49 1735.53 2711.27 1736.01 2711.91C1736.06 2714.81 1736.19 2717.72 1736.41 2720.64L1735.86 2717.28C1735.4 2714.47 1734.91 2711.67 1734.32 2708.88ZM1755.22 2707.92L1755.13 2709.38V2709.38C1753.02 2709.3 1750.9 2709.39 1748.8 2709.28C1747.7 2709.23 1746.56 2709.03 1745.42 2708.83C1748.72 2708.73 1752 2708.47 1755.22 2707.92ZM1381.05 1502.99C1382.09 1504.21 1383.22 1504.95 1384.38 1505.33C1384.37 1533.08 1389.96 1560.38 1405.3 1584.41C1411.67 1592.88 1415.28 1602.52 1418.36 1612.57C1434.58 1658.56 1437.59 1707.96 1431.68 1756.12C1415.74 1732.71 1409.41 1704.78 1404.96 1677.24C1404.72 1675.86 1402.43 1675.88 1402.18 1677.24C1396.8 1706.72 1406.05 1735.67 1417.12 1762.91C1424.03 1767.86 1422.39 1780.82 1423.22 1788.45C1305.74 1805.59 1346.59 1579.75 1331.55 1510.2C1331.27 1508.29 1329.64 1506.89 1327.8 1506.31C1345.42 1503.61 1363.27 1503.42 1381.05 1502.99ZM1934.26 1641.73C1934.11 1642.47 1933.99 1643.21 1933.89 1643.95L1933.26 1641.77V1641.77C1933.58 1641.76 1933.92 1641.75 1934.26 1641.73ZM1854.87 686.477L1856.92 687.016C1878.63 692.622 1885.65 691.852 1886.88 718.096C1892.22 753.712 1911.91 784.779 1920.77 819.217C1924.31 831.379 1920.56 853.793 1903.77 850.501C1898.33 848.828 1894.09 856.172 1898.2 860.067C1910.37 871.584 1922.17 883.456 1934.04 895.254C1886.37 1056.38 1824.43 1213.33 1748.99 1363.48C1746 1369.44 1754.97 1374.68 1757.94 1368.72C1832.94 1218.09 1895.32 1061.2 1943.74 900.023L1945.2 895.137C1947.34 889.203 1920 867.94 1915.02 860.999C1964.94 836.913 1895.24 752.563 1893.35 711.944C1907.64 718.234 1923.83 715.977 1938.93 718.51C1967.89 723.595 1993.3 740.344 2015.89 758.424C2107.66 839.557 2166.3 951.884 2224.96 1057.76C2264.91 1126.84 2284.17 1211.28 2244.08 1284.76C2197.56 1378.98 2143.6 1469.79 2086.55 1557.94C2080.29 1566.1 2070.65 1556.72 2064.04 1553.3C2026.1 1530.47 1993.2 1499.41 1967.9 1463.09C2029.24 1387.73 2082.68 1305.36 2120.47 1215.62L2120.99 1214.58C2129.47 1197.51 2136.17 1176.87 2122.03 1160.8C2071.8 1096.39 2027.13 1028 1985.1 958.023C1984.66 957.321 1983.69 957.937 1984.01 958.667C1988.33 968.454 1992.87 978.165 1997.61 987.788C1988.04 1130.07 1989.66 1275.14 1985.52 1418.33C1974.36 1433.13 1962.87 1447.67 1951.11 1461.99C1912.97 1435.67 1868.1 1418.5 1822.02 1413.19L1819.04 1412.89C1799.47 1410.87 1767.14 1407.07 1764.58 1432.51C1767.75 1463.81 1832.35 1446.22 1853.01 1463.97C1819.15 1477.63 1780.35 1481.48 1749.27 1502.08C1739.29 1507.9 1719.75 1526.46 1738.84 1533.56C1747.18 1534.28 1755.78 1531.04 1764.11 1530.32C1754.74 1533.48 1746.12 1538.84 1740.63 1547.23C1736.68 1552.99 1733.8 1564.94 1743.24 1567.41C1764.76 1568.01 1786.19 1560.99 1807.39 1557.49L1805.51 1558.26C1790.05 1564.59 1766.03 1575.97 1786.85 1592.75C1807.68 1603.55 1832.91 1585.18 1853.66 1580.27C1909.56 1567.25 1950.92 1602.94 2008.23 1564.3C2009.85 1577.21 2012.29 1590.04 2013.27 1603.02L2013.4 1603.76C2015.38 1615.61 2013.68 1619.89 2000.92 1622.16C1985.53 1626.81 1969.41 1628.27 1953.42 1629.13C1876.45 1633.21 1798.98 1630.32 1722.54 1620.45C1711.54 1617.49 1685.7 1620.28 1681.1 1608.16C1689.72 1296.22 1819.53 1002.69 1855.28 694.803C1855.86 691.841 1855.9 688.823 1854.87 686.477ZM1637.89 713.136C1644.02 713.388 1649.74 714.721 1655.85 715.338C1652.46 722.541 1634.62 732.73 1636.24 736.306C1634.95 737.306 1633.65 738.267 1632.32 739.199C1634.17 732.701 1636.03 726.211 1637.9 719.71C1570.08 885.193 1560.76 1080.98 1551.75 1261.51C1548.79 1352.53 1547.17 1443.84 1551.56 1534.8C1554 1558.96 1560.47 1583.38 1558.71 1607.78C1518.9 1613.52 1478.53 1614.01 1438.56 1609.76C1437.38 1606.66 1436.04 1603.6 1434.53 1600.6C1374.7 1527.53 1406.43 1435.97 1435.23 1356.82C1452.65 1357.56 1470.17 1356.45 1487.61 1356.67C1482.22 1373.37 1480.83 1391.04 1477.97 1408.31C1476.01 1420.62 1473.52 1432.83 1470.66 1444.95L1469.79 1448.59C1468.73 1452.94 1467.43 1457.61 1468.95 1461.91C1470.49 1466.28 1475.8 1468.05 1479.31 1464.65C1485.66 1457.41 1484.98 1446.61 1487.02 1437.63L1487.4 1434.8C1490.89 1409.01 1495.49 1382.25 1489.11 1356.66C1495.37 1355.31 1512.5 1360.26 1513.4 1351.82C1513.13 1337.89 1523.22 1307.7 1511.99 1298.52C1505.31 1293.42 1493.82 1295.03 1485.99 1294.71C1476.93 1294.35 1467.88 1294.01 1458.84 1294.07C1531.54 1118.05 1511.32 1063.87 1503.94 888.697L1503.72 883.352C1503.74 882.198 1501.89 881.91 1501.68 883.073C1490.57 954.827 1505.39 1027.47 1498.37 1099.45C1485.9 1236.22 1399.39 1353.64 1384.93 1489.74C1353.74 1486.12 1322.19 1490.56 1291.96 1498.41C1291.32 1492.88 1290.83 1487.33 1290.49 1481.78C1284.75 1380.19 1320.33 1281.53 1361.85 1190.41C1386.73 1142.05 1402.11 1090.43 1408.54 1036.45C1421.04 966.156 1449.09 899.935 1477.05 834.631C1494.72 785.803 1532.92 774.289 1580.3 768.619C1564.32 795.153 1548.44 821.745 1532.58 848.357C1529.05 856.405 1539.89 862.149 1544.62 867.103C1486.42 898.899 1520.4 997.088 1519.2 1052.11C1523.52 1102.66 1525.15 1153.5 1532.77 1203.71C1533.32 1207.19 1538.65 1206.17 1538.7 1202.91C1538 1127.69 1529.04 1052.77 1525.11 977.663L1524.64 972.188C1521.57 936.63 1518.57 885.334 1561.25 875.574C1567.01 874.631 1567.45 866.056 1562.83 863.48C1556.68 860.047 1551.28 855.855 1546.46 850.866C1562.76 823.457 1579.04 796.028 1595.17 768.502L1595.93 767.223C1607.39 747.747 1618.03 725.084 1637.89 713.136ZM1776.38 1430.61C1781.08 1416.71 1826.78 1425.76 1838.97 1427.27C1883.95 1435.78 1929.21 1455.72 1963.46 1486.43C1965.58 1488.32 1968.08 1488.29 1970.05 1487.26C1985.39 1506.9 2003.11 1524.69 2022.54 1540.33C2018.98 1543.14 2015.33 1545.86 2011.57 1548.46C2009.77 1548.66 2008.15 1549.59 2007.42 1551.26C1953.95 1590.07 1914.62 1559.8 1859.08 1566.79C1838.35 1570.98 1819.25 1584.19 1797.88 1584.75C1782.2 1581.18 1796.01 1574.61 1803.33 1572.07C1819.92 1564.14 1836.83 1556.9 1853.77 1549.77L1867.32 1544.08C1873.99 1541.28 1871.7 1531.2 1864.26 1532.96C1851.23 1536.03 1838.16 1538.96 1825.09 1541.83C1799.95 1546.97 1774.2 1553.56 1748.79 1556.06C1754.44 1540.33 1814.37 1523.35 1831.79 1517.1C1838.37 1513.98 1857.14 1514.57 1855 1504.36C1853.27 1494.84 1833.3 1505.73 1826.64 1506.51C1799.46 1513.42 1771.71 1517.6 1744.01 1521.81C1773.76 1491.91 1819.88 1489.33 1857.87 1475.33L1858.92 1475.09C1865.67 1473.52 1874.93 1470.55 1869.44 1462.85C1849.92 1434.02 1773.11 1448.61 1776.38 1430.61ZM1832.59 1270.06C1818.73 1258.67 1811.31 1282.07 1812.19 1292.94C1811.53 1301.97 1810.83 1311 1810.24 1320.03C1811.11 1327.09 1803.6 1352.82 1813.64 1353.05C1857.54 1350.82 1901.37 1351.38 1945.28 1348.73C1945.34 1357.61 1945.77 1366.47 1945.32 1375.36C1945.56 1386.46 1941.71 1397.56 1943.96 1408.54C1945.33 1413.59 1952.19 1414.27 1954.86 1409.97C1962.88 1391.06 1957.37 1366.67 1951.69 1347.55C1973.19 1343.57 1976.16 1323.32 1970.49 1305.25L1970.55 1304.27C1970.87 1298.7 1970.84 1292.72 1968.36 1288.21C1961.72 1280.38 1947.94 1285.47 1938.79 1284.88C1910.75 1281.98 1882.19 1281.18 1854.48 1276.02C1847.31 1274.16 1839.99 1270.41 1832.59 1270.06ZM2006.91 1006.09C2028.74 1047.84 2053.86 1087.57 2080.6 1126.25C2086.33 1134.51 2092.21 1142.66 2098.19 1150.75L2098.93 1151.7C2110.99 1167.11 2123.77 1179.77 2112.36 1200.15C2082.79 1272.12 2043.19 1339.7 1997.3 1402.42C2000.21 1270.31 2002.78 1138.16 2006.91 1006.09ZM1458.03 1296.18C1512.88 1307.7 1513.91 1286.14 1504.75 1347.17C1482.75 1347.32 1460.77 1346.82 1438.76 1347.18C1445.05 1330.13 1451.57 1313.16 1458.03 1296.18ZM1826.22 1278.95C1854.87 1288.92 1885.29 1287.5 1915.21 1288.72C1915.15 1295.17 1945.76 1289.19 1951.64 1290.07L1953.68 1289.89C1958.57 1289.49 1964.86 1289.33 1964.92 1295.39C1963.36 1305.83 1969.22 1317.26 1965.59 1327.52C1960.68 1341.33 1939.71 1339.91 1928.13 1340.18C1909.05 1340.61 1889.97 1341.07 1870.88 1341.57C1853.74 1342.02 1836.54 1342.88 1819.39 1343C1820.93 1330.78 1821.35 1318.24 1822.28 1306.02C1823.46 1297.23 1821.76 1286.82 1826.22 1278.95ZM1705.76 1323.37C1705.73 1323.53 1705.7 1323.68 1705.66 1323.84C1705.44 1323.79 1705.21 1323.73 1704.98 1323.68L1704.63 1323.61V1323.6C1705 1323.54 1705.39 1323.46 1705.76 1323.37ZM1622.68 774.224C1635.07 795.498 1655.6 809.163 1680.34 809.363C1723.76 811.867 1767.75 808.99 1810.06 798.69C1816.28 797.134 1823.72 795.778 1829.44 792.375C1796.77 969.678 1743.96 1142.4 1706.72 1318.68C1679.75 1321.06 1652.87 1320.81 1625.84 1319.54C1604.98 1319.22 1583.91 1321.47 1563.2 1318.36L1563.84 1296.48C1569.07 1121.29 1576.35 943.987 1622.68 774.224Z" fill="black"/>
<path fill-rule="evenodd" clip-rule="evenodd" d="M1715.11 228.473C1660.52 228.473 1592.15 290.743 1572.14 317.242C1555.31 339.521 1557.69 454.293 1557.69 522.376C1557.69 536.615 1564.13 563.565 1566.47 577.185C1575.03 627.096 1612.33 668.954 1686.17 668.954C1746.29 668.954 1792.55 649.912 1837.29 601.209C1847.5 590.098 1897.34 629.875 1907.54 615.55C1934.17 615.55 1956.43 366.762 1904.15 292.14C1851.87 217.518 1769.69 228.473 1715.11 228.473Z" fill="white"/>
<path fill-rule="evenodd" clip-rule="evenodd" d="M1879.18 245.997C1847.63 217.299 1805.61 203.493 1763.21 204.512C1741.26 205.041 1719.37 209.223 1698.64 216.386C1688.26 219.981 1678.22 224.673 1668.61 229.98C1665.15 231.888 1661.96 234.123 1658.89 236.498L1658.12 237.094H1658.11C1649.87 240.055 1642.52 245.372 1635.85 251.592C1622.48 250.525 1609 251.727 1596.07 255.851C1578.07 261.6 1561.41 272.127 1549.71 287.077C1536.08 304.481 1531.55 325.593 1533.16 347.386L1533.46 351.088C1535.06 370.34 1537.93 395.102 1553.73 407.752C1554.93 408.713 1556.25 409.444 1557.63 409.886C1547.45 427.326 1539.09 446.688 1534.09 466.243C1515.01 540.934 1529.68 618.826 1552.63 690.815C1554.51 696.747 1563.48 700.689 1568.05 694.892C1576.2 684.528 1588.05 676.625 1601.37 675.145C1609.59 674.231 1617.77 675.885 1625.54 672.155C1628.59 670.684 1631.53 668.28 1633.65 665.358C1646.76 670.328 1660.88 672.674 1674.89 672.097C1697.88 671.155 1722.45 663.195 1738.27 645.736C1740.8 642.933 1741.45 639.786 1740.86 636.95C1738.88 636.243 1736.84 635.716 1734.75 635.386C1714.69 647.206 1692.58 655.103 1668.83 655.6C1655.1 655.886 1641.71 653.966 1630.58 645.394C1628.17 643.539 1625.95 641.484 1623.91 639.277C1600.63 624.306 1584.23 598.878 1576.42 571.641C1569.16 546.241 1570.05 519.793 1572.55 493.739L1573.87 479.99C1575.79 459.811 1577.57 439.572 1578.07 419.308L1577.92 419.3V419.3C1573.01 418.983 1572.97 411.289 1577.92 411.609C1590.73 412.437 1603.44 410.337 1616.2 411.252C1616.31 405.217 1616.74 399.21 1618.52 393.389C1619.53 390.064 1625.32 389.408 1625.93 393.389C1626.75 398.715 1627.05 404.012 1627.14 409.362C1646.25 409.108 1665.33 407.501 1684.44 408.161C1687.96 404.402 1689.09 397.737 1690.73 393.1C1690.97 392.417 1691.22 391.744 1691.46 391.062C1692.91 397.688 1694.97 404.168 1697.67 410.513L1702.35 410.529C1728.94 410.653 1756.07 411.448 1782.03 416.969C1783.84 415.584 1784.91 413.167 1785.2 410.972C1787.08 396.69 1789.77 382.787 1794.54 369.177L1795.22 367.257C1795.27 367.097 1795.33 366.928 1795.39 366.75C1798.9 372.415 1803.09 377.696 1807.66 382.614C1810.35 385.513 1813.17 388.284 1816.07 390.977C1818.88 394.102 1821.79 397.179 1824.61 400.313C1824.5 400.883 1824.4 401.462 1824.33 402.051C1823.46 408.555 1823.37 415.151 1824.01 421.68C1825.15 433.483 1828.48 444.857 1833.83 455.378L1834 456.432C1834.82 461.362 1835.97 466.458 1838.67 470.171C1835.3 473.948 1832.71 478.458 1831.2 483.47C1829.86 487.932 1836.03 491.799 1839.23 488.147C1841.78 485.247 1844.6 482.846 1847.71 480.931C1847.9 481.197 1848.26 481.328 1848.65 481.106C1857.3 476.309 1871.98 477.76 1880.61 482.279C1891.35 487.894 1895.54 499.421 1894.35 511.102C1893.2 522.263 1888.32 535.31 1878.85 541.03C1874.51 543.655 1871.12 543.876 1866.51 542.616C1865.03 542.215 1863.2 540.986 1862.42 540.376L1861.64 539.756C1858.62 537.365 1855.8 535.728 1852.23 535.665C1848.58 534.526 1844.91 536.106 1843.51 539.936L1843.42 540.184C1842.77 542.136 1841.58 544.587 1841.84 547.567C1842.11 550.759 1843.57 553.663 1845.75 555.999C1846.12 556.403 1846.53 556.806 1846.94 557.181C1809.35 597.877 1804.53 661.291 1823.8 712.13C1824.64 714.36 1825.53 716.562 1826.46 718.744C1829.68 726.224 1842.09 723.907 1843.66 716.494C1844.13 714.274 1844.65 712.062 1845.22 709.87C1846.26 705.82 1847.46 701.807 1848.8 697.852L1849.32 696.372C1850.46 693.104 1851.53 689.806 1852.68 686.537L1852.8 686.164C1852.84 686.016 1852.89 685.845 1852.94 685.653L1854.89 689.912V689.912L1860.82 702.766C1863.6 708.764 1872.42 705.504 1872.75 699.724L1872.76 699.526C1872.78 698.459 1872.82 697.401 1872.89 696.353C1873.31 688.499 1874.67 680.865 1876.82 673.395L1877.6 674.361C1889.17 688.664 1902.75 702.071 1921.37 705.371C1926.05 706.198 1931.33 701.314 1928.12 696.593C1926.8 694.642 1925.52 692.642 1924.31 690.614C1925.35 690.123 1926.34 689.614 1927.26 689.095C1934.32 685.124 1940.21 679.471 1945.07 673.058C1955.39 659.464 1959.08 642.352 1959.98 625.604C1960.94 607.905 1959.39 589.244 1954.55 572.17C1952.46 564.786 1949.62 557.701 1946.34 550.827C1946.57 550.211 1946.79 549.596 1947.01 548.981C1950.55 539.117 1953.46 529.032 1955.87 518.831C1960.73 498.238 1963.35 476.991 1963.67 455.831C1964.24 417.923 1957.7 379.41 1943.93 344.059C1929.7 307.603 1908.3 272.483 1879.18 245.997ZM1896.9 577.428C1899.51 573.315 1906.05 577.022 1903.62 581.164L1903.53 581.312C1899.39 587.84 1897.44 595.262 1895.06 602.54C1893.53 607.222 1886.1 605.222 1887.65 600.492L1888.16 598.913C1890.53 591.533 1892.7 584.033 1896.9 577.428ZM1874.14 498.901L1872.4 498.061C1866.93 495.449 1862.13 493.669 1855.66 495.95C1847 498.998 1837.72 508.698 1843.58 518.11C1845.73 521.581 1849.56 522.965 1853.5 522.148C1860.14 520.77 1861.86 514.786 1865.23 509.874L1865.81 509.042C1867.87 506.069 1870.47 501.96 1873.89 500.795C1874.67 500.526 1875 499.315 1874.14 498.901ZM1869.26 299.067L1868.7 298.566C1864.98 295.278 1870.44 289.856 1874.14 293.124C1891.08 308.093 1896.96 331.522 1905.75 351.491C1907.72 355.98 1901.1 359.903 1899.11 355.375C1890.73 336.32 1885.16 313.527 1869.26 299.067V299.067ZM1665.69 292.519C1670.12 290.524 1673.99 296.965 1669.73 299.086L1669.57 299.162C1654.61 305.92 1648.25 321.226 1642.15 335.435C1640.21 339.973 1633.59 336.06 1635.51 331.561L1636.61 329.011C1642.97 314.368 1650.39 299.442 1665.69 292.519ZM1642.24 283.27C1646.93 281.645 1648.94 289.067 1644.29 290.692C1631.61 295.105 1622.91 304.623 1615.57 315.506C1612.82 319.582 1606.16 315.736 1608.94 311.622C1617.46 298.989 1627.57 288.385 1642.24 283.27Z" fill="black"/>
<path fill-rule="evenodd" clip-rule="evenodd" d="M1641.07 581.156C1644.25 585.305 1649.99 588.481 1656.42 590.001C1662.56 591.448 1669.33 591.389 1675.18 589.161L1675.68 588.962C1680.05 587.146 1684.25 583.48 1685.84 579.654C1686.47 578.133 1686.69 576.587 1686.25 575.144C1685.86 573.846 1684.95 572.652 1683.43 571.626C1682.95 571.304 1682.31 571.28 1681.7 571.388C1680.94 571.522 1680.19 571.876 1679.74 572.355C1677.24 575.015 1673.61 577.609 1669.31 577.564C1666 577.531 1663.29 576.222 1660.67 574.743L1658.82 573.686C1657.04 572.671 1655.24 571.717 1653.2 571.281C1649.54 570.501 1645.11 571.927 1642.41 574.28C1641.23 575.306 1640.37 576.512 1640.14 577.811C1639.95 578.902 1640.22 580.04 1641.07 581.156ZM1660.08 508.614C1652.82 513.027 1641.76 523.317 1649.57 534.257C1658.76 543.903 1672 532.843 1678.52 527.841C1684.57 523.964 1691.36 533.934 1685.75 538.461C1638.62 573.355 1619.49 509.768 1656.41 503.425C1660.47 502.726 1661.98 507.249 1660.08 508.614ZM1741.98 440.791L1739.89 440.219L1737.77 439.645L1736.33 439.265C1726.45 436.68 1715.56 434.404 1705.76 435.515C1702.19 435.921 1699.29 437.931 1698.78 441.674C1698.36 444.832 1700.4 448.906 1703.87 449.468C1715.38 451.329 1727.15 450.725 1738.71 452.644C1744.47 453.599 1750.18 454.784 1755.91 455.852C1760.27 456.666 1764.78 456.951 1769.18 457.609L1768.17 457.749C1767.81 457.797 1767.9 458.392 1768.25 458.368C1769.7 458.224 1771.15 458.201 1772.6 458.303L1773.23 458.354C1774.18 458.488 1774.74 457.355 1773.89 456.78C1768.53 453.145 1763.99 449.205 1757.99 446.526C1752.8 444.209 1747.46 442.299 1741.98 440.791ZM1652.05 435.216C1644.46 427.539 1628.31 430.489 1619.27 434.001C1614.11 436.006 1609.21 438.542 1605.13 442.334L1604.73 442.708L1604.12 443.297C1601.36 445.996 1598.28 449.71 1598.72 453.601C1598.79 454.194 1599.11 454.872 1599.78 454.991C1603.4 455.632 1606.95 453.723 1610.3 452.574L1612.51 451.815C1615.83 450.683 1619.18 449.601 1622.6 448.82C1626.86 447.851 1631.21 447.29 1635.59 447.346C1640.01 447.404 1644.76 448.652 1648.97 446.896C1653.67 444.94 1656.1 439.31 1652.05 435.216ZM1727.09 497.137C1729.02 499.116 1731.58 500.233 1734.86 499.569C1737.42 499.05 1742.29 496.477 1746.18 492.513C1748.85 489.802 1751.07 486.414 1751.68 482.489C1751.82 481.577 1752.3 480.993 1752.94 480.625C1753.44 480.334 1754.1 480.188 1754.82 480.261C1755.43 480.323 1756.08 480.545 1756.58 480.838C1757.54 481.397 1757.93 482.19 1758.01 482.782C1758.77 488.496 1756.57 494.166 1753.13 498.947C1748.48 505.398 1741.67 510.126 1737.66 511.233C1730.8 513.127 1723.57 511.619 1718.24 506.845C1713.98 503.029 1711.8 498.056 1709.77 492.943L1709.38 491.952C1708.93 490.792 1708.47 489.64 1708 488.5C1707.03 486.217 1707.34 484.243 1708.27 482.705C1709.31 481.001 1711.21 479.801 1713.33 479.433C1715.29 479.092 1717.39 479.465 1719.04 480.662C1720.44 481.673 1721.57 483.275 1721.97 485.643C1722.62 489.495 1724.13 493.915 1726.8 496.831L1727.09 497.137ZM1609.48 474.843C1611.08 474.01 1612.33 473.759 1614.1 474.291C1615.08 474.585 1616.05 475.149 1616.81 475.908C1617.56 476.66 1618.11 477.594 1618.32 478.632C1618.84 481.191 1620.24 483.587 1622.23 485.149C1623.94 486.484 1626.09 487.191 1628.48 486.792C1631.06 486.362 1633.51 484.709 1635.2 482.761C1635.67 482.218 1636.06 481.613 1636.43 481.001L1636.65 480.633C1637.49 479.257 1638.3 477.979 1639.45 476.969C1639.88 476.584 1640.54 476.318 1641.17 476.318C1641.43 476.318 1641.69 476.36 1641.94 476.438C1644.51 479.013 1645 480.965 1644.92 482.902C1644.83 484.934 1644.03 486.99 1642.74 488.909C1639.7 493.41 1633.94 497.101 1630.05 497.937C1624.72 499.082 1619.43 497.707 1615.19 494.732C1610.83 491.671 1607.59 486.919 1606.59 481.563C1606.34 480.273 1606.45 478.88 1606.94 477.673C1607.42 476.493 1608.25 475.483 1609.48 474.843Z" fill="black"/>
<path fill-rule="evenodd" clip-rule="evenodd" d="M1559.83 489.304C1568.99 551.304 1632.98 558.161 1644.35 496.61C1642.52 495.811 1641.21 494.238 1641.48 491.185C1641.55 477.771 1637.38 463.595 1625.28 456.135C1612.78 448.438 1598.15 447.675 1583.68 447.869C1556.06 447.212 1556.64 470.292 1559.83 489.304M1654.36 462.34C1663.03 461.975 1673.99 462.281 1681.76 467.561C1683.89 461.813 1689.44 455.677 1695.04 452.395C1674.21 453.005 1652.78 450.955 1631.79 449.364C1636.82 452.788 1641.49 457.931 1644.53 463.877C1647.34 462.375 1651.38 462.515 1654.36 462.34M1692.56 495.877C1716.59 578.592 1776.57 542.54 1783.11 531.939C1794.91 514.398 1797.13 471.756 1786.85 460.355C1772.15 450.045 1751.32 452.698 1733.95 452.445C1702.03 452.876 1679.36 462.425 1692.56 495.877M1531.45 457.834C1537.98 456.98 1544.96 456.808 1551.03 459.683C1552.9 451.739 1558.77 445.097 1565.39 442.175C1566.19 441.169 1566.07 440.629 1568.81 440.78C1585.63 435.725 1604.45 438.399 1620.62 443.583C1646.14 445.733 1672.92 447.428 1698.67 450.39C1722.78 439.561 1795.55 437.974 1800.07 464.665C1805.76 463.814 1815.45 459.337 1820.23 465.41C1855.29 459.466 1891.52 467.727 1926.74 471.406C1935.6 473.039 1940.17 490.63 1930.11 490.39C1924.45 488.854 1930.28 479.436 1922.66 478.727C1888.69 475.016 1855.45 469.752 1821.13 469.135C1822.32 475.062 1798.42 475.448 1798.07 471.987C1798.02 472.013 1797.97 472.03 1797.92 472.053C1803.82 494.059 1798.49 525.73 1787.82 539.376C1772.87 557.244 1735.33 562.371 1718.68 550.874C1697.21 540.263 1674.88 487 1681.15 469.304C1669.76 465.695 1658.51 466.779 1646.69 468.617C1649.4 476.259 1654.07 495.072 1647.35 496.703C1648.58 534.054 1614.59 557.359 1583.25 542.037C1556.13 529.305 1546.65 489.005 1549.96 464.545C1546.59 471.069 1518.24 463.966 1531.45 457.834" fill="black"/>
<path fill-rule="evenodd" clip-rule="evenodd" d="M226.486 1089.11L225.11 1105.5L224.084 1103.58C223.938 1136.64 219.034 1170.06 213.626 1203.05C199.488 1191.43 187.867 1181.19 191.223 1161.37C199.725 1133.12 210.628 1105.56 219.442 1077.46L220.92 1084.83L226.738 1086L226.486 1089.11ZM1236.15 2830.75C1233.55 2819.26 1230.71 2807.1 1228.04 2795.58C1227.78 2794.61 1225.34 2794.39 1224.56 2794.13C1210.49 2759.7 1198.17 2751.86 1170.91 2747.17C1126.96 2739.23 1083.59 2722.01 1042.07 2696.5C1043.04 2692.7 1045.69 2686.14 1048.1 2679.14C1047.78 2679.25 1047.46 2679.34 1047.14 2679.4C1046.58 2679.51 1046.06 2679.54 1045.56 2679.5C1042.74 2686.11 1039.68 2691.91 1038.06 2694.05C1032.87 2690.71 1027.1 2687.03 1022.02 2683.48L1022.04 2683.42C1017.52 2680.29 1011.93 2676.42 1007.5 2674.01C1006.67 2669.43 999.95 2668.01 996.441 2664.98C989.629 2660.12 985.85 2657.62 979.602 2663.82C966.125 2646.34 955.27 2627.85 944.599 2603.95C937.921 2589.98 934.641 2574.51 925.662 2562.04C925.834 2561.94 931.542 2560.16 931.682 2560C829.647 2334.21 813.299 2082.97 791.534 1841.61C786.734 1787.64 781.711 1733.17 772.352 1680.78C771.068 1672.85 769.915 1665.04 765.136 1658.71C822.476 1611.51 823.035 1520.04 795.261 1452.19C859.12 1280.11 733.946 1097.35 743.183 921.739C748.361 802.617 726.895 664.592 592.185 636.011C575.48 626.406 555.453 624.972 539.513 624.713C525.161 617.471 522.9 601.482 517.791 588.338L512.798 588.37C511.333 582.421 509.883 575.898 508.623 569.905C506.729 566.105 507.851 561.152 501.883 562.205C488.356 542.643 380.102 532.808 378.872 564.307C374.964 566.608 374.193 571.101 373.283 576.557C367.279 615.243 325.921 646.094 288.656 639.872L288.053 639.328C129.405 633.455 66.9503 746.193 35.9491 899.837C11.7269 1019.22 -3.66915 1148.59 15.2992 1268.17C33.831 1322.36 89.9632 1348.43 133.39 1381.82C128.384 1394.42 127.916 1408.32 127.764 1421.96C127.191 1437.7 126.045 1453.56 124.651 1469.09C121.795 1488.77 117.172 1522.65 143.993 1524.95C154.383 1760.17 176.085 1994.78 142.924 2230.69C115.395 2361.16 125.933 2519.02 159.971 2646.67C161.935 2652.98 166.979 2658.65 173.421 2656.64C176.693 2658.75 179.249 2660.07 181.954 2658.08C183.548 2661.03 185.295 2663.86 187.183 2666.61C187.898 2701.68 191.878 2736.09 190.066 2771.39C187.364 2771.07 181.42 2768.1 179.111 2770.04L178.78 2772.73L176.581 2773.48C171.979 2786.45 169.091 2800.07 166.954 2811.05C157.641 2829.88 145.743 2863.2 152.378 2884.17C152.056 2884.55 150.269 2886.62 149.988 2886.94C148.403 2887.84 148.11 2889.06 147.724 2890.45C143.204 2892.14 142.74 2897.3 142.274 2902.58C140.01 2915.36 143.374 2926.98 144.529 2939.49L144.598 2939.4C144.598 2939.4 148.392 2943.8 148.398 2943.8C196.091 2946.7 243.055 2947.44 290.536 2949.15C294.119 2942.29 295.198 2933.03 297.891 2925.5C354.181 2966.63 451.71 2950.9 522.415 2940.79C551.129 2936.66 578.257 2932.75 602.308 2931.45C603.873 2931.24 603.985 2930.56 604.026 2929.94C604.262 2920.52 606.035 2910.87 605.15 2901.73C610.116 2896.91 607.853 2888.13 604.44 2880.42C591.89 2853.27 557.778 2850.3 530.141 2845.66C478.147 2835.58 436.338 2816.62 402.516 2787.64C404.791 2785.59 406.857 2783.57 408.739 2781.59C408.004 2781.1 407.269 2780.61 406.536 2780.12C404.756 2779.34 403.054 2778.54 401.493 2777.53C400.698 2777.98 399.702 2778.07 398.718 2777.52C395.319 2775.61 392.548 2772.81 389.319 2770.66C388.679 2771.58 388.035 2772.52 387.388 2773.5C384.291 2770.24 380.786 2766.55 377.723 2763.13C377.613 2762.19 377.862 2759.83 376.708 2759.57C368.001 2760.45 357.915 2763.38 348.806 2766.64C338.51 2732.84 332.547 2696.27 333.235 2661.73C343.36 2661.73 352.227 2661.63 359.777 2656.83C361.841 2657.38 364.716 2658.58 365.25 2655.34C368.314 2642.11 369.11 2628.1 369.881 2614.56C385.552 2358.38 409.429 2152.52 488.625 1935.51C496.23 1965.64 508.998 1996.98 520.618 2026.98C573.481 2152.34 611.566 2287.53 644.212 2419.11C657.056 2468.36 671.018 2522.48 684.809 2571.22C690.157 2594.65 701.028 2603.23 723.81 2603.04C741.365 2603.87 758.98 2603.61 776.606 2602.37C800.636 2624.26 810.489 2653.8 817.509 2680.39C811.66 2684.74 802.378 2683.1 795.539 2684.54C789.643 2694.03 791.683 2707.3 791.821 2719.01C792.747 2734.23 791.958 2750.55 796.393 2764.92C797.185 2780.63 797.283 2797.85 798.466 2816.11C785.439 2823.66 787.825 2840.33 792.152 2856.29C794.085 2860.34 864.101 2859.54 881.469 2859.37C901.878 2858.18 930.982 2863.39 937.674 2841.04C986.264 2868 1060.18 2858.89 1116.79 2850.96C1157.88 2845.96 1195.09 2841.3 1235.44 2832.82C1235.86 2832.64 1236.44 2831.34 1236.15 2830.75V2830.75Z" fill="white"/>
<path fill-rule="evenodd" clip-rule="evenodd" d="M795.573 2684.1C806.522 2690.17 815.281 2699.64 826.775 2704.9C876.521 2729.8 939.497 2716.39 977.402 2676.46C982.749 2676.57 987.04 2670.72 985.907 2665.46C997.279 2666.46 1006.24 2675.22 1014.71 2682.13C1013.55 2690.13 1014.09 2698.16 1017.32 2705.82C1017.58 2706.43 1018.67 2706.68 1018.81 2705.82C1019.79 2700 1020.8 2694.13 1022.13 2688.38C1024.51 2690.33 1026.94 2692.19 1029.41 2694.04C1029.62 2698.82 1034.62 2702.31 1038.7 2700.66C1072.19 2723.37 1110.05 2739.49 1149.36 2748.91C1180.13 2755.34 1196.1 2754.67 1209.75 2787.04C1204.69 2788.06 1199.72 2790.51 1192.11 2792.36C1063.5 2807.36 933.697 2791.2 804.875 2802.14C803.152 2773.84 801.612 2745.56 799.665 2717.28C798.98 2707.1 798.681 2696.83 794.727 2687.32C794.805 2686.16 794.989 2685.01 795.359 2684.12C795.427 2684.11 795.495 2684.11 795.573 2684.1ZM800.375 2614.43C800.791 2612.54 799.312 2610.95 797.848 2609.71C796.166 2606.88 794.251 2604.21 791.977 2601.95C836.648 2598 879.479 2584.27 921.442 2570.11C926.512 2606.16 944.506 2638.89 964.785 2668.63C930.366 2704.48 874.318 2713.21 829.264 2693.61C832.269 2686.99 825.821 2677.42 824.181 2670.58C818.53 2654.18 810.792 2638.52 804.088 2622.59C802.941 2619.96 801.736 2617.18 800.375 2614.43ZM791.18 2613.81C791.481 2614.02 791.792 2614.24 792.093 2614.44C792.278 2614.88 792.453 2615.33 792.638 2615.78C792.171 2615.27 791.695 2614.78 791.218 2614.29C791.209 2614.13 791.199 2613.97 791.18 2613.81ZM378.209 2762.48C379.104 2764.06 380.037 2765.62 381.009 2767.15C379.139 2768.32 365.043 2798.22 372.922 2793.44C377.296 2787.22 381.67 2780.95 386.384 2774.96C387.696 2776.71 389.048 2778.42 390.447 2780.1C385.597 2783.59 387.483 2791.75 393.908 2791.77C396.206 2791.78 397.987 2791.31 400.129 2790.51C428.883 2818 466.685 2834.26 504.739 2844.34C536.27 2854.21 595.662 2849.17 597.267 2894.07C594.06 2893.99 590.622 2895.03 588.179 2897.34C448.968 2944.4 305.142 2894.79 164.731 2881.05C166.668 2877.16 164.201 2870.15 159.064 2870.45C159.015 2839 167.716 2807.78 180.313 2779.16C251.754 2847.24 302.908 2780.64 374.973 2764.36C376.363 2764.08 377.432 2763.39 378.209 2762.48ZM415.04 2750.25C414.834 2750.25 414.309 2750.19 414.107 2750.25C411.207 2760.02 405.043 2768.83 397.194 2775.14C395.104 2773.23 393.053 2771.28 391.041 2769.3C396.28 2763.22 402.015 2757.6 408.654 2752.86C410.515 2751.58 412.69 2750.11 415.04 2750.25ZM137.252 1492.14C135.392 1485.34 137.496 1478.23 137.708 1471.32C139.303 1452.52 141.47 1433.57 141.052 1414.68C140.538 1407.88 140.394 1401.31 141.908 1394.67C141.447 1392.89 139.855 1397.1 139.38 1397.5C139.283 1396.96 139.157 1396.43 139.05 1395.9C139.808 1395.03 140.615 1394.27 141.49 1393.55C178.825 1424.39 215.009 1456.62 249.901 1490.2C253.517 1493.67 258.853 1493.46 262.499 1490.2C270.061 1483.45 277.896 1477.11 285.964 1471.14C288.753 1480.24 293.021 1488.68 297.9 1496.83C266.009 1500.72 234.54 1492.26 202.874 1489.79C181.64 1488.16 160.326 1489.16 139.235 1491.96C138.69 1492.04 137.835 1492.04 137.252 1492.14ZM207.559 1190.14C196.423 1180.53 191.757 1174.24 193.125 1159.1C199.712 1136.73 208.25 1114.98 215.54 1092.84C216.478 1097.52 216.557 1102.31 216.949 1107.05C214.373 1134.81 212.378 1162.67 207.559 1190.14ZM218.883 1085.07C218.727 1084.77 218.572 1084.48 218.407 1084.2C218.65 1083.45 218.893 1082.71 219.136 1081.96C219.048 1083 218.97 1084.03 218.883 1085.07ZM18.0897 1255.95C18.1577 1244.08 16.6025 1232.13 15.9123 1220.29C10.2172 1120.67 17.2003 1020.32 36.7236 922.456C62.4709 784.088 110.169 645.142 274.989 642.32C280.771 647.547 282.801 655.611 286.022 662.54C295.735 681.743 310.003 698.371 326.361 712.262C394.161 767.374 573.463 830.291 589.212 696.77C589.249 692.623 588.967 688.246 588.296 683.868C589.783 679.275 589.093 673.519 588.043 668.354C588.753 664.657 587.664 660.414 585.788 656.424C586.099 656.163 586.391 655.871 586.644 655.551C579.245 641.444 566.56 636.828 552.476 631.516C550.533 629.574 552.253 625.555 555.237 626.604C561.798 628.904 568.544 630.456 575.387 631.631C576.34 631.797 576.943 632.292 577.244 632.922C737.085 681.242 731.859 812.725 729.403 951.696C731.823 1101.42 818.682 1241.99 793.338 1393.27C763.421 1210.72 704.575 1033.19 691.219 847.816C690.215 831.192 687.744 814.777 685.868 798.24C684.91 791.275 683.864 771.766 681.476 775.029C670.067 838.783 678.979 904.288 688.551 967.76C709.656 1096.75 744.526 1222.96 768.123 1351.46C781.143 1408.59 782.542 1468.66 725.166 1501.69C663.15 1535.78 585.988 1528.93 518.98 1515.12C513.634 1513.86 509.59 1516.64 507.666 1520.46C494.584 1493.09 465.225 1479.61 446.116 1457.16C426.98 1432.66 414.46 1403.7 396.863 1378.1C398.652 1362.53 384.154 1337.98 367.605 1337.65C325.816 1294.08 280.617 1253.75 231.773 1218.22C231.063 1215.98 229.158 1214.72 227.816 1212.71C225.823 1209.32 224.528 1205.1 224.841 1201.19C232.257 1158.41 233.989 1114.02 222.392 1071.79C243.07 1007.63 255.653 941.366 267.456 875.152C268.559 871.949 263.19 870.448 262.392 873.754C261.002 880.782 259.67 887.82 258.367 894.858C234.534 982.712 206.142 1069.11 175.169 1154.68C171.555 1166.61 168.172 1178.52 170.213 1191.01C171.982 1198.3 183.042 1197.59 184.308 1190.13C186.783 1189.4 188.972 1190.05 190.908 1191.52C190.928 1191.49 190.937 1191.46 190.957 1191.44C205.776 1212.6 225.416 1230.09 245.4 1246.65C279.634 1275.72 313.21 1305.56 344.83 1337.46C352.343 1347.15 377.565 1364.47 379.348 1377.58C376.041 1400.93 351.843 1412 332.845 1421.12C305.206 1434.54 279.285 1451.52 256.297 1471.88C206.253 1425.67 154.114 1381.61 99.0117 1341.51C67.4108 1318.8 28.2689 1296.28 18.0897 1255.95ZM578.965 657.676C579.101 658.424 579.227 659.172 579.354 659.909C578.761 659.084 578.148 658.269 577.497 657.492C577.983 657.56 578.469 657.619 578.965 657.676ZM759.453 1644C758.918 1642.41 758.354 1640.84 757.79 1639.27C759.253 1632.25 761.458 1625.67 762.126 1618.29C776.298 1603.91 785.095 1584.32 787.447 1564.34C788.147 1558.47 788.555 1552.84 784.239 1548.24C782.655 1546.55 779.292 1546.37 777.736 1548.24C772.449 1554.6 773.819 1564.18 771.933 1571.94C767.967 1588.37 758.786 1603.86 745.63 1614.31C738.221 1620.36 728.761 1627.99 720.28 1630.32C726.898 1604.48 741.462 1579.89 743.393 1552.67C743.949 1544.69 743.443 1537.23 741.489 1529.46C740.037 1524.62 737.852 1520.42 739.574 1515.38C759.587 1502.48 777.27 1483.9 786.251 1461.45C789.447 1461.8 792.731 1460.38 794.174 1456.83C801.357 1509.92 811.048 1565.98 783.297 1614.66C777.078 1625.7 769.053 1635.71 759.453 1644ZM474.053 1521.07C466.24 1513.07 459.203 1504.42 452.017 1495.86C444.387 1487.96 431.375 1500.28 444.843 1511.84C468.315 1541.13 467.48 1577.66 456.333 1611.59C454.408 1602.87 452.872 1594.21 449.985 1585.66C442.821 1564.45 431.954 1544.68 418.394 1526.9C415.128 1522.62 406.671 1524.79 408.82 1530.93C415.595 1550.25 418.657 1571.64 415.585 1592.02C414.146 1601.53 410.044 1610.57 409.49 1620.22C409.306 1623.55 411.288 1632 406.01 1630.09C403.979 1629.35 402.171 1625.05 401.306 1622.31C396.995 1608.18 397.902 1593.2 396.251 1578.67C394.2 1559.78 391.041 1540.37 377.481 1526.02C374.507 1522.87 370.113 1524.9 368.704 1528.33C357.984 1554.17 369.074 1586.21 350.011 1608.87C349.059 1609.92 343.615 1615.23 342.731 1614.53C341.234 1613.34 342.847 1606.65 343.1 1605.1C356.207 1551 311.659 1506.09 295.742 1464.15C327.43 1438.12 381.679 1429.8 395.444 1387.13C408.286 1415.46 419.416 1445.43 439.769 1469.46C459.733 1493.32 497.166 1509.07 498.713 1543.91C489.183 1538.38 481.757 1528.83 474.053 1521.07ZM186.806 2652.33C211.297 2652.71 235.906 2660.3 260.185 2659.9C282.609 2660.69 305.062 2659.66 327.45 2658.31C318.991 2691.64 322.251 2730.73 333.438 2763.06C289.916 2783.39 250.287 2812.43 202.553 2784.07C202.028 2779.88 200.599 2775.72 199.219 2771.64C199.768 2769.38 200.186 2766.44 198.121 2764.65C198.234 2726.97 194.342 2689.26 186.806 2652.33ZM1043.65 2652.83C1046.54 2655.88 1036.24 2679.62 1033.76 2683.64C1030.82 2681.75 1027.92 2679.89 1025.03 2677.91C1027.33 2671.08 1030.42 2664.55 1034.91 2658.58C1036.12 2656.97 1040.92 2650.48 1043.65 2652.83ZM1230.01 2790.83C1229.54 2788.77 1227.57 2786.9 1225.42 2786.38C1219.23 2770.42 1209.34 2754.46 1194.03 2746.06C1184.79 2741.27 1174.54 2739.89 1164.46 2737.89C1122.16 2729.65 1081.95 2712.9 1045.21 2690.75C1048.82 2680.55 1052.2 2670.43 1054.37 2659.87C1057.9 2648.04 1048.48 2638.15 1036.68 2643.11C1026.29 2647.77 1020.02 2662.05 1016.93 2672.27C1014.31 2670.48 1011.55 2668.68 1008.71 2667.05C1007.23 2662.93 1002.35 2661.17 998.593 2658.83C992.732 2654.93 984.859 2648.09 977.81 2653.38C965.069 2636.41 954.857 2617.59 946.239 2598.25C939.468 2584.62 936.888 2569.11 927.401 2556.94C928.732 2548.51 923.569 2540.1 920.121 2532.6C916.922 2525.76 913.87 2518.84 910.993 2511.85C851.289 2349.58 830.047 2175.59 804.987 2005.32C786.962 1890.68 789.7 1773.06 764.264 1659.73C826.053 1609.55 824.588 1516.93 797.692 1448.47C855.146 1288.12 757.733 1128.5 745.96 968.78C742.18 852.218 761.599 712.251 640.266 646.447C624.903 637.981 608.4 631.148 591.134 627.759C575.159 618.787 556.12 616.6 538.032 616.246C527.825 610.71 524.927 598.003 521.263 587.794C520.263 584.115 518.018 579.97 517.619 576.203C517.58 575.873 517.075 575.737 516.987 576.116C502.82 613.41 538.545 652.378 574.892 657.075C591.278 714.793 556.811 766.251 494.697 762.981C422.777 757.595 321.108 717.96 295.11 645.009C306.574 644.796 317.484 641.223 328.296 637.825C330.794 636.683 334.272 636.854 335.809 634.321C360.662 621.846 379.833 598.381 383.974 570.795C383.799 570.932 383.498 571.136 383.021 571.437C383.449 571.165 383.838 570.874 384.188 570.573C384.538 566.34 384.586 562.108 384.178 557.866C382.273 556.148 379.571 555.216 376.431 555.847C366.866 557.769 366.672 567.835 365.136 575.388C363.756 582.192 361.17 588.454 357.69 594.453C343.515 618.512 316.397 635.251 288.024 631.613C286.731 630.448 284.914 629.875 283.154 630.457C283.281 630.564 283.417 630.671 283.543 630.768C116.912 624.66 57.462 752.495 28.4438 895.152C5.25584 999.837 -3.89394 1107.64 1.50669 1214.73C2.82769 1227.11 1.19759 1260.85 9.29271 1268.14C27.0849 1322.17 82.8418 1347.57 124.887 1379.89C120.452 1392.59 120.354 1406.12 120.124 1419.43C119.463 1434.64 118.443 1449.84 117.053 1465.01C115.799 1478.7 112.212 1494.07 117.179 1507.39C120.348 1515.79 127.442 1524.56 136.824 1525.67C139.347 1548.64 140.167 1571.88 142.151 1594.86C144.522 1805.36 168.619 2016.97 135.353 2226.32C123.096 2305.82 113.008 2386.34 121.359 2466.79C127.626 2526.56 139.479 2585.68 152.502 2644.28C154.875 2652.02 161.008 2659.39 169.659 2658.06C172.641 2659.86 176.272 2661.25 179.506 2659.68C179.96 2697.12 184.817 2734.5 182.131 2771.96C180.332 2770.88 178.515 2769.82 176.687 2768.79C175.636 2766.55 173.534 2764.38 171.001 2765.73C170.447 2765.48 169.727 2765.96 169.854 2766.53C165.234 2779.04 162.122 2792.65 159.559 2805.8C150.563 2823.09 145.105 2842.36 143.288 2861.83C142.397 2869.43 141.095 2879.25 147.779 2884.69C145.458 2884.77 142.574 2884.96 141.878 2887.66C138.59 2895.71 133.218 2945.23 145.426 2945.01C192.726 2947.9 240.239 2948.66 287.596 2950.36C290.172 2950.46 292.632 2948.47 293.293 2946.03C294.799 2940.51 296.423 2935.02 297.997 2929.51C373.184 2970.72 552.737 2946.7 598.036 2937.5C607.367 2937.5 607.972 2908.48 607.367 2899.63C612.636 2892.96 609.331 2881.8 606.094 2874.75C592.436 2845.16 556.661 2841.99 528.302 2837.26C484.543 2828.84 441.671 2812.33 407.079 2783.75C416.415 2774.9 427.48 2760.29 426.288 2746.95C425.042 2741.15 419.823 2737.93 414.107 2738.28C401.09 2739.36 391.613 2753.04 384.275 2762.43C382.739 2760.81 381.233 2759.17 379.736 2757.52C379.571 2754.04 377.247 2750.64 373.184 2751.13C365.136 2752.09 357.311 2754.05 349.651 2756.65C347.756 2747.85 344.256 2739.25 342.303 2730.4C337.144 2708.23 335.928 2685.57 335.44 2662.87C344.841 2662.72 350.241 2662.27 357.544 2658.4C361.51 2659.57 366.001 2658.1 367.226 2652.79C371.221 2635.54 371.435 2617.72 372.65 2600.09C386.159 2376.56 410.501 2151.43 488.166 1939.88C496.267 1965.38 506.934 1989.97 516.054 2015.11C579.766 2180.93 619.379 2354.41 665.408 2525.61C669.305 2539.99 673.262 2554.35 677.315 2568.68C682.974 2593.1 694.831 2604.36 720.824 2604.25C737.892 2605.05 754.995 2604.85 772.05 2603.72C792.2 2622.75 801.956 2648.17 809.016 2674.19C803.872 2676.75 788.655 2672.98 787.981 2679.94C781.601 2690.37 784.322 2703.84 784.199 2715.5C785.146 2731.15 784.338 2747.73 788.991 2762.72C789.252 2778.51 789.874 2794.31 790.713 2810.09C776.796 2820.12 780.962 2840.1 784.783 2854.22C783.994 2864.23 866.925 2859.73 878.74 2860.6C898.193 2859 926.856 2865.05 937.15 2843.91C1001.67 2875.63 1091.06 2853.04 1160.54 2846.61C1185.02 2843.03 1209.39 2838.79 1233.64 2833.94C1237.16 2833.23 1238.86 2829.22 1238.13 2826.04C1235.47 2814.29 1232.73 2802.57 1230.01 2790.83Z" fill="black"/>
<path fill-rule="evenodd" clip-rule="evenodd" d="M600.236 364.804C593.903 287.563 574.619 219.151 484.01 216.234C443.12 216.599 401.379 225.291 363.777 241.371C272.383 287.218 243.384 454.745 323.906 522.182C323.427 522.455 323.312 523.242 323.877 523.622C340.513 534.82 359.004 544.032 377.523 551.774C426.854 572.64 484.927 581.703 535.237 559.069C612.014 526.383 613.165 435.434 600.236 364.804V364.804Z" fill="white"/>
<path fill-rule="evenodd" clip-rule="evenodd" d="M751.361 328.802C754.516 325.959 756.869 322.229 758.059 318.048C759.148 314.235 759.222 310.072 758.069 306.269C756.832 302.188 754.166 298.939 754.765 294.693C754.83 294.277 754.913 293.844 755.042 293.41C757.349 285.416 763.023 279.646 760.993 270.784C760.421 268.283 759.342 266.03 757.838 264.258C758.004 262.338 758.152 260.399 758.272 258.461C761.602 250.66 761.482 241.392 757.93 233.712C757.497 229.78 756.841 225.884 755.919 222.053C756.343 218.665 755.753 214.936 754.664 211.973C752.751 206.759 750.387 201.621 747.822 196.568C748.124 195.186 747.989 193.726 747.226 192.427C745.841 190.067 744.009 187.991 742.137 185.963C740.813 183.597 739.48 181.251 738.158 178.935C737.545 177.87 736.869 176.69 736.123 175.439C738.155 171.667 739.24 167.991 737.091 163.556C736.284 161.89 734.064 160.661 732.236 160.77C730.238 160.889 728.222 160.978 726.195 161.055C722.407 156.478 718.114 152.369 713.513 150.004C708.854 146.054 704.13 142.177 699.535 138.216C698.234 137.09 696.924 135.964 695.623 134.838C695.614 134.81 695.605 134.773 695.595 134.745C694.636 131.247 693.556 127.794 692.477 124.324C691.803 122.173 691.6 119.92 689.506 118.748C685.133 116.302 678.406 115.914 673.387 115.499C672.889 115.056 672.391 114.622 671.892 114.179C674.171 108.105 673.765 101.652 670.896 95.5687C669.918 93.5009 666.523 92.5686 664.659 93.9348C660.359 97.0918 655.257 98.2088 650.21 97.7472C642.792 92.0424 612.87 66.2451 608.246 63.522C608.189 63.4241 608.143 63.3263 608.082 63.2293C605.483 59.0772 602.327 55.7429 598.778 53.0696C598.272 52.5406 597.765 52.0108 597.259 51.4809C597.704 48.3156 598.877 45.2591 600.765 42.7021C600.968 42.4067 601.198 42.1206 601.429 41.8436C604.732 37.9112 600.7 32.8525 596.087 34.9111C595.755 35.0588 595.423 35.2065 595.09 35.3634C591.544 36.9456 587.62 38.6654 583.533 40.1165C582.038 39.5562 580.513 39.0485 579.123 38.4891L564.235 32.5008C561.784 31.515 559.193 30.6795 556.823 29.521C555.996 24.0202 550.486 20.4127 544.764 20.601C545.094 19.545 545.587 18.5194 546.282 17.5474C546.485 17.2612 546.706 16.9843 546.937 16.7166C549.88 13.2918 545.95 6.94083 541.742 9.9871C541.447 10.1994 541.143 10.4117 540.847 10.624C539.678 11.4447 538.482 12.2146 537.272 12.9604C535.335 12.1149 533.154 11.9219 530.872 12.8164C525.817 14.7965 521.158 16.8098 516.708 19.9133C516.527 20.0398 516.34 20.1459 516.157 20.265C513.948 17.5954 510.441 15.8101 507.283 15.8295C507.218 15.8295 507.168 15.8285 507.111 15.8276C504.75 12.2284 500.422 10.1366 496.242 10.6453C496.525 5.48047 491.357 0.871383 486.652 0.311055C481.155 -0.342508 476.2 2.85053 474.551 8.21565C474.091 9.70924 473.633 11.2038 473.173 12.6983C468.905 10.5428 464.401 8.89137 459.695 8.06703C448.98 6.18942 438.503 8.18888 428.178 11.165C427.146 11.4622 426.116 11.7678 425.085 12.0724C423.613 10.3656 422.231 8.61813 420.911 6.98699C418.632 4.1715 413.161 6.42389 413.53 10.0425C413.786 12.5395 412.772 14.3359 411.14 15.6125C409.347 15.8747 407.615 15.9541 405.002 15.9015C401.548 15.8313 399.977 15.7233 396.366 14.3146C394.683 13.6592 392.587 11.9358 391.607 10.3887C387.847 4.45582 378.296 2.85792 373.748 8.51474C368.961 6.41835 362.917 9.30954 360.26 13.386C358.87 15.5175 355.969 16.7092 352.317 17.7338C349.576 18.5019 346.773 19.0834 343.957 19.5921C342.702 17.8889 340.06 16.747 338.121 18.1751C336.808 19.1453 335.533 20.1413 334.275 21.1623C324.578 22.4989 314.932 22.5469 305.686 18.764C297.858 15.5608 290.671 24.3092 291.962 31.6534C289.695 32.8341 287.236 33.6196 284.996 34.8566C280.111 37.5576 276.099 41.827 273.654 46.8432C273.216 47.7414 272.82 48.6534 272.443 49.5701C270.617 51.0572 268.811 52.584 267.049 54.1949C264.115 52.6902 261.19 51.1855 258.256 49.6808C256.06 48.5547 252.36 49.3393 251.926 52.2563C251.216 57.0565 249.491 61.0351 247.027 64.3675C239.018 68.5769 231.314 73.3032 223.942 78.5557C215.463 81.2143 206.449 82.7651 199.04 84.5098C196.502 85.1098 195.118 88.4238 196.548 90.63C198.062 92.9655 199.575 95.301 201.079 97.6364C196.862 101.754 192.904 106.055 189.167 110.505C178.769 122.874 170.068 136.435 162.281 150.798C159.199 152.045 156.118 153.282 153.036 154.528C150.065 155.728 148.727 159.18 151.135 161.719C152.279 162.928 153.304 164.202 154.18 165.54C149.816 172.768 144.677 179.359 137.489 183.68C135.302 184.99 133.66 187.049 132.784 189.384C132.036 189.883 131.298 190.418 130.569 190.963C128.539 192.495 127.312 195.837 129.693 197.822C131.363 199.225 132.931 200.886 134.26 202.723C134.546 203.766 134.841 204.819 135.136 205.862C128.456 212.01 122.902 219.155 118.732 227.167C117.744 227.01 116.729 227.112 115.908 227.721C108.453 233.232 108.232 242.011 111.23 249.857C109.422 261.682 110.584 273.803 114.072 285.259C109.487 289.837 106.728 296.447 105.602 302.816C103.618 314.004 103.48 331.211 102.963 342.63C97.9625 347.458 94.4011 353.707 92.4174 360.428C90.7473 361.258 89.0773 362.089 87.4073 362.92C85.9218 363.658 84.8331 365.606 84.9254 367.249C85.3498 375.197 88.6252 381.474 92.9709 387.161C94.5118 391.546 96.7908 395.589 99.7802 399.466C101.847 402.124 103.868 404.672 105.648 407.543C105.833 407.829 105.944 408.097 106.027 408.282C105.325 409.039 104.744 410.294 104.237 411.189C99.9739 418.703 99.9093 427.51 105.962 434.055C103.683 435.919 103.609 439.686 105.621 441.994C118.713 456.957 129.628 475.152 147.795 483.1C147.878 483.238 147.952 483.377 148.017 483.515C144.335 492.377 143.837 496.983 146.845 506.14C146.863 506.224 146.891 506.297 146.919 506.38C148.524 511.181 151.477 518.87 156.8 520.366C158.48 520.836 160.131 521.049 161.764 521.039C165.99 525.11 170.207 529.191 174.423 533.271C174.792 535.292 175.023 537.332 175.097 539.391C175.217 542.834 178.455 545.622 181.943 544.607C183.17 544.247 189.961 537.646 191.206 537.683C191.834 538.311 192.443 538.939 193.052 539.576C195.294 541.929 198.403 545.64 198.661 548.105C199.16 552.748 202.204 558.065 207.122 559.007C208.967 560.881 211.92 561.444 214.18 558.998C214.328 558.841 214.476 558.684 214.633 558.545C214.872 558.518 215.103 558.49 215.343 558.462C216.432 561.712 217.52 564.961 218.618 568.201C220.768 574.589 228.98 578.697 234.811 574.968C235.752 575.531 236.675 576.131 237.597 576.731C239 577.626 240.421 578.54 241.879 579.399C241.962 579.639 242.045 579.879 242.119 580.109C243.06 582.98 246.972 584.522 249.38 582.869C250.127 583.109 250.893 583.303 251.668 583.46C255.737 584.263 259.834 584.042 263.764 582.685C266.578 581.725 269.263 579.888 272.289 579.639C272.479 579.623 272.673 579.636 272.865 579.63C275.334 584.691 280.976 589.051 285.423 590.533C291.246 592.474 297.207 591.78 302.51 589.403C303.941 592.266 305.739 594.976 307.886 597.482C309.076 598.867 311.226 598.572 312.453 597.482C314.783 595.415 317.099 593.338 319.411 591.259C321.085 590.613 322.774 589.839 324.537 589.119C330.049 586.866 336.091 585.933 341.189 582.678C343.609 581.133 345.885 579.161 347.76 576.877C351.292 574.836 354.537 572.295 357.46 569.383C358.918 569.392 360.44 569.05 361.916 568.303C368.089 565.164 371.337 558.776 371.623 552.241C376.624 540.471 379.576 527.917 380.388 515.067C380.646 510.848 380.692 506.593 380.37 502.374C380.148 499.402 379.401 497.417 378.275 494.731C377.897 493.854 377.555 493.051 377.288 492.165C377.352 489.321 377.389 486.478 377.426 483.644C378.192 481.253 379.558 479.029 381.458 477.155C384.402 474.256 385.749 468.238 383.073 464.656C381.329 462.339 379.594 460.022 377.851 457.705C378.34 447.763 380.72 431.941 375.443 430.279C375.655 428.802 376.107 427.344 376.365 425.876C377.602 418.823 376.863 412.519 373.117 406.352C372.333 405.069 371.669 403.934 371.124 402.826C370.783 400.795 370.442 398.764 370.1 396.733C369.574 393.604 369.058 390.447 368.615 387.272C368.384 383.228 368.172 379.185 367.941 375.133C367.729 371.403 367.489 367.674 367.24 363.935C367.342 362.264 367.489 360.594 367.701 358.923C368.965 348.962 373.034 345.279 380.083 338.356C381.191 338.181 382.289 337.987 383.368 337.765C388.397 336.722 393.656 335.107 398.832 335.688C404.451 336.316 409.479 338.744 414.941 335.642C416.547 334.719 420.081 332.171 420.385 330.149C420.404 330.02 420.431 329.909 420.468 329.826C420.846 329.771 421.336 329.725 421.64 329.716C425.976 329.568 430.119 331.276 434.493 330.805C439.669 330.251 444.3 327.952 447.345 324.546C451.248 325.506 455.234 325.94 459.284 325.405C462.68 324.962 465.725 323.854 468.732 322.211C470.919 321.029 470.227 320.688 472.608 321.648C478.024 323.845 482.923 326.743 489.022 325.239C492.186 324.463 494.917 322.755 497.215 320.457C497.759 319.921 498.682 319.118 499.3 318.361C502.197 319.829 509.486 323.143 510.686 323.438C514.081 324.269 517.679 324.14 520.982 323.032C523.409 322.22 526.38 320.005 528.511 319.552C531.27 318.961 537.397 322.802 540.69 324.122C546.466 326.439 552.584 327.011 558.433 324.62C560.445 323.798 564.357 320.521 565.861 320.549C568.306 323.568 575.133 340.082 577.182 346.11C585.476 370.48 587.626 446.572 583.797 465.985C583.649 466.558 583.493 467.121 583.336 467.693C578.63 484.577 573.731 501.746 565.861 517.476C558.433 532.301 548.164 545.65 533.429 553.745C518.15 562.146 500.213 564.352 483.034 563.216C471.971 562.496 461.093 560.272 450.39 557.484C444.799 556.035 439.254 554.419 433.736 552.739C431.328 552.01 428.883 551.327 426.521 550.477C422.35 548.973 420.164 548.853 416.169 550.782C412.533 552.536 411.601 557.715 413.493 560.973C416.575 566.29 422.221 566.66 427.674 568.21C433.229 569.789 438.801 571.303 444.411 572.66C455.16 575.245 466.084 577.229 477.101 578.143C496.827 579.795 517.153 577.248 535.108 568.635C537.138 567.657 539.094 566.613 540.986 565.487C540.284 566.466 539.574 567.444 538.854 568.414C536.861 571.1 538.338 575.669 541.133 577.137C542.019 577.598 542.905 578.042 543.8 578.475C543.92 578.762 544.049 579.048 544.197 579.334C546.752 584.466 552.104 587.494 557.557 588.805C564.034 590.356 571.286 589.257 577.874 589.063C583.982 588.879 590.09 588.694 596.188 588.51C597.628 588.473 599.067 588.427 600.506 588.38C607.758 588.159 615.001 587.947 622.244 587.725C628.703 587.531 628.398 588.03 634.46 585.445C637.164 584.282 639.378 582.639 641.242 580.451C642.404 579.934 643.53 579.343 644.609 578.669C648.079 576.509 651.16 573.611 654.002 570.417C658.828 571.94 665.591 570.527 666.532 564.463C668.045 554.761 680.648 550.616 686.535 543.6C691.287 537.942 694.682 530.529 694.507 523.412C706.483 517.615 712.997 502.337 714.519 489.377C715.23 483.367 715.119 476.933 716.143 470.822C716.595 470.333 717.001 469.816 717.342 469.262C720.35 464.397 722.971 459.385 725.277 454.252C728.414 451.991 732.188 450.597 736.137 450.366C745.843 449.803 747.67 436.704 738.416 433.547C738.37 433.529 738.333 433.519 738.287 433.501C740.796 427.224 740.584 419.793 737.539 413.848C737.669 413.202 737.789 412.565 737.908 411.919C743.103 406.334 746.083 398.57 745.751 391.01C748.122 389.339 750.78 388.047 753.686 387.244C758.179 386.007 758.207 380.524 754.885 378.068C753.548 377.08 752.44 375.927 751.518 374.653C753.815 367.748 752.911 359.763 748.215 354.095C751.195 350.273 754.175 346.452 757.155 342.63C759.13 340.101 760.172 335.808 757.155 333.408C755.227 331.866 753.298 330.334 751.361 328.802Z" fill="black"/>
<path fill-rule="evenodd" clip-rule="evenodd" d="M506.166 505.243C507.671 502.611 511.136 500.172 514.306 500.546C528.51 502.222 528.486 519.548 523.001 529.662C518.138 538.631 508.074 543.895 498.001 543.126C487.419 542.318 478.402 536.059 474.434 526.099C471.81 519.511 470.598 507.349 477.578 502.922C477.708 502.839 477.922 502.86 478.025 502.979C481.372 506.897 481.503 512.778 484.434 517.139C487.159 521.196 491.393 524.546 496.353 525.063C500.057 525.45 503.805 524.105 505.254 520.76C506.037 518.95 505.948 517.967 505.653 516.722L505.386 515.639C504.458 511.848 504.041 508.961 506.166 505.243ZM509.963 429.262C517.371 433.792 528.658 444.356 520.689 455.587C511.309 465.49 497.803 454.135 491.147 449C484.976 445.021 478.042 455.256 483.768 459.903C531.86 495.725 551.377 430.447 513.71 423.936C509.562 423.218 508.022 427.861 509.963 429.262ZM431.735 398.198C436.282 391.334 446.661 392.345 449.165 400.489C450.522 404.901 448.648 408.867 448.745 413.273C448.827 416.994 448.584 421.142 447.45 424.746C444.864 432.966 437.517 438.771 428.824 438.53C420.16 438.29 412.528 432.773 408.9 425.003C405.258 417.203 406.029 409.13 408.688 401.199C408.815 400.818 409.312 400.634 409.611 400.954C412.753 404.314 415.054 407.861 417.434 411.624L419.874 415.48C421.738 418.383 424.447 422.093 427.928 421.86L428.451 421.808C429.418 421.724 429.27 421.917 430.016 420.591C430.361 419.977 430.298 418.836 430.465 418.112L430.523 417.867V417.867L430.492 417.735C430.418 417.384 430.345 416.723 430.285 415.576L430.273 415.323C430.021 409.956 428.513 403.061 431.735 398.198ZM546.994 402.767C546.179 393.989 558.446 392.04 562.524 398.535C564.651 401.922 565.27 406.177 565.74 410.208L565.96 412.121C566.443 416.262 566.634 420.569 564.848 424.431C562.034 430.514 555.916 433.729 549.316 433.22C543.013 432.732 537.262 429.056 534.231 423.475C531.528 418.494 528.841 408.771 532.123 403.576C532.322 403.261 532.718 403.221 532.99 403.464C536.092 406.234 536.597 411.287 538.441 414.897C540.343 418.62 543.228 422.248 547.601 422.813C551.784 423.354 553.382 421.055 552.314 417.043C550.938 411.864 547.512 408.34 546.994 402.767ZM435.048 346.01L437.054 345.237C443.927 342.625 453.363 339.606 458.951 345.229C462.398 348.696 463.055 353.803 460.594 358.034C457.613 363.16 452.266 363.286 447.101 364.041C441.228 364.9 435.255 366.532 429.787 368.86C423.627 371.482 417.911 374.751 412.31 378.401C406.987 381.871 401.683 387.541 395.311 388.61C395.051 388.653 394.756 388.541 394.688 388.253C393.241 381.986 397.262 375.819 400.851 370.929C405.193 365.009 410.454 360.151 416.334 355.794C422.009 351.589 428.494 348.55 435.048 346.01ZM559.898 368.293L560.511 368.185C564.678 367.486 568.455 367.647 571.596 370.968C573.994 373.502 574.918 376.785 573.775 380.135C572.721 383.225 570.362 386.365 566.94 387.012C555.384 389.199 542.585 388.838 530.972 387.182C525.659 386.424 520.298 385.496 515.122 384.034L512.741 383.339C508.421 382.098 503.474 380.8 500.336 377.604C499.208 376.455 499.858 374.81 501.208 374.279C506.684 372.121 514.19 373.269 520.029 373.1C526.821 372.905 533.625 372.392 540.385 371.687C546.991 370.996 553.383 369.495 559.898 368.293Z" fill="black"/>
</svg>
