<svg width="1650" height="2479" viewBox="0 0 1650 2479" fill="none" xmlns="http://www.w3.org/2000/svg">
<path fill-rule="evenodd" clip-rule="evenodd" d="M325.845 938.92C314.023 945.555 304.211 950.087 294.966 953.183L281.37 957.735L294.157 964.223C302.842 968.63 311.101 974.25 319.405 981.407L325.814 986.932L328.907 979.056C332.969 968.71 334.946 956.941 334.782 944.076L334.652 933.978L325.845 938.92ZM893.742 972.336C882.678 992.324 869.322 1012 856.405 1031.03C827.897 1073.03 798.418 1116.46 789.341 1168.4C788.282 1174.86 787.827 1197.59 787.827 1197.59L796.277 1194.15C824.495 1182.64 854.434 1174.08 883.386 1165.81C894.577 1162.61 906.147 1159.3 917.488 1155.86C922.106 1154.62 926.699 1153.18 931.143 1151.78C941.924 1148.39 952.109 1145.18 962.817 1144.63L966.077 1144.47L967.708 1141.64C982.461 1116.06 971.397 1091.68 958.728 1068.89C951.118 1052.28 941.33 1036.68 931.862 1021.58C922.049 1005.94 911.902 989.764 904.488 972.835L899.619 961.72L893.742 972.336ZM349.238 1184.23C366.01 1201.83 381.589 1219.71 395.543 1237.37L406.139 1232.5C401.017 1206.4 385.115 1188.02 356.093 1174.64L349.238 1184.23ZM910.324 1577.33C908.645 1577.33 907.07 1577.98 905.89 1579.16C904.693 1580.36 904.036 1581.98 904.041 1583.71L910.324 1583.69V1577.33ZM212.402 2012.38C202.548 1995.44 201.1 1968.86 215.868 1954.45C210.901 1923.32 220.659 1888.54 242.27 1863.76L242.32 1863.83C274.407 1815.7 276.765 1798.55 253.321 1744.75C211.423 1743.14 168.266 1742.66 127.357 1732.86L128.887 1723.7C127.373 1723.3 119.638 1721.27 117.977 1720.84C118.199 1722.54 119.352 1730.32 119.324 1731.87C117.413 1733.97 112.794 1735.91 111.935 1731.79C86.2001 1621.61 63.1681 1513.62 38.1421 1403.6C11.9501 1292.56 -40.7239 1114.96 88.2121 1053.77L85.5501 1042.39C78.4301 1042.39 75.5691 1034.62 72.3051 1023.64C57.7571 984.363 86.0451 945.85 112.498 921.555C148.656 885.296 182.013 845.04 214.282 806.124C306.33 694.028 431.575 544.442 591.672 569.855L591.133 576.458C616.177 579.612 642.326 586.245 667.684 581.625C754.261 566.602 848.451 600.588 901.699 670.369L903.655 657.363C903.839 656.136 904.277 655.001 906.216 655.001C908.753 654.911 910.094 656.99 911.032 658.908C1002.94 695.296 1041.01 813.737 1070.38 894.919C1074.12 908.641 1073.07 912.701 1072.74 913.508L1067.41 916.691C1122.8 990.506 1153.23 1079.29 1179.34 1163.48C1187.97 1185.92 1188.87 1201.47 1174.46 1215.04C1269.5 1272.25 1344.07 1361.4 1301.91 1463.04C1246.88 1561.94 1101.16 1624.69 991.716 1681.49C948.254 1705.08 885.04 1717.64 845.047 1756.27C842.375 1760.22 838.541 1764.08 836.218 1763.76C817.656 1766.51 790.03 1650.37 794.229 1641.07C774.635 1648.09 752.838 1647.72 732.344 1651.38C734.18 1655.42 740.193 1660.89 735.694 1665.39C735.999 1679.03 733.905 1693.77 730.908 1707.68C755.503 1703.73 754.945 1716.65 731.282 1709.81C730.639 1715.84 728.998 1731.19 728.37 1737.02C735.433 1733.91 749.491 1731.72 754.414 1736.59C752.403 1743.07 734.983 1736.97 728.273 1738.89C724.348 1768.05 723.068 1796.71 720.314 1825.79C741.254 1845.77 773.962 1850.5 792.649 1872.11C808.482 1888.56 806.199 1916.16 787.624 1929.39C799.001 1942.76 789.896 1964.95 773.284 1968.57C750.653 1973.87 726.997 1966.55 704.683 1960.4C667.591 1948.16 628.744 1929.09 585.932 1902.09C568.995 1891.52 556.38 1874.91 550.386 1855.32C506.951 1721.21 495.344 1630.09 515.846 1584.35C527.546 1575.5 540.587 1580.96 551.39 1576.13C556.538 1573.82 561.178 1570.72 564.921 1559.73C508.57 1554.19 426.424 1564.49 381.253 1537.44L382.842 1534.05C378.671 1531.39 369.506 1520.23 366.019 1516.64C372.304 1592.38 377.356 1670.07 379.856 1745.54C388.142 1759.5 395.178 1773.95 402.902 1790.07C408.274 1795.35 417.673 1804.41 412.158 1810.41C412.157 1810.41 458.538 1919.2 472.712 1974.2C486.207 1974.77 491.678 1997.67 491.164 2012.88C489.112 2040.56 453.651 2043.49 422.564 2046.21C401.293 2048.44 379.422 2049.6 357.876 2049.6C318.947 2049.63 221.611 2046.95 212.402 2012.38Z" fill="white"/>
<path fill-rule="evenodd" clip-rule="evenodd" d="M764.243 1635.66C748.933 1639.27 733.494 1642.27 718.094 1645.48C714.142 1647.22 694.27 1647.5 697.893 1653.99C697.874 1654.01 697.864 1654.03 697.844 1654.04C701.89 1657.16 707.367 1655.4 712.243 1655.8C674.368 1671.33 648.393 1639.34 655.364 1602.82C656.353 1596.3 657.634 1588.88 660.444 1582.92C661.931 1580.25 672.61 1559.67 674.493 1566.69C673.015 1567.58 677.198 1567.95 676.614 1564.76C806.675 1563.32 774.651 1503.46 786.993 1630.56C779.344 1631.14 771.704 1633.9 764.243 1635.66ZM732.634 1691.15C731.919 1694.34 731.129 1697.59 730.204 1700.73C704.76 1705.16 686.046 1718.08 726.334 1715.64C725.174 1720.4 724.084 1725.18 723.054 1729.98C718.069 1731.9 699.957 1737.98 700.883 1743.78C707.162 1745.19 714.015 1742.59 720.464 1742.86C716.274 1770.65 710.153 1799.07 710.712 1827.23C710.638 1836.51 724.787 1838.26 726.603 1829.06C743.736 1854.25 795.419 1864.08 790.515 1900.89C787.781 1908.41 784.204 1913.54 776.514 1913.81C771.056 1915.22 764.964 1921.67 768.103 1927.43L767.964 1927.48C768.557 1932.69 774.504 1934.57 778.404 1936.07C782.284 1939.09 782.424 1943.96 779.344 1948.51C764.28 1964.4 721.321 1948.57 702.644 1943.35C664.742 1930.17 628.92 1911.1 594.743 1890.22C578.722 1880.99 567.71 1865.52 562.494 1847.93C539.002 1764.23 508.521 1675.4 522.34 1587.84C528.326 1579.32 541.293 1580.87 549.733 1576.35C535.778 1627.89 558.907 1681.41 568.32 1732.22C587.746 1823.72 603.053 1896.69 703.766 1927.22C717.357 1930.07 746.654 1940.38 756.733 1928.95C759.944 1925.88 759.624 1920.74 756.733 1917.61C751.636 1910.79 743.204 1911.61 735.594 1910.83C715.883 1908.37 696.594 1902.38 679.014 1893.11C639.928 1873.79 612.763 1836.52 605.855 1793.56C594.128 1745.19 583.598 1696.43 569.894 1648.56C560.518 1616 545.203 1587.66 579.115 1563.68C602.063 1564.36 625.034 1564.99 647.993 1565.07C642.34 1574.58 636.086 1586.56 639.272 1597.83C625.272 1629.6 643.349 1671.94 678.223 1680.04C697.524 1684.2 717.562 1679.25 735.374 1671.08C735.094 1677.79 734.243 1684.28 732.634 1691.15ZM374.983 1535.55C374.884 1534.25 374.784 1532.94 374.683 1531.63C376.454 1533.58 378.483 1535.33 380.663 1536.91C378.784 1536.43 376.903 1535.94 374.983 1535.55ZM378.353 1750.08C380.191 1756.71 382.244 1763.28 384.473 1769.79C351.353 1760.22 307.192 1752.27 279.663 1778.26C275.733 1767.66 271.045 1757.61 264.473 1748.53C297.989 1744.72 331.757 1746.83 365.264 1743.41C367.738 1748.1 373.397 1750.88 378.353 1750.08ZM275.903 1826.57C276.023 1826.23 276.153 1825.89 276.273 1825.56C278.161 1825.33 280.036 1825.1 281.913 1824.85C279.903 1825.4 277.903 1825.97 275.903 1826.57ZM392.594 1792.89C393.844 1797.17 397.148 1799.81 400.483 1800.09C403.782 1803.7 405.089 1809.15 409.494 1811.61C426.182 1866.85 448.624 1920.51 459.933 1977.31C382.59 2002.37 310.097 2003.8 232.264 1978.54C234.134 1976.7 235.014 1974.23 235.054 1971.49C235.103 1971.54 235.163 1971.58 235.223 1971.63C224.697 1919.92 230.634 1903.65 257.514 1859.44C293.63 1857.89 329.854 1856.55 366.004 1857.63C374.492 1858.63 390.967 1851.64 383.544 1841.49C374.834 1831.93 361.143 1834.52 349.444 1835.14C322.145 1836.52 294.907 1840.54 268.893 1849.12C271.627 1843.31 272.476 1836.4 274.674 1830.23C299.892 1827.37 325.36 1826.7 350.654 1828.8C360.084 1829.69 371.194 1834.22 379.353 1827.64C393.929 1802.28 290.737 1816.18 278.874 1819.01C282.78 1809.84 286.946 1800.32 285.163 1790.02C311.166 1769.54 365.678 1776.61 392.594 1792.89ZM469.103 1995.29C471.183 1996.75 473.844 1996.68 476.094 1995.68C481.301 2008.29 477.687 2021.18 463.272 2024.14C437.005 2030.3 409.626 2031.45 382.764 2033.03C354.174 2034.15 325.483 2033.32 297.004 2030.61C251.302 2029.24 210.697 2016.38 212.563 1962.72C214.392 1969.89 215.586 1980.87 224.783 1981.32C296.556 2019.24 389.744 2022.85 463.804 1989.89C465.084 1991.93 466.773 1993.66 469.103 1995.29ZM126.514 1727.34C126.504 1727.19 126.504 1727.06 126.483 1726.91C127.255 1727.12 128.029 1727.34 128.813 1727.53C128.044 1727.46 127.284 1727.39 126.514 1727.34ZM330.124 942.154C330.265 953.245 328.739 964.486 324.663 974.864C316.554 967.874 307.794 961.734 298.214 956.874C309.342 953.147 319.893 947.895 330.124 942.154ZM99.153 1043.37C100.652 1040.73 93.981 1043.96 92.943 1044.09C97.29 1040.6 96.404 1033.17 91.364 1031.18C67.461 989.494 96.457 951.635 127.105 923.934C179.41 872.182 221.983 811.902 270.614 756.834C331.964 767.071 391.224 793.358 436.993 835.704C390.119 878.963 341.225 924.43 282.235 950.287C276.751 947.627 269.458 948.353 267.634 954.304C260.865 955.537 254.116 957.261 247.364 958.364C247.023 958.414 247.073 958.914 247.364 958.994C254.001 961.282 260.841 962.805 267.933 962.353C336.155 986.129 361.675 1059.58 410.212 1107.55C449.841 1142.24 506.681 1167.84 512.4 1226.86C521.944 1245.93 528.834 1265.85 526.303 1287.21C526.968 1303.9 521.145 1320.46 525.903 1336.64C515.896 1374.92 504.425 1414.74 475.764 1443.6C474.954 1443.4 474.114 1443.45 473.334 1443.83C475.393 1431.04 477.603 1418.27 479.784 1405.5C488.044 1388.61 493.323 1370.44 496.784 1352C498.191 1342.71 484.548 1340.85 483.973 1350.31C474.668 1383.49 463.393 1422.8 431.044 1442.09C436.929 1419.8 444.033 1397.77 453.834 1376.88C457.584 1369.93 461.124 1362.86 464.594 1355.77C468.334 1348.09 457.163 1341.34 453.014 1349C437.904 1377.81 423.654 1410.44 394.874 1427.68C403.959 1397.63 415.928 1368.19 427.272 1338.88C428.534 1335.87 425.913 1332.31 423.084 1331.5C419.634 1330.51 416.954 1332.72 415.704 1335.69C411.15 1346.26 407.694 1358.48 400.344 1367.63C397.388 1377.77 376.758 1393.44 387.244 1370.19C397.439 1340.29 404.361 1308.39 418.993 1280.49C423.017 1229.9 415.377 1198.25 366.622 1174.82C359.554 1171.28 350.784 1166.75 342.304 1165.23C318.603 1141.64 293.294 1119.72 266.073 1099.83C210.917 1058.14 127.063 1020.89 63.823 1067.41C73.973 1057.38 85.754 1049.09 99.153 1043.37ZM339.694 683.234C405.217 619.285 490.574 568.303 584.614 568.284C583.773 568.564 583.624 569.584 584.124 570.244C512.778 870.661 855.327 987.446 917.563 657.824C982.901 700.458 1032.45 811.446 1055.05 884.784C996.479 889.327 943.772 926.327 909.643 972.624C906.702 967.619 906.065 961.678 914.005 963.134C915.82 961.395 907.518 962.387 906.823 963.804C922.617 930.082 938.865 895.173 948.082 858.373C948.353 857.444 947.044 856.924 946.544 857.724C932.694 879.794 918.134 901.384 904.624 923.664C858.915 1013.16 767.677 1091.79 771.554 1198.66C771.534 1198.67 771.523 1198.68 771.514 1198.69C773.285 1201.79 772.576 1206.09 775.273 1208.79C761.218 1271.03 726.172 1334.63 669.256 1366.68C626.257 1386.5 579.459 1363.53 542.344 1341.06C540.974 1327.92 539.596 1314.79 538.214 1301.65C544.973 1299.95 544.113 1287.59 544.313 1282.15C545.731 1259.25 539.813 1236.79 527.642 1217.16C522.028 1188.04 506.285 1162.15 483.523 1143.24C468.323 1130.25 451.433 1119.46 435.954 1106.84C394.855 1073.45 372.836 1023.84 336.504 986.074C340.882 970.229 341.807 954.368 337.124 938.074C363.092 921.31 504.601 828.967 478.336 796.656C474.534 791.004 466.284 792.004 464.114 798.514C461.375 807.36 457.311 815.535 450.584 822.024C403.008 778.861 339.701 750.225 274.743 752.094C295.544 728.314 317.034 705.103 339.694 683.234ZM590.254 573.674C630.844 593.854 679.794 579.894 723.094 581.664C789.686 584.301 854.299 617.061 895.573 669.433C879.415 740.814 840.89 821.993 762.513 838.374C684.832 852.339 616.177 785.75 597.635 714.524C585.2 668.822 584.942 620.501 590.254 573.674ZM1149.24 1083.6C1155.2 1099.7 1160.84 1115.91 1166.32 1132.18C1171.84 1148.76 1178.34 1165.21 1182.85 1182.09C1180.98 1190.17 1176.49 1196.62 1172 1203.4C1138.47 1253.86 1070.28 1249.14 1020.71 1273.63C1012.91 1277.33 1003.48 1281.94 996.653 1288.44C987.459 1291.87 984.846 1302.8 986.305 1311.68C994.372 1356.63 1000.94 1401.12 1002.89 1446.7C1003.52 1459.28 1003.92 1472.42 999.993 1484.43C985.684 1472.92 977.39 1406.52 977.003 1386.9C976.823 1381.97 970.624 1381.65 968.903 1385.8C947.847 1443.43 958.806 1506.74 956.194 1566.84C926.376 1523.46 926.294 1468.73 924.675 1418.04C924.323 1409.93 911.924 1409.84 911.993 1418.04C910.204 1471.38 917.91 1529.39 912.094 1581.31C889.865 1526.54 883.626 1465.05 889.382 1406.38C878.767 1437.33 879.142 1479.77 882.674 1514.51C872.248 1515.67 879.219 1545.43 876.063 1553.95C817.278 1418.87 877.967 1339.69 942.577 1225.64C956.08 1192.58 993.235 1133.32 982.597 1099.64C978.804 1087.8 972.063 1077.19 965.733 1066.6C947.745 1036.75 929.135 1007.28 911.874 977.004C914.933 974.584 917.924 972.084 920.874 969.534C960.379 934.268 996.418 906.768 1052.08 902.794C1095.37 956.771 1125.54 1018.89 1149.24 1083.6ZM911.864 1581.85C911.493 1582.93 910.924 1580.8 912.034 1581.45C911.983 1581.58 911.913 1581.71 911.864 1581.85ZM963.694 1493.21C963.954 1471.09 963.678 1448.75 966.714 1426.83C965.523 1448.95 964.694 1471.09 963.694 1493.21ZM942.674 1140.63C893.498 1155.63 843.196 1167.57 795.353 1186.59C797.853 1103.94 862.849 1042.23 900.334 973.244C915.113 1006.99 939.375 1036.03 954.713 1069.6C966.486 1090.76 977.227 1113.45 963.853 1136.64C956.853 1136.39 949.054 1139 942.674 1140.63ZM401.044 1230.89C386.384 1212.58 371.044 1194.94 354.924 1178.09C379.013 1189.2 396.312 1204.75 401.594 1231.65C401.424 1231.4 401.243 1231.15 401.044 1230.89ZM668.254 1564.97C666.458 1566.31 665.74 1566.97 664.433 1567.98C665.699 1567.04 666.804 1565.44 668.254 1564.97ZM1309.07 1345.54C1286.1 1286.99 1237.5 1243.77 1184.94 1211.6C1198.14 1196.22 1192.64 1176.48 1186.31 1159.39C1159.96 1074.6 1130.26 988.871 1077.47 916.474C1088.56 909.855 1065.47 858.864 1062.15 846.584C1033.84 777.692 991.403 678.419 916.473 651.994C912.551 645.14 900.52 644.78 899.063 654.474C842.722 588.498 752.795 559.694 667.993 573.717C642.604 578.156 618.275 571.57 593.204 568.504C605.573 569.014 617.874 570.504 629.983 573.164C630.933 573.374 631.294 572.044 630.384 571.724C553.754 542.94 467.97 566.086 401.893 610.045C283.727 689.935 209.033 815.499 109.754 915.164C81.473 941.474 54.434 978.919 66.705 1019.44C70.052 1029.87 73.121 1046.4 86.893 1046.39C-47.943 1113.13 7.77503 1287.84 33.635 1402.93C58.513 1512.29 81.927 1622 107.443 1731.19C109.393 1739.31 118.134 1739.79 123.103 1735.65C164.505 1746.29 208.066 1747.03 250.614 1748.6C272.356 1800.42 268.448 1812.47 238.624 1858.57C239.084 1858.49 239.624 1858.43 240.284 1858.41C239.583 1858.45 238.795 1858.67 238.214 1859.14C238.337 1858.97 238.436 1858.88 238.624 1858.57C236.504 1858.94 236.514 1859.78 237.034 1859.95C237.393 1859.64 237.764 1859.36 238.163 1859.12C238.143 1859.18 238.143 1859.21 238.204 1859.15C237.893 1859.9 237.364 1860.06 237.034 1859.95C216.893 1885.06 206.539 1918.48 210.893 1950.52C196.147 1967.09 197.811 1994.79 208.472 2013.25C221.695 2038.97 251.045 2045.92 277.595 2048.24C310.183 2052.52 343.084 2054.26 375.944 2053.37C392.183 2052.93 408.393 2051.87 424.554 2050.17C452.216 2047.18 494.316 2046.95 498.483 2011.43C499.403 1998.22 493.793 1970.57 478.944 1967.16C464.983 1913.59 447.896 1859.12 416.403 1812.96C425.847 1804.87 416.239 1790.95 409.154 1784.43C402.38 1770.31 395.553 1756.21 387.643 1742.67C389.832 1734.53 384.385 1729.48 385.465 1721.41C385.718 1660.06 379.407 1598.92 375.153 1537.74C418.477 1568.16 504.153 1558.89 557.323 1563.05C549.082 1581.53 526.286 1563.27 512.143 1578.95C481.514 1645.08 523.802 1786.56 545.991 1855.07C552.327 1875.78 565.656 1893.67 584.074 1905.16C621.767 1928.93 661.87 1950.17 704.283 1964.14C727.272 1970.52 752.222 1978.07 776.044 1972.4C794.526 1967.92 806.609 1945.67 796.614 1928.58C815.219 1911.84 814.815 1884.01 798.562 1866.22C779.964 1844.34 748.864 1839.51 727.913 1821.28C730.345 1795 731.61 1768.81 734.933 1742.63C742.645 1742.25 750.35 1745.55 757.584 1741.97C771.397 1728.65 747.816 1723.12 736.653 1726.58C737.063 1722.76 737.464 1718.95 737.874 1715.13C762.326 1720.59 763.139 1696.91 739.683 1698.99C741.885 1687.83 743.078 1676.47 743.042 1665.19C745.403 1661.64 745.254 1657.31 743.313 1653.98C758.594 1651.66 774.9 1651.56 789.704 1647.1C790.025 1666.36 819.185 1804.52 850.754 1758.39C867.675 1740.48 890.751 1729.83 913.344 1720.64C940.973 1709.24 968.444 1697.47 995.573 1684.93C1076.25 1647.6 1154.3 1604.12 1226.34 1551.89C1299.04 1505.1 1345.66 1431.92 1309.07 1345.54Z" fill="black"/>
<path fill-rule="evenodd" clip-rule="evenodd" d="M981.514 394.944C974.65 311.269 953.75 237.159 855.545 233.999C811.227 234.395 765.988 243.81 725.234 261.23C626.178 310.896 594.749 492.377 682.02 565.431C681.501 565.726 681.376 566.579 681.989 566.991C700.019 579.121 720.06 589.101 740.132 597.487C793.598 620.091 856.539 629.909 911.066 605.39C994.279 569.982 995.527 471.457 981.514 394.944Z" fill="white"/>
<path fill-rule="evenodd" clip-rule="evenodd" d="M1145.31 355.943C1148.73 352.863 1151.28 348.823 1152.57 344.293C1153.75 340.163 1153.83 335.653 1152.58 331.533C1151.24 327.113 1148.35 323.594 1149 318.993C1149.07 318.543 1149.16 318.073 1149.3 317.603C1151.8 308.943 1157.95 302.693 1155.75 293.093C1155.13 290.383 1153.96 287.944 1152.33 286.023C1152.51 283.944 1152.67 281.844 1152.8 279.743C1156.41 271.293 1156.28 261.253 1152.43 252.933C1151.96 248.673 1151.25 244.453 1150.25 240.303C1150.71 236.633 1150.07 232.593 1148.89 229.383C1146.81 223.735 1144.25 218.169 1141.47 212.695C1141.8 211.198 1141.65 209.616 1140.82 208.209C1139.32 205.652 1137.34 203.404 1135.31 201.207C1133.87 198.644 1132.43 196.102 1131 193.593C1130.33 192.44 1129.6 191.161 1128.79 189.806C1130.99 185.72 1132.17 181.738 1129.84 176.933C1128.96 175.128 1126.56 173.797 1124.58 173.915C1122.41 174.044 1120.23 174.141 1118.03 174.224C1113.92 169.266 1109.27 164.815 1104.29 162.253C1099.24 157.973 1094.12 153.773 1089.14 149.483C1087.73 148.263 1086.31 147.043 1084.9 145.823C1084.89 145.793 1084.88 145.753 1084.87 145.723C1083.83 141.933 1082.66 138.193 1081.49 134.433C1080.76 132.103 1080.54 129.663 1078.27 128.393C1073.53 125.743 1066.24 125.323 1060.8 124.873C1060.26 124.393 1059.72 123.923 1059.18 123.443C1061.65 116.863 1061.21 109.873 1058.1 103.283C1057.04 101.043 1053.36 100.033 1051.34 101.513C1046.68 104.933 1041.15 106.143 1035.68 105.643C1027.64 99.4635 995.206 71.5175 990.195 68.5675C990.133 68.4615 990.083 68.3555 990.017 68.2505C987.2 63.7525 983.779 60.1405 979.933 57.2445C979.384 56.6715 978.835 56.0975 978.286 55.5235C978.769 52.0945 980.04 48.7835 982.086 46.0135C982.306 45.6935 982.556 45.3835 982.806 45.0835C986.386 40.8235 982.016 35.3435 977.016 37.5735C976.656 37.7335 976.296 37.8935 975.936 38.0635C972.092 39.7775 967.839 41.6405 963.41 43.2125C961.789 42.6055 960.137 42.0555 958.63 41.4495L942.494 34.9625C939.838 33.8945 937.03 32.9895 934.461 31.7345C933.565 25.7755 927.593 21.8675 921.391 22.0715C921.749 20.9275 922.283 19.8165 923.036 18.7635C923.256 18.4535 923.496 18.1535 923.746 17.8635C926.936 14.1535 922.676 7.27349 918.116 10.5735C917.796 10.8035 917.466 11.0335 917.146 11.2635C915.879 12.1525 914.582 12.9865 913.271 13.7945C911.172 12.8785 908.808 12.6695 906.334 13.6385C900.856 15.7835 895.806 17.9645 890.983 21.3265C890.787 21.4635 890.584 21.5785 890.386 21.7075C887.992 18.8155 884.191 16.8815 880.768 16.9025C880.698 16.9025 880.644 16.9015 880.582 16.9005C878.023 13.0015 873.332 10.7355 868.802 11.2865C869.108 5.69149 863.507 0.698487 858.408 0.0914866C852.45 -0.616513 847.08 2.84249 845.292 8.65449C844.794 10.2725 844.297 11.8915 843.799 13.5105C839.173 11.1755 834.291 9.38649 829.191 8.49349C817.578 6.45949 806.223 8.62549 795.032 11.8495C793.914 12.1715 792.797 12.5025 791.68 12.8325C790.084 10.9835 788.587 9.09049 787.156 7.32349C784.686 4.27349 778.756 6.71349 779.156 10.6335C779.434 13.3385 778.335 15.2845 776.566 16.6675C774.623 16.9515 772.745 17.0375 769.913 16.9805C766.17 16.9045 764.467 16.7875 760.553 15.2615C758.729 14.5515 756.458 12.6845 755.395 11.0085C751.32 4.58149 740.969 2.85049 736.039 8.97849C730.851 6.70749 724.301 9.83949 721.421 14.2555C719.914 16.5645 716.77 17.8555 712.812 18.9655C709.841 19.7975 706.803 20.4275 703.751 20.9785C702.391 19.1335 699.527 17.8965 697.426 19.4435C696.003 20.4945 694.621 21.5735 693.258 22.6795C682.748 24.1275 672.293 24.1795 662.272 20.0815C653.788 16.6115 645.998 26.0885 647.398 34.0445C644.941 35.3235 642.275 36.1745 639.848 37.5145C634.553 40.4405 630.205 45.0655 627.555 50.4995C627.08 51.4725 626.651 52.4605 626.242 53.4535C624.263 55.0645 622.306 56.7185 620.396 58.4635C617.216 56.8335 614.046 55.2035 610.866 53.5735C608.486 52.3535 604.476 53.2035 604.006 56.3635C603.236 61.5635 601.366 65.8735 598.696 69.4835C590.016 74.0435 581.666 79.1635 573.676 84.8535C564.486 87.7335 554.716 89.4135 546.686 91.3035C543.936 91.9535 542.436 95.5435 543.986 97.9335C545.626 100.463 547.266 102.993 548.896 105.523C544.326 109.983 540.036 114.643 535.986 119.463C524.716 132.863 515.286 147.553 506.846 163.113C503.506 164.463 500.166 165.803 496.826 167.153C493.606 168.453 492.156 172.193 494.766 174.943C496.006 176.253 497.116 177.633 498.066 179.083C493.336 186.913 487.766 194.053 479.976 198.733C477.606 200.153 475.826 202.383 474.876 204.913C474.066 205.453 473.266 206.033 472.476 206.623C470.276 208.283 468.946 211.903 471.526 214.053C473.336 215.573 475.036 217.373 476.476 219.363C476.786 220.493 477.106 221.633 477.426 222.763C470.186 229.423 464.166 237.163 459.646 245.843C458.576 245.673 457.476 245.783 456.586 246.443C448.506 252.413 448.266 261.923 451.516 270.423C449.556 283.233 450.816 296.363 454.596 308.773C449.626 313.733 446.636 320.893 445.416 327.793C443.266 339.913 443.116 358.553 442.556 370.923C437.136 376.154 433.276 382.923 431.126 390.203C429.316 391.103 427.506 392.003 425.696 392.903C424.086 393.703 422.906 395.813 423.006 397.593C423.466 406.203 427.016 413.003 431.726 419.163C433.396 423.913 435.866 428.293 439.106 432.493C441.346 435.374 443.536 438.134 445.466 441.243C445.666 441.553 445.786 441.843 445.876 442.043C445.116 442.863 444.486 444.223 443.936 445.193C439.316 453.333 439.246 462.874 445.806 469.964C443.336 471.983 443.256 476.063 445.436 478.563C459.626 494.773 471.456 514.484 491.146 523.094C491.236 523.244 491.316 523.393 491.386 523.543C487.396 533.143 486.856 538.133 490.116 548.053C490.136 548.143 490.166 548.223 490.196 548.313C491.936 553.513 495.136 561.844 500.906 563.464C502.726 563.974 504.516 564.203 506.286 564.193C510.866 568.603 515.436 573.023 520.006 577.443C520.406 579.633 520.656 581.844 520.736 584.073C520.866 587.803 524.376 590.823 528.156 589.724C529.486 589.333 536.846 582.184 538.196 582.224C538.876 582.904 539.536 583.583 540.196 584.273C542.626 586.823 545.996 590.844 546.276 593.513C546.816 598.544 550.116 604.303 555.446 605.323C557.446 607.354 560.646 607.964 563.096 605.313C563.256 605.143 563.416 604.974 563.586 604.823C563.846 604.793 564.096 604.763 564.356 604.733C565.536 608.253 566.716 611.773 567.906 615.284C570.236 622.203 579.136 626.653 585.456 622.613C586.476 623.223 587.476 623.873 588.476 624.523C589.996 625.493 591.536 626.484 593.116 627.414C593.206 627.674 593.296 627.933 593.376 628.183C594.396 631.293 598.636 632.963 601.246 631.173C602.056 631.433 602.886 631.643 603.726 631.813C608.136 632.683 612.576 632.443 616.836 630.974C619.886 629.934 622.796 627.943 626.076 627.673C626.281 627.656 626.492 627.67 626.7 627.664C629.376 633.146 635.491 637.87 640.31 639.475C646.622 641.578 653.082 640.826 658.83 638.251C660.381 641.352 662.329 644.288 664.656 647.003C665.946 648.503 668.276 648.183 669.606 647.003C672.132 644.764 674.642 642.514 677.148 640.261C678.962 639.562 680.793 638.724 682.703 637.943C688.677 635.503 695.226 634.492 700.751 630.966C703.374 629.292 705.841 627.156 707.873 624.681C711.701 622.471 715.218 619.719 718.386 616.563C719.966 616.573 721.616 616.203 723.216 615.393C729.906 611.993 733.426 605.073 733.736 597.993C739.156 585.243 742.356 571.643 743.236 557.724C743.516 553.154 743.566 548.544 743.216 543.974C742.976 540.754 742.166 538.603 740.946 535.693C740.536 534.743 740.166 533.874 739.876 532.914C739.946 529.833 739.986 526.753 740.026 523.683C740.856 521.093 742.336 518.684 744.396 516.654C747.586 513.513 749.046 506.993 746.146 503.113C744.256 500.603 742.376 498.094 740.486 495.583C741.016 484.814 743.596 467.673 737.876 465.873C738.106 464.273 738.596 462.693 738.876 461.103C740.216 453.463 739.416 446.633 735.356 439.953C734.506 438.563 733.786 437.333 733.196 436.133C732.826 433.933 732.456 431.733 732.086 429.533C731.516 426.143 730.956 422.723 730.476 419.283C730.226 414.903 729.996 410.523 729.746 406.133C729.516 402.093 729.256 398.053 728.986 394.003C729.096 392.193 729.256 390.383 729.486 388.573C730.856 377.783 735.266 373.793 742.906 366.293C744.106 366.103 745.296 365.893 746.466 365.653C751.916 364.523 757.616 362.773 763.226 363.403C769.316 364.083 774.766 366.713 780.686 363.353C782.426 362.353 786.256 359.593 786.586 357.403C786.606 357.263 786.636 357.143 786.676 357.053C787.086 356.993 787.616 356.943 787.946 356.933C792.646 356.773 797.136 358.624 801.876 358.113C807.486 357.513 812.506 355.023 815.806 351.333C820.036 352.374 824.356 352.843 828.746 352.263C832.426 351.783 835.726 350.583 838.986 348.803C841.356 347.523 840.606 347.153 843.186 348.193C849.056 350.573 854.366 353.714 860.976 352.083C864.406 351.243 867.366 349.393 869.856 346.903C870.446 346.323 871.446 345.453 872.116 344.633C875.256 346.223 883.156 349.813 884.456 350.133C888.136 351.033 892.036 350.893 895.616 349.693C898.246 348.813 901.466 346.413 903.776 345.923C906.766 345.283 913.406 349.443 916.976 350.873C923.236 353.383 929.866 354.003 936.206 351.413C938.386 350.523 942.626 346.973 944.256 347.003C946.906 350.273 954.306 368.163 956.526 374.693C965.516 401.093 967.846 483.523 963.696 504.553C963.536 505.173 963.366 505.783 963.196 506.403C958.096 524.693 952.786 543.294 944.256 560.333C936.206 576.393 925.076 590.853 909.106 599.623C892.546 608.723 873.106 611.113 854.486 609.883C842.496 609.103 830.706 606.693 819.106 603.673C813.046 602.103 807.036 600.354 801.056 598.534C798.446 597.744 795.796 597.003 793.236 596.083C788.716 594.453 786.346 594.323 782.016 596.414C778.076 598.314 777.066 603.923 779.116 607.453C782.456 613.214 788.576 613.613 794.486 615.293C800.506 617.003 806.546 618.643 812.626 620.113C824.276 622.913 836.116 625.063 848.056 626.053C869.436 627.843 891.466 625.083 910.926 615.753C913.126 614.693 915.246 613.563 917.296 612.344C916.536 613.404 915.766 614.464 914.986 615.513C912.826 618.423 914.426 623.373 917.456 624.964C918.416 625.464 919.376 625.944 920.346 626.414C920.476 626.724 920.616 627.034 920.776 627.344C923.546 632.904 929.346 636.184 935.256 637.604C942.276 639.284 950.136 638.094 957.276 637.883C963.896 637.683 970.516 637.484 977.126 637.284C978.686 637.244 980.246 637.193 981.806 637.143C989.666 636.904 997.516 636.673 1005.37 636.433C1012.37 636.223 1012.04 636.763 1018.61 633.964C1021.54 632.703 1023.94 630.923 1025.96 628.553C1027.22 627.993 1028.44 627.353 1029.61 626.623C1033.37 624.283 1036.71 621.143 1039.79 617.683C1045.02 619.333 1052.35 617.803 1053.37 611.233C1055.01 600.723 1068.67 596.233 1075.05 588.633C1080.2 582.503 1083.88 574.474 1083.69 566.763C1096.67 560.483 1103.73 543.933 1105.38 529.893C1106.15 523.383 1106.03 516.414 1107.14 509.793C1107.63 509.263 1108.07 508.703 1108.44 508.103C1111.7 502.833 1114.54 497.403 1117.04 491.843C1120.44 489.393 1124.53 487.883 1128.81 487.633C1139.33 487.023 1141.31 472.833 1131.28 469.413C1131.23 469.393 1131.19 469.383 1131.14 469.363C1133.86 462.564 1133.63 454.513 1130.33 448.073C1130.47 447.373 1130.6 446.684 1130.73 445.983C1136.36 439.934 1139.59 431.523 1139.23 423.333C1141.8 421.523 1144.68 420.123 1147.83 419.253C1152.7 417.913 1152.73 411.973 1149.13 409.313C1147.68 408.243 1146.48 406.993 1145.48 405.613C1147.97 398.133 1146.99 389.483 1141.9 383.343C1145.13 379.203 1148.36 375.064 1151.59 370.923C1153.73 368.184 1154.86 363.533 1151.59 360.933C1149.5 359.263 1147.41 357.603 1145.31 355.943Z" fill="black"/>
<path fill-rule="evenodd" clip-rule="evenodd" d="M872.387 565.531C878.952 564.619 886.011 560.908 892.282 563.924C895.213 565.334 896.605 570.154 894.623 572.834C891.596 576.927 888.471 577.604 883.558 577.997C879.874 578.292 876.171 578.314 872.497 577.89L871.563 577.776C865.008 576.931 858.194 575.105 853.116 570.707C852.077 569.808 852.609 567.864 853.942 567.583C859.973 566.317 866.282 566.38 872.387 565.531ZM864.66 550.443C864.658 550.39 864.738 550.39 864.741 550.443C864.9 554.188 865.954 557.659 867.903 560.863C867.93 560.909 867.86 560.95 867.833 560.905C865.883 557.698 864.819 554.191 864.66 550.443ZM885.354 473.151C891.913 477.13 901.906 486.409 894.85 496.273C886.546 504.971 874.588 494.998 868.696 490.488C863.233 486.993 857.094 495.983 862.163 500.064C904.741 531.529 922.02 474.192 888.671 468.473C885 467.842 883.636 471.92 885.354 473.151ZM918.922 428.621C920.462 428.621 921.935 429.143 923.276 430.109C924.597 431.059 925.792 432.446 926.787 434.175C928.671 437.448 929.849 441.968 929.849 446.965C929.849 451.962 928.671 456.481 926.787 459.754C925.792 461.484 924.597 462.871 923.276 463.821C921.935 464.787 920.462 465.308 918.922 465.308C917.382 465.308 915.909 464.787 914.568 463.821C913.247 462.871 912.052 461.484 911.057 459.754C909.173 456.481 907.995 451.962 907.995 446.965C907.995 441.968 909.173 437.448 911.057 434.175C912.052 432.446 913.247 431.059 914.568 430.109C915.909 429.143 917.382 428.621 918.922 428.621ZM847.602 433.718L848.182 433.609C851.565 432.995 853.274 433.201 856.219 435.502C858.433 437.232 857.799 440.638 856.219 442.457C853.468 445.626 850.779 445.065 847.01 445.186L846.745 445.195C843.603 445.323 840.459 445.412 837.315 445.46C836.456 445.473 835.595 445.47 834.735 445.475C834.826 453.417 830.239 459.463 824.197 464.061C820.293 467.033 815.353 463.604 813.96 459.904C812.808 456.842 812.56 453.077 813.158 449.725C813.379 448.489 813.841 447.148 814.546 446.004L814.745 445.697L814.712 445.258C814.705 445.15 814.712 445.045 814.709 444.937C809.101 444.597 803.524 444.035 797.95 443.33L796.092 443.089C791.335 442.461 784.347 442.259 780.497 439.17C780.376 439.071 780.419 438.856 780.548 438.787C782.664 437.649 784.812 437.714 787.179 437.609L787.518 437.592C790.093 437.46 792.661 437.349 795.234 437.261L797.809 437.181C804.394 436.993 810.985 436.674 817.564 436.324C818.708 436.264 819.851 436.192 820.997 436.121C822.195 435.62 823.468 435.32 824.725 435.265C825.768 435.218 826.77 435.362 827.712 435.661C830.115 435.476 832.517 435.274 834.916 435.057L837.315 434.835C840.701 434.513 844.26 434.373 847.602 433.718ZM889.177 374.197C896.414 370.647 905.214 370.561 912.667 373.499L913.161 373.698C920.689 376.816 929.76 384.019 927.796 392.99C925.999 401.201 913.095 399.81 912.441 392.048C908.275 386.287 898.933 385.023 893.06 388.686C889.498 390.909 887.053 394.652 885.382 398.426C883.958 401.64 883.689 405.61 881.502 408.41C881.43 408.501 881.288 408.518 881.185 408.493C874.66 406.987 874.509 396.639 875.622 391.619C877.238 384.322 882.426 377.51 889.177 374.197Z" fill="black"/>
</svg>
