<svg width="3606" height="2436" viewBox="0 0 3606 2436" fill="none" xmlns="http://www.w3.org/2000/svg">
<rect x="121.8" width="3398.22" height="2436" rx="21.3333" fill="#FFBD12"/>
<g clip-path="url(#clip0)">
<path fill-rule="evenodd" clip-rule="evenodd" d="M3300.34 2509.5C3327.69 2508.17 3316.69 2459.97 3314.73 2442.27C3293.07 2377.63 3298.16 2307.09 3289.65 2239.33C3284.34 2176.07 3277.52 2113.01 3271.79 2049.8C3260.53 1921.5 3179.65 1660.29 3087.35 1618.29C3075.72 1566.9 3027.7 1518.92 2966.94 1518.92C2925.5 1469.51 2875.62 1434.73 2811.65 1441.75C2785.21 1442.96 2759.57 1471.21 2734.24 1476.67C2720.06 1478.64 2594.18 1473.56 2568.97 1488.65C2551.4 1497.73 2535.55 1514.52 2540.71 1535.9C2548.95 1561.79 2523.35 1533.77 2469.93 1561.41C2361 1627.31 2426.09 1715.47 2428.98 1718.21C2361 1813.48 2301.59 1890.77 2274.1 2007.22C2256.29 2093.68 2258.29 2182.93 2243.37 2269.82C2238.1 2299.96 2230.01 2329.06 2221.26 2358.32C2211.78 2396.61 2207.17 2492.05 2201.94 2492.91C2192.42 2495.29 2207.44 2514.98 2217.53 2515C2497.23 2561.74 2781.33 2516.93 3062.52 2509.61C3141.77 2506.84 3221.1 2506.2 3300.34 2509.5Z" fill="white"/>
<path fill-rule="evenodd" clip-rule="evenodd" d="M2876.42 1726.61C2876.55 1725.32 2878.28 1725.33 2878.41 1726.61L2880.39 1745.82C2882.79 1769.27 2885.1 1792.68 2886.78 1816.24C2888.87 1845.62 2890.27 1875 2890.94 1904.45C2893.29 2007.01 2893.76 2109.63 2893.95 2212.22C2907.73 2211.26 2921.5 2210.33 2935.28 2209.44C2944.63 2208.83 2953.98 2208.24 2963.33 2207.67L2987.18 2206.21L2996.99 2205.61C3003.63 2205.19 3011.16 2203.51 3015.8 2209.43C3017.66 2211.8 3018.59 2214.88 3016.86 2217.69C3012.86 2224.18 3006.73 2223.96 2999.8 2224.24C2993.25 2224.5 2986.71 2224.76 2980.16 2225.02C2966.14 2225.57 2952.12 2226.08 2938.09 2226.48C2923.37 2226.9 2908.65 2227.23 2893.94 2227.49C2893.79 2270.8 2892.01 2314.05 2890.08 2357.31L2889.21 2376.78C2886.86 2429.43 2884.33 2482.12 2880.73 2534.7C2880.44 2539 2874.39 2538.99 2874.1 2534.7C2870.05 2475.49 2867.38 2416.15 2864.73 2356.86C2862.8 2313.87 2861.69 2270.87 2861.15 2227.87C2859.21 2227.88 2857.26 2227.91 2855.32 2227.92C2800.08 2228.16 2744.86 2228.4 2689.63 2227.88C2689.72 2227.99 2689.81 2228.1 2689.87 2228.25C2693.87 2237.75 2694.25 2249.88 2694.15 2260.08C2694.04 2271.78 2692.48 2283.34 2689.8 2294.72C2680.22 2335.48 2655.5 2371.98 2627.35 2402.16L2626.43 2403.15C2619.79 2410.21 2612.17 2417.32 2608.09 2426.32C2603.93 2435.51 2602.48 2446.27 2600.43 2456.14L2600.19 2457.28L2592.15 2494.67C2589.6 2506.55 2588.87 2523.87 2579.54 2532.44C2570.83 2540.43 2559.3 2536.26 2555.2 2525.96C2552 2517.93 2555.19 2509.11 2557.08 2501.08L2571.93 2438.2C2574.37 2427.95 2577.04 2417.63 2582.3 2408.42C2587.7 2398.98 2595.6 2392.14 2603.67 2385.14C2618.95 2371.89 2632.98 2356.72 2644.84 2340.3C2656.69 2323.88 2666.83 2305.78 2673.93 2286.75C2677.49 2277.22 2680.41 2267.33 2682.42 2257.35C2684.33 2247.88 2684.31 2238.08 2686.36 2228.71C2686.5 2228.06 2687.04 2227.62 2687.66 2227.42C2687.51 2227 2687.74 2226.44 2688.32 2226.4L2733.49 2223.48C2773.65 2220.87 2813.8 2218.19 2853.92 2215.13L2861.01 2214.62C2860.46 2157.24 2860.92 2099.85 2861.95 2042.45C2862.89 1989.81 2862.91 1937.16 2864.47 1884.53C2865.24 1858.41 2866.91 1832.35 2868.76 1806.28C2870.66 1779.63 2873.69 1753.19 2876.42 1726.61ZM2452.27 2031.82C2451.78 2028.89 2455.43 2027.08 2457.12 2029.76C2476.35 2060.3 2485.63 2093.47 2489.54 2129.22C2492.99 2160.76 2491.97 2192.76 2490.25 2224.39C2488.42 2258.12 2486.28 2291.84 2484.11 2325.56L2480.79 2377.26L2472.45 2506.87C2471.85 2516.14 2469.76 2524.57 2461.84 2528.88C2460.83 2529.73 2459.79 2530.48 2458.57 2531.14C2454.29 2533.45 2448.61 2532.28 2446.13 2527.86L2447.13 2528.51C2447.99 2529.06 2447.02 2528.3 2444.21 2526.22L2441.83 2523.11C2440.1 2520.49 2438.99 2517.92 2438.55 2514.8C2437.86 2509.96 2438.75 2504.65 2439.07 2499.79L2444.54 2414.8C2448.79 2348.72 2453.76 2282.67 2457.5 2216.56C2459.24 2185.75 2460.46 2154.91 2459.64 2124.05C2458.81 2093.35 2457.26 2062.14 2452.27 2031.82ZM2618.67 1462.87L2619.74 1462.69C2657.94 1456.29 2699.49 1457.49 2734.41 1476.04C2734.69 1476.19 2734.56 1476.68 2734.24 1476.66L2723 1476.21C2687.42 1474.81 2651.95 1473.98 2616.97 1482.4L2613.39 1483.27C2600.79 1486.36 2587.63 1490.15 2577.51 1498.53C2567.84 1506.55 2563.03 1518.91 2558.39 1530.29L2557.78 1531.79C2553.08 1543.03 2547.13 1553.68 2536.83 1560.71C2523.49 1569.81 2507.45 1568.7 2492.16 1569.93C2465.23 1572.11 2443.21 1591.77 2432.25 1615.83C2425.62 1630.4 2422.79 1646.73 2422.23 1662.67C2421.94 1670.78 2421.9 1679.2 2422.98 1687.26C2423.32 1689.84 2426.48 1699.22 2428.09 1699C2431.67 1698.5 2434.95 1700.38 2436.07 1703.26C2444.91 1694.65 2454.02 1686.29 2463.41 1678.23C2486.83 1658.13 2512.06 1639.92 2538.63 1624.27C2558.91 1612.33 2580.29 1600.49 2602.44 1591.55C2600.69 1591.51 2598.96 1591.86 2597.28 1592.74C2596.55 1593.13 2595.82 1592.2 2596.4 1591.59C2603.37 1584.19 2611.73 1583.14 2620.15 1585.11C2621.95 1584.53 2623.75 1583.98 2625.56 1583.45C2626.45 1583.18 2626.9 1584.43 2626.17 1584.91L2624.1 1586.25C2633.29 1589.35 2642.31 1595.44 2649.45 1600.25C2669.97 1614.07 2688.03 1630.95 2706.34 1647.53L2709.67 1650.53C2725.79 1665.02 2742.31 1679.11 2760.62 1690.74C2770.2 1696.83 2780.27 1702.46 2790.83 1706.64C2799.89 1710.24 2814.63 1712.5 2818.87 1722.14C2822.65 1726.76 2821.07 1732.64 2816.65 1735.75C2809.21 1744.01 2794.31 1738.67 2785.44 1735.23C2774.74 1731.09 2764.37 1726.1 2754.49 1720.26C2735.3 1708.91 2717.61 1694.8 2701.12 1679.79C2683.91 1664.11 2667.67 1647.46 2650.93 1631.29C2643.67 1624.28 2636.59 1617.11 2629.32 1610.12L2625.67 1606.64C2621.97 1603.13 2616.68 1597.67 2611.03 1594.37C2600.39 1600.76 2589.59 1606.89 2579.04 1613.45C2564.32 1622.61 2550.03 1632.43 2535.97 1642.57C2508.89 1662.09 2483.23 1683.95 2459.4 1707.38C2415.71 1750.36 2378.48 1799.43 2345.97 1851.39L2343.5 1855.35C2325.02 1885.09 2307.54 1915.79 2295.15 1948.66C2281.52 1984.82 2274.89 2022.85 2271.29 2061.24C2267.71 2099.35 2266.5 2137.66 2262.51 2175.73C2258.41 2214.79 2250.34 2252.98 2241.16 2291.09L2238.97 2300.13C2230.66 2334.27 2222.08 2368.41 2217.81 2403.35C2215.53 2422.02 2214.16 2440.94 2214.47 2459.76C2214.78 2478.68 2217.73 2497.19 2220.12 2515.92C2221.03 2523.09 2214.02 2529.08 2207.75 2530.03C2200.54 2531.12 2194.34 2526.49 2192.1 2519.74C2185.11 2498.7 2183.84 2475.44 2184.06 2453.36C2184.28 2430.94 2187.12 2408.66 2191.12 2386.63C2198.98 2343.29 2211.11 2300.85 2221.26 2258.03C2230.2 2220.29 2236.2 2182.48 2239.44 2143.81C2242.8 2103.7 2244.81 2063.45 2250.93 2023.62C2256.98 1984.31 2268.36 1946.75 2285.52 1910.9C2301.14 1878.26 2320.62 1847.54 2341.04 1817.76C2365.84 1781.6 2393.07 1747.19 2423.52 1715.84C2420.78 1715.72 2417.97 1714.83 2415.39 1713.21C2407.51 1708.25 2403.83 1698.56 2402.7 1689.7C2400.06 1668.99 2400.7 1647.37 2405.98 1627.12C2414.51 1594.45 2436.65 1565.43 2468.74 1553.65C2476.99 1550.62 2485.77 1549.51 2494.53 1549.3C2502.83 1549.09 2511.9 1550.18 2519.91 1547.53C2532.67 1543.3 2538.14 1528.17 2542.93 1516.7L2543.15 1516.17C2549.29 1501.55 2556.66 1489.02 2569.96 1479.9C2584.15 1470.16 2601.93 1465.73 2618.67 1462.87ZM2981.68 1520.68C2993.16 1516.67 3007.52 1520.31 3018.74 1523.81C3031.25 1527.72 3042.81 1534.91 3052.72 1543.46C3063.17 1552.47 3071.82 1563.59 3077.92 1576.02L3078.5 1577.22C3084.08 1588.75 3090.43 1604.58 3087.62 1617.25C3087.54 1617.6 3087.44 1617.95 3087.34 1618.29C3110.12 1629.58 3131.16 1643.73 3149.47 1661.66C3170.81 1682.54 3188.87 1706.3 3204.15 1731.97C3264.86 1833.92 3275.54 1956.37 3282.71 2072.63L3284.5 2102.11C3288.39 2165.77 3292.95 2229.28 3304.79 2292.06L3305.65 2296.59C3318.3 2362.32 3336.41 2428.55 3334.57 2495.98C3334.02 2516.18 3304.39 2516.05 3303.53 2495.98C3300.29 2420.45 3282.8 2347.53 3270.95 2273.19C3250.1 2142.39 3260.55 2007.54 3231.01 1878.06C3219.42 1827.24 3201.46 1777.95 3175.82 1732.59C3163.16 1710.18 3148.67 1688.53 3131.69 1669.19C3117.09 1652.56 3101.91 1636.55 3084.84 1622.57C3079.39 1628.07 3068.49 1625.27 3065.64 1617.25C3063.69 1611.73 3064.26 1605.29 3063 1599.51C3061.84 1594.15 3060.23 1588.84 3058.09 1583.79C3053.83 1573.73 3047.56 1564.07 3040.34 1555.93C3032.53 1547.13 3023.55 1539.82 3013.51 1533.78C3003.4 1527.71 2992.34 1525.89 2981.68 1521.45C2981.32 1521.3 2981.29 1520.82 2981.68 1520.68ZM3026.29 2219.71C3026.3 2219.18 3026.93 2218.93 3027.31 2219.28C3031.33 2223.01 3033.77 2228.37 3036.73 2232.96C3040.14 2238.25 3043.73 2243.43 3047.49 2248.48C3055.03 2258.6 3063.42 2268.14 3071.88 2277.48C3079.75 2286.17 3088.13 2294.49 3096.83 2302.33C3106.25 2310.83 3116.81 2318.42 3125.37 2327.83C3143.23 2347.47 3146.12 2374.43 3149.89 2399.74L3150.3 2402.48C3152.6 2417.5 3154.66 2432.56 3156.52 2447.64C3157.42 2454.98 3158.32 2462.33 3159.06 2469.68L3159.28 2472.01C3159.94 2479.21 3160.11 2486.52 3156.01 2492.81C3151.61 2499.54 3141.62 2501.9 3135.68 2495.45C3125.48 2484.36 3127.39 2464.66 3126.06 2450.4C3124.97 2438.6 3123.72 2426.82 3122.33 2415.06L3121.62 2409.18C3119.98 2395.8 3118.65 2382.15 3115.61 2369C3112.93 2357.42 3107.82 2348.68 3099.45 2340.29C3091.01 2331.84 3082.24 2323.95 3074.46 2314.85C3066.19 2305.2 3058.74 2294.85 3052.03 2284.05C3046.29 2274.81 3041.68 2264.75 3037.47 2254.71L3036.77 2253.04C3032.69 2243.24 3025.97 2230.5 3026.29 2219.71ZM3173.64 1799.05C3173.73 1797.69 3175.73 1797.66 3175.76 1799.05C3176.01 1810.8 3176.26 1822.55 3176.5 1834.3C3178.45 1928.97 3177.25 2023.87 3186.67 2118.21C3191.12 2162.7 3199.31 2206.53 3208.79 2250.17C3213.63 2272.51 3218.72 2294.79 3223.55 2317.13C3228.26 2338.9 3233.31 2360.77 3237.05 2382.74C3240.72 2404.34 3244.01 2426.1 3245.49 2447.97L3245.67 2450.82C3246.3 2461.42 3249.34 2477 3243.55 2486.39C3237.27 2496.57 3225.26 2496.75 3218.53 2487.04C3212.22 2477.92 3213.79 2461.7 3212.67 2450.82C3211.54 2439.74 3210.34 2428.65 3208.98 2417.6C3206.32 2396.03 3202.82 2374.51 3199.18 2353.09C3191.6 2308.48 3180.6 2264.43 3172.49 2219.9C3164.17 2174.26 3158.26 2128.3 3158.01 2081.83C3157.76 2034.97 3162.68 1988.2 3165.17 1941.45C3167.69 1893.96 3170.56 1846.51 3173.64 1799.05ZM2729.69 1504.59C2732.22 1496.03 2741.12 1490.68 2749.81 1493.09C2757.77 1495.29 2764.34 1505.02 2761.23 1513.35C2757.83 1522.44 2751.9 1530.19 2746.89 1538.45C2742.27 1546.08 2735.53 1552.09 2730.82 1559.58L2736.01 1565.22C2738.6 1568.03 2741.21 1570.83 2743.84 1573.57L2752.89 1583.01C2759.94 1590.35 2767.03 1597.65 2774.32 1604.74C2795.77 1625.58 2817.55 1645.73 2841.57 1663.57C2847.04 1667.63 2852.55 1671.67 2858.21 1675.45L2860.32 1676.86C2864.21 1679.43 2868.54 1681.95 2873.24 1681.51C2884.64 1680.46 2894.95 1668.25 2902.79 1660.66L2903.2 1660.26C2922.62 1641.64 2940.61 1621.29 2956.33 1599.4C2959.83 1594.54 2963.21 1589.59 2966.5 1584.58C2958.9 1575.64 2960.71 1558.17 2960.29 1547.32C2960 1539.7 2959.97 1532.07 2959.93 1524.43L2959.91 1522.89C2959.82 1517.95 2959.6 1513.21 2962.78 1509.14C2962.97 1508.91 2963.35 1508.92 2963.59 1509.04C2967.95 1511.34 2969.29 1515.19 2971.15 1519.52L2971.35 1519.97C2973.61 1525.15 2975.78 1530.39 2977.97 1535.61C2980.27 1541.07 2982.38 1546.62 2984.51 1552.15C2985.5 1554.72 2986.45 1557.3 2987.38 1559.9C2987.94 1561.55 2988.53 1563.2 2989.13 1564.85L2989.27 1564.98C2990.06 1565.65 2990.73 1566.37 2991.31 1567.11C2993.75 1568.33 2995.68 1570.57 2996.59 1573.85C2998.56 1580.99 2994.48 1586.82 2990.83 1592.49C2976.03 1615.53 2959.15 1637.49 2940.39 1657.4C2931.07 1667.3 2921.27 1676.75 2911.07 1685.71L2909.29 1687.27C2900.12 1695.2 2890.17 1702.72 2877.93 1704.57C2863.6 1706.75 2851.94 1699.57 2840.97 1691.3L2839.88 1690.47C2829.48 1682.54 2819.29 1674.34 2809.42 1665.75C2789.3 1648.25 2770.16 1629.46 2753.17 1608.84C2736.64 1588.79 2720.3 1566.36 2710.11 1542.23C2709.49 1540.76 2711.13 1539.22 2712.41 1540.45C2717.38 1545.22 2722.17 1550.25 2726.9 1555.35C2727.03 1547.85 2725.66 1540.28 2726.42 1532.74C2727.36 1523.56 2727.09 1513.43 2729.69 1504.59Z" fill="black"/>
<path fill-rule="evenodd" clip-rule="evenodd" d="M3062.22 1182.25C3058.86 1138.42 3064.07 1092.47 3047.29 1050.81C3018.04 981.684 2936.02 958.636 2872.43 932.318C2846.95 924.735 2761.23 923.675 2731.4 913.639C2663.89 890.924 2647.76 863.86 2594.12 907.109C2585.06 914.498 2579.4 922.527 2575.27 933.498L2575.44 933.545C2574.26 938.119 2575.52 942.683 2578.18 946.169C2554.92 970.118 2545.19 1006.02 2557.12 1037.91C2596.07 1120.87 2594.24 1165.73 2581.69 1254.91C2565.3 1338.18 2602.75 1368.59 2664.76 1413.9C2662.23 1418.83 2661.71 1425.38 2665 1429.73C2736.71 1531.24 2871.91 1579.71 2987.76 1528.19C3034.78 1507.1 3055.78 1456.66 3067.76 1411.14C3081.71 1360.17 3086 1306.46 3074.64 1254.54C3070.06 1230.53 3064.09 1206.69 3062.22 1182.25Z" fill="white"/>
<path fill-rule="evenodd" clip-rule="evenodd" d="M2648.59 696.616C2657.3 695.299 2663.87 700.739 2667 708.407L2667.16 708.82C2668.16 711.429 2669.28 713.967 2670.49 716.462C2692.27 705.698 2723.35 708.464 2737.13 730.263C2746.97 745.832 2740.97 764.31 2737.26 780.82L2734.82 791.698C2739.53 794.715 2743.08 800.117 2742.91 805.71L2742.89 806.141L2741.9 821.311C2745.04 818.103 2747.92 814.61 2750.48 810.889C2752.25 807.624 2754.16 804.416 2756.21 801.308C2768.28 783.015 2795.38 798.912 2785.42 818.502C2783.51 822.28 2781.36 825.859 2779.05 829.309C2776.45 834.399 2774.31 839.631 2772.67 845.006C2777.38 847.074 2781.01 851.665 2781.39 858.594C2782.28 874.776 2773.84 888.278 2760.43 896.761C2756.48 899.256 2752.4 899.74 2748.71 898.814C2748.06 899.698 2747.41 900.582 2746.78 901.48C2752.13 905.857 2756.96 910.847 2761.11 916.379C2773.59 914.497 2786.14 913.613 2798.7 913.584C2814.04 906.014 2832.41 906.171 2848.9 909.008C2859.51 910.833 2869.7 914.383 2880.15 916.935C2891.16 919.615 2902.34 919.715 2913.48 921.54C2927.52 923.835 2939.83 930.365 2947.57 940.787C2956.08 941.044 2965.02 944.551 2972.44 949.313C2989.7 960.406 3006.87 971.655 3024.09 982.818C3030.7 987.104 3033.18 993.946 3031.96 1001.58L3031.88 1002.07L3031.3 1005.23L3032.66 1007.18C3037.93 1014.68 3043.67 1022.53 3047.08 1030.81C3053.39 1039.98 3059.09 1049.59 3064.15 1059.49C3070.95 1072.81 3076.57 1086.93 3080.38 1101.41C3081.33 1105.08 3082.28 1108.77 3082.9 1112.5C3083.79 1117.78 3082.42 1121.87 3081.67 1126.93C3080.73 1133.35 3080.39 1139.85 3079.4 1146.28C3078.74 1150.54 3075.14 1152.64 3071.38 1152.75C3072.79 1163.6 3073.81 1174.52 3074.79 1185.36C3076.16 1200.84 3077.1 1216.37 3077.9 1231.89C3082.06 1237.98 3090.57 1242.8 3096.71 1244.47C3105.22 1246.76 3114.13 1244.27 3122.17 1241.35C3127.23 1239.51 3131.37 1245.91 3128.91 1250.19C3121.17 1263.62 3104.61 1263.56 3092.07 1257.61C3086.76 1255.11 3082.11 1251.47 3078.65 1246.74C3078.87 1251.24 3079.09 1255.75 3079.32 1260.27L3079.53 1264.36C3082.08 1312.17 3087.58 1361.62 3078.67 1408.96C3063.23 1490.95 2995.87 1553.38 2913.59 1558.23C2870.41 1560.78 2834.46 1547.93 2816.58 1540.76C2798.7 1533.59 2805.65 1518.98 2818.06 1523.16C2839.44 1530.35 2878.72 1541.08 2913.87 1536.45C2996.72 1525.53 3066.98 1483.82 3059.76 1304.15C3058.74 1278.67 3055.58 1253.18 3054.9 1227.7C3054.25 1202.79 3054.49 1177.87 3053.4 1152.98L3053.04 1144.49C3052.62 1134.56 3052.16 1124.59 3051.42 1114.66C3050.53 1110.81 3049.8 1106.9 3048.71 1103.12C3045.75 1092.84 3041.88 1082.85 3037.09 1073.31C3036.02 1074.12 3034.84 1074.71 3033.55 1074.93C3023.77 1076.7 3014.6 1076.2 3005.44 1072.1C3001.17 1070.2 2997.4 1067.68 2993.89 1064.56C2992.22 1063.09 2991.1 1061.66 2990.23 1060.18C2985.8 1060.25 2981.37 1058.91 2978.59 1055.7C2975.43 1052.05 2974.9 1048.27 2976.14 1044.77L2976.27 1044.42L2975.96 1044.31C2972.22 1054.05 2964.78 1062.62 2956.61 1068.41C2943.71 1077.59 2927.56 1080.24 2912.07 1080.48C2894.98 1080.74 2876.95 1078.09 2860.08 1075.38C2855.62 1074.66 2851.19 1073.85 2846.84 1072.75C2846.67 1072.92 2846.5 1073.12 2846.32 1073.3C2831.84 1087.25 2811.48 1090.85 2793.11 1082.88C2782.49 1078.27 2773.59 1070.86 2765.72 1062.36C2765.61 1066.81 2765.38 1071.26 2765 1075.66L2764.84 1077.41C2764.06 1085.62 2762.55 1094.32 2756.39 1100.24C2746.44 1109.84 2732.01 1105.99 2720.53 1099.74C2720.54 1100.04 2720.54 1100.36 2720.54 1100.67C2723.64 1111.28 2726.76 1121.9 2729.87 1132.52L2730.54 1134.78C2732.81 1142.33 2735.29 1149.88 2735.97 1157.77C2737.27 1172.85 2727.31 1187.75 2710.67 1182.69C2701.94 1180.05 2694.94 1172.65 2688.23 1166.73L2684 1163.05C2694.94 1199.07 2702.53 1236.39 2703.24 1273.98C2703.28 1276.02 2701.54 1277.56 2699.61 1277.63C2695.11 1277.82 2690.27 1276.92 2685.74 1275.11C2685.49 1275.09 2685.23 1275.08 2684.96 1275.04C2677.24 1273.91 2670.06 1271.1 2663.74 1266.95C2665.19 1271.62 2665.84 1276.62 2665.46 1281.85C2665.36 1283.12 2663.4 1283.56 2663.11 1282.17C2659.46 1264.07 2638.44 1250.4 2620.33 1253.86C2600.88 1257.59 2586.56 1274.44 2583.05 1293.61C2579.29 1314.22 2586.49 1338.04 2599.84 1353.94C2605.98 1361.27 2614.06 1367.38 2623.65 1368.92C2628.04 1369.62 2632.6 1369.38 2636.86 1368.12C2638.67 1367.58 2640.37 1366.83 2642.1 1366.11C2644.61 1365.09 2647.56 1364.93 2649.94 1363.85C2655.33 1361.41 2660.75 1366.41 2658.02 1371.99C2655.64 1376.85 2653.5 1380.13 2649.55 1382.64C2652.75 1386.57 2655.65 1392.05 2656.73 1393.52C2662.22 1400.99 2667.8 1408.04 2674.05 1414.87C2680.42 1421.8 2687.37 1428.13 2694.72 1433.99L2697.8 1436.45C2704.88 1442.1 2711.04 1447.34 2716.03 1455.45C2719.96 1461.85 2714.87 1470.53 2707.5 1470.43C2684.43 1470.11 2667.66 1449.69 2655.71 1431.85C2654.01 1429.3 2652.41 1426.61 2650.93 1423.84C2650.39 1424.71 2649.79 1425.52 2649.13 1426.26L2650.45 1429.83C2654.35 1440.32 2637.52 1447.18 2632.64 1437.39C2629.09 1430.29 2624.97 1423.53 2620.38 1417.14C2617.68 1416.76 2615.04 1415.1 2613.56 1412.96C2609.84 1407.53 2605.67 1402.04 2602.14 1396.25C2600.19 1394.39 2598.18 1392.59 2596.13 1390.84C2595.53 1391.36 2594.92 1391.89 2594.34 1392.45C2591.77 1398.36 2588.58 1403.77 2584.63 1408.86L2583.79 1409.94C2576.22 1419.55 2566.37 1429.38 2554.18 1431.73C2550.46 1432.44 2546.88 1427.78 2550.17 1424.8C2558.71 1417.07 2568.8 1411.81 2576.67 1403.18C2580.54 1398.93 2584.1 1394.25 2587.16 1389.35L2587.86 1388.21C2588.37 1387.37 2588.89 1386.53 2589.43 1385.67C2585.88 1383.24 2582.33 1380.78 2578.78 1378.33C2569 1386.75 2556.26 1390.6 2545.45 1397.57L2544.37 1398.28C2534.59 1404.86 2524.29 1390.29 2532.13 1382.3C2540.77 1373.51 2547.99 1363.04 2555.64 1353.27C2552.04 1346.59 2550.34 1338.69 2549.7 1330.71C2549.45 1328.45 2549.25 1326.19 2549.05 1323.93C2543.56 1324.01 2538.04 1322.11 2533.37 1318.85L2531.6 1317.58C2525.93 1319.41 2519.97 1320.29 2514.27 1320.13C2500.85 1319.73 2495.36 1304.29 2503.75 1294.53C2512.31 1284.55 2527.3 1282.37 2539.18 1287.21C2539.56 1287.01 2539.95 1286.8 2540.34 1286.59C2539.77 1283.96 2539.9 1281.58 2540.54 1279.49L2540.35 1278.22C2537.74 1274.18 2536.03 1269.57 2535.37 1264.7C2534.86 1260.85 2534.96 1257.03 2535.85 1253.22C2536.14 1251.95 2536.76 1250.64 2537.23 1249.32C2536.26 1246.86 2535.69 1244.32 2535.52 1241.77C2535.25 1241.45 2534.98 1241.11 2534.72 1240.76C2528.83 1232.42 2530.02 1222.38 2535.63 1215.64C2535.65 1215.21 2535.69 1214.78 2535.75 1214.35C2535.42 1213.61 2535.12 1212.86 2534.85 1212.1C2529.37 1206.53 2525.35 1199.83 2526.1 1191.53C2526.54 1186.64 2528.53 1182.25 2531.55 1178.96C2531.01 1177.37 2530.96 1175.52 2531.61 1173.98C2526.8 1161.08 2527.4 1145.55 2530.87 1131.12C2530.1 1128.93 2529.71 1126.55 2529.79 1124.02C2530.19 1113.32 2539.39 1103.48 2550.29 1103.61C2551.6 1103.62 2552.83 1103.79 2554.01 1104.04L2554.02 1103.79C2554.44 1100.57 2555.32 1097.6 2556.6 1094.94C2555.97 1094.71 2555.39 1094.38 2554.87 1093.94C2547.89 1097.7 2540.5 1100.56 2532.75 1102.52C2527.06 1103.96 2521.22 1097.43 2524.76 1092.05C2526.41 1089.55 2528.22 1087.3 2530.17 1085.25C2527.4 1085.27 2524.58 1085.46 2521.73 1085.83C2516.6 1086.5 2510.88 1082.98 2507.56 1078.21C2503.43 1082.26 2499.28 1086.3 2495.13 1090.33C2484.63 1100.58 2468.77 1093.04 2467.11 1079.53C2463.98 1078.68 2461.07 1077.26 2458.51 1075.22C2441.95 1082.46 2424.13 1086.44 2405.91 1087.2C2392.84 1087.74 2385.19 1072.4 2391.31 1061.56C2395.41 1054.29 2400.51 1047.76 2406.38 1042.09C2397.27 1044.89 2387.85 1046.92 2378.24 1048.22C2373.05 1048.92 2365.71 1044.58 2363.62 1039.78C2355.67 1021.3 2356.35 1002.04 2365.51 984.058C2365.86 983.346 2366.26 982.661 2366.64 981.977C2367.59 979.596 2368.62 977.243 2369.74 974.934C2358.47 963.1 2357.5 945.507 2363.57 930.779C2361.13 926.801 2360.2 922.01 2361.86 917.676C2366.57 905.201 2373.36 893.681 2381.94 883.786C2381.12 882.19 2380.4 880.493 2379.79 878.668C2374.96 863.912 2380.55 846.104 2391.83 835.825C2398.92 829.352 2407.07 825.474 2415.78 822.993C2419.44 816.463 2424.16 810.575 2429.65 805.613C2429.86 805.143 2430.07 804.672 2430.31 804.202C2438.86 787.977 2454.43 779.28 2471.12 777.27C2471.77 770.925 2476.01 764.866 2482.18 762.898C2483.88 757.409 2486.41 752.162 2489.9 747.401C2495.37 739.901 2504.47 736.365 2513.05 741.284C2517.75 743.979 2522.25 747.073 2526.47 750.494C2528.36 749.599 2530.51 749.02 2532.93 748.836L2533.54 748.798L2547.5 748.085C2553.34 745.476 2559.17 742.738 2565.02 740.072C2568.53 737.149 2572.45 734.711 2576.72 732.901C2581.56 730.862 2586.52 729.707 2591.48 729.322C2595.52 727.996 2599.58 726.827 2603.71 725.915C2613.42 723.776 2623.58 722.578 2633.66 722.678C2633.87 720.051 2633.97 717.392 2633.95 714.702L2633.93 713.354C2633.7 704.728 2640.54 697.842 2648.59 696.616ZM2638.81 1386.75C2637.43 1387.05 2636.03 1387.29 2634.63 1387.46C2635.05 1388.52 2635.47 1389.57 2635.89 1390.63C2637.02 1391.27 2638.16 1391.88 2639.31 1392.45C2638.97 1390.51 2638.77 1388.56 2638.81 1386.75ZM2566.1 1364.97L2565.16 1366.72C2565.01 1367.01 2564.86 1367.29 2564.71 1367.57C2566.71 1367.41 2568.72 1367.45 2570.7 1367.68L2570.69 1367.47C2570.44 1367.38 2570.18 1367.3 2569.94 1367.18C2568.57 1366.52 2567.3 1365.78 2566.1 1364.97ZM2605.4 1285.34C2617.92 1286.08 2628.53 1288.01 2639.92 1293.53L2640.9 1294.01C2650.96 1299.04 2667.6 1308.34 2666.2 1321.67C2665.8 1325.46 2663.07 1329.45 2658.77 1329.16C2646.98 1328.34 2640.24 1316.37 2632.26 1308.9C2624.21 1301.37 2614.32 1293.63 2604.56 1288.45C2603.19 1287.72 2603.73 1285.42 2605.23 1285.34L2605.4 1285.34ZM2548.61 1109.71C2545.61 1109.81 2546.62 1112.74 2548.16 1110.29C2548.29 1110.09 2548.44 1109.89 2548.61 1109.71ZM2710.58 913.642C2682.16 914.395 2653.57 931.297 2632.28 948.382C2613.76 963.245 2597.77 980.924 2583.61 999.979C2579.97 1009.47 2576.84 1019.16 2574.2 1028.92C2572.45 1035.36 2571.37 1041.88 2569.91 1048.38L2569.45 1050.37C2568.31 1052.53 2567.46 1054.85 2566.84 1057.24C2569.42 1059.85 2572.77 1061.72 2576.45 1062.6C2577.64 1062.89 2578.63 1063.5 2579.41 1064.32C2582.37 1059.33 2584.96 1054.07 2586.47 1048.49L2586.53 1048.23C2592.23 1038.82 2598.42 1029.71 2605.06 1020.9C2623.38 996.595 2643.54 974.439 2667.79 956.004C2686.17 942.032 2706.72 931.082 2728.57 923.968C2723.23 919.621 2717.15 916.182 2710.58 913.642Z" fill="black"/>
<path fill-rule="evenodd" clip-rule="evenodd" d="M2932.13 1443.4C2922.62 1439.49 2914.13 1432.97 2907.92 1424.64C2905.77 1421.74 2905.21 1418.69 2905.66 1415.89C2906.17 1412.74 2908.01 1409.89 2910.53 1407.98C2913.06 1406.06 2916.22 1405.12 2919.28 1405.6C2921.93 1406.02 2924.58 1407.48 2926.67 1410.52L2927.11 1411.13C2930.8 1416.16 2935.6 1420.28 2941.08 1422.94C2946.36 1425.5 2952.27 1426.7 2958.38 1426C2970.02 1424.68 2978.04 1418.34 2986.57 1409.73C2987.62 1408.64 2988.68 1407.52 2989.74 1406.38C2990.42 1405.35 2991.35 1404.68 2992.38 1404.34C2993.53 1403.95 2994.83 1403.97 2996.02 1404.39C2997.16 1404.79 2998.19 1405.56 2998.88 1406.57C2999.53 1407.54 2999.9 1408.74 2999.78 1410.11C2999 1419.03 2994.37 1427 2987.79 1433.25C2980.49 1440.2 2970.8 1445 2961.68 1446.69C2951.64 1448.54 2941.4 1447.21 2932.13 1443.4ZM2966.41 1305.73C2977.1 1312.28 2993.39 1327.54 2981.89 1343.76C2968.36 1358.07 2948.87 1341.66 2939.27 1334.25C2930.37 1328.5 2920.36 1343.28 2928.62 1350C2998.01 1401.74 3026.16 1307.45 2971.82 1298.04C2965.84 1297 2963.61 1303.71 2966.41 1305.73ZM2842.08 1245.54C2843.26 1230.77 2865.58 1227.42 2867.8 1242.03C2869.79 1255.12 2867.45 1267.14 2861.6 1278.92C2856 1290.18 2841.95 1284.93 2840.89 1274.68C2839.46 1260.94 2841.34 1254.72 2842.08 1245.54ZM3012 1239C3015.11 1234.9 3019.61 1232.1 3024.99 1233.68C3041.81 1238.63 3036.85 1262.69 3030.95 1274.4C3027.74 1280.76 3017.36 1282.37 3012.67 1276.77C3005.03 1267.64 3001.37 1249.41 3011.09 1240.41C3011.35 1239.95 3011.64 1239.48 3012 1239ZM2861.36 1180.93L2864.02 1180.46C2872.24 1179.03 2882.46 1177.65 2888.28 1184.31C2891.36 1187.84 2892.42 1194.4 2888.28 1197.78C2880.98 1203.73 2872.92 1201.42 2864.19 1201.92C2856.98 1202.34 2850.06 1203.54 2843.13 1205.54C2827.91 1209.92 2815.51 1217.92 2802.51 1226.7C2800.81 1227.85 2799.07 1225.66 2799.88 1224.05C2807.38 1209.25 2821.92 1197.09 2836.49 1189.67C2844.26 1185.72 2852.77 1182.44 2861.36 1180.93ZM2996.68 1174.3L2998.71 1174.72C3020.84 1179.38 3049.6 1188.69 3060.08 1210.59C3060.48 1213.68 3060.05 1214.35 3059.71 1214.78L3059.6 1214.92C3059.31 1215.29 3059.09 1215.8 3057.76 1216.23C3057.39 1216.14 3057.01 1216.04 3056.63 1215.94C3051.83 1214.68 3048.03 1212.93 3044.35 1211.12L3040.36 1209.14C3035.73 1206.85 3031.06 1204.65 3026.11 1203.02C3015.55 1199.55 3004.69 1197.1 2993.66 1195.8C2991.27 1195.52 2988.97 1194.7 2987.15 1193.31C2985.42 1191.99 2984.11 1190.16 2983.51 1187.72C2982.73 1184.57 2982.95 1182.19 2984.63 1179.35C2985.89 1177.21 2987.7 1175.74 2989.77 1174.89C2991.88 1174.02 2994.29 1173.82 2996.68 1174.3Z" fill="black"/>
<path fill-rule="evenodd" clip-rule="evenodd" d="M2840.33 1452.33C2851.79 1425.29 2876.79 1405.42 2905.59 1398.15C2926.73 1392.83 2948.92 1393 2970.48 1395.11C2981.77 1396.21 2993.88 1397.11 3004.53 1401.34C3013.62 1404.94 3021.02 1411.77 3026.59 1419.78C3033.22 1429.27 3037.73 1440.13 3040.89 1451.26C3041.34 1452.84 3041.77 1454.44 3042.16 1456.04C3040.78 1464.44 3037.86 1471.59 3030.14 1476.87C3022.6 1482.03 3013.61 1484.13 3004.65 1484.88C3003.77 1484.46 3002.92 1484.02 3002.14 1483.57C2988.17 1475.52 2978.34 1456.48 2960.71 1459.06C2944.97 1461.36 2934.62 1481.3 2925.26 1493C2895.22 1496.52 2865.21 1487.43 2840.77 1470.13C2839.53 1464.21 2839.46 1458.24 2840.33 1452.33ZM3062.57 1431.82C3060.17 1425.03 3057.14 1418.45 3053.56 1412.25C3041.7 1391.76 3023.49 1375.43 3001.88 1366.09C2950.76 1344.04 2884.61 1359.59 2843.33 1395.75C2829.22 1408.11 2814.96 1426.28 2810.65 1445.82C2809.36 1446.08 2808.15 1446.76 2807.15 1447.71C2777.32 1428.79 2746.6 1410.59 2722.57 1384.36C2705.11 1365.31 2692.97 1342.76 2685.53 1317.98C2684.93 1315.94 2681.66 1316.24 2681.76 1318.49C2681.79 1319.02 2681.82 1319.55 2681.85 1320.08C2681.53 1319.11 2680.06 1319.61 2679.95 1320.55C2675.95 1350.65 2670.95 1382.56 2675.56 1412.82C2678.31 1430.88 2686.45 1444.09 2697.34 1458.37C2709 1473.67 2722.2 1487.89 2735.7 1501.54C2744.26 1510.2 2753.21 1520.19 2763.7 1526.55C2775.89 1533.92 2789.73 1539.53 2802.75 1545.23C2815.99 1551.04 2829.43 1556.4 2843.13 1561.06C2870.51 1570.39 2898.8 1576.84 2927.59 1579.67C2950.65 1581.92 2976.99 1584.38 2999.08 1575.64C3016.02 1568.95 3029.68 1556.85 3040.53 1542.29C3052.33 1526.43 3061.66 1508.37 3066.81 1489.32C3072.17 1469.54 3063.7 1435.01 3062.57 1431.82Z" fill="black"/>
</g>
<g clip-path="url(#clip1)">
<path fill-rule="evenodd" clip-rule="evenodd" d="M1209.33 2376.92C1207.39 2340.83 1205.02 2304.77 1202.18 2268.74C1196.51 2196.98 1189.1 2125.16 1176.76 2054.22C1164.58 1984.22 1147.54 1916.16 1122.99 1849.46C1111.6 1818.51 1099.27 1792.12 1081.38 1764.3C1064.46 1738 1042.87 1720.18 1015.97 1704.3C991.741 1689.99 963.588 1665.18 940.345 1649.16C930.641 1642.47 910.677 1642.91 904.023 1633.02C895.31 1620.07 900.959 1600.24 892.175 1587.33C882.135 1572.57 868.069 1561.1 852.207 1552.77C834.895 1540.98 814.504 1535.65 794.059 1536.39C763.91 1534.55 733.546 1544.2 714.19 1568.86C704.531 1581.17 698.892 1595.37 698.111 1611.1C697.908 1615.19 699.215 1618.41 701.367 1620.74C700.091 1622.46 698.821 1624.17 697.56 1625.9C693.601 1620 684.347 1616.87 678.18 1621.32C658.005 1635.88 636.2 1647.45 613.187 1655.94C607.802 1653.37 601.284 1654.56 596.672 1658.74C594.8 1660.44 592.814 1661.89 590.739 1663.12C582.206 1665.44 573.54 1667.39 564.747 1668.89C561.994 1669.36 559.662 1670.93 557.893 1673.04C555.272 1670.58 551.671 1669.4 547.648 1670.94C501.203 1688.74 457.342 1716.38 424.003 1753.84C387.067 1795.33 367.667 1846.95 352.898 1899.83C336.911 1957.08 326.693 2015.75 318.112 2074.52C309.416 2134.07 300.852 2193.85 294.869 2253.74C291.502 2287.44 290.218 2321.45 291.742 2355.31C292.502 2372.22 294.039 2389.09 296.488 2405.85C297.059 2409.77 297.656 2414.28 298.618 2418.79C295.694 2418.22 292.212 2420.7 292.805 2424.68C296.931 2452.37 330.242 2460.44 353.216 2463.63C390.795 2468.84 428.569 2471.74 466.509 2471.96C503.793 2472.18 541.071 2469.77 578.277 2467.62C616.421 2465.41 654.565 2463.19 692.709 2460.94C845.535 2451.94 998.369 2443.03 1151.2 2434.02C1165.16 2433.2 1181.1 2432.08 1193.06 2423.94C1209.45 2412.78 1210.3 2395.05 1209.33 2376.92Z" fill="white"/>
<path fill-rule="evenodd" clip-rule="evenodd" d="M464.31 2067.17C463.78 2066.17 465.011 2065.27 465.827 2065.99C484.38 2082.35 494.093 2108.64 496.13 2132.93C498.288 2158.69 495.228 2185.36 494.059 2211.11C492.758 2239.79 491.589 2268.49 490.001 2297.15C488.388 2326.24 486.651 2355.32 485.162 2384.41L481.812 2449.85C481.455 2456.83 482.227 2465.4 479.564 2471.91C475.438 2482 463.18 2480.44 460.604 2472.01L460.523 2471.73L460.288 2471.91C458.015 2464.31 459.716 2455.29 460.102 2447.43L463.611 2375.93C466.091 2325.39 468.303 2274.85 470.966 2224.32L471.872 2207.47C473.117 2184.8 474.072 2162.18 474.839 2139.52L475.087 2131.96C475.816 2109.2 475.238 2087.71 464.31 2067.17ZM914.052 1647.61C924.388 1646.62 932.193 1650.06 941.577 1653.69C945.664 1655.27 949.535 1657.1 953.457 1658.99C958.367 1661.35 961.524 1665.54 964.548 1669.96L966.164 1672.35C978.754 1690.89 987.222 1712.28 996.778 1732.46C1007.96 1756.07 1019.25 1779.63 1030.18 1803.36L1035.58 1815.05C1038.28 1820.89 1040.97 1826.74 1043.62 1832.61L1048.2 1842.82C1052.8 1853.17 1056.93 1864.13 1050.37 1874.81C1044.27 1884.74 1033.46 1892.43 1024.9 1900.11C1017.76 1906.52 1010.62 1912.92 1003.48 1919.33C1018.24 1934.19 1028.16 1952.91 1033.99 1972.98C1042.27 1969.52 1052.37 1968.85 1060.93 1967.35C1072.92 1965.25 1074.38 1983.49 1063.07 1983.26C1054.72 1983.1 1044.92 1983.96 1036.35 1982.19C1037.84 1988.78 1038.92 1995.48 1039.61 2002.19C1043.21 2037.38 1035.34 2072.78 1027.14 2106.82L1026.46 2109.62C1017.55 2146.47 1009.1 2183.42 1001.54 2220.57C993.967 2257.81 987.152 2295.2 981.103 2332.72C974.946 2370.91 970.589 2409.3 965.906 2447.69C965.197 2453.5 961.56 2458.48 955.173 2458.48C949.852 2458.48 943.77 2453.49 944.438 2447.69C949.27 2405.89 956.123 2364.3 962.931 2322.78C974.656 2251.28 989.414 2180.4 1006.39 2109.99L1009.36 2097.73C1017 2065.92 1023.93 2033.15 1020.1 2000.35C1016.97 1973.64 1005.86 1945.16 983.903 1928.57L983.234 1928.07C978.104 1924.28 976.131 1917.05 981.183 1912.07C984.398 1908.9 987.617 1905.74 990.837 1902.58L1010.17 1883.6L1014.07 1879.77C1017.32 1876.58 1020.58 1873.41 1023.95 1870.34C1025.98 1868.48 1031.5 1864.94 1031.9 1861.88C1032.16 1859.89 1029.81 1856.38 1028.86 1854.55L1024.5 1845.69C1022.02 1840.65 1019.62 1835.56 1017.2 1830.48C1012.19 1819.97 1007.1 1809.48 1002.2 1798.91L972.73 1735.45C964.417 1717.54 957.012 1698.64 946.144 1682.09L944.002 1678.86C942.213 1676.15 940.633 1673.53 939.503 1670.21C938.416 1667.01 937.052 1663.5 935.043 1660.77C930.336 1654.37 921.339 1650.74 913.811 1649.4C912.723 1649.21 913.118 1647.7 914.052 1647.61ZM687.429 1630.94C688.084 1630.94 688.183 1631.88 687.58 1632.06C678.498 1634.81 669.819 1639.24 662.739 1645.63C659.351 1648.69 655.941 1652.16 653.85 1656.28C653.049 1657.86 652.606 1659.52 652.282 1661.25L652.178 1661.83C651.638 1664.94 650.866 1666.68 649.289 1669.18L649.019 1669.6C640.021 1683.57 633.715 1699.08 627.949 1714.61L615.392 1748.48L602.844 1782.36C598.801 1793.27 594.755 1804.19 590.711 1815.1C588.477 1821.13 586.18 1827.13 583.884 1833.13C582.891 1835.73 581.822 1838.31 580.913 1840.94C580.788 1841.3 580.391 1843.47 580.093 1843.99L580.195 1844.17C582.726 1848.45 589.475 1852.03 593.301 1855.13L606.476 1865.84C615.869 1873.48 625.504 1880.9 634.615 1888.87C640.338 1893.88 636.777 1902.85 630.395 1904.94C619.699 1908.44 609.22 1912.63 598.684 1916.59C594.429 1918.19 589.997 1919.59 585.791 1921.35L583.23 1922.46C582.23 1922.92 582.711 1922.91 582.751 1924.77C582.791 1926.71 583.34 1928.74 583.655 1930.65C587.204 1952.22 590.966 1973.75 594.936 1995.24C608.98 2071.25 625.759 2146.7 644.896 2221.57C654.562 2259.38 664.928 2297 674.806 2334.76C684.66 2372.41 697.625 2409.52 710.004 2446.4C713.497 2456.8 697.092 2461.28 693.685 2450.92C679.417 2407.55 666.365 2363.8 652.886 2320.18C628.939 2242.68 610.067 2163.49 593.377 2084.12C585.104 2044.78 577.538 2005.29 570.685 1965.67C569.388 1958.17 568.115 1950.67 566.869 1943.16L565.053 1932.11C563.808 1924.24 563.099 1916.04 569.186 1909.81C575.131 1903.73 585.335 1901.58 593.158 1898.72L593.726 1898.51C598.703 1896.65 603.716 1894.85 608.71 1892.99C601.354 1887.17 594.088 1881.22 586.749 1875.4C580.83 1870.71 574.817 1866.11 568.982 1861.31C564.171 1857.35 560.248 1852.27 559.746 1845.83C559.234 1839.25 562.04 1833.14 564.304 1827.1L564.521 1826.52C566.743 1820.49 568.971 1814.47 571.256 1808.46L585.395 1771.3C594.38 1747.68 602.986 1723.87 612.436 1700.44C616.175 1691.16 620.249 1682.04 625.064 1673.27C627.385 1669.04 629.875 1664.91 632.581 1660.92C635.612 1656.44 638.363 1654.26 643.061 1651.79C650.571 1647.85 656.465 1641.23 664.007 1637.16C671.41 1633.17 679.026 1631.03 687.429 1630.94ZM711.813 1588.81C712.1 1588.32 712.861 1588.54 712.87 1589.1C713.067 1600.84 710.292 1612.83 708.585 1624.44C706.871 1636.09 706.321 1648.38 703.84 1659.9C703.789 1660.44 703.686 1660.97 703.54 1661.49L703.421 1661.88C702.374 1665.11 699.652 1667.85 696.312 1668.7C697.362 1674.55 698.352 1680.41 699.184 1686.31C700.614 1696.43 701.919 1706.57 703.202 1716.72L704.738 1728.9C706.188 1740.37 707.599 1751.85 708.993 1763.33C712.539 1764.82 716.158 1766.05 719.865 1767.12C728.4 1769.57 737.143 1770.57 745.951 1771.44C763.889 1773.21 781.964 1774.03 799.965 1775.03L803.821 1775.25C824.059 1776.41 844.408 1776.62 864.595 1774.53C874.605 1773.5 884.536 1771.76 894.297 1769.3C899.258 1768.05 904.078 1766.18 909.029 1764.96C910.671 1764.55 912.138 1763.62 913.783 1762.62C914.514 1761.69 915.539 1760.99 916.874 1760.72L917.235 1760.65L917.594 1760.6L917.717 1760.55L917.707 1760.58C918.72 1760.45 919.682 1760.45 920.59 1760.57C920.951 1751.62 921.342 1742.67 921.833 1733.72C923.15 1709.69 926.786 1684.61 921.932 1660.79C921.77 1659.99 922.854 1659.71 923.136 1660.46C932.661 1685.68 931.591 1713.26 932.07 1739.8C932.539 1765.76 932.256 1791.74 932.127 1817.71C933.978 1818.5 935.628 1819.57 936.935 1821.08C939.546 1824.09 940.297 1829.32 936.935 1832.22C935.445 1833.51 933.796 1834.4 932.046 1835.02C931.953 1857.58 931.794 1880.14 931.569 1902.7C935.837 1906.01 936.236 1913.88 931.408 1917.15C930.604 1990.2 929.284 2063.26 928.189 2136.3L925.894 2289.55C925.589 2309.97 925.082 2330.39 924.9 2350.8L925.045 2350.86L925.552 2351.09C926.408 2351.5 927.68 2352.15 927.944 2352.82C928.013 2352.99 928.031 2353.11 928.023 2353.2C929.423 2353.4 930.81 2354.07 932.011 2355.21C934.975 2358.04 934.372 2362.31 932.011 2365.19L931.38 2365.96C929.908 2367.76 927.113 2368.45 924.83 2368.08C924.853 2380.82 924.934 2393.57 924.894 2406.31C924.881 2410.2 924.823 2414.09 924.756 2417.99L924.596 2427.32C924.49 2432.64 924.021 2439.41 918.594 2441.8C912.472 2444.5 906.983 2442.29 904.504 2436.04C903.833 2434.35 903.977 2432.77 904.221 2431.1C904.145 2428.58 903.754 2425.67 903.802 2423.34L904.005 2413.61C904.036 2412.11 904.097 2410.61 904.139 2409.11L903.962 2409.13C882.209 2410.19 860.304 2409.67 838.515 2409.66L828.825 2409.67C820.739 2409.68 812.636 2409.63 804.563 2409.32L801.536 2409.19C795.492 2408.91 789.135 2408.82 782.868 2408.28C783.667 2414.74 784.413 2421.21 785.078 2427.69C785.708 2433.83 779.402 2439.05 773.777 2439.05C767.096 2439.05 763.275 2433.77 762.475 2427.69C758.7 2399 757.155 2370.05 753.549 2341.34C750.318 2315.63 747.517 2289.86 744.669 2264.1L743.718 2255.51C733.298 2161.77 723.182 2067.99 713.505 1974.17L709 1930.31C704.449 1886.1 699.872 1841.89 696.013 1797.62C693.805 1772.31 691.771 1747 689.857 1721.66C688.452 1703.05 687.57 1684.54 686.996 1665.96C684.732 1663.62 683.596 1660.2 684.6 1656.67C685.186 1654.61 685.868 1652.56 686.588 1650.51C686.543 1648.5 686.496 1646.49 686.457 1644.48C686.421 1642.57 688.345 1641.59 689.884 1641.91C692.683 1635.1 695.765 1628.35 698.338 1621.6C702.5 1610.68 705.932 1598.92 711.813 1588.81ZM479.315 1706.81C522.833 1679.4 574.635 1659.67 626.518 1661.8C627.698 1661.85 628.03 1663.65 626.805 1663.93C599.13 1670.14 571.151 1677.7 544.951 1688.71C518.675 1699.76 493.69 1714.63 471.437 1732.5C430.379 1765.47 398.467 1808.35 377.453 1856.69C365.145 1885 356.517 1914.9 348.984 1944.8C341.012 1976.45 334.441 2008.45 328.979 2040.63C318.188 2104.2 311.906 2168.47 308.564 2232.85C305.163 2298.35 306.565 2363.88 304.139 2429.38C303.72 2440.73 287.582 2440.51 286.761 2429.38C281.266 2354.91 284.31 2279.25 289.393 2204.84C293.963 2137.94 301.944 2071.18 314.795 2005.35L315.914 1999.65C327.928 1938.75 342.419 1876.38 371.462 1821.23C396.258 1774.14 434.539 1735.02 479.315 1706.81ZM1083.63 1997.87C1083.85 1997.22 1084.71 1997.23 1084.94 1997.87C1089.9 2011.83 1090.08 2027.58 1091.4 2042.29L1091.5 2043.42C1092.77 2056.84 1093.72 2070.28 1094.6 2083.73L1094.93 2088.77C1098.49 2143.64 1102.93 2198.44 1109.62 2253.01C1116.29 2307.38 1125.31 2361.37 1135.06 2415.25C1136.15 2421.25 1133.5 2427.36 1127.24 2429.09C1121.73 2430.61 1114.64 2427.2 1113.48 2421.23C1107.42 2390.31 1102.53 2359.34 1098.16 2328.14C1090.47 2273.21 1084.73 2218.02 1081.04 2162.67C1079.19 2134.87 1078.05 2107.09 1077.6 2079.23C1077.39 2066.3 1077.72 2053.35 1078.41 2040.43L1078.57 2037.45C1079.33 2024.26 1079.25 2010.46 1083.63 1997.87ZM613.384 2347.31C613.966 2346.99 614.686 2347.64 614.317 2348.25C605.891 2362.01 594.491 2373.88 583.473 2385.58C571.955 2397.81 560.721 2410.4 548.97 2422.39C540.48 2431.05 526.822 2417.08 535.782 2409.14C548.382 2397.97 561.55 2387.35 574.373 2376.43L579.981 2371.65C590.495 2362.72 601.321 2353.88 613.384 2347.31ZM1013.62 2340.42C1012.99 2339.21 1014.42 2338.24 1015.4 2339.03C1022.2 2344.59 1028.29 2351.22 1034.85 2357.08C1041.35 2362.89 1048.09 2368.3 1055.02 2373.59C1061.98 2378.89 1069.08 2383.98 1076.38 2388.8C1082.44 2392.8 1088.68 2396 1095.02 2399.32C1097.95 2399.7 1100.67 2401.15 1102.85 2403.9C1106.29 2408.24 1106.65 2416.43 1101.88 2420.2L1101.02 2420.87C1095.45 2425.27 1088.84 2425.81 1083.36 2420.87C1077.24 2415.36 1071.45 2409.3 1065.57 2403.48L1063.81 2401.74C1057.49 2395.57 1051.33 2389.19 1045.52 2382.54L1040.26 2376.52C1030.5 2365.34 1020.34 2353.28 1013.62 2340.42ZM982.314 1695.54C981.184 1694.79 981.88 1692.76 983.276 1693.25L985.836 1694.14C996.532 1697.87 1007.54 1702.02 1017.25 1707.77C1027.69 1713.95 1037.32 1721.31 1046.53 1729.21C1065.58 1745.56 1081.79 1765.66 1095.57 1786.62C1123.21 1828.67 1140.31 1876.83 1154.11 1925.01C1168.83 1976.39 1180.16 2028.87 1189.41 2081.5C1198.81 2134.99 1206.06 2188.96 1210.83 2243.07C1213.18 2269.72 1214.75 2296.39 1215.54 2323.14C1215.95 2336.89 1215.94 2350.64 1215.83 2364.41C1215.8 2367.95 1215.82 2371.48 1215.86 2375.02L1215.99 2385.64C1216.07 2392.35 1216.87 2399.4 1215.28 2405.96C1212.72 2416.51 1195.36 2414.54 1195.93 2403.76C1195.41 2400.17 1195.39 2396.46 1195.52 2392.74C1195.44 2392.26 1195.35 2391.77 1195.25 2391.28C1194.97 2389.85 1195.21 2388.53 1195.77 2387.39C1195.86 2385.61 1195.94 2383.84 1195.97 2382.1C1196.08 2375.01 1196.07 2367.95 1195.88 2360.87C1195.47 2345.93 1194.88 2330.99 1194.28 2316.06C1193.09 2286.23 1191.43 2256.38 1189.02 2226.61C1180.65 2123.01 1162.97 2018.82 1133.28 1919.15C1119.49 1872.87 1100.47 1827.43 1073.21 1787.44C1061.1 1769.68 1047.45 1753.28 1032.31 1738.06C1017.07 1722.74 1000.29 1707.51 982.314 1695.54ZM776.843 2363.4L778.901 2378.36C779.929 2385.84 780.948 2393.32 781.915 2400.81C788.483 2399.91 795.202 2399.53 801.531 2398.96C812.611 2397.98 823.767 2397.5 834.88 2397.04C857.859 2396.09 880.954 2394.43 903.957 2394.55C904.193 2394.55 904.416 2394.57 904.639 2394.58L905.781 2365.07L889.618 2365.04C875.925 2365.02 862.234 2364.9 848.541 2364.78C836.209 2364.68 823.872 2364.66 811.542 2364.4L806.258 2364.28C796.907 2364.02 786.582 2364.55 776.843 2363.4ZM907.141 2320.55C906.482 2320.62 905.811 2320.69 905.097 2320.72C901.896 2320.86 898.67 2320.76 895.466 2320.79C888.645 2320.85 881.825 2320.89 875.003 2320.89C861.361 2320.89 847.72 2320.97 834.08 2321.14C820.038 2321.31 806.005 2321.56 791.962 2321.58C785.158 2321.6 778.376 2321.41 771.574 2321.22C772.674 2330.94 773.824 2340.65 775.094 2350.33C785.656 2348.9 797.016 2349.62 807.339 2349.52L808.679 2349.5C822.769 2349.26 836.87 2349.44 850.963 2349.46C865.461 2349.47 879.957 2349.52 894.456 2349.64L906.367 2349.74L906.39 2349.14C906.739 2339.62 906.964 2330.08 907.141 2320.55ZM766.329 2274.07C767.65 2285.54 768.889 2297.02 770.153 2308.51C770.993 2308.38 771.843 2308.27 772.709 2308.17C779.523 2307.46 786.323 2306.84 793.161 2306.42C806.792 2305.57 820.422 2305.12 834.075 2304.75C848.115 2304.37 862.157 2304.08 876.201 2303.88C883.025 2303.79 889.842 2303.8 896.666 2303.85C899.867 2303.87 903.101 2303.77 906.295 2303.98C906.676 2304.01 907.041 2304.05 907.402 2304.09L907.641 2286.85C907.683 2283.97 907.726 2281.1 907.772 2278.23C897.226 2278.88 886.505 2278.63 875.967 2278.64L873.538 2278.64C860.297 2278.7 847.051 2278.52 833.812 2278.24C820.154 2277.96 806.524 2277.51 792.89 2276.63C787.367 2276.28 781.883 2275.8 776.39 2275.19L773.642 2274.88C771.252 2274.59 768.79 2274.36 766.329 2274.07ZM908.863 2225.41C883.465 2227.44 858.203 2228.29 832.737 2228.54L828.916 2228.57C806.412 2228.74 783.723 2229.68 761.166 2229.08C762.514 2240.83 763.859 2252.58 765.215 2264.33C768.445 2264.18 771.691 2264.18 774.848 2264.07C781.271 2263.83 787.671 2263.78 794.098 2263.76C807.336 2263.73 820.575 2263.85 833.815 2263.82C847.46 2263.79 861.102 2263.56 874.744 2263.3C885.805 2263.09 896.983 2262.26 908.073 2262.29L908.863 2225.41ZM909.934 2175.27C906.991 2176.25 903.517 2176.31 899.707 2176.49L889.875 2176.98C885.318 2177.2 880.76 2177.42 876.2 2177.58C861.006 2178.14 845.812 2178.66 830.615 2179.15C815.043 2179.65 799.395 2179.94 783.821 2179.44C776.191 2179.2 768.626 2178.8 761.02 2178.16C759.14 2178 757.223 2177.9 755.303 2177.76C757.073 2193.33 758.85 2208.9 760.634 2224.47C783.083 2221.7 805.705 2219.98 828.127 2217.11L848.4 2214.51C868.664 2211.91 888.911 2209.36 909.25 2207.21L909.934 2175.27ZM911.02 2124.57C906.701 2125.64 901.78 2125.59 897.633 2125.85L896.865 2125.91C889.008 2126.51 881.13 2126.8 873.255 2127C857.82 2127.38 842.375 2127.57 826.935 2127.67L817.65 2127.73C805.272 2127.8 792.902 2127.83 780.521 2127.54C772.579 2127.36 764.655 2126.96 756.719 2126.56C754.342 2126.44 751.912 2126.37 749.474 2126.24C751.133 2140.98 752.808 2155.72 754.48 2170.46C757.088 2170.05 759.707 2169.73 762.204 2169.31C768.6 2168.22 774.984 2167.35 781.426 2166.58C795.378 2164.9 809.403 2163.69 823.421 2162.67C837.812 2161.62 852.215 2160.73 866.609 2159.72L876.802 2159C880.2 2158.76 883.598 2158.53 886.998 2158.32C892.804 2157.96 899.552 2158.37 905.311 2157.1C906.87 2156.44 908.602 2156.29 910.335 2156.67L911.02 2124.57ZM912.323 2065.23C910.829 2067.14 908.598 2068.14 905.937 2068.48C892.078 2070.29 877.862 2070.58 863.885 2071.43L861.422 2071.59C846.991 2072.54 832.551 2073.29 818.109 2074.07C803.274 2074.86 788.44 2075.5 773.593 2076.02C767.289 2076.24 760.954 2076.27 754.641 2076.19L751.937 2076.15C749.344 2076.1 746.629 2076.11 743.908 2076.02C745.414 2089.81 746.934 2103.59 748.477 2117.37C751.251 2117.07 754.025 2116.84 756.715 2116.55C764.646 2115.71 772.568 2114.87 780.517 2114.24C795.579 2113.05 810.652 2112.33 825.742 2111.58C841.181 2110.82 856.629 2110.3 872.07 2109.58C879.556 2109.23 887.04 2108.79 894.505 2108.1C899.736 2107.61 905.95 2105.82 911.408 2106.48C911.706 2092.73 912.017 2078.98 912.323 2065.23ZM913.548 2012.07C913.311 2012.44 913.035 2012.8 912.7 2013.13C906.598 2019.19 899.078 2018.72 890.992 2019.36L890.496 2019.4C882.572 2020.07 874.643 2020.7 866.71 2021.28C850.852 2022.43 834.962 2023.23 819.081 2023.95C802.828 2024.68 786.47 2025.19 770.201 2024.86C759.783 2024.64 748.872 2024.68 738.245 2023.66C739.877 2038.84 741.519 2054.02 743.172 2069.2C746.16 2068.64 749.167 2068.2 752.016 2067.75C759.194 2066.62 766.38 2065.48 773.6 2064.64C788.027 2062.97 802.458 2061.41 816.913 2060C829.275 2058.8 841.633 2057.57 854.004 2056.47L861.429 2055.83C876.189 2054.58 891.136 2052.52 905.944 2052.22C908.384 2052.17 911.144 2053.5 912.542 2055.61C912.869 2041.1 913.208 2026.58 913.548 2012.07ZM914.565 1969.04C910.796 1969.5 906.735 1969.24 903.256 1969.35C894.462 1969.64 885.666 1969.91 876.87 1970.17L824.093 1971.73C806.124 1972.27 788.092 1972.67 770.116 1972.41C762.208 1972.3 754.266 1972.29 746.362 1971.85L743.728 1971.69C740.475 1971.48 736.483 1971.44 732.584 1971.05L737.187 2013.9C747.762 2012.36 758.66 2011.79 769.146 2010.89L771.386 2010.69C786.85 2009.27 802.389 2008.34 817.881 2007.28C833.773 2006.2 849.642 2004.89 865.512 2003.54C873.445 2002.87 881.375 2002.21 889.302 2001.47L890.281 2001.38C897.768 2000.59 904.808 1998.92 911.439 2003.36C912.41 2004 913.169 2004.87 913.689 2005.84C913.979 1993.57 914.262 1981.31 914.565 1969.04ZM915.799 1919.03C883.657 1920.33 851.511 1921.32 819.345 1921.75C801.239 1921.99 783.156 1921.82 765.053 1921.44C757.203 1921.28 749.288 1920.9 741.444 1920.29L738.507 1920.06C734.777 1919.74 730.859 1919.51 726.958 1919.13C728.57 1933.87 730.17 1948.6 731.757 1963.34C735.594 1962.62 739.605 1962.29 742.968 1961.86L743.732 1961.76C752.088 1960.6 760.523 1959.93 768.921 1959.19C785.272 1957.74 801.704 1956.81 818.099 1956.01C834.888 1955.2 851.685 1954.51 868.476 1953.76L885.269 1953.01C888.067 1952.88 890.866 1952.76 893.665 1952.64C897.664 1952.47 901.662 1952.31 905.66 1952.14C907.633 1952.06 909.683 1951.79 911.658 1951.89L912.22 1951.82C912.479 1951.79 912.708 1951.76 912.918 1951.74C913.455 1951.33 914.033 1950.98 914.646 1950.73L915.017 1950.58L915.799 1919.03ZM721.688 1871.64C723.181 1884.9 724.657 1898.17 726.113 1911.44C730.697 1910.91 735.337 1910.62 739.714 1910.23C748.54 1909.43 757.408 1908.73 766.261 1908.32L783.954 1907.5C795.748 1906.95 807.542 1906.42 819.346 1905.99C851.648 1904.8 883.95 1903.44 916.233 1901.79C916.461 1892.79 916.696 1883.79 916.936 1874.79C915.387 1876.46 913.148 1877.56 910.206 1877.55C876.314 1877.46 842.394 1877.66 808.506 1877.1C791.542 1876.81 774.599 1876.4 757.655 1875.53C749.364 1875.1 741.027 1874.23 732.8 1873.08C729.291 1872.59 725.451 1872.24 721.688 1871.64ZM716.264 1824.38C717.858 1837.96 719.42 1851.55 720.958 1865.15C725.167 1864.39 729.515 1863.99 733.442 1863.45C741.879 1862.3 750.369 1861.38 758.867 1860.9C775.402 1859.96 791.947 1859.49 808.506 1859.13C842.392 1858.41 876.312 1858.41 910.206 1858.14C913.39 1858.12 915.754 1859.39 917.306 1861.28C917.541 1852.79 917.789 1844.31 918.045 1835.82C914.771 1835.47 911.525 1834.98 908.522 1834.77C899.291 1834.12 890.056 1833.53 880.818 1833C861.54 1831.89 842.243 1830.94 822.951 1830.09C803.655 1829.25 784.352 1828.43 765.049 1827.71L756.607 1827.4C743.184 1826.9 729.533 1826.26 716.264 1824.38ZM710.198 1773.21C711.856 1786.97 713.49 1800.73 715.119 1814.49L715.615 1818.75C731.759 1815.6 748.773 1814.68 765.053 1813.98C784.359 1813.15 803.631 1812.73 822.955 1812.79C842.258 1812.85 861.533 1813.31 880.821 1814.11C890.459 1814.51 900.096 1814.97 909.728 1815.5C912.377 1815.64 915.482 1815.56 918.678 1815.61C918.747 1813.45 918.807 1811.28 918.88 1809.12C919.174 1800.36 919.461 1791.6 919.76 1782.84C913.245 1786.2 904.774 1787.56 898.227 1788.99L897.481 1789.16C886.67 1791.6 875.631 1793.18 864.596 1794.15C842.926 1796.05 821.031 1795.34 799.381 1793.5L795.589 1793.17C776.577 1791.52 756.868 1789.42 738.438 1784.69C729.659 1782.44 720.583 1779.28 712.717 1774.72C711.899 1774.24 711.054 1773.74 710.198 1773.21ZM893.246 1609.68C893.434 1608.94 894.542 1608.77 894.907 1609.46C897.467 1614.35 898.419 1620.22 900.197 1625.46C902.11 1631.09 903.894 1636.76 906.005 1642.32C910.414 1653.94 915.615 1665.11 921.816 1675.88C927.957 1686.54 910.761 1694.15 906.242 1682.48C901.577 1670.44 897.742 1657.98 895.422 1645.25C894.289 1639.04 893.28 1632.75 892.953 1626.44C892.67 1621.02 891.912 1614.97 893.246 1609.68Z" fill="black"/>
<path fill-rule="evenodd" clip-rule="evenodd" d="M1018.74 1373.21C1018.26 1345.93 1017.73 1318.1 1013.69 1291.09C1009.75 1264.67 998.895 1240.8 980.246 1221.62C940.637 1180.88 883.22 1170.93 829.776 1161.81L738.401 1146.22C710.524 1141.46 680.783 1133.86 652.618 1140.61C638.74 1143.93 626.953 1151.65 616.181 1160.79C605.798 1169.59 594.635 1179.05 587.599 1190.89C580.552 1202.75 578.127 1216.62 575.836 1230.04C573.252 1245.16 571.244 1260.41 569.818 1275.69C566.96 1306.31 566.57 1337.15 568.643 1367.83C569.647 1382.71 571.246 1397.55 573.286 1412.32C574.297 1419.65 575.441 1426.95 576.733 1434.24C577.113 1436.38 577.403 1438.76 577.793 1441.16C574.911 1449.4 573.272 1457.93 573.405 1466.43C573.793 1491.46 594.811 1507.22 615.998 1515.68C628.284 1520.58 641.128 1523.92 653.198 1529.4C665.897 1535.16 674.54 1544.5 683.222 1555.16C699.781 1575.49 718.467 1593.77 739.804 1609.01C785.041 1641.33 842.339 1656.62 897.227 1645.02C910.397 1642.23 923.683 1637.91 935.521 1631.39C948.02 1624.52 957.418 1614.55 965.31 1602.77C979.964 1580.9 990.473 1556.27 998.423 1531.2C1006.53 1505.64 1012.29 1480.02 1015.43 1453.36C1018.56 1426.79 1019.22 1399.95 1018.74 1373.21Z" fill="white"/>
<path fill-rule="evenodd" clip-rule="evenodd" d="M727.152 1051.19C764.965 1045.96 817.156 1062.95 835.987 1097.21C925.893 1075.91 1039.29 1075.21 1113.39 1146.13C1190.71 1230.26 1093.59 1341.19 1029.19 1366.2C1033.88 1389.1 1026.57 1535.83 974.841 1601.28C933.788 1656.73 838.187 1682.32 793.949 1616.09L793.604 1615.54C788.865 1607.89 792.947 1608.14 797.812 1613.83C841.13 1652.12 900.028 1652.77 945.415 1612.36C1030.48 1538.5 1021.71 1357.4 981.23 1252.63C865.973 1239.91 742.57 1275.02 662.964 1362.23L668.347 1394.8C669.265 1400.35 670.307 1405.9 671.101 1411.47C671.61 1415.03 671.667 1418.58 669.208 1421.47C661.086 1431.01 647.399 1416.68 636.138 1410.98C632.813 1410.51 629.483 1410.33 626.216 1410.56C572.11 1417.56 582.771 1523.06 642.237 1504.57C647.233 1501.44 651.526 1502.4 653.465 1506.94C667.639 1519.99 676.985 1543.26 700.534 1565.68C708.843 1574.09 716.404 1581.12 725.75 1587.87C731.24 1593.45 747.804 1599.14 742.553 1608.69C732.623 1630.42 674.067 1562.16 663.714 1543.29C631.277 1556.16 595.33 1551.79 561.715 1548.64C384.378 1539.37 408.052 1351.48 553.411 1232.85C580.773 1212.6 610.962 1196.08 642.342 1183.37C646.626 1181.64 644.755 1174.57 640.41 1176.33C619.646 1184.74 599.404 1194.75 580.109 1206.34L580.08 1199.41C580.051 1187.74 580.234 1175.59 582.25 1164.93C583.258 1157.55 584.953 1149.66 587.563 1143.72C590.789 1125.52 641.329 1063.06 727.152 1051.19ZM623.842 1434.78C626.58 1432.16 631.692 1435.28 634.129 1435.2C640.363 1436.06 646.285 1438.71 650.904 1441.97C653.953 1443.69 656.09 1445.3 657.876 1446.79L657.925 1446.77C657.911 1446.77 657.894 1446.79 657.88 1446.79L658.048 1446.9C660.648 1448.76 670.167 1459.22 664.153 1456.41C663.705 1455.82 663.246 1455.26 662.783 1454.71C662.733 1454.78 662.664 1454.86 662.582 1454.93L662.92 1455.43C668.031 1463.16 659.206 1455.02 657.848 1452.86C657.784 1452.91 657.711 1452.94 657.64 1452.98L659.408 1455.14C659.655 1455.45 659.85 1455.7 660.011 1455.9L660.384 1456.27C666.294 1462.1 666.478 1467.36 659.612 1458.73C659.883 1459.13 660.099 1459.56 660.13 1459.95L660.537 1460.47C665.928 1467.45 661.543 1464.97 658.864 1461.99L658.64 1461.73L658.685 1461.8C661.178 1465.66 656.233 1462.95 655.359 1460.89L655.322 1460.8C654.37 1460.02 653.784 1459.14 653.583 1458.92L653.546 1458.88C648.911 1454.11 642.191 1450.07 636.483 1448.23C635.656 1448.07 634.819 1447.95 633.973 1447.86C630.541 1447.09 627.071 1446.56 623.565 1446.27C623.136 1446.22 622.701 1445.91 622.376 1445.5C617.074 1445.32 618.711 1443.13 620.91 1442.73L620.949 1442.72L620.512 1442.68C617.11 1442.35 614.786 1441.12 618.227 1440.37L618.663 1440.28C618.609 1440.2 618.562 1440.12 618.516 1440.03C615.569 1439.71 617.492 1436.83 619.128 1437.52C618.44 1435.26 621.585 1436.39 621.977 1436.05C622.277 1435.72 622.649 1435.43 622.863 1435.41C623.81 1434.74 623.351 1434.8 623.842 1434.78ZM641.876 1398.17L641.185 1398.57C640.626 1398.9 640.052 1399.12 639.476 1399.24C640.29 1399.59 641.094 1399.97 641.89 1400.37C641.877 1399.88 641.868 1399.39 641.868 1398.9L641.876 1398.17Z" fill="black"/>
<path fill-rule="evenodd" clip-rule="evenodd" d="M911.46 1547.32C902.535 1549.92 892.955 1550.15 883.857 1547.47C875.606 1545.04 867.133 1539.68 861.06 1532.59C855.665 1526.29 852.171 1518.64 852.308 1510.47C852.324 1509.54 852.655 1508.76 853.166 1508.16C853.715 1507.51 854.483 1507.06 855.305 1506.87C856.151 1506.67 857.045 1506.74 857.806 1507.09C858.495 1507.4 859.086 1507.93 859.455 1508.72C860.388 1509.95 861.318 1511.16 862.251 1512.34C869.756 1521.66 877.023 1528.62 888.307 1531.11C894.43 1532.47 900.545 1531.87 906.156 1529.8C912.161 1527.59 917.591 1523.7 921.845 1518.72C923.768 1516.47 926.038 1515.55 928.257 1515.54C930.772 1515.52 933.259 1516.69 935.132 1518.57C936.973 1520.42 938.205 1522.92 938.317 1525.55C938.415 1527.85 937.668 1530.26 935.68 1532.4C929.131 1539.47 920.643 1544.65 911.46 1547.32ZM911.188 1430.67C920.337 1436.26 934.277 1449.29 924.435 1463.15C912.85 1475.37 896.17 1461.36 887.95 1455.02C880.328 1450.11 871.765 1462.74 878.837 1468.47C938.232 1512.67 962.336 1432.13 915.816 1424.09C910.694 1423.21 908.791 1428.94 911.188 1430.67ZM825.601 1406.07C822.66 1404.17 819.201 1403.53 815.367 1405.28C812.372 1406.65 807.117 1411.21 803.461 1417.21C800.959 1421.32 799.185 1426.14 799.554 1431.15C799.64 1432.32 799.212 1433.18 798.536 1433.81C798.003 1434.31 797.232 1434.68 796.327 1434.8C795.558 1434.9 794.698 1434.81 793.999 1434.59C792.668 1434.17 791.964 1433.3 791.699 1432.59C789.138 1425.76 790.241 1418.13 793.111 1411.25C796.983 1401.97 804.016 1394.19 808.623 1391.68C816.508 1387.39 825.809 1387.19 833.705 1391.56C840.426 1395.29 844.629 1401.3 848.808 1407.42C849.697 1408.72 850.579 1410.02 851.49 1411.29C853.317 1413.83 853.499 1416.35 852.791 1418.52C852.008 1420.92 850.009 1422.94 847.511 1424C845.201 1424.98 842.521 1425.11 840.149 1424.11C838.146 1423.26 836.307 1421.6 835.143 1418.79C833.184 1414.06 829.919 1408.84 825.601 1406.07ZM974.942 1416.6C972.928 1417.65 971.353 1417.97 969.119 1417.3C967.883 1416.93 966.662 1416.21 965.706 1415.25C964.759 1414.3 964.075 1413.11 963.81 1411.8C963.156 1408.56 961.391 1405.52 958.876 1403.54C956.727 1401.85 954.013 1400.96 951.004 1401.46C947.756 1402.01 944.662 1404.1 942.531 1406.57C941.819 1407.39 941.261 1408.33 940.7 1409.26C939.65 1411.01 938.629 1412.63 937.181 1413.91C936.632 1414.39 935.805 1414.73 935.004 1414.73C934.678 1414.73 934.348 1414.68 934.033 1414.58C930.801 1411.32 930.179 1408.84 930.283 1406.39C930.393 1403.82 931.402 1401.21 933.033 1398.78C936.858 1393.08 944.122 1388.4 949.024 1387.35C955.736 1385.9 962.403 1387.64 967.748 1391.4C973.247 1395.28 977.322 1401.3 978.593 1408.09C978.899 1409.72 978.769 1411.48 978.15 1413.01C977.545 1414.51 976.49 1415.79 974.942 1416.6ZM840.409 1345.28C836.38 1349.22 831.612 1349.83 826.789 1350.38C824.109 1350.68 821.969 1350.93 819.864 1351.41C814.077 1352.72 808.357 1354.7 803.138 1357.54C797.683 1360.52 791.738 1364.11 787.461 1368.71C786.444 1369.81 785.485 1370.95 784.525 1372.11C783.65 1373.16 782.806 1374.17 781.918 1375.14C780.897 1376.26 779.928 1377.43 778.963 1378.6C778.367 1379.59 778.25 1379.83 778.13 1380.08C777.949 1380.46 777.739 1380.89 777.499 1381.35C777.17 1381.97 776.785 1382.65 776.382 1383.27C775.711 1384.41 775.351 1384.72 775.04 1384.86C774.524 1385.09 774.034 1385.2 773.559 1385.14C773.114 1385.08 772.694 1384.87 772.28 1384.52C770.212 1382.76 769.602 1379.88 769.664 1376.82C769.759 1372.17 771.463 1367.03 773.034 1363.87C776.686 1356.53 781.751 1348.9 787.841 1343.42C794.791 1337.16 802.394 1332.42 811.127 1329.16C816.554 1327.13 822.837 1325.27 828.75 1325.5C833.006 1325.67 837.069 1326.95 840.424 1330.12C842.484 1332.07 843.473 1334.84 843.473 1337.61C843.473 1340.44 842.446 1343.28 840.409 1345.28ZM983.137 1381.4C982.881 1381.83 982.526 1382.12 982.132 1382.29C981.718 1382.48 981.256 1382.53 980.813 1382.45C980.372 1382.38 979.953 1382.18 979.62 1381.87C979.301 1381.58 979.058 1381.19 978.95 1380.71C976.275 1368.9 971.082 1360.11 959.997 1354.45C954.545 1351.66 948.275 1349.89 942.339 1348.48C940.615 1348.07 938.792 1347.8 936.957 1347.54C931.204 1346.69 925.41 1345.72 921.66 1341.05C919.401 1338.24 918.452 1334.63 918.989 1331.34C919.493 1328.24 921.296 1325.4 924.572 1323.7C932.729 1319.46 942.865 1323.62 951.103 1327.16C951.714 1327.42 952.313 1327.68 952.9 1327.93C960.956 1331.35 968.302 1335.86 974.342 1342.31C979.133 1347.43 983.573 1354.99 985.361 1362.78C986.849 1369.25 986.499 1375.87 983.137 1381.4Z" fill="black"/>
<path fill-rule="evenodd" clip-rule="evenodd" d="M912.529 1478.11C899.055 1472.01 874.86 1477.33 866.077 1479.45C845.656 1484.37 825.112 1495.01 818.764 1511.67C811.609 1530.46 825.884 1536.37 827.984 1535.4C842.12 1536.4 858.955 1527.47 873.769 1525.17C885.795 1523.28 898.481 1521.63 909.749 1515.21C917.975 1519.76 936.556 1522.21 951.551 1526.19C964.322 1529.58 969.856 1536.92 981.695 1535.36C995.885 1533.49 990.077 1503.49 974.262 1491.34C956.954 1478.04 927.68 1472.64 912.529 1478.11ZM939.205 1606.38C927.417 1609.26 926.625 1583.29 925.305 1574.12C924.273 1566.95 918.454 1548.47 903.703 1549.26C888.951 1550.06 883.406 1565.55 884.154 1575.18C884.639 1581.43 890.366 1613.07 872.087 1617.07C860.433 1617.03 846.95 1616.24 834.696 1613.97C820.274 1610.69 801.52 1599.19 796.566 1621.83C794.783 1629.98 858.315 1654.18 886.507 1656.37C915.098 1662.2 948.549 1653.24 968.905 1631.26C973.536 1626.25 986.579 1605.49 987.509 1600.41C989.461 1589.72 984.94 1582.84 971.785 1586.61C962.493 1591.6 946.786 1604.52 939.205 1606.38Z" fill="black"/>
<path fill-rule="evenodd" clip-rule="evenodd" d="M996.214 1451.4C978.031 1460.2 952.663 1447.22 940.437 1433.62C935.987 1428.67 932.553 1414.5 934.265 1405.51C938.902 1381.18 956.324 1366.58 974.717 1361.59C1000.21 1354.68 1025.87 1372.19 1022.88 1392.86C1020.04 1412.46 1015.75 1440.87 996.214 1451.4ZM872.455 1404.66C870.998 1431.18 849.811 1454.39 824.489 1461.26C783.691 1472.71 763.528 1443.88 754.395 1412.82C753.488 1409.74 751.354 1400.32 757.079 1392.24C779.593 1360.46 834.372 1365.88 861.731 1374.6C869.74 1382.3 873.014 1393.41 872.455 1404.66ZM1015.98 1358.93C1015.96 1358.94 1015.95 1358.96 1015.94 1358.97C1015.84 1358.91 1015.75 1358.86 1015.66 1358.8C1015.76 1358.84 1015.87 1358.88 1015.98 1358.93ZM1050.1 1361.98C1047.73 1334.98 963.455 1345.32 953.601 1347.54C926.709 1355.49 903.482 1377.11 873.416 1367.61C842.263 1332.7 737.355 1342.71 715.362 1360.49C711.199 1358.85 706.137 1359.73 700.774 1361.28C673.23 1360.28 547.489 1369.82 573.208 1405.16C577.111 1407.88 581.011 1405.11 581.119 1399.5C715.195 1350.86 702.198 1396.42 718.099 1391.1C720.527 1391.8 723.06 1392.25 725.276 1392.72C737.583 1396.7 741.762 1395.47 743.383 1409.35C754.521 1516.58 896.584 1479.57 884.932 1391.62C896.468 1390.98 906.56 1385.97 918.759 1390.86C927.229 1473.72 993.563 1477.06 1013.53 1448.34C1028.58 1428.4 1022.61 1398.32 1043.3 1382.64C1051.47 1389.51 1052 1366.32 1050.1 1361.98Z" fill="black"/>
</g>
<g clip-path="url(#clip2)">
<path fill-rule="evenodd" clip-rule="evenodd" d="M1556.98 2419.67C1446.63 2417.31 1346.19 2423.92 1239.94 2402.56L1239.8 2399.01C1217.01 2398.36 1224.55 2377.24 1229.14 2362.47C800.32 2343.56 1080.02 1307.28 1377.18 1237.6C1391.74 1235.14 1407.55 1233.84 1423.59 1233.69C1444.27 1227.42 1464.66 1226.31 1486.29 1220.6C1488.36 1213.09 1488.7 1208.75 1497.88 1210.97C1530.81 1179.8 1590.06 1151.08 1610.05 1211.92C1636.36 1175.66 1651.45 1133.26 1662.44 1090.33L1664.22 1090.62C1668.89 1079.21 1676.54 1064.76 1685.85 1062.38C1700.35 1057.62 1727.69 1058.72 1743.46 1056.78C1777.65 1054.43 1817.36 1048.67 1850.12 1056.45C1932.01 1076.32 1896.52 1172.16 1962.91 1234.55C1993.38 1222.05 2041.13 1225.48 2070.32 1240.37C2089.12 1255.29 2079.69 1272.12 2076.4 1287.9C2286.06 1269.16 2341.84 1510.26 2385.11 1669.2C2402.46 1722.07 2419.69 1757.92 2449.26 1798.74C2487.66 1846.46 2509.23 1908.95 2469.88 1959.3C2526.06 2070.43 2465.07 2174.89 2400.55 2258.78C2387.91 2272.22 2367.42 2309.6 2348.9 2312.16C2343.87 2316.71 2335.85 2322.31 2330.18 2326.38L2337.01 2335.26C2337.83 2343.46 2337.88 2352.27 2343.54 2359.58C2348.98 2364.84 2354.79 2370.22 2354.95 2378.07C2346.28 2388.04 2335.09 2376.9 2326.86 2371.95C2323.71 2378.09 2324.16 2392.69 2314.06 2392.12C2063.52 2409.16 1806.94 2420.32 1556.98 2419.67Z" fill="white"/>
<path fill-rule="evenodd" clip-rule="evenodd" d="M1656.33 1086.79C1676.19 1112.58 1643.82 1191.45 1628.93 1218.8C1730.77 1261.21 1844.43 1279.69 1953.22 1255.61C1924.96 1228.66 1893.74 1142.54 1917 1112.27L1918.07 1117.72C1925.96 1157.76 1935.6 1199.3 1964.57 1229.92C2005.58 1219.07 2105.3 1220.04 2088.97 1284.55C2342.16 1285.14 2344.26 1590.63 2428.67 1761.08C2469.17 1826.18 2531.88 1892.96 2479.38 1971.19C2489.7 1995.86 2496.89 2022.02 2499.56 2048.59C2507.81 2135.3 2454.6 2209.51 2406.63 2276.79C2389.73 2295.28 2375.59 2326.26 2351.03 2334.17C2348.5 2336.33 2345.88 2338.38 2343.18 2340.33C2348.06 2347.41 2344.11 2358.68 2349.82 2364.89L2352.05 2367.04C2355.8 2370.71 2360.94 2376.14 2361.97 2381.01L2362.46 2385.21C2362.67 2386.86 2362.71 2386.77 2362.59 2384.94L2362.52 2384.36C2362.45 2383.57 2362.56 2383.63 2362.86 2384.55L2363 2384.97C2365.57 2392.32 2360.15 2400.74 2352.74 2402.69C2330.7 2414.47 2307.27 2380 2314.65 2356.93C2192.42 2409.5 1938.56 2314.43 1815.75 2267.31C1792.28 2257.91 1770.03 2245.71 1746.3 2237.08L1744.53 2236.22C1717.14 2222.77 1689.83 2203.27 1657.71 2211.07C1522.55 2268.79 1396.87 2364.89 1247.04 2383.84C1270.47 2428.48 1201.5 2434.46 1215.32 2384.6C807.58 2331.85 1061.66 1458.06 1278.25 1289.27C1347.2 1223.79 1393.59 1238.8 1477.37 1219.9C1479.3 1212.86 1486.36 1206.96 1493.84 1207.96C1523.62 1179.73 1585.27 1152.22 1610.72 1198.08C1626.28 1173.84 1637.09 1146.9 1644.66 1119.2C1647.67 1108.2 1648.75 1095.63 1656.33 1086.79ZM1496.71 2396.24C1474.97 2379.07 1508 2351.99 1526.82 2362.91C1532.63 2370 1512.55 2362.93 1515.06 2378.64C1518.72 2389.08 1507.8 2402.97 1496.71 2396.24ZM1940.43 2374.92C1924.96 2345.89 1938.54 2332.95 1961.78 2355.56C1982.99 2371.52 1954.53 2397.44 1940.43 2374.92ZM1724.98 2372.21C1703.16 2360.53 1697.74 2307.22 1733.15 2332.84C1764.65 2344.01 1756 2383.97 1724.98 2372.21ZM1480.35 1235.31C1436.73 1247.33 1388.07 1242.15 1348.07 1267.06C1250.21 1328.48 1193.93 1434.37 1151.59 1538.35L1150.31 1541.5C1064.41 1752.4 995.653 1997.58 1067.94 2221.67C1104.45 2323.62 1194.32 2367.33 1296.61 2331.92C1553.33 2249 1767.86 2049.65 2040.87 2015.7C2044.72 1984.18 2035.98 1953.12 2024.83 1923.66C1857.35 1930.62 1696.77 1984.69 1536.28 2028.21C1526.93 2069.03 1480.23 2116.58 1452.25 2148.25C1426.97 2181.99 1364.44 2192.15 1356.75 2140.28L1355.52 2141.67C1334.89 2164.73 1289.64 2204.69 1275.75 2154.91C1272.63 2128.81 1289.41 2106.22 1297.66 2082.47L1296.79 2083.11C1281.53 2094.48 1218.42 2148.12 1214.03 2112.4C1214.31 2078.74 1225 2045.62 1244.38 2018.05C1263.86 1992.59 1287.79 1968.62 1313.85 1949.81C1315.23 1941.82 1317.73 1934.1 1319.6 1926.2C1316.74 1896.51 1328.48 1868.64 1331.56 1839.56C1338.66 1812.28 1340.21 1761.2 1360.02 1742.01C1375.22 1758.16 1360.16 1819.75 1359.38 1843.31C1353.95 1871.95 1356.3 1901.22 1345.89 1929.06C1375.25 1913.06 1407.07 1904.93 1439.03 1903.56C1442.29 1841.04 1531.06 1862.87 1572.17 1867.72C1634.93 1845.47 1898.42 1853.27 1941.99 1900.04C1963.73 1897.52 1984.53 1895.54 2006.6 1894.03C2032.27 1877.75 2103.1 1884.41 2114.02 1916.43C2142.56 1924.86 2167.37 1939.23 2192.4 1955.65C2200.15 1828.24 2166.25 1702.74 2174.51 1575.14C2175.25 1567.73 2178.69 1561.3 2178.55 1553.76C2178.53 1552.87 2179.84 1552.9 2179.92 1553.76C2192.25 1591.01 2194.6 1630.78 2201.53 1669.41C2210.66 1736.79 2226.7 1803.39 2232.02 1871.2C2234.33 1928.18 2225.05 1989.13 2247.85 2043.15C2251.09 2050.84 2245.74 2063.36 2238.26 2066.65C2175.79 2092.81 2103.12 2074.01 2046.07 2042.12C1924.52 2080.91 1805.62 2127 1693.64 2188.53C1715.19 2194.18 1734.57 2206.76 1754.08 2217.21C1781.85 2226.8 1809.44 2236.91 1837.18 2246.58C1974.49 2287.98 2118.19 2343.55 2263.26 2335.12C2307.86 2327.53 2327.92 2308.48 2354.39 2274.45L2358.76 2268.8C2406.06 2207.78 2460.13 2143.18 2468.06 2064.03C2469.86 2038.35 2467.42 2012.79 2465.92 1987.2C2459.55 1993.7 2452.71 1999.78 2446.09 2006.07C2436.91 2014.79 2425.17 2003.79 2429.67 1993.43C2439.42 1964.01 2456.59 1936.25 2459.57 1905.11C2460.07 1875.81 2440.81 1849.76 2423.8 1827.49C2291.43 1665.05 2349.17 1323.95 2086.99 1290.83C1975.12 1525.41 1593.66 1427.9 1483.65 1241.08L1480.35 1235.31ZM1186.53 2224.09C1187.63 2192.11 1238.67 2233.74 1233.96 2251.19C1231.1 2275.31 1201.77 2264.05 1195.12 2247.76C1191 2240.31 1187.53 2232.57 1186.53 2224.09ZM2197.17 2191.18C2204.53 2177.8 2248.36 2216.29 2225.64 2228.92C2210.26 2237.01 2204.37 2218.06 2201.03 2206.69C2199.2 2201.93 2195.75 2196.44 2197.17 2191.18ZM1447.55 2208.74C1419.95 2192.41 1480.37 2170.42 1482.64 2197.05C1483.53 2215.13 1459.05 2214.17 1447.55 2208.74ZM1960.57 2138.39C1974.44 2119.96 1974.77 2185.26 1966.55 2189.69C1962.75 2195.66 1954.24 2194.25 1951.98 2187.79C1946.15 2171.15 1954.92 2154.04 1960.57 2138.39ZM1304.53 2149.88L1304.23 2150.99C1302.69 2157 1306.31 2149.08 1304.92 2150.24C1304.79 2150.11 1304.66 2150 1304.53 2149.88ZM1604.25 1993.71C1541.09 1922 1427.16 1904.2 1342.02 1946.75C1329.48 1950.41 1318.48 1960.68 1307.19 1967.39C1310.02 1966.37 1312.9 1965.5 1315.8 1964.77C1278.4 1996.51 1246.56 2039.98 1240.81 2089.48C1274.91 2068.45 1304.86 2042.1 1328.49 2009.18C1336.25 1995.66 1358.57 2004.95 1353.82 2019.82C1338.49 2061.84 1315.03 2102.39 1305.21 2145.81C1341.95 2119.29 1369.07 2080.26 1384.32 2037.87C1390.73 2019.69 1419.26 2027.09 1413.57 2045.91C1406.04 2070.83 1398 2095.66 1390.86 2120.69L1388.94 2127.53C1386.54 2136.14 1385.14 2144.03 1395.4 2146.4C1428.48 2148.53 1472.83 2075.63 1492.55 2050.8C1502.22 2039.05 1510.77 2013.56 1529.04 2017.28C1551.77 2002.46 1579.19 2000.72 1604.25 1993.71ZM2332.48 2108.4C2336.26 2105.14 2340.89 2102.88 2345.89 2104.54L2346.38 2104.72C2361.52 2110 2349.79 2130.66 2336.8 2123.39C2332.39 2120.09 2327.6 2117.32 2322.34 2115.51C2319.18 2112.27 2330.6 2110.81 2332.48 2108.4ZM1627.8 2048.09C1632.26 2027.26 1673.54 2055.59 1658.85 2070.26C1644.91 2080.89 1628.99 2061.42 1627.8 2048.09ZM1130.56 2051C1169.31 2025.85 1173.98 2086.76 1116.68 2068.96C1111.97 2061.85 1125.82 2054.88 1130.56 2051ZM2122.44 1925.63C2143.61 1950.89 2151.97 1983.91 2155.72 2015.96C2156.57 2022.27 2158.07 2029.23 2157.76 2035.74C2172.22 2037.85 2187.11 2038.4 2201.25 2035.57C2197.76 2023.05 2195.6 2010.15 2194.29 1997.15C2175.19 1968.75 2153.24 1942.09 2122.44 1925.63ZM2065.95 2005.99C2066.01 2009.46 2065.9 2012.95 2065.62 2016.46C2084.34 2018.65 2102.79 2023.34 2121.11 2027.9L2120.99 2022.35C2120.95 2020.48 2120.91 2018.62 2120.84 2016.78C2102.73 2021.65 2080.48 2016.6 2065.95 2005.99ZM2114.59 1963.12C2093.67 1954.68 2074.5 1949.4 2052.01 1950.81C2058.66 1965.07 2063.47 1980.02 2065.22 1995.37C2074.38 1997.96 2084.76 1998.69 2093.61 1998.24C2102.58 1997.78 2110.86 1993.48 2119.4 1993.28C2118.43 1983.16 2116.99 1973.02 2114.59 1963.12ZM1915.62 1970.25C1928.85 1964.97 1948.34 1979.52 1933.82 1990.91C1923.25 1998.07 1908.8 1988.47 1900.22 1981.93C1895.49 1976.52 1911.48 1971.23 1915.62 1970.25ZM1653.33 1921.76C1647.6 1939.34 1609.89 1931.62 1592.61 1941.09L1594.13 1941.97C1610.74 1951.61 1628.76 1965.32 1631.85 1982.74C1653.83 1974.18 1675.99 1966.09 1698.28 1958.43C1685.07 1943.72 1669.9 1931.6 1653.33 1921.76ZM1909.49 1904.53C1810.28 1869.06 1702.16 1870.1 1598.09 1873.4L1600.83 1874.22C1645.69 1887.8 1698.23 1908.89 1721.61 1950.61C1782.91 1930.68 1845.64 1914.17 1909.49 1904.53ZM2102.64 1932.53C2087.37 1905.58 2057.66 1893.53 2028.58 1895.55L2024 1896.3C2027.16 1897.41 2030.14 1898.97 2032.81 1901.19C2037.59 1905.16 2037.51 1913.88 2033.29 1918.24C2038.64 1926.15 2043.67 1934.4 2048.11 1942.93C2064.14 1931.78 2083.36 1930.17 2102.64 1932.53ZM2370.66 1933.12C2335.94 1953.45 2310.8 1858.29 2354.57 1878.73L2357.69 1882.06C2370.37 1895.71 2389.97 1918.78 2370.66 1933.12ZM1556.34 1888.57C1545.24 1897.54 1532.33 1904.05 1521.1 1912.94C1539.56 1917.6 1557.71 1923.79 1574.89 1931.93C1588.88 1919.97 1605.71 1912.35 1623.53 1906.98C1602.16 1898.15 1579.25 1892.26 1556.34 1888.57ZM1101.59 1890.57L1101.75 1890.14C1107.13 1875.08 1139.57 1852.75 1155.69 1858.6C1156.45 1858.56 1157.19 1859.3 1157.15 1860.05L1157.41 1861.92C1158.32 1868.54 1158.79 1875.02 1154.41 1880.92C1146.56 1893.53 1139.07 1909.24 1123.98 1914.15C1109.11 1918.85 1096.38 1904.79 1101.59 1890.57ZM1519.35 1884.29L1514.4 1884.03C1491.63 1882.77 1458.86 1880.7 1447.74 1903.34C1466.94 1903.21 1486.47 1905.31 1505.83 1909.42C1508.73 1900.71 1513.48 1891.97 1519.35 1884.29ZM1643.68 1788.12C1640.21 1781.52 1653.06 1788.75 1656.05 1787.74C1661.59 1788.08 1666.6 1789.21 1669.73 1794.18C1674.76 1802.16 1665 1810.71 1657.3 1806.58C1649.88 1802.49 1651.67 1791.82 1643.68 1788.12ZM2079.76 1751.22L2080.23 1751.18C2087.9 1750.33 2120.77 1742.87 2120.69 1750.97L2120.06 1751.85C2109.72 1766.54 2096.25 1795.45 2075.21 1785.14C2061.7 1777.47 2064.42 1754.55 2079.76 1751.22ZM1850.85 1750.03C1856.92 1738.88 1869.92 1764.77 1873.78 1769.38C1879.29 1781.66 1863.41 1791.24 1855.58 1779.99C1850.72 1771.2 1848.56 1759.89 1850.85 1750.03ZM1281.52 1724.44C1290.24 1720.04 1312.28 1719.64 1306.24 1734.5C1294.49 1750.05 1272.92 1742.53 1259.74 1732.57C1253.01 1724.84 1277.33 1727.98 1281.52 1724.44ZM1493.43 1666.76C1492.64 1655.62 1505.1 1651.64 1513.49 1655.28C1528.48 1661.77 1540.09 1685.65 1535.35 1701.09C1531.53 1716.41 1508.28 1719.81 1500.89 1705.59C1496.64 1692.46 1496.06 1679.92 1493.43 1666.76ZM2265.27 1687.54C2282.48 1683.91 2300.53 1672.41 2318.2 1675.65C2323.71 1677.71 2325.71 1683.96 2321.6 1688.5C2319.28 1698.96 2255.58 1696.63 2265.27 1687.54ZM1767.68 1647.59C1775 1634.34 1791.83 1620.28 1807.99 1621.43C1817.89 1621.1 1821.76 1635.31 1813.04 1640.03L1812.75 1640.15C1807.27 1642.33 1765.71 1652.96 1767.68 1647.59ZM1996.42 1626.24C1971.63 1622.69 1971.78 1563.25 1986.54 1574.85C1991.57 1589.43 2004.34 1598.12 2011.65 1611.05C2015.34 1619.91 2004.67 1628.75 1996.42 1626.24ZM1243.84 1613.07C1254.37 1614.68 1309.07 1581.51 1299.04 1608.06C1292.52 1615.5 1284.27 1615.68 1275.01 1616.37L1274.76 1616.34C1270.01 1616.04 1235.51 1620.12 1243.84 1613.07ZM1622.12 1559.09C1611.17 1557.82 1571.37 1474.9 1590.84 1480.12L1593.81 1482.06C1615.38 1496.26 1639.16 1514.41 1648.79 1538.64C1652.58 1553.09 1635.66 1568.34 1622.12 1559.09ZM1866.96 1524.98C1868.53 1524.26 1869.93 1526.5 1868.34 1527.34C1861.58 1530.92 1854.24 1538.49 1849.99 1544.89C1835.44 1563.03 1818.23 1530.97 1840.59 1528.56C1848.75 1529.14 1859.47 1528.36 1866.96 1524.98ZM1402.67 1424.59C1422.85 1419.4 1432.62 1445.95 1416.34 1456.92C1408.2 1463.88 1331.71 1485.67 1327.13 1476.92C1336.73 1461.37 1384.67 1430.05 1402.67 1424.59ZM2160.97 1428.31C2216.86 1423.75 2218.36 1413.55 2178.89 1458.99C2155.58 1479.39 2131.97 1437.61 2160.97 1428.31ZM1899.38 1292.47C1880 1294.11 1860.53 1294.6 1841.1 1293.98C1844.1 1300.37 1841.5 1309.67 1833 1308.38C1829 1334.26 1827.18 1360.56 1822.13 1386.27C1820.8 1392.28 1818.92 1398.11 1817.13 1403.98C1854.13 1406.7 1891.69 1405.17 1927.75 1396.04C1914.36 1362.57 1908.54 1327.15 1899.38 1292.47ZM1743.06 1281.43C1742.88 1284.14 1742.11 1286.82 1740.84 1289.08C1724.1 1317.99 1709.41 1348.16 1691.71 1376.46C1729.9 1390.57 1770.02 1399.77 1810.51 1403.4C1804.39 1366.58 1809.82 1329.03 1808.55 1291.9C1786.53 1289.79 1764.64 1286.28 1743.06 1281.43ZM1988.25 1277.17C1968.88 1282.37 1949.18 1286.27 1929.32 1289.05C1929.4 1292.17 1927.6 1295.07 1924.82 1296.24C1929.17 1328.56 1937.75 1360.36 1937.87 1393.31C1979.26 1383.2 2011.98 1355.11 2039.13 1323.44L2032.96 1318.95C2016.46 1306.91 1999.81 1294.06 1988.25 1277.17ZM1606.74 1204.1C1582.73 1189.41 1549.49 1195.67 1530.04 1214.8C1521.43 1222.46 1513.95 1232.82 1504.14 1238.84C1502.91 1239.59 1501.66 1240.1 1500.4 1240.42C1507.16 1253.16 1517.49 1265.38 1526.22 1275.89C1573.04 1316.65 1625.75 1350.89 1683.68 1373.42C1686.05 1338.76 1698.08 1305.1 1711.82 1273.26C1699.01 1269.41 1686.38 1264.98 1673.97 1259.97C1672.39 1268.3 1664.56 1274.73 1659.6 1281.2C1648.36 1294.33 1640.87 1310.38 1630.17 1323.74C1618.24 1336.2 1597.98 1320.31 1606.55 1305.57C1620.36 1285.47 1638.21 1267.27 1658.94 1253.58C1645.27 1247.46 1632.24 1240.27 1619.64 1232.22C1619.1 1232.77 1618.55 1233.3 1618 1233.81C1617.15 1228.62 1609.99 1229.99 1606.18 1230.84C1603.47 1228.55 1599.79 1231.43 1596.77 1232.18C1596.32 1231.38 1595.95 1230.53 1595.69 1229.64C1580.17 1244.93 1568.5 1269.14 1548.47 1278.26C1540.22 1280.53 1530.66 1272.37 1533.8 1263.64C1539.1 1250.24 1582.07 1221.79 1596.26 1214.28C1593.16 1209.77 1595.64 1207.54 1600.68 1208.21C1601.54 1207.13 1602.87 1206.8 1604.25 1207.71C1605.12 1206.54 1605.94 1205.33 1606.74 1204.1ZM1295.45 1338.75C1305.19 1338.79 1316.68 1334.75 1325.41 1340.35C1338.26 1355.02 1306.42 1360.06 1293.94 1342.39C1292.73 1341.05 1293.52 1338.74 1295.45 1338.75ZM2013.45 1248.4C2016.23 1251.67 2017.17 1256.44 2016.16 1260.72C2028.33 1279.26 2035.02 1300.25 2041.14 1321.1L2042.85 1318.98C2070.6 1284.41 2086.33 1253.06 2025.36 1249.65C2021.39 1249.09 2017.42 1248.67 2013.45 1248.4ZM1432.47 1297.05C1382.1 1260.37 1490.47 1280.41 1459.25 1302.83C1449.64 1306.31 1440.43 1302.44 1432.47 1297.05Z" fill="black"/>
<path fill-rule="evenodd" clip-rule="evenodd" d="M2097.13 728.92C2085.57 588.635 2050.38 464.385 1885.01 459.087C1810.38 459.751 1734.2 475.536 1665.58 504.742C1498.77 588.009 1445.85 892.272 1592.81 1014.75C1591.93 1015.25 1591.72 1016.68 1592.76 1017.37C1623.12 1037.7 1656.86 1054.44 1690.66 1068.49C1780.7 1106.39 1886.68 1122.85 1978.5 1081.74C2118.63 1022.38 2120.73 857.199 2097.13 728.92Z" fill="white"/>
<path fill-rule="evenodd" clip-rule="evenodd" d="M2372.94 663.534C2378.7 658.37 2382.99 651.597 2385.17 644.002C2387.15 637.078 2387.29 629.517 2385.18 622.61C2382.93 615.199 2378.06 609.298 2379.15 601.586C2379.27 600.831 2379.42 600.043 2379.66 599.255C2383.87 584.736 2394.23 574.258 2390.52 558.163C2389.48 553.619 2387.51 549.529 2384.76 546.31C2385.07 542.822 2385.33 539.302 2385.55 535.781C2391.63 521.614 2391.41 504.781 2384.93 490.832C2384.14 483.69 2382.94 476.615 2381.26 469.657C2382.03 463.505 2380.96 456.731 2378.97 451.35C2375.48 441.88 2371.16 432.549 2366.48 423.371C2367.03 420.861 2366.79 418.209 2365.4 415.85C2362.87 411.563 2359.52 407.794 2356.11 404.111C2353.69 399.814 2351.26 395.552 2348.84 391.346C2347.73 389.413 2346.49 387.268 2345.13 384.997C2348.84 378.146 2350.82 371.47 2346.9 363.414C2345.42 360.388 2341.37 358.157 2338.04 358.354C2334.39 358.571 2330.71 358.733 2327.01 358.872C2320.1 350.56 2312.26 343.098 2303.87 338.802C2295.36 331.627 2286.74 324.585 2278.36 317.393C2275.98 315.347 2273.59 313.302 2271.22 311.257C2271.2 311.206 2271.18 311.139 2271.17 311.089C2269.41 304.735 2267.44 298.464 2265.47 292.161C2264.24 288.254 2263.87 284.163 2260.05 282.034C2252.07 277.591 2239.79 276.887 2230.63 276.133C2229.72 275.328 2228.81 274.54 2227.91 273.735C2232.06 262.704 2231.32 250.984 2226.09 239.936C2224.3 236.18 2218.1 234.487 2214.7 236.968C2206.86 242.702 2197.54 244.731 2188.33 243.893C2174.79 233.532 2120.18 186.679 2111.75 181.733C2111.64 181.555 2111.56 181.377 2111.45 181.201C2106.7 173.66 2100.94 167.604 2094.47 162.749C2093.54 161.788 2092.62 160.826 2091.69 159.864C2092.51 154.115 2094.65 148.564 2098.09 143.92C2098.46 143.383 2098.88 142.863 2099.3 142.36C2105.33 135.218 2097.97 126.031 2089.55 129.77C2088.95 130.038 2088.34 130.306 2087.74 130.591C2081.26 133.465 2074.1 136.588 2066.64 139.224C2063.91 138.206 2061.13 137.284 2058.59 136.268L2031.42 125.392C2026.95 123.602 2022.22 122.084 2017.9 119.98C2016.39 109.99 2006.33 103.438 1995.89 103.78C1996.49 101.862 1997.39 99.999 1998.66 98.2336C1999.03 97.7138 1999.43 97.2109 1999.85 96.7247C2005.22 90.5046 1998.05 78.9699 1990.37 84.5026C1989.83 84.8882 1989.28 85.2738 1988.74 85.6594C1986.6 87.1499 1984.42 88.5481 1982.21 89.9028C1978.68 88.367 1974.7 88.0166 1970.53 89.6412C1961.31 93.2374 1952.8 96.894 1944.68 102.531C1944.35 102.76 1944.01 102.953 1943.68 103.169C1939.65 98.3207 1933.24 95.0783 1927.48 95.1135C1927.36 95.1135 1927.27 95.1118 1927.17 95.1101C1922.86 88.5733 1914.96 84.7742 1907.33 85.698C1907.85 76.3176 1898.41 67.9466 1889.83 66.9289C1879.8 65.7419 1870.75 71.5411 1867.74 81.2853C1866.9 83.9979 1866.07 86.7123 1865.23 89.4266C1857.44 85.5119 1849.22 82.5125 1840.63 81.0153C1821.07 77.6052 1801.95 81.2367 1783.11 86.6419C1781.23 87.1817 1779.34 87.7367 1777.46 88.2899C1774.78 85.19 1772.26 82.0163 1769.85 79.0538C1765.69 73.9403 1755.7 78.0311 1756.37 84.6032C1756.84 89.1383 1754.99 92.4008 1752.01 94.7195C1748.74 95.1956 1745.58 95.3398 1740.81 95.2443C1734.51 95.1168 1731.64 94.9207 1725.05 92.3623C1721.98 91.1719 1718.15 88.0418 1716.36 85.2319C1709.5 74.4567 1692.07 71.5545 1683.77 81.8285C1675.03 78.021 1664 83.272 1659.15 90.6757C1656.62 94.5468 1651.32 96.7113 1644.66 98.5722C1639.65 99.9671 1634.54 101.023 1629.4 101.947C1627.11 98.8539 1622.29 96.78 1618.75 99.3736C1616.35 101.136 1614.02 102.945 1611.73 104.799C1594.03 107.227 1576.43 107.314 1559.55 100.443C1545.26 94.6256 1532.15 110.514 1534.5 123.853C1530.37 125.997 1525.88 127.424 1521.79 129.671C1512.87 134.576 1505.55 142.33 1501.09 151.441C1500.29 153.072 1499.57 154.728 1498.88 156.393C1495.55 159.094 1492.25 161.867 1489.04 164.793C1483.68 162.06 1478.34 159.327 1472.99 156.594C1468.98 154.549 1462.23 155.974 1461.44 161.272C1460.14 169.99 1456.99 177.216 1452.49 183.268C1437.88 190.914 1423.82 199.497 1410.36 209.037C1394.89 213.866 1378.44 216.682 1364.91 219.851C1360.28 220.941 1357.76 226.959 1360.37 230.966C1363.13 235.208 1365.89 239.45 1368.64 243.691C1360.94 251.169 1353.72 258.982 1346.9 267.063C1327.92 289.528 1312.04 314.157 1297.83 340.244C1292.2 342.508 1286.58 344.754 1280.95 347.018C1275.53 349.197 1273.09 355.467 1277.48 360.078C1279.57 362.274 1281.44 364.588 1283.04 367.019C1275.08 380.146 1265.7 392.117 1252.58 399.963C1248.59 402.344 1245.59 406.083 1243.99 410.324C1242.63 411.23 1241.28 412.202 1239.95 413.191C1236.25 415.974 1234.01 422.043 1238.35 425.648C1241.4 428.196 1244.26 431.214 1246.69 434.55C1247.21 436.445 1247.75 438.356 1248.29 440.251C1236.09 451.417 1225.96 464.393 1218.35 478.946C1216.54 478.661 1214.69 478.845 1213.19 479.952C1199.59 489.961 1199.18 505.905 1204.66 520.155C1201.35 541.632 1203.48 563.645 1209.84 584.451C1201.47 592.767 1196.44 604.771 1194.38 616.339C1190.76 636.659 1190.51 667.91 1189.57 688.649C1180.44 697.417 1173.94 708.768 1170.32 720.973C1167.27 722.482 1164.22 723.991 1161.18 725.5C1158.47 726.841 1156.48 730.378 1156.65 733.363C1157.42 747.798 1163.4 759.198 1171.33 769.526C1174.14 777.49 1178.3 784.833 1183.76 791.875C1187.53 796.703 1191.22 801.33 1194.47 806.544C1194.8 807.064 1195.01 807.55 1195.16 807.886C1193.88 809.26 1192.82 811.541 1191.89 813.167C1184.11 826.814 1183.99 842.808 1195.04 854.695C1190.88 858.082 1190.75 864.922 1194.42 869.113C1218.31 896.29 1238.23 929.335 1271.39 943.77C1271.54 944.022 1271.68 944.273 1271.79 944.525C1265.07 960.62 1264.16 968.986 1269.65 985.617C1269.69 985.768 1269.74 985.902 1269.79 986.053C1272.72 994.771 1278.11 1008.74 1287.82 1011.45C1290.89 1012.31 1293.9 1012.69 1296.88 1012.68C1304.6 1020.07 1312.29 1027.48 1319.99 1034.89C1320.66 1038.56 1321.08 1042.27 1321.22 1046.01C1321.43 1052.26 1327.35 1057.32 1333.71 1055.48C1335.95 1054.83 1348.34 1042.84 1350.62 1042.91C1351.76 1044.05 1352.87 1045.19 1353.99 1046.34C1358.08 1050.62 1363.75 1057.36 1364.22 1061.83C1365.13 1070.27 1370.69 1079.92 1379.66 1081.63C1383.03 1085.04 1388.42 1086.06 1392.55 1081.62C1392.82 1081.33 1393.09 1081.05 1393.37 1080.8C1393.81 1080.74 1394.23 1080.69 1394.67 1080.64C1396.66 1086.55 1398.64 1092.45 1400.65 1098.33C1404.57 1109.93 1419.56 1117.39 1430.2 1110.62C1431.92 1111.64 1433.6 1112.73 1435.28 1113.82C1437.84 1115.45 1440.44 1117.11 1443.1 1118.67C1443.25 1119.1 1443.4 1119.54 1443.54 1119.96C1445.25 1125.17 1452.39 1127.97 1456.79 1124.97C1458.15 1125.41 1459.55 1125.76 1460.96 1126.05C1468.39 1127.5 1475.87 1127.1 1483.04 1124.64C1488.18 1122.89 1493.08 1119.56 1498.6 1119.1C1498.95 1119.08 1499.3 1119.1 1499.65 1119.09C1504.16 1128.28 1514.45 1136.2 1522.57 1138.89C1533.2 1142.42 1544.08 1141.16 1553.76 1136.84C1556.37 1142.04 1559.65 1146.96 1563.57 1151.51C1565.74 1154.03 1569.66 1153.49 1571.9 1151.51C1576.15 1147.76 1580.38 1143.99 1584.6 1140.21C1587.66 1139.04 1590.74 1137.63 1593.96 1136.32C1604.02 1132.23 1615.04 1130.54 1624.35 1124.63C1628.76 1121.82 1632.92 1118.24 1636.34 1114.09C1642.79 1110.38 1648.71 1105.77 1654.04 1100.48C1656.7 1100.49 1659.48 1099.87 1662.18 1098.52C1673.44 1092.82 1679.37 1081.21 1679.89 1069.34C1689.02 1047.97 1694.41 1025.17 1695.89 1001.83C1696.36 994.168 1696.44 986.439 1695.85 978.777C1695.45 973.378 1694.09 969.774 1692.03 964.895C1691.34 963.302 1690.72 961.844 1690.23 960.234C1690.35 955.07 1690.42 949.907 1690.48 944.76C1691.88 940.417 1694.37 936.377 1697.84 932.973C1703.21 927.709 1705.67 916.778 1700.79 910.273C1697.61 906.065 1694.44 901.857 1691.26 897.648C1692.15 879.592 1696.49 850.856 1686.86 847.838C1687.25 845.155 1688.07 842.506 1688.55 839.841C1690.8 827.032 1689.46 815.581 1682.62 804.382C1681.19 802.051 1679.97 799.989 1678.98 797.977C1678.36 794.289 1677.74 790.6 1677.11 786.912C1676.15 781.228 1675.21 775.495 1674.4 769.727C1673.98 762.384 1673.59 755.041 1673.17 747.681C1672.78 740.907 1672.35 734.134 1671.89 727.344C1672.08 724.309 1672.35 721.275 1672.73 718.24C1675.04 700.15 1682.47 693.461 1695.33 680.887C1697.35 680.568 1699.36 680.216 1701.33 679.814C1710.5 677.919 1720.1 674.985 1729.55 676.041C1739.8 677.181 1748.98 681.591 1758.95 675.958C1761.88 674.281 1768.33 669.654 1768.89 665.982C1768.92 665.747 1768.97 665.546 1769.04 665.395C1769.73 665.295 1770.62 665.211 1771.18 665.194C1779.09 664.926 1786.65 668.027 1794.63 667.172C1804.08 666.167 1812.53 661.992 1818.09 655.805C1825.21 657.549 1832.49 658.337 1839.88 657.365C1846.08 656.56 1851.63 654.548 1857.12 651.564C1861.11 649.418 1859.85 648.797 1864.2 650.541C1874.08 654.531 1883.02 659.796 1894.15 657.063C1899.93 655.654 1904.91 652.553 1909.11 648.378C1910.1 647.406 1911.78 645.947 1912.91 644.572C1918.2 647.238 1931.5 653.257 1933.69 653.793C1939.89 655.302 1946.46 655.068 1952.48 653.056C1956.91 651.58 1962.33 647.557 1966.22 646.735C1971.26 645.662 1982.44 652.637 1988.45 655.034C1998.99 659.242 2010.16 660.282 2020.83 655.939C2024.5 654.447 2031.64 648.496 2034.39 648.546C2038.85 654.028 2051.31 684.022 2055.05 694.97C2070.19 739.231 2074.11 877.429 2067.12 912.687C2066.86 913.727 2066.57 914.749 2066.28 915.789C2057.69 946.453 2048.75 977.637 2034.39 1006.21C2020.83 1033.13 2002.09 1057.37 1975.2 1072.08C1947.31 1087.33 1914.58 1091.34 1883.22 1089.28C1863.03 1087.97 1843.18 1083.93 1823.65 1078.87C1813.44 1076.23 1803.32 1073.3 1793.25 1070.25C1788.86 1068.93 1784.39 1067.68 1780.08 1066.14C1772.47 1063.41 1768.48 1063.19 1761.19 1066.7C1754.56 1069.88 1752.85 1079.29 1756.31 1085.2C1761.93 1094.86 1772.24 1095.53 1782.19 1098.35C1792.33 1101.22 1802.5 1103.97 1812.74 1106.43C1832.35 1111.12 1852.29 1114.73 1872.4 1116.39C1908.4 1119.39 1945.5 1114.76 1978.26 1099.12C1981.97 1097.34 1985.54 1095.45 1988.99 1093.4C1987.71 1095.18 1986.41 1096.96 1985.1 1098.72C1981.46 1103.6 1984.16 1111.9 1989.26 1114.56C1990.88 1115.4 1992.49 1116.2 1994.13 1116.99C1994.35 1117.51 1994.58 1118.03 1994.85 1118.55C1999.52 1127.87 2009.28 1133.37 2019.23 1135.75C2031.06 1138.57 2044.29 1136.57 2056.31 1136.22C2067.46 1135.89 2078.61 1135.55 2089.74 1135.22C2092.37 1135.15 2094.99 1135.07 2097.62 1134.98C2110.86 1134.58 2124.07 1134.19 2137.29 1133.79C2149.08 1133.44 2148.53 1134.34 2159.59 1129.65C2164.52 1127.54 2168.56 1124.55 2171.97 1120.58C2174.09 1119.64 2176.14 1118.57 2178.11 1117.34C2184.44 1113.42 2190.07 1108.16 2195.25 1102.36C2204.06 1105.12 2216.4 1102.56 2218.12 1091.54C2220.88 1073.92 2243.89 1066.39 2254.63 1053.65C2263.3 1043.37 2269.5 1029.91 2269.18 1016.99C2291.04 1006.46 2302.92 978.71 2305.7 955.171C2307 944.257 2306.8 932.571 2308.67 921.472C2309.49 920.584 2310.23 919.645 2310.86 918.639C2316.34 909.803 2321.13 900.7 2325.34 891.378C2331.06 887.27 2337.95 884.739 2345.16 884.32C2362.87 883.297 2366.21 859.507 2349.32 853.773C2349.23 853.739 2349.16 853.723 2349.08 853.689C2353.66 842.289 2353.27 828.792 2347.72 817.995C2347.95 816.822 2348.17 815.665 2348.39 814.491C2357.87 804.348 2363.31 790.248 2362.7 776.517C2367.03 773.483 2371.88 771.136 2377.18 769.677C2385.39 767.43 2385.44 757.472 2379.37 753.012C2376.93 751.218 2374.91 749.122 2373.23 746.809C2377.42 734.268 2375.77 719.766 2367.2 709.472C2372.64 702.531 2378.08 695.59 2383.52 688.649C2387.12 684.055 2389.02 676.259 2383.52 671.9C2380 669.1 2376.48 666.317 2372.94 663.534Z" fill="black"/>
<path fill-rule="evenodd" clip-rule="evenodd" d="M1864.97 925.788C1873.22 911.635 1890.81 946.306 1892.68 952.268C1894.34 957.549 1895.43 962.959 1895.98 968.431C1902.38 969.926 1909.02 969.929 1915.58 968.619C1925.32 966.67 1931.28 961.209 1939.74 956.519C1945.59 953.279 1952.96 957.079 1956 962.453C1959.58 968.778 1957.3 975.344 1952.6 980.059C1943.67 989.001 1926.12 991.055 1914.47 988.681C1907.8 987.321 1901.68 984.711 1896.28 980.919C1896.25 981.627 1896.22 982.335 1896.17 983.041L1896.06 984.267C1895.17 994.185 1892.56 1006.66 1885.17 1013.11C1873.05 1023.69 1858.1 1003.34 1869.87 992.762L1870.24 992.445C1877.55 986.279 1879.15 969.737 1878.76 960.626C1878.5 954.679 1877.46 948.656 1875.66 942.992L1875.29 941.864C1874.75 940.264 1868.84 925.087 1866.7 927.02L1866.6 927.129C1865.72 928.226 1864.29 926.949 1864.97 925.788ZM1930.85 845.922C1941.99 852.982 1958.97 869.444 1946.98 886.946C1932.88 902.379 1912.57 884.684 1902.56 876.682C1893.28 870.48 1882.86 886.431 1891.47 893.673C1963.78 949.498 1993.13 847.768 1936.49 837.621C1930.25 836.503 1927.94 843.738 1930.85 845.922ZM1811.91 780.667C1822.8 778.653 1833.95 781.476 1842.96 788.117L1843.64 788.629C1852.32 795.247 1862.03 806.868 1857.05 818.276C1855.05 822.856 1849.06 823.575 1845.27 821.498C1838.94 818.041 1837.8 809.534 1832.15 804.825C1827.53 800.966 1821.3 798.625 1815.34 799.19C1801.34 800.516 1792.72 814.914 1788.38 827.322C1787.82 828.909 1785.58 829.526 1784.71 827.821C1774.46 807.839 1792.61 784.238 1811.91 780.667ZM1986.28 773.126C2007.14 771.334 2031.54 793.876 2026.05 816.828C2023.42 827.84 2007.75 827.525 2004.97 816.828C2003.44 810.941 2003.59 805.733 1999.53 800.845C1996.17 796.809 1991.4 794.465 1986.28 794.825C1980.64 795.222 1975.43 798.164 1971.47 802.3C1967.89 806.035 1965.76 811.5 1962.06 814.805C1961.14 815.617 1959.92 815.669 1959.02 814.805C1952.65 808.679 1956.48 795.925 1960.52 789.53C1966.3 780.378 1975.71 774.035 1986.28 773.126ZM1772.2 739.959C1785.58 727.611 1809.89 715.686 1827.92 721.763C1838.3 725.256 1842.82 742.681 1831.24 748.205C1817.83 754.6 1802.37 751.998 1788.73 758.627C1783 761.412 1777.61 764.893 1773.62 769.998C1770.47 774.022 1767.28 779.316 1762.73 781.635C1761.53 782.246 1759.92 782.261 1758.96 781.129C1748.99 769.375 1763.5 747.989 1772.2 739.959ZM1963.29 721.152C1971.56 718.733 1980.73 718.782 1989.13 720.301C1997.52 721.821 2006.05 725.449 2012.9 730.742L2013.7 731.362C2021.18 737.242 2030.11 745.797 2029.63 756.213C2029.23 764.911 2020.46 770.794 2012.88 766.235C2006.71 762.517 2003.8 755.07 1998.57 750.111C1994.26 746.018 1989.19 742.791 1983.78 740.53C1977.77 738.019 1971.76 736.842 1965.31 736.73C1960.35 736.644 1955.35 738.342 1950.48 738.885C1950.88 739.743 1947.03 739.343 1944.83 738.582C1943.19 737.856 1943.18 735.701 1943.75 734.303C1946.56 727.377 1956.78 723.053 1963.29 721.152Z" fill="black"/>
</g>
<defs>
<clipPath id="clip0">
<rect width="1607.76" height="1753.92" fill="white" transform="translate(1973.16 645.54)"/>
</clipPath>
<clipPath id="clip1">
<rect width="1376.34" height="1498.14" fill="white" transform="translate(60.9004 901.32)"/>
</clipPath>
<clipPath id="clip2">
<rect width="3605.28" height="2362.92" fill="white" transform="translate(0 73.0801)"/>
</clipPath>
</defs>
</svg>
