<svg width="927" height="2667" viewBox="0 0 927 2667" fill="none" xmlns="http://www.w3.org/2000/svg">
<path fill-rule="evenodd" clip-rule="evenodd" d="M912.209 2614.49C918.507 2585.06 889.701 2575.11 871.541 2568.57C858.533 2560.1 810.335 2530.77 773.042 2494.57C742.525 2464.94 721.751 2426.97 713.104 2423.35C713.104 2423.35 704.203 2418.17 703.278 2414.32C697.862 2391.76 702.379 2370.74 703.278 2357.06C720.639 2352.49 734.551 2346.78 744.955 2338.8C747.989 2339.81 752.538 2341.11 753.894 2336.66C763.296 2273.69 767.355 2211.47 775.006 2148.46C803.964 1908.45 807.231 1628.07 757.411 1408.86C756.887 1397.99 757.832 1388.18 758.797 1378.84C765.534 1378.11 769.607 1371.57 775.108 1367.66C783.645 1360.85 793.754 1355.61 793.337 1343.71C795.365 1342.17 795.129 1341.3 794.129 1339.34C800.641 1311.23 771.594 1281.61 763.379 1258.44C778.312 1111.85 757.994 973.317 769.329 826.687C783.646 820.674 774.02 783.092 773.042 767.59C765.111 667.724 713.388 568.987 620.246 536.362C614.922 535.279 606.919 529.17 602.513 533.272C593.998 529.886 582.669 536.562 576.079 528.877L576.145 528.826C570.596 521.104 568.109 511.287 566.285 502.004C566.59 504.619 567.1 507.214 567.727 509.75C551.67 464.329 547.624 452.184 495.932 450.045C472.647 449.733 441.952 450.434 428.375 472.724C422.812 483.086 424.512 494.984 421.059 505.891C414.721 525.905 387.361 516.233 372.997 526.627C258.037 563.634 163.741 639.172 132.746 760.417C126.41 775.03 119.223 789.574 113.926 804.655C113.106 806.894 110.85 814.469 116.267 817.955L118.887 819.641C84.381 981.513 82.0916 1117.91 198.017 1225.83C206.717 1272.2 184.337 1335.52 192.94 1380.54C188.038 1387.52 194.254 1393.15 200.521 1393.59C201.125 1393.93 203.566 1395 204.232 1395.31C194.259 1536.62 236.131 1727.06 254.587 1802.23C257.1 1847.36 241.753 1884.43 210.183 1909.02C175.302 1930.59 106.343 2027.97 119.127 2130.12C104.187 2133.07 89.3553 2134.68 75.022 2140.32C12.3062 2129.21 12.9282 2250.55 8.93207 2293.22C2.16413 2364.66 -2.04235 2468.21 65.5771 2513.94C83.3911 2526.91 119.511 2542.09 138.021 2521.33C144.086 2514.02 145.605 2506.96 143.219 2499.49C173.783 2456.15 165.546 2399.45 168.354 2348.62C177.217 2348.08 186.49 2352.26 195.063 2350.74C203.863 2342.95 171.761 2345.08 168.432 2344.62C168.773 2336.78 169.401 2328.53 170.212 2320.62C175.247 2321.63 181.697 2324.06 186.539 2324.25C189.405 2324.95 191.43 2320.99 189.7 2318.93C185.922 2315.32 176.287 2315.88 170.865 2315.36C171.781 2308.75 172.9 2301.79 174.144 2295.39C180.777 2295.15 187.627 2299.39 193.907 2298.53C189.153 2295.34 180.231 2296.31 174.437 2294.21C178.205 2273.6 185.882 2254.04 193.02 2234.76C210.533 2242.02 225.641 2242.3 242.738 2240.13C249.732 2241.21 253.142 2239.77 254.274 2230.99L253.827 2230.44C267.379 2149.05 311.106 2071.46 392.33 1983.48C408.373 1965.45 426.503 1944.24 438.583 1920.51C462.856 1871.14 467.002 1816.66 485.704 1765.39C503.166 1713.85 527.041 1664.55 549.458 1615.7C552.746 1640.74 557.161 1666.42 561.752 1690.97C581.955 1777.98 579.997 1870.8 565.129 1958.29C543.13 2080.81 553.734 2203.92 548.841 2327.32C548.908 2334.44 549.787 2340.9 548.747 2348.31C548.609 2348.88 548.877 2349.56 549.55 2349.54L550.82 2349.57C561.394 2357.35 575.997 2358.75 588.421 2362.96C593.639 2367.11 592.169 2373.67 592.647 2378.8C594.012 2400.87 595.757 2423.02 593.591 2445.77C584.004 2464.21 572.098 2460.4 569.663 2486.39C567.531 2516.06 563.759 2547.62 578.156 2574.04L572.709 2574.98C564.626 2592.01 569.561 2603.06 588.56 2610.26C682.353 2647.17 814.334 2680.68 912.209 2652.82C913.988 2654.59 916.576 2652.76 918.598 2649.97C920.542 2647.3 921.965 2643.75 921.649 2641.7C919.975 2632.66 922.276 2616.16 912.209 2614.49Z" fill="white"/>
<path fill-rule="evenodd" clip-rule="evenodd" d="M916.679 2644.05C832.397 2682.03 679.353 2634.1 596.539 2606.37C574.21 2598.29 566.772 2596.7 573.028 2570.86C584.734 2593.54 609.91 2599.01 634.03 2603.56C715.734 2622.25 799.031 2656.77 886.41 2639.93C899.235 2637.9 911.926 2630.93 915.658 2618.07C917.959 2623.52 916.536 2630.9 917.457 2636.9C917.628 2639.29 917.68 2641.87 916.679 2644.05M575.802 2502.76C577.324 2487.53 579.758 2471.44 588.395 2457.98C587.455 2479.75 600.477 2516.74 629.009 2504.42C637.091 2500.12 641.621 2491.46 646.82 2484.51C664.102 2461.64 686.262 2441.78 711.296 2427.35C725.221 2429.75 731.21 2455.31 740.186 2466.01C730.18 2470.48 712.047 2480.68 710.213 2491.23C722.707 2487.01 734.207 2479.16 747.311 2476.39C751.507 2482.21 755.956 2487.85 760.628 2493.29C754.523 2495.99 729.911 2508.48 730.073 2514.71C743.381 2512.54 756.278 2506 769.658 2503.32C775.61 2509.24 781.025 2515.62 786.949 2521.56C777.999 2525.26 768.548 2529.39 763.661 2538.01C763.43 2538.4 764.001 2538.84 764.316 2538.46C771.019 2530.35 782.556 2528.86 792.553 2527.04C807.892 2541.53 825.068 2554.32 844.291 2563.89C863.525 2574.45 892.756 2576.86 900.408 2599.76C906.529 2622.65 887.439 2625.1 869.826 2626.71C852.006 2629.26 834.062 2629.64 816.359 2628.16C761.021 2625.84 708.709 2609.49 656.414 2595.2C592.477 2583.39 571.73 2573.83 575.802 2502.76M594.551 2368.88C594.399 2369.89 594.266 2370.9 594.123 2371.91C593.943 2370.84 593.819 2369.76 593.558 2368.71C593.89 2368.77 594.22 2368.83 594.551 2368.88M697.852 2420.01C673.355 2438.19 649.441 2458.46 632.427 2483.82C621.168 2504.45 606.186 2491.89 602.464 2475.36C599.447 2438.46 602.043 2406.59 598.508 2369.46C632.384 2374.09 667.18 2371.24 700.268 2363.04C696.286 2379.61 694.459 2385.9 694.334 2402.9C694.55 2408.51 694.468 2415.35 697.852 2420.01M752.69 1061.6C753.414 1115.92 753.754 1170.26 751.875 1224.56C704.234 1100.97 718.815 966.87 712.048 836.969C726.127 832.262 741.251 830.205 755.759 828.193C749.933 908.823 751.436 980.847 752.69 1061.6M483.447 1336.03C366.472 1279.89 350.29 1135.97 257.668 1056.68C254.678 1053.82 252.2 1050.89 250.758 1047.43C257.399 980.083 256.915 921.039 264.765 853.766C273.535 837.795 277 819.245 283.533 802.25C286.952 791.901 291.104 781.652 292.089 770.792C292.912 767.217 287.345 765.663 286.308 769.04C273.947 793.15 267.799 819.964 258.572 845.385C257.273 845.906 255.546 845.493 255.036 844.128C254.956 844.46 254.866 844.792 254.785 845.125C215.074 829.549 174.129 815.041 130.865 815.149C130.892 815.014 130.928 814.871 130.955 814.736C128.287 814.817 122.693 814.601 124.367 810.72C162.395 671.531 230.675 576.125 375.512 530.806C356.994 638.807 626.512 645.059 622.789 544.532C724.317 588.314 768.055 711.28 756.545 814.817C746.897 812.203 721.775 822.488 711.975 828.462C709.979 786.422 714.938 735.687 712.019 698.094C696.572 889.769 667.744 1119.12 763.017 1293.04C769.2 1304.7 779.287 1315.85 779.036 1329.54C779.779 1330.3 779.851 1331.62 778.947 1332.59C778.947 1332.65 778.947 1332.71 778.939 1332.78C778.893 1332.79 778.839 1332.79 778.787 1332.79C776.021 1336.09 770.204 1336.75 766.202 1337.47C756.752 1339.39 746.808 1340.84 738.153 1345.24C645.943 1393.83 573.618 1331.2 483.447 1336.03M512.59 1424.35C517.046 1432.89 524.529 1439.76 533.398 1444.06C532.305 1446.21 531.929 1448.64 531.813 1450.91C515.837 1454.19 520.33 1461.8 509.538 1465.43C502.475 1467.38 495.682 1468.22 489.578 1472.51C468.805 1491.93 463.65 1490.51 441.356 1473.42C441.661 1471.88 411.321 1442.13 401.923 1425.51C394.092 1411.64 385.893 1397.67 373.891 1386.94C315.117 1326.54 252.503 1269.54 195.609 1207.47C81.5871 1093.43 103.344 964.121 129.532 821.681C171.802 826.747 214.305 836.924 252.37 855.609C238.945 918.48 238.085 975.467 232.303 1039.26C230.558 1047.15 232.527 1062.34 243.662 1058.84C346.003 1140.39 357.898 1307.98 492.201 1356.45C546.939 1378.78 523.839 1396.91 541.927 1439.07C531.974 1437.24 523.096 1428.87 518.818 1420.85C516.698 1416.87 510.521 1420.38 512.59 1424.35M203.242 1374.87C200.925 1358.89 202.732 1342.98 202.84 1326.97C201.596 1297.82 202.563 1269.41 203.682 1240.16C235.775 1273.54 269.141 1305.77 301.916 1338.53C267.011 1342.95 226.754 1346.58 203.242 1374.87M202.652 1398.38C203.198 1398.2 203.735 1397.96 204.227 1397.66C204.102 1410.2 204.298 1422.74 204.755 1435.26C203.878 1422.97 203.18 1410.68 202.652 1398.38M163.389 2289.75C153.974 2289.02 113.708 2287.63 108.876 2293.97C114.317 2296.28 121.799 2295 127.652 2295.26C139.019 2295.73 150.359 2296.73 161.609 2298.33C160.767 2302.74 160.006 2307.13 159.38 2311.54C148.032 2312.63 125.933 2313.12 118.73 2321.09C131.581 2323.14 144.961 2321.29 157.858 2323.86C157.231 2329.9 156.775 2335.94 156.436 2341.99C151.297 2342.54 121.083 2347.56 121.11 2352.33C132.422 2353.84 144.406 2351.85 155.934 2352.98C153.437 2389.2 161.904 2498.61 112.571 2505.3C69.4414 2503.02 50.5213 2432.86 44.66 2399.2C31.6638 2320.78 33.8932 2237.17 59.6511 2161.58C68.8507 2140.56 93.8935 2136.91 115.069 2135.82C115.874 2139.38 116.67 2142.88 117.565 2146.4C108.383 2167.29 105.457 2190.82 105.205 2213.43C107.147 2245.93 147.1 2270.09 176.116 2248.62C170.692 2261.92 166.504 2275.75 163.389 2289.75M106.315 2523.54C20.8874 2505.11 6.87182 2405.81 12.7439 2332.8C17.5312 2281.98 11.7773 2174.82 58.5219 2144.96C-1.89016 2200.31 3.35539 2577.14 137.237 2511.37C133.898 2521.99 116.732 2525.05 106.315 2523.54M123.052 2169.26C123.204 2167.95 123.373 2166.64 123.552 2165.33C133.03 2191.18 149.266 2215.74 173.44 2230.7C164.185 2242.29 146.16 2245.74 133.997 2236.25C112.786 2220.29 121.629 2191.41 123.052 2169.26M414.246 518.268C414.077 518.564 413.897 518.861 413.718 519.148C412.537 519.229 411.347 519.337 410.138 519.472C411.509 519.058 412.878 518.672 414.246 518.268M576.59 527.753C576.544 527.619 576.499 527.484 576.464 527.358C576.571 527.421 576.678 527.493 576.795 527.565C576.706 527.619 576.652 527.681 576.59 527.753M924.976 2628.32C924.743 2621.89 924.652 2613.59 917.152 2611.3C920.553 2583.6 897.642 2567.83 873.585 2560.16C853.072 2547.56 829.81 2538.76 810.961 2523.58C819.714 2521.93 828.468 2519.94 836.245 2516.11C842.116 2513.23 839.288 2503.63 832.925 2504.52C821.657 2506.01 811.535 2511.76 800.946 2515.76C794.932 2510.8 789.106 2505.62 783.602 2500.14C790.457 2498.81 799.174 2499.3 803.167 2492.47C804.411 2490.33 803.855 2488.12 802.352 2486.47C795.407 2479.41 781.641 2486.46 773.014 2488.52C768.871 2483.72 764.869 2478.83 760.94 2473.88C767.457 2473.28 784.407 2474.48 781.087 2463.68C774.724 2455.24 761.04 2460.3 751.838 2462.04C740.167 2447.64 736.408 2425.54 718.168 2417.62C717.515 2414.12 712.969 2414.39 709.935 2415.43C705.469 2394.03 705.81 2383.15 707.116 2361.21C720.657 2357.45 734.09 2352.51 745.349 2344.41C750.523 2345.93 756.796 2344.17 757.871 2338.07C761.091 2316.58 762.89 2291.78 765.148 2269.82H765.97C770.256 2229.78 773.711 2189.62 778.564 2149.68C806.334 1918.81 812.384 1637.02 760.976 1408.93C760.573 1400.29 761.183 1391.64 762.05 1383.06C768.181 1381.42 771.832 1375.41 776.907 1371.93C786.34 1364.22 795.935 1359.9 796.804 1346.43C798.709 1344.61 798.933 1341.85 797.886 1339.46C800.33 1325.64 796.731 1311.91 789.401 1299.96C781.365 1286.35 773.774 1272.62 767.072 1258.34C781.731 1114.38 761.845 974.856 772.718 830.178C786.662 822.767 777.909 781.59 776.612 767.864C768.467 677.721 726.537 578.192 637.386 540.697C631.13 535.397 622.395 533.601 614.752 530.681C609.588 528.13 601.184 525.92 597.649 531.858C593.899 530.106 581.825 528.768 577.69 525.732C576.921 525.166 576.428 524.546 576.312 523.854C576.008 523.863 575.65 523.8 575.265 523.72C571.453 518.312 567.818 480.647 563.12 483.333C557.991 496.268 561.545 510.883 566.45 523.944C569.832 535.496 574.469 565.211 592.44 557.612C595.537 556.067 593.621 552.052 590.847 551.728C582.327 549.285 580.429 536.718 577.135 529.352C581.037 532.604 598.813 537.481 600.755 538.514C639.311 627.337 406.191 622.675 387.863 561.439C374.795 540.284 386.073 528.822 409.37 525.426C392.247 544.524 413.925 548.764 422.167 530.035C430.052 516.623 433.641 500.328 430.947 484.896C432.334 479.479 433.508 472.239 425.434 473.694C425.157 472.976 424.718 473.541 424.889 474.054C421.943 478.761 423.994 485.525 422.947 490.959C422.061 499.852 419.545 508.566 415.277 516.435C407.356 517.953 399.47 519.579 391.622 521.357C386.913 511.754 356.376 530.906 348.178 533.161C239.266 565.454 156.443 651.456 127.536 759.932C121.083 774.377 114.119 788.893 108.839 803.787C106.476 810.236 106.476 818.24 112.965 822.417C81.3445 968.002 73.6297 1119.69 193.085 1228.88C195.796 1240.7 193.989 1253.24 193.909 1265.28C194.91 1292.7 171.569 1386.66 198.679 1398.81C190.758 1520.53 220.463 1686.14 249.255 1803.57C251.384 1843.93 239.258 1880.64 206.617 1906.11C144.558 1952.67 118.415 2030.4 111.157 2104.47C110.128 2112.07 111.139 2119.79 112.84 2127.25C99.3876 2129.76 86.7959 2131.4 73.7371 2136.35C1.71689 2122.49 6.85505 2277.8 1.34189 2323.88C-2.97288 2392.01 -0.278948 2473.67 62.0932 2518.28C83.0629 2533.26 120.08 2547.65 140.513 2524.96C146.294 2518.02 149.445 2509.9 147.171 2501.02C176.464 2457.97 169.546 2402.94 171.739 2353.95C179.409 2354.22 187.768 2357.65 195.323 2355.76C201.14 2354.22 201.883 2346.72 196.961 2343.74C189.854 2339.7 180.197 2341.24 172.249 2340.97C172.492 2336.28 172.841 2331.59 173.288 2326.9C180.832 2328.75 191.644 2333.2 193.89 2322.61C194.795 2312.98 182.667 2312.24 175.114 2311.83C175.642 2308.19 176.233 2304.57 176.904 2300.96C182.686 2301.54 188.789 2305.24 194.473 2303.47C197.694 2302.2 198.812 2298.93 196.459 2296.28C192.083 2291.97 184.6 2292.84 178.81 2291.5C182.327 2274.21 188.682 2257.67 194.804 2241.13C205.884 2244.99 217.885 2247.54 229.709 2246.57C235.838 2245.28 242.534 2244.91 248.727 2245.75C255.618 2243.92 257.211 2236.52 258.116 2230.49C257.981 2230.27 257.846 2230.06 257.694 2229.88C273.616 2136.81 330.735 2056.42 394.78 1987.15C412.421 1967.33 429.721 1946.73 441.705 1923.19C466.05 1874 470.416 1818.66 489.041 1767.56C504.73 1721.15 525.7 1676.65 546.258 1632.09C554.501 1690.78 569.895 1748.51 571.659 1808.03C574.344 1883.34 557.812 1957.54 550.76 2032.24C540.57 2111.24 545.998 2190.63 545.352 2269.82H545.791C545.624 2288.92 545.107 2308.84 543.923 2327.88C543.968 2334.84 544.863 2341.4 543.877 2348.36C543.332 2352.21 546.089 2354.63 548.989 2354.71C559.638 2361.73 573.019 2364.21 585.262 2367.21C588.654 2369.82 587.187 2376.23 587.787 2380.16C589.101 2402.21 590.839 2418.85 588.699 2441.09C576.724 2458.86 568.097 2456.02 564.766 2483.03C562.933 2511.23 558.895 2541.73 571.175 2567.33C565.679 2568.58 563.594 2585.41 564.417 2589.87C565.814 2602.43 576.849 2606.4 587.517 2610.74C665.48 2640.06 831.135 2688.33 911.246 2655.13C916.983 2658.39 923.382 2652 925.235 2646.86C927.687 2640.6 925.431 2634.54 924.976 2628.32" fill="black"/>
<path fill-rule="evenodd" clip-rule="evenodd" d="M618.871 313.998C613.439 247.531 596.9 188.662 519.186 186.152C484.116 186.467 448.316 193.945 416.066 207.783C337.679 247.235 312.807 391.393 381.869 449.423C381.458 449.657 381.359 450.335 381.844 450.662C396.112 460.298 411.971 468.225 427.855 474.887C470.165 492.842 519.973 500.641 563.122 481.164C628.972 453.038 629.96 374.775 618.871 313.998Z" fill="white"/>
<path fill-rule="evenodd" clip-rule="evenodd" d="M748.486 283.018C751.192 280.571 753.21 277.362 754.231 273.764C755.165 270.483 755.228 266.901 754.239 263.628C753.179 260.117 750.892 257.321 751.406 253.667C751.461 253.31 751.533 252.936 751.643 252.563C753.622 245.684 758.488 240.719 756.747 233.094C756.257 230.941 755.331 229.003 754.041 227.478C754.184 225.825 754.31 224.157 754.413 222.489C757.27 215.777 757.167 207.802 754.12 201.193C753.748 197.809 753.186 194.457 752.395 191.16C752.759 188.245 752.253 185.036 751.319 182.486C749.678 177.999 747.651 173.578 745.451 169.23C745.71 168.041 745.594 166.784 744.94 165.666C743.751 163.635 742.18 161.85 740.575 160.104C739.439 158.069 738.296 156.049 737.162 154.056C736.636 153.14 736.056 152.125 735.417 151.048C737.159 147.802 738.09 144.639 736.247 140.823C735.555 139.389 733.651 138.332 732.083 138.425C730.37 138.528 728.641 138.605 726.902 138.671C723.653 134.732 719.971 131.197 716.025 129.162C712.029 125.762 707.977 122.426 704.036 119.018C702.92 118.049 701.797 117.08 700.681 116.111C700.673 116.087 700.665 116.055 700.657 116.031C699.834 113.021 698.908 110.05 697.982 107.063C697.405 105.212 697.231 103.274 695.434 102.265C691.683 100.16 685.914 99.8265 681.61 99.4691C681.182 99.0878 680.755 98.7144 680.328 98.3331C682.282 93.1064 681.934 87.5539 679.473 82.3192C678.634 80.5398 675.722 79.7376 674.124 80.9132C670.436 83.6298 666.06 84.591 661.731 84.1938C655.369 79.2848 629.705 57.086 625.74 54.7427C625.691 54.6585 625.651 54.5743 625.599 54.4909C623.37 50.918 620.663 48.0488 617.619 45.7484C617.185 45.2932 616.75 44.8373 616.316 44.3813C616.698 41.6575 617.704 39.0274 619.323 36.8271C619.497 36.5729 619.695 36.3267 619.893 36.0884C622.726 32.7045 619.268 28.3515 615.311 30.1228C615.026 30.2499 614.741 30.377 614.456 30.5121C611.414 31.8736 608.049 33.3534 604.544 34.6021C603.261 34.12 601.954 33.6831 600.761 33.2017L587.992 28.0488C585.89 27.2004 583.668 26.4816 581.635 25.4847C580.926 20.7512 576.201 17.6469 571.293 17.8089C571.576 16.9002 571.998 16.0177 572.594 15.1812C572.768 14.935 572.958 14.6967 573.156 14.4663C575.681 11.5193 572.309 6.05422 568.701 8.67556C568.448 8.85826 568.187 9.04096 567.933 9.22366C566.931 9.92983 565.904 10.5923 564.867 11.2341C563.206 10.5065 561.335 10.3405 559.377 11.1102C555.042 12.8141 551.046 14.5466 547.229 17.2171C547.074 17.326 546.914 17.4173 546.757 17.5198C544.863 15.2225 541.855 13.6863 539.146 13.703C539.091 13.703 539.048 13.7022 538.999 13.7014C536.974 10.6042 533.262 8.80424 529.677 9.24193C529.919 4.79757 525.487 0.831414 521.452 0.349247C516.737 -0.213148 512.487 2.53449 511.072 7.15121C510.678 8.43646 510.285 9.7225 509.891 11.0085C506.23 9.15375 502.367 7.73267 498.331 7.02332C489.141 5.40763 480.155 7.12818 471.299 9.68914C470.415 9.94492 469.531 10.2078 468.647 10.47C467.384 9.00124 466.199 7.49755 465.067 6.09394C463.112 3.67119 458.42 5.60939 458.736 8.72322C458.956 10.8719 458.086 12.4177 456.687 13.5163C455.149 13.7419 453.663 13.8102 451.422 13.7649C448.46 13.7045 447.112 13.6116 444.015 12.3994C442.571 11.8355 440.774 10.3524 439.933 9.0211C436.708 3.91585 428.517 2.54084 424.616 7.40858C420.51 5.60463 415.327 8.09251 413.048 11.6003C411.855 13.4345 409.367 14.46 406.235 15.3417C403.884 16.0026 401.48 16.503 399.065 16.9407C397.989 15.4751 395.722 14.4925 394.06 15.7214C392.934 16.5562 391.84 17.4133 390.761 18.2919C382.444 19.4421 374.171 19.4834 366.241 16.2282C359.527 13.4718 353.363 20.9998 354.47 27.3196C352.526 28.3356 350.416 29.0116 348.496 30.076C344.306 32.4002 340.865 36.0741 338.768 40.3905C338.392 41.1634 338.053 41.9482 337.729 42.737C336.163 44.0167 334.614 45.3306 333.103 46.7167C330.586 45.4219 328.078 44.1271 325.561 42.8323C323.678 41.8632 320.505 42.5384 320.133 45.0486C319.523 49.1791 318.043 52.6028 315.931 55.4704C309.062 59.0926 302.454 63.1596 296.131 67.6794C288.859 69.9671 281.127 71.3016 274.773 72.8029C272.597 73.3193 271.41 76.171 272.636 78.0694C273.934 80.0791 275.232 82.0888 276.522 84.0985C272.905 87.6413 269.51 91.3429 266.305 95.1717C257.387 105.816 249.925 117.485 243.246 129.845C240.603 130.917 237.96 131.982 235.317 133.054C232.768 134.087 231.621 137.057 233.686 139.242C234.668 140.282 235.546 141.379 236.298 142.53C232.555 148.75 228.147 154.422 221.982 158.139C220.107 159.267 218.698 161.039 217.947 163.048C217.306 163.477 216.673 163.938 216.047 164.407C214.306 165.725 213.254 168.601 215.296 170.309C216.728 171.516 218.073 172.946 219.213 174.527C219.458 175.424 219.711 176.33 219.965 177.227C214.235 182.518 209.471 188.666 205.894 195.561C205.048 195.426 204.177 195.513 203.473 196.037C197.079 200.78 196.889 208.334 199.461 215.086C197.91 225.261 198.907 235.691 201.898 245.549C197.965 249.489 195.599 255.176 194.634 260.657C192.932 270.285 192.814 285.091 192.37 294.917C188.081 299.072 185.027 304.449 183.325 310.232C181.893 310.947 180.461 311.662 179.028 312.377C177.754 313.012 176.821 314.689 176.9 316.102C177.264 322.942 180.073 328.343 183.8 333.236C185.122 337.01 187.076 340.489 189.64 343.825C191.413 346.113 193.146 348.305 194.673 350.776C194.832 351.022 194.926 351.252 194.998 351.411C194.396 352.062 193.898 353.143 193.462 353.913C189.806 360.379 189.751 367.957 194.942 373.589C192.988 375.194 192.924 378.435 194.649 380.421C205.879 393.297 215.24 408.953 230.822 415.793C230.893 415.912 230.956 416.031 231.012 416.15C227.854 423.776 227.427 427.74 230.007 435.619C230.022 435.691 230.046 435.754 230.07 435.826C231.447 439.957 233.979 446.573 238.545 447.86C239.985 448.265 241.402 448.448 242.803 448.44C246.427 451.943 250.043 455.454 253.66 458.965C253.976 460.705 254.174 462.46 254.238 464.232C254.34 467.195 257.118 469.594 260.109 468.72C261.162 468.41 266.986 462.73 268.054 462.762C268.592 463.302 269.115 463.842 269.637 464.391C271.56 466.416 274.227 469.609 274.448 471.73C274.876 475.726 277.487 480.301 281.705 481.112C283.288 482.724 285.82 483.209 287.759 481.104C287.885 480.969 288.012 480.833 288.147 480.714C288.352 480.691 288.55 480.667 288.756 480.643C289.69 483.439 290.623 486.235 291.565 489.023C293.409 494.52 300.452 498.055 305.453 494.846C306.26 495.33 307.052 495.847 307.843 496.363C309.046 497.133 310.265 497.92 311.515 498.659C311.586 498.865 311.657 499.072 311.721 499.27C312.528 501.741 315.883 503.067 317.948 501.645C318.589 501.852 319.246 502.019 319.911 502.154C323.401 502.845 326.914 502.654 330.285 501.486C332.699 500.66 335.002 499.08 337.597 498.865C337.76 498.852 337.927 498.863 338.091 498.858C340.209 503.213 345.048 506.965 348.861 508.24C353.856 509.91 358.968 509.313 363.517 507.268C364.744 509.731 366.286 512.063 368.127 514.22C369.148 515.411 370.992 515.157 372.045 514.22C374.044 512.441 376.03 510.654 378.013 508.864C379.448 508.309 380.897 507.643 382.409 507.023C387.136 505.085 392.319 504.282 396.691 501.481C398.767 500.151 400.719 498.454 402.327 496.488C405.356 494.733 408.139 492.546 410.646 490.04C411.897 490.048 413.202 489.754 414.468 489.111C419.763 486.41 422.548 480.913 422.793 475.289C427.082 465.161 429.615 454.358 430.311 443.301C430.533 439.671 430.572 436.009 430.295 432.379C430.105 429.821 429.464 428.113 428.499 425.801C428.174 425.047 427.882 424.356 427.652 423.593C427.708 421.147 427.739 418.7 427.771 416.261C428.428 414.204 429.599 412.29 431.229 410.677C433.753 408.183 434.909 403.004 432.614 399.922C431.118 397.928 429.631 395.934 428.135 393.94C428.554 385.385 430.596 371.77 426.07 370.34C426.252 369.069 426.639 367.814 426.861 366.551C427.921 360.482 427.288 355.057 424.075 349.751C423.403 348.647 422.833 347.67 422.366 346.716C422.073 344.969 421.78 343.221 421.488 341.474C421.037 338.781 420.593 336.064 420.214 333.332C420.016 329.853 419.834 326.373 419.636 322.886C419.454 319.677 419.248 316.468 419.034 313.251C419.122 311.813 419.248 310.375 419.43 308.938C420.514 300.367 424.004 297.197 430.05 291.24C431 291.089 431.941 290.922 432.867 290.731C437.18 289.834 441.691 288.443 446.13 288.944C450.949 289.484 455.262 291.573 459.947 288.904C461.324 288.11 464.355 285.917 464.616 284.178C464.632 284.067 464.655 283.971 464.687 283.9C465.011 283.852 465.431 283.812 465.692 283.804C469.411 283.677 472.964 285.147 476.715 284.742C481.155 284.265 485.127 282.287 487.739 279.356C491.086 280.182 494.505 280.556 497.979 280.095C500.891 279.714 503.502 278.76 506.082 277.346C507.958 276.33 507.364 276.036 509.406 276.862C514.051 278.752 518.253 281.247 523.484 279.952C526.198 279.285 528.54 277.815 530.511 275.837C530.978 275.376 531.769 274.685 532.299 274.034C534.784 275.297 541.036 278.149 542.064 278.403C544.977 279.118 548.063 279.007 550.896 278.053C552.977 277.354 555.525 275.448 557.353 275.059C559.719 274.55 564.974 277.855 567.799 278.991C572.753 280.985 577.999 281.477 583.016 279.42C584.741 278.713 588.097 275.893 589.387 275.917C591.484 278.514 597.34 292.725 599.096 297.912C606.211 318.883 608.054 384.36 604.77 401.065C604.644 401.558 604.509 402.043 604.375 402.535C600.339 417.064 596.137 431.838 589.387 445.374C583.016 458.131 574.209 469.617 561.571 476.584C548.466 483.812 533.083 485.711 518.348 484.734C508.86 484.114 499.53 482.2 490.35 479.801C485.555 478.554 480.799 477.164 476.066 475.718C474.001 475.09 471.904 474.503 469.878 473.772C466.301 472.477 464.426 472.374 460.999 474.034C457.881 475.543 457.082 479.999 458.704 482.803C461.348 487.379 466.191 487.697 470.867 489.031C475.631 490.389 480.411 491.692 485.222 492.86C494.441 495.084 503.811 496.792 513.26 497.578C530.178 499 547.612 496.808 563.011 489.397C564.752 488.555 566.43 487.657 568.052 486.688C567.451 487.53 566.841 488.372 566.224 489.206C564.515 491.517 565.781 495.449 568.179 496.712C568.938 497.11 569.698 497.491 570.466 497.864C570.569 498.111 570.679 498.357 570.806 498.603C572.998 503.02 577.588 505.625 582.265 506.753C587.82 508.087 594.04 507.142 599.69 506.975C604.929 506.816 610.167 506.658 615.398 506.499C616.633 506.467 617.867 506.427 619.102 506.388C625.321 506.197 631.534 506.014 637.746 505.824C643.285 505.657 643.024 506.086 648.223 503.862C650.542 502.861 652.441 501.447 654.039 499.564C655.036 499.119 656.002 498.611 656.928 498.031C659.903 496.172 662.546 493.678 664.983 490.93C669.122 492.24 674.923 491.025 675.73 485.806C677.028 477.458 687.837 473.891 692.886 467.854C696.962 462.985 699.874 456.606 699.723 450.482C709.995 445.493 715.582 432.347 716.888 421.194C717.497 416.023 717.402 410.486 718.28 405.228C718.668 404.807 719.016 404.362 719.309 403.885C721.889 399.699 724.136 395.386 726.115 390.969C728.805 389.023 732.042 387.824 735.429 387.625C743.754 387.141 745.321 375.869 737.383 373.152C737.344 373.136 737.312 373.128 737.273 373.113C739.425 367.711 739.243 361.317 736.632 356.201C736.742 355.645 736.845 355.097 736.948 354.541C741.403 349.735 743.959 343.055 743.675 336.549C745.708 335.111 747.987 333.999 750.48 333.308C754.334 332.244 754.358 327.525 751.509 325.412C750.361 324.562 749.412 323.569 748.62 322.473C750.591 316.531 749.815 309.66 745.787 304.783C748.344 301.495 750.9 298.206 753.456 294.917C755.149 292.741 756.043 289.047 753.456 286.982C751.802 285.655 750.148 284.337 748.486 283.018Z" fill="black"/>
<path fill-rule="evenodd" clip-rule="evenodd" d="M515.675 413.299C519.901 406.03 528.91 423.836 529.867 426.898C530.715 429.61 531.274 432.389 531.559 435.199C534.835 435.967 538.238 435.969 541.595 435.296C546.585 434.295 549.635 431.49 553.972 429.082C556.968 427.418 560.743 429.369 562.301 432.129C564.133 435.378 562.966 438.75 560.556 441.171C555.986 445.764 546.994 446.819 541.028 445.599C537.61 444.901 534.478 443.561 531.711 441.613C531.693 441.977 531.681 442.34 531.653 442.703L531.6 443.333C531.142 448.426 529.803 454.831 526.019 458.145C519.813 463.582 512.154 453.126 518.184 447.696L518.371 447.533C522.12 444.366 522.937 435.87 522.735 431.191C522.603 428.137 522.071 425.043 521.149 422.134L520.959 421.555C520.681 420.733 517.654 412.939 516.561 413.932L516.508 413.987C516.057 414.551 515.328 413.895 515.675 413.299ZM549.419 372.281C555.124 375.906 563.817 384.361 557.68 393.35C550.456 401.276 540.054 392.189 534.928 388.079C530.176 384.893 524.836 393.086 529.245 396.805C566.283 425.476 581.314 373.229 552.305 368.017C549.111 367.443 547.925 371.159 549.419 372.281ZM488.498 338.767C494.074 337.733 499.785 339.182 504.399 342.593L504.749 342.856C509.194 346.255 514.168 352.223 511.617 358.082C510.593 360.435 507.527 360.803 505.582 359.737C502.343 357.961 501.756 353.592 498.866 351.174C496.496 349.192 493.305 347.99 490.252 348.28C483.082 348.961 478.671 356.355 476.444 362.728C476.159 363.543 475.014 363.86 474.567 362.984C469.315 352.722 478.611 340.601 488.498 338.767ZM577.808 334.894C588.489 333.973 600.99 345.551 598.178 357.338C596.83 362.994 588.805 362.832 587.379 357.338C586.594 354.315 586.673 351.64 584.591 349.13C582.873 347.057 580.432 345.853 577.808 346.038C574.916 346.242 572.248 347.753 570.221 349.877C568.391 351.795 567.296 354.602 565.4 356.299C564.933 356.717 564.308 356.743 563.847 356.299C560.583 353.153 562.542 346.603 564.612 343.318C567.573 338.618 572.396 335.361 577.808 334.894ZM468.159 317.86C475.01 311.518 487.46 305.394 496.7 308.515C502.012 310.309 504.327 319.258 498.397 322.095C491.53 325.379 483.613 324.043 476.624 327.447C473.689 328.878 470.928 330.665 468.885 333.287C467.275 335.354 465.637 338.073 463.308 339.264C462.696 339.578 461.867 339.585 461.377 339.004C456.273 332.967 463.702 321.984 468.159 317.86ZM566.031 308.201C570.266 306.958 574.964 306.983 579.266 307.764C583.566 308.544 587.932 310.408 591.443 313.126L591.851 313.444C595.683 316.464 600.257 320.858 600.012 326.207C599.807 330.674 595.313 333.696 591.432 331.355C588.269 329.445 586.781 325.62 584.102 323.074C581.893 320.972 579.297 319.314 576.527 318.153C573.45 316.863 570.369 316.259 567.067 316.201C564.525 316.157 561.967 317.029 559.473 317.308C559.678 317.749 557.706 317.543 556.576 317.152C555.739 316.779 555.734 315.673 556.024 314.955C557.464 311.398 562.7 309.177 566.031 308.201Z" fill="black"/>
</svg>
