<svg width="2378" height="2917" viewBox="0 0 2378 2917" fill="none" xmlns="http://www.w3.org/2000/svg">
<path fill-rule="evenodd" clip-rule="evenodd" d="M182.82 1016.13C156.033 1047.52 158.401 1056.24 172.673 1087.93C204.204 1161.46 249.416 1236.21 300.739 1304.39C297.351 1151.42 294.437 997.624 289.426 843.263C258.909 902.906 226.41 956.78 182.82 1016.13M177.766 2906.67C160.905 2905.04 42.2378 2909.43 73.9958 2874.77C64.1928 2853.45 91.5798 2835.46 108.456 2819.24C124.246 2804.15 139.807 2787.38 156.021 2767.99C171.12 2750 188.141 2728.74 199.145 2703.93C201.581 2700.04 204.055 2697.32 206.505 2695.83L207.918 2694.97L208.798 2693.57C218.085 2678.72 225.753 2663.38 234.192 2648.25C213.553 2640.78 194.801 2633.28 171.424 2622.91C204.41 2428.31 253.847 2238.72 285.812 2043.54C305.268 1873.7 315.713 1702.27 360.235 1535L365.931 1535.44L369.105 1524.48C364.429 1524.35 354.956 1524.04 350.266 1523.85L351.364 1529.46C330.14 1527 309.342 1520.94 288.709 1515.8C278.179 1514.36 267.622 1506.81 271.411 1494.24C272.63 1476 276.397 1458.2 278.17 1439.97C271.455 1435.38 264.528 1430.13 257.893 1424.76C240.347 1433.05 219.14 1459.81 199.954 1453C155.117 1392.71 117.488 1320.24 83.4358 1262.34C1.19076 1128.44 -24.9132 1044.74 59.9118 905.118C133.249 788.153 212.357 602.25 359.375 572.896C375.881 569.809 393.177 569.679 409.04 562.145C409.854 551.342 415.242 545.136 419.186 545.048C428.766 542.941 439.285 539.551 448.64 539.465C451.938 538.085 455.964 539.219 459.132 539.842C468.561 520.883 467.718 496.679 478.05 478.906C478.425 465.44 482.522 450.562 523.948 447.855C552.147 445.497 592.086 443.225 614.627 455.569C630.399 468.29 630.562 496.788 628.584 516.868C626.411 531.615 627.383 548.766 638.911 566.086C671.766 555.925 694.677 577.403 715.244 617.472C801.341 629.215 819.906 635.884 853.311 721.322C869.242 758.373 885.829 797.957 898.247 838.518C914.878 888.104 916.339 940.008 932.508 989.944C976.42 1100 1021.07 1171.03 1035.14 1299.15C1042 1355.72 1038.06 1383.78 1031.53 1392.27C1012.97 1386.9 989.034 1382.78 969.545 1380.49L990.4 1396.38C972.728 1476.66 1023.63 1705.59 885.622 1688C884.396 1685.01 886.646 1668.58 887.239 1661.76C883.466 1662.02 876.488 1662.27 872.773 1661.8C866.192 1680.83 856.311 1697.92 850.074 1717.28C846.989 1729.07 843.091 1740.94 839.28 1752.4C752.37 2045.64 735.159 2327.94 773.943 2622.33L772.19 2622.96L771.48 2624.23L770.415 2624.63C767.677 2628.29 763.798 2628.45 757.609 2628.46C719.594 2629.8 686.193 2631.52 655.218 2632.38C658.505 2648.86 656.4 2666.21 654.951 2682.97C672.979 2681.7 689.519 2689.03 705.997 2697.83C737.483 2713.32 768.841 2729.58 799.328 2747.36C829.595 2766.77 878.543 2783.36 854.242 2818.24L861.268 2821C861.504 2821.09 861.655 2821.18 861.744 2821.23C862.574 2824.19 853.056 2836.45 850.236 2836.32C783.676 2839.43 726.91 2823.86 641.77 2807.55C622.278 2800.47 524.099 2788.42 523.688 2769.82C524 2764.02 529.98 2764.42 534.152 2763.69C521.644 2700.41 563.926 2695.3 569.979 2637.88C561.608 2639.48 552.557 2640.85 543.983 2638.49C536.459 2515.96 548.547 2390.53 535.181 2266.79L521.592 2265.29C475.914 2399.93 428.551 2537.68 392.176 2677.54C391.483 2680.57 388.084 2678.5 386.53 2677.39C362.755 2676.82 338.973 2674.28 315.66 2670.27C315.1 2684.02 314.511 2698.03 313.933 2711.78L317.526 2713.71C319.843 2716.94 318.868 2732.07 318.448 2738.58C318.025 2745.23 317.675 2750.05 318.263 2754.56C325.761 2769.37 300.123 2801.47 286.563 2819.31C257.019 2857.62 232.546 2914.35 177.766 2906.67" fill="white"/>
<path fill-rule="evenodd" clip-rule="evenodd" d="M471.069 480.441C479.117 474.983 467.657 522.345 467.637 526.902L467.434 527.894C465.428 537.541 461.896 548.764 453.767 554.952C457.516 585.654 462.183 616.259 467.927 646.642L471.305 647.086C521.426 653.733 571.875 662.872 622.836 658.11C650.292 658.328 668.468 639.528 679.537 616.211C678.787 613.461 678.037 610.722 677.267 607.972C642.4 586.605 615.996 543.244 631.706 502.312C632.377 500.562 634.456 500.442 635.527 501.352C635.701 501.368 635.859 501.51 635.847 501.702L635.331 509.688C634.233 527.113 633.745 545.173 643.177 560.862C681.115 552.206 704.705 583.857 720.567 613.812L731.962 615.499C775.557 621.979 817.601 629.651 839.129 674.341L842.077 680.618C872.156 744.836 900.189 810.87 916.597 880.022C924.857 916.812 927.847 954.722 939.965 990.603C965.126 1057.23 1000.58 1119.84 1019.81 1188.82C1031.74 1213.71 1065.31 1401.06 1032.19 1402.48C1020.28 1398.91 1008.15 1396.02 995.887 1393.97C997.777 1395.41 998.467 1397.86 998.107 1400.36C993.827 1430.39 993.507 1460.81 993.527 1491.09C995.788 1564.43 993.76 1722.21 883.386 1696.88C875.329 1693.91 880.561 1680.99 880.237 1671.95C879.607 1671.98 878.967 1671.97 878.327 1671.93C871.991 1689.04 863.106 1704.83 857.537 1722.22C852.817 1737.16 849.517 1753.23 842.938 1767.54C773.249 2015.54 744.481 2276.37 771.727 2533.05C773.257 2548.42 774.977 2563.77 776.899 2579.09C776.657 2588.67 788.001 2628.78 777.817 2631.47C777.421 2632.25 776.047 2633.14 775.227 2633.41C769.043 2640.09 758.762 2637.61 750.597 2638.5C721.748 2639.79 692.901 2640.97 664.037 2641.93C665.766 2654.19 664.37 2666.63 663.347 2678.86C684.396 2679.04 703.74 2691.86 722.357 2700.56C750.007 2714.21 777.206 2728.8 803.889 2744.27C828.524 2761.52 883.563 2778.18 864.627 2817.3C878.746 2823.04 859.125 2847.02 848.397 2847.29C778.562 2846.93 709.172 2831.08 640.926 2817.17C602.151 2806.91 559.839 2803.02 523.967 2785.33C513.784 2780.72 515.917 2762.35 527.117 2760.64C518.8 2699.38 552.563 2700.23 562.057 2649.2C556.532 2650.11 550.427 2649.6 544.887 2648.47C532.057 2660.35 536.77 2566.88 535.027 2557.75C534.68 2461.91 539.22 2365.87 529.017 2270.35L511.677 2321.44C471.254 2440.67 431.435 2560.22 399.746 2682.11C397.847 2689.47 390.127 2690.35 385.197 2687.14C364.387 2686.53 343.657 2684.57 323.127 2681.25C322.727 2691 322.317 2700.75 321.907 2710.5C330.762 2715.28 324.766 2745.36 325.897 2755.54C335.483 2777.64 296.631 2820.17 283.858 2838.4C261.078 2870.24 238.468 2914.8 194.418 2916.28L193.077 2916.31C160.2 2917.11 127.025 2915.19 94.4666 2910.49L90.9524 2909.92C81.5516 2908.36 71.027 2906.15 65.5966 2897.75C61.0166 2890.67 61.5766 2881.53 67.1366 2876.12C59.7946 2849.46 88.3736 2833.31 104.337 2817.07C134.157 2788.28 161.26 2756.61 184.697 2722.41L186.043 2719.22C190.387 2708.96 195.578 2697.57 203.667 2692.66C211.378 2680.4 217.967 2667.5 224.937 2654.83C205.917 2647.84 187.187 2640.03 168.667 2631.81C164.98 2630.17 163.809 2625.37 164.452 2621.8L164.499 2621.56C200.656 2433.62 244.005 2247.02 277.722 2058.65C299.256 1885.05 308.084 1709.24 353.357 1539.45C331.394 1537.17 309.533 1530.85 287.979 1525.45C270.698 1521.77 261.959 1512.98 265.367 1494.66C266.539 1478.38 269.797 1462.36 271.557 1446.14C266.956 1442.92 262.467 1439.53 258.097 1436.05C249.996 1442.1 241.637 1447.8 233.047 1453.12C212.48 1467.95 196.604 1470.26 183.897 1445.95C147.098 1387.76 111.609 1328.72 78.1156 1268.55C47.0496 1210.84 8.5476 1153.24 0.661597 1086.79C-10.7944 967.2 129.384 775.822 199.606 678.63C238.331 631.816 285.495 583.635 346.828 570.022C365.693 567.223 385.582 566.842 403.567 559.992C405.028 551.24 409.134 543.182 418.407 541.04C428.163 538.88 438.621 535.544 448.447 535.301C450.669 534.674 453.29 534.278 455.637 534.711C462.362 517.228 463.351 497.529 471.069 480.441ZM95.3366 2889.94C97.0166 2890.77 98.7566 2891.49 100.537 2892.13C102.727 2892.43 104.907 2892.71 107.087 2892.96C103.137 2892.07 99.2166 2891.07 95.3366 2889.94ZM313.577 2719.98C281.363 2731.69 272.507 2676.73 209.147 2698.97C184.385 2745 152.328 2786.8 115.686 2823.96C102.662 2840.17 64.1126 2858.57 84.8866 2882.34L88.0684 2882.92C124.145 2889.49 160.764 2894.71 197.527 2891.74C225.307 2884.07 246.14 2861.78 262.978 2839.3C275.159 2817.69 289.409 2797.34 303.956 2777.28C311.954 2767.31 312.765 2754.61 312.727 2742.34C312.996 2734.88 313.277 2727.43 313.577 2719.98ZM675.467 2693C661.789 2687.98 647.759 2692.7 635.317 2698.86C614.064 2708.38 568.031 2719.79 548.367 2704.61C538.725 2720.58 535.492 2738.33 538.138 2756.74L538.166 2757.88C538.389 2765.32 539.43 2771.31 548.456 2771.83L574.085 2778.29C660.547 2800.02 747.86 2821.03 836.857 2827.07C860.611 2812.22 861.277 2792.7 836.028 2779.11L829.568 2775.15C779.999 2744.79 729.272 2714.95 675.467 2693ZM863.567 2819.28C863.327 2819.69 863.097 2820.1 862.857 2820.5C863.227 2820.68 863.567 2820.94 863.887 2821.22C863.887 2820.55 863.787 2819.89 863.567 2819.28ZM229.737 2656.57C230.067 2663.32 226.757 2670.94 224.427 2677C223.057 2680.58 221.647 2685.69 219.467 2689.79C273.642 2673.79 290.121 2720.67 309.653 2710.92L310.246 2710.61V2710.6C306.26 2701.48 310.607 2688.65 313.287 2679.55C284.841 2674.4 256.911 2666.39 229.737 2656.57ZM657.787 2642.14L642.169 2642.62C617.875 2643.36 593.578 2644.01 569.267 2643.97C571.811 2661.46 566.834 2690.32 555.527 2703.91C555.507 2703.92 555.487 2703.92 555.477 2703.93C587.478 2708.78 617.785 2694.11 646.287 2681.76C647.489 2668.36 652.745 2654.68 657.787 2642.14ZM553.287 2695.43L550.367 2700.89V2700.89C550.787 2701.36 551.267 2701.79 551.777 2702.16C551.481 2699.89 552.288 2697.64 553.287 2695.43ZM226.246 2655.32C225.706 2657.67 225.077 2660.02 224.407 2662.37C225.427 2660.06 226.587 2657.85 227.996 2655.95L226.246 2655.32V2655.32ZM567.587 2643.98L565.877 2644V2644L565.867 2644.98V2644.98C566.267 2645.65 566.337 2646.47 565.837 2647.13C565.777 2650.15 565.647 2653.18 565.417 2656.21L565.987 2652.71C566.469 2649.8 566.979 2646.89 567.587 2643.98ZM545.857 2642.98L545.947 2644.5V2644.5C548.137 2644.42 550.347 2644.51 552.527 2644.4C553.677 2644.34 554.857 2644.14 556.047 2643.93C552.617 2643.82 549.197 2643.55 545.857 2642.98ZM935.047 1389.67C933.967 1390.94 932.787 1391.71 931.587 1392.1C931.597 1420.97 925.777 1449.36 909.828 1474.36C903.194 1483.17 899.445 1493.2 896.238 1503.65C879.371 1551.49 876.239 1602.87 882.387 1652.96C898.961 1628.62 905.547 1599.57 910.177 1570.92C910.427 1569.48 912.807 1569.5 913.067 1570.92C918.668 1601.58 909.04 1631.7 897.527 1660.03C890.337 1665.18 892.05 1678.66 891.187 1686.59C1013.38 1704.42 970.886 1469.52 986.537 1397.17C986.827 1395.18 988.517 1393.73 990.437 1393.12C972.11 1390.32 953.538 1390.12 935.047 1389.67ZM359.627 1533.98C359.777 1534.75 359.907 1535.52 360.007 1536.29L360.667 1534.02V1534.02C360.327 1534.01 359.977 1534 359.627 1533.98ZM442.206 540.372L440.067 540.933C417.49 546.764 410.183 545.963 408.906 573.261C403.356 610.307 382.868 642.621 373.658 678.442C369.974 691.092 373.871 714.406 391.337 710.982C396.996 709.242 401.407 716.881 397.127 720.932C384.477 732.912 372.197 745.261 359.847 757.532C409.439 925.132 473.861 1088.38 552.337 1244.56C555.447 1250.76 546.117 1256.21 543.028 1250.01C465.012 1093.33 400.127 930.137 349.767 762.493L348.246 757.411C346.022 751.238 374.46 729.121 379.637 721.902C327.71 696.849 400.207 609.112 402.177 566.862C387.315 573.404 370.467 571.057 354.767 573.691C324.648 578.981 298.211 596.402 274.713 615.208C179.264 699.599 118.268 816.436 57.2516 926.562C15.6986 998.414 -4.3334 1086.25 37.3656 1162.68C85.7496 1260.68 141.876 1355.14 201.217 1446.83C207.733 1455.32 217.761 1445.56 224.627 1442C264.094 1418.25 298.317 1385.95 324.637 1348.17C260.829 1269.78 205.247 1184.11 165.939 1090.76L165.396 1089.68C156.577 1071.93 149.604 1050.46 164.316 1033.74C216.559 966.74 263.022 895.612 306.746 822.822C307.197 822.091 308.206 822.732 307.877 823.492C303.387 833.671 298.657 843.772 293.727 853.782C303.685 1001.78 302.003 1152.67 306.307 1301.61C317.917 1317 329.867 1332.13 342.097 1347.02C381.77 1319.65 428.439 1301.79 476.368 1296.26L479.466 1295.95C499.825 1293.85 533.449 1289.9 536.119 1316.36C532.819 1348.92 465.621 1330.62 444.137 1349.08C479.355 1363.29 519.712 1367.3 552.046 1388.72C562.418 1394.78 582.75 1414.09 562.887 1421.47C554.22 1422.21 545.268 1418.84 536.607 1418.1C546.355 1421.39 555.319 1426.96 561.027 1435.69C565.137 1441.68 568.137 1454.11 558.317 1456.67C535.931 1457.31 513.636 1450 491.587 1446.36L493.545 1447.16C509.62 1453.75 534.606 1465.58 512.956 1483.03C491.284 1494.27 465.044 1475.16 443.457 1470.06C385.31 1456.51 342.295 1493.64 282.687 1453.44C280.996 1466.88 278.455 1480.21 277.439 1493.72L277.307 1494.49C275.241 1506.82 277.011 1511.27 290.288 1513.62C306.296 1518.46 323.062 1519.98 339.697 1520.88C419.751 1525.12 500.337 1522.11 579.848 1511.84C591.288 1508.77 618.164 1511.67 622.947 1499.06C613.985 1174.6 478.958 869.284 441.777 549.032C441.167 545.952 441.127 542.812 442.206 540.372ZM667.897 568.102C661.512 568.364 655.568 569.75 649.217 570.392C652.734 577.884 671.298 588.482 669.607 592.202C670.947 593.242 672.307 594.242 673.687 595.211C671.767 588.452 669.827 581.702 667.883 574.94C738.425 747.067 748.116 950.72 757.488 1138.49C760.576 1233.17 762.255 1328.14 757.687 1422.76C755.147 1447.89 748.427 1473.29 750.257 1498.67C791.657 1504.64 833.657 1505.15 875.227 1500.73C876.456 1497.5 877.847 1494.32 879.423 1491.2C941.651 1415.2 908.651 1319.96 878.687 1237.63C860.569 1238.4 842.343 1237.25 824.206 1237.47C829.811 1254.85 831.255 1273.23 834.238 1291.19C836.268 1303.99 838.859 1316.7 841.836 1329.3L842.739 1333.09C843.846 1337.62 845.198 1342.47 843.617 1346.94C842.017 1351.49 836.496 1353.33 832.836 1349.79C826.238 1342.26 826.946 1331.03 824.817 1321.68L824.423 1318.74C820.791 1291.91 816.008 1264.08 822.647 1237.46C816.132 1236.06 798.319 1241.21 797.385 1232.43C797.66 1217.94 787.165 1186.54 798.847 1176.99C805.797 1171.68 817.746 1173.36 825.897 1173.03C835.317 1172.65 844.727 1172.3 854.137 1172.36C778.513 989.278 799.544 932.921 807.218 750.712L807.447 745.152C807.427 743.952 809.357 743.652 809.568 744.862C821.13 819.497 805.717 895.061 813.019 969.931C825.987 1112.19 915.965 1234.32 931.007 1375.89C963.449 1372.12 996.272 1376.75 1027.72 1384.9C1028.38 1379.15 1028.89 1373.38 1029.25 1367.61C1035.22 1261.94 998.205 1159.32 955.021 1064.54C929.141 1014.23 913.143 960.542 906.448 904.402C893.447 831.281 864.274 762.401 835.195 694.475C816.812 643.686 777.074 631.71 727.797 625.812C744.417 653.412 760.937 681.072 777.428 708.752C781.106 717.123 769.828 723.098 764.907 728.251C825.443 761.324 790.096 863.455 791.348 920.682C786.854 973.267 785.159 1026.15 777.237 1078.37C776.657 1081.99 771.117 1080.93 771.066 1077.54C771.796 999.297 781.11 921.368 785.197 843.25L785.693 837.555C788.88 800.57 791.999 747.214 747.607 737.062C741.617 736.081 741.157 727.162 745.967 724.482C752.367 720.912 757.977 716.551 762.996 711.362C746.037 682.852 729.107 654.322 712.328 625.691L711.54 624.36C699.621 604.103 688.55 580.529 667.897 568.102ZM523.847 1314.38C518.95 1299.93 471.423 1309.34 458.737 1310.91C411.956 1319.76 364.877 1340.5 329.246 1372.44C327.047 1374.41 324.447 1374.38 322.397 1373.31C306.438 1393.74 288.009 1412.25 267.797 1428.51C271.496 1431.43 275.297 1434.26 279.206 1436.97C281.077 1437.17 282.767 1438.14 283.527 1439.88C339.138 1480.25 380.048 1448.76 437.817 1456.03C459.386 1460.39 479.249 1474.13 501.477 1474.71C517.788 1471 503.425 1464.17 495.807 1461.52C478.556 1453.27 460.97 1445.75 443.346 1438.33L429.246 1432.41C422.317 1429.5 424.697 1419.01 432.437 1420.84C445.987 1424.04 459.577 1427.08 473.177 1430.07C499.33 1435.42 526.109 1442.27 552.537 1444.87C546.662 1428.51 484.329 1410.85 466.206 1404.34C459.361 1401.1 439.839 1401.72 442.068 1391.09C443.868 1381.2 464.64 1392.53 471.567 1393.33C499.839 1400.52 528.698 1404.87 557.507 1409.25C526.563 1378.15 478.597 1375.47 439.077 1360.9L437.991 1360.65C430.963 1359.01 421.336 1355.92 427.049 1347.92C447.351 1317.94 527.246 1333.11 523.847 1314.38ZM465.377 1147.39C479.79 1135.54 487.511 1159.88 486.597 1171.19C487.276 1180.58 488.007 1189.97 488.618 1199.36C487.72 1206.7 495.531 1233.47 485.087 1233.71C439.423 1231.39 393.836 1231.98 348.156 1229.22C348.097 1238.45 347.647 1247.67 348.117 1256.91C347.869 1268.47 351.876 1280.01 349.536 1291.43C348.107 1296.68 340.977 1297.39 338.194 1292.91C329.85 1273.25 335.587 1247.88 341.496 1227.99C319.129 1223.85 316.043 1202.79 321.937 1183.99L321.876 1182.97C321.547 1177.18 321.573 1170.96 324.156 1166.27C331.065 1158.12 345.391 1163.42 354.907 1162.8C384.075 1159.79 413.78 1158.96 442.607 1153.59C450.069 1151.66 457.68 1147.76 465.377 1147.39ZM284.057 872.822C261.349 916.248 235.222 957.568 207.407 997.801C201.447 1006.39 195.327 1014.87 189.109 1023.29L188.342 1024.28C175.8 1040.31 162.505 1053.47 174.368 1074.67C205.132 1149.53 246.323 1219.82 294.047 1285.06C291.025 1147.65 288.355 1010.19 284.057 872.822ZM854.977 1174.56C797.922 1186.54 796.854 1164.11 806.377 1227.59C829.26 1227.75 852.129 1227.23 875.017 1227.6C868.477 1209.87 861.697 1192.22 854.977 1174.56ZM471.996 1156.63C442.198 1167 410.559 1165.52 379.437 1166.8C379.5 1173.5 347.659 1167.28 341.547 1168.2L339.422 1168.02C334.335 1167.6 327.793 1167.43 327.736 1173.73C329.357 1184.59 323.257 1196.48 327.036 1207.15C332.137 1221.52 353.956 1220.04 365.996 1220.32C385.847 1220.77 405.696 1221.25 425.547 1221.77C443.377 1222.24 461.267 1223.13 479.107 1223.26C477.507 1210.54 477.067 1197.5 476.098 1184.79C474.876 1175.65 476.638 1164.82 471.996 1156.63ZM597.297 1202.84C597.327 1203 597.357 1203.16 597.397 1203.33C597.629 1203.27 597.867 1203.22 598.11 1203.17L598.477 1203.09V1203.08C598.087 1203.01 597.687 1202.93 597.297 1202.84ZM683.717 631.642C670.83 653.771 649.469 667.984 623.737 668.192C578.575 670.797 532.818 667.804 488.807 657.091C482.337 655.472 474.607 654.062 468.657 650.522C502.635 834.945 557.563 1014.6 596.297 1197.96C624.349 1200.44 652.314 1200.18 680.427 1198.85C702.124 1198.52 724.039 1200.86 745.587 1197.63L744.915 1174.87C739.477 992.644 731.909 808.223 683.717 631.642Z" fill="black"/>
<path fill-rule="evenodd" clip-rule="evenodd" d="M587.576 63.9776C644.357 63.9776 715.473 128.748 736.286 156.311C753.785 179.484 751.31 298.865 751.31 369.682C751.31 384.493 744.615 412.525 742.184 426.692C733.278 478.607 694.476 522.146 617.677 522.146C555.145 522.146 507.022 502.339 460.487 451.68C449.87 440.123 398.022 481.498 387.418 466.598C359.722 466.598 336.563 207.82 390.941 130.201C445.32 52.5832 530.796 63.9776 587.576 63.9776Z" fill="white"/>
<path fill-rule="evenodd" clip-rule="evenodd" d="M416.916 82.2046C449.726 52.3546 493.436 37.9946 537.536 39.0546C560.376 39.6046 583.136 43.9546 604.706 51.4046C615.496 55.1446 625.946 60.0246 635.936 65.5446C639.536 67.5293 642.855 69.8547 646.05 72.3243L646.846 72.9446H646.856C655.426 76.0246 663.076 81.5546 670.016 88.0246C683.926 86.9146 697.946 88.1646 711.396 92.4546C730.116 98.4346 747.446 109.385 759.616 124.935C773.792 143.038 778.505 164.997 776.824 187.665L776.513 191.516C774.85 211.541 771.871 237.297 755.436 250.455C754.186 251.455 752.806 252.215 751.376 252.675C761.966 270.815 770.656 290.955 775.856 311.295C795.706 388.985 780.446 470.005 756.576 544.885C754.616 551.055 745.286 555.155 740.536 549.125C732.056 538.345 719.736 530.125 705.876 528.585C697.326 527.635 688.816 529.355 680.736 525.475C677.566 523.945 674.506 521.445 672.306 518.405C658.666 523.575 643.976 526.015 629.406 525.415C605.496 524.435 579.936 516.155 563.486 497.995C560.846 495.08 560.177 491.807 560.785 488.857C562.848 488.121 564.966 487.573 567.148 487.23C588.008 499.524 611.002 507.739 635.714 508.255C649.993 508.553 663.921 506.556 675.499 497.64C678.004 495.71 680.308 493.573 682.438 491.277C706.645 475.705 723.712 449.256 731.826 420.925C739.386 394.505 738.456 366.995 735.856 339.895L734.485 325.594C732.485 304.605 730.63 283.553 730.11 262.475L730.267 262.467V262.467C735.379 262.137 735.416 254.134 730.267 254.467C716.948 255.329 703.73 253.144 690.452 254.096C690.341 247.819 689.889 241.57 688.044 235.516C686.991 232.057 680.968 231.375 680.33 235.516C679.476 241.056 679.164 246.565 679.071 252.13C659.2 251.866 639.348 250.194 619.474 250.881C615.808 246.971 614.641 240.038 612.926 235.215C612.676 234.505 612.426 233.805 612.166 233.095C610.659 239.987 608.523 246.728 605.713 253.327L600.839 253.343C573.185 253.473 544.967 254.299 517.962 260.043C516.085 258.602 514.968 256.088 514.666 253.805C512.708 238.949 509.912 224.488 504.957 210.331L504.249 208.334C504.191 208.168 504.129 207.992 504.065 207.807C500.414 213.7 496.058 219.193 491.307 224.308C488.507 227.323 485.571 230.206 482.558 233.007C479.631 236.257 476.606 239.458 473.674 242.718C473.789 243.311 473.889 243.913 473.97 244.526C474.867 251.291 474.96 258.152 474.303 264.943C473.115 277.22 469.649 289.05 464.081 299.994L463.905 301.089C463.06 306.218 461.857 311.519 459.047 315.381C462.553 319.309 465.254 324.001 466.82 329.214C468.214 333.855 461.793 337.877 458.463 334.079C455.818 331.062 452.879 328.565 449.651 326.573C449.447 326.85 449.079 326.986 448.666 326.755C439.676 321.765 424.406 323.275 415.426 327.975C404.256 333.815 399.896 345.805 401.136 357.955C402.326 369.565 407.406 383.135 417.256 389.085C421.776 391.815 425.296 392.045 430.096 390.735C431.631 390.318 433.534 389.039 434.351 388.404L435.154 387.76C438.301 385.273 441.232 383.57 444.946 383.505C448.746 382.32 452.564 383.963 454.017 387.947L454.106 388.205C454.786 390.235 456.026 392.785 455.756 395.885C455.476 399.205 453.956 402.225 451.686 404.655C451.296 405.075 450.876 405.495 450.446 405.885C489.546 448.215 494.566 514.175 474.516 567.055C473.646 569.375 472.716 571.665 471.746 573.935C468.396 581.715 455.496 579.305 453.856 571.595C453.366 569.285 452.826 566.985 452.236 564.705C451.152 560.491 449.91 556.317 448.509 552.204L447.976 550.665C446.786 547.265 445.676 543.835 444.476 540.435L444.356 540.046C444.311 539.892 444.261 539.715 444.206 539.515L442.176 543.945V543.945L436.006 557.315C433.119 563.554 423.946 560.163 423.605 554.151L423.596 553.945C423.566 552.835 423.526 551.735 423.456 550.645C423.016 542.475 421.606 534.535 419.366 526.765L418.558 527.769C406.524 542.647 392.401 556.592 373.026 560.025C368.166 560.885 362.666 555.805 366.006 550.895C367.386 548.865 368.716 546.785 369.976 544.675C368.886 544.165 367.856 543.635 366.906 543.095C359.556 538.965 353.436 533.085 348.376 526.415C337.646 512.275 333.806 494.475 332.866 477.055C331.866 458.645 333.486 439.235 338.516 421.475C340.696 413.795 343.646 406.425 347.056 399.275C346.816 398.635 346.586 397.995 346.356 397.355C342.676 387.095 339.656 376.605 337.146 365.995C332.086 344.575 329.366 322.475 329.036 300.465C328.436 261.035 335.236 220.975 349.566 184.205C364.366 146.285 386.626 109.755 416.916 82.2046ZM398.486 426.945C395.769 422.666 388.969 426.522 391.492 430.831L391.586 430.985C395.896 437.775 397.916 445.495 400.396 453.065C401.986 457.935 409.716 455.855 408.106 450.935L407.573 449.292C405.106 441.615 402.854 433.814 398.486 426.945ZM422.156 345.265L423.962 344.391C429.657 341.673 434.647 339.822 441.376 342.195C450.386 345.365 460.036 355.455 453.946 365.245C451.706 368.855 447.726 370.295 443.626 369.445C436.714 368.011 434.931 361.787 431.423 356.677L430.82 355.812C428.681 352.72 425.977 348.446 422.416 347.235C421.606 346.955 421.266 345.695 422.156 345.265ZM427.235 137.406L427.816 136.885C431.686 133.465 426.006 127.825 422.156 131.225C404.536 146.795 398.416 171.165 389.276 191.935C387.226 196.605 394.116 200.685 396.186 195.975C404.905 176.155 410.692 152.447 427.235 137.406V137.406ZM638.976 130.595C634.373 128.52 630.345 135.22 634.771 137.426L634.936 137.505C650.496 144.535 657.116 160.455 663.456 175.235C665.476 179.955 672.366 175.885 670.366 171.205L669.222 168.553C662.607 153.321 654.891 137.796 638.976 130.595ZM663.366 120.975C658.486 119.285 656.396 127.005 661.236 128.695C674.426 133.285 683.476 143.185 691.106 154.505C693.966 158.745 700.896 154.745 698.006 150.465C689.146 137.325 678.626 126.295 663.366 120.975Z" fill="black"/>
<path fill-rule="evenodd" clip-rule="evenodd" d="M664.581 430.822C661.281 435.137 655.306 438.442 648.614 440.022C642.238 441.528 635.191 441.466 629.109 439.149L628.587 438.941C624.04 437.053 619.675 433.239 618.017 429.26C617.358 427.678 617.135 426.069 617.586 424.569C617.992 423.219 618.943 421.976 620.527 420.909C621.025 420.574 621.692 420.55 622.327 420.662C623.116 420.801 623.893 421.17 624.362 421.668C626.964 424.435 630.739 427.132 635.207 427.086C638.655 427.051 641.47 425.69 644.2 424.151L646.119 423.053C647.97 421.996 649.847 421.004 651.971 420.551C655.773 419.739 660.384 421.222 663.194 423.67C664.419 424.737 665.309 425.991 665.551 427.343C665.755 428.477 665.469 429.661 664.581 430.822ZM644.814 355.367C652.366 359.957 663.872 370.66 655.748 382.039C646.186 392.073 632.419 380.569 625.634 375.366C619.344 371.334 612.276 381.704 618.112 386.413C667.136 422.708 687.031 356.567 648.634 349.97C644.406 349.243 642.836 353.947 644.814 355.367ZM559.623 284.821L561.793 284.226L564.005 283.629L565.5 283.234C575.775 280.544 587.108 278.178 597.297 279.333C601.013 279.755 604.029 281.846 604.555 285.739C604.998 289.024 602.875 293.262 599.262 293.846C587.295 295.782 575.044 295.154 563.022 297.15C557.035 298.143 551.094 299.376 545.13 300.487C540.595 301.333 535.909 301.63 531.335 302.314L532.386 302.46C532.754 302.51 532.662 303.129 532.299 303.104C530.792 302.954 529.282 302.93 527.769 303.036L527.121 303.089C526.134 303.228 525.552 302.05 526.432 301.452C532.005 297.671 536.734 293.573 542.974 290.786C548.371 288.376 553.926 286.389 559.623 284.821ZM653.162 279.022C661.062 271.036 677.862 274.105 687.26 277.758C692.624 279.844 697.724 282.481 701.972 286.426L702.386 286.814L703.024 287.428C705.892 290.235 709.089 294.098 708.634 298.145C708.565 298.762 708.229 299.467 707.532 299.591C703.768 300.258 700.071 298.272 696.595 297.077L694.293 296.287C690.836 295.11 687.357 293.985 683.793 293.172C679.361 292.164 674.84 291.581 670.29 291.639C665.691 291.699 660.751 292.997 656.37 291.171C651.484 289.136 648.951 283.28 653.162 279.022ZM575.116 343.43C573.101 345.488 570.439 346.65 567.032 345.959C564.369 345.419 559.3 342.742 555.251 338.62C552.481 335.8 550.165 332.275 549.535 328.193C549.389 327.245 548.886 326.637 548.225 326.254C547.703 325.952 547.015 325.8 546.266 325.876C545.63 325.94 544.954 326.171 544.432 326.476C543.44 327.057 543.033 327.882 542.951 328.498C542.154 334.442 544.45 340.339 548.029 345.312C552.858 352.022 559.951 356.94 564.12 358.091C571.253 360.062 578.77 358.493 584.312 353.528C588.744 349.558 591.016 344.386 593.124 339.067L593.53 338.036C594.004 336.829 594.475 335.631 594.973 334.446C595.972 332.071 595.652 330.018 594.683 328.418C593.61 326.645 591.63 325.398 589.425 325.014C587.387 324.66 585.205 325.048 583.484 326.292C582.029 327.344 580.856 329.01 580.44 331.474C579.762 335.481 578.19 340.078 575.418 343.111L575.116 343.43ZM697.441 320.24C695.779 319.374 694.478 319.113 692.634 319.666C691.615 319.972 690.607 320.559 689.818 321.348C689.036 322.13 688.472 323.102 688.253 324.181C687.713 326.843 686.257 329.335 684.181 330.96C682.407 332.349 680.167 333.085 677.683 332.669C675.003 332.222 672.449 330.503 670.69 328.476C670.2 327.911 669.799 327.282 669.41 326.645L669.178 326.263C668.312 324.832 667.469 323.502 666.274 322.451C665.821 322.052 665.138 321.775 664.477 321.775C664.208 321.775 663.936 321.818 663.676 321.899C661.008 324.577 660.495 326.608 660.581 328.623C660.671 330.736 661.504 332.875 662.85 334.871C666.008 339.553 672.003 343.392 676.049 344.261C681.589 345.452 687.091 344.023 691.503 340.928C696.042 337.744 699.406 332.801 700.454 327.23C700.707 325.888 700.599 324.44 700.088 323.184C699.589 321.957 698.719 320.906 697.441 320.24Z" fill="black"/>
<path fill-rule="evenodd" clip-rule="evenodd" d="M749.09 335.283C739.556 399.772 673.002 406.904 661.177 342.882C663.075 342.051 664.44 340.415 664.155 337.239C664.088 323.287 668.419 308.541 681.005 300.782C694.011 292.776 709.232 291.982 724.283 292.184C753.005 291.5 752.401 315.507 749.09 335.283M650.758 307.236C641.744 306.856 630.34 307.174 622.265 312.666C620.045 306.688 614.277 300.305 608.449 296.892C630.111 297.526 652.409 295.394 674.233 293.739C669.009 297.3 664.149 302.65 660.99 308.835C658.059 307.272 653.861 307.418 650.758 307.236M611.026 342.12C586.031 428.156 523.64 390.656 516.838 379.63C504.569 361.384 502.261 317.03 512.948 305.171C528.246 294.447 549.903 297.207 567.975 296.944C601.176 297.392 624.756 307.324 611.026 342.12M778.603 302.549C771.812 301.661 764.555 301.482 758.241 304.472C756.297 296.209 750.194 289.301 743.303 286.261C742.469 285.215 742.594 284.653 739.745 284.81C722.25 279.552 702.673 282.334 685.861 287.726C659.309 289.962 631.452 291.725 604.677 294.806C579.595 283.542 503.902 281.891 499.198 309.654C493.281 308.769 483.204 304.112 478.232 310.429C441.761 304.246 404.076 312.839 367.447 316.666C358.227 318.364 353.478 336.662 363.944 336.412C369.828 334.815 363.763 325.018 371.686 324.281C407.027 320.421 441.595 314.945 477.298 314.304C476.056 320.469 500.912 320.87 501.279 317.27C501.332 317.297 501.388 317.315 501.442 317.339C495.3 340.229 500.844 373.171 511.944 387.365C527.496 405.951 566.541 411.283 583.854 399.325C606.187 388.288 629.42 332.886 622.894 314.48C634.738 310.726 646.447 311.853 658.739 313.765C655.925 321.714 651.067 341.282 658.056 342.979C656.773 381.829 692.13 406.07 724.724 390.133C752.935 376.89 762.801 334.972 759.349 309.529C762.861 316.315 792.349 308.927 778.603 302.549" fill="black"/>
<path fill-rule="evenodd" clip-rule="evenodd" d="M1383.43 2850.42C1376.56 2818.33 1407.97 2807.49 1427.77 2800.35C1441.95 2791.12 1494.5 2759.14 1535.16 2719.67C1568.43 2687.37 1591.08 2645.97 1600.51 2642.02C1600.51 2642.02 1610.21 2636.37 1611.22 2632.18C1617.13 2607.58 1612.2 2584.66 1611.22 2569.75C1592.29 2564.76 1577.13 2558.54 1565.78 2549.83C1562.47 2550.94 1557.52 2552.36 1556.04 2547.5C1545.79 2478.85 1541.36 2411.01 1533.02 2342.31C1501.45 2080.63 1497.88 1774.93 1552.2 1535.93C1552.77 1524.08 1551.74 1513.38 1550.69 1503.2C1543.35 1502.41 1538.9 1495.27 1532.91 1491.01C1523.6 1483.58 1512.58 1477.88 1513.03 1464.9C1510.82 1463.22 1511.08 1462.27 1512.17 1460.13C1505.07 1429.49 1536.74 1397.2 1545.7 1371.93C1529.41 1212.1 1551.57 1061.06 1539.21 901.195C1523.6 894.639 1534.09 853.663 1535.16 836.762C1543.81 727.879 1600.2 620.226 1701.75 584.656C1707.56 583.475 1716.28 576.815 1721.09 581.287C1730.37 577.595 1742.72 584.873 1749.91 576.495L1749.83 576.44C1755.88 568.02 1758.6 557.316 1760.58 547.195C1760.25 550.047 1759.7 552.876 1759.01 555.64C1776.52 506.119 1780.93 492.877 1837.29 490.545C1862.68 490.204 1896.14 490.969 1910.95 515.272C1917.01 526.569 1915.16 539.541 1918.92 551.433C1925.83 573.255 1955.66 562.71 1971.33 574.041C2096.67 614.39 2199.47 696.749 2233.27 828.94C2240.18 844.873 2248.01 860.73 2253.79 877.173C2254.68 879.614 2257.14 887.873 2251.24 891.674L2248.38 893.512C2286 1070 2288.5 1218.71 2162.1 1336.37C2152.62 1386.93 2177.02 1455.97 2167.64 1505.06C2172.98 1512.67 2166.21 1518.8 2159.37 1519.29C2158.72 1519.65 2156.05 1520.82 2155.33 1521.16C2166.2 1675.23 2120.55 1882.86 2100.43 1964.81C2097.69 2014.02 2114.42 2054.44 2148.84 2081.25C2186.87 2104.76 2262.06 2210.94 2248.12 2322.32C2264.41 2325.53 2280.58 2327.29 2296.2 2333.43C2364.58 2321.32 2363.9 2453.62 2368.26 2500.14C2375.64 2578.03 2380.23 2690.93 2306.5 2740.79C2287.08 2754.93 2247.7 2771.48 2227.52 2748.85C2220.9 2740.88 2219.25 2733.18 2221.85 2725.03C2188.53 2677.78 2197.51 2615.97 2194.45 2560.54C2184.78 2559.96 2174.67 2564.51 2165.32 2562.85C2155.73 2554.37 2190.73 2556.68 2194.36 2556.18C2193.99 2547.63 2193.3 2538.63 2192.42 2530.02C2186.93 2531.12 2179.9 2533.77 2174.62 2533.97C2171.49 2534.73 2169.29 2530.41 2171.17 2528.18C2175.29 2524.23 2185.8 2524.84 2191.71 2524.28C2190.71 2517.07 2189.49 2509.49 2188.13 2502.51C2180.9 2502.25 2173.43 2506.87 2166.59 2505.93C2171.77 2502.46 2181.5 2503.51 2187.81 2501.22C2183.7 2478.75 2175.33 2457.42 2167.55 2436.41C2148.46 2444.31 2131.99 2444.62 2113.34 2442.25C2105.72 2443.43 2102 2441.87 2100.77 2432.29L2101.25 2431.69C2086.48 2342.95 2038.8 2258.36 1950.25 2162.43C1932.75 2142.78 1912.99 2119.65 1899.82 2093.78C1873.35 2039.95 1868.83 1980.55 1848.44 1924.65C1829.4 1868.46 1803.37 1814.71 1778.93 1761.45C1775.35 1788.75 1770.53 1816.75 1765.53 1843.52C1743.5 1938.38 1745.63 2039.58 1761.85 2134.96C1785.83 2268.56 1774.27 2402.78 1779.6 2537.32C1779.53 2545.08 1778.57 2552.13 1779.71 2560.21C1779.86 2560.83 1779.56 2561.56 1778.83 2561.54L1777.45 2561.58C1765.92 2570.06 1750 2571.59 1736.45 2576.18C1730.76 2580.7 1732.36 2587.86 1731.84 2593.44C1730.35 2617.51 1728.45 2641.66 1730.81 2666.47C1741.27 2686.57 1754.25 2682.42 1756.9 2710.75C1759.23 2743.11 1763.34 2777.51 1747.64 2806.31L1753.58 2807.34C1762.39 2825.91 1757.01 2837.96 1736.3 2845.81C1634.04 2886.05 1490.14 2922.59 1383.43 2892.21C1381.49 2894.14 1378.67 2892.14 1376.46 2889.11C1374.34 2886.19 1372.79 2882.32 1373.14 2880.08C1374.96 2870.23 1372.45 2852.24 1383.43 2850.42Z" fill="white"/>
<path fill-rule="evenodd" clip-rule="evenodd" d="M1378.55 2882.64C1470.45 2924.06 1637.31 2871.8 1727.6 2841.57C1751.94 2832.75 1760.05 2831.02 1753.23 2802.85C1740.47 2827.58 1713.02 2833.55 1686.72 2838.5C1597.64 2858.88 1506.82 2896.52 1411.56 2878.15C1397.57 2875.94 1383.74 2868.35 1379.67 2854.32C1377.16 2860.27 1378.71 2868.31 1377.71 2874.85C1377.52 2877.46 1377.46 2880.27 1378.55 2882.64M1750.21 2728.6C1748.55 2711.99 1745.9 2694.45 1736.48 2679.78C1737.5 2703.51 1723.31 2743.84 1692.2 2730.41C1683.39 2725.72 1678.45 2716.28 1672.78 2708.7C1653.94 2683.76 1629.77 2662.11 1602.48 2646.38C1587.3 2649 1580.77 2676.87 1570.98 2688.53C1581.89 2693.41 1601.66 2704.53 1603.66 2716.03C1590.04 2711.43 1577.5 2702.86 1563.21 2699.85C1558.64 2706.19 1553.79 2712.34 1548.69 2718.28C1555.35 2721.22 1582.19 2734.84 1582.01 2741.63C1567.5 2739.27 1553.44 2732.14 1538.85 2729.21C1532.36 2735.67 1526.46 2742.62 1520 2749.1C1529.76 2753.13 1540.06 2757.64 1545.39 2767.04C1545.64 2767.46 1545.02 2767.94 1544.67 2767.53C1537.37 2758.68 1524.79 2757.06 1513.89 2755.07C1497.16 2770.88 1478.44 2784.82 1457.48 2795.25C1436.51 2806.76 1404.64 2809.39 1396.29 2834.36C1389.62 2859.32 1410.43 2861.98 1429.64 2863.74C1449.07 2866.52 1468.63 2866.94 1487.93 2865.32C1548.27 2862.8 1605.3 2844.97 1662.32 2829.39C1732.03 2816.51 1754.65 2806.08 1750.21 2728.6M1729.77 2582.64C1729.93 2583.73 1730.08 2584.83 1730.23 2585.94C1730.43 2584.77 1730.57 2583.6 1730.85 2582.45C1730.49 2582.51 1730.13 2582.58 1729.77 2582.64M1617.14 2638.38C1643.85 2658.21 1669.92 2680.3 1688.47 2707.95C1700.75 2730.45 1717.08 2716.75 1721.14 2698.73C1724.43 2658.49 1721.6 2623.74 1725.45 2583.26C1688.52 2588.32 1650.58 2585.2 1614.5 2576.26C1618.85 2594.33 1620.84 2601.19 1620.97 2619.73C1620.74 2625.84 1620.83 2633.3 1617.14 2638.38M1557.35 1157.32C1556.56 1216.55 1556.19 1275.79 1558.24 1334.99C1610.18 1200.25 1594.28 1054.04 1601.66 912.405C1586.31 907.273 1569.82 905.031 1554 902.837C1560.36 990.747 1558.72 1069.27 1557.35 1157.32M1850.9 1456.52C1978.44 1395.32 1996.08 1238.4 2097.07 1151.95C2100.33 1148.84 2103.03 1145.64 2104.6 1141.87C2097.36 1068.44 2097.89 1004.07 2089.33 930.719C2079.77 913.306 2075.99 893.081 2068.87 874.551C2065.14 863.269 2060.61 852.094 2059.54 840.253C2058.64 836.355 2064.71 834.661 2065.84 838.343C2079.32 864.63 2086.02 893.865 2096.08 921.582C2097.5 922.15 2099.38 921.699 2099.94 920.211C2100.02 920.573 2100.12 920.935 2100.21 921.298C2143.51 904.315 2188.15 888.498 2235.32 888.615C2235.29 888.469 2235.25 888.312 2235.22 888.165C2238.13 888.253 2244.23 888.018 2242.4 883.787C2200.94 732.031 2126.5 628.01 1968.58 578.599C1988.77 696.351 1694.92 703.168 1698.98 593.564C1588.28 641.3 1540.6 775.369 1553.15 888.253C1563.66 885.403 1591.06 896.617 1601.74 903.13C1603.92 857.295 1598.51 801.979 1601.69 760.991C1618.53 969.973 1649.96 1220.03 1546.09 1409.65C1539.35 1422.36 1528.35 1434.53 1528.62 1449.45C1527.81 1450.28 1527.74 1451.72 1528.72 1452.77C1528.72 1452.84 1528.72 1452.91 1528.73 1452.98C1528.78 1452.99 1528.84 1452.99 1528.9 1452.99C1531.91 1456.59 1538.25 1457.31 1542.62 1458.1C1552.92 1460.19 1563.76 1461.77 1573.2 1466.57C1673.73 1519.55 1752.59 1451.26 1850.9 1456.52M1819.13 1552.82C1814.27 1562.13 1806.11 1569.62 1796.44 1574.31C1797.63 1576.66 1798.04 1579.3 1798.17 1581.78C1815.59 1585.35 1810.69 1593.65 1822.46 1597.61C1830.16 1599.74 1837.56 1600.65 1844.22 1605.33C1866.87 1626.51 1872.49 1624.95 1896.79 1606.32C1896.46 1604.64 1929.54 1572.21 1939.79 1554.08C1948.33 1538.96 1957.26 1523.73 1970.35 1512.04C2034.43 1446.18 2102.7 1384.03 2164.73 1316.35C2289.05 1192.02 2265.33 1051.04 2236.77 895.736C2190.69 901.259 2144.35 912.356 2102.84 932.727C2117.48 1001.27 2118.42 1063.41 2124.72 1132.96C2126.62 1141.56 2124.48 1158.12 2112.34 1154.3C2000.76 1243.22 1987.79 1425.95 1841.36 1478.79C1781.68 1503.13 1806.86 1522.9 1787.14 1568.87C1797.99 1566.87 1807.67 1557.74 1812.34 1549.01C1814.65 1544.67 1821.38 1548.49 1819.13 1552.82M2156.41 1498.87C2158.93 1481.45 2156.96 1464.1 2156.85 1446.65C2158.2 1414.87 2157.15 1383.89 2155.93 1352C2120.94 1388.39 2084.56 1423.54 2048.82 1459.25C2086.88 1464.07 2130.77 1468.03 2156.41 1498.87M2157.05 1524.5C2156.45 1524.31 2155.87 1524.04 2155.33 1523.72C2155.47 1537.39 2155.26 1551.07 2154.76 1564.72C2155.71 1551.32 2156.48 1537.91 2157.05 1524.5M2199.86 2496.35C2210.12 2495.56 2254.03 2494.04 2259.29 2500.96C2253.36 2503.47 2245.2 2502.08 2238.82 2502.37C2226.43 2502.88 2214.07 2503.97 2201.8 2505.72C2202.72 2510.52 2203.55 2515.31 2204.23 2520.11C2216.6 2521.3 2240.7 2521.84 2248.55 2530.52C2234.54 2532.77 2219.95 2530.75 2205.89 2533.55C2206.57 2540.13 2207.07 2546.72 2207.44 2553.32C2213.04 2553.91 2245.98 2559.39 2245.95 2564.59C2233.62 2566.23 2220.56 2564.07 2207.99 2565.29C2210.71 2604.79 2201.48 2724.07 2255.26 2731.37C2302.29 2728.88 2322.92 2652.39 2329.31 2615.69C2343.48 2530.19 2341.05 2439.03 2312.96 2356.61C2302.93 2333.7 2275.63 2329.72 2252.54 2328.54C2251.66 2332.41 2250.8 2336.22 2249.82 2340.06C2259.83 2362.84 2263.02 2388.49 2263.3 2413.14C2261.18 2448.58 2217.62 2474.92 2185.98 2451.52C2191.9 2466.01 2196.46 2481.1 2199.86 2496.35M2262.09 2751.26C2355.23 2731.16 2370.51 2622.9 2364.11 2543.3C2358.89 2487.88 2365.16 2371.05 2314.19 2338.5C2380.06 2398.85 2374.34 2809.7 2228.37 2737.99C2232.01 2749.57 2250.73 2752.91 2262.09 2751.26M2243.84 2364.99C2243.67 2363.56 2243.49 2362.14 2243.29 2360.71C2232.96 2388.88 2215.26 2415.66 2188.9 2431.98C2198.99 2444.61 2218.64 2448.37 2231.9 2438.03C2255.03 2420.63 2245.39 2389.14 2243.84 2364.99M1926.35 564.928C1926.54 565.252 1926.73 565.575 1926.93 565.888C1928.21 565.976 1929.51 566.094 1930.83 566.241C1929.34 565.79 1927.84 565.369 1926.35 564.928M1749.35 575.271C1749.4 575.124 1749.45 574.977 1749.49 574.84C1749.37 574.908 1749.25 574.987 1749.13 575.065C1749.22 575.124 1749.28 575.192 1749.35 575.271M1369.51 2865.49C1369.76 2858.49 1369.86 2849.43 1378.04 2846.95C1374.33 2816.74 1399.31 2799.55 1425.54 2791.18C1447.9 2777.45 1473.27 2767.85 1493.82 2751.3C1484.27 2749.5 1474.73 2747.33 1466.25 2743.16C1459.85 2740.02 1462.93 2729.55 1469.87 2730.52C1482.16 2732.15 1493.19 2738.42 1504.74 2742.77C1511.29 2737.37 1517.65 2731.72 1523.65 2725.74C1516.17 2724.29 1506.67 2724.83 1502.32 2717.38C1500.96 2715.05 1501.56 2712.64 1503.2 2710.84C1510.78 2703.15 1525.78 2710.83 1535.19 2713.07C1539.71 2707.84 1544.07 2702.51 1548.35 2697.12C1541.25 2696.46 1522.77 2697.76 1526.39 2685.99C1533.33 2676.79 1548.25 2682.31 1558.28 2684.21C1571 2668.5 1575.1 2644.41 1594.99 2635.77C1595.7 2631.96 1600.66 2632.25 1603.96 2633.38C1608.83 2610.05 1608.46 2598.19 1607.04 2574.27C1592.28 2570.17 1577.63 2564.78 1565.35 2555.95C1559.71 2557.61 1552.87 2555.69 1551.7 2549.04C1548.19 2525.61 1546.23 2498.57 1543.77 2474.63H1542.87C1538.2 2430.97 1534.43 2387.18 1529.14 2343.64C1498.86 2091.92 1492.27 1784.69 1548.32 1536.01C1548.75 1526.59 1548.09 1517.16 1547.14 1507.81C1540.46 1506.01 1536.48 1499.46 1530.95 1495.67C1520.66 1487.26 1510.2 1482.55 1509.25 1467.87C1507.18 1465.88 1506.93 1462.87 1508.07 1460.27C1505.41 1445.19 1509.33 1430.23 1517.32 1417.2C1526.09 1402.36 1534.36 1387.39 1541.67 1371.82C1525.69 1214.86 1547.37 1062.74 1535.51 905.001C1520.31 896.921 1529.85 852.026 1531.27 837.06C1540.15 738.779 1585.86 630.262 1683.06 589.383C1689.88 583.604 1699.41 581.645 1707.74 578.462C1713.37 575.681 1722.54 573.272 1726.39 579.745C1730.48 577.836 1743.64 576.376 1748.15 573.066C1748.99 572.449 1749.53 571.773 1749.65 571.019C1749.98 571.029 1750.37 570.96 1750.79 570.872C1754.95 564.976 1758.91 523.91 1764.04 526.839C1769.63 540.942 1765.75 556.877 1760.41 571.117C1756.72 583.712 1751.66 616.11 1732.07 607.824C1728.69 606.14 1730.78 601.762 1733.81 601.409C1743.09 598.745 1745.16 585.044 1748.76 577.013C1744.5 580.558 1725.12 585.876 1723 587.003C1680.97 683.845 1935.13 678.762 1955.12 611.997C1969.36 588.932 1957.07 576.435 1931.67 572.733C1950.34 593.555 1926.7 598.177 1917.72 577.757C1909.12 563.135 1905.21 545.369 1908.14 528.543C1906.63 522.637 1905.35 514.743 1914.15 516.33C1914.46 515.546 1914.93 516.163 1914.75 516.722C1917.96 521.854 1915.72 529.228 1916.87 535.154C1917.83 544.85 1920.57 554.35 1925.23 562.929C1933.86 564.584 1942.46 566.357 1951.02 568.296C1956.15 557.827 1989.45 578.707 1998.38 581.165C2117.13 616.375 2207.43 710.141 2238.95 828.412C2245.98 844.161 2253.58 859.988 2259.33 876.226C2261.91 883.258 2261.91 891.985 2254.84 896.539C2289.31 1055.27 2297.72 1220.65 2167.48 1339.7C2164.53 1352.59 2166.5 1366.26 2166.58 1379.39C2165.49 1409.28 2190.94 1511.72 2161.38 1524.97C2170.02 1657.68 2137.63 1838.25 2106.24 1966.28C2103.92 2010.28 2117.14 2050.31 2152.73 2078.08C2220.39 2128.85 2248.89 2213.59 2256.81 2294.35C2257.93 2302.63 2256.83 2311.05 2254.97 2319.18C2269.64 2321.92 2283.37 2323.71 2297.61 2329.1C2376.13 2314 2370.53 2483.33 2376.54 2533.57C2381.24 2607.85 2378.3 2696.88 2310.3 2745.52C2287.44 2761.86 2247.08 2777.55 2224.8 2752.81C2218.5 2745.24 2215.06 2736.38 2217.54 2726.71C2185.6 2679.76 2193.15 2619.77 2190.75 2566.35C2182.39 2566.64 2173.28 2570.39 2165.04 2568.33C2158.7 2566.64 2157.89 2558.48 2163.26 2555.22C2171 2550.82 2181.53 2552.49 2190.2 2552.2C2189.93 2547.09 2189.55 2541.97 2189.07 2536.86C2180.84 2538.88 2169.05 2543.73 2166.6 2532.19C2165.62 2521.68 2178.84 2520.88 2187.08 2520.43C2186.5 2516.46 2185.86 2512.51 2185.12 2508.58C2178.82 2509.21 2172.17 2513.25 2165.97 2511.32C2162.46 2509.93 2161.24 2506.36 2163.8 2503.47C2168.57 2498.78 2176.73 2499.72 2183.04 2498.26C2179.21 2479.41 2172.28 2461.38 2165.61 2443.35C2153.53 2447.56 2140.44 2450.34 2127.55 2449.28C2120.87 2447.87 2113.57 2447.47 2106.82 2448.38C2099.3 2446.38 2097.57 2438.32 2096.58 2431.74C2096.73 2431.51 2096.87 2431.28 2097.04 2431.08C2079.68 2329.61 2017.4 2241.96 1947.57 2166.44C1928.34 2144.83 1909.48 2122.36 1896.41 2096.7C1869.87 2043.07 1865.11 1982.73 1844.8 1927.01C1827.7 1876.42 1804.83 1827.9 1782.42 1779.31C1773.43 1843.31 1756.65 1906.25 1754.73 1971.15C1751.8 2053.25 1769.82 2134.15 1777.51 2215.6C1788.62 2301.73 1782.7 2388.29 1783.41 2474.63H1782.93C1783.11 2495.45 1783.68 2517.17 1784.97 2537.93C1784.92 2545.52 1783.94 2552.67 1785.02 2560.26C1785.61 2564.46 1782.6 2567.09 1779.44 2567.18C1767.83 2574.83 1753.24 2577.54 1739.89 2580.82C1736.2 2583.66 1737.8 2590.65 1737.14 2594.93C1735.71 2618.97 1733.81 2637.12 1736.15 2661.36C1749.2 2680.73 1758.61 2677.64 1762.24 2707.09C1764.24 2737.84 1768.64 2771.09 1755.25 2799C1761.25 2800.37 1763.52 2818.72 1762.62 2823.57C1761.1 2837.27 1749.07 2841.6 1737.44 2846.33C1652.43 2878.3 1471.82 2930.92 1384.48 2894.73C1378.22 2898.28 1371.25 2891.32 1369.23 2885.71C1366.55 2878.89 1369.01 2872.27 1369.51 2865.49" fill="black"/>
<path fill-rule="evenodd" clip-rule="evenodd" d="M1703.25 342.213C1709.17 269.745 1727.21 205.561 1811.94 202.824C1850.17 203.167 1889.21 211.321 1924.37 226.408C2009.83 269.422 2036.95 426.596 1961.65 489.866C1962.1 490.121 1962.21 490.86 1961.68 491.217C1946.12 501.722 1928.83 510.366 1911.51 517.629C1865.38 537.205 1811.08 545.708 1764.03 524.473C1692.24 493.807 1691.16 408.478 1703.25 342.213V342.213Z" fill="white"/>
<path fill-rule="evenodd" clip-rule="evenodd" d="M1561.93 308.436C1558.98 305.769 1556.78 302.27 1555.67 298.347C1554.65 294.77 1554.58 290.864 1555.66 287.296C1556.82 283.468 1559.31 280.419 1558.75 276.435C1558.69 276.045 1558.61 275.638 1558.49 275.231C1556.33 267.731 1551.03 262.318 1552.93 254.004C1553.46 251.657 1554.47 249.544 1555.88 247.881C1555.72 246.08 1555.58 244.261 1555.47 242.442C1552.36 235.124 1552.47 226.428 1555.79 219.223C1556.2 215.533 1556.81 211.879 1557.67 208.284C1557.27 205.106 1557.83 201.607 1558.84 198.827C1560.63 193.935 1562.84 189.115 1565.24 184.374C1564.96 183.078 1565.09 181.707 1565.8 180.489C1567.1 178.274 1568.81 176.327 1570.56 174.425C1571.8 172.205 1573.04 170.003 1574.28 167.831C1574.85 166.832 1575.48 165.724 1576.18 164.551C1574.28 161.012 1573.27 157.563 1575.28 153.402C1576.03 151.839 1578.11 150.686 1579.82 150.788C1581.68 150.9 1583.57 150.984 1585.47 151.056C1589.01 146.762 1593.02 142.907 1597.32 140.688C1601.68 136.981 1606.1 133.344 1610.4 129.628C1611.61 128.572 1612.84 127.515 1614.05 126.459C1614.06 126.433 1614.07 126.398 1614.08 126.372C1614.98 123.09 1615.99 119.85 1617 116.594C1617.63 114.576 1617.82 112.463 1619.77 111.363C1623.86 109.068 1630.15 108.704 1634.85 108.315C1635.31 107.899 1635.78 107.492 1636.25 107.076C1634.11 101.377 1634.49 95.3235 1637.18 89.6161C1638.09 87.6762 1641.27 86.8014 1643.01 88.0832C1647.03 91.0452 1651.8 92.0931 1656.52 91.6601C1663.46 86.3078 1691.44 62.1047 1695.76 59.5498C1695.82 59.458 1695.86 59.3662 1695.92 59.2753C1698.35 55.3797 1701.3 52.2515 1704.62 49.7434C1705.09 49.2471 1705.56 48.75 1706.04 48.2529C1705.62 45.2831 1704.52 42.4156 1702.76 40.0166C1702.57 39.7395 1702.35 39.471 1702.14 39.2112C1699.05 35.5217 1702.82 30.7757 1707.13 32.707C1707.44 32.8456 1707.75 32.9841 1708.06 33.1314C1711.38 34.6158 1715.05 36.2293 1718.87 37.5907C1720.27 37.065 1721.7 36.5887 1723 36.0639L1736.92 30.4457C1739.21 29.5207 1741.63 28.737 1743.85 27.65C1744.62 22.4892 1749.77 19.1046 1755.13 19.2813C1754.82 18.2905 1754.36 17.3283 1753.71 16.4163C1753.52 16.1478 1753.31 15.888 1753.09 15.6369C1750.34 12.4238 1754.02 6.46522 1757.95 9.32324C1758.23 9.52243 1758.51 9.72163 1758.79 9.92082C1759.88 10.6908 1761 11.4131 1762.13 12.1128C1763.94 11.3195 1765.98 11.1385 1768.12 11.9777C1772.84 13.8354 1777.2 15.7243 1781.36 18.636C1781.53 18.7547 1781.71 18.8543 1781.88 18.966C1783.94 16.4613 1787.22 14.7864 1790.17 14.8046C1790.23 14.8046 1790.28 14.8037 1790.33 14.8028C1792.54 11.426 1796.59 9.46354 1800.5 9.94074C1800.23 5.09511 1805.07 0.770845 1809.47 0.245143C1814.61 -0.368031 1819.24 2.62769 1820.78 7.66126C1821.21 9.06255 1821.64 10.4647 1822.07 11.8669C1826.06 9.84461 1830.27 8.29522 1834.67 7.52182C1844.69 5.76025 1854.49 7.63614 1864.15 10.4283C1865.11 10.7072 1866.07 10.9939 1867.04 11.2797C1868.42 9.67833 1869.71 8.03886 1870.94 6.50853C1873.07 3.86703 1878.19 5.98023 1877.84 9.3752C1877.6 11.7179 1878.55 13.4033 1880.08 14.601C1881.76 14.847 1883.38 14.9215 1885.82 14.8721C1889.05 14.8063 1890.52 14.705 1893.89 13.3834C1895.47 12.7684 1897.43 11.1515 1898.35 9.69998C1901.86 4.13378 1910.79 2.63462 1915.05 7.94187C1919.52 5.97503 1925.17 8.68755 1927.66 12.5121C1928.96 14.5118 1931.67 15.6299 1935.09 16.5913C1937.65 17.3118 1940.27 17.8574 1942.9 18.3346C1944.08 16.7368 1946.55 15.6654 1948.36 17.0052C1949.59 17.9155 1950.78 18.85 1951.96 19.8078C1961.02 21.0619 1970.04 21.1069 1978.69 17.5578C1986.01 14.5525 1992.73 22.7602 1991.52 29.6507C1993.64 30.7584 1995.94 31.4954 1998.04 32.6559C2002.61 35.19 2006.36 39.1956 2008.64 43.9018C2009.05 44.7444 2009.42 45.6001 2009.78 46.4601C2011.48 47.8553 2013.17 49.2878 2014.82 50.7991C2017.56 49.3874 2020.3 47.9757 2023.04 46.564C2025.1 45.5074 2028.56 46.2436 2028.96 48.9804C2029.63 53.4839 2031.24 57.2167 2033.54 60.3431C2041.03 64.2924 2048.24 68.7267 2055.13 73.6546C2063.06 76.1488 2071.49 77.6038 2078.42 79.2407C2080.79 79.8036 2082.08 82.9128 2080.75 84.9827C2079.33 87.1738 2077.92 89.365 2076.51 91.5561C2080.45 95.4188 2084.16 99.4547 2087.65 103.629C2097.37 115.234 2105.51 127.957 2112.79 141.433C2115.67 142.602 2118.55 143.763 2121.44 144.932C2124.21 146.058 2125.47 149.297 2123.21 151.678C2122.14 152.813 2121.19 154.008 2120.37 155.264C2124.45 162.045 2129.25 168.229 2135.97 172.282C2138.02 173.512 2139.56 175.443 2140.37 177.634C2141.07 178.102 2141.76 178.604 2142.45 179.115C2144.34 180.553 2145.49 183.688 2143.27 185.55C2141.7 186.867 2140.24 188.426 2138.99 190.149C2138.73 191.128 2138.45 192.115 2138.17 193.094C2144.42 198.862 2149.62 205.565 2153.52 213.082C2154.44 212.935 2155.39 213.03 2156.16 213.602C2163.13 218.772 2163.33 227.009 2160.53 234.37C2162.22 245.465 2161.13 256.836 2157.87 267.584C2162.16 271.88 2164.74 278.081 2165.79 284.056C2167.65 294.553 2167.78 310.697 2168.26 321.41C2172.94 325.939 2176.27 331.803 2178.12 338.108C2179.68 338.887 2181.25 339.667 2182.81 340.446C2184.2 341.139 2185.21 342.966 2185.13 344.508C2184.73 351.965 2181.67 357.854 2177.6 363.189C2176.16 367.303 2174.03 371.096 2171.24 374.734C2169.3 377.228 2167.41 379.618 2165.75 382.312C2165.58 382.58 2165.47 382.831 2165.4 383.004C2166.05 383.715 2166.59 384.892 2167.07 385.733C2171.06 392.782 2171.12 401.045 2165.46 407.185C2167.59 408.934 2167.66 412.468 2165.78 414.633C2153.53 428.672 2143.33 445.742 2126.34 453.199C2126.26 453.329 2126.19 453.459 2126.13 453.589C2129.57 461.903 2130.04 466.225 2127.23 474.816C2127.21 474.894 2127.18 474.963 2127.16 475.041C2125.66 479.545 2122.89 486.759 2117.92 488.162C2116.35 488.604 2114.8 488.803 2113.27 488.794C2109.32 492.614 2105.38 496.442 2101.44 500.27C2101.09 502.166 2100.88 504.08 2100.81 506.012C2100.69 509.242 2097.67 511.858 2094.41 510.905C2093.26 510.567 2086.91 504.375 2085.74 504.409C2085.16 504.998 2084.59 505.587 2084.02 506.185C2081.92 508.393 2079.01 511.875 2078.77 514.187C2078.31 518.544 2075.46 523.532 2070.86 524.416C2069.13 526.174 2066.37 526.702 2064.26 524.407C2064.12 524.26 2063.98 524.112 2063.84 523.983C2063.61 523.957 2063.4 523.931 2063.17 523.905C2062.15 526.953 2061.14 530.002 2060.11 533.042C2058.1 539.035 2050.42 542.889 2044.97 539.39C2044.09 539.918 2043.22 540.481 2042.36 541.044C2041.05 541.884 2039.72 542.742 2038.36 543.547C2038.28 543.772 2038.2 543.997 2038.13 544.214C2037.25 546.907 2033.6 548.354 2031.34 546.803C2030.64 547.028 2029.93 547.21 2029.2 547.358C2025.4 548.111 2021.57 547.903 2017.89 546.63C2015.26 545.729 2012.75 544.006 2009.92 543.772C2009.74 543.757 2009.56 543.77 2009.38 543.764C2007.07 548.512 2001.8 552.603 1997.64 553.993C1992.19 555.815 1986.62 555.163 1981.66 552.933C1980.32 555.619 1978.64 558.162 1976.63 560.513C1975.52 561.812 1973.51 561.535 1972.36 560.513C1970.18 558.574 1968.02 556.625 1965.86 554.674C1964.29 554.069 1962.71 553.342 1961.06 552.667C1955.91 550.553 1950.26 549.678 1945.49 546.624C1943.23 545.174 1941.1 543.324 1939.35 541.181C1936.04 539.267 1933.01 536.883 1930.28 534.15C1928.91 534.159 1927.49 533.838 1926.11 533.137C1920.34 530.192 1917.3 524.199 1917.03 518.067C1912.36 507.025 1909.6 495.246 1908.84 483.191C1908.59 479.233 1908.55 475.24 1908.85 471.282C1909.06 468.494 1909.76 466.632 1910.81 464.111C1911.17 463.289 1911.48 462.535 1911.73 461.704C1911.67 459.036 1911.64 456.369 1911.61 453.71C1910.89 451.467 1909.61 449.38 1907.83 447.622C1905.08 444.902 1903.82 439.255 1906.33 435.895C1907.96 433.721 1909.58 431.547 1911.21 429.374C1910.75 420.046 1908.53 405.202 1913.46 403.643C1913.26 402.257 1912.84 400.889 1912.6 399.512C1911.44 392.895 1912.13 386.98 1915.63 381.194C1916.37 379.991 1916.99 378.925 1917.5 377.886C1917.82 375.981 1918.14 374.075 1918.46 372.17C1918.95 369.234 1919.43 366.272 1919.85 363.293C1920.06 359.499 1920.26 355.706 1920.47 351.904C1920.67 348.405 1920.9 344.906 1921.13 341.399C1921.04 339.831 1920.9 338.263 1920.7 336.696C1919.52 327.351 1915.71 323.895 1909.12 317.4C1908.09 317.235 1907.06 317.054 1906.05 316.846C1901.35 315.867 1896.43 314.351 1891.59 314.897C1886.33 315.486 1881.63 317.764 1876.52 314.854C1875.02 313.988 1871.72 311.597 1871.43 309.701C1871.42 309.579 1871.39 309.475 1871.36 309.398C1871 309.346 1870.55 309.302 1870.26 309.294C1866.21 309.155 1862.33 310.757 1858.24 310.316C1853.4 309.796 1849.07 307.639 1846.22 304.444C1842.57 305.344 1838.85 305.751 1835.06 305.249C1831.88 304.833 1829.04 303.794 1826.22 302.253C1824.18 301.144 1824.83 300.823 1822.6 301.724C1817.54 303.785 1812.95 306.505 1807.25 305.093C1804.29 304.366 1801.74 302.763 1799.59 300.607C1799.08 300.105 1798.22 299.351 1797.64 298.641C1794.93 300.018 1788.11 303.127 1786.99 303.404C1783.82 304.184 1780.45 304.063 1777.36 303.023C1775.09 302.261 1772.32 300.183 1770.32 299.758C1767.74 299.204 1762.01 302.807 1758.93 304.045C1753.53 306.219 1747.81 306.756 1742.34 304.513C1740.46 303.742 1736.8 300.668 1735.4 300.694C1733.11 303.526 1726.73 319.02 1724.81 324.675C1717.05 347.539 1715.04 418.929 1718.62 437.142C1718.76 437.679 1718.91 438.207 1719.06 438.744C1723.46 454.585 1728.04 470.694 1735.4 485.451C1742.34 499.36 1751.95 511.884 1765.72 519.479C1780.01 527.36 1796.78 529.43 1812.85 528.365C1823.2 527.689 1833.37 525.602 1843.38 522.987C1848.6 521.627 1853.79 520.111 1858.95 518.535C1861.2 517.851 1863.49 517.21 1865.7 516.413C1869.6 515.001 1871.64 514.889 1875.38 516.699C1878.78 518.344 1879.65 523.203 1877.88 526.26C1875 531.249 1869.72 531.595 1864.62 533.05C1859.42 534.531 1854.21 535.952 1848.97 537.225C1838.92 539.65 1828.7 541.512 1818.4 542.369C1799.95 543.919 1780.94 541.529 1764.15 533.449C1762.26 532.531 1760.43 531.552 1758.66 530.495C1759.31 531.413 1759.98 532.331 1760.65 533.241C1762.51 535.761 1761.13 540.048 1758.52 541.425C1757.69 541.858 1756.86 542.274 1756.03 542.681C1755.91 542.949 1755.79 543.218 1755.66 543.486C1753.27 548.302 1748.26 551.142 1743.16 552.372C1737.11 553.827 1730.32 552.797 1724.16 552.615C1718.45 552.441 1712.74 552.268 1707.04 552.095C1705.69 552.06 1704.35 552.017 1703 551.974C1696.22 551.766 1689.45 551.567 1682.67 551.359C1676.63 551.177 1676.92 551.645 1671.25 549.22C1668.72 548.128 1666.65 546.587 1664.91 544.534C1663.82 544.049 1662.77 543.495 1661.76 542.863C1658.51 540.836 1655.63 538.117 1652.97 535.12C1648.46 536.549 1642.14 535.224 1641.26 529.534C1639.84 520.432 1628.06 516.543 1622.55 509.961C1618.11 504.652 1614.93 497.697 1615.1 491.02C1603.9 485.581 1597.81 471.248 1596.38 459.088C1595.72 453.45 1595.82 447.414 1594.87 441.68C1594.44 441.221 1594.06 440.736 1593.74 440.217C1590.93 435.653 1588.48 430.95 1586.32 426.134C1583.39 424.013 1579.86 422.705 1576.17 422.488C1567.09 421.96 1565.38 409.671 1574.04 406.709C1574.08 406.691 1574.12 406.683 1574.16 406.665C1571.81 400.776 1572.01 393.804 1574.86 388.227C1574.74 387.621 1574.62 387.023 1574.51 386.417C1569.65 381.177 1566.87 373.893 1567.18 366.8C1564.96 365.233 1562.48 364.02 1559.76 363.267C1555.56 362.106 1555.53 356.962 1558.64 354.658C1559.89 353.731 1560.92 352.649 1561.79 351.454C1559.64 344.976 1560.48 337.484 1564.88 332.166C1562.09 328.581 1559.3 324.995 1556.51 321.41C1554.67 319.037 1553.69 315.01 1556.51 312.758C1558.32 311.312 1560.12 309.874 1561.93 308.436Z" fill="black"/>
<path fill-rule="evenodd" clip-rule="evenodd" d="M1815.77 450.48C1811.16 442.555 1801.34 461.97 1800.29 465.308C1799.37 468.265 1798.76 471.294 1798.45 474.359C1794.87 475.196 1791.16 475.197 1787.5 474.464C1782.06 473.372 1778.74 470.314 1774.01 467.689C1770.74 465.874 1766.63 468.002 1764.93 471.011C1762.93 474.553 1764.2 478.229 1766.83 480.87C1771.81 485.877 1781.62 487.027 1788.12 485.698C1791.85 484.936 1795.26 483.475 1798.28 481.351C1798.3 481.748 1798.31 482.144 1798.34 482.54L1798.4 483.226C1798.9 488.779 1800.36 495.762 1804.49 499.376C1811.25 505.304 1819.6 493.904 1813.03 487.983L1812.83 487.805C1808.74 484.353 1807.85 475.09 1808.07 469.988C1808.21 466.658 1808.79 463.286 1809.8 460.114L1810 459.482C1810.31 458.587 1813.61 450.088 1814.8 451.17L1814.86 451.231C1815.35 451.845 1816.14 451.13 1815.77 450.48ZM1778.97 405.759C1772.75 409.712 1763.28 418.93 1769.97 428.731C1777.84 437.372 1789.18 427.464 1794.77 422.983C1799.95 419.51 1805.78 428.442 1800.97 432.497C1760.59 463.757 1744.2 406.793 1775.83 401.111C1779.31 400.485 1780.6 404.536 1778.97 405.759ZM1845.4 369.219C1839.32 368.092 1833.09 369.672 1828.06 373.391L1827.68 373.678C1822.83 377.383 1817.41 383.891 1820.19 390.278C1821.31 392.843 1824.65 393.245 1826.77 392.083C1830.3 390.147 1830.94 385.383 1834.09 382.747C1836.68 380.586 1840.16 379.275 1843.48 379.591C1851.3 380.333 1856.11 388.396 1858.54 395.344C1858.85 396.232 1860.1 396.578 1860.58 395.623C1866.31 384.434 1856.18 371.219 1845.4 369.219ZM1748.02 364.996C1736.38 363.993 1722.75 376.616 1725.81 389.467C1727.28 395.634 1736.03 395.457 1737.59 389.467C1738.44 386.171 1738.36 383.255 1740.63 380.518C1742.5 378.258 1745.16 376.945 1748.02 377.147C1751.17 377.369 1754.08 379.017 1756.29 381.333C1758.29 383.424 1759.48 386.484 1761.55 388.335C1762.06 388.79 1762.74 388.819 1763.24 388.335C1766.8 384.904 1764.67 377.763 1762.41 374.182C1759.18 369.057 1753.92 365.505 1748.02 364.996ZM1867.57 346.424C1860.1 339.51 1846.53 332.833 1836.45 336.236C1830.66 338.192 1828.14 347.949 1834.6 351.042C1842.09 354.623 1850.72 353.166 1858.34 356.878C1861.54 358.437 1864.55 360.386 1866.78 363.245C1868.54 365.498 1870.32 368.462 1872.86 369.761C1873.53 370.103 1874.43 370.112 1874.97 369.478C1880.53 362.896 1872.43 350.921 1867.57 346.424ZM1760.86 335.893C1756.24 334.538 1751.12 334.566 1746.43 335.417C1741.74 336.268 1736.98 338.3 1733.16 341.263L1732.71 341.61C1728.53 344.903 1723.55 349.693 1723.81 355.526C1724.04 360.396 1728.94 363.69 1733.17 361.138C1736.62 359.056 1738.24 354.886 1741.16 352.109C1743.57 349.817 1746.4 348.01 1749.42 346.744C1752.77 345.338 1756.13 344.679 1759.73 344.616C1762.5 344.568 1765.29 345.519 1768.01 345.823C1767.79 346.303 1769.94 346.079 1771.17 345.653C1772.08 345.247 1772.09 344.04 1771.77 343.257C1770.2 339.379 1764.49 336.958 1760.86 335.893Z" fill="black"/>
</svg>
