<svg width="1534" height="2330" viewBox="0 0 1534 2330" fill="none" xmlns="http://www.w3.org/2000/svg">
<path fill-rule="evenodd" clip-rule="evenodd" d="M1508.36 1914.95C1478.68 1872.71 1416.12 1865.71 1375.93 1836.11C1354.75 1819.88 1332.35 1809.13 1315.9 1787.27C1342.09 1756.48 1309.69 1684.32 1303.03 1642.64C1276.61 1533.53 1252.17 1422.68 1220.75 1313.69C1275.21 1330.65 1261.02 1229.13 1253.24 1205.66C1252.7 1202.43 1248.71 1201.78 1246.26 1200.77C1246.94 1196.16 1248.83 1195.15 1243.11 1193.87C1241.2 1166.25 1249.01 1135.32 1234.89 1110.92C1218.97 1084.29 1180.93 1062 1149.49 1061.64C1127.41 973.927 1123.37 932.558 1018.75 969.738C1021.06 961.195 1021.78 953.36 1017.75 944.73C1002.02 897.183 982.249 845.168 965.057 796.984C945.243 741.535 924.754 684.198 898.254 630.921C879.798 597.089 822.057 588.044 782.919 593.645C773.583 577.17 750.049 531.6 720.279 542.136C720.055 528.392 719.842 514.648 719.664 500.903C719.51 488.955 720.767 476.704 716.174 465.36C711.308 453.343 701.401 447.001 689.765 442.401C654.545 430.765 614.082 412.071 576.916 423.638C544.444 438.461 548.226 494.199 532.512 524.498C510.49 491.839 472.935 513.737 464.99 548.763C374.525 584.83 296.768 543.857 290.979 685.438C295.967 711.247 300.208 735.456 297.844 761.518L295.107 761.798C271.953 887.247 263.049 1021.72 268.646 1161.52C267.525 1216.57 247.47 1267.94 228.076 1317.61C213.811 1354.14 199.081 1391.9 192.098 1430.65C184.355 1462.93 155.892 1618.12 219.183 1566.6C221.608 1743.16 378.914 1765.76 520.569 1726.77C670.95 1695.5 840.24 1704.49 934.094 1553.21C965.933 1607.71 976.918 1641.36 984.91 1698.34C993.681 1740.09 1006.42 1787.5 1029.83 1815.11C1009.67 1851.41 999.797 1895.62 1000.77 1924.43C1001.15 1935.75 995.976 1940.99 1003.41 1948.03C1039.1 1981.78 1118.71 1982.16 1179.24 1997.18C1220.75 2002.47 1370.84 2022.68 1393.78 2009.5C1409.78 2013.98 1391.18 1972.34 1407.17 1971.45C1412.64 1971.49 1413.38 1964.52 1419 1964.78C1454.87 1966.41 1532.23 1976.96 1513.52 1948.03L1508.36 1914.95Z" fill="white"/>
<path fill-rule="evenodd" clip-rule="evenodd" d="M1499.45 1955.83C1473 1961.55 1445.8 1959.95 1419 1962.19C1419.86 1959.94 1420.59 1957.65 1421.16 1955.31C1448.85 1951.96 1477.89 1950.36 1504.29 1941.21C1504.92 1944.19 1505.38 1947.2 1505.57 1950.24C1505.59 1950.65 1505.54 1955.19 1506.19 1954.35C1505.38 1955.4 1500.65 1955.61 1499.45 1955.83M1365.82 1887.16C1317.68 1871.32 1266.62 1857.72 1229.51 1820.96C1229.59 1820.76 1229.66 1820.55 1229.73 1820.35C1237.37 1818.19 1245.77 1813.57 1253.12 1818.59C1276.66 1817.78 1301.24 1809.52 1317.73 1792.08C1318.85 1792.32 1319.94 1792.66 1321 1793.07C1352.72 1847.06 1420.3 1857.34 1469.79 1888.62C1489.85 1900.31 1527.22 1931.77 1479.41 1932.48C1460.54 1935.34 1441.56 1937.46 1422.53 1938.92C1421.06 1908.52 1390.97 1895.21 1365.82 1887.16M1399.47 1965.02C1389.89 1978.08 1372.61 1983.24 1356.98 1981.97C1345.48 1980.4 1335.33 1976.36 1323.37 1977.23C1232.69 1973.78 1143.53 1954.99 1055.11 1935.8C975.916 1920.94 1036.42 1862.44 1029.83 1815.11C1041 1821.93 1053.68 1826.91 1066.72 1830.57C1083.53 1877.37 1129.47 1865.14 1161.99 1842.72C1174.54 1842.32 1189.82 1844.24 1200.09 1835.9C1200.69 1836.4 1201.32 1836.81 1201.97 1837.17C1210.12 1832.37 1217.57 1827.34 1226.11 1823.64C1254.98 1872.47 1316.3 1883.62 1365.51 1902.47C1395.61 1910.59 1420.26 1933.87 1399.47 1965.02M1397.82 2006.86C1372.38 2014.47 1345.45 2013.15 1319.19 2011.01C1232.94 2003.53 1147.26 1988.82 1063.59 1966.56C1043.74 1961.28 1005.24 1955.15 1003.41 1930.23C1021.08 1953.41 1052.62 1956.14 1079.11 1962.12C1166.07 1979.18 1255.15 2001.2 1344.08 1996.96C1362.87 2002.31 1383.34 1998.08 1399.23 1987.67C1398.73 1994.06 1398.27 2000.46 1397.82 2006.86M927.571 1192.76C940.451 1158.57 954.42 1124.84 967.931 1090.86C993 1104.92 1021.3 1110.06 1050.2 1113.34C1050.88 1113.68 1051.6 1113.98 1052.38 1114.22C1053.75 1114.5 1054.9 1114.37 1055.82 1113.95C1094.36 1118.03 1133.67 1119.63 1167.57 1135.4C1180.69 1141.5 1193 1149.72 1204.14 1161.04C1216.33 1172.72 1226.15 1186.82 1232.74 1202.38C1234.8 1207.18 1235.89 1212.17 1239.14 1216.12C1240.12 1221.43 1241.23 1226.7 1241.98 1232.06C1243.88 1253.01 1246.47 1275.08 1238.39 1295.18C1233.38 1307.49 1223.11 1297.59 1216.3 1292.77C1205.22 1285.03 1195.02 1276.15 1184.85 1267.27C1153.61 1237.88 1117.1 1212.89 1073.28 1208.76C1025.97 1202.18 974.71 1193.96 927.571 1192.76M908.611 1192.83C906.011 1199.47 903.46 1206.13 900.951 1212.8C888.52 1210.67 862.061 1205.65 851.23 1199.93C855.09 1200.06 858.911 1198.05 859.891 1193.44C860.321 1191.4 861 1189.49 861.531 1187.5C868.061 1166.21 873.63 1144.49 882.851 1124.08C891.871 1102.53 902.601 1081.59 910.8 1059.72C924.701 1058.84 946.661 1076.1 956.59 1083.14C938.88 1118.87 923.15 1155.52 908.67 1192.67C908.4 1192.67 908.121 1192.67 907.851 1192.68C908.101 1192.73 908.361 1192.78 908.611 1192.83M826.721 1190.31C755.42 1185.85 683.161 1190.55 612.681 1177.9C599.321 1175.63 586.871 1171.53 575.31 1165.94C541.67 1149.68 515.531 1120.81 496.281 1087.76C426.741 983.01 350.221 878.96 315.991 756.23C295.71 696.83 291.761 608.04 362.65 582.48C394.09 570.74 432.06 571.46 459.121 550.16C456.06 561.42 454.34 573.2 452.761 583.63C450.101 600.64 447.48 618.24 449.641 635.44C449.661 635.59 449.681 635.74 449.71 635.88C446.161 645.56 457.33 654.7 468.29 653.75C491.411 653.22 502.75 625.42 525.92 624.57C534.38 624.26 539.431 629.31 544.611 635.32C557.15 649.89 569.431 664.74 584.58 676.68C585.661 677.53 587.101 676.5 586.491 675.2C578.84 658.85 568.111 644.37 557.471 629.84C535.411 594.59 505.721 610.81 480.621 632.24C475.73 635.79 470.761 638.67 465.73 637.41C466.06 636.2 466.15 634.8 465.94 633.24C464.071 619.44 465.9 604.89 467.8 591.2C472.141 565.65 470.851 532.33 495.48 516.86C506.23 510.78 519.23 510.01 529.69 516.91C527.77 521.62 525.48 526.92 525.15 531.9C523.05 530.42 521.63 530.88 521.25 534.09C529.4 558.13 542.741 580.22 554.06 602.89C562.9 619.9 571.79 636.89 580.861 653.78C583.54 659.01 585.8 664.55 591.02 667.45C591.031 667.5 591.04 667.55 591.05 667.6C594.58 679.25 594.58 691.77 597.3 703.62C598.971 710.86 600.891 718.14 602.94 725.38C604.88 732.17 606.931 738.93 609.011 745.58C633.77 831.39 657.221 917.6 681.361 1003.6C652.781 988.82 638.29 961.19 625.21 932.95C590.71 860.18 554.571 780.75 515.96 713.61C551.871 789.94 601.13 968.75 662.471 1013.2C671.83 1019.4 682.031 1024.07 692.681 1027.77C697.13 1031.8 701.791 1032.67 704.92 1031.6C724.201 1037.01 744.391 1040.12 763.34 1044.09C796.201 1050.99 829.071 1057.84 861.951 1064.66C873.071 1066.96 884.241 1070.04 895.601 1070.58C896.17 1070.61 896.721 1070.59 897.23 1070.52C872.201 1099.3 855.351 1138.59 845.721 1175.42C837.88 1173.16 828.991 1181.53 826.721 1190.31M544.511 1193.48C488.9 1276.95 401.75 1328.73 329.98 1396.11C286.98 1441.42 252.69 1494.03 213.471 1542.51C212.261 1544.01 211.04 1545.51 209.821 1547C206.8 1550.72 202.601 1554.81 200.17 1558.42C200.101 1558.53 200.031 1558.63 199.971 1558.71C194.29 1546.84 197.4 1531.66 197.19 1518.13C198.06 1494.95 201.09 1471.97 205.641 1449.25C220.5 1358.03 271.661 1276.84 282.79 1185.1C282.42 1087.53 277.571 989.68 285.79 892.14C288.79 847.62 291.94 803.08 296.4 758.67C327.201 873.12 417.141 996.58 468.201 1075.62C488.8 1105.83 507.241 1138.79 536.25 1161.9C543.261 1167.44 550.661 1172.2 558.361 1176.3C553.15 1181.47 548.69 1187.36 544.511 1193.48M726.661 747.13C734.321 745.12 751.23 743.11 760.02 737.33C764.568 752.925 769.487 768.4 774.677 783.785C762.081 780.062 748.448 781.807 735.473 783.224C718.567 785.07 701.684 787.078 684.808 789.181C669.35 791.106 653.901 793.105 638.459 795.16C632.951 775.404 627.404 755.66 621.77 735.94C653.98 750.87 692.181 752.95 726.661 747.13M744.19 598.51C744.161 597.2 743.851 595.83 743.17 594.42C743.071 594.22 742.98 594.02 742.88 593.82C740.25 584.43 737.581 575.05 734.861 565.68C734.451 564.1 731.951 564.41 732 566.07C731.98 567.23 731.971 568.38 731.96 569.54C731.781 569.06 731.611 568.58 731.44 568.09C728.071 558.32 725.601 548.26 723.971 538.04C752.831 543.99 776.601 606.99 790.031 652.03C778.991 648.59 764.511 647.81 760.221 656.96C754.9 637.47 749.621 617.97 744.19 598.51M699.414 971.562C706.607 971.091 713.802 970.643 720.993 970.144C735.708 969.123 750.419 968.059 765.132 967.017C768.661 966.767 772.19 966.509 775.719 966.249C785.711 965.699 795.704 965.145 805.697 964.612C816.745 964.024 827.922 963.021 839.053 962.612C841.148 962.566 843.244 962.532 845.339 962.51C845.752 963.35 846.179 964.175 846.641 964.96C831.971 969.02 818.571 973.72 807.831 978.46C783.431 989.15 759.971 1003.22 739.931 1020.91C736.221 1020.14 732.511 1019.36 728.8 1018.57C718.621 1016.37 708.311 1014.02 698.38 1010.67C695.84 1004.44 695.011 997.12 692.851 990.98C691.138 984.827 689.425 978.672 687.712 972.518C691.625 972.452 695.627 971.809 699.414 971.562M675.134 921.238C675.266 921.224 675.397 921.208 675.528 921.193C675.544 921.193 675.561 921.192 675.577 921.192C677.183 921.141 678.788 921.079 680.393 921.004C683.602 920.855 686.81 920.663 690.015 920.435C696.433 919.978 702.838 919.368 709.234 918.67C722.047 917.27 734.819 915.52 747.604 913.892C755.137 912.932 762.644 912.106 770.145 911.403C787.683 910.239 805.274 909.347 822.793 909.1C828.4 922.45 834.091 935.76 839.831 949.04C840.372 950.279 840.898 951.627 841.432 953.026C815.678 952.535 789.814 954.978 764.151 956.514C749.765 957.375 735.377 958.212 720.993 959.097C713.798 959.539 706.606 960.029 699.414 960.499C694.612 960.812 689.451 960.605 684.649 961.512C683.633 957.861 682.617 954.21 681.601 950.56C678.939 941.1 676.307 931.631 673.669 922.164C674.184 921.916 674.678 921.61 675.134 921.238M653.218 848.393C649.09 833.458 644.959 818.523 640.806 803.595C641.586 803.487 642.366 803.379 643.145 803.271C646.061 802.869 648.978 802.47 651.895 802.072C658.321 801.197 664.748 800.333 671.177 799.481C676.16 798.821 681.144 798.172 686.129 797.525C691.633 797.06 697.139 796.617 702.647 796.21C727.554 794.373 752.657 792.669 777.647 792.528C782.894 807.732 788.419 822.843 794.146 837.88C772.893 839.174 751.662 840.887 730.438 842.592C718.229 843.573 706.023 844.591 693.821 845.645C687.884 846.158 681.949 846.68 676.014 847.21C672.717 847.504 669.42 847.802 666.123 848.102C664.219 848.275 661.733 848.922 659.591 848.936C659.313 848.716 659.023 848.503 658.715 848.29C657.153 847.213 654.851 847.402 653.218 848.393M658.188 860.998C672.205 859.289 686.191 857.449 700.198 855.745C707.967 854.99 715.737 854.245 723.509 853.52C748.205 851.215 772.929 849.218 797.626 846.944C804.327 864.257 811.287 881.473 818.411 898.617C788.168 896.622 757.372 901.702 727.468 905.218C711.505 907.095 695.499 908.788 679.43 909.387C676.886 909.481 673.33 909.349 670.279 910.025C666.127 895.083 661.991 880.136 657.86 865.187C657.921 863.797 658.029 862.402 658.188 860.998M906.48 1060.74C905.42 1061.75 904.38 1062.79 903.351 1063.86C903.371 1063.52 903.38 1063.19 903.371 1062.85C903.391 1062.84 903.411 1062.83 903.42 1062.82C904.34 1061.92 905.361 1061.23 906.48 1060.74M887.77 632.95C918.861 708.37 945.71 785.92 974.831 862.26C984.17 888.18 993.371 914.15 1002.07 940.3C1005.37 948.94 1006.58 958.64 1013.36 965.43C1013.64 965.71 1013.95 965.97 1014.28 966.19C1005.17 970.015 996.943 974.267 990.315 978.566C993.363 988.902 997.043 999.047 1001.44 1008.84C1003.01 1012.33 997.838 1015.38 996.259 1011.86C990.671 999.422 986.162 986.478 982.629 973.276C978.229 967.343 973.138 962.021 966.541 958.7C953.811 954.07 937.761 952.47 920.46 952.99C920.181 952.49 919.811 952.01 919.361 951.56C913.63 946.04 911.361 937.26 908.511 929.95C900.221 908.62 893.17 886.79 887.38 864.64C881.681 842.71 878.15 820.26 872.23 798.38C871.031 794.55 867.3 776.05 863.821 777.07C863.891 777.49 863.951 777.9 864.011 778.32C863.831 778.2 863.63 778.15 863.431 778.16C862.031 823.42 873.861 869.01 887.411 912.02C891.161 926.35 899.681 939.76 902.411 954.22C890.541 955.45 878.44 957.47 866.71 960.02C866.541 959.07 866.3 958.13 866.02 957.18C865.861 955.86 865.46 954.82 864.88 954.03C863.4 950.41 861.44 946.88 859.991 943.62C857.011 936.88 854.05 930.14 851.121 923.37C835.17 886.35 820.071 848.93 806.75 810.87C790.321 764.72 776.891 717.68 763.931 670.51C772.611 675.16 789.3 665.87 799.531 687.1C801.741 692.45 806.65 696.27 812.741 694.6C818.081 693.13 822.121 686.9 820.241 681.39C819.971 680.49 819.681 679.6 819.351 678.73C809.38 649.16 801.311 618.81 786.931 590.98C823.84 594.71 867.5 597.36 887.77 632.95M1231.57 1127.24C1234.76 1142.33 1232.71 1158.2 1231.85 1173.56C1217.26 1154.17 1198.77 1137.62 1177.14 1126.6C1175.7 1116.9 1169.59 1108.45 1166.77 1099.03C1161.56 1085.74 1157.34 1072.16 1153.54 1058.45C1188.81 1065.8 1223.14 1091.42 1231.57 1127.24M1103.69 1242.83C1115.67 1307.46 1134.69 1370.45 1148.62 1434.64C1149.44 1438.41 1143.65 1440.01 1142.84 1436.24C1128.9 1372.05 1109.88 1309.05 1097.91 1244.43C1097.21 1240.65 1102.99 1239.04 1103.69 1242.83M1097.55 1836.96C1107.11 1838.3 1116.64 1839.47 1126.26 1840.49C1107.12 1848.5 1089.27 1846.54 1073.7 1832.39C1081.67 1834.33 1089.7 1835.81 1097.55 1836.96M1519.28 1932.19C1518.75 1929.62 1517.33 1927.96 1515.54 1927.06C1515.82 1873.28 1402.77 1855.8 1368.52 1821.55C1352.85 1810.47 1341.44 1792.17 1323.24 1785.31C1333.54 1769.38 1330.78 1748.87 1328.49 1730.96C1323.49 1698.29 1310.93 1661.78 1307.65 1641.58C1282.87 1537.77 1258.84 1433.71 1230.8 1330.72C1230.23 1328.75 1229.17 1324.85 1227.84 1320.54C1230.86 1321.27 1233.75 1321.51 1236.46 1321.16C1275.79 1312.44 1266.96 1232.88 1257.72 1204.05C1256.73 1200.65 1254.42 1198.5 1251.71 1197.49C1252.06 1195.73 1251.74 1193.86 1250.49 1192.07C1249.82 1191.11 1248.79 1190.42 1247.67 1190.07C1246.48 1162.71 1253.31 1133.3 1238.91 1108.3C1222.73 1080.96 1184.13 1058.34 1153.07 1056.75C1148.62 1040.63 1144.72 1024.35 1140.42 1008.2C1135.7 991.29 1128.98 973.12 1114.85 961.78C1096.57 945.52 1057.55 950.48 1025.18 961.97C1026.95 953.5 1022.92 945.84 1020.45 937.9C1012.4 914.14 1004.11 890.46 995.65 866.85C965.281 787.25 940.34 704.74 902.351 628.42C886.621 602.55 856.371 590.89 827.331 588.49C813.71 587.12 799.221 586.59 785.471 588.2C785.031 587.36 784.581 586.53 784.121 585.7C772.851 566.17 749.98 529.81 723.661 536.05C720.88 517.48 720.84 498.45 723.13 479.87C723.291 478.55 721.13 477.98 720.59 479.18C703.15 518.3 706.391 566.44 727.67 603.48C729.23 606.05 731.351 607.38 733.55 607.76C736.94 646.65 745.411 685.03 755.861 722.7C754.291 722.76 752.781 723.09 751.52 723.65C718.181 735.86 681.52 737.85 646.821 730.72C637.05 728.66 627.59 725.89 618.08 723.07C616.281 716.83 614.48 710.61 612.67 704.38C608.13 684.7 606.971 665.79 595.451 649.94C594.77 648.77 594.071 647.61 593.4 646.45C584.15 629.67 574.75 612.98 565.281 596.33C562.98 593.6 547.601 563.29 535.63 544.96C537.13 544.92 538.681 544.54 540.19 543.78C548.63 539.57 548.54 527.36 550.08 519.17C554.8 493.72 560.261 468.23 561.761 442.34C561.84 441.02 559.821 440.46 559.23 441.66C547.721 464.48 539.741 488.9 531.221 512.95C531.05 513.43 530.871 513.92 530.681 514.42C522.781 504.46 508.911 502.09 496.83 504.77C476.641 510.04 466.46 526.45 460.59 545.11C402.54 572.82 333.46 544.52 298.23 617.83C282.361 656.14 282.661 699.58 292.94 744.79C266.17 881.84 257.79 1022.04 263.361 1161.49C261.38 1255.82 203.52 1337.66 186.94 1429.46C178.67 1465.64 173.48 1502.73 174.121 1539.9C172.851 1559.54 181.511 1588.54 206.67 1580.9C209.54 1579.87 212.141 1578.29 214.54 1576.38C225.05 1735.42 347.611 1766.18 488.871 1738.79C494.59 1738.89 500.21 1737.57 506.221 1735.88C509.141 1735.01 512.04 1734.1 514.94 1733.14C517.121 1732.62 519.31 1732.09 521.5 1731.54C523.123 1731.21 524.75 1730.9 526.376 1730.57C566.652 1703.94 608.487 1679.69 648.28 1652.3C651.085 1650.37 654.521 1654.86 651.915 1657.02C625.333 1679 599.312 1701.94 571.653 1722.61C650.455 1710.08 730.643 1712.22 804.221 1679.75C855.851 1657.16 904.44 1611.89 933.701 1563.05C934.143 1563.83 934.574 1564.61 935.012 1565.38C933.59 1561.34 932.17 1557.3 930.765 1553.25C905.822 1481.42 883.254 1408.75 855.989 1337.74C854.601 1334.13 860.404 1332.58 861.774 1336.14C869.418 1356.05 876.705 1376.1 883.766 1396.22C909.037 1468.24 931.626 1541.19 958.542 1612.62C958.697 1613.03 958.749 1613.42 958.736 1613.77C964.357 1627.63 968.955 1641.75 972.141 1656.23C975.444 1671.38 980.274 1703.73 985.053 1730.96C989.238 1753.42 992.286 1779.46 1007.88 1796.7C1007.86 1796.74 1007.84 1796.77 1007.83 1796.81H1007.83C1007.28 1797.88 1006.75 1798.94 1006.24 1800C1007.34 1801.1 1008.75 1801.82 1010.04 1802.64C1010.24 1801.7 1010.44 1800.76 1010.66 1799.8C1014.45 1803.83 1018.66 1807.44 1023.18 1810.71C1018.09 1848.42 980.101 1884.95 999.77 1924.43C990.395 1946.01 1013.4 1963.57 1032.34 1968.02C1061.37 1977.31 1091.33 1984.29 1121.06 1990.91C1179.93 2001.89 1364.15 2042.46 1408.25 2010.88C1407.62 2004.14 1415.91 1982.24 1406.13 1981.92C1410.46 1977.63 1414.06 1972.63 1416.78 1967.2C1443.77 1975.98 1473.76 1972.83 1501.24 1969.59C1523.47 1970.07 1522.65 1948.42 1519.28 1932.19" fill="black"/>
<path fill-rule="evenodd" clip-rule="evenodd" d="M667.576 38.9776C724.357 38.9776 795.473 103.748 816.286 131.311C833.785 154.484 831.31 273.865 831.31 344.682C831.31 359.493 824.615 387.525 822.184 401.692C813.278 453.607 774.475 497.146 697.677 497.146C635.144 497.146 587.022 477.339 540.487 426.68C529.87 415.123 478.022 456.498 467.418 441.598C439.721 441.598 416.562 182.82 470.941 105.201C525.32 27.5832 610.796 38.9776 667.576 38.9776Z" fill="white"/>
<path fill-rule="evenodd" clip-rule="evenodd" d="M496.917 57.2046C529.727 27.3546 573.437 12.9946 617.537 14.0546C640.377 14.6046 663.137 18.9546 684.707 26.4046C695.497 30.1446 705.947 35.0246 715.937 40.5446C719.537 42.5293 722.856 44.8547 726.05 47.3243L726.847 47.9446H726.857C735.427 51.0246 743.077 56.5546 750.017 63.0246C763.927 61.9146 777.947 63.1646 791.397 67.4546C810.117 73.4346 827.447 84.3846 839.617 99.9346C853.793 118.038 858.505 139.997 856.824 162.665L856.513 166.516C854.85 186.541 851.872 212.297 835.437 225.455C834.187 226.455 832.807 227.215 831.377 227.675C841.967 245.815 850.657 265.955 855.857 286.295C875.707 363.985 860.447 445.005 836.577 519.885C834.617 526.055 825.287 530.155 820.537 524.125C812.057 513.345 799.737 505.125 785.877 503.585C777.327 502.635 768.817 504.355 760.737 500.475C757.567 498.945 754.507 496.445 752.307 493.405C738.667 498.575 723.977 501.015 709.407 500.415C685.497 499.435 659.937 491.155 643.487 472.995C640.847 470.08 640.178 466.807 640.786 463.857C642.849 463.121 644.967 462.573 647.149 462.23C668.009 474.524 691.003 482.739 715.715 483.255C729.994 483.553 743.922 481.556 755.5 472.64C758.005 470.71 760.309 468.573 762.439 466.277C786.646 450.705 803.713 424.256 811.827 395.925C819.387 369.505 818.457 341.995 815.857 314.895L814.485 300.594C812.486 279.605 810.631 258.553 810.111 237.475L810.268 237.467V237.467C815.38 237.137 815.417 229.134 810.268 229.467C796.949 230.329 783.731 228.144 770.453 229.096C770.342 222.819 769.89 216.57 768.045 210.516C766.992 207.057 760.969 206.375 760.331 210.516C759.477 216.056 759.165 221.565 759.072 227.13C739.201 226.866 719.349 225.194 699.475 225.881C695.809 221.971 694.642 215.038 692.927 210.215C692.677 209.505 692.427 208.805 692.167 208.095C690.66 214.987 688.524 221.728 685.714 228.327L680.84 228.343C653.185 228.473 624.967 229.299 597.963 235.043C596.086 233.602 594.969 231.088 594.667 228.805C592.708 213.949 589.912 199.488 584.958 185.331L584.249 183.334C584.191 183.168 584.13 182.992 584.066 182.807C580.415 188.7 576.059 194.193 571.308 199.308C568.508 202.323 565.572 205.206 562.559 208.007C559.632 211.257 556.607 214.458 553.675 217.718C553.79 218.311 553.89 218.913 553.971 219.526C554.868 226.291 554.961 233.152 554.304 239.943C553.116 252.22 549.65 264.05 544.082 274.994L543.906 276.089C543.06 281.218 541.857 286.519 539.048 290.381C542.554 294.309 545.255 299.001 546.821 304.214C548.215 308.855 541.794 312.877 538.464 309.079C535.819 306.062 532.88 303.565 529.652 301.573C529.448 301.85 529.08 301.986 528.667 301.755C519.677 296.765 504.407 298.275 495.427 302.975C484.257 308.815 479.897 320.805 481.137 332.955C482.327 344.565 487.407 358.135 497.257 364.085C501.777 366.815 505.297 367.045 510.097 365.735C511.631 365.318 513.534 364.039 514.351 363.404L515.155 362.76C518.301 360.273 521.232 358.57 524.947 358.505C528.746 357.32 532.564 358.963 534.017 362.947L534.107 363.205C534.787 365.235 536.027 367.785 535.757 370.885C535.477 374.205 533.957 377.225 531.687 379.655C531.297 380.075 530.877 380.495 530.447 380.885C569.547 423.215 574.567 489.175 554.517 542.055C553.647 544.375 552.717 546.665 551.747 548.935C548.397 556.715 535.497 554.305 533.857 546.595C533.367 544.285 532.827 541.985 532.237 539.705C531.152 535.491 529.91 531.317 528.509 527.204L527.977 525.665C526.787 522.265 525.677 518.835 524.477 515.435L524.357 515.046C524.312 514.892 524.262 514.715 524.207 514.515L522.177 518.945V518.945L516.007 532.315C513.12 538.554 503.946 535.163 503.605 529.151L503.597 528.945C503.567 527.835 503.527 526.735 503.457 525.645C503.017 517.475 501.607 509.535 499.367 501.765L498.559 502.769C486.525 517.647 472.401 531.592 453.027 535.025C448.167 535.885 442.667 530.805 446.007 525.895C447.387 523.865 448.717 521.785 449.977 519.675C448.887 519.165 447.857 518.635 446.907 518.095C439.557 513.965 433.437 508.085 428.377 501.415C417.647 487.275 413.807 469.475 412.867 452.055C411.867 433.645 413.487 414.235 418.517 396.475C420.697 388.795 423.647 381.425 427.057 374.275C426.817 373.635 426.587 372.995 426.357 372.355C422.677 362.095 419.657 351.605 417.147 340.995C412.087 319.575 409.367 297.475 409.037 275.465C408.437 236.035 415.237 195.975 429.567 159.205C444.367 121.285 466.627 84.7546 496.917 57.2046ZM478.487 401.945C475.769 397.666 468.969 401.522 471.493 405.831L471.587 405.985C475.897 412.775 477.917 420.495 480.397 428.065C481.987 432.935 489.717 430.855 488.107 425.935L487.574 424.292C485.106 416.615 482.855 408.814 478.487 401.945ZM502.157 320.265L503.962 319.391C509.657 316.673 514.648 314.822 521.377 317.195C530.387 320.365 540.037 330.455 533.947 340.245C531.707 343.855 527.727 345.295 523.627 344.445C516.715 343.011 514.931 336.787 511.423 331.677L510.82 330.812C508.681 327.72 505.977 323.446 502.417 322.235C501.607 321.955 501.267 320.695 502.157 320.265ZM507.235 112.406L507.817 111.885C511.687 108.465 506.007 102.825 502.157 106.225C484.537 121.795 478.417 146.165 469.277 166.935C467.227 171.605 474.117 175.685 476.187 170.975C484.905 151.155 490.693 127.447 507.235 112.406V112.406ZM718.977 105.595C714.373 103.52 710.345 110.22 714.771 112.426L714.937 112.505C730.497 119.535 737.117 135.455 743.457 150.235C745.477 154.955 752.367 150.885 750.367 146.205L749.223 143.553C742.607 128.321 734.891 112.796 718.977 105.595ZM743.367 95.9746C738.487 94.2846 736.397 102.005 741.237 103.695C754.427 108.285 763.477 118.185 771.107 129.505C773.967 133.745 780.897 129.745 778.007 125.465C769.147 112.325 758.627 101.295 743.367 95.9746Z" fill="black"/>
<path fill-rule="evenodd" clip-rule="evenodd" d="M732.944 397.352C734.478 394.685 738.01 392.214 741.242 392.593C755.721 394.291 755.696 411.845 750.105 422.093C745.148 431.18 734.889 436.514 724.621 435.735C713.834 434.916 704.643 428.574 700.598 418.483C697.923 411.808 696.687 399.485 703.803 395C703.935 394.916 704.153 394.937 704.258 395.058C707.67 399.027 707.804 404.986 710.791 409.405C713.569 413.515 717.885 416.909 722.941 417.433C726.717 417.825 730.537 416.463 732.014 413.073C732.813 411.239 732.722 410.244 732.422 408.982L732.149 407.885C731.203 404.044 730.778 401.119 732.944 397.352ZM736.814 320.367C744.366 324.957 755.872 335.66 747.748 347.04C738.186 357.073 724.419 345.569 717.634 340.366C711.343 336.334 704.275 346.705 710.112 351.413C759.136 387.708 779.031 321.568 740.634 314.971C736.406 314.244 734.836 318.947 736.814 320.367ZM657.072 288.893C661.707 281.939 672.287 282.963 674.84 291.215C676.223 295.685 674.313 299.703 674.412 304.167C674.495 307.938 674.248 312.14 673.092 315.792C670.456 324.12 662.966 330.002 654.105 329.758C645.273 329.515 637.494 323.925 633.795 316.052C630.083 308.149 630.869 299.97 633.579 291.934C633.709 291.548 634.215 291.361 634.52 291.686C637.723 295.09 640.068 298.684 642.494 302.496L644.981 306.403C646.881 309.345 649.643 313.103 653.191 312.867L653.724 312.815C654.71 312.73 654.559 312.926 655.32 311.582C655.672 310.96 655.608 309.804 655.778 309.07L655.837 308.822V308.822L655.804 308.688C655.729 308.333 655.655 307.663 655.594 306.5L655.582 306.244C655.325 300.807 653.788 293.82 657.072 288.893ZM774.563 293.522C773.732 284.628 786.236 282.653 790.393 289.234C792.561 292.666 793.193 296.977 793.672 301.062L793.896 303C794.388 307.195 794.583 311.559 792.762 315.472C789.894 321.635 783.657 324.893 776.929 324.377C770.504 323.883 764.642 320.158 761.552 314.503C758.797 309.457 756.058 299.605 759.404 294.342C759.606 294.023 760.01 293.982 760.287 294.228C763.449 297.035 763.964 302.155 765.844 305.812C767.783 309.584 770.724 313.26 775.181 313.833C779.445 314.381 781.074 312.052 779.986 307.987C778.583 302.739 775.091 299.169 774.563 293.522ZM660.449 236.016L662.494 235.233C669.5 232.586 679.119 229.527 684.815 235.224C688.329 238.737 688.998 243.912 686.49 248.199C683.451 253.392 678 253.52 672.736 254.285C666.749 255.155 660.66 256.809 655.086 259.167C648.807 261.824 642.98 265.136 637.271 268.835C631.845 272.35 626.438 278.095 619.943 279.178C619.678 279.222 619.377 279.108 619.308 278.817C617.833 272.467 621.932 266.218 625.59 261.264C630.016 255.266 635.379 250.343 641.373 245.929C647.158 241.668 653.768 238.589 660.449 236.016ZM787.716 258.593L788.341 258.483C792.589 257.776 796.439 257.939 799.641 261.304C802.085 263.871 803.027 267.198 801.862 270.592C800.787 273.723 798.383 276.904 794.894 277.56C783.115 279.776 770.068 279.41 758.23 277.732C752.814 276.963 747.349 276.024 742.074 274.542L739.647 273.838C735.242 272.58 730.2 271.266 727.001 268.027C725.851 266.863 726.514 265.197 727.89 264.658C733.472 262.472 741.123 263.635 747.075 263.464C753.999 263.266 760.934 262.747 767.825 262.032C774.559 261.332 781.075 259.811 787.716 258.593Z" fill="black"/>
<path fill-rule="evenodd" clip-rule="evenodd" d="M841.09 311.283C831.556 375.772 765.002 382.904 753.177 318.882C755.075 318.051 756.44 316.415 756.155 313.239C756.088 299.287 760.419 284.541 773.005 276.782C786.011 268.776 801.232 267.982 816.283 268.184C845.005 267.5 844.401 291.507 841.09 311.283M742.758 283.236C733.744 282.856 722.34 283.174 714.265 288.666C712.045 282.688 706.277 276.305 700.449 272.892C722.111 273.526 744.409 271.394 766.233 269.739C761.009 273.3 756.149 278.65 752.99 284.835C750.059 283.272 745.861 283.418 742.758 283.236M703.026 318.12C678.031 404.156 615.64 366.656 608.838 355.63C596.569 337.384 594.261 293.03 604.948 281.171C620.246 270.447 641.903 273.207 659.975 272.944C693.176 273.392 716.756 283.324 703.026 318.12M870.603 278.549C863.812 277.661 856.555 277.482 850.241 280.472C848.297 272.209 842.194 265.301 835.303 262.261C834.469 261.215 834.594 260.653 831.745 260.81C814.25 255.552 794.673 258.334 777.861 263.726C751.309 265.962 723.452 267.725 696.677 270.806C671.595 259.542 595.902 257.891 591.198 285.654C585.281 284.769 575.204 280.112 570.232 286.429C533.761 280.246 496.076 288.839 459.447 292.666C450.227 294.364 445.478 312.662 455.944 312.412C461.828 310.815 455.763 301.018 463.686 300.281C499.027 296.421 533.595 290.945 569.298 290.304C568.056 296.469 592.912 296.87 593.279 293.27C593.332 293.297 593.388 293.315 593.442 293.339C587.3 316.229 592.844 349.171 603.944 363.365C619.496 381.951 658.541 387.283 675.854 375.325C698.187 364.288 721.42 308.886 714.894 290.48C726.738 286.726 738.447 287.853 750.739 289.765C747.925 297.714 743.067 317.282 750.056 318.979C748.773 357.829 784.13 382.07 816.724 366.133C844.935 352.89 854.801 310.972 851.349 285.529C854.861 292.315 884.349 284.927 870.603 278.549" fill="black"/>
</svg>
