<svg width="1534" height="2330" viewBox="0 0 1534 2330" fill="none" xmlns="http://www.w3.org/2000/svg">
<path fill-rule="evenodd" clip-rule="evenodd" d="M1508.36 1914.95C1478.68 1872.71 1416.12 1865.71 1375.93 1836.11C1354.75 1819.88 1332.35 1809.13 1315.9 1787.27C1342.09 1756.48 1309.69 1684.32 1303.03 1642.64C1276.61 1533.53 1252.17 1422.68 1220.75 1313.69C1275.21 1330.65 1261.02 1229.13 1253.24 1205.66C1252.7 1202.43 1248.71 1201.78 1246.26 1200.77C1246.94 1196.16 1248.83 1195.15 1243.11 1193.87C1241.2 1166.25 1249.01 1135.32 1234.89 1110.92C1218.97 1084.29 1180.93 1062 1149.49 1061.64C1127.41 973.927 1123.37 932.558 1018.75 969.738C1021.06 961.195 1021.78 953.36 1017.75 944.73C1002.02 897.183 982.249 845.168 965.057 796.984C945.243 741.535 924.754 684.198 898.254 630.921C879.798 597.089 822.057 588.044 782.919 593.645C773.583 577.17 750.049 531.6 720.279 542.136C720.055 528.392 719.842 514.648 719.664 500.903C719.51 488.955 720.767 476.704 716.174 465.36C711.308 453.343 701.401 447.001 689.765 442.401C654.545 430.765 614.082 412.071 576.916 423.638C544.444 438.461 548.226 494.199 532.512 524.498C510.49 491.839 472.935 513.737 464.99 548.763C374.525 584.83 296.768 543.857 290.979 685.438C295.967 711.247 300.208 735.456 297.844 761.518L295.107 761.798C271.953 887.247 263.049 1021.72 268.646 1161.52C267.525 1216.57 247.47 1267.94 228.076 1317.61C213.811 1354.14 199.081 1391.9 192.098 1430.65C184.355 1462.93 155.892 1618.12 219.183 1566.6C221.608 1743.16 378.914 1765.76 520.569 1726.77C670.95 1695.5 840.24 1704.49 934.094 1553.21C965.933 1607.71 976.918 1641.36 984.91 1698.34C993.681 1740.09 1006.42 1787.5 1029.83 1815.11C1009.67 1851.41 999.797 1895.62 1000.77 1924.43C1001.15 1935.75 995.976 1940.99 1003.41 1948.03C1039.1 1981.78 1118.71 1982.16 1179.24 1997.18C1220.75 2002.47 1370.84 2022.68 1393.78 2009.5C1409.78 2013.98 1391.18 1972.34 1407.17 1971.45C1412.64 1971.49 1413.38 1964.52 1419 1964.78C1454.87 1966.41 1532.23 1976.96 1513.52 1948.03L1508.36 1914.95Z" fill="white"/>
<path fill-rule="evenodd" clip-rule="evenodd" d="M1499.45 1955.83C1473 1961.55 1445.8 1959.95 1419 1962.19C1419.86 1959.94 1420.59 1957.65 1421.16 1955.31C1448.85 1951.96 1477.89 1950.36 1504.29 1941.21C1504.92 1944.19 1505.38 1947.2 1505.57 1950.24C1505.59 1950.65 1505.54 1955.19 1506.19 1954.35C1505.38 1955.4 1500.65 1955.61 1499.45 1955.83M1365.82 1887.16C1317.68 1871.32 1266.62 1857.72 1229.51 1820.96C1229.59 1820.76 1229.66 1820.55 1229.73 1820.35C1237.37 1818.19 1245.77 1813.57 1253.12 1818.59C1276.66 1817.78 1301.24 1809.52 1317.73 1792.08C1318.85 1792.32 1319.94 1792.66 1321 1793.07C1352.72 1847.06 1420.3 1857.34 1469.79 1888.62C1489.85 1900.31 1527.22 1931.77 1479.41 1932.48C1460.54 1935.34 1441.56 1937.46 1422.53 1938.92C1421.06 1908.52 1390.97 1895.21 1365.82 1887.16M1399.47 1965.02C1389.89 1978.08 1372.61 1983.24 1356.98 1981.97C1345.48 1980.4 1335.33 1976.36 1323.37 1977.23C1232.69 1973.78 1143.53 1954.99 1055.11 1935.8C975.916 1920.94 1036.42 1862.44 1029.83 1815.11C1041 1821.93 1053.68 1826.91 1066.72 1830.57C1083.53 1877.37 1129.47 1865.14 1161.99 1842.72C1174.54 1842.32 1189.82 1844.24 1200.09 1835.9C1200.69 1836.4 1201.32 1836.81 1201.97 1837.17C1210.12 1832.37 1217.57 1827.34 1226.11 1823.64C1254.98 1872.47 1316.3 1883.62 1365.51 1902.47C1395.61 1910.59 1420.26 1933.87 1399.47 1965.02M1397.82 2006.86C1372.38 2014.47 1345.45 2013.15 1319.19 2011.01C1232.94 2003.53 1147.26 1988.82 1063.59 1966.56C1043.74 1961.28 1005.24 1955.15 1003.41 1930.23C1021.08 1953.41 1052.62 1956.14 1079.11 1962.12C1166.07 1979.18 1255.15 2001.2 1344.08 1996.96C1362.87 2002.31 1383.34 1998.08 1399.23 1987.67C1398.73 1994.06 1398.27 2000.46 1397.82 2006.86M927.571 1192.76C940.451 1158.57 954.42 1124.84 967.931 1090.86C993 1104.92 1021.3 1110.06 1050.2 1113.34C1050.88 1113.68 1051.6 1113.98 1052.38 1114.22C1053.75 1114.5 1054.9 1114.37 1055.82 1113.95C1094.36 1118.03 1133.67 1119.63 1167.57 1135.4C1180.69 1141.5 1193 1149.72 1204.14 1161.04C1216.33 1172.72 1226.15 1186.82 1232.74 1202.38C1234.8 1207.18 1235.89 1212.17 1239.14 1216.12C1240.12 1221.43 1241.23 1226.7 1241.98 1232.06C1243.88 1253.01 1246.47 1275.08 1238.39 1295.18C1233.38 1307.49 1223.11 1297.59 1216.3 1292.77C1205.22 1285.03 1195.02 1276.15 1184.85 1267.27C1153.61 1237.88 1117.1 1212.89 1073.28 1208.76C1025.97 1202.18 974.71 1193.96 927.571 1192.76M908.611 1192.83C906.011 1199.47 903.46 1206.13 900.951 1212.8C888.52 1210.67 862.061 1205.65 851.23 1199.93C855.09 1200.06 858.911 1198.05 859.891 1193.44C860.321 1191.4 861 1189.49 861.531 1187.5C868.061 1166.21 873.63 1144.49 882.851 1124.08C891.871 1102.53 902.601 1081.59 910.8 1059.72C924.701 1058.84 946.661 1076.1 956.59 1083.14C938.88 1118.87 923.15 1155.52 908.67 1192.67C908.4 1192.67 908.121 1192.67 907.851 1192.68C908.101 1192.73 908.361 1192.78 908.611 1192.83M826.721 1190.31C755.42 1185.85 683.161 1190.55 612.681 1177.9C599.321 1175.63 586.871 1171.53 575.31 1165.94C541.67 1149.68 515.531 1120.81 496.281 1087.76C426.741 983.01 350.221 878.96 315.991 756.23C295.71 696.83 291.761 608.04 362.65 582.48C394.09 570.74 432.06 571.46 459.121 550.16C456.06 561.42 454.34 573.2 452.761 583.63C450.101 600.64 447.48 618.24 449.641 635.44C449.661 635.59 449.681 635.74 449.71 635.88C446.161 645.56 457.33 654.7 468.29 653.75C491.411 653.22 502.75 625.42 525.92 624.57C534.38 624.26 539.431 629.31 544.611 635.32C557.15 649.89 569.431 664.74 584.58 676.68C585.661 677.53 587.101 676.5 586.491 675.2C578.84 658.85 568.111 644.37 557.471 629.84C535.411 594.59 505.721 610.81 480.621 632.24C475.73 635.79 470.761 638.67 465.73 637.41C466.06 636.2 466.15 634.8 465.94 633.24C464.071 619.44 465.9 604.89 467.8 591.2C472.141 565.65 470.851 532.33 495.48 516.86C506.23 510.78 519.23 510.01 529.69 516.91C527.77 521.62 525.48 526.92 525.15 531.9C523.05 530.42 521.63 530.88 521.25 534.09C529.4 558.13 542.741 580.22 554.06 602.89C562.9 619.9 571.79 636.89 580.861 653.78C583.54 659.01 585.8 664.55 591.02 667.45C591.031 667.5 591.04 667.55 591.05 667.6C594.58 679.25 594.58 691.77 597.3 703.62C598.971 710.86 600.891 718.14 602.94 725.38C604.88 732.17 606.931 738.93 609.011 745.58C633.77 831.39 657.221 917.6 681.361 1003.6C652.781 988.82 638.29 961.19 625.21 932.95C590.71 860.18 554.571 780.75 515.96 713.61C551.871 789.94 601.13 968.75 662.471 1013.2C671.83 1019.4 682.031 1024.07 692.681 1027.77C697.13 1031.8 701.791 1032.67 704.92 1031.6C724.201 1037.01 744.391 1040.12 763.34 1044.09C796.201 1050.99 829.071 1057.84 861.951 1064.66C873.071 1066.96 884.241 1070.04 895.601 1070.58C896.17 1070.61 896.721 1070.59 897.23 1070.52C872.201 1099.3 855.351 1138.59 845.721 1175.42C837.88 1173.16 828.991 1181.53 826.721 1190.31M544.511 1193.48C488.9 1276.95 401.75 1328.73 329.98 1396.11C286.98 1441.42 252.69 1494.03 213.471 1542.51C212.261 1544.01 211.04 1545.51 209.821 1547C206.8 1550.72 202.601 1554.81 200.17 1558.42C200.101 1558.53 200.031 1558.63 199.971 1558.71C194.29 1546.84 197.4 1531.66 197.19 1518.13C198.06 1494.95 201.09 1471.97 205.641 1449.25C220.5 1358.03 271.661 1276.84 282.79 1185.1C282.42 1087.53 277.571 989.68 285.79 892.14C288.79 847.62 291.94 803.08 296.4 758.67C327.201 873.12 417.141 996.58 468.201 1075.62C488.8 1105.83 507.241 1138.79 536.25 1161.9C543.261 1167.44 550.661 1172.2 558.361 1176.3C553.15 1181.47 548.69 1187.36 544.511 1193.48M726.661 747.13C734.321 745.12 751.23 743.11 760.02 737.33C764.568 752.925 769.487 768.4 774.677 783.785C762.081 780.062 748.448 781.807 735.473 783.224C718.567 785.07 701.684 787.078 684.808 789.181C669.35 791.106 653.901 793.105 638.459 795.16C632.951 775.404 627.404 755.66 621.77 735.94C653.98 750.87 692.181 752.95 726.661 747.13M744.19 598.51C744.161 597.2 743.851 595.83 743.17 594.42C743.071 594.22 742.98 594.02 742.88 593.82C740.25 584.43 737.581 575.05 734.861 565.68C734.451 564.1 731.951 564.41 732 566.07C731.98 567.23 731.971 568.38 731.96 569.54C731.781 569.06 731.611 568.58 731.44 568.09C728.071 558.32 725.601 548.26 723.971 538.04C752.831 543.99 776.601 606.99 790.031 652.03C778.991 648.59 764.511 647.81 760.221 656.96C754.9 637.47 749.621 617.97 744.19 598.51M699.414 971.562C706.607 971.091 713.802 970.643 720.993 970.144C735.708 969.123 750.419 968.059 765.132 967.017C768.661 966.767 772.19 966.509 775.719 966.249C785.711 965.699 795.704 965.145 805.697 964.612C816.745 964.024 827.922 963.021 839.053 962.612C841.148 962.566 843.244 962.532 845.339 962.51C845.752 963.35 846.179 964.175 846.641 964.96C831.971 969.02 818.571 973.72 807.831 978.46C783.431 989.15 759.971 1003.22 739.931 1020.91C736.221 1020.14 732.511 1019.36 728.8 1018.57C718.621 1016.37 708.311 1014.02 698.38 1010.67C695.84 1004.44 695.011 997.12 692.851 990.98C691.138 984.827 689.425 978.672 687.712 972.518C691.625 972.452 695.627 971.809 699.414 971.562M675.134 921.238C675.266 921.224 675.397 921.208 675.528 921.193C675.544 921.193 675.561 921.192 675.577 921.192C677.183 921.141 678.788 921.079 680.393 921.004C683.602 920.855 686.81 920.663 690.015 920.435C696.433 919.978 702.838 919.368 709.234 918.67C722.047 917.27 734.819 915.52 747.604 913.892C755.137 912.932 762.644 912.106 770.145 911.403C787.683 910.239 805.274 909.347 822.793 909.1C828.4 922.45 834.091 935.76 839.831 949.04C840.372 950.279 840.898 951.627 841.432 953.026C815.678 952.535 789.814 954.978 764.151 956.514C749.765 957.375 735.377 958.212 720.993 959.097C713.798 959.539 706.606 960.029 699.414 960.499C694.612 960.812 689.451 960.605 684.649 961.512C683.633 957.861 682.617 954.21 681.601 950.56C678.939 941.1 676.307 931.631 673.669 922.164C674.184 921.916 674.678 921.61 675.134 921.238M653.218 848.393C649.09 833.458 644.959 818.523 640.806 803.595C641.586 803.487 642.366 803.379 643.145 803.271C646.061 802.869 648.978 802.47 651.895 802.072C658.321 801.197 664.748 800.333 671.177 799.481C676.16 798.821 681.144 798.172 686.129 797.525C691.633 797.06 697.139 796.617 702.647 796.21C727.554 794.373 752.657 792.669 777.647 792.528C782.894 807.732 788.419 822.843 794.146 837.88C772.893 839.174 751.662 840.887 730.438 842.592C718.229 843.573 706.023 844.591 693.821 845.645C687.884 846.158 681.949 846.68 676.014 847.21C672.717 847.504 669.42 847.802 666.123 848.102C664.219 848.275 661.733 848.922 659.591 848.936C659.313 848.716 659.023 848.503 658.715 848.29C657.153 847.213 654.851 847.402 653.218 848.393M658.188 860.998C672.205 859.289 686.191 857.449 700.198 855.745C707.967 854.99 715.737 854.245 723.509 853.52C748.205 851.215 772.929 849.218 797.626 846.944C804.327 864.257 811.287 881.473 818.411 898.617C788.168 896.622 757.372 901.702 727.468 905.218C711.505 907.095 695.499 908.788 679.43 909.387C676.886 909.481 673.33 909.349 670.279 910.025C666.127 895.083 661.991 880.136 657.86 865.187C657.921 863.797 658.029 862.402 658.188 860.998M906.48 1060.74C905.42 1061.75 904.38 1062.79 903.351 1063.86C903.371 1063.52 903.38 1063.19 903.371 1062.85C903.391 1062.84 903.411 1062.83 903.42 1062.82C904.34 1061.92 905.361 1061.23 906.48 1060.74M887.77 632.95C918.861 708.37 945.71 785.92 974.831 862.26C984.17 888.18 993.371 914.15 1002.07 940.3C1005.37 948.94 1006.58 958.64 1013.36 965.43C1013.64 965.71 1013.95 965.97 1014.28 966.19C1005.17 970.015 996.943 974.267 990.315 978.566C993.363 988.902 997.043 999.047 1001.44 1008.84C1003.01 1012.33 997.838 1015.38 996.259 1011.86C990.671 999.422 986.162 986.478 982.629 973.276C978.229 967.343 973.138 962.021 966.541 958.7C953.811 954.07 937.761 952.47 920.46 952.99C920.181 952.49 919.811 952.01 919.361 951.56C913.63 946.04 911.361 937.26 908.511 929.95C900.221 908.62 893.17 886.79 887.38 864.64C881.681 842.71 878.15 820.26 872.23 798.38C871.031 794.55 867.3 776.05 863.821 777.07C863.891 777.49 863.951 777.9 864.011 778.32C863.831 778.2 863.63 778.15 863.431 778.16C862.031 823.42 873.861 869.01 887.411 912.02C891.161 926.35 899.681 939.76 902.411 954.22C890.541 955.45 878.44 957.47 866.71 960.02C866.541 959.07 866.3 958.13 866.02 957.18C865.861 955.86 865.46 954.82 864.88 954.03C863.4 950.41 861.44 946.88 859.991 943.62C857.011 936.88 854.05 930.14 851.121 923.37C835.17 886.35 820.071 848.93 806.75 810.87C790.321 764.72 776.891 717.68 763.931 670.51C772.611 675.16 789.3 665.87 799.531 687.1C801.741 692.45 806.65 696.27 812.741 694.6C818.081 693.13 822.121 686.9 820.241 681.39C819.971 680.49 819.681 679.6 819.351 678.73C809.38 649.16 801.311 618.81 786.931 590.98C823.84 594.71 867.5 597.36 887.77 632.95M1231.57 1127.24C1234.76 1142.33 1232.71 1158.2 1231.85 1173.56C1217.26 1154.17 1198.77 1137.62 1177.14 1126.6C1175.7 1116.9 1169.59 1108.45 1166.77 1099.03C1161.56 1085.74 1157.34 1072.16 1153.54 1058.45C1188.81 1065.8 1223.14 1091.42 1231.57 1127.24M1103.69 1242.83C1115.67 1307.46 1134.69 1370.45 1148.62 1434.64C1149.44 1438.41 1143.65 1440.01 1142.84 1436.24C1128.9 1372.05 1109.88 1309.05 1097.91 1244.43C1097.21 1240.65 1102.99 1239.04 1103.69 1242.83M1097.55 1836.96C1107.11 1838.3 1116.64 1839.47 1126.26 1840.49C1107.12 1848.5 1089.27 1846.54 1073.7 1832.39C1081.67 1834.33 1089.7 1835.81 1097.55 1836.96M1519.28 1932.19C1518.75 1929.62 1517.33 1927.96 1515.54 1927.06C1515.82 1873.28 1402.77 1855.8 1368.52 1821.55C1352.85 1810.47 1341.44 1792.17 1323.24 1785.31C1333.54 1769.38 1330.78 1748.87 1328.49 1730.96C1323.49 1698.29 1310.93 1661.78 1307.65 1641.58C1282.87 1537.77 1258.84 1433.71 1230.8 1330.72C1230.23 1328.75 1229.17 1324.85 1227.84 1320.54C1230.86 1321.27 1233.75 1321.51 1236.46 1321.16C1275.79 1312.44 1266.96 1232.88 1257.72 1204.05C1256.73 1200.65 1254.42 1198.5 1251.71 1197.49C1252.06 1195.73 1251.74 1193.86 1250.49 1192.07C1249.82 1191.11 1248.79 1190.42 1247.67 1190.07C1246.48 1162.71 1253.31 1133.3 1238.91 1108.3C1222.73 1080.96 1184.13 1058.34 1153.07 1056.75C1148.62 1040.63 1144.72 1024.35 1140.42 1008.2C1135.7 991.29 1128.98 973.12 1114.85 961.78C1096.57 945.52 1057.55 950.48 1025.18 961.97C1026.95 953.5 1022.92 945.84 1020.45 937.9C1012.4 914.14 1004.11 890.46 995.65 866.85C965.281 787.25 940.34 704.74 902.351 628.42C886.621 602.55 856.371 590.89 827.331 588.49C813.71 587.12 799.221 586.59 785.471 588.2C785.031 587.36 784.581 586.53 784.121 585.7C772.851 566.17 749.98 529.81 723.661 536.05C720.88 517.48 720.84 498.45 723.13 479.87C723.291 478.55 721.13 477.98 720.59 479.18C703.15 518.3 706.391 566.44 727.67 603.48C729.23 606.05 731.351 607.38 733.55 607.76C736.94 646.65 745.411 685.03 755.861 722.7C754.291 722.76 752.781 723.09 751.52 723.65C718.181 735.86 681.52 737.85 646.821 730.72C637.05 728.66 627.59 725.89 618.08 723.07C616.281 716.83 614.48 710.61 612.67 704.38C608.13 684.7 606.971 665.79 595.451 649.94C594.77 648.77 594.071 647.61 593.4 646.45C584.15 629.67 574.75 612.98 565.281 596.33C562.98 593.6 547.601 563.29 535.63 544.96C537.13 544.92 538.681 544.54 540.19 543.78C548.63 539.57 548.54 527.36 550.08 519.17C554.8 493.72 560.261 468.23 561.761 442.34C561.84 441.02 559.821 440.46 559.23 441.66C547.721 464.48 539.741 488.9 531.221 512.95C531.05 513.43 530.871 513.92 530.681 514.42C522.781 504.46 508.911 502.09 496.83 504.77C476.641 510.04 466.46 526.45 460.59 545.11C402.54 572.82 333.46 544.52 298.23 617.83C282.361 656.14 282.661 699.58 292.94 744.79C266.17 881.84 257.79 1022.04 263.361 1161.49C261.38 1255.82 203.52 1337.66 186.94 1429.46C178.67 1465.64 173.48 1502.73 174.121 1539.9C172.851 1559.54 181.511 1588.54 206.67 1580.9C209.54 1579.87 212.141 1578.29 214.54 1576.38C225.05 1735.42 347.611 1766.18 488.871 1738.79C494.59 1738.89 500.21 1737.57 506.221 1735.88C509.141 1735.01 512.04 1734.1 514.94 1733.14C517.121 1732.62 519.31 1732.09 521.5 1731.54C523.123 1731.21 524.75 1730.9 526.376 1730.57C566.652 1703.94 608.487 1679.69 648.28 1652.3C651.085 1650.37 654.521 1654.86 651.915 1657.02C625.333 1679 599.312 1701.94 571.653 1722.61C650.455 1710.08 730.643 1712.22 804.221 1679.75C855.851 1657.16 904.44 1611.89 933.701 1563.05C934.143 1563.83 934.574 1564.61 935.012 1565.38C933.59 1561.34 932.17 1557.3 930.765 1553.25C905.822 1481.42 883.254 1408.75 855.989 1337.74C854.601 1334.13 860.404 1332.58 861.774 1336.14C869.418 1356.05 876.705 1376.1 883.766 1396.22C909.037 1468.24 931.626 1541.19 958.542 1612.62C958.697 1613.03 958.749 1613.42 958.736 1613.77C964.357 1627.63 968.955 1641.75 972.141 1656.23C975.444 1671.38 980.274 1703.73 985.053 1730.96C989.238 1753.42 992.286 1779.46 1007.88 1796.7C1007.86 1796.74 1007.84 1796.77 1007.83 1796.81H1007.83C1007.28 1797.88 1006.75 1798.94 1006.24 1800C1007.34 1801.1 1008.75 1801.82 1010.04 1802.64C1010.24 1801.7 1010.44 1800.76 1010.66 1799.8C1014.45 1803.83 1018.66 1807.44 1023.18 1810.71C1018.09 1848.42 980.101 1884.95 999.77 1924.43C990.395 1946.01 1013.4 1963.57 1032.34 1968.02C1061.37 1977.31 1091.33 1984.29 1121.06 1990.91C1179.93 2001.89 1364.15 2042.46 1408.25 2010.88C1407.62 2004.14 1415.91 1982.24 1406.13 1981.92C1410.46 1977.63 1414.06 1972.63 1416.78 1967.2C1443.77 1975.98 1473.76 1972.83 1501.24 1969.59C1523.47 1970.07 1522.65 1948.42 1519.28 1932.19" fill="black"/>
<path fill-rule="evenodd" clip-rule="evenodd" d="M671.576 38.9776C728.357 38.9776 799.473 103.748 820.286 131.311C837.785 154.484 835.31 273.865 835.31 344.682C835.31 359.493 828.615 387.525 826.184 401.692C817.278 453.607 778.476 497.146 701.677 497.146C639.145 497.146 591.022 477.339 544.487 426.68C533.87 415.123 482.022 456.498 471.418 441.598C443.722 441.598 420.563 182.82 474.941 105.201C529.32 27.5832 614.796 38.9776 671.576 38.9776Z" fill="white"/>
<path fill-rule="evenodd" clip-rule="evenodd" d="M500.916 57.2046C533.726 27.3546 577.436 12.9946 621.536 14.0546C644.376 14.6046 667.136 18.9546 688.706 26.4046C699.496 30.1446 709.946 35.0246 719.936 40.5446C723.536 42.5293 726.855 44.8547 730.05 47.3243L730.846 47.9446H730.856C739.426 51.0246 747.076 56.5546 754.016 63.0246C767.926 61.9146 781.946 63.1646 795.396 67.4546C814.116 73.4346 831.446 84.3846 843.616 99.9346C857.792 118.038 862.505 139.997 860.824 162.665L860.513 166.516C858.85 186.541 855.871 212.297 839.436 225.455C838.186 226.455 836.806 227.215 835.376 227.675C845.966 245.815 854.656 265.955 859.856 286.295C879.706 363.985 864.446 445.005 840.576 519.885C838.616 526.055 829.286 530.155 824.536 524.125C816.056 513.345 803.736 505.125 789.876 503.585C781.326 502.635 772.816 504.355 764.736 500.475C761.566 498.945 758.506 496.445 756.306 493.405C742.666 498.575 727.976 501.015 713.406 500.415C689.496 499.435 663.936 491.155 647.486 472.995C644.846 470.08 644.177 466.807 644.785 463.857C646.848 463.121 648.966 462.573 651.148 462.23C672.008 474.524 695.002 482.739 719.714 483.255C733.993 483.553 747.921 481.556 759.499 472.64C762.004 470.71 764.308 468.573 766.438 466.277C790.645 450.705 807.712 424.256 815.826 395.925C823.386 369.505 822.456 341.995 819.856 314.895L818.485 300.594C816.485 279.605 814.63 258.553 814.11 237.475L814.267 237.467V237.467C819.379 237.137 819.416 229.134 814.267 229.467C800.948 230.329 787.73 228.144 774.452 229.096C774.341 222.819 773.889 216.57 772.044 210.516C770.991 207.057 764.968 206.375 764.33 210.516C763.476 216.056 763.164 221.565 763.071 227.13C743.2 226.866 723.348 225.194 703.474 225.881C699.808 221.971 698.641 215.038 696.926 210.215C696.676 209.505 696.426 208.805 696.166 208.095C694.659 214.987 692.523 221.728 689.713 228.327L684.839 228.343C657.185 228.473 628.967 229.299 601.962 235.043C600.085 233.602 598.968 231.088 598.666 228.805C596.708 213.949 593.912 199.488 588.957 185.331L588.249 183.334C588.191 183.168 588.129 182.992 588.065 182.807C584.414 188.7 580.058 194.193 575.307 199.308C572.507 202.323 569.571 205.206 566.558 208.007C563.631 211.257 560.606 214.458 557.674 217.718C557.789 218.311 557.889 218.913 557.97 219.526C558.867 226.291 558.96 233.152 558.303 239.943C557.115 252.22 553.649 264.05 548.081 274.994L547.905 276.089C547.06 281.218 545.857 286.519 543.047 290.381C546.553 294.309 549.254 299.001 550.82 304.214C552.214 308.855 545.793 312.877 542.463 309.079C539.818 306.062 536.879 303.565 533.651 301.573C533.447 301.85 533.079 301.986 532.666 301.755C523.676 296.765 508.406 298.275 499.426 302.975C488.256 308.815 483.896 320.805 485.136 332.955C486.326 344.565 491.406 358.135 501.256 364.085C505.776 366.815 509.296 367.045 514.096 365.735C515.631 365.318 517.534 364.039 518.351 363.404L519.154 362.76C522.301 360.273 525.232 358.57 528.946 358.505C532.746 357.32 536.564 358.963 538.017 362.947L538.106 363.205C538.786 365.235 540.026 367.785 539.756 370.885C539.476 374.205 537.956 377.225 535.686 379.655C535.296 380.075 534.876 380.495 534.446 380.885C573.546 423.215 578.566 489.175 558.516 542.055C557.646 544.375 556.716 546.665 555.746 548.935C552.396 556.715 539.496 554.305 537.856 546.595C537.366 544.285 536.826 541.985 536.236 539.705C535.152 535.491 533.91 531.317 532.509 527.204L531.976 525.665C530.786 522.265 529.676 518.835 528.476 515.435L528.356 515.046C528.311 514.892 528.261 514.715 528.206 514.515L526.176 518.945V518.945L520.006 532.315C517.119 538.554 507.946 535.163 507.605 529.151L507.596 528.945C507.566 527.835 507.526 526.735 507.456 525.645C507.016 517.475 505.606 509.535 503.366 501.765L502.558 502.769C490.524 517.647 476.401 531.592 457.026 535.025C452.166 535.885 446.666 530.805 450.006 525.895C451.386 523.865 452.716 521.785 453.976 519.675C452.886 519.165 451.856 518.635 450.906 518.095C443.556 513.965 437.436 508.085 432.376 501.415C421.646 487.275 417.806 469.475 416.866 452.055C415.866 433.645 417.486 414.235 422.516 396.475C424.696 388.795 427.646 381.425 431.056 374.275C430.816 373.635 430.586 372.995 430.356 372.355C426.676 362.095 423.656 351.605 421.146 340.995C416.086 319.575 413.366 297.475 413.036 275.465C412.436 236.035 419.236 195.975 433.566 159.205C448.366 121.285 470.626 84.7546 500.916 57.2046ZM482.486 401.945C479.769 397.666 472.969 401.522 475.492 405.831L475.586 405.985C479.896 412.775 481.916 420.495 484.396 428.065C485.986 432.935 493.716 430.855 492.106 425.935L491.573 424.292C489.106 416.615 486.854 408.814 482.486 401.945ZM506.156 320.265L507.962 319.391C513.657 316.673 518.647 314.822 525.376 317.195C534.386 320.365 544.036 330.455 537.946 340.245C535.706 343.855 531.726 345.295 527.626 344.445C520.714 343.011 518.931 336.787 515.423 331.677L514.82 330.812C512.681 327.72 509.977 323.446 506.416 322.235C505.606 321.955 505.266 320.695 506.156 320.265ZM511.235 112.406L511.816 111.885C515.686 108.465 510.006 102.825 506.156 106.225C488.536 121.795 482.416 146.165 473.276 166.935C471.226 171.605 478.116 175.685 480.186 170.975C488.905 151.155 494.692 127.447 511.235 112.406V112.406ZM722.976 105.595C718.373 103.52 714.345 110.22 718.771 112.426L718.936 112.505C734.496 119.535 741.116 135.455 747.456 150.235C749.476 154.955 756.366 150.885 754.366 146.205L753.222 143.553C746.607 128.321 738.891 112.796 722.976 105.595ZM747.366 95.9746C742.486 94.2846 740.396 102.005 745.236 103.695C758.426 108.285 767.476 118.185 775.106 129.505C777.966 133.745 784.896 129.745 782.006 125.465C773.146 112.325 762.626 101.295 747.366 95.9746Z" fill="black"/>
<path fill-rule="evenodd" clip-rule="evenodd" d="M643.285 403.87C643.39 392.852 652.938 390.952 662.008 392.421C677.363 394.905 692.775 396.653 708.338 396.968L711.02 397.015V397.015C711.452 396.385 712.174 395.907 713.154 395.802C721.781 394.87 730.594 395.021 739.268 394.765C746.835 394.543 754.611 393.786 762.177 394.38L762.779 394.433C772.026 395.328 781.784 400.048 780.668 410.9C779.641 420.949 770.035 429.845 762.364 435.429C760.813 436.548 759.227 437.597 757.595 438.553C757.083 439.206 756.336 439.661 755.473 439.754C747.919 443.834 739.584 446.248 730.956 447.052C712.664 448.754 691.399 446.912 673.83 438.985C668.118 436.408 662.79 433.19 658.08 429.238C650.817 423.141 643.204 413.896 643.285 403.87ZM715.357 425.717C708.024 425.496 700.703 426.522 693.719 428.784C688.986 430.311 684.672 433.248 680.137 435.289C695.421 441.118 713.177 442.389 728.857 441.328C735.736 440.862 742.405 439.276 748.619 436.548C747.651 435.849 746.671 435.138 745.645 434.519C742.545 432.642 739.303 431.045 735.922 429.774C729.336 427.303 722.387 425.939 715.357 425.717ZM717.815 329.367C715.836 327.947 717.406 323.244 721.634 323.971C760.031 330.568 740.136 396.708 691.112 360.413C685.276 355.705 692.344 345.334 698.634 349.366L700.868 351.088C708.13 356.655 720.142 365.07 728.748 356.04C736.872 344.66 725.366 333.957 717.815 329.367ZM743.809 279.309C751.971 272.345 762.208 277.478 768.217 284.531L769.277 285.792C770.479 287.231 771.81 288.907 772.61 290.699C779.269 285.029 788.299 281.039 796.94 283.629C805.32 286.15 810.099 294.15 808.66 302.739C807.027 312.507 799.637 319.071 791.696 324.148L789.444 325.578C779.902 331.661 770.973 337.789 763.12 346.15C761.839 347.509 759.07 347.329 758.23 345.52L757.553 344.065V344.065L756.87 342.609C751.299 330.73 745.33 318.929 740.429 306.77C736.799 297.759 735.62 286.289 743.809 279.309ZM650.766 285.618L652.009 284.18C657.989 277.22 668.119 272.56 676.11 279.31C684.619 286.5 682.949 298.39 679.159 307.56C674.595 318.62 669.265 329.436 664.143 340.285L663.049 342.61C662.589 343.58 662.139 344.55 661.69 345.52C660.849 347.33 658.07 347.51 656.799 346.15C649.19 338.05 640.581 332.057 631.386 326.166L628.61 324.4C620.539 319.28 612.909 312.67 611.249 302.74C609.829 294.17 614.579 286.12 622.969 283.629C631.629 281.06 640.639 285.02 647.309 290.7C648.104 288.862 649.473 287.132 650.766 285.618V285.618ZM661.708 235.686C664.629 239.478 661.51 245.675 657.245 246.655C651.963 247.87 646.627 247.131 641.441 248.638C636.689 250.019 632.137 252.786 628.064 255.544C623.419 258.688 619.141 262.198 615.21 266.197C612.872 268.576 609.926 274.212 606.32 274.317C602.735 274.422 607.547 263.211 607.945 262.241C610.772 255.336 614.743 248.982 619.71 243.416C629.511 232.433 650.268 220.844 661.708 235.686ZM771.159 232.651L773.606 233.33C779.66 235.013 786.123 237.081 791.317 240.71L791.725 240.999L792.353 241.459C798.874 246.32 808.097 256.02 803.479 264.482C803.16 265.065 802.484 265.123 801.94 264.885C795.796 262.194 791.241 256.82 784.706 254.572L783.5 254.162C777.171 252.03 769.341 249.788 762.529 249.992C757.739 251.549 751.27 250.26 750.023 244.429L749.967 244.143L749.859 243.539C749.141 239.555 750.209 234.476 754.328 232.556C759.972 229.926 765.478 231.096 771.159 232.651Z" fill="black"/>
<path fill-rule="evenodd" clip-rule="evenodd" d="M833.09 309.283C823.556 373.772 757.002 380.904 745.177 316.882C747.075 316.051 748.44 314.415 748.155 311.239C748.088 297.287 752.419 282.541 765.005 274.782C778.011 266.776 793.232 265.982 808.283 266.184C837.005 265.5 836.401 289.507 833.09 309.283M734.758 281.236C725.744 280.856 714.34 281.174 706.265 286.666C704.045 280.688 698.277 274.305 692.449 270.892C714.111 271.526 736.409 269.394 758.233 267.739C753.009 271.3 748.149 276.65 744.99 282.835C742.059 281.272 737.861 281.418 734.758 281.236M695.026 316.12C670.031 402.156 607.64 364.656 600.838 353.63C588.569 335.384 586.261 291.03 596.948 279.171C612.246 268.447 633.903 271.207 651.975 270.944C685.176 271.392 708.756 281.324 695.026 316.12M862.603 276.549C855.812 275.661 848.555 275.482 842.241 278.472C840.297 270.209 834.194 263.301 827.303 260.261C826.469 259.215 826.594 258.653 823.745 258.81C806.25 253.552 786.673 256.334 769.861 261.726C743.309 263.962 715.452 265.725 688.677 268.806C663.595 257.542 587.902 255.891 583.198 283.654C577.281 282.769 567.204 278.112 562.232 284.429C525.761 278.246 488.076 286.839 451.447 290.666C442.227 292.364 437.478 310.662 447.944 310.412C453.828 308.815 447.763 299.018 455.686 298.281C491.027 294.421 525.595 288.945 561.298 288.304C560.056 294.469 584.912 294.87 585.279 291.27C585.332 291.297 585.388 291.315 585.442 291.339C579.3 314.229 584.844 347.171 595.944 361.365C611.496 379.951 650.541 385.283 667.854 373.325C690.187 362.288 713.42 306.886 706.894 288.48C718.738 284.726 730.447 285.853 742.739 287.765C739.925 295.714 735.067 315.282 742.056 316.979C740.773 355.829 776.13 380.07 808.724 364.133C836.935 350.89 846.801 308.972 843.349 283.529C846.861 290.315 876.349 282.927 862.603 276.549" fill="black"/>
</svg>
