<svg width="3399" height="2524" viewBox="0 0 3399 2524" fill="none" xmlns="http://www.w3.org/2000/svg">
<rect y="44" width="3398.22" height="2436" rx="21.3333" fill="#FFBD12"/>
<path fill-rule="evenodd" clip-rule="evenodd" d="M1700.49 879.941C1728.64 872.153 1760.99 873.059 1789.86 875.05C1819.18 877.075 1850.65 880.546 1878.16 891.493C1902.08 901.009 1922.25 917.011 1934.54 939.942C1944.65 958.792 1949.39 979.466 1952.36 1000.46C1953.57 1009.06 1954.59 1017.67 1955.56 1026.29L1957.54 1044.23C1958.32 1051.09 1959 1056.23 1960.37 1063.88C1964.14 1085.05 1969.4 1102.73 1981.14 1118.13C2009.57 1155.41 2055.99 1167.89 2098.21 1183.81C2125.22 1193.99 2146.61 1212.3 2152.55 1241.74C2158.28 1270.13 2375.99 1508.34 2397.36 1528.42L2397.95 1528.96C2414.53 1543.89 2412.58 1571.94 2414.9 1592.42C2417.38 1614.39 2419.75 1636.36 2422 1658.35C2426.56 1703.01 2430.62 1747.73 2434.19 1792.48C2448.13 1967.51 2454.46 2143.14 2453.11 2318.71L2453.03 2328.65C2452.82 2350.93 2452.99 2373.31 2451.99 2395.57C2451.03 2416.97 2444.55 2438.38 2424.72 2449.55C2406.36 2459.91 2383.13 2459 2362.6 2460.03L2361.37 2460.09C2339.34 2461.3 2317.31 2462.29 2295.26 2463.1C2205.66 2466.42 2115.98 2466.78 2026.33 2466.36C1848.47 2465.55 1670.44 2461.64 1492.75 2471.59C1447.46 2474.13 1303.06 2458.71 1257.91 2463.1C1214.75 2467.3 1251.78 2488.46 1225.12 2487.07C1137.44 2482.48 1054.28 2462.92 970.272 2439.36C959.778 2436.42 951.753 2426.24 951.885 2415.23C953.446 2294.34 956.859 2173.49 962.193 2052.71C966.944 1945.12 973.206 1837.59 980.973 1730.18C984.35 1683.49 988.011 1636.82 991.955 1590.17L993.663 1570.18C995.892 1544.41 997.173 1518.15 1002.24 1492.73C1007.26 1467.59 1018.64 1445.79 1035.13 1426.31C1049.94 1408.83 1217.54 1272.02 1257.91 1246.12C1296.54 1221.32 1337.12 1200.41 1376.78 1177.43C1393.28 1167.87 1409.13 1171.31 1423.23 1159.57C1430.66 1153.39 1538.5 1111.7 1567.6 1097.95L1568.45 1097.54C1590.72 1086.86 1611.22 1075.28 1626.6 1056.81C1631.76 1050.61 1641.88 1011.61 1641.9 999.141C1641.93 976.876 1640.25 953.422 1646.96 931.854C1655 906.063 1674.36 887.173 1700.49 879.941ZM1748.21 1454.03L1575.89 1789.56H1687.94L1607.62 1975.98H1784L1721.43 2237.1L2079.26 1789.56H1944.98L2079.26 1613.35H1986.13L2079.26 1464.12L1748.21 1454.03Z" fill="white"/>
<path fill-rule="evenodd" clip-rule="evenodd" d="M2327.07 1642.71C2326.67 1643.1 2326.25 1643.5 2325.85 1643.92C2326.31 1643.27 2326.71 1642.6 2327.07 1641.93V1642.71ZM1992.17 1544.97C1976.7 1564.73 1960.32 1604.96 1945.29 1625.08C1943.13 1627.96 1941.01 1630.86 1938.92 1633.76C1932.68 1642.49 1941.01 1655.85 1951.27 1655.29C1971.78 1654.2 1992.26 1652.67 2012.74 1651.12C1970.67 1698 1935.74 1756.23 1897.1 1805.89C1894.48 1809.22 1891.91 1812.57 1889.33 1815.92C1879.55 1828.67 1889.35 1834.45 1902.71 1831.02C1905.48 1830.31 1908.24 1829.6 1911 1828.9C1930.44 1823.92 1949.85 1818.94 1969.28 1813.98C1980.03 1811.21 1990.83 1807.8 2001.72 1805.68C2006.2 1804.83 2010.5 1805.54 2014.73 1805.77C2012.7 1808.86 2009.85 1814.46 2009.28 1815.31C2002.94 1825.2 1996.55 1835.04 1990.12 1844.84C1977.6 1863.89 1965.01 1882.92 1951.97 1901.62C1901.08 1974.52 1846.19 2044.12 1791.79 2114.37C1778.09 2132.04 1764.21 2149.52 1750.09 2166.84C1750.15 2166.73 1750.2 2166.63 1750.26 2166.52C1762.97 2141.77 1775.68 2117.05 1788.39 2092.3C1812.56 2045.27 1836.5 1998.12 1860.91 1951.22C1862.17 1948.77 1863.45 1946.34 1864.72 1943.89C1869.79 1934.18 1861.48 1924.09 1851.07 1926.14C1800.3 1936.14 1750.01 1948.43 1700.36 1962.98C1698.12 1965.36 1694.84 1966.06 1691.9 1965.48C1689.91 1966.08 1687.9 1966.65 1685.91 1967.26C1686.51 1966.01 1687.14 1964.76 1687.75 1963.51C1685.72 1961.75 1684.71 1959.02 1686.03 1955.62C1714.6 1881.9 1753.78 1810.73 1800.2 1745.56C1798.33 1745.6 1796.47 1745.62 1794.59 1745.68C1743.64 1747.06 1693.65 1754.37 1644.55 1768.25C1644.32 1763.7 1647.06 1756.67 1648.55 1753.32C1654.49 1739.94 1661.32 1726.87 1667.71 1713.7C1680.78 1686.65 1693.84 1659.62 1706.91 1632.57C1719.68 1606.15 1732.35 1579.64 1744.37 1552.84C1750.68 1538.79 1756.98 1524.72 1763.26 1510.65C1768.39 1499.2 1772.44 1487.66 1776.69 1475.94C1789.17 1479.6 1949.43 1480.4 1988.38 1483.1C1997.93 1483.77 2007.5 1484.38 2017.07 1484.9C2024.7 1485.34 2035.44 1487.01 2040.69 1480.13L2042.68 1481.8C2025.39 1502.49 2008.8 1523.74 1992.17 1544.97V1544.97ZM1366.47 1160.64C1367.26 1160.28 1368.04 1159.93 1368.81 1159.57C1369.21 1160.14 1369.69 1160.66 1370.2 1161.18C1371.45 1162.46 1372.69 1163.84 1373.99 1165.1C1371.47 1163.63 1368.96 1162.14 1366.47 1160.64V1160.64ZM2486.49 2337.31C2485.05 2306.8 2483.44 2276.3 2481.72 2245.79C2478.33 2186.16 2474.83 2126.53 2470.16 2066.98C2460.67 1946.32 2451.84 1825.7 2437.62 1705.47C2431.65 1655.08 2423.31 1605.06 2414.96 1555.02C2416.03 1554.05 2417.11 1553.09 2418.18 1552.15C2417.03 1565.84 2435.63 1574.51 2444.84 1560.86C2445.53 1559.83 2446.2 1558.81 2446.87 1557.74C2454.85 1544.84 2473.24 1481.57 2471.96 1476.21C2469.66 1466.56 2463.25 1457.97 2458.24 1449.47C2453.87 1442.04 2449.45 1434.61 2444.97 1427.24C2436.02 1412.47 2426.81 1397.86 2417.16 1383.56C2397.16 1353.96 2375.3 1325.52 2349.54 1300.67C2322.88 1274.92 2292.28 1253.75 2260.68 1234.55C2245.5 1225.33 2229.84 1216.98 2213.88 1209.19C2198.13 1201.53 2180.9 1193.05 2163.93 1188.69C2162.97 1188.44 2161.99 1189.78 2162.87 1190.5C2167.37 1194.06 2172.08 1197.4 2176.88 1200.63C2163.89 1196.13 2150.51 1192.88 2137.02 1191.73C2110.91 1182.56 2084.48 1174.16 2058.49 1164.59C2032.95 1155.17 2007.77 1144.58 1990.79 1122.26C1976.28 1103.18 1967.11 1079.84 1960.05 1057.1C1952.3 1032.04 1949.22 1005.99 1942.06 980.888C1941.5 978.857 1938.17 978.627 1937.73 980.888C1932.62 1007.23 1932.85 1036.84 1935.76 1063.42C1938.82 1091.31 1946.67 1118.68 1963.76 1141.36C1983.61 1167.72 2010.54 1182.39 2040.84 1194.1C2065.28 1203.56 2090.03 1213.19 2115.06 1221.65C2111.79 1223.79 2108.48 1225.92 2105.07 1227.95C2091.5 1236.01 2077.38 1243.18 2062.96 1249.6C2036.61 1261.35 2008.86 1270.14 1980.95 1277.28C1928.99 1290.51 1875.72 1297.24 1822.15 1298.12C1714.97 1299.89 1606.6 1277.45 1508.58 1234.11C1480.98 1221.9 1454.02 1208.48 1427.34 1194.39C1419.01 1189.99 1410.63 1185.55 1402.3 1180.99C1402.99 1180.95 1403.7 1180.89 1404.39 1180.82C1423.01 1179.06 1441.4 1175.48 1459.41 1170.42C1496.28 1160.01 1531.63 1143.78 1566.35 1127.81C1595.8 1114.26 1626.12 1098.83 1644.11 1070.61C1653.72 1055.51 1658.14 1037.8 1661.72 1020.46C1665.72 1001.16 1670.43 981.767 1673.34 962.277C1674.37 955.451 1672.84 946.218 1665.51 942.993C1662.58 941.714 1660.17 940.667 1656.88 940.667C1649.62 940.667 1642.16 945.945 1640.42 953.19C1636.13 971.259 1633.53 989.831 1630.16 1008.09C1627.25 1023.87 1624.59 1040.35 1616.07 1054.23C1601.18 1078.54 1571.99 1090.98 1547.32 1102.81C1516.05 1117.8 1484.77 1132.41 1452.29 1144.58C1437.98 1149.94 1423.43 1154.8 1408.66 1158.77C1409.25 1155.15 1408.75 1151.34 1406.61 1148.47C1403.05 1143.74 1399.01 1140.6 1394.42 1136.98C1389.44 1133.04 1382.74 1130.99 1376.85 1132.73C1376.85 1132.75 1376.83 1132.73 1376.83 1132.73C1374.45 1132.21 1371.81 1132.41 1369.09 1133.65C1360.67 1137.5 1352.27 1141.4 1343.87 1145.35C1223.06 1202.18 1105.69 1268.93 1016.79 1370.58C1003.97 1385.23 991.974 1400.65 980.729 1416.54C969.798 1431.97 956.269 1448.72 953.254 1467.85C953.003 1469.45 955.327 1470.18 955.725 1468.55C956.437 1465.59 957.4 1462.7 958.594 1459.9C956.102 1468.61 956.248 1477.86 959.767 1486.97C963.934 1497.69 971.578 1504.79 981.231 1507.61C971.536 1550.1 965.023 1593.15 959.788 1636.67C952.27 1699.38 946.93 1762.24 942.909 1825.26C934.867 1951.03 931.286 2077.43 933.883 2203.44C934.616 2239.05 935.831 2274.66 937.674 2310.26C938.595 2328.06 939.6 2345.83 940.752 2363.63C941.883 2381.13 940.961 2400.42 956.228 2409.65C956.416 2410.34 956.625 2411.01 956.814 2411.7C960.521 2424.62 977.043 2420.47 978.593 2408.75C978.614 2408.62 978.635 2408.47 978.656 2408.35C991.137 2398.82 989.252 2382.95 988.331 2367.73C987.346 2351.3 986.299 2334.88 985.42 2318.47C983.744 2286.97 982.32 2255.49 981.043 2223.97C978.551 2161.66 977.148 2099.27 976.687 2036.92C975.766 1912.19 982.97 1787.65 991.514 1663.29C995.095 1611.26 999.283 1559.46 1000.56 1507.45C1007.24 1503.97 1009.29 1494.09 1005.94 1487.43C1085.06 1541.41 1158.48 1605.94 1217.43 1680.94C1227.27 1693.46 1236.67 1706.35 1245.68 1719.48C1248.61 1723.75 1251.4 1728.19 1254.2 1732.63C1251.48 1745 1249.36 1757.59 1246.6 1769.46C1240.9 1793.98 1238.5 1819.42 1235.23 1844.33C1228.59 1894.94 1223.92 1946.01 1219.96 1996.88C1212.17 2097.36 1206.39 2197.82 1204.57 2298.6C1203.57 2355.59 1202.23 2412.93 1204.74 2469.91C1202.87 2481.04 1212.91 2491.93 1223.4 2493.34C1232.59 2494.57 1241.18 2489.8 1245.2 2482.11C1273.84 2485.67 1303.25 2487.31 1331.71 2487.51C1370.05 2487.79 1408.39 2487.75 1446.74 2486.93C1523.44 2485.25 1600.13 2483.29 1676.82 2481C1830.19 2476.48 1983.57 2471.94 2136.96 2467.39C2179.49 2466.14 2222.03 2464.88 2264.56 2463.63C2283.74 2463.06 2307.65 2468.59 2322.77 2453.79C2325.37 2451.23 2327.38 2448.23 2328.81 2445.03C2333.33 2446.16 2338.88 2445.05 2341.85 2441.56C2347.4 2435 2351.48 2428.93 2351.28 2419.85C2351.09 2411.34 2348.74 2402.38 2347.53 2393.97C2345.22 2378.16 2343 2362.35 2340.89 2346.52C2336.72 2315.24 2332.83 2283.92 2329.25 2252.57C2321.92 2188.49 2315.26 2124.25 2310.06 2059.95C2299.76 1932.8 2296.85 1804.97 2297.2 1677.42C2297.25 1666.01 2297.31 1654.6 2297.37 1643.19C2297.85 1643.79 2298.38 1644.36 2298.94 1644.84C2299.4 1645.24 2299.86 1645.64 2300.33 1646.06C2305.69 1650.77 2314.61 1653.2 2321.04 1648.74C2328.93 1643.63 2334.38 1635.96 2340.53 1629.03C2347 1621.77 2353.66 1614.69 2360.38 1607.66C2373.41 1594.05 2386.88 1581 2400.61 1568.1C2401.72 1567.08 2402.83 1566.03 2403.94 1565.03C2404.03 1605.62 2403.98 1646.2 2405.07 1686.78C2406.71 1747.06 2409.97 1807.28 2412.97 1867.47C2418.92 1986.67 2425.07 2105.82 2431 2225C2432.65 2258.27 2434.22 2291.56 2435.88 2324.83C2436.72 2341.47 2437.53 2358.12 2438.33 2374.77C2438.75 2383.77 2439.17 2392.79 2439.58 2401.8C2440.05 2411.47 2439.44 2421.81 2442.71 2431.01C2450.14 2452.02 2482.26 2455 2488.44 2431.01C2492.32 2415.95 2489.34 2398.53 2488.65 2383.08C2487.94 2367.84 2487.23 2352.57 2486.49 2337.31V2337.31Z" fill="black"/>
<path fill-rule="evenodd" clip-rule="evenodd" d="M1894.71 78.0166C2008.36 78.0166 2150.7 207.661 2192.36 262.829C2227.39 309.212 2222.43 548.162 2222.43 689.908C2222.43 719.553 2209.03 775.66 2204.17 804.017C2186.34 907.928 2108.67 995.075 1954.95 995.075C1829.79 995.075 1733.47 955.43 1640.33 854.033C1619.08 830.9 1515.3 913.715 1494.07 883.891C1438.64 883.891 1392.28 365.928 1501.13 210.569C1609.97 55.2099 1781.06 78.0166 1894.71 78.0166Z" fill="white"/>
<path fill-rule="evenodd" clip-rule="evenodd" d="M1553.12 114.5C1618.79 54.7528 1706.28 26.0102 1794.55 28.1318C1840.27 29.2327 1885.82 37.9396 1929 52.8513C1950.59 60.3372 1971.51 70.1049 1991.51 81.1536C1998.71 85.126 2005.35 89.7805 2011.75 94.7237L2013.34 95.9653H2013.36C2030.52 102.13 2045.83 113.199 2059.72 126.149C2087.56 123.927 2115.62 126.429 2142.54 135.016C2180.01 146.985 2214.7 168.903 2239.06 200.027C2267.43 236.262 2276.87 280.215 2273.5 325.587L2272.88 333.295C2269.55 373.376 2263.59 424.929 2230.69 451.265C2228.19 453.267 2225.43 454.788 2222.57 455.709C2243.76 492.017 2261.16 532.329 2271.57 573.041C2311.3 728.543 2280.75 890.711 2232.98 1040.59C2229.05 1052.94 2210.38 1061.15 2200.87 1049.08C2183.9 1027.5 2159.24 1011.05 2131.5 1007.96C2114.38 1006.06 2097.35 1009.5 2081.18 1001.74C2074.83 998.676 2068.71 993.672 2064.3 987.587C2037 997.936 2007.6 1002.82 1978.43 1001.62C1930.58 999.657 1879.42 983.084 1846.49 946.735C1841.21 940.901 1839.87 934.349 1841.08 928.445C1845.21 926.972 1849.45 925.875 1853.82 925.188C1895.57 949.796 1941.6 966.239 1991.06 967.271C2019.64 967.868 2047.52 963.871 2070.69 946.025C2075.71 942.162 2080.32 937.884 2084.58 933.289C2133.03 902.12 2167.2 849.18 2183.44 792.474C2198.57 739.592 2196.71 684.529 2191.5 630.286L2188.76 601.662C2184.75 559.651 2181.04 517.514 2180 475.324L2180.32 475.308V475.308C2190.55 474.647 2190.62 458.629 2180.32 459.295C2153.66 461.021 2127.2 456.647 2100.62 458.553C2100.4 445.989 2099.5 433.481 2095.8 421.363C2093.7 414.44 2081.64 413.075 2080.36 421.363C2078.65 432.452 2078.03 443.479 2077.84 454.618C2038.07 454.089 1998.33 450.743 1958.56 452.118C1951.22 444.292 1948.88 430.415 1945.45 420.761C1944.95 419.34 1944.45 417.939 1943.93 416.518C1940.91 430.313 1936.64 443.805 1931.01 457.014L1921.26 457.047C1865.9 457.306 1809.42 458.961 1755.37 470.456C1751.61 467.572 1749.38 462.54 1748.77 457.97C1744.85 428.235 1739.26 399.291 1729.34 370.954L1727.92 366.957C1727.81 366.625 1727.68 366.273 1727.56 365.902C1720.25 377.697 1711.53 388.692 1702.02 398.93C1696.41 404.965 1690.54 410.735 1684.51 416.342C1678.65 422.847 1672.59 429.254 1666.73 435.779C1666.96 436.966 1667.16 438.171 1667.32 439.398C1669.11 452.938 1669.3 466.671 1667.98 480.264C1665.61 504.837 1658.67 528.516 1647.52 550.421L1647.17 552.614C1645.48 562.88 1643.07 573.489 1637.45 581.219C1644.47 589.082 1649.87 598.473 1653.01 608.907C1655.8 618.197 1642.94 626.247 1636.28 618.645C1630.99 612.606 1625.1 607.608 1618.64 603.621C1618.23 604.175 1617.5 604.448 1616.67 603.985C1598.68 593.997 1568.11 597.02 1550.14 606.427C1527.78 618.116 1519.05 642.115 1521.54 666.434C1523.92 689.673 1534.08 716.834 1553.8 728.744C1562.85 734.208 1569.89 734.668 1579.5 732.046C1582.57 731.212 1586.38 728.653 1588.02 727.382L1589.62 726.092C1595.92 721.114 1601.79 717.706 1609.22 717.575C1616.83 715.203 1624.47 718.493 1627.38 726.467L1627.56 726.982C1628.92 731.045 1631.4 736.149 1630.86 742.354C1630.3 748.999 1627.26 755.044 1622.71 759.908C1621.93 760.749 1621.09 761.589 1620.23 762.37C1698.49 847.097 1708.54 979.121 1668.41 1084.96C1666.67 1089.61 1664.81 1094.19 1662.87 1098.73C1656.16 1114.31 1630.34 1109.48 1627.06 1094.05C1626.08 1089.43 1625 1084.82 1623.82 1080.26C1621.64 1071.83 1619.16 1063.47 1616.35 1055.24L1615.29 1052.16C1612.91 1045.35 1610.69 1038.49 1608.28 1031.68L1608.04 1030.9C1607.95 1030.6 1607.85 1030.24 1607.74 1029.84L1603.68 1038.71V1038.71L1591.33 1065.47C1585.55 1077.96 1567.19 1071.17 1566.51 1059.14L1566.49 1058.72C1566.43 1056.5 1566.35 1054.3 1566.21 1052.12C1565.33 1035.77 1562.51 1019.87 1558.02 1004.32L1556.41 1006.33C1532.32 1036.11 1504.05 1064.02 1465.27 1070.89C1455.54 1072.61 1444.53 1062.45 1451.22 1052.62C1453.98 1048.56 1456.64 1044.39 1459.17 1040.17C1456.98 1039.15 1454.92 1038.09 1453.02 1037.01C1438.31 1028.74 1426.06 1016.97 1415.93 1003.62C1394.46 975.318 1386.77 939.69 1384.89 904.822C1382.89 867.973 1386.13 829.123 1396.2 793.575C1400.56 778.202 1406.46 763.451 1413.29 749.14C1412.81 747.859 1412.35 746.578 1411.89 745.297C1404.52 724.76 1398.48 703.764 1393.45 682.527C1383.33 639.653 1377.88 595.419 1377.22 551.364C1376.02 472.442 1389.63 392.259 1418.31 318.661C1447.94 242.761 1492.49 169.643 1553.12 114.5ZM1516.23 804.524C1510.79 795.959 1497.18 803.677 1502.23 812.302L1502.42 812.61C1511.05 826.201 1515.09 841.653 1520.05 856.805C1523.24 866.552 1538.71 862.389 1535.49 852.541L1534.42 849.253C1529.48 833.888 1524.97 818.273 1516.23 804.524ZM1563.61 641.034L1567.22 639.286C1578.62 633.846 1588.61 630.14 1602.08 634.89C1620.11 641.235 1639.43 661.431 1627.24 681.026C1622.75 688.252 1614.79 691.134 1606.58 689.433C1592.75 686.563 1589.18 674.105 1582.16 663.878L1580.95 662.146C1576.67 655.958 1571.25 647.403 1564.13 644.978C1562.51 644.417 1561.83 641.895 1563.61 641.034ZM1573.77 224.989L1574.94 223.946C1582.68 217.1 1571.31 205.811 1563.61 212.617C1528.34 243.781 1516.09 292.56 1497.8 334.132C1493.69 343.48 1507.48 351.646 1511.63 342.219C1529.08 302.548 1540.66 255.094 1573.77 224.989V224.989ZM1997.59 211.356C1988.38 207.203 1980.31 220.614 1989.17 225.03L1989.5 225.187C2020.65 239.258 2033.9 271.123 2046.59 300.706C2050.63 310.154 2064.42 302.008 2060.42 292.64L2058.13 287.332C2044.89 256.845 2029.45 225.77 1997.59 211.356ZM2046.41 192.101C2036.64 188.718 2032.46 204.17 2042.15 207.553C2068.55 216.74 2086.66 236.556 2101.93 259.214C2107.66 267.7 2121.53 259.694 2115.74 251.127C2098.01 224.827 2076.95 202.749 2046.41 192.101Z" fill="black"/>
<path fill-rule="evenodd" clip-rule="evenodd" d="M2025.54 795.33C2028.61 789.992 2035.68 785.046 2042.15 785.805C2071.13 789.203 2071.08 824.339 2059.89 844.851C2049.97 863.039 2029.44 873.716 2008.88 872.157C1987.29 870.517 1968.9 857.823 1960.8 837.625C1955.45 824.265 1952.97 799.599 1967.22 790.622C1967.48 790.454 1967.92 790.496 1968.13 790.738C1974.96 798.683 1975.22 810.61 1981.2 819.455C1986.76 827.682 1995.4 834.475 2005.52 835.524C2013.08 836.308 2020.73 833.582 2023.68 826.797C2025.28 823.127 2025.1 821.134 2024.5 818.608L2023.95 816.413C2022.06 808.724 2021.21 802.869 2025.54 795.33ZM2033.29 641.239C2048.41 650.426 2071.44 671.849 2055.18 694.626C2036.04 714.708 2008.48 691.682 1994.9 681.268C1982.31 673.197 1968.16 693.955 1979.84 703.379C2077.97 776.027 2117.79 643.641 2040.94 630.437C2032.47 628.982 2029.33 638.397 2033.29 641.239ZM1873.68 578.24C1882.96 564.321 1904.13 566.371 1909.24 582.888C1912.01 591.835 1908.19 599.877 1908.39 608.812C1908.55 616.36 1908.06 624.771 1905.75 632.08C1900.47 648.749 1885.48 660.523 1867.74 660.034C1850.06 659.548 1834.49 648.359 1827.09 632.601C1819.66 616.782 1821.23 600.411 1826.66 584.327C1826.92 583.554 1827.93 583.18 1828.54 583.83C1834.95 590.644 1839.65 597.837 1844.5 605.468L1849.48 613.288C1853.28 619.177 1858.81 626.699 1865.91 626.227L1866.98 626.122C1868.95 625.952 1868.65 626.344 1870.17 623.654C1870.88 622.409 1870.75 620.095 1871.09 618.626L1871.21 618.129V618.129L1871.14 617.862C1870.99 617.15 1870.84 615.81 1870.72 613.483L1870.7 612.969C1870.18 602.087 1867.11 588.102 1873.68 578.24ZM2108.85 587.506C2107.19 569.704 2132.21 565.751 2140.53 578.924C2144.87 585.793 2146.14 594.422 2147.1 602.597L2147.55 606.477C2148.53 614.874 2148.92 623.609 2145.28 631.441C2139.53 643.777 2127.05 650.298 2113.58 649.265C2100.72 648.276 2088.99 640.82 2082.81 629.501C2077.29 619.401 2071.81 599.682 2078.51 589.148C2078.91 588.509 2079.72 588.427 2080.27 588.919C2086.6 594.538 2087.63 604.786 2091.4 612.106C2095.28 619.656 2101.16 627.013 2110.09 628.16C2118.62 629.257 2121.88 624.596 2119.7 616.459C2116.89 605.955 2109.91 598.809 2108.85 587.506ZM1880.44 472.404L1884.53 470.836C1898.56 465.539 1917.81 459.415 1929.21 470.818C1936.24 477.85 1937.58 488.208 1932.56 496.789C1926.48 507.183 1915.57 507.439 1905.03 508.97C1893.05 510.712 1880.86 514.022 1869.71 518.742C1857.14 524.06 1845.48 530.689 1834.05 538.093C1823.19 545.129 1812.37 556.628 1799.36 558.796C1798.83 558.884 1798.23 558.655 1798.09 558.073C1795.14 545.363 1803.35 532.855 1810.67 522.939C1819.53 510.934 1830.26 501.08 1842.26 492.245C1853.84 483.717 1867.07 477.554 1880.44 472.404ZM2135.18 517.593L2136.43 517.374C2144.93 515.958 2152.64 516.284 2159.05 523.019C2163.94 528.157 2165.82 534.816 2163.49 541.609C2161.34 547.876 2156.53 554.243 2149.54 555.556C2125.97 559.992 2099.85 559.259 2076.16 555.901C2065.32 554.363 2054.38 552.482 2043.82 549.516L2038.96 548.107C2030.15 545.589 2020.05 542.959 2013.65 536.475C2011.35 534.146 2012.68 530.811 2015.43 529.732C2026.6 525.357 2041.92 527.685 2053.83 527.342C2067.69 526.946 2081.57 525.907 2095.36 524.476C2108.84 523.075 2121.88 520.031 2135.18 517.593Z" fill="black"/>
<path fill-rule="evenodd" clip-rule="evenodd" d="M2256.91 532.215C2255.22 531.932 2253.52 531.666 2251.82 531.417C2250.5 530.664 2248.95 530.085 2247.14 529.736C2243.01 528.687 2238.91 527.979 2234.82 527.598C2176.06 514.357 2040.14 533.157 2034.53 583.367C2015.82 589.621 1999.63 584.02 1977.94 584.577C1961.43 515.485 1676.06 525.237 1662.33 566.892C1662.28 566.878 1662.23 566.865 1662.18 566.849C1648.99 562.762 1629.55 563.747 1614.45 563.1C1582.22 562.423 1549.96 565.3 1518.42 572.107C1459.38 581.505 1378.79 592.506 1419.85 666.348C1419.86 666.36 1419.87 666.375 1419.88 666.387L1419.88 666.381C1426.96 673.646 1438.97 667.795 1439.42 657.961C1425.61 622.979 1456.8 618.778 1480.79 608.725C1540.5 587.246 1601.28 584.268 1663.03 590.912C1667.68 596.389 1674.73 601.165 1682.18 603.664C1723.46 610.527 1701.7 641.196 1727.8 645.656C1723.01 752.562 1852.62 810.917 1927.72 740.641C1957.7 711.284 1964.85 667.795 1971.8 628.596C1975.48 627.769 1977.81 625.756 1979.18 623.092C1988.02 614.254 1993.57 606.092 2011.05 603.664C2028.53 601.239 2041.99 606.108 2043.81 607.599C2044.27 608.525 2044.76 609.453 2045.34 610.381C2046.14 611.765 2047.22 612.868 2048.46 613.736C2031.2 720.193 2113.72 787.518 2197.04 732.304C2233.24 698.202 2240.89 645.992 2242.4 599.392C2247.31 596.426 2250.42 590.679 2248.72 583.453C2246.38 573.493 2251.87 564.869 2260.61 560.539C2271.97 554.915 2269.96 534.378 2256.91 532.215M1898.92 582.719C1888.58 580.441 1884.16 596.408 1894.53 598.692C1901.88 600.31 1908.11 604.019 1912.31 610.304L1912.76 610.988C1918.4 619.983 1932.67 611.679 1926.99 602.626C1920.6 592.439 1910.66 585.303 1898.92 582.719ZM2201.8 572.82C2198.16 570.248 2192.64 572.157 2190.52 575.791C2188.2 579.793 2189.72 584.248 2193.14 586.866L2193.48 587.122C2196.62 589.332 2199.67 593.294 2200.05 597.354L2200.08 597.862C2200.49 608.487 2216.98 608.541 2216.57 597.862C2216.17 587.416 2210.13 578.688 2201.8 572.82Z" fill="black"/>
</svg>
