<svg width="926" height="2570" viewBox="0 0 926 2570" fill="none" xmlns="http://www.w3.org/2000/svg">
<path fill-rule="evenodd" clip-rule="evenodd" d="M895.034 1101.96C883.408 1018.22 865.819 932.328 821.4 854.768C806.138 754.468 831.852 610.819 714.993 543.183C716.487 531.175 689.422 520.826 676.875 514.416C656.494 503.799 628.928 482.94 604.803 494.626C597.193 492.779 578.425 500.339 569.785 483.942C560.935 467.147 562.221 433.471 555.164 430.396C558.278 406.127 421.079 389.889 385.271 424.193C368.268 450.505 387.798 458.881 349.459 493.469C332.529 494.296 316.379 497.709 300.765 502.388C287.872 503.806 275.048 505.531 262.282 507.325C99.4534 519.308 87.1429 615.12 72.7111 718.009C60.3548 856.22 6.68107 993.914 29.8856 1133.21C17.0605 1183.02 16.2171 1236.17 31.5313 1285.51C-18.6814 1343.83 17.7161 1376.09 49.0344 1431.54C54.3347 1441.51 58.9475 1451.79 61.2934 1462.43C60.6745 1470.68 60.7433 1478.93 62.5654 1487.11C67.8807 1505.76 106.974 1503.15 108.716 1484.31C111.773 1471.94 110.825 1459.1 113.196 1446.67C113.059 1447.31 112.818 1448.56 112.818 1448.65C118.552 1417.36 127.793 1405.23 153.321 1381.35C186.097 1343.67 165.942 1296.33 173.422 1254.16C175.472 1240.07 178.184 1226.16 179.998 1212.05C191.05 1217.21 203.064 1221.53 215.616 1224.22C207.707 1272.75 221.464 1321.5 236.759 1368.44C278.155 1489.35 333.038 1613.52 309.2 1740.4C309.211 1740.34 283.207 1844.11 262.669 1895.33C237.836 1960.28 217.843 2025.35 182.71 2087.64C163.894 2132.47 124.085 2175 125.631 2223.26C111.887 2239.42 136.634 2258.84 158.441 2258.79C158.441 2280.67 143.91 2321.9 143.91 2321.9C141.627 2337.18 131.794 2356.65 146.66 2369.63C126.45 2410.55 119.349 2454.83 113.803 2498.14C111.684 2518.69 109.254 2543.45 136.919 2555.1C162.694 2563.97 192.7 2560.07 220.223 2562.71C246.851 2562.74 274.405 2568.29 300.593 2563.5C330.671 2556.69 336.727 2530.79 331.063 2510.07C327.41 2488.51 323.032 2467.01 318.242 2445.57C304.029 2398.9 300.051 2347.11 281.844 2302.2C292.044 2300.69 302.28 2296.6 309.2 2290.64C326.781 2290.18 339.743 2279.78 344.05 2267.48C347.159 2259.55 360.545 2257.92 369.56 2255.4C371.246 2262.25 376.173 2268 380.184 2274.23C376.759 2287.45 388.192 2302.9 407.07 2303.21C409.797 2305.29 412.33 2307.42 415.115 2309.41C393.649 2334.52 377.73 2362.88 373.698 2392.79C368.84 2415.73 363.756 2452.5 401.958 2459.29C416.381 2460.8 431.901 2463.74 446.034 2459.56C461.791 2465.18 478.543 2467.88 495.508 2470.28C568.217 2480.04 638.342 2479.22 711.657 2485.77C731 2487.91 808.501 2494.23 821.4 2485.77C837.135 2488.33 827.62 2479 834.241 2470.28C839.513 2463.74 853.592 2451.2 844.504 2447.57C825.436 2441.03 808.533 2428.16 791.087 2420.85C709.555 2383.97 533.699 2321.15 534.919 2319.38C534.679 2320.63 535.985 2289.05 542.504 2280.67C551.673 2273.44 569.948 2274.71 579.519 2267.8C585.593 2268.03 631.165 2257.61 627.264 2240.15C622.265 2226.22 638.595 2209.14 627.264 2197.38C664.78 1924.97 752.079 1660.77 800.256 1389.81C801.322 1389.07 802.377 1388.32 803.442 1387.57C828.286 1390.88 847.585 1371.04 855.128 1355.42C858.761 1352.49 862.256 1349.47 865.465 1346.2C885.708 1325.27 886.071 1298.01 888.374 1273.12C893.382 1270.19 896.602 1265.65 896.877 1260.28C897.678 1244.27 898.532 1228.27 899.375 1212.27C899.387 1212.27 899.387 1212.27 899.387 1212.26C905.621 1204.31 906.469 1195.35 904.693 1186.23C905.347 1156.73 911.065 1129.1 895.034 1101.96Z" fill="white"/>
<path fill-rule="evenodd" clip-rule="evenodd" d="M384.451 421.284C384.826 418.672 389.21 418.712 389.628 421.284C394.238 452.368 378.797 488.054 340.82 502.539C369.296 522.533 389.338 549.263 423.508 564.357C495.203 601.485 598.812 566.745 614.755 501.266C597.06 498.04 564.089 498.313 558.717 481.879C556.12 479.764 554.782 461.634 554.942 448.263C554.78 445.777 554.68 443.289 554.574 440.819C554.302 438.818 554.225 436.778 554.253 434.727C554.308 430.275 562.691 430.362 563.043 434.727C563.188 436.516 563.285 438.328 563.377 440.148C563.438 440.629 563.521 441.108 563.595 441.587C564.748 444.917 565.546 448.397 566.488 451.557C566.994 453.258 567.52 454.978 568.082 456.696C568.89 461.198 570.337 465.597 572.814 469.762C579.4 480.837 595.642 490.347 611.652 490.449C615.081 490.471 618.491 490.071 621.924 490.139C627.514 490.253 632.081 492.013 637.069 493.806C641.572 495.425 645.802 496.519 650.147 496.514C829.373 544.831 804.696 721.705 831.994 841.288C859.817 960.047 917.292 1074.54 925.752 1195.91C928.288 1208.5 910.801 1213.17 899.955 1219.12C897.063 1250.78 913.825 1282.83 902.2 1314.17C891.447 1339.79 848.093 1401.39 806.666 1391.69C759.691 1675.48 650.513 1938.49 640.184 2225.73C650.642 2249.75 620.614 2267.19 592.916 2270.7L589.141 2272.43C576.513 2278.19 563.466 2283.83 549.651 2287.39C549.305 2287.55 548.96 2287.71 548.609 2287.87C547.936 2288.16 547.214 2288.33 546.477 2288.42C547.25 2295.77 550.173 2302.68 553.941 2309.39C611.408 2319.93 661.881 2347.6 715.919 2365.69C750.777 2382.74 857.185 2407.37 865.265 2437.31L865.48 2438.22C868.728 2451.64 859.652 2468.19 840.435 2469.46C850.466 2475.36 843.896 2487.29 832.968 2489.59C819.835 2492.37 805.583 2491.18 792.066 2492.04C664.554 2495.23 535.919 2486.27 411.63 2463.54C401.191 2461.63 390.32 2459.12 381.523 2454.17C327.585 2420.23 383.727 2348.4 396.985 2304.37C392.171 2303.76 387.41 2302.93 382.733 2301.82L381.688 2301.57C377.143 2300.48 372.444 2299.17 368.914 2296.62C368.77 2296.51 368.648 2296.39 368.511 2296.28C345.788 2296.03 368.931 2256.25 370.974 2245.6C361.74 2261.24 354.2 2277.93 343.14 2292.81C335.525 2301.99 318.825 2295.62 307.609 2294.98C311.339 2349.4 327.675 2402.45 344.454 2455.18C358.079 2498.96 381.47 2551.57 304.281 2564.88C251.115 2575.95 124.424 2571.72 101.763 2525.44C95.0794 2487.76 109.716 2449.57 116.954 2412.44L118.224 2407.16C126.865 2371.05 134.854 2334.78 147.386 2299.36C149.11 2293.59 151.233 2287.93 153.518 2282.32C153.815 2279.04 154.032 2275.76 153.764 2272.48C153.415 2268.17 152.391 2263.95 151.304 2259.73C151.165 2259.19 151.039 2258.57 150.911 2257.9C128.524 2249.69 111.901 2240.4 109.756 2230.38C107.561 2220.87 111.998 2211.23 115.288 2202.15L115.48 2201.62C187.577 2000.33 324.717 1818.94 301.345 1604.23C292.748 1498.62 229.844 1401.49 219.23 1296.16C213.125 1275.15 207.611 1253.92 206.724 1232.26C202.952 1231.55 199.153 1230.91 195.401 1230.14C193.2 1239.5 190.417 1248.79 185.854 1257.53C184.094 1274.82 185.219 1292.29 189.002 1309.38C189.874 1313.32 187.462 1316.75 183.379 1318.01C193.189 1342.31 195.124 1372.8 169.824 1391.63L167.728 1392.73C145.749 1404.36 143.452 1407.66 138.339 1429.33L121.511 1484.11C119.401 1490.89 116.873 1497.8 110.793 1503.12C94.6579 1517.24 68.9759 1508.02 60.6552 1492.97C53.0604 1477.55 53.1179 1460.57 47.573 1444.68C43.3581 1428.27 31.67 1414.26 20.0855 1400.5C-5.81064 1368.92 -7.87755 1324.95 20.9973 1294.02C23.5195 1288.9 25.8287 1283.86 28.5076 1278.83C18.5156 1269.51 24.9463 1254.83 23.799 1243.43C23.7798 1234.01 23.5623 1224.6 23.2017 1215.19C21.0942 1159.6 13.8938 1104.36 13.6323 1048.77C10.8318 973.849 35.6302 901.274 50.0074 827.791C62.3694 755.226 61.7112 681.242 81.9364 609.522C119.576 468.747 330.789 522.417 366.522 466.942C377.319 453.061 382.153 437.264 384.451 421.284ZM126.454 2508.19C123.259 2526.91 139.795 2531.4 158.757 2537.09C207.104 2551.19 262.927 2554.53 312.068 2541.09C320.777 2538.16 327.007 2533.78 330.101 2527.36C261.901 2532.31 190.286 2528.71 126.454 2508.19ZM386.465 2424.83C390.744 2441.64 417.99 2443.62 436.234 2446.45C479.803 2453.7 523.796 2459.52 568.036 2463.63C653.765 2471.86 740.49 2473.27 826.639 2470.15C828.967 2469.35 830.46 2467.81 833.397 2467.82L833.756 2467.82C833.922 2467.82 834.078 2467.84 834.241 2467.84C832.808 2467.09 831.582 2466.1 830.673 2464.94C682.595 2452 533.619 2443.19 386.465 2424.83ZM531.23 2280.67C495.665 2285.58 459.363 2288.17 423.454 2283.71C421.032 2307.33 409.527 2330.28 400.478 2352.89C450.093 2363.32 482.93 2319.56 527.31 2311.22C524.796 2300.77 525.687 2289.78 531.23 2280.67ZM164.66 2262.6C164.78 2262.77 164.843 2262.96 164.819 2263.2C164.647 2290.73 161.136 2318.16 156.034 2345.41C187.559 2318.4 240.32 2311.56 283.773 2322.79L283.582 2321.03C282.466 2311.06 280.796 2300.84 282.842 2290.96L280.85 2290.52C258.438 2285.6 205.739 2275.74 164.66 2262.6ZM814.001 1224.33C619.88 1265.77 413.243 1268.37 217.094 1234.11C226.877 1259.05 234.222 1284.45 239.412 1310.19C250.535 1376.4 281.173 1438.97 301.812 1503.48C325.624 1579.61 331.297 1643.72 319.446 1721.49L319.082 1723.85C292.989 1898.24 186.133 2057.45 135.931 2226.76C195.01 2255.27 267.992 2266.42 335.733 2278.21C378.308 2208.38 414.283 2136.77 437.858 2061.59C522.785 1825.59 634.691 1603.37 609.834 1354.21C604.293 1351.31 606.096 1345.21 609.141 1341.32C608.088 1323.34 606.632 1305.38 604.249 1287.51C604.169 1286.9 605.441 1286.78 605.598 1287.36C609.539 1302.68 613.677 1317.95 617.139 1333.34C641.006 1314.02 656.44 1289.88 677.428 1268.92C680.416 1284.57 639.501 1345.18 621.499 1354.56C659.858 1541.93 595.979 1713.44 526.984 1891.64C480.556 2019.59 435.447 2147.91 387.546 2275.51C388.126 2275.51 388.708 2275.52 389.289 2275.53C386.409 2271.32 447.373 2274.23 452.379 2272.11C497.275 2268.73 541.217 2260.27 584.886 2251.79L590.244 2250.69C601.124 2248.41 613.756 2245.14 615.713 2235.89L615.741 2234.73C615.754 2234.38 615.773 2234.11 615.809 2234.08L615.496 2233.04C615.428 2232.8 615.382 2232.61 615.391 2232.56L614.957 2232.04C614.457 2231.47 613.988 2230.96 614.654 2231.54C609.721 2227.26 609.274 2220.63 614.968 2216.54C625.638 1904.88 751.85 1619.64 798.593 1311.46C803.226 1282.37 808.881 1253.38 814.001 1224.33ZM40.7502 1284.67C18.3049 1306.84 14.4494 1337.79 23.2986 1364.81C27.9452 1378.22 37.3399 1389.51 47.0265 1401.01C64.0115 1420.18 71.9331 1442.45 76.2541 1465.28L76.3758 1465.71C78.3468 1473.05 79.5698 1493.3 92.6057 1491.02C96.0292 1489.27 97.6693 1481.57 98.8737 1477.55L113.922 1428.56C118.278 1414.38 120.89 1397.52 136.324 1387.7L138.148 1386.78C150.756 1380.33 163.054 1372.85 165.032 1360.29C169.376 1344.89 161.3 1329.98 158.283 1315.01C118.032 1307.68 78.7346 1297.35 40.7502 1284.67ZM895.035 1221.38L893.689 1221.9C878.207 1228.04 832.014 1247.89 820.101 1240.27C820.383 1285.65 815.812 1330.8 809.115 1375.81C810.827 1375.51 812.593 1375.55 814.175 1376.01C847.761 1368.62 884.251 1318.13 887.067 1292.19C889.365 1268.58 883.467 1243.94 895.035 1221.38ZM342.869 525.871L341.158 524.071C322.976 505.049 312.774 498.256 281.333 508.405C285.559 512.564 287.549 518.136 285.747 523.907L285.627 524.275C275.707 556.721 224.823 575.52 187.578 557.866C174.565 560.559 160.997 553.122 160.473 542.582C123.618 559.83 106.589 591.43 99.6785 623.167C123.872 613.043 156.405 622.706 166.06 642.84C187.224 679.637 125.548 717.917 87.9363 686.931C79.7869 748.999 75.9619 811.541 61.1171 872.962C72.1188 858.578 98.3497 855.193 113.991 867.03C165.208 902.177 106.301 982.025 44.3879 943.959C36.8844 978.15 34.237 1012.83 34.5887 1047.41C54.4283 1041.34 65.2892 1068.6 66.7273 1080.13C68.5237 1094.02 59.5055 1123.13 38.372 1124.78L40.1102 1146.98C43.0631 1185.04 45.687 1223.06 45.0303 1261.22C46.0931 1261.43 46.998 1261.81 47.7554 1262.31C47.8106 1263.42 47.9943 1264.52 48.258 1265.61C48.5184 1266.69 49.3828 1267.26 50.4016 1267.44L50.4365 1267.48C50.3903 1268.25 50.2021 1269.01 49.8415 1269.74C88.6316 1282.65 128.675 1293.31 169.461 1301.7C168.459 1290.91 168.713 1280.14 170.125 1269.48C154.704 1257.82 173.672 1215.51 175.491 1199.06C182.617 1166.11 188.04 1132.95 192.834 1099.74C178.519 1098.77 171.189 1086.89 167.425 1077.22C162.518 1066.57 159.558 1055.2 163.014 1044.01C166.519 1030.68 185.303 1017.94 203.019 1022.64L204.134 1013.71C211.149 957.159 217.278 900.515 227.779 844.278C193.483 859.489 161.099 826.41 169.382 800.734C171.808 789.833 180.157 779.272 192.478 773.609C203.376 768.631 225.901 763.698 233.046 774.652C236.394 774.993 239.53 776.291 241.899 778.207C249.308 747.708 258.319 716.975 272.658 688.068C227.335 665.437 235.813 608.457 295.465 608.381C375.907 613.858 354.508 707.137 276.922 689.595C252.552 806.333 238.509 924.035 226.045 1041.85C235.425 1054 233.94 1072.03 221.069 1082.26C215.471 1124.88 208.68 1167.41 199.758 1209.69C258.769 1220.14 318.507 1228.79 378.894 1232.78C381.797 1217.93 402.115 1210.01 419.674 1208.81C431.301 1207.82 443.95 1211.33 455.056 1213.01C468.476 1217.09 479.456 1226.48 484.358 1236.71C540.731 1236.98 597.137 1234.15 652.983 1228.35C647.342 1206.02 688.231 1188.99 713.125 1192.47C723.088 1193.44 732.807 1196.44 740.274 1201.79C747.565 1203.02 754.42 1208.02 756.23 1214.05C776.002 1210.31 796.254 1207.46 815.356 1201.91C834.101 1197.02 840.226 1184.76 835.37 1170.26C782.357 1187.14 737.376 1120.18 787.961 1095.96C794.437 1092.15 807.932 1089.69 811.725 1096.89C812.372 1096.98 813.015 1097.09 813.654 1097.21C809.444 1083.43 805.21 1069.66 800.976 1055.89C776.67 1054.04 768.556 1025.7 788.74 1015.74C781.872 992.895 775.212 970.003 768.958 947.045C735.65 952.503 708.041 919.576 715.09 895.788L715.314 895.07C719.293 882.14 731.4 869.424 749.284 867.276C745.059 847.847 741.283 828.352 738.104 808.793C733.497 804.895 731.435 799.084 733.228 793.941C734.527 756.343 724.932 717.632 728.8 679.498C693.454 713.635 619.806 690.399 636.629 645.353C635.645 603.624 710.286 588.834 735.457 625.725C738.153 617.856 741.617 610.027 743.312 601.913C743.57 600.981 745.379 601.169 745.487 602.043L745.492 602.143C749.242 655.507 746.482 709.22 753.689 762.526C780.623 763.577 791.626 814.623 762.366 818.287C773.431 877.633 790.052 936.205 808.116 994.501C839.504 988.096 851.64 1041.7 825.799 1050.72C833.319 1074.42 840.802 1098.11 848.106 1121.85L848.247 1121.8C852.041 1116.62 862.155 1117.2 868.658 1118.18C890.137 1124.47 881.057 1155.36 857.672 1153.47C870.428 1183.97 862.341 1212.27 819.781 1222.75L819.804 1223.73C821.121 1222.91 822.724 1222.24 824.662 1221.81C851.258 1215.88 876.093 1206.66 899.009 1194.71C892.267 1106.64 860.176 1021.26 834.21 935.822C804.368 932.042 794.852 894.062 818.13 880.075C802.014 823.352 797.373 765.347 789.488 707.742C767.994 704.02 762.564 676.616 781.969 668.222C769.672 596.684 723.374 536.382 636.988 505.715C634.187 515.897 629.538 525.784 623.318 535.037C623.901 535.063 624.464 535.119 625.015 535.192C625.16 535.398 625.334 535.601 625.572 535.795C630.251 539.597 633.249 543.876 635.151 548.457C635.334 549.441 635.538 550.424 635.748 551.406C635.538 551.809 635.305 552.207 635.037 552.597C644.293 580.55 600.911 594.84 571.62 588.587C567.08 587.878 564.112 585.856 562.529 583.3C510.671 605.451 442.992 600.783 396.275 571.494C362.321 585.901 318.603 552.258 342.869 525.871ZM99.5259 1152.61C149.144 1146.81 165.374 1210.15 125.383 1227.74C112.489 1233.82 94.7576 1234.35 82.062 1227.63C48.2576 1211.37 57.6602 1155.95 99.5259 1152.61ZM288.396 1114.71C351.546 1114.49 356.947 1191.45 301.865 1205.3C260.904 1214.69 220.778 1178.64 241.785 1148.59C243.726 1129.89 264.1 1114.98 288.396 1114.71ZM485.167 1121.69C488.453 1101.81 514.696 1082.82 541.109 1088.29C565.313 1093.13 571.624 1115.54 575.916 1132.13C585.674 1166.49 536.521 1201.33 495.106 1182.41C468.651 1169.87 464.783 1139.19 485.167 1121.69ZM626.206 1005.67C635.058 994.521 654.887 989.608 671.076 993.495C715.476 1004.71 710.202 1061.04 674.473 1077.83C613.098 1103.25 564.15 1030.17 626.206 1005.67ZM337.03 1038.58C335.992 1005.11 379.635 974.64 420.632 993.666C486.987 1028.85 419.033 1109.58 355.367 1064.34C344.021 1058.54 337.316 1049.14 337.03 1038.58ZM254.479 953.179C223.769 915.33 276.512 859.222 326.847 895.486C344.111 909.508 343.34 935.22 333.346 951.888C317.089 974.157 271.94 974.678 254.479 953.179ZM477.478 882.201C501.445 863.994 543.323 863.804 561.533 887.827C583.119 917.463 557.358 968.165 508.701 965.755C458.145 962.918 444.295 906.681 477.478 882.201ZM351.908 823.024C313.451 791.851 355.207 741.847 407.364 753.888C492.604 778.707 418.627 872.097 351.908 823.024ZM561.837 815.992C527.583 766.548 610.795 722.091 653.143 769.682C685.624 812.785 597.932 862.543 561.837 815.992ZM450.112 675.338C420.473 634.126 472.268 588.333 526.687 612.521C604.124 655.076 505.003 736.919 450.112 675.338Z" fill="black"/>
<path fill-rule="evenodd" clip-rule="evenodd" d="M473.883 34.5803C537.258 34.5803 616.632 92.0442 639.863 116.497C659.394 137.056 656.631 242.97 656.631 305.798C656.631 318.938 649.158 343.807 646.446 356.376C636.505 402.434 593.196 441.061 507.479 441.061C437.685 441.061 383.974 423.489 332.034 378.545C320.185 368.292 262.315 404.999 250.48 391.78C219.567 391.78 193.718 162.195 254.412 93.3333C315.106 24.4713 410.508 34.5803 473.883 34.5803Z" fill="white"/>
<path fill-rule="evenodd" clip-rule="evenodd" d="M283.405 50.7515C320.025 24.269 368.811 11.529 418.032 12.4694C443.525 12.9573 468.928 16.8166 493.003 23.4261C505.046 26.7442 516.71 31.0737 527.86 35.971C531.878 37.7317 535.582 39.7948 539.148 41.9858L540.037 42.5362H540.048C549.613 45.2687 558.152 50.1748 565.898 55.915C581.423 54.9302 597.071 56.0392 612.083 59.8452C632.977 65.1506 652.32 74.8653 665.903 88.661C681.725 104.722 686.985 124.204 685.108 144.315L684.762 147.731C682.906 165.497 679.581 188.348 661.238 200.021C659.842 200.908 658.302 201.582 656.706 201.99C668.526 218.084 678.225 235.952 684.029 253.997C706.184 322.923 689.152 394.803 662.51 461.235C660.322 466.709 649.909 470.347 644.607 464.997C635.142 455.433 621.392 448.141 605.922 446.774C596.379 445.931 586.881 447.457 577.863 444.015C574.324 442.658 570.909 440.44 568.454 437.743C553.229 442.329 536.833 444.494 520.571 443.962C493.885 443.092 465.356 435.747 446.996 419.635C444.049 417.049 443.303 414.145 443.981 411.528C446.284 410.875 448.648 410.389 451.083 410.085C474.366 420.992 500.03 428.28 527.612 428.738C543.549 429.002 559.095 427.23 572.017 419.32C574.813 417.608 577.385 415.712 579.762 413.675C606.78 399.86 625.829 376.395 634.886 351.26C643.324 327.82 642.286 303.414 639.384 279.371L637.853 266.684C635.621 248.062 633.551 229.385 632.97 210.685L633.146 210.678V210.678C638.851 210.385 638.893 203.285 633.146 203.58C618.28 204.345 603.527 202.406 588.707 203.251C588.583 197.682 588.078 192.138 586.019 186.767C584.844 183.698 578.121 183.093 577.409 186.767C576.456 191.682 576.108 196.57 576.004 201.507C553.825 201.273 531.668 199.789 509.486 200.399C505.394 196.93 504.092 190.779 502.178 186.5C501.899 185.87 501.62 185.249 501.329 184.619C499.647 190.734 497.263 196.714 494.127 202.569L488.687 202.583C457.82 202.699 426.326 203.432 396.185 208.527C394.09 207.249 392.844 205.018 392.507 202.993C390.32 189.813 387.2 176.984 381.67 164.424L380.879 162.652C380.814 162.505 380.746 162.348 380.674 162.184C376.599 167.412 371.738 172.286 366.435 176.824C363.31 179.498 360.033 182.056 356.67 184.541C353.403 187.425 350.027 190.264 346.754 193.157C346.882 193.683 346.994 194.217 347.084 194.761C348.086 200.763 348.189 206.849 347.456 212.874C346.13 223.766 342.262 234.262 336.047 243.971L335.85 244.943C334.907 249.494 333.564 254.196 330.428 257.622C334.342 261.107 337.356 265.27 339.104 269.895C340.66 274.012 333.493 277.581 329.777 274.211C326.824 271.534 323.544 269.319 319.941 267.552C319.714 267.797 319.303 267.918 318.842 267.713C308.808 263.286 291.764 264.626 281.742 268.796C269.274 273.977 264.408 284.614 265.792 295.393C267.12 305.694 272.79 317.733 283.784 323.012C288.829 325.434 292.758 325.638 298.115 324.475C299.828 324.106 301.952 322.971 302.864 322.408L303.761 321.836C307.273 319.63 310.544 318.119 314.69 318.061C318.93 317.01 323.192 318.468 324.814 322.002L324.914 322.231C325.673 324.032 327.057 326.294 326.755 329.044C326.443 331.99 324.746 334.669 322.213 336.825C321.777 337.198 321.309 337.57 320.829 337.916C364.469 375.471 370.072 433.99 347.694 480.904C346.723 482.963 345.685 484.994 344.602 487.008C340.863 493.911 326.465 491.772 324.635 484.932C324.088 482.883 323.485 480.842 322.826 478.819C321.616 475.081 320.229 471.378 318.666 467.729L318.072 466.363C316.744 463.347 315.505 460.304 314.165 457.287L314.031 456.943C313.981 456.806 313.925 456.649 313.864 456.471L311.598 460.401V460.401L304.712 472.263C301.489 477.798 291.25 474.79 290.87 469.456L290.86 469.273C290.827 468.289 290.782 467.313 290.704 466.346C290.213 459.097 288.639 452.053 286.139 445.16L285.237 446.051C271.806 459.25 256.042 471.622 234.418 474.667C228.993 475.43 222.855 470.924 226.582 466.567C228.123 464.766 229.607 462.921 231.013 461.049C229.797 460.597 228.647 460.126 227.587 459.647C219.383 455.983 212.553 450.767 206.905 444.849C194.929 432.304 190.643 416.512 189.594 401.058C188.478 384.724 190.286 367.504 195.9 351.748C198.333 344.934 201.626 338.395 205.432 332.052C205.164 331.484 204.907 330.916 204.65 330.349C200.543 321.246 197.172 311.94 194.371 302.526C188.723 283.523 185.687 263.916 185.319 244.389C184.649 209.407 192.239 173.867 208.233 141.245C224.752 107.602 249.597 75.1935 283.405 50.7515ZM262.834 356.601C259.801 352.804 252.212 356.225 255.028 360.048L255.133 360.185C259.944 366.209 262.198 373.058 264.966 379.774C266.741 384.094 275.369 382.249 273.572 377.884L272.977 376.427C270.222 369.616 267.71 362.695 262.834 356.601ZM289.253 284.135L291.268 283.36C297.625 280.949 303.195 279.306 310.705 281.411C320.762 284.224 331.532 293.175 324.735 301.861C322.235 305.064 317.793 306.341 313.217 305.587C305.502 304.315 303.511 298.793 299.596 294.26L298.922 293.493C296.536 290.75 293.517 286.958 289.543 285.883C288.639 285.634 288.26 284.516 289.253 284.135ZM294.922 99.7253L295.571 99.263C299.89 96.2288 293.55 91.2251 289.253 94.2415C269.587 108.055 262.756 129.676 252.555 148.103C250.267 152.246 257.957 155.866 260.267 151.687C269.998 134.103 276.458 113.069 294.922 99.7253V99.7253ZM531.253 93.6825C526.114 91.8419 521.619 97.786 526.559 99.7432L526.744 99.813C544.111 106.05 551.499 120.174 558.576 133.287C560.83 137.474 568.52 133.863 566.288 129.711L565.011 127.358C557.628 113.845 549.016 100.071 531.253 93.6825ZM558.475 85.1478C553.029 83.6484 550.696 90.4975 556.098 91.9969C570.82 96.0691 580.921 104.852 589.437 114.895C592.629 118.657 600.364 115.108 597.138 111.311C587.249 99.6533 575.508 89.8676 558.475 85.1478Z" fill="black"/>
<path fill-rule="evenodd" clip-rule="evenodd" d="M435.678 305.616C454.811 303.77 473.357 308.426 492.061 310.773C501.936 312.011 511.824 312.936 521.818 313.28C523.828 313.35 525.839 313.39 527.851 313.423C528.038 312.016 529.029 310.723 531.176 309.949C535.578 308.363 539.101 307.648 543.933 307.801C548.357 307.94 552.796 308.301 557.152 308.935C565.062 310.088 573.007 312.703 578.793 317.248C592.183 327.764 590.145 344.655 579.799 356.109C558.422 379.777 519.408 380.876 485.993 380.567L482.909 380.535C452.485 380.189 408.955 383.795 395.133 356.28C390.05 346.162 390.756 334.434 396.979 324.729C404.402 313.154 420.028 307.125 435.678 305.616ZM530.715 345.023L530.442 345.032C516.415 345.462 502.39 345.764 488.354 345.961C488.774 348.826 489.203 351.692 489.693 354.551C490.077 356.801 490.49 359.048 490.918 361.292C491.1 362.242 491.766 363.718 491.578 364.659L491.51 365.031V365.031C492.23 365.29 492.884 365.708 493.371 366.313C493.54 366.523 493.663 366.734 493.785 366.944C504.682 367.012 516.408 366.844 527.517 365.27L527.539 365.078V365.078C527.741 363.95 528.331 363.191 529.115 362.67C529.896 359.073 529.824 355.24 530.126 351.672C530.314 349.455 530.518 347.239 530.715 345.023ZM477.635 346.113C467.524 346.25 457.409 346.355 447.3 346.257L442.712 346.201V346.201C443.68 350.333 444.735 354.452 445.612 358.612C446.526 362.948 441.725 365.704 437.569 365.593C438.036 365.654 438.502 365.717 438.968 365.769C451.951 367.228 465.432 366.841 478.607 366.829C477.898 363.541 478.185 359.83 478.079 357.085L478.059 356.66C477.858 353.143 477.716 349.628 477.635 346.113ZM408.958 345.355C409.308 347.504 409.991 349.607 411.012 351.565C415.328 359.837 425.223 363.697 435.692 365.323C433.875 364.825 432.433 363.627 432.069 361.575C431.161 356.473 430.835 351.287 430.81 346.107C423.514 346.053 416.169 345.929 408.958 345.355ZM568.764 343.588C563.569 344.563 557.533 344.116 552.436 344.3C547.662 344.472 542.885 344.623 538.111 344.776C538.335 347.367 538.555 349.958 538.793 352.547C539.101 355.894 539.13 359.43 539.936 362.763C549.545 360.156 558.155 355.976 564.615 349.291C566.224 347.626 567.666 345.671 568.764 343.588ZM433.483 319.188C424.836 320.816 416.652 324.254 412.254 330.543C409.644 334.276 408.495 338.699 408.716 343.058C416.024 342.382 423.458 342.125 430.857 341.913C430.881 340.854 430.913 339.796 430.953 338.741L431.067 336.035C431.269 330.875 431.37 324.395 433.483 319.188ZM478.24 319.818L474.433 319.478C463.86 318.52 453.293 317.515 442.719 318.091C441.189 318.175 439.635 318.308 438.078 318.489C439.947 323.85 439.79 330.146 440.571 335.452C440.873 337.504 441.254 339.539 441.676 341.566L443.51 341.498V341.498C454.856 341.009 466.212 340.708 477.567 340.35C477.566 338.656 477.578 336.96 477.612 335.264L477.654 333.567C477.783 329.235 477.431 324.355 478.24 319.818ZM531.333 319.13C520.26 320.551 508.815 320.853 497.937 320.864C493.592 320.868 489.25 320.656 484.91 320.35C485.193 322.187 485.34 324.045 485.552 325.856C485.981 329.517 486.471 333.172 487.003 336.823L487.478 340.018V340.018C501.434 339.515 515.389 338.971 529.342 338.408L531.311 338.324V338.324L531.863 332.184C532.239 328.09 532.652 323.996 533.236 319.92L532.798 319.795V319.795C532.283 319.627 531.796 319.395 531.333 319.13ZM536.142 320.654C536.753 326.443 537.09 332.257 537.539 338.056L546.737 337.665C548.27 337.598 549.803 337.531 551.336 337.461C557.297 337.187 564.956 335.753 570.849 337.091C571.299 332.833 569.767 328.684 564.932 325.824C556.445 320.799 545.637 322.588 536.142 320.654ZM504.716 268.901C518.413 262.666 552.78 256.294 554.956 275.887C555.957 284.904 547.524 292.374 537.677 295.708L537.307 295.831C528.071 298.849 511.7 302.258 503.708 295.713C497.056 290.266 505.879 280.499 514.145 284.961C518.393 287.254 527.334 285.565 532.074 284.474L532.371 284.405C537.486 283.21 544.306 279.385 542.191 274.379C540.319 269.95 532.354 269.141 527.366 268.997C519.921 268.785 512.675 270.159 505.297 270.607C504.129 270.677 503.768 269.333 504.716 268.901ZM561.454 237.395C580.045 236.703 591.609 252.837 587.334 266.057C586.595 268.338 583.385 270.577 580.287 270.321L579.506 270.264C579.109 270.234 578.711 270.194 578.345 270.113C575.403 269.466 572.765 267.033 572.979 264.512L573.036 263.777C573.47 257.532 572.619 250.337 563.281 248.825C555.362 247.542 550.941 253.6 550.848 259.177C550.83 260.167 549.43 260.858 548.329 260.326C542.604 257.557 541.613 252.049 543.799 247.305C546.571 241.294 553.506 237.69 561.454 237.395ZM423.497 240.855C437.026 237.268 451.621 243 458.172 252.507C460.47 253.035 462.765 254.443 462.446 256.599C461.985 259.701 461.29 261.656 458.585 264.008C454.353 267.687 446.428 265.806 444.669 261.277L444.594 261.073C442.596 255.218 434.489 251.355 427.103 253.405C418.476 255.798 418.726 263.041 412.674 267.261C411.963 267.757 411.11 267.836 410.257 267.508C403.83 265.039 404.985 257.608 407.276 253.355C410.282 247.774 416.124 242.81 423.497 240.855ZM405.072 208.2C416.035 199.309 444.621 190.705 452.121 207.124C453.549 210.252 450.508 214.468 446.412 215.117C439.704 216.178 433.753 213.863 427.089 214.278C421.695 214.616 416.069 216.049 411.756 218.706C399.811 226.062 397.184 238.505 388.861 247.868C388.456 248.324 387.669 248.133 387.594 247.595C385.699 233.963 393.065 217.938 405.072 208.2ZM548.044 199.447C555.319 197.405 563.557 197.58 570.87 199.392C578.236 201.217 584.999 204.685 590.209 209.215C592.573 211.271 594.76 213.54 596.515 215.956C597.447 217.236 598.427 219.881 599.486 221.456C605.217 224.086 607.666 230.079 602.536 234.343L602.304 234.53L601.618 235.071C598.86 237.241 594.701 238.181 590.937 237.314C582.512 235.377 581.488 230.102 578.572 224.504C576.646 220.807 573.345 217.535 569.344 215.131C559.887 209.453 544.38 207.644 532.995 210.32C532.389 210.463 531.677 209.849 532.109 209.403C534.266 207.182 535.509 205.359 538.398 203.567C541.33 201.748 544.53 200.434 548.044 199.447Z" fill="black"/>
<path fill-rule="evenodd" clip-rule="evenodd" d="M639.644 246.001C629.002 303.215 554.719 309.543 541.521 252.743C543.64 252.006 545.163 250.554 544.845 247.737C544.77 235.359 549.604 222.276 563.652 215.392C578.168 208.29 595.157 207.585 611.956 207.764C644.013 207.158 643.339 228.456 639.644 246.001M529.892 221.118C519.831 220.781 507.103 221.063 498.09 225.936C495.612 220.632 489.175 214.969 482.67 211.941C506.847 212.504 531.735 210.612 556.093 209.144C550.263 212.303 544.838 217.05 541.312 222.537C538.041 221.15 533.356 221.28 529.892 221.118M485.546 252.067C457.648 328.397 388.012 295.127 380.42 285.345C366.726 269.158 364.15 229.807 376.078 219.286C393.153 209.772 417.325 212.221 437.496 211.987C474.552 212.385 500.871 221.196 485.546 252.067M672.584 216.96C665.004 216.172 656.905 216.013 649.857 218.666C647.688 211.335 640.876 205.207 633.185 202.51C632.254 201.582 632.393 201.083 629.213 201.222C609.687 196.557 587.836 199.026 569.072 203.809C539.436 205.793 508.344 207.357 478.46 210.091C450.465 200.097 365.982 198.633 360.731 223.264C354.127 222.478 342.88 218.347 337.331 223.951C296.624 218.466 254.563 226.089 213.68 229.484C203.389 230.991 198.089 247.225 209.77 247.003C216.337 245.586 209.568 236.894 218.411 236.24C257.856 232.816 296.439 227.958 336.288 227.389C334.902 232.858 362.644 233.214 363.054 230.02C363.113 230.044 363.176 230.06 363.236 230.082C356.381 250.389 362.569 279.615 374.958 292.208C392.316 308.697 435.895 313.428 455.219 302.819C480.145 293.027 506.076 243.875 498.792 227.545C512.012 224.215 525.081 225.214 538.8 226.911C535.659 233.963 530.237 251.324 538.038 252.829C536.606 287.296 576.069 308.803 612.448 294.664C643.935 282.914 654.947 245.725 651.094 223.153C655.014 229.173 687.926 222.619 672.584 216.96" fill="black"/>
</svg>
