<svg width="830" height="2897" viewBox="0 0 830 2897" fill="none" xmlns="http://www.w3.org/2000/svg">
<path fill-rule="evenodd" clip-rule="evenodd" d="M801.908 1242.08C791.491 1147.7 775.732 1050.88 735.935 963.458C722.261 850.404 745.299 688.489 640.599 612.253C641.938 598.717 617.689 587.053 606.447 579.828C588.187 567.861 563.489 544.349 541.875 557.521C535.056 555.439 518.241 563.961 510.5 545.479C502.571 526.548 503.723 488.589 497.4 485.124C500.19 457.769 377.267 439.466 345.184 478.133C329.95 507.79 347.448 517.23 313.099 556.217C297.93 557.149 283.461 560.996 269.471 566.271C257.92 567.869 246.43 569.813 234.992 571.835C89.1055 585.342 78.0759 693.337 65.1457 809.31C54.075 965.094 5.98593 1120.3 26.7761 1277.31C15.2854 1333.45 14.5297 1393.36 28.2505 1448.97C-16.7376 1514.7 15.8728 1551.07 43.9325 1613.57C48.6813 1624.81 52.8141 1636.39 54.9159 1648.39C54.3614 1657.68 54.423 1666.99 56.0556 1676.21C60.8178 1697.23 95.8432 1694.29 97.4039 1673.05C100.143 1659.11 99.2942 1644.64 101.419 1630.62C101.295 1631.35 101.08 1632.75 101.08 1632.86C106.217 1597.59 114.497 1583.91 137.368 1557C166.734 1514.53 148.676 1461.16 155.378 1413.63C157.215 1397.75 159.644 1382.08 161.269 1366.17C171.172 1371.99 181.935 1376.85 193.182 1379.89C186.096 1434.59 198.421 1489.54 212.124 1542.45C249.214 1678.74 298.386 1818.69 277.028 1961.71C277.038 1961.64 253.74 2078.6 235.339 2136.33C213.09 2209.55 195.177 2282.89 163.7 2353.09C146.841 2403.62 111.174 2451.56 112.559 2505.96C100.245 2524.18 122.417 2546.06 141.956 2546.01C141.956 2570.67 128.936 2617.15 128.936 2617.15C126.891 2634.37 118.081 2656.31 131.4 2670.95C113.293 2717.07 106.931 2766.98 101.962 2815.8C100.063 2838.96 97.8865 2866.87 122.673 2880C145.766 2889.99 172.65 2885.6 197.309 2888.58C221.166 2888.61 245.854 2894.87 269.317 2889.46C296.266 2881.79 301.691 2852.6 296.617 2829.25C293.343 2804.94 289.421 2780.71 285.129 2756.54C272.395 2703.94 268.831 2645.56 252.519 2594.95C261.657 2593.24 270.828 2588.63 277.028 2581.91C292.78 2581.39 304.394 2569.67 308.252 2555.81C311.038 2546.87 323.031 2545.03 331.108 2542.19C332.619 2549.91 337.033 2556.39 340.627 2563.41C337.557 2578.31 347.802 2595.74 364.715 2596.08C367.158 2598.43 369.428 2600.83 371.923 2603.07C352.69 2631.37 338.428 2663.34 334.815 2697.05C330.462 2722.91 325.908 2764.35 360.135 2772.01C373.057 2773.71 386.963 2777.02 399.625 2772.31C413.742 2778.65 428.752 2781.68 443.951 2784.4C509.095 2795.39 571.924 2794.47 637.61 2801.85C654.94 2804.26 724.378 2811.39 735.935 2801.85C750.033 2804.73 741.508 2794.22 747.439 2784.4C752.164 2777.02 764.777 2762.89 756.635 2758.79C739.55 2751.42 724.407 2736.92 708.776 2728.68C635.727 2687.11 478.168 2616.3 479.262 2614.3C479.046 2615.71 480.217 2580.12 486.057 2570.67C494.273 2562.53 510.645 2563.96 519.221 2556.17C524.663 2556.43 565.493 2544.68 561.998 2525C557.52 2509.3 572.15 2490.05 561.998 2476.79C595.611 2169.74 673.827 1871.95 716.991 1566.54C717.946 1565.7 718.891 1564.85 719.846 1564.01C742.104 1567.74 759.395 1545.38 766.153 1527.78C769.408 1524.47 772.54 1521.07 775.415 1517.38C793.552 1493.79 793.877 1463.07 795.94 1435C800.427 1431.71 803.312 1426.59 803.559 1420.53C804.276 1402.49 805.041 1384.45 805.797 1366.42C805.807 1366.42 805.807 1366.42 805.807 1366.41C811.393 1357.44 812.153 1347.35 810.561 1337.07C811.148 1303.82 816.27 1272.67 801.908 1242.08Z" fill="white"/>
<path fill-rule="evenodd" clip-rule="evenodd" d="M344.45 474.853C344.786 471.909 348.714 471.954 349.088 474.853C353.218 509.89 339.384 550.113 305.359 566.441C330.872 588.977 348.828 619.106 379.443 636.119C443.678 677.969 536.506 638.811 550.791 565.006C534.937 561.37 505.396 561.678 500.583 543.154C498.257 540.769 497.058 520.334 497.201 505.263C497.056 502.461 496.966 499.657 496.871 496.873C496.628 494.617 496.559 492.318 496.583 490.005C496.633 484.988 504.144 485.086 504.459 490.005C504.59 492.023 504.677 494.065 504.758 496.116C504.813 496.658 504.888 497.198 504.954 497.738C505.987 501.491 506.702 505.414 507.546 508.976C508 510.893 508.47 512.832 508.974 514.768C509.698 519.843 510.994 524.801 513.214 529.496C519.115 541.979 533.666 552.698 548.01 552.814C551.083 552.838 554.139 552.387 557.214 552.464C562.222 552.592 566.314 554.576 570.783 556.597C574.818 558.422 578.607 559.655 582.5 559.649C743.078 614.111 720.969 813.475 745.426 948.264C770.354 1082.12 821.849 1211.18 829.429 1347.98C831.701 1362.17 816.034 1367.43 806.316 1374.14C803.725 1409.83 818.743 1445.96 808.328 1481.28C798.694 1510.15 759.85 1579.59 722.734 1568.65C680.646 1888.53 582.828 2184.98 573.574 2508.75C582.944 2535.82 556.04 2555.48 531.225 2559.44L527.842 2561.39C516.528 2567.88 504.838 2574.23 492.461 2578.25C492.151 2578.43 491.842 2578.61 491.527 2578.79C490.924 2579.11 490.278 2579.31 489.617 2579.41C490.31 2587.7 492.928 2595.48 496.305 2603.05C547.792 2614.93 593.013 2646.12 641.429 2666.51C672.66 2685.72 767.997 2713.48 775.236 2747.23L775.428 2748.26C778.338 2763.38 770.207 2782.04 752.989 2783.47C761.977 2790.12 756.09 2803.56 746.299 2806.16C734.533 2809.29 721.764 2807.95 709.653 2808.93C595.408 2812.51 480.157 2802.42 368.8 2776.8C359.448 2774.64 349.708 2771.82 341.826 2766.23C293.5 2727.98 343.801 2647.01 355.68 2597.39C351.366 2596.71 347.101 2595.76 342.911 2594.52L341.974 2594.24C337.902 2593 333.692 2591.52 330.529 2588.65C330.4 2588.53 330.291 2588.4 330.168 2588.27C309.81 2587.99 330.544 2543.14 332.375 2531.15C324.101 2548.77 317.346 2567.58 307.437 2584.36C300.614 2594.71 285.652 2587.53 275.603 2586.8C278.945 2648.14 293.581 2707.94 308.614 2767.37C320.822 2816.72 341.779 2876.02 272.621 2891.02C224.987 2903.5 111.478 2898.74 91.1743 2846.57C85.1866 2804.1 98.3 2761.06 104.786 2719.2L105.923 2713.24C113.665 2672.55 120.823 2631.67 132.05 2591.74C133.595 2585.24 135.498 2578.86 137.544 2572.53C137.811 2568.84 138.005 2565.15 137.766 2561.44C137.453 2556.58 136.535 2551.83 135.561 2547.07C135.436 2546.46 135.324 2545.76 135.209 2545.01C115.152 2535.75 100.258 2525.28 98.3364 2513.99C96.3696 2503.27 100.345 2492.4 103.293 2482.17L103.465 2481.57C168.06 2254.69 290.93 2050.23 269.991 1808.22C262.288 1689.18 205.929 1579.7 196.419 1460.98C190.949 1437.29 186.01 1413.37 185.215 1388.95C181.836 1388.16 178.432 1387.43 175.07 1386.56C173.098 1397.12 170.604 1407.58 166.516 1417.44C164.94 1436.92 165.947 1456.61 169.337 1475.88C170.118 1480.32 167.957 1484.18 164.298 1485.6C173.088 1513 174.822 1547.36 152.154 1568.58L150.276 1569.83C130.584 1582.94 128.526 1586.65 123.945 1611.08L108.868 1672.82C106.977 1680.47 104.713 1688.25 99.2653 1694.25C84.8089 1710.17 61.7991 1699.78 54.3442 1682.81C47.5396 1665.43 47.5911 1646.29 42.6231 1628.38C38.8467 1609.89 28.3748 1594.1 17.9957 1578.59C-5.20605 1542.99 -7.05791 1493.43 18.8126 1458.56C21.0723 1452.79 23.1413 1447.11 25.5414 1441.44C16.5891 1430.94 22.3507 1414.39 21.3228 1401.54C21.3056 1390.92 21.1107 1380.31 20.7876 1369.71C18.8994 1307.05 12.4482 1244.79 12.2139 1182.13C9.70473 1097.68 31.923 1015.88 44.8042 933.051C55.88 851.258 55.2903 767.868 73.411 687.028C107.134 528.352 296.371 588.846 328.386 526.317C338.06 510.671 342.391 492.865 344.45 474.853ZM113.297 2827.12C110.434 2848.22 125.25 2853.29 142.239 2859.7C185.555 2875.59 235.57 2879.36 279.598 2864.21C287.4 2860.91 292.982 2855.97 295.755 2848.73C234.651 2854.31 170.487 2850.25 113.297 2827.12ZM346.254 2733.16C350.088 2752.11 374.499 2754.34 390.845 2757.53C429.88 2765.7 469.296 2772.26 508.933 2776.9C585.742 2786.17 663.443 2787.76 740.629 2784.25C742.714 2783.35 744.052 2781.62 746.683 2781.62L747.005 2781.63C747.154 2781.63 747.294 2781.64 747.439 2781.65C746.156 2780.8 745.057 2779.69 744.243 2778.37C611.572 2763.79 478.097 2753.85 346.254 2733.16ZM475.957 2570.67C444.092 2576.21 411.568 2579.13 379.394 2574.1C377.225 2600.73 366.917 2626.6 358.809 2652.08C403.262 2663.83 432.682 2614.5 472.445 2605.11C470.192 2593.33 470.991 2580.95 475.957 2570.67ZM147.528 2550.31C147.635 2550.5 147.691 2550.72 147.67 2550.98C147.516 2582.02 144.37 2612.94 139.799 2643.65C168.044 2613.2 215.315 2605.49 254.247 2618.15L254.076 2616.17C253.076 2604.93 251.58 2593.41 253.413 2582.27L251.629 2581.77C231.548 2576.23 184.332 2565.11 147.528 2550.31ZM729.306 1380.02C555.382 1426.72 370.245 1429.65 194.506 1391.03C203.27 1419.15 209.852 1447.77 214.502 1476.79C224.467 1551.42 251.917 1621.95 270.409 1694.66C291.743 1780.47 296.826 1852.73 286.208 1940.39L285.882 1943.05C262.503 2139.62 166.766 2319.07 121.787 2509.9C174.719 2542.05 240.107 2554.61 300.801 2567.9C338.945 2489.2 371.177 2408.48 392.299 2323.73C468.39 2057.72 568.652 1807.26 546.382 1526.4C541.417 1523.14 543.032 1516.27 545.761 1511.88C544.818 1491.62 543.513 1471.37 541.377 1451.22C541.306 1450.54 542.446 1450.41 542.586 1451.06C546.117 1468.32 549.825 1485.54 552.927 1502.88C574.31 1481.11 588.138 1453.9 606.943 1430.28C609.619 1447.92 572.962 1516.23 556.832 1526.8C591.201 1737.99 533.968 1931.32 472.152 2132.18C430.555 2276.39 390.139 2421.03 347.222 2564.85C347.742 2564.86 348.263 2564.87 348.784 2564.88C346.203 2560.13 400.824 2563.41 405.309 2561.03C445.534 2557.21 484.904 2547.68 524.029 2538.12L528.83 2536.88C538.578 2534.32 549.895 2530.63 551.648 2520.2L551.674 2518.89C551.685 2518.5 551.703 2518.19 551.735 2518.16L551.454 2516.99C551.393 2516.72 551.352 2516.51 551.361 2516.44L550.972 2515.87C550.524 2515.22 550.103 2514.64 550.7 2515.3C546.281 2510.47 545.88 2503 550.981 2498.38C560.541 2147.1 673.621 1825.58 715.5 1478.23C719.651 1445.43 724.718 1412.76 729.306 1380.02ZM36.5102 1448.03C16.4003 1473.02 12.946 1507.89 20.8744 1538.35C25.0376 1553.47 33.4547 1566.19 42.1334 1579.16C57.3512 1600.76 64.4486 1625.87 68.3199 1651.6L68.429 1652.09C70.1949 1660.36 71.2906 1683.18 82.9702 1680.61C86.0375 1678.64 87.507 1669.97 88.5861 1665.44L102.068 1610.22C105.971 1594.23 108.312 1575.23 122.14 1564.16L123.774 1563.12C135.07 1555.85 146.088 1547.42 147.861 1533.26C151.752 1515.9 144.517 1499.09 141.814 1482.22C105.751 1473.97 70.5424 1462.32 36.5102 1448.03ZM801.908 1376.68L800.701 1377.28C786.83 1384.19 745.443 1406.57 734.77 1397.98C735.023 1449.12 730.927 1500.02 724.927 1550.76C726.461 1550.42 728.043 1550.46 729.461 1550.98C759.552 1542.65 792.245 1485.74 794.769 1456.5C796.828 1429.88 791.543 1402.12 801.908 1376.68ZM307.194 592.739L305.662 590.71C289.372 569.27 280.23 561.613 252.061 573.053C255.847 577.74 257.63 584.021 256.015 590.525L255.908 590.941C247.02 627.512 201.43 648.702 168.061 628.803C156.402 631.838 144.246 623.456 143.777 611.576C110.756 631.017 95.499 666.634 89.3073 702.407C110.983 690.996 140.131 701.887 148.782 724.582C167.744 766.058 112.485 809.206 78.7869 774.279C71.4855 844.239 68.0584 914.735 54.7582 983.966C64.6152 967.753 88.1168 963.937 102.131 977.279C148.018 1016.9 95.2405 1106.9 39.7696 1063.99C33.0468 1102.53 30.6749 1141.61 30.99 1180.6C48.7654 1173.75 58.4962 1204.48 59.7846 1217.48C61.3942 1233.13 53.3142 1265.95 34.3797 1267.8L35.937 1292.83C38.5827 1335.73 40.9336 1378.59 40.3452 1421.59C41.2974 1421.83 42.1082 1422.26 42.7867 1422.83C42.8362 1424.07 43.0008 1425.31 43.2371 1426.54C43.4703 1427.76 44.2448 1428.4 45.1576 1428.61L45.1889 1428.65C45.1475 1429.51 44.9789 1430.38 44.6557 1431.19C79.4099 1445.74 115.287 1457.76 151.829 1467.22C150.932 1455.05 151.159 1442.92 152.424 1430.91C138.608 1417.77 155.602 1370.07 157.231 1351.53C163.616 1314.39 168.475 1277.01 172.77 1239.58C159.944 1238.49 153.377 1225.09 150.005 1214.19C145.608 1202.19 142.957 1189.38 146.052 1176.76C149.193 1161.74 166.023 1147.38 181.895 1152.67L182.895 1142.61C189.179 1078.87 194.671 1015.02 204.079 951.634C173.352 968.779 144.337 931.494 151.758 902.553C153.931 890.267 161.413 878.362 172.451 871.98C182.215 866.368 202.397 860.808 208.799 873.155C211.797 873.539 214.608 875.002 216.73 877.162C223.368 842.785 231.442 808.143 244.289 775.561C203.681 750.053 211.277 685.826 264.723 685.741C336.795 691.915 317.622 797.054 248.109 777.282C226.275 908.864 213.693 1041.53 202.526 1174.33C210.93 1188.03 209.599 1208.35 198.067 1219.88C193.052 1267.92 186.967 1315.86 178.974 1363.51C231.845 1375.29 285.367 1385.04 339.471 1389.53C342.072 1372.8 360.276 1363.87 376.008 1362.52C386.425 1361.4 397.758 1365.36 407.709 1367.25C419.732 1371.85 429.569 1382.43 433.962 1393.97C484.469 1394.28 535.006 1391.08 585.041 1384.54C579.988 1359.37 616.622 1340.18 638.926 1344.1C647.852 1345.2 656.56 1348.57 663.25 1354.6C669.783 1355.99 675.924 1361.63 677.545 1368.42C695.26 1364.21 713.405 1361 730.52 1354.74C747.314 1349.24 752.802 1335.41 748.451 1319.07C700.954 1338.09 660.654 1262.62 705.976 1235.32C711.778 1231.03 723.868 1228.25 727.267 1236.37C727.847 1236.47 728.422 1236.59 728.995 1236.73C725.223 1221.2 721.43 1205.68 717.636 1190.15C695.859 1188.07 688.589 1156.13 706.673 1144.9C700.52 1119.15 694.552 1093.35 688.949 1067.47C659.107 1073.62 634.371 1036.51 640.686 1009.69L640.887 1008.88C644.452 994.31 655.299 979.978 671.322 977.557C667.537 955.658 664.154 933.683 661.306 911.637C657.178 907.244 655.33 900.693 656.937 894.896C658.101 852.518 649.504 808.884 652.969 765.901C621.301 804.379 555.317 778.188 570.389 727.414C569.508 680.379 636.383 663.709 658.934 705.291C661.349 696.421 664.453 687.596 665.972 678.451C666.203 677.401 667.824 677.613 667.92 678.598L667.925 678.71C671.285 738.86 668.812 799.402 675.269 859.486C699.401 860.672 709.259 918.208 683.043 922.338C692.957 989.23 707.849 1055.25 724.033 1120.96C752.155 1113.74 763.029 1174.16 739.876 1184.32C746.613 1211.04 753.318 1237.75 759.862 1264.5L759.988 1264.45C763.388 1258.6 772.45 1259.26 778.276 1260.37C797.52 1267.46 789.385 1302.27 768.433 1300.14C779.862 1334.52 772.616 1366.42 734.485 1378.24L734.505 1379.33C735.685 1378.41 737.121 1377.66 738.858 1377.17C762.686 1370.49 784.937 1360.1 805.469 1346.63C799.429 1247.35 770.676 1151.12 747.412 1054.82C720.675 1050.56 712.149 1007.75 733.005 991.983C718.566 928.047 714.408 862.667 707.344 797.737C688.086 793.541 683.221 762.653 700.607 753.192C689.59 672.557 648.109 604.587 570.71 570.02C568.201 581.498 564.036 592.641 558.463 603.071C558.985 603.1 559.49 603.163 559.984 603.246C560.113 603.477 560.27 603.706 560.483 603.925C564.675 608.211 567.361 613.034 569.064 618.198C569.229 619.307 569.412 620.415 569.6 621.522C569.412 621.975 569.203 622.424 568.962 622.864C577.255 654.372 538.388 670.478 512.145 663.43C508.076 662.631 505.418 660.352 503.999 657.471C457.537 682.439 396.899 677.177 355.044 644.164C324.622 660.402 285.453 622.481 307.194 592.739ZM89.1702 1299.17C133.626 1292.64 148.167 1364.04 112.337 1383.86C100.784 1390.71 84.898 1391.31 73.5233 1383.73C43.2363 1365.41 51.6605 1302.94 89.1702 1299.17ZM258.389 1256.45C314.968 1256.21 319.808 1342.95 270.457 1358.57C233.757 1369.15 197.807 1328.52 216.628 1294.64C218.367 1273.56 236.621 1256.76 258.389 1256.45ZM434.686 1264.32C437.629 1241.91 461.142 1220.51 484.807 1226.67C506.492 1232.13 512.147 1257.39 515.992 1276.09C524.735 1314.82 480.697 1354.09 443.591 1332.76C419.888 1318.63 416.423 1284.05 434.686 1264.32ZM561.05 1133.55C568.981 1120.98 586.747 1115.44 601.251 1119.82C641.032 1132.47 636.306 1195.96 604.295 1214.88C549.306 1243.53 505.451 1161.16 561.05 1133.55ZM301.963 1170.64C301.033 1132.92 340.135 1098.57 376.866 1120.02C436.317 1159.68 375.433 1250.67 318.392 1199.68C308.226 1193.15 302.219 1182.55 301.963 1170.64ZM228.001 1074.38C200.486 1031.72 247.742 968.478 292.84 1009.35C308.307 1025.16 307.616 1054.14 298.662 1072.93C284.096 1098.03 243.645 1098.62 228.001 1074.38ZM427.798 994.38C449.271 973.857 486.792 973.643 503.107 1000.72C522.446 1034.12 499.366 1091.27 455.771 1088.56C410.476 1085.36 398.067 1021.97 427.798 994.38ZM315.293 927.678C280.837 892.541 318.248 836.178 364.978 849.751C441.35 877.726 375.069 982.991 315.293 927.678ZM503.379 919.751C472.689 864.02 547.243 813.91 585.185 867.552C614.286 916.136 535.719 972.221 503.379 919.751ZM403.278 761.212C376.723 714.76 423.129 663.144 471.886 690.408C541.266 738.374 452.458 830.624 403.278 761.212Z" fill="black"/>
<path fill-rule="evenodd" clip-rule="evenodd" d="M424.576 38.9776C481.357 38.9776 552.473 103.748 573.286 131.311C590.785 154.484 588.31 273.865 588.31 344.682C588.31 359.493 581.615 387.525 579.184 401.692C570.278 453.607 531.476 497.146 454.677 497.146C392.145 497.146 344.022 477.339 297.487 426.68C286.87 415.123 235.022 456.498 224.418 441.598C196.722 441.598 173.563 182.82 227.941 105.201C282.32 27.5832 367.796 38.9776 424.576 38.9776Z" fill="white"/>
<path fill-rule="evenodd" clip-rule="evenodd" d="M253.916 57.2046C286.726 27.3546 330.436 12.9946 374.536 14.0546C397.376 14.6046 420.136 18.9546 441.706 26.4046C452.496 30.1446 462.947 35.0246 472.936 40.5446C476.536 42.5293 479.855 44.8547 483.05 47.3243L483.846 47.9446H483.856C492.426 51.0246 500.076 56.5546 507.016 63.0246C520.926 61.9146 534.946 63.1646 548.396 67.4546C567.116 73.4346 584.446 84.3846 596.616 99.9346C610.792 118.038 615.505 139.997 613.824 162.665L613.513 166.516C611.85 186.541 608.871 212.297 592.436 225.455C591.186 226.455 589.806 227.215 588.376 227.675C598.966 245.815 607.656 265.955 612.856 286.295C632.706 363.985 617.446 445.005 593.576 519.885C591.616 526.055 582.286 530.155 577.536 524.125C569.056 513.345 556.736 505.125 542.876 503.585C534.326 502.635 525.816 504.355 517.736 500.475C514.566 498.945 511.507 496.445 509.306 493.405C495.666 498.575 480.976 501.015 466.406 500.415C442.496 499.435 416.936 491.155 400.486 472.995C397.846 470.08 397.177 466.807 397.785 463.857C399.848 463.121 401.966 462.573 404.148 462.23C425.008 474.524 448.002 482.739 472.714 483.255C486.993 483.553 500.921 481.556 512.499 472.64C515.004 470.71 517.308 468.573 519.438 466.277C543.645 450.705 560.712 424.256 568.826 395.925C576.386 369.505 575.456 341.995 572.856 314.895L571.485 300.594C569.485 279.605 567.63 258.553 567.11 237.475L567.267 237.467C572.379 237.137 572.416 229.134 567.267 229.467C553.948 230.329 540.73 228.144 527.452 229.096C527.341 222.819 526.889 216.57 525.044 210.516C523.991 207.057 517.968 206.375 517.33 210.516C516.476 216.056 516.164 221.565 516.071 227.13C496.2 226.866 476.348 225.194 456.474 225.881C452.809 221.971 451.641 215.038 449.926 210.215C449.676 209.505 449.426 208.805 449.166 208.095C447.659 214.987 445.523 221.728 442.713 228.327L437.839 228.343C410.185 228.473 381.967 229.299 354.962 235.043C353.085 233.602 351.968 231.088 351.666 228.805C349.708 213.949 346.912 199.488 341.957 185.331L341.249 183.334C341.191 183.168 341.129 182.992 341.065 182.807C337.414 188.7 333.058 194.193 328.307 199.308C325.507 202.323 322.571 205.206 319.558 208.007C316.631 211.257 313.606 214.458 310.674 217.718C310.789 218.311 310.889 218.913 310.97 219.526C311.867 226.291 311.96 233.152 311.303 239.943C310.115 252.22 306.649 264.05 301.081 274.994L300.905 276.089C300.06 281.218 298.857 286.519 296.047 290.381C299.553 294.309 302.254 299.001 303.82 304.214C305.214 308.855 298.793 312.877 295.463 309.079C292.818 306.062 289.879 303.565 286.651 301.573C286.447 301.85 286.079 301.986 285.666 301.755C276.676 296.765 261.406 298.275 252.426 302.975C241.256 308.815 236.896 320.805 238.136 332.955C239.326 344.565 244.406 358.135 254.256 364.085C258.776 366.815 262.296 367.045 267.096 365.735C268.631 365.318 270.534 364.039 271.351 363.404L272.154 362.76C275.301 360.273 278.232 358.57 281.946 358.505C285.746 357.32 289.564 358.963 291.017 362.947L291.106 363.205C291.786 365.235 293.026 367.785 292.756 370.885C292.476 374.205 290.956 377.225 288.686 379.655C288.296 380.075 287.876 380.495 287.446 380.885C326.546 423.215 331.566 489.175 311.516 542.055C310.646 544.375 309.716 546.665 308.746 548.935C305.396 556.715 292.496 554.305 290.856 546.595C290.366 544.285 289.826 541.985 289.236 539.705C288.152 535.491 286.91 531.318 285.509 527.204L284.976 525.665C283.786 522.265 282.676 518.835 281.476 515.435L281.356 515.046C281.311 514.892 281.261 514.715 281.206 514.515L279.176 518.945L273.006 532.315C270.119 538.554 260.946 535.163 260.605 529.151L260.596 528.945C260.566 527.835 260.526 526.735 260.456 525.645C260.016 517.475 258.606 509.535 256.366 501.765L255.558 502.769C243.524 517.647 229.401 531.592 210.026 535.025C205.166 535.885 199.666 530.805 203.006 525.895C204.386 523.865 205.716 521.785 206.976 519.675C205.886 519.165 204.856 518.635 203.906 518.095C196.556 513.965 190.436 508.085 185.376 501.415C174.646 487.275 170.806 469.475 169.866 452.055C168.866 433.645 170.486 414.235 175.516 396.475C177.696 388.795 180.646 381.425 184.056 374.275C183.816 373.635 183.586 372.995 183.356 372.355C179.676 362.095 176.656 351.605 174.146 340.995C169.086 319.575 166.366 297.475 166.036 275.465C165.436 236.035 172.236 195.975 186.566 159.205C201.366 121.285 223.626 84.7546 253.916 57.2046ZM235.486 401.945C232.769 397.666 225.969 401.522 228.492 405.831L228.586 405.985C232.896 412.775 234.916 420.495 237.396 428.065C238.986 432.935 246.716 430.855 245.106 425.935L244.573 424.292C242.106 416.615 239.854 408.814 235.486 401.945ZM259.156 320.265L260.962 319.391C266.657 316.673 271.647 314.822 278.376 317.195C287.386 320.365 297.036 330.455 290.946 340.245C288.706 343.855 284.726 345.295 280.626 344.445C273.714 343.011 271.931 336.787 268.423 331.677L267.82 330.812C265.681 327.72 262.977 323.446 259.416 322.235C258.606 321.955 258.266 320.695 259.156 320.265ZM264.235 112.406L264.816 111.885C268.686 108.465 263.006 102.825 259.156 106.225C241.536 121.795 235.416 146.165 226.276 166.935C224.226 171.605 231.116 175.685 233.186 170.975C241.905 151.155 247.692 127.447 264.235 112.406ZM475.976 105.595C471.373 103.52 467.345 110.22 471.771 112.426L471.936 112.505C487.496 119.535 494.116 135.455 500.456 150.235C502.476 154.955 509.366 150.885 507.366 146.205L506.222 143.553C499.607 128.321 491.891 112.796 475.976 105.595ZM500.366 95.9746C495.486 94.2847 493.396 102.005 498.236 103.695C511.426 108.285 520.477 118.185 528.106 129.505C530.966 133.745 537.896 129.745 535.007 125.465C526.146 112.325 515.626 101.295 500.366 95.9746Z" fill="black"/>
<path fill-rule="evenodd" clip-rule="evenodd" d="M390.347 344.476C407.489 342.396 424.105 347.644 440.863 350.289C449.711 351.685 458.57 352.727 467.523 353.115C469.324 353.194 471.127 353.239 472.929 353.276C473.096 351.69 473.984 350.233 475.908 349.36C479.852 347.573 483.008 346.767 487.338 346.939C491.301 347.096 495.278 347.503 499.181 348.218C506.268 349.517 513.386 352.465 518.57 357.588C530.567 369.441 528.741 388.48 519.471 401.39C500.319 428.068 465.364 429.306 435.426 428.958L432.663 428.922C405.404 428.532 366.404 432.597 354.02 401.583C349.466 390.178 350.098 376.959 355.674 366.02C362.325 352.973 376.325 346.178 390.347 344.476ZM475.495 388.894L475.251 388.904C462.683 389.389 450.117 389.729 437.542 389.952C437.918 393.181 438.302 396.411 438.741 399.634C439.086 402.169 439.455 404.702 439.839 407.232C440.002 408.303 440.598 409.966 440.43 411.027L440.369 411.447C441.014 411.739 441.6 412.209 442.036 412.892C442.188 413.128 442.298 413.366 442.407 413.603C452.17 413.68 462.677 413.491 472.629 411.716L472.649 411.5C472.83 410.228 473.359 409.372 474.061 408.786C474.761 404.731 474.697 400.411 474.967 396.388C475.136 393.889 475.318 391.392 475.495 388.894ZM427.938 390.123C418.879 390.277 409.816 390.396 400.759 390.285L396.648 390.222C397.516 394.88 398.461 399.522 399.246 404.211C400.066 409.098 395.764 412.205 392.041 412.08C392.459 412.148 392.876 412.219 393.294 412.278C404.926 413.923 417.004 413.487 428.809 413.474C428.174 409.767 428.431 405.584 428.336 402.49L428.318 402.011C428.137 398.046 428.01 394.085 427.938 390.123ZM366.406 389.268C366.72 391.69 367.332 394.061 368.247 396.268C372.114 405.592 380.979 409.943 390.358 411.776C388.731 411.214 387.439 409.864 387.112 407.551C386.299 401.801 386.007 395.955 385.985 390.116C379.448 390.055 372.867 389.916 366.406 389.268ZM509.585 387.277C504.931 388.375 499.522 387.872 494.956 388.079C490.678 388.274 486.399 388.443 482.121 388.616C482.322 391.537 482.519 394.456 482.733 397.375C483.008 401.147 483.034 405.134 483.756 408.89C492.366 405.952 500.08 401.24 505.868 393.705C507.31 391.828 508.601 389.625 509.585 387.277ZM388.38 359.775C380.632 361.609 373.3 365.484 369.36 372.573C367.021 376.78 365.992 381.766 366.19 386.679C372.737 385.917 379.398 385.628 386.027 385.389C386.049 384.195 386.077 383.003 386.113 381.813L386.215 378.764C386.396 372.947 386.486 365.643 388.38 359.775ZM428.479 360.484L425.069 360.101C415.596 359.022 406.128 357.889 396.655 358.538C395.284 358.633 393.892 358.782 392.497 358.987C394.171 365.029 394.031 372.125 394.73 378.106C395 380.419 395.342 382.713 395.72 384.998L397.363 384.921C407.529 384.37 417.704 384.031 427.877 383.628C427.876 381.717 427.886 379.806 427.917 377.894L427.955 375.982C428.07 371.099 427.755 365.598 428.479 360.484ZM476.049 359.709C466.127 361.31 455.873 361.651 446.127 361.663C442.235 361.668 438.344 361.429 434.456 361.084C434.709 363.155 434.841 365.249 435.031 367.291C435.415 371.416 435.854 375.536 436.331 379.652L436.757 383.253C449.261 382.686 461.764 382.073 474.265 381.438L476.029 381.344L476.523 374.423C476.86 369.808 477.23 365.194 477.753 360.6L477.361 360.458C476.9 360.269 476.463 360.008 476.049 359.709ZM480.358 361.427C480.904 367.952 481.207 374.504 481.609 381.041L489.85 380.601C491.224 380.526 492.597 380.449 493.97 380.37C499.311 380.062 506.173 378.445 511.453 379.954C511.856 375.154 510.484 370.478 506.152 367.254C498.547 361.59 488.864 363.607 480.358 361.427ZM452.201 303.093C464.473 296.065 495.264 288.882 497.214 310.967C498.111 321.13 490.555 329.551 481.732 333.309L481.401 333.447C473.126 336.849 458.459 340.691 451.298 333.314C445.338 327.174 453.243 316.165 460.649 321.195C464.455 323.779 472.466 321.875 476.713 320.646L476.979 320.568C481.562 319.221 487.672 314.91 485.777 309.267C484.1 304.275 476.964 303.363 472.495 303.201C465.824 302.962 459.332 304.511 452.722 305.015C451.675 305.095 451.352 303.579 452.201 303.093ZM503.036 267.581C519.692 266.801 530.053 284.987 526.223 299.888C525.561 302.459 522.685 304.983 519.909 304.694L519.209 304.629C518.854 304.595 518.497 304.55 518.169 304.46C515.533 303.73 513.17 300.988 513.362 298.146L513.413 297.317C513.801 290.278 513.038 282.168 504.673 280.464C497.578 279.018 493.617 285.847 493.533 292.133C493.517 293.249 492.263 294.028 491.276 293.428C486.147 290.307 485.259 284.098 487.218 278.751C489.701 271.976 495.915 267.914 503.036 267.581ZM379.433 271.481C391.554 267.437 404.631 273.898 410.5 284.614C412.559 285.21 414.615 286.797 414.329 289.227C413.916 292.723 413.294 294.927 410.87 297.578C407.078 301.725 399.977 299.605 398.402 294.5L398.335 294.269C396.545 287.67 389.281 283.316 382.664 285.626C374.934 288.324 375.158 296.488 369.736 301.244C369.099 301.803 368.335 301.892 367.571 301.523C361.812 298.74 362.847 290.364 364.9 285.57C367.593 279.279 372.827 273.684 379.433 271.481ZM362.925 234.674C372.747 224.652 398.359 214.954 405.078 233.461C406.358 236.986 403.633 241.739 399.963 242.47C393.953 243.666 388.621 241.057 382.651 241.525C377.818 241.906 372.777 243.521 368.913 246.515C358.211 254.807 355.857 268.832 348.4 279.386C348.037 279.9 347.332 279.684 347.265 279.078C345.567 263.713 352.167 245.65 362.925 234.674ZM491.02 224.808C497.538 222.506 504.919 222.703 511.471 224.745C518.071 226.803 524.13 230.711 528.798 235.817C530.916 238.135 532.876 240.693 534.448 243.416C535.283 244.859 536.161 247.84 537.11 249.615C542.245 252.579 544.439 259.334 539.843 264.14L539.635 264.351L539.02 264.961C536.549 267.407 532.823 268.467 529.45 267.49C521.902 265.306 520.985 259.361 518.372 253.051C516.646 248.883 513.689 245.195 510.104 242.486C501.631 236.086 487.738 234.047 477.537 237.063C476.994 237.224 476.356 236.532 476.743 236.03C478.676 233.526 479.79 231.471 482.378 229.451C485.005 227.401 487.872 225.92 491.02 224.808Z" fill="black"/>
<path fill-rule="evenodd" clip-rule="evenodd" d="M573.09 277.283C563.556 341.772 497.002 348.904 485.177 284.882C487.075 284.051 488.44 282.415 488.155 279.239C488.088 265.287 492.419 250.541 505.005 242.782C518.011 234.776 533.232 233.982 548.283 234.184C577.005 233.5 576.401 257.507 573.09 277.283ZM474.758 249.236C465.744 248.856 454.34 249.174 446.265 254.666C444.045 248.688 438.277 242.305 432.449 238.892C454.111 239.526 476.409 237.394 498.233 235.739C493.009 239.3 488.149 244.65 484.99 250.835C482.059 249.272 477.861 249.418 474.758 249.236ZM435.026 284.12C410.031 370.156 347.64 332.656 340.838 321.63C328.569 303.384 326.261 259.03 336.948 247.171C352.246 236.447 373.903 239.207 391.975 238.944C425.176 239.392 448.756 249.324 435.026 284.12ZM602.603 244.549C595.812 243.661 588.555 243.482 582.241 246.472C580.297 238.209 574.194 231.301 567.303 228.261C566.469 227.215 566.594 226.653 563.745 226.81C546.25 221.552 526.673 224.334 509.861 229.726C483.309 231.962 455.452 233.725 428.677 236.806C403.595 225.542 327.902 223.891 323.198 251.654C317.281 250.769 307.204 246.112 302.232 252.429C265.761 246.246 228.076 254.839 191.447 258.666C182.227 260.364 177.478 278.662 187.944 278.412C193.828 276.815 187.763 267.018 195.686 266.281C231.027 262.421 265.595 256.945 301.298 256.304C300.056 262.469 324.912 262.87 325.279 259.27C325.332 259.297 325.388 259.315 325.442 259.339C319.3 282.229 324.844 315.171 335.944 329.365C351.496 347.951 390.541 353.283 407.854 341.325C430.187 330.288 453.42 274.886 446.894 256.48C458.738 252.726 470.447 253.853 482.739 255.765C479.925 263.714 475.067 283.282 482.056 284.979C480.773 323.829 516.13 348.07 548.724 332.133C576.935 318.89 586.801 276.972 583.349 251.529C586.861 258.315 616.349 250.927 602.603 244.549Z" fill="black"/>
</svg>
