<svg width="1534" height="2320" viewBox="0 0 1534 2320" fill="none" xmlns="http://www.w3.org/2000/svg">
<path fill-rule="evenodd" clip-rule="evenodd" d="M1508.36 1904.95C1478.68 1862.71 1416.12 1855.71 1375.93 1826.11C1354.75 1809.88 1332.35 1799.13 1315.9 1777.27C1342.09 1746.48 1309.69 1674.32 1303.03 1632.64C1276.61 1523.53 1252.17 1412.68 1220.75 1303.69C1275.21 1320.65 1261.02 1219.13 1253.24 1195.66C1252.7 1192.43 1248.71 1191.78 1246.26 1190.77C1246.94 1186.16 1248.83 1185.15 1243.11 1183.87C1241.2 1156.25 1249.01 1125.32 1234.89 1100.92C1218.97 1074.29 1180.93 1052 1149.49 1051.64C1127.41 963.927 1123.37 922.558 1018.75 959.738C1021.06 951.195 1021.78 943.36 1017.75 934.73C1002.02 887.183 982.249 835.168 965.057 786.984C945.243 731.535 924.754 674.198 898.254 620.921C879.798 587.089 822.057 578.044 782.919 583.645C773.583 567.17 750.049 521.6 720.279 532.136C720.055 518.392 719.842 504.648 719.664 490.903C719.51 478.955 720.767 466.704 716.174 455.36C711.308 443.343 701.401 437.001 689.765 432.401C654.545 420.765 614.082 402.071 576.916 413.638C544.444 428.461 548.226 484.199 532.512 514.498C510.49 481.839 472.935 503.737 464.99 538.763C374.525 574.83 296.768 533.857 290.979 675.438C295.967 701.247 300.208 725.456 297.844 751.518L295.107 751.798C271.953 877.247 263.049 1011.72 268.646 1151.52C267.525 1206.57 247.47 1257.94 228.076 1307.61C213.811 1344.14 199.081 1381.9 192.098 1420.65C184.355 1452.93 155.892 1608.12 219.183 1556.6C221.608 1733.16 378.914 1755.76 520.569 1716.77C670.95 1685.5 840.24 1694.49 934.094 1543.21C965.933 1597.71 976.918 1631.36 984.91 1688.34C993.681 1730.09 1006.42 1777.5 1029.83 1805.11C1009.67 1841.41 999.797 1885.62 1000.77 1914.43C1001.15 1925.75 995.976 1930.99 1003.41 1938.03C1039.1 1971.78 1118.71 1972.16 1179.24 1987.18C1220.75 1992.47 1370.84 2012.68 1393.78 1999.5C1409.78 2003.98 1391.18 1962.34 1407.17 1961.45C1412.64 1961.49 1413.38 1954.52 1419 1954.78C1454.87 1956.41 1532.23 1966.96 1513.52 1938.03L1508.36 1904.95Z" fill="white"/>
<path fill-rule="evenodd" clip-rule="evenodd" d="M1499.45 1945.83C1473 1951.55 1445.8 1949.95 1419 1952.19C1419.86 1949.94 1420.59 1947.65 1421.16 1945.31C1448.85 1941.96 1477.89 1940.36 1504.29 1931.21C1504.92 1934.19 1505.38 1937.2 1505.57 1940.24C1505.59 1940.65 1505.54 1945.19 1506.19 1944.35C1505.38 1945.4 1500.65 1945.61 1499.45 1945.83M1365.82 1877.16C1317.68 1861.32 1266.62 1847.72 1229.51 1810.96C1229.59 1810.76 1229.66 1810.55 1229.73 1810.35C1237.37 1808.19 1245.77 1803.57 1253.12 1808.59C1276.66 1807.78 1301.24 1799.52 1317.73 1782.08C1318.85 1782.32 1319.94 1782.66 1321 1783.07C1352.72 1837.06 1420.3 1847.34 1469.79 1878.62C1489.85 1890.31 1527.22 1921.77 1479.41 1922.48C1460.54 1925.34 1441.56 1927.46 1422.53 1928.92C1421.06 1898.52 1390.97 1885.21 1365.82 1877.16M1399.47 1955.02C1389.89 1968.08 1372.61 1973.24 1356.98 1971.97C1345.48 1970.4 1335.33 1966.36 1323.37 1967.23C1232.69 1963.78 1143.53 1944.99 1055.11 1925.8C975.916 1910.94 1036.42 1852.44 1029.83 1805.11C1041 1811.93 1053.68 1816.91 1066.72 1820.57C1083.53 1867.37 1129.47 1855.14 1161.99 1832.72C1174.54 1832.32 1189.82 1834.24 1200.09 1825.9C1200.69 1826.4 1201.32 1826.81 1201.97 1827.17C1210.12 1822.37 1217.57 1817.34 1226.11 1813.64C1254.98 1862.47 1316.3 1873.62 1365.51 1892.47C1395.61 1900.59 1420.26 1923.87 1399.47 1955.02M1397.82 1996.86C1372.38 2004.47 1345.45 2003.15 1319.19 2001.01C1232.94 1993.53 1147.26 1978.82 1063.59 1956.56C1043.74 1951.28 1005.24 1945.15 1003.41 1920.23C1021.08 1943.41 1052.62 1946.14 1079.11 1952.12C1166.07 1969.18 1255.15 1991.2 1344.08 1986.96C1362.87 1992.31 1383.34 1988.08 1399.23 1977.67C1398.73 1984.06 1398.27 1990.46 1397.82 1996.86M927.571 1182.76C940.451 1148.57 954.42 1114.84 967.931 1080.86C993 1094.92 1021.3 1100.06 1050.2 1103.34C1050.88 1103.68 1051.6 1103.98 1052.38 1104.22C1053.75 1104.5 1054.9 1104.37 1055.82 1103.95C1094.36 1108.03 1133.67 1109.63 1167.57 1125.4C1180.69 1131.5 1193 1139.72 1204.14 1151.04C1216.33 1162.72 1226.15 1176.82 1232.74 1192.38C1234.8 1197.18 1235.89 1202.17 1239.14 1206.12C1240.12 1211.43 1241.23 1216.7 1241.98 1222.06C1243.88 1243.01 1246.47 1265.08 1238.39 1285.18C1233.38 1297.49 1223.11 1287.59 1216.3 1282.77C1205.22 1275.03 1195.02 1266.15 1184.85 1257.27C1153.61 1227.88 1117.1 1202.89 1073.28 1198.76C1025.97 1192.18 974.71 1183.96 927.571 1182.76M908.611 1182.83C906.011 1189.47 903.46 1196.13 900.951 1202.8C888.52 1200.67 862.061 1195.65 851.23 1189.93C855.09 1190.06 858.911 1188.05 859.891 1183.44C860.321 1181.4 861 1179.49 861.531 1177.5C868.061 1156.21 873.63 1134.49 882.851 1114.08C891.871 1092.53 902.601 1071.59 910.8 1049.72C924.701 1048.84 946.661 1066.1 956.59 1073.14C938.88 1108.87 923.15 1145.52 908.67 1182.67C908.4 1182.67 908.121 1182.67 907.851 1182.68C908.101 1182.73 908.361 1182.78 908.611 1182.83M826.721 1180.31C755.42 1175.85 683.161 1180.55 612.681 1167.9C599.321 1165.63 586.871 1161.53 575.31 1155.94C541.67 1139.68 515.531 1110.81 496.281 1077.76C426.741 973.01 350.221 868.96 315.991 746.23C295.71 686.83 291.761 598.04 362.65 572.48C394.09 560.74 432.06 561.46 459.121 540.16C456.06 551.42 454.34 563.2 452.761 573.63C450.101 590.64 447.48 608.24 449.641 625.44C449.661 625.59 449.681 625.74 449.71 625.88C446.161 635.56 457.33 644.7 468.29 643.75C491.411 643.22 502.75 615.42 525.92 614.57C534.38 614.26 539.431 619.31 544.611 625.32C557.15 639.89 569.431 654.74 584.58 666.68C585.661 667.53 587.101 666.5 586.491 665.2C578.84 648.85 568.111 634.37 557.471 619.84C535.411 584.59 505.721 600.81 480.621 622.24C475.73 625.79 470.761 628.67 465.73 627.41C466.06 626.2 466.15 624.8 465.94 623.24C464.071 609.44 465.9 594.89 467.8 581.2C472.141 555.65 470.851 522.33 495.48 506.86C506.23 500.78 519.23 500.01 529.69 506.91C527.77 511.62 525.48 516.92 525.15 521.9C523.05 520.42 521.63 520.88 521.25 524.09C529.4 548.13 542.741 570.22 554.06 592.89C562.9 609.9 571.79 626.89 580.861 643.78C583.54 649.01 585.8 654.55 591.02 657.45C591.031 657.5 591.04 657.55 591.05 657.6C594.58 669.25 594.58 681.77 597.3 693.62C598.971 700.86 600.891 708.14 602.94 715.38C604.88 722.17 606.931 728.93 609.011 735.58C633.77 821.39 657.221 907.6 681.361 993.6C652.781 978.82 638.29 951.19 625.21 922.95C590.71 850.18 554.571 770.75 515.96 703.61C551.871 779.94 601.13 958.75 662.471 1003.2C671.83 1009.4 682.031 1014.07 692.681 1017.77C697.13 1021.8 701.791 1022.67 704.92 1021.6C724.201 1027.01 744.391 1030.12 763.34 1034.09C796.201 1040.99 829.071 1047.84 861.951 1054.66C873.071 1056.96 884.241 1060.04 895.601 1060.58C896.17 1060.61 896.721 1060.59 897.23 1060.52C872.201 1089.3 855.351 1128.59 845.721 1165.42C837.88 1163.16 828.991 1171.53 826.721 1180.31M544.511 1183.48C488.9 1266.95 401.75 1318.73 329.98 1386.11C286.98 1431.42 252.69 1484.03 213.471 1532.51C212.261 1534.01 211.04 1535.51 209.821 1537C206.8 1540.72 202.601 1544.81 200.17 1548.42C200.101 1548.53 200.031 1548.63 199.971 1548.71C194.29 1536.84 197.4 1521.66 197.19 1508.13C198.06 1484.95 201.09 1461.97 205.641 1439.25C220.5 1348.03 271.661 1266.84 282.79 1175.1C282.42 1077.53 277.571 979.68 285.79 882.14C288.79 837.62 291.94 793.08 296.4 748.67C327.201 863.12 417.141 986.58 468.201 1065.62C488.8 1095.83 507.241 1128.79 536.25 1151.9C543.261 1157.44 550.661 1162.2 558.361 1166.3C553.15 1171.47 548.69 1177.36 544.511 1183.48M726.661 737.13C734.321 735.12 751.23 733.11 760.02 727.33C764.568 742.925 769.487 758.4 774.677 773.785C762.081 770.062 748.448 771.807 735.473 773.224C718.567 775.07 701.684 777.078 684.808 779.181C669.35 781.106 653.901 783.105 638.459 785.16C632.951 765.404 627.404 745.66 621.77 725.94C653.98 740.87 692.181 742.95 726.661 737.13M744.19 588.51C744.161 587.2 743.851 585.83 743.17 584.42C743.071 584.22 742.98 584.02 742.88 583.82C740.25 574.43 737.581 565.05 734.861 555.68C734.451 554.1 731.951 554.41 732 556.07C731.98 557.23 731.971 558.38 731.96 559.54C731.781 559.06 731.611 558.58 731.44 558.09C728.071 548.32 725.601 538.26 723.971 528.04C752.831 533.99 776.601 596.99 790.031 642.03C778.991 638.59 764.511 637.81 760.221 646.96C754.9 627.47 749.621 607.97 744.19 588.51M699.414 961.562C706.607 961.091 713.802 960.643 720.993 960.144C735.708 959.123 750.419 958.059 765.132 957.017C768.661 956.767 772.19 956.509 775.719 956.249C785.711 955.699 795.704 955.145 805.697 954.612C816.745 954.024 827.922 953.021 839.053 952.612C841.148 952.566 843.244 952.532 845.339 952.51C845.752 953.35 846.179 954.175 846.641 954.96C831.971 959.02 818.571 963.72 807.831 968.46C783.431 979.15 759.971 993.22 739.931 1010.91C736.221 1010.14 732.511 1009.36 728.8 1008.57C718.621 1006.37 708.311 1004.02 698.38 1000.67C695.84 994.44 695.011 987.12 692.851 980.98C691.138 974.827 689.425 968.672 687.712 962.518C691.625 962.452 695.627 961.809 699.414 961.562M675.134 911.238C675.266 911.224 675.397 911.208 675.528 911.193C675.544 911.193 675.561 911.192 675.577 911.192C677.183 911.141 678.788 911.079 680.393 911.004C683.602 910.855 686.81 910.663 690.015 910.435C696.433 909.978 702.838 909.368 709.234 908.67C722.047 907.27 734.819 905.52 747.604 903.892C755.137 902.932 762.644 902.106 770.145 901.403C787.683 900.239 805.274 899.347 822.793 899.1C828.4 912.45 834.091 925.76 839.831 939.04C840.372 940.279 840.898 941.627 841.432 943.026C815.678 942.535 789.814 944.978 764.151 946.514C749.765 947.375 735.377 948.212 720.993 949.097C713.798 949.539 706.606 950.029 699.414 950.499C694.612 950.812 689.451 950.605 684.649 951.512C683.633 947.861 682.617 944.21 681.601 940.56C678.939 931.1 676.307 921.631 673.669 912.164C674.184 911.916 674.678 911.61 675.134 911.238M653.218 838.393C649.09 823.458 644.959 808.523 640.806 793.595C641.586 793.487 642.366 793.379 643.145 793.271C646.061 792.869 648.978 792.47 651.895 792.072C658.321 791.197 664.748 790.333 671.177 789.481C676.16 788.821 681.144 788.172 686.129 787.525C691.633 787.06 697.139 786.617 702.647 786.21C727.554 784.373 752.657 782.669 777.647 782.528C782.894 797.732 788.419 812.843 794.146 827.88C772.893 829.174 751.662 830.887 730.438 832.592C718.229 833.573 706.023 834.591 693.821 835.645C687.884 836.158 681.949 836.68 676.014 837.21C672.717 837.504 669.42 837.802 666.123 838.102C664.219 838.275 661.733 838.922 659.591 838.936C659.313 838.716 659.023 838.503 658.715 838.29C657.153 837.213 654.851 837.402 653.218 838.393M658.188 850.998C672.205 849.289 686.191 847.449 700.198 845.745C707.967 844.99 715.737 844.245 723.509 843.52C748.205 841.215 772.929 839.218 797.626 836.944C804.327 854.257 811.287 871.473 818.411 888.617C788.168 886.622 757.372 891.702 727.468 895.218C711.505 897.095 695.499 898.788 679.43 899.387C676.886 899.481 673.33 899.349 670.279 900.025C666.127 885.083 661.991 870.136 657.86 855.187C657.921 853.797 658.029 852.402 658.188 850.998M906.48 1050.74C905.42 1051.75 904.38 1052.79 903.351 1053.86C903.371 1053.52 903.38 1053.19 903.371 1052.85C903.391 1052.84 903.411 1052.83 903.42 1052.82C904.34 1051.92 905.361 1051.23 906.48 1050.74M887.77 622.95C918.861 698.37 945.71 775.92 974.831 852.26C984.17 878.18 993.371 904.15 1002.07 930.3C1005.37 938.94 1006.58 948.64 1013.36 955.43C1013.64 955.71 1013.95 955.97 1014.28 956.19C1005.17 960.015 996.943 964.267 990.315 968.566C993.363 978.902 997.043 989.047 1001.44 998.836C1003.01 1002.33 997.838 1005.38 996.259 1001.86C990.671 989.422 986.162 976.478 982.629 963.276C978.229 957.343 973.138 952.021 966.541 948.7C953.811 944.07 937.761 942.47 920.46 942.99C920.181 942.49 919.811 942.01 919.361 941.56C913.63 936.04 911.361 927.26 908.511 919.95C900.221 898.62 893.17 876.79 887.38 854.64C881.681 832.71 878.15 810.26 872.23 788.38C871.031 784.55 867.3 766.05 863.821 767.07C863.891 767.49 863.951 767.9 864.011 768.32C863.831 768.2 863.63 768.15 863.431 768.16C862.031 813.42 873.861 859.01 887.411 902.02C891.161 916.35 899.681 929.76 902.411 944.22C890.541 945.45 878.44 947.47 866.71 950.02C866.541 949.07 866.3 948.13 866.02 947.18C865.861 945.86 865.46 944.82 864.88 944.03C863.4 940.41 861.44 936.88 859.991 933.62C857.011 926.88 854.05 920.14 851.121 913.37C835.17 876.35 820.071 838.93 806.75 800.87C790.321 754.72 776.891 707.68 763.931 660.51C772.611 665.16 789.3 655.87 799.531 677.1C801.741 682.45 806.65 686.27 812.741 684.6C818.081 683.13 822.121 676.9 820.241 671.39C819.971 670.49 819.681 669.6 819.351 668.73C809.38 639.16 801.311 608.81 786.931 580.98C823.84 584.71 867.5 587.36 887.77 622.95M1231.57 1117.24C1234.76 1132.33 1232.71 1148.2 1231.85 1163.56C1217.26 1144.17 1198.77 1127.62 1177.14 1116.6C1175.7 1106.9 1169.59 1098.45 1166.77 1089.03C1161.56 1075.74 1157.34 1062.16 1153.54 1048.45C1188.81 1055.8 1223.14 1081.42 1231.57 1117.24M1103.69 1232.83C1115.67 1297.46 1134.69 1360.45 1148.62 1424.64C1149.44 1428.41 1143.65 1430.01 1142.84 1426.24C1128.9 1362.05 1109.88 1299.05 1097.91 1234.43C1097.21 1230.65 1102.99 1229.04 1103.69 1232.83M1097.55 1826.96C1107.11 1828.3 1116.64 1829.47 1126.26 1830.49C1107.12 1838.5 1089.27 1836.54 1073.7 1822.39C1081.67 1824.33 1089.7 1825.81 1097.55 1826.96M1519.28 1922.19C1518.75 1919.62 1517.33 1917.96 1515.54 1917.06C1515.82 1863.28 1402.77 1845.8 1368.52 1811.55C1352.85 1800.47 1341.44 1782.17 1323.24 1775.31C1333.54 1759.38 1330.78 1738.87 1328.49 1720.96C1323.49 1688.29 1310.93 1651.78 1307.65 1631.58C1282.87 1527.77 1258.84 1423.71 1230.8 1320.72C1230.23 1318.75 1229.17 1314.85 1227.84 1310.54C1230.86 1311.27 1233.75 1311.51 1236.46 1311.16C1275.79 1302.44 1266.96 1222.88 1257.72 1194.05C1256.73 1190.65 1254.42 1188.5 1251.71 1187.49C1252.06 1185.73 1251.74 1183.86 1250.49 1182.07C1249.82 1181.11 1248.79 1180.42 1247.67 1180.07C1246.48 1152.71 1253.31 1123.3 1238.91 1098.3C1222.73 1070.96 1184.13 1048.34 1153.07 1046.75C1148.62 1030.63 1144.72 1014.35 1140.42 998.2C1135.7 981.29 1128.98 963.12 1114.85 951.78C1096.57 935.52 1057.55 940.48 1025.18 951.97C1026.95 943.5 1022.92 935.84 1020.45 927.9C1012.4 904.14 1004.11 880.46 995.65 856.85C965.281 777.25 940.34 694.74 902.351 618.42C886.621 592.55 856.371 580.89 827.331 578.49C813.71 577.12 799.221 576.59 785.471 578.2C785.031 577.36 784.581 576.53 784.121 575.7C772.851 556.17 749.98 519.81 723.661 526.05C720.88 507.48 720.84 488.45 723.13 469.87C723.291 468.55 721.13 467.98 720.59 469.18C703.15 508.3 706.391 556.44 727.67 593.48C729.23 596.05 731.351 597.38 733.55 597.76C736.94 636.65 745.411 675.03 755.861 712.7C754.291 712.76 752.781 713.09 751.52 713.65C718.181 725.86 681.52 727.85 646.821 720.72C637.05 718.66 627.59 715.89 618.08 713.07C616.281 706.83 614.48 700.61 612.67 694.38C608.13 674.7 606.971 655.79 595.451 639.94C594.77 638.77 594.071 637.61 593.4 636.45C584.15 619.67 574.75 602.98 565.281 586.33C562.98 583.6 547.601 553.29 535.63 534.96C537.13 534.92 538.681 534.54 540.19 533.78C548.63 529.57 548.54 517.36 550.08 509.17C554.8 483.72 560.261 458.23 561.761 432.34C561.84 431.02 559.821 430.46 559.23 431.66C547.721 454.48 539.741 478.9 531.221 502.95C531.05 503.43 530.871 503.92 530.681 504.42C522.781 494.46 508.911 492.09 496.83 494.77C476.641 500.04 466.46 516.45 460.59 535.11C402.54 562.82 333.46 534.52 298.23 607.83C282.361 646.14 282.661 689.58 292.94 734.79C266.17 871.84 257.79 1012.04 263.361 1151.49C261.38 1245.82 203.52 1327.66 186.94 1419.46C178.67 1455.64 173.48 1492.73 174.121 1529.9C172.851 1549.54 181.511 1578.54 206.67 1570.9C209.54 1569.87 212.141 1568.29 214.54 1566.38C225.05 1725.42 347.611 1756.18 488.871 1728.79C494.59 1728.89 500.21 1727.57 506.221 1725.88C509.141 1725.01 512.04 1724.1 514.94 1723.14C517.121 1722.62 519.31 1722.09 521.5 1721.54C523.123 1721.21 524.75 1720.9 526.376 1720.57C566.652 1693.94 608.487 1669.69 648.28 1642.3C651.085 1640.37 654.521 1644.86 651.915 1647.02C625.333 1669 599.312 1691.94 571.653 1712.61C650.455 1700.08 730.643 1702.22 804.221 1669.75C855.851 1647.16 904.44 1601.89 933.701 1553.05C934.143 1553.83 934.574 1554.61 935.012 1555.38C933.59 1551.34 932.17 1547.3 930.765 1543.25C905.822 1471.42 883.254 1398.75 855.989 1327.74C854.601 1324.13 860.404 1322.58 861.774 1326.14C869.418 1346.05 876.705 1366.1 883.766 1386.22C909.037 1458.24 931.626 1531.19 958.542 1602.62C958.697 1603.03 958.749 1603.42 958.736 1603.77C964.357 1617.63 968.955 1631.75 972.141 1646.23C975.444 1661.38 980.274 1693.73 985.053 1720.96C989.238 1743.42 992.286 1769.46 1007.88 1786.7C1007.86 1786.74 1007.84 1786.77 1007.83 1786.81H1007.83C1007.28 1787.88 1006.75 1788.94 1006.24 1790C1007.34 1791.1 1008.75 1791.82 1010.04 1792.64C1010.24 1791.7 1010.44 1790.76 1010.66 1789.8C1014.45 1793.83 1018.66 1797.44 1023.18 1800.71C1018.09 1838.42 980.101 1874.95 999.77 1914.43C990.395 1936.01 1013.4 1953.57 1032.34 1958.02C1061.37 1967.31 1091.33 1974.29 1121.06 1980.91C1179.93 1991.89 1364.15 2032.46 1408.25 2000.88C1407.62 1994.14 1415.91 1972.24 1406.13 1971.92C1410.46 1967.63 1414.06 1962.63 1416.78 1957.2C1443.77 1965.98 1473.76 1962.83 1501.24 1959.59C1523.47 1960.07 1522.65 1938.42 1519.28 1922.19" fill="black"/>
<path fill-rule="evenodd" clip-rule="evenodd" d="M678.576 38.9776C735.357 38.9776 806.473 103.748 827.286 131.311C844.785 154.484 842.31 273.865 842.31 344.682C842.31 359.493 835.615 387.525 833.184 401.692C824.278 453.607 785.475 497.146 708.677 497.146C646.145 497.146 598.022 477.339 551.487 426.68C540.87 415.123 489.022 456.498 478.418 441.598C450.721 441.598 427.562 182.82 481.941 105.201C536.32 27.5832 621.796 38.9776 678.576 38.9776Z" fill="white"/>
<path fill-rule="evenodd" clip-rule="evenodd" d="M507.917 57.2046C540.727 27.3546 584.437 12.9946 628.537 14.0546C651.377 14.6046 674.137 18.9546 695.707 26.4046C706.497 30.1446 716.947 35.0246 726.937 40.5446C730.537 42.5293 733.856 44.8547 737.05 47.3243L737.847 47.9446H737.857C746.427 51.0246 754.077 56.5546 761.017 63.0246C774.927 61.9146 788.947 63.1646 802.397 67.4546C821.117 73.4346 838.447 84.3846 850.617 99.9346C864.793 118.038 869.505 139.997 867.824 162.665L867.513 166.516C865.85 186.541 862.872 212.297 846.437 225.455C845.187 226.455 843.807 227.215 842.377 227.675C852.967 245.815 861.657 265.955 866.857 286.295C886.707 363.985 871.447 445.005 847.577 519.885C845.617 526.055 836.287 530.155 831.537 524.125C823.057 513.345 810.737 505.125 796.877 503.585C788.327 502.635 779.817 504.355 771.737 500.475C768.567 498.945 765.507 496.445 763.307 493.405C749.667 498.575 734.977 501.015 720.407 500.415C696.497 499.435 670.937 491.155 654.487 472.995C651.847 470.08 651.178 466.807 651.786 463.857C653.849 463.121 655.967 462.573 658.149 462.23C679.009 474.524 702.003 482.739 726.715 483.255C740.994 483.553 754.922 481.556 766.5 472.64C769.005 470.71 771.309 468.573 773.439 466.277C797.646 450.705 814.713 424.256 822.827 395.925C830.387 369.505 829.457 341.995 826.857 314.895L825.485 300.594C823.486 279.605 821.631 258.553 821.111 237.475L821.268 237.467V237.467C826.38 237.137 826.417 229.134 821.268 229.467C807.949 230.329 794.731 228.144 781.453 229.096C781.342 222.819 780.89 216.57 779.045 210.516C777.992 207.057 771.969 206.375 771.331 210.516C770.477 216.056 770.165 221.565 770.072 227.13C750.201 226.866 730.349 225.194 710.475 225.881C706.809 221.971 705.642 215.038 703.927 210.215C703.677 209.505 703.427 208.805 703.167 208.095C701.66 214.987 699.524 221.728 696.714 228.327L691.84 228.343C664.185 228.473 635.967 229.299 608.963 235.043C607.086 233.602 605.969 231.088 605.667 228.805C603.708 213.949 600.912 199.488 595.958 185.331L595.249 183.334C595.191 183.168 595.13 182.992 595.066 182.807C591.415 188.7 587.059 194.193 582.308 199.308C579.508 202.323 576.572 205.206 573.559 208.007C570.632 211.257 567.607 214.458 564.675 217.718C564.79 218.311 564.89 218.913 564.971 219.526C565.868 226.291 565.961 233.152 565.304 239.943C564.116 252.22 560.65 264.05 555.082 274.994L554.906 276.089C554.06 281.218 552.857 286.519 550.048 290.381C553.554 294.309 556.255 299.001 557.821 304.214C559.215 308.855 552.794 312.877 549.464 309.079C546.819 306.062 543.88 303.565 540.652 301.573C540.448 301.85 540.08 301.986 539.667 301.755C530.677 296.765 515.407 298.275 506.427 302.975C495.257 308.815 490.897 320.805 492.137 332.955C493.327 344.565 498.407 358.135 508.257 364.085C512.777 366.815 516.297 367.045 521.097 365.735C522.631 365.318 524.534 364.039 525.351 363.404L526.155 362.76C529.301 360.273 532.232 358.57 535.947 358.505C539.746 357.32 543.564 358.963 545.017 362.947L545.107 363.205C545.787 365.235 547.027 367.785 546.757 370.885C546.477 374.205 544.957 377.225 542.687 379.655C542.297 380.075 541.877 380.495 541.447 380.885C580.547 423.215 585.567 489.175 565.517 542.055C564.647 544.375 563.717 546.665 562.747 548.935C559.397 556.715 546.497 554.305 544.857 546.595C544.367 544.285 543.827 541.985 543.237 539.705C542.152 535.491 540.91 531.317 539.509 527.204L538.977 525.665C537.787 522.265 536.677 518.835 535.477 515.435L535.357 515.046C535.312 514.892 535.262 514.715 535.207 514.515L533.177 518.945V518.945L527.007 532.315C524.12 538.554 514.946 535.163 514.605 529.151L514.597 528.945C514.567 527.835 514.527 526.735 514.457 525.645C514.017 517.475 512.607 509.535 510.367 501.765L509.559 502.769C497.525 517.647 483.401 531.592 464.027 535.025C459.167 535.885 453.667 530.805 457.007 525.895C458.387 523.865 459.717 521.785 460.977 519.675C459.887 519.165 458.857 518.635 457.907 518.095C450.557 513.965 444.437 508.085 439.377 501.415C428.647 487.275 424.807 469.475 423.867 452.055C422.867 433.645 424.487 414.235 429.517 396.475C431.697 388.795 434.647 381.425 438.057 374.275C437.817 373.635 437.587 372.995 437.357 372.355C433.677 362.095 430.657 351.605 428.147 340.995C423.087 319.575 420.367 297.475 420.037 275.465C419.437 236.035 426.237 195.975 440.567 159.205C455.367 121.285 477.627 84.7546 507.917 57.2046ZM489.487 401.945C486.769 397.666 479.969 401.522 482.493 405.831L482.587 405.985C486.897 412.775 488.917 420.495 491.397 428.065C492.987 432.935 500.717 430.855 499.107 425.935L498.574 424.292C496.106 416.615 493.855 408.814 489.487 401.945ZM513.157 320.265L514.962 319.391C520.657 316.673 525.648 314.822 532.377 317.195C541.387 320.365 551.037 330.455 544.947 340.245C542.707 343.855 538.727 345.295 534.627 344.445C527.715 343.011 525.931 336.787 522.423 331.677L521.82 330.812C519.681 327.72 516.977 323.446 513.417 322.235C512.607 321.955 512.267 320.695 513.157 320.265ZM518.235 112.406L518.817 111.885C522.687 108.465 517.007 102.825 513.157 106.225C495.537 121.795 489.417 146.165 480.277 166.935C478.227 171.605 485.117 175.685 487.187 170.975C495.905 151.155 501.693 127.447 518.235 112.406V112.406ZM729.977 105.595C725.373 103.52 721.345 110.22 725.771 112.426L725.937 112.505C741.497 119.535 748.117 135.455 754.457 150.235C756.477 154.955 763.367 150.885 761.367 146.205L760.223 143.553C753.607 128.321 745.891 112.796 729.977 105.595ZM754.367 95.9746C749.487 94.2846 747.397 102.005 752.237 103.695C765.427 108.285 774.477 118.185 782.107 129.505C784.967 133.745 791.897 129.745 789.007 125.465C780.147 112.325 769.627 101.295 754.367 95.9746Z" fill="black"/>
<path fill-rule="evenodd" clip-rule="evenodd" d="M838.09 305.283C828.556 369.772 762.002 376.904 750.177 312.882C752.075 312.051 753.44 310.415 753.155 307.239C753.088 293.287 757.419 278.541 770.005 270.782C783.011 262.776 798.232 261.982 813.283 262.184C842.005 261.5 841.401 285.507 838.09 305.283M739.758 277.236C730.744 276.856 719.34 277.174 711.265 282.666C709.045 276.688 703.277 270.305 697.449 266.892C719.111 267.526 741.409 265.394 763.233 263.739C758.009 267.3 753.149 272.65 749.99 278.835C747.059 277.272 742.861 277.418 739.758 277.236M700.026 312.12C675.031 398.156 612.64 360.656 605.838 349.63C593.569 331.384 591.261 287.03 601.948 275.171C617.246 264.447 638.903 267.207 656.975 266.944C690.176 267.392 713.756 277.324 700.026 312.12M867.603 272.549C860.812 271.661 853.555 271.482 847.241 274.472C845.297 266.209 839.194 259.301 832.303 256.261C831.469 255.215 831.594 254.653 828.745 254.81C811.25 249.552 791.673 252.334 774.861 257.726C748.309 259.962 720.452 261.725 693.677 264.806C668.595 253.542 592.902 251.891 588.198 279.654C582.281 278.769 572.204 274.112 567.232 280.429C530.761 274.246 493.076 282.839 456.447 286.666C447.227 288.364 442.478 306.662 452.944 306.412C458.828 304.815 452.763 295.018 460.686 294.281C496.027 290.421 530.595 284.945 566.298 284.304C565.056 290.469 589.912 290.87 590.279 287.27C590.332 287.297 590.388 287.315 590.442 287.339C584.3 310.229 589.844 343.171 600.944 357.365C616.496 375.951 655.541 381.283 672.854 369.325C695.187 358.288 718.42 302.886 711.894 284.48C723.738 280.726 735.447 281.853 747.739 283.765C744.925 291.714 740.067 311.282 747.056 312.979C745.773 351.829 781.13 376.07 813.724 360.133C841.935 346.89 851.801 304.972 848.349 279.529C851.861 286.315 881.349 278.927 867.603 272.549" fill="black"/>
<path fill-rule="evenodd" clip-rule="evenodd" d="M712.587 430.926C705.864 428.184 699.866 423.61 695.481 417.766C693.957 415.735 693.561 413.589 693.881 411.627C694.241 409.421 695.546 407.422 697.326 406.08C699.112 404.735 701.345 404.072 703.504 404.41C705.381 404.704 707.248 405.731 708.727 407.862L709.035 408.288C711.642 411.815 715.04 414.708 718.91 416.574C722.641 418.372 726.814 419.211 731.132 418.723C739.356 417.794 745.024 413.346 751.049 407.306C751.796 406.544 752.543 405.757 753.294 404.958C753.768 404.234 754.426 403.768 755.157 403.524C755.968 403.253 756.886 403.268 757.726 403.562C758.537 403.845 759.262 404.381 759.747 405.094C760.209 405.772 760.471 406.61 760.386 407.574C759.835 413.833 756.562 419.419 751.914 423.805C746.752 428.677 739.909 432.047 733.466 433.229C726.368 434.531 719.136 433.598 712.587 430.926V430.926ZM736.814 334.367C744.366 338.957 755.872 349.66 747.748 361.039C738.186 371.073 724.418 359.569 717.634 354.366C711.343 350.334 704.275 360.704 710.112 365.413C759.136 401.708 779.031 335.567 740.634 328.97C736.406 328.243 734.836 332.947 736.814 334.367ZM648.963 292.146C649.798 281.79 665.57 279.438 667.139 289.686C668.544 298.866 666.89 307.299 662.755 315.564C658.804 323.46 648.874 319.776 648.123 312.586C647.116 302.948 648.444 298.588 648.963 292.146ZM769.027 287.561C771.226 284.681 774.401 282.715 778.205 283.826C790.09 287.299 786.587 304.172 782.413 312.385C780.145 316.845 772.814 317.976 769.501 314.049C764.101 307.645 761.515 294.856 768.38 288.548C768.566 288.222 768.773 287.893 769.027 287.561ZM662.588 246.83L664.465 246.502C670.273 245.497 677.494 244.532 681.603 249.201C683.782 251.677 684.532 256.279 681.603 258.649C676.451 262.819 670.755 261.203 664.581 261.556C659.493 261.848 654.603 262.69 649.702 264.091C638.95 267.164 630.189 272.774 621.006 278.934C619.801 279.742 618.571 278.201 619.146 277.074C624.447 266.691 634.72 258.162 645.01 252.963C650.502 250.188 656.512 247.886 662.588 246.83ZM758.193 242.179L759.63 242.473C775.267 245.742 795.583 252.271 802.988 267.631C803.271 269.802 802.972 270.268 802.73 270.572L802.649 270.673C802.45 270.933 802.29 271.291 801.349 271.587C801.087 271.524 800.824 271.458 800.557 271.388C797.163 270.499 794.477 269.274 791.877 268.002L789.058 266.613C785.788 265.01 782.488 263.464 778.992 262.324C771.53 259.89 763.854 258.175 756.06 257.259C754.37 257.061 752.744 256.491 751.46 255.514C750.242 254.586 749.311 253.302 748.887 251.595C748.337 249.386 748.495 247.714 749.68 245.721C750.572 244.224 751.847 243.187 753.311 242.591C754.804 241.984 756.503 241.841 758.193 242.179Z" fill="black"/>
</svg>
