<svg width="2350" height="2939" viewBox="0 0 2350 2939" fill="none" xmlns="http://www.w3.org/2000/svg">
<path fill-rule="evenodd" clip-rule="evenodd" d="M233.001 1018.54L231.586 1035.42L230.53 1033.44C230.38 1067.5 225.335 1101.93 219.771 1135.91C205.227 1123.95 193.271 1113.4 196.724 1092.98C205.47 1063.88 216.687 1035.49 225.755 1006.54L227.275 1014.13L233.261 1015.34L233.001 1018.54ZM1271.71 2812.67C1269.03 2800.84 1266.11 2788.31 1263.37 2776.45C1263.1 2775.44 1260.59 2775.22 1259.79 2774.95C1245.31 2739.49 1232.64 2731.41 1204.6 2726.58C1159.38 2718.4 1114.76 2700.66 1072.05 2674.38C1073.04 2670.46 1075.77 2663.71 1078.25 2656.49C1077.92 2656.61 1077.6 2656.7 1077.26 2656.77C1076.69 2656.88 1076.15 2656.9 1075.64 2656.87C1072.74 2663.67 1069.59 2669.65 1067.92 2671.85C1062.58 2668.41 1056.65 2664.63 1051.42 2660.97L1051.44 2660.9C1046.79 2657.68 1041.04 2653.69 1036.48 2651.21C1035.63 2646.49 1028.72 2645.03 1025.11 2641.91C1018.1 2636.91 1014.21 2634.32 1007.78 2640.72C993.918 2622.71 982.751 2603.66 971.773 2579.04C964.903 2564.65 961.528 2548.71 952.291 2535.86C952.468 2535.76 958.34 2533.93 958.484 2533.77C853.514 2301.17 836.696 2042.35 814.305 1793.73C809.366 1738.13 804.199 1682.02 794.571 1628.05C793.25 1619.87 792.064 1611.82 787.147 1605.31C846.137 1556.69 846.712 1462.46 818.139 1392.56C883.835 1215.3 755.06 1027.03 764.563 846.125C769.89 723.412 747.806 581.227 609.221 551.784C592.035 541.89 571.432 540.413 555.033 540.146C540.269 532.686 537.942 516.215 532.686 502.675L527.55 502.707C526.043 496.579 524.551 489.86 523.255 483.686C521.306 479.771 522.461 474.669 516.321 475.754C502.405 455.602 391.036 445.471 389.771 477.919C385.751 480.29 384.957 484.918 384.021 490.538C377.845 530.39 335.297 562.171 296.96 555.762L296.339 555.201C133.127 549.151 68.8758 665.287 36.9828 823.563C12.0638 946.541 -3.77515 1079.82 15.7388 1203C34.8038 1258.82 92.5509 1285.68 137.227 1320.07C132.077 1333.05 131.596 1347.37 131.439 1361.42C130.85 1377.63 129.671 1393.98 128.237 1409.98C125.299 1430.25 120.543 1465.15 148.135 1467.52C158.824 1709.83 181.15 1951.51 147.035 2194.53C118.714 2328.93 129.556 2491.55 164.573 2623.05C166.593 2629.54 171.782 2635.39 178.41 2633.31C181.776 2635.49 184.405 2636.85 187.188 2634.8C188.828 2637.84 190.625 2640.76 192.568 2643.59C193.303 2679.71 197.398 2715.16 195.534 2751.52C192.754 2751.2 186.639 2748.14 184.263 2750.14L183.923 2752.91L181.661 2753.68C176.926 2767.05 173.955 2781.07 171.757 2792.39C162.176 2811.78 149.935 2846.1 156.761 2867.71C156.43 2868.09 154.592 2870.23 154.303 2870.56C152.672 2871.49 152.371 2872.74 151.973 2874.17C147.323 2875.92 146.846 2881.23 146.367 2886.67C144.038 2899.84 147.498 2911.81 148.687 2924.69L148.757 2924.6C148.757 2924.6 152.661 2929.13 152.667 2929.14C201.732 2932.12 250.047 2932.89 298.894 2934.64C302.58 2927.58 303.69 2918.04 306.46 2910.28C364.37 2952.66 464.705 2936.44 537.444 2926.04C566.984 2921.78 594.892 2917.75 619.635 2916.41C621.245 2916.19 621.36 2915.5 621.402 2914.85C621.645 2905.16 623.469 2895.21 622.559 2885.8C627.668 2880.83 625.339 2871.79 621.828 2863.84C608.917 2835.87 573.824 2832.81 545.392 2828.04C491.902 2817.66 448.89 2798.12 414.095 2768.27C416.436 2766.15 418.561 2764.07 420.497 2762.03C419.741 2761.53 418.985 2761.03 418.231 2760.52C416.4 2759.72 414.649 2758.89 413.043 2757.85C412.225 2758.31 411.2 2758.41 410.188 2757.84C406.691 2755.88 403.841 2752.99 400.519 2750.78C399.86 2751.73 399.198 2752.69 398.532 2753.7C395.346 2750.34 391.74 2746.54 388.589 2743.02C388.476 2742.04 388.732 2739.62 387.545 2739.35C378.587 2740.26 368.211 2743.28 358.84 2746.63C348.248 2711.82 342.113 2674.14 342.821 2638.56C353.237 2638.56 362.36 2638.46 370.127 2633.51C372.25 2634.08 375.208 2635.31 375.757 2631.97C378.909 2618.35 379.728 2603.92 380.521 2589.97C396.643 2326.07 421.207 2114.01 502.681 1890.45C510.505 1921.49 523.641 1953.78 535.595 1984.68C589.979 2113.82 629.159 2253.08 662.744 2388.63C675.958 2439.37 690.322 2495.12 704.509 2545.32C710.011 2569.46 721.195 2578.3 744.632 2578.1C762.692 2578.95 780.814 2578.69 798.947 2577.42C823.668 2599.96 833.805 2630.39 841.027 2657.79C835.01 2662.26 825.46 2660.58 818.425 2662.05C812.359 2671.83 814.458 2685.51 814.6 2697.57C815.552 2713.25 814.741 2730.06 819.303 2744.86C820.118 2761.05 820.219 2778.78 821.436 2797.6C808.034 2805.37 810.489 2822.55 814.94 2838.98C816.929 2843.16 888.959 2842.33 906.827 2842.16C927.823 2840.94 957.764 2846.3 964.649 2823.28C1014.64 2851.05 1090.68 2841.67 1148.92 2833.49C1191.18 2828.34 1229.47 2823.55 1270.98 2814.81C1271.41 2814.62 1272.01 2813.28 1271.71 2812.67V2812.67Z" fill="white"/>
<path fill-rule="evenodd" clip-rule="evenodd" d="M818.46 2661.6C829.724 2667.86 838.735 2677.62 850.56 2683.03C901.737 2708.68 966.525 2694.87 1005.52 2653.73C1011.02 2653.85 1015.44 2647.83 1014.27 2642.4C1025.97 2643.44 1035.19 2652.45 1043.9 2659.57C1042.71 2667.81 1043.26 2676.09 1046.59 2683.98C1046.85 2684.61 1047.98 2684.86 1048.12 2683.98C1049.13 2677.98 1050.17 2671.94 1051.53 2666.01C1053.99 2668.03 1056.48 2669.94 1059.02 2671.84C1059.24 2676.77 1064.38 2680.36 1068.58 2678.66C1103.04 2702.06 1141.98 2718.66 1182.43 2728.37C1214.08 2734.99 1230.51 2734.31 1244.55 2767.65C1239.35 2768.69 1234.23 2771.22 1226.41 2773.13C1094.09 2788.58 960.558 2771.93 828.03 2783.2C826.258 2754.05 824.673 2724.92 822.67 2695.78C821.965 2685.3 821.658 2674.72 817.59 2664.92C817.67 2663.72 817.86 2662.54 818.24 2661.62C818.31 2661.61 818.38 2661.61 818.46 2661.6ZM823.4 2589.83C823.828 2587.89 822.307 2586.26 820.8 2584.97C819.07 2582.05 817.1 2579.3 814.76 2576.98C860.717 2572.92 904.78 2558.77 947.95 2544.18C953.166 2581.31 971.678 2615.04 992.54 2645.67C957.131 2682.6 899.471 2691.59 853.12 2671.4C856.212 2664.58 849.578 2654.72 847.891 2647.67C842.077 2630.79 834.117 2614.65 827.22 2598.24C826.04 2595.53 824.8 2592.66 823.4 2589.83ZM813.94 2589.19C814.25 2589.41 814.57 2589.64 814.88 2589.84C815.07 2590.3 815.25 2590.76 815.44 2591.22C814.96 2590.7 814.47 2590.19 813.98 2589.69C813.97 2589.52 813.96 2589.36 813.94 2589.19ZM389.09 2742.34C390.01 2743.97 390.97 2745.58 391.97 2747.16C390.046 2748.36 375.545 2779.17 383.65 2774.24C388.15 2767.83 392.65 2761.37 397.5 2755.2C398.85 2757 400.24 2758.77 401.68 2760.5C396.69 2764.09 398.63 2772.5 405.24 2772.52C407.604 2772.53 409.437 2772.04 411.64 2771.22C441.221 2799.54 480.111 2816.29 519.26 2826.67C551.698 2836.85 612.799 2831.65 614.45 2877.9C611.15 2877.82 607.613 2878.89 605.1 2881.27C461.884 2929.75 313.921 2878.65 169.47 2864.49C171.463 2860.49 168.925 2853.26 163.64 2853.57C163.59 2821.18 172.541 2789.01 185.5 2759.53C258.997 2829.67 311.622 2761.06 385.76 2744.28C387.19 2743.99 388.29 2743.28 389.09 2742.34ZM426.98 2729.75C426.768 2729.75 426.228 2729.69 426.02 2729.75C423.037 2739.82 416.695 2748.89 408.62 2755.39C406.47 2753.42 404.36 2751.41 402.29 2749.37C407.68 2743.11 413.58 2737.32 420.41 2732.43C422.325 2731.12 424.562 2729.61 426.98 2729.75ZM141.2 1433.71C139.287 1426.71 141.451 1419.39 141.67 1412.27C143.31 1392.9 145.54 1373.38 145.11 1353.92C144.581 1346.92 144.433 1340.15 145.99 1333.31C145.516 1331.48 143.878 1335.82 143.39 1336.22C143.29 1335.67 143.16 1335.12 143.05 1334.57C143.83 1333.68 144.66 1332.9 145.56 1332.15C183.969 1363.93 221.194 1397.13 257.09 1431.72C260.81 1435.29 266.3 1435.07 270.05 1431.72C277.83 1424.76 285.89 1418.23 294.19 1412.08C297.06 1421.46 301.45 1430.15 306.47 1438.55C273.661 1442.56 241.287 1433.84 208.71 1431.29C186.865 1429.62 164.938 1430.65 143.24 1433.53C142.68 1433.61 141.8 1433.61 141.2 1433.71ZM213.53 1122.61C202.074 1112.71 197.273 1106.24 198.681 1090.64C205.457 1067.6 214.241 1045.19 221.74 1022.38C222.705 1027.2 222.787 1032.14 223.19 1037.02C220.54 1065.62 218.487 1094.32 213.53 1122.61ZM225.18 1014.37C225.02 1014.07 224.86 1013.77 224.69 1013.48C224.94 1012.71 225.19 1011.94 225.44 1011.17C225.35 1012.24 225.27 1013.3 225.18 1014.37ZM18.61 1190.41C18.68 1178.18 17.08 1165.87 16.37 1153.67C10.511 1051.05 17.695 947.679 37.78 846.863C64.268 704.324 113.338 561.19 282.9 558.283C288.848 563.668 290.936 571.975 294.25 579.113C304.243 598.894 318.921 616.024 335.75 630.333C405.5 687.107 589.96 751.92 606.162 614.374C606.2 610.102 605.91 605.593 605.22 601.083C606.75 596.352 606.04 590.423 604.96 585.102C605.69 581.293 604.57 576.923 602.64 572.812C602.96 572.543 603.26 572.243 603.52 571.913C595.908 557.381 582.859 552.626 568.369 547.153C566.37 545.153 568.14 541.013 571.21 542.093C577.96 544.463 584.9 546.062 591.94 547.272C592.92 547.443 593.54 547.953 593.85 548.602C758.289 598.378 752.913 733.824 750.386 876.984C752.876 1031.23 842.234 1176.03 816.16 1331.87C785.383 1143.82 724.844 960.932 711.104 769.973C710.071 752.848 707.529 735.938 705.599 718.903C704.613 711.728 703.537 691.631 701.08 694.992C689.343 760.668 698.512 828.147 708.359 893.533C730.071 1026.41 765.944 1156.43 790.22 1288.8C803.615 1347.65 805.054 1409.53 746.027 1443.56C682.227 1478.67 602.845 1471.62 533.91 1457.39C528.41 1456.09 524.25 1458.95 522.27 1462.89C508.812 1434.69 478.608 1420.81 458.95 1397.68C439.263 1372.45 426.383 1342.61 408.28 1316.24C410.12 1300.2 395.205 1274.91 378.18 1274.57C335.189 1229.69 288.69 1188.14 238.44 1151.54C237.71 1149.23 235.75 1147.93 234.37 1145.86C232.319 1142.38 230.987 1138.03 231.309 1134C238.938 1089.93 240.72 1044.2 228.79 1000.7C250.062 934.603 263.007 866.343 275.15 798.133C276.285 794.834 270.761 793.287 269.94 796.693C268.51 803.933 267.14 811.183 265.8 818.433C241.281 908.935 212.072 997.933 180.208 1086.08C176.49 1098.37 173.01 1110.64 175.11 1123.51C176.929 1131.02 188.308 1130.3 189.61 1122.6C192.156 1121.86 194.408 1122.52 196.4 1124.03C196.42 1124 196.43 1123.97 196.45 1123.95C211.696 1145.75 231.901 1163.77 252.46 1180.83C287.678 1210.77 322.22 1241.51 354.75 1274.37C362.479 1284.36 388.427 1302.2 390.261 1315.7C386.859 1339.75 361.965 1351.16 342.42 1360.56C313.986 1374.38 287.319 1391.87 263.67 1412.85C212.186 1365.25 158.547 1319.86 101.86 1278.55C69.35 1255.15 29.082 1231.95 18.61 1190.41ZM595.62 574.102C595.76 574.873 595.89 575.643 596.02 576.403C595.41 575.553 594.78 574.713 594.11 573.913C594.61 573.983 595.11 574.043 595.62 574.102ZM781.3 1590.15C780.75 1588.52 780.17 1586.9 779.59 1585.28C781.095 1578.05 783.363 1571.28 784.05 1563.67C798.63 1548.86 807.68 1528.68 810.1 1508.09C810.82 1502.04 811.24 1496.24 806.8 1491.51C805.17 1489.77 801.71 1489.58 800.11 1491.51C794.67 1498.06 796.08 1507.93 794.14 1515.92C790.059 1532.85 780.614 1548.8 767.08 1559.57C759.458 1565.8 749.725 1573.67 741 1576.06C747.809 1549.45 762.792 1524.12 764.778 1496.07C765.35 1487.85 764.83 1480.16 762.82 1472.16C761.326 1467.18 759.078 1462.85 760.85 1457.66C781.438 1444.37 799.63 1425.23 808.87 1402.1C812.157 1402.46 815.536 1401.01 817.02 1397.34C824.41 1452.03 834.38 1509.78 805.83 1559.93C799.433 1571.3 791.177 1581.62 781.3 1590.15ZM487.69 1463.52C479.652 1455.28 472.413 1446.37 465.02 1437.55C457.171 1429.41 443.784 1442.1 457.64 1454.01C481.787 1484.19 480.928 1521.82 469.46 1556.76C467.48 1547.78 465.9 1538.86 462.93 1530.05C455.56 1508.2 444.38 1487.84 430.43 1469.52C427.07 1465.11 418.37 1467.35 420.58 1473.67C427.55 1493.58 430.7 1515.61 427.54 1536.61C426.06 1546.4 421.84 1555.71 421.27 1565.65C421.08 1569.09 423.12 1577.79 417.69 1575.82C415.6 1575.06 413.74 1570.63 412.85 1567.81C408.415 1553.25 409.348 1537.83 407.65 1522.85C405.54 1503.39 402.29 1483.4 388.34 1468.62C385.28 1465.37 380.76 1467.46 379.31 1471C368.282 1497.61 379.691 1530.62 360.08 1553.96C359.1 1555.04 353.5 1560.51 352.59 1559.79C351.05 1558.57 352.71 1551.68 352.97 1550.08C366.454 1494.35 320.624 1448.09 304.25 1404.88C336.849 1378.07 392.659 1369.5 406.82 1325.54C420.031 1354.72 431.481 1385.6 452.42 1410.35C472.958 1434.93 511.468 1451.15 513.06 1487.05C503.255 1481.35 495.616 1471.51 487.69 1463.52ZM192.18 2628.87C217.375 2629.27 242.692 2637.09 267.67 2636.67C290.739 2637.49 313.838 2636.43 336.87 2635.03C328.168 2669.37 331.522 2709.64 343.03 2742.94C298.256 2763.89 257.487 2793.8 208.38 2764.59C207.84 2760.27 206.37 2755.98 204.95 2751.78C205.515 2749.46 205.945 2746.42 203.82 2744.58C203.937 2705.77 199.933 2666.92 192.18 2628.87ZM1073.67 2629.39C1076.64 2632.53 1066.05 2656.99 1063.5 2661.13C1060.48 2659.18 1057.49 2657.27 1054.52 2655.23C1056.88 2648.19 1060.06 2641.46 1064.68 2635.31C1065.93 2633.65 1070.86 2626.97 1073.67 2629.39ZM1265.4 2771.55C1264.91 2769.43 1262.88 2767.5 1260.67 2766.96C1254.31 2750.52 1244.13 2734.08 1228.38 2725.43C1218.87 2720.5 1208.33 2719.07 1197.96 2717.01C1154.44 2708.52 1113.07 2691.28 1075.28 2668.45C1078.99 2657.95 1082.47 2647.53 1084.7 2636.64C1088.34 2624.46 1078.65 2614.27 1066.5 2619.38C1055.82 2624.18 1049.36 2638.89 1046.18 2649.42C1043.49 2647.57 1040.65 2645.72 1037.73 2644.04C1036.21 2639.79 1031.19 2637.98 1027.32 2635.57C1021.29 2631.55 1013.19 2624.51 1005.94 2629.96C992.832 2612.48 982.326 2593.09 973.46 2573.16C966.495 2559.12 963.84 2543.15 954.08 2530.61C955.45 2521.93 950.138 2513.26 946.591 2505.54C943.3 2498.49 940.16 2491.36 937.2 2484.16C875.779 2317 853.926 2137.77 828.145 1962.36C809.601 1844.27 812.418 1723.11 786.25 1606.36C849.817 1554.67 848.31 1459.26 820.64 1388.73C879.747 1223.55 779.531 1059.12 767.42 894.583C763.531 774.507 783.509 630.322 658.685 562.534C642.88 553.813 625.902 546.774 608.14 543.283C591.705 534.04 572.118 531.788 553.51 531.423C543.009 525.72 540.028 512.63 536.259 502.113C535.23 498.323 532.92 494.053 532.51 490.173C532.47 489.833 531.95 489.693 531.86 490.083C517.285 528.501 554.038 568.644 591.43 573.483C608.288 632.94 572.829 685.949 508.928 682.581C434.939 677.032 330.346 636.203 303.6 561.053C315.393 560.833 326.617 557.153 337.74 553.652C340.31 552.476 343.888 552.652 345.47 550.043C371.037 537.192 390.76 513.019 395.02 484.602C394.84 484.743 394.53 484.953 394.04 485.263C394.48 484.983 394.88 484.683 395.24 484.373C395.6 480.013 395.65 475.653 395.23 471.283C393.27 469.513 390.49 468.553 387.26 469.203C377.42 471.183 377.22 481.553 375.64 489.333C374.22 496.343 371.56 502.793 367.98 508.973C353.397 533.757 325.499 551.001 296.31 547.253C294.98 546.053 293.11 545.463 291.3 546.062C291.43 546.173 291.57 546.283 291.7 546.383C120.275 540.091 59.115 671.779 29.262 818.736C5.40704 926.576 -4.00596 1037.63 1.55004 1147.94C2.90904 1160.7 1.23204 1195.46 9.56004 1202.96C27.864 1258.63 85.225 1284.79 128.48 1318.08C123.917 1331.17 123.816 1345.1 123.58 1358.81C122.9 1374.48 121.85 1390.14 120.42 1405.77C119.13 1419.87 115.44 1435.7 120.55 1449.42C123.81 1458.08 131.108 1467.11 140.76 1468.26C143.356 1491.92 144.199 1515.86 146.24 1539.53C148.68 1756.37 173.47 1974.37 139.247 2190.02C126.637 2271.92 116.259 2354.87 124.85 2437.74C131.297 2499.31 143.491 2560.22 156.889 2620.58C159.33 2628.56 165.64 2636.15 174.54 2634.78C177.608 2636.64 181.343 2638.07 184.67 2636.45C185.137 2675.02 190.134 2713.52 187.37 2752.11C185.52 2751 183.65 2749.91 181.77 2748.85C180.689 2746.54 178.526 2744.31 175.92 2745.69C175.35 2745.43 174.61 2745.93 174.74 2746.52C169.987 2759.41 166.786 2773.43 164.149 2786.97C154.894 2804.78 149.279 2824.63 147.41 2844.69C146.493 2852.52 145.154 2862.64 152.03 2868.24C149.642 2868.33 146.676 2868.52 145.96 2871.3C142.577 2879.6 137.05 2930.61 149.61 2930.38C198.27 2933.35 247.15 2934.14 295.87 2935.89C298.52 2935.99 301.05 2933.94 301.73 2931.43C303.28 2925.74 304.95 2920.08 306.57 2914.41C383.92 2956.86 568.639 2932.13 615.24 2922.65C624.84 2922.65 625.462 2892.75 624.84 2883.63C630.26 2876.76 626.86 2865.26 623.53 2858C609.479 2827.52 572.675 2824.26 543.5 2819.38C498.482 2810.71 454.377 2793.7 418.79 2764.26C428.394 2755.15 439.778 2740.09 438.551 2726.35C437.27 2720.37 431.9 2717.05 426.02 2717.41C412.629 2718.53 402.879 2732.63 395.33 2742.29C393.75 2740.62 392.2 2738.94 390.66 2737.24C390.49 2733.65 388.1 2730.15 383.92 2730.65C375.64 2731.64 367.59 2733.66 359.71 2736.34C357.76 2727.27 354.16 2718.41 352.15 2709.3C346.843 2686.47 345.592 2663.12 345.09 2639.73C354.761 2639.58 360.317 2639.11 367.83 2635.13C371.91 2636.33 376.53 2634.82 377.79 2629.35C381.9 2611.58 382.12 2593.22 383.37 2575.06C397.268 2344.79 422.31 2112.88 502.21 1894.95C510.544 1921.22 521.517 1946.55 530.9 1972.45C596.445 2143.26 637.197 2321.98 684.55 2498.34C688.56 2513.15 692.63 2527.94 696.8 2542.7C702.622 2567.87 714.82 2579.46 741.561 2579.35C759.12 2580.17 776.715 2579.97 794.26 2578.8C814.99 2598.4 825.027 2624.6 832.29 2651.39C826.998 2654.04 811.343 2650.15 810.65 2657.32C804.086 2668.07 806.885 2681.94 806.759 2693.95C807.733 2710.07 806.902 2727.15 811.689 2742.59C811.957 2758.86 812.597 2775.13 813.46 2791.39C799.143 2801.73 803.429 2822.3 807.36 2836.85C806.548 2847.17 891.865 2842.52 904.02 2843.43C924.032 2841.78 953.52 2848.01 964.11 2826.23C1030.48 2858.91 1122.45 2835.64 1193.93 2829.02C1219.11 2825.32 1244.18 2820.95 1269.13 2815.96C1272.75 2815.23 1274.5 2811.1 1273.75 2807.82C1271.01 2795.72 1268.19 2783.64 1265.4 2771.55Z" fill="black"/>
<path fill-rule="evenodd" clip-rule="evenodd" d="M664.617 424.844C660.653 418.982 651.108 376.442 645.011 369.899C645.471 344.769 652.418 257.762 632.575 218.65C636.749 214.429 647.841 178.074 645.011 164.331C654.359 135.549 594.306 89.8356 571.451 77.4828C465.23 20.5241 311.308 83.3968 263.001 188.912C233.972 252.457 233.437 323.603 230.155 391.978C229.767 406.614 228.422 421.364 228.437 435.982C230.536 448.827 240.721 461.908 233 472.589C224.471 478.488 207.233 492.86 214.908 501.01C219.406 504.755 226.591 502.582 231.472 506.183C233.957 507.573 235.507 510.62 238.413 511.083C264.959 510.075 283.691 509.989 310.319 508.913C321.976 508.531 339.727 513.462 353.107 503.646C399.845 529.642 380.295 491.927 389.746 465.075C418.526 474.806 475.856 505.837 506.533 506.839C531.462 509.92 554.773 495.402 579.281 498.707C609.728 510.018 645.41 512.533 673.299 493.395C680.259 488.383 688.002 494.189 696.774 488.776C713.823 480.623 673.221 433.889 664.617 424.844Z" fill="white"/>
<path fill-rule="evenodd" clip-rule="evenodd" d="M629.822 215.312C629.444 213.141 632.435 211.522 633.592 213.722C641.997 229.703 645.364 248.211 648.341 265.863C651.348 283.701 653.335 301.613 653.445 319.721C653.529 333.65 652.264 347.74 649.889 361.679L650.178 362.671V362.671C650.711 364.493 651.25 366.314 651.794 368.133L652.614 370.861C654.2 376.099 655.702 381.361 657.331 386.586C660.732 397.491 664.313 408.427 668.699 418.98C672.979 429.278 678.184 439.209 684.371 448.491C690.334 457.439 699.797 465.005 703.998 474.943C705.462 478.406 703.297 482.984 699.253 482.431C698.99 482.748 698.589 482.978 698.045 483.026C694.905 483.3 691.962 483.039 688.829 482.745C687.08 482.581 687.083 480.19 688.829 480.026C690.16 479.901 691.456 479.791 692.751 479.716C683.791 474.407 677.399 464.04 672.288 455.553C665.72 444.649 660.759 432.735 656.715 420.687C652.562 408.317 649.621 395.689 647.258 382.867C646.987 381.391 646.729 379.914 646.481 378.435C643.495 391.128 639.65 403.589 635.093 415.565L634.455 417.232C623.949 444.466 609.721 471.961 586.056 489.961C584.982 490.777 583.885 491.552 582.779 492.31L584.125 493.082C585.465 493.847 586.785 494.581 588.076 495.183C592.858 497.414 598.049 499.115 603.184 500.32C613.79 502.811 624.928 502.097 635.748 502.444C639.297 502.558 641.316 507.879 637.688 509.607C625.737 515.298 612.829 514.09 600.493 510.086C594.389 508.103 588.661 505.328 583.362 501.705C581.171 500.208 578.627 498.36 576.479 496.224C552.812 509.466 523.396 510.948 497.054 506.212C483.365 503.75 470.1 499.255 458.429 491.566C447.203 484.172 439.201 474.81 433.488 462.681C432.981 461.606 434.39 460.267 435.255 461.318C453.2 483.113 484.082 492.207 511.25 493.937C525.746 494.861 540.575 494.093 554.512 489.756C567.733 485.64 579.077 478.096 588.549 468.063C607.748 447.726 619.252 420.06 627.514 393.731C636.502 365.088 640.782 334.952 641.665 304.976C642.112 289.789 641.549 274.474 639.164 259.455C636.798 244.56 632.407 230.144 629.822 215.312ZM360.771 86.2817C362.042 85.6357 362.937 87.3167 361.859 88.1437C339.482 105.305 319.442 127.065 303.222 150.096C273.309 192.573 254.125 241.727 245.291 292.803C240.075 322.966 238.713 353.586 239.234 384.151C239.441 396.292 240.134 408.397 240.905 420.505L241.776 433.927C242.181 440.18 242.518 446.38 242.257 452.664L242.186 454.116C241.772 461.428 242.491 468.799 240.657 475.932C239.716 479.59 234.557 480.166 232.689 476.973C232.323 476.348 231.981 475.703 231.649 475.052C227.271 482.192 221.601 488.575 215.31 494.277C218.317 493.637 221.353 493.229 224.47 493.602C229.411 494.194 233.843 496.102 236.979 499.446C240.092 498.043 243.293 497.077 246.974 497.057C249.685 497.043 251.718 500.248 250.171 502.629C247.085 507.381 242.779 510.045 237.886 512.678C234.419 514.544 230.28 512.948 229 509.258L228.926 509.034C227.485 504.366 219.821 505.12 216.205 505.842L215.141 506.059C208.41 507.46 201.837 509.252 194.98 507.404C190.557 506.211 189.401 499.553 193.665 497.343C207.135 490.363 218.443 480.987 230.064 471.573C227.498 465.282 226.041 458.253 224.361 451.856C221.996 442.852 221.305 433.164 220.451 423.915C218.828 406.33 218.209 388.554 218.383 370.9C218.972 311.272 229.17 251.459 255.219 197.464C266.631 173.811 281.623 151.924 299.344 132.551C316.96 113.292 337.535 98.0837 360.771 86.2817ZM339.916 378.296C339.225 377.338 340.574 376.071 341.52 376.692C362.001 390.145 376.214 410.573 385.385 433.014C394.463 455.231 400.037 482.444 391.084 505.612C389.659 509.302 382.834 510.672 382.135 505.612C379.014 483.016 378.529 460.388 371.666 438.42C364.862 416.643 353.22 396.701 339.916 378.296ZM324.036 451.652C324.148 451.253 324.8 451.322 324.772 451.752C324.259 459.72 323.911 467.785 322.909 475.709C322.422 479.56 321.778 483.386 321.23 487.228C320.668 491.168 320.753 495.146 318.462 498.511C315.426 502.972 307.36 501.717 307.631 495.578C307.818 491.343 309.764 488.625 311.587 484.908C312.756 482.525 313.775 480.062 314.758 477.587L316.218 473.875C319.12 466.514 321.897 459.277 324.036 451.652ZM287.361 430.545C287.485 429.918 288.496 430.069 288.466 430.694C287.919 441.972 286.647 453.123 284.655 464.236C283.747 469.301 282.688 474.338 281.567 479.361L281.084 481.513C279.886 486.803 279.113 493.022 276.429 497.748C273.747 502.471 267.379 499.041 268.204 494.28C269.168 488.722 272.579 483.131 274.562 477.793C276.392 472.865 277.992 467.85 279.487 462.811C282.634 452.204 285.215 441.398 287.361 430.545ZM355.657 461.855L355.896 461.61C356.828 460.597 358.218 461.272 358.663 462.341C360.485 466.722 359.573 471.888 359.443 476.539L359.419 477.554C359.322 482.265 359.389 486.678 357.253 491.027C354.659 496.308 347.824 493.028 347.295 488.33C346.717 483.203 349.142 478.184 350.708 473.382C351.703 470.33 352.428 467.156 353.941 464.386C352.647 464.609 351.355 465.056 350.172 465.379C349.642 465.522 349.442 464.744 349.948 464.564C351.904 463.872 354.112 463.352 355.657 461.855V461.855ZM628.316 477.402C627.691 476.703 628.47 475.772 629.281 476.15C639.021 480.699 648.131 483.658 658.878 484.627C663.535 485.047 663.564 492.363 658.878 491.939C647.662 490.929 635.907 485.9 628.316 477.402ZM285.641 323.709C294.216 304.42 321.344 287.309 339.535 305.247C339.876 305.582 339.529 306.313 339.034 306.108C327.719 301.419 313.867 307.383 306.036 315.913C299.823 322.679 296.09 331.367 295.349 340.524C294.608 349.689 296.799 359.255 302.886 366.344C306.079 370.063 310.391 373.583 315.465 374.03C320.588 374.481 324.858 370.873 329.701 369.893C333.352 369.155 336.108 371.446 336.466 375.045C337.255 382.988 329.347 388.319 322.492 389.614C315.118 391.006 307.592 389.485 301.238 385.489C280.716 372.583 276.289 344.748 285.641 323.709ZM478.186 134.646C481.915 131.082 488.258 134.625 486.882 139.709C483.956 150.529 477.737 159.674 470.847 168.354C464.218 176.705 457.116 184.73 449.504 192.199C441.942 199.619 433.726 206.485 425.091 212.618L422.49 214.46C416.371 218.774 409.888 223.137 403.038 226.244C401.384 240.494 398.148 254.554 393.252 268.015C388.537 280.977 382.537 293.504 375.267 305.227L374.223 306.906C367.543 317.613 359.509 329.578 348.173 335.447C347.833 335.624 347.492 335.732 347.156 335.795C349.692 337.486 351.835 339.613 353.109 342.669C354.505 346.015 351.587 349.172 348.79 350.277C342.875 352.614 337.105 348.658 331.788 344.438C331.563 344.944 331.351 345.455 331.169 345.97C329.98 349.34 329.63 352.784 326.564 355.02C325.107 356.083 323.312 355.132 322.395 353.928C319.389 349.978 322.501 344.597 325.144 341.369C325.51 340.923 325.888 340.499 326.277 340.092C325.16 339.271 324.07 338.543 323.014 337.984C316.805 334.696 307.601 334.113 304.026 341.392C303.752 341.951 302.891 341.662 302.891 341.084C302.9 332.143 312.059 327.287 320.007 326.627C325.814 326.145 331.431 328.182 336.658 330.553L337.633 331.001C339.578 331.904 341.582 332.756 343.5 333.709C343.188 332.886 343.193 331.918 343.684 330.958C349.695 319.219 360.017 309.673 367.461 298.801C374.843 288.015 381.181 276.472 386.24 264.419C391.15 252.72 394.997 240.654 397.687 228.347C396.801 228.53 395.802 227.741 395.865 226.816C396.015 224.578 397.11 222.562 399.033 221.703C401.151 210.127 402.232 198.355 402.169 186.488C402.164 185.568 403.497 185.601 403.575 186.488C404.511 197.039 404.587 207.693 403.8 218.285C408.802 213.683 414.077 209.308 418.893 204.584C426.14 197.476 433.151 190.178 439.914 182.609C446.814 174.887 453.336 166.881 459.3 158.41L462.421 153.968C467.22 147.158 472.149 140.419 478.186 134.646ZM468.777 58.6203C509.933 56.0513 553.887 61.1093 590.855 80.4283C611.158 91.0373 626.851 107.072 638.064 127.027C644.759 138.943 649.838 152.138 651.762 165.704C653.738 179.643 651.418 192.072 642.518 203.152C638.983 207.552 633.029 202.637 633.9 198.135C639.228 170.591 630.586 143.377 615.259 120.574C593.018 87.4843 554.177 72.7853 516.36 66.2283C497.78 63.0083 478.935 61.6623 460.085 62.3173C445.714 62.8173 430.972 64.1563 417.334 68.9913C416.759 69.1953 416.53 68.2993 417.084 68.0883C433.352 61.8753 451.512 59.6983 468.777 58.6203ZM529.815 120.903C531.934 119.56 534.526 120.938 535.254 123.117C537.822 130.799 532.44 140.948 528.84 147.596C524.766 155.119 519.527 162.153 514.117 168.76C503.294 181.974 489.069 193 473.459 199.93C472.503 200.355 471.389 199.201 472.266 198.385C484.344 187.138 495.295 175.08 504.775 161.553C509.433 154.906 513.318 147.894 517.028 140.691C520.348 134.245 523.47 124.925 529.815 120.903ZM599.032 129.953C600.386 125.225 608.098 126.03 607.779 131.137C606.954 144.33 600.73 157.573 593.967 168.754C587.003 180.267 578.184 190.527 568.075 199.388C567.577 199.825 566.895 199.152 567.346 198.659C576.068 189.111 583.113 178.235 588.33 166.399C593.541 154.58 595.508 142.248 599.032 129.953ZM560.703 127.817C562.178 123.706 569.238 124.011 568.805 128.914C567.615 142.392 559.705 156.517 552.379 167.649C544.605 179.46 534.682 189.865 523.592 198.604C523.177 198.931 522.59 198.389 522.995 198.007C532.956 188.622 541.034 177.781 547.429 165.689C550.693 159.519 553.431 153.094 555.593 146.457C557.593 140.317 558.532 133.869 560.703 127.817Z" fill="black"/>
<path fill-rule="evenodd" clip-rule="evenodd" d="M486.427 352.019C501.197 350.223 515.513 354.754 529.951 357.038C537.575 358.244 545.207 359.144 552.922 359.478C554.474 359.546 556.026 359.586 557.579 359.618C557.724 358.248 558.489 356.99 560.146 356.237C563.544 354.693 566.263 353.997 569.994 354.146C573.409 354.281 576.836 354.633 580.198 355.25C586.304 356.372 592.437 358.918 596.904 363.341C607.24 373.576 605.667 390.016 597.68 401.163C581.179 424.199 551.061 425.268 525.267 424.968L522.887 424.936C499.401 424.6 465.798 428.109 455.128 401.33C451.204 391.482 451.749 380.067 456.554 370.622C462.284 359.356 474.346 353.489 486.427 352.019ZM559.79 390.374L559.58 390.382C548.751 390.8 537.925 391.095 527.09 391.286C527.414 394.075 527.745 396.864 528.124 399.647C528.42 401.836 528.738 404.023 529.069 406.208C529.209 407.133 529.724 408.569 529.578 409.485L529.526 409.847V409.847C530.082 410.099 530.587 410.505 530.962 411.095C531.093 411.299 531.188 411.504 531.282 411.709C539.694 411.775 548.746 411.612 557.321 410.08L557.338 409.893V409.893C557.494 408.795 557.95 408.056 558.555 407.549C559.158 404.048 559.103 400.318 559.336 396.844C559.481 394.687 559.638 392.531 559.79 390.374ZM518.815 391.434C511.01 391.567 503.202 391.67 495.399 391.574L491.856 391.52V391.52C492.604 395.542 493.418 399.55 494.095 403.599C494.801 407.819 491.095 410.502 487.887 410.394C488.247 410.453 488.606 410.514 488.967 410.565C498.989 411.985 509.395 411.608 519.566 411.597C519.018 408.396 519.24 404.785 519.158 402.113L519.143 401.7C518.987 398.276 518.878 394.855 518.815 391.434ZM465.8 390.696C466.071 392.788 466.598 394.835 467.386 396.74C470.718 404.792 478.356 408.549 486.437 410.131C485.035 409.646 483.922 408.48 483.641 406.483C482.94 401.518 482.688 396.47 482.669 391.428C477.037 391.376 471.367 391.255 465.8 390.696ZM589.162 388.977C585.152 389.925 580.492 389.491 576.558 389.67C572.872 389.838 569.185 389.984 565.499 390.134C565.673 392.655 565.842 395.176 566.026 397.696C566.263 400.954 566.286 404.396 566.908 407.64C574.326 405.102 580.973 401.034 585.959 394.527C587.201 392.907 588.314 391.004 589.162 388.977ZM484.733 365.229C478.058 366.813 471.74 370.159 468.345 376.281C466.33 379.913 465.443 384.218 465.614 388.461C471.255 387.803 476.994 387.553 482.705 387.347C482.724 386.316 482.748 385.286 482.779 384.259L482.867 381.626C483.023 376.603 483.101 370.297 484.733 365.229ZM519.282 365.842L516.344 365.511C508.182 364.579 500.024 363.601 491.862 364.162C490.681 364.243 489.482 364.372 488.28 364.549C489.722 369.766 489.601 375.894 490.204 381.058C490.437 383.055 490.731 385.036 491.057 387.009L492.473 386.942V386.942C501.231 386.467 509.998 386.174 518.763 385.826C518.762 384.176 518.771 382.526 518.797 380.875L518.83 379.224C518.93 375.007 518.658 370.257 519.282 365.842ZM560.268 365.172C551.719 366.555 542.884 366.849 534.487 366.86C531.134 366.864 527.781 366.657 524.431 366.36C524.649 368.148 524.763 369.956 524.927 371.719C525.258 375.282 525.636 378.839 526.047 382.393L526.414 385.502V385.502C537.187 385.013 547.96 384.483 558.73 383.935L560.25 383.854V383.854L560.676 377.878C560.966 373.893 561.286 369.909 561.736 365.942L561.398 365.819V365.819C561.001 365.656 560.624 365.431 560.268 365.172ZM563.98 366.656C564.451 372.29 564.712 377.948 565.058 383.592L572.159 383.212C573.342 383.147 574.525 383.081 575.709 383.013C580.31 382.747 586.222 381.351 590.771 382.653C591.119 378.509 589.936 374.471 586.204 371.687C579.652 366.797 571.309 368.538 563.98 366.656ZM539.72 316.286C550.294 310.217 576.823 304.015 578.503 323.085C579.276 331.86 572.766 339.132 565.164 342.376L564.879 342.496C557.749 345.433 545.112 348.751 538.942 342.381C533.807 337.079 540.618 327.573 546.999 331.917C550.278 334.148 557.18 332.504 560.84 331.442L561.069 331.375C565.017 330.212 570.282 326.49 568.649 321.617C567.204 317.306 561.056 316.519 557.205 316.379C551.458 316.173 545.864 317.51 540.169 317.945C539.267 318.015 538.989 316.705 539.72 316.286ZM583.519 285.621C597.87 284.948 606.797 300.651 603.497 313.518C602.927 315.738 600.449 317.917 598.057 317.668L597.454 317.612C597.148 317.583 596.84 317.544 596.558 317.466C594.286 316.835 592.251 314.468 592.416 312.014L592.46 311.299C592.795 305.22 592.137 298.217 584.93 296.746C578.817 295.497 575.404 301.394 575.331 306.821C575.318 307.785 574.237 308.458 573.387 307.94C568.968 305.245 568.203 299.883 569.891 295.266C572.03 289.416 577.384 285.909 583.519 285.621ZM477.024 288.989C487.467 285.497 498.734 291.076 503.791 300.329C505.565 300.844 507.336 302.214 507.09 304.313C506.734 307.331 506.198 309.234 504.11 311.523C500.843 315.104 494.725 313.273 493.367 308.865L493.31 308.666C491.767 302.968 485.509 299.209 479.808 301.203C473.148 303.533 473.341 310.582 468.669 314.689C468.12 315.172 467.462 315.249 466.804 314.93C461.842 312.527 462.733 305.294 464.502 301.155C466.823 295.723 471.332 290.891 477.024 288.989ZM462.801 257.207C471.264 248.553 493.331 240.179 499.12 256.159C500.223 259.203 497.875 263.307 494.713 263.938C489.535 264.971 484.941 262.718 479.797 263.122C475.633 263.451 471.29 264.846 467.96 267.431C458.74 274.591 456.711 286.702 450.286 295.815C449.974 296.259 449.366 296.072 449.309 295.549C447.846 282.281 453.532 266.684 462.801 257.207ZM573.167 248.688C578.783 246.7 585.142 246.87 590.787 248.633C596.474 250.41 601.694 253.785 605.716 258.194C607.541 260.195 609.23 262.404 610.584 264.755C611.304 266.001 612.06 268.575 612.878 270.108C617.301 272.668 619.192 278.501 615.232 282.65L615.053 282.832L614.523 283.359C612.394 285.471 609.184 286.386 606.278 285.543C599.775 283.657 598.984 278.524 596.733 273.075C595.246 269.476 592.698 266.292 589.609 263.952C582.309 258.426 570.339 256.665 561.55 259.27C561.082 259.409 560.532 258.811 560.866 258.378C562.531 256.216 563.491 254.441 565.721 252.697C567.984 250.927 570.455 249.648 573.167 248.688Z" fill="black"/>
<path fill-rule="evenodd" clip-rule="evenodd" d="M1323.79 2865.57C1317.9 2841.8 1326.56 2822.83 1351.41 2808.83C1353.55 2803.17 1401.58 2784.82 1439.74 2757.89C1474.03 2733.7 1498.9 2700.48 1499.94 2698.64C1499.94 2698.64 1507.65 2680.71 1508.53 2672.61C1512.74 2633.79 1510.31 2608.34 1512.91 2596.26C1495.37 2593.96 1452.26 1455.03 1459.23 1417.28C1447.81 1414.77 1435.7 1412.13 1424.82 1405.69C1423.95 1405.46 1425.37 1402.94 1425.33 1402.47C1398.02 1348.84 1439.92 1166.51 1466.18 1116.03C1445.33 1115.49 1417.86 1112.65 1404.95 1095.24C1398.84 1093.23 1394.98 1089.72 1392.02 1084.09C1388.6 1078.73 1385.43 1073.1 1382.58 1067.33C1368.68 1038.46 1360.11 1006.41 1364.75 974.611C1363.86 974.331 1359.31 974.302 1359.09 973.029C1358.64 965.21 1360.08 958.321 1362.43 950.937C1386.29 867.763 1415.01 785.875 1452.97 707.57C1472 665.659 1511.36 650.366 1552.14 634.632C1571.76 626.922 1591.39 618.025 1611.86 612.975C1612.12 611.543 1610.9 607.184 1613.58 607.539C1616.9 608.231 1616.24 613.56 1617.47 616.55C1664.82 577.788 1634.79 557.814 1663.34 536.585C1692.88 521.25 1728.91 520.627 1761.48 523.946C1773.5 524.294 1783.11 529.71 1785.95 541.807C1796.28 566.835 1820.48 585.256 1846.88 590.903C1849.07 587.019 1855.06 575.88 1858.42 579.396C1896.56 580.698 1954.37 594.698 1990.07 605.172C2025.9 614.323 2062.15 631.031 2071.52 669.966C2088.53 739.347 2061.47 1024.48 2017.08 1079.39L2015.64 1079.42C2007.77 1087.47 1997.07 1093.37 1984.95 1097.33C1985.23 1123 1993.32 1148.07 1997.34 1173.17C2006.41 1218.7 2013.38 1264.29 2023.47 1310.06C2023.52 1315.16 2042.73 1384.95 2023.79 1370.96C2019.88 1372.88 2015.09 1374.97 2010.88 1376.77C2031 1422.64 2040.21 1496.64 2038.79 1553.31C2038.43 1587.05 2039.83 1616.61 2047.39 1651.17C2103.39 1943.95 2152.76 2598.82 2153.92 2607.58C2154.99 2615.94 2147.9 2661.36 2153.92 2673.34C2159.26 2683.98 2182.04 2677.7 2186.4 2681.8C2197.72 2700.24 2192.54 2711.98 2201.82 2730.39C2206.58 2734.65 2217.23 2743.97 2220.72 2750.52C2227.79 2757.33 2344.88 2834.17 2340.13 2845.83C2340.13 2845.83 2340.66 2851.42 2340.84 2852.63C2350.83 2910.72 2334.2 2910.24 2280.42 2918.78C2201.86 2932.64 2143.15 2905.98 2076.75 2870.35C2054.69 2855.47 2023.33 2827.06 2033.53 2793.41C2033.82 2791.36 2039.87 2755.96 2042.27 2737.99C2042.27 2737.99 2035.76 2723.6 2060.95 2725.4C2056.81 2720.85 2047.71 2661.95 2050.81 2654.16C2052.78 2634.09 2049.72 2615.88 2050.69 2595.22C2040.14 2596.01 1854.93 1717.87 1738.76 1663.3C1738.04 1669.13 1739.43 1679.99 1731.69 1681.08C1695.76 1961.43 1609.36 2589.49 1605.4 2590.59C1611.35 2622.61 1611.17 2696.82 1611.28 2728.61C1612.19 2729.46 1616.38 2733.19 1617.05 2734.1C1617.19 2733.86 1619.91 2736.58 1620.05 2736.65L1620.42 2735.81C1632.66 2763.41 1650.49 2791.83 1634.73 2818.88C1646.43 2818.02 1644.55 2840.54 1645.07 2850.9C1638.41 2871.17 1448.97 2925.88 1406.64 2928.48C1392.73 2930.9 1327.96 2910.3 1315.49 2907.34C1299.34 2904.32 1315.19 2874.3 1323.79 2865.57Z" fill="white"/>
<path fill-rule="evenodd" clip-rule="evenodd" d="M1778.06 534.993C1771.93 534.802 1770.76 542.518 1774.95 545.717L1775.13 545.844C1778.7 548.379 1780.38 550.645 1782.32 554.689C1791.77 579.714 1818.43 594.067 1844.51 588.752C1835.45 605.649 1829.37 622.003 1820.3 638.614C1778.55 724.621 1641.44 752.6 1625.05 634.593C1650.17 629.739 1665.06 573.24 1648.94 556.384L1648.5 558.435C1643.86 580.565 1640.68 603.22 1623.9 619.906C1623.39 620.056 1622.9 620.101 1622.42 620.101C1621.78 617.072 1621.05 614.075 1620.13 611.136C1617.9 603.965 1606.72 605.314 1607.04 613.072C1573.58 623.266 1541.43 637.707 1509.43 651.657C1482.82 663.263 1461.07 684.023 1448.68 710.312C1413.93 782.222 1387.4 858.13 1364.27 934.492C1362.72 944.811 1345.43 983.164 1359.38 986.851C1355.96 1018.45 1364.71 1050.4 1378.24 1078.77C1384.51 1089.43 1388.94 1104.21 1401.55 1108.66C1414.64 1125.1 1438.57 1129.37 1458.5 1130.53C1431.7 1193.62 1395.28 1354.34 1419.91 1417.04C1417.72 1427.32 1446.1 1432.21 1453.69 1434.56C1447.58 1471.13 1448.91 1508.8 1451.55 1545.64C1476.26 1859.81 1480.95 2175.72 1454.95 2489.97C1453.42 2509.56 1451.77 2529.15 1450.03 2548.72L1448.98 2560.46C1447.59 2576.09 1446.42 2591.66 1446.78 2607.41C1446.89 2612.88 1451.42 2616.17 1455.96 2616.45C1471.17 2626.16 1491.61 2626.24 1509.22 2628.58C1506.11 2645.55 1504.37 2672.03 1498.93 2686.32C1487.6 2683.36 1480.29 2693.92 1491.59 2699.88C1477.69 2707.6 1470.54 2722.36 1459.41 2732.72C1428.85 2720.31 1423.16 2738.86 1448.13 2743.09C1441.34 2748.76 1434.13 2753.99 1426.68 2758.96L1426.15 2758.89C1417.34 2757.55 1400.73 2750.27 1396.56 2759.92C1394.69 2766.9 1403.31 2769.12 1409.56 2769.97C1404.02 2773.47 1398.45 2776.94 1392.89 2780.41C1388.02 2778.27 1383.2 2775.59 1378.23 2773.88C1366.02 2771.16 1364.96 2787.01 1380.91 2787.91C1370.92 2795.29 1357.13 2791.04 1350.75 2801.45C1327.39 2810.88 1316.35 2839.37 1321.8 2862.13C1313.6 2869.43 1307.84 2880.36 1307.17 2891.34C1305.59 2903.12 1314.96 2914.19 1327.65 2917.29C1341.94 2922.04 1356.44 2926.39 1370.9 2930.47L1372.42 2930.99C1384.33 2935.05 1397.35 2938.69 1409.74 2937.98C1483.25 2933.6 1581.26 2903.4 1640.09 2865.83C1654.77 2854.8 1657.33 2827.52 1637.14 2818.8C1646.44 2801.93 1642 2789.67 1638.05 2771.29C1635.31 2759.31 1631.59 2747.01 1624.86 2735.92C1624.26 2734.94 1622.83 2735.24 1622.75 2736.2C1621.87 2748.74 1623.04 2761.57 1623.97 2774.2L1624.07 2775.6C1624.91 2787.24 1626.8 2791.53 1623.64 2802.55C1616.08 2830.68 1543.19 2844.73 1514.54 2856.33C1492.06 2863.29 1469.23 2869.53 1446.08 2875.01L1444.38 2875.38C1424.84 2879.68 1404.72 2886.19 1384.14 2882.81C1373.46 2875.04 1357.44 2877.23 1346.96 2868.35C1331.14 2851.26 1343.57 2826.22 1354.66 2810.69C1365.38 2814.11 1374.54 2804.91 1382.43 2800.05L1382.72 2799.87C1390.78 2794.77 1398.82 2798.34 1406.89 2793.26L1408.71 2793.6C1438.36 2799.25 1461.32 2805.7 1414.03 2788.79C1421.82 2783.92 1429.63 2779.01 1437.19 2773.84C1452.72 2775.72 1469.74 2783.87 1484.17 2784.61C1474.46 2775.56 1461.21 2770.55 1448.72 2765.57C1455.99 2760.05 1462.91 2754.15 1469.09 2747.65L1475.01 2749.12C1511.32 2758.14 1525.59 2760.74 1476.71 2738.75C1486.32 2728.08 1487.88 2712.27 1498.45 2702.22C1515.45 2705.79 1531.07 2713.26 1544.92 2722.92C1550.52 2726.93 1554.74 2731.94 1559.17 2736.95C1580.19 2763.99 1612.74 2768.16 1622.69 2733.09C1622.86 2732.37 1621.73 2731.93 1621.41 2732.53L1621.38 2732.62C1616.62 2743.39 1601.27 2752.12 1588.45 2745.43L1588.06 2745.22C1575.53 2738.69 1569.7 2725.36 1559.83 2716.28C1546.5 2704.24 1529.8 2696.18 1512.56 2690.12C1516.74 2674.85 1518.15 2647.06 1517.68 2629.15C1546.7 2630.52 1575.91 2629.12 1604.41 2623.6C1599.85 2656.9 1602.85 2700.24 1600.75 2729.93C1597.72 2739.9 1616.18 2746.12 1618.14 2736.2C1619.22 2704.07 1616.08 2657.72 1611.19 2621.87L1613.23 2621.37C1615.17 2620.89 1617.2 2620.31 1618.86 2619.37C1637.15 2621.44 1632.16 2574.95 1635.23 2561.88C1655.87 2273.56 1699.35 1987.82 1736.3 1701.4C1741.42 1699.43 1742.33 1693.14 1743.18 1687.89C1789.74 1719.41 1799.01 1782.39 1819.86 1831.21C1910.88 2084 1951.55 2350.7 2014.63 2611.02L2014.28 2611.11C2014.03 2611.19 2014.03 2611.22 2014.55 2611.19L2014.67 2611.18V2611.2C2010.77 2611.71 2007.7 2615.8 2010.08 2619.62C2017.18 2633.95 2036.87 2628.88 2049.83 2627.97C2048.57 2650.04 2053.3 2697.67 2050.3 2717.34C2034.32 2717.64 2033.3 2735.23 2031.18 2745.69L2031.02 2746.77C2028.19 2764.64 2018.7 2798.14 2025.79 2812.59C2014.83 2825.63 2022.71 2843.36 2034.09 2852.27C2046.27 2861.26 2061.43 2866.54 2075.2 2873.47C2140 2899.65 2202.69 2950.13 2282.1 2930.71L2285.55 2929.98C2341.21 2918.22 2357.2 2912.99 2346.15 2857.91C2350.69 2846.71 2350.72 2834.45 2344.33 2824.55C2332.94 2809.93 2313.8 2801.94 2298.58 2790.83C2272.79 2773.5 2245.34 2758.35 2220.15 2740.31C2221.08 2739.5 2219.78 2739.2 2219.02 2739.34C2201.24 2725.42 2202.9 2701.32 2190.5 2684.13C2187.4 2675.27 2171.74 2673.11 2161.42 2674.34C2164.64 2657.82 2148.9 2582.66 2146.9 2635.75L2146.9 2636.51C2146.86 2644.71 2145.52 2672.07 2147.94 2677.43C2113.7 2687.89 2106.32 2720.79 2098.99 2747.34L2098.52 2747.47C2096.18 2748.08 2093.05 2748.56 2091.88 2750.86C2080.87 2743.86 2077.79 2730.09 2067.13 2722.68C2070.12 2720.34 2070.28 2715.87 2068.75 2712.41C2063.78 2694.2 2060.81 2647.86 2053.31 2627.53C2088.55 2622.25 2124.46 2619.56 2158.88 2609.98C2163.35 2614.37 2172.53 2612.81 2172.17 2604.88C2161.51 2432.05 2143.17 2259.76 2120.06 2088.17C2101.06 1927.55 2067.63 1768.98 2044.34 1609.21L2044.14 1587.28C2043.51 1521.36 2041.75 1454.46 2017.17 1392.4C2019.34 1391.45 2021.48 1390.48 2023.6 1389.45C2050.25 1400.5 2029.25 1333.37 2028.27 1321.27C2015.17 1251.13 1999.74 1180.99 1989.91 1110.41C2000.22 1106.68 2009.74 1101.39 2017.68 1093.7C2065.84 1054.5 2093.75 737.03 2076.25 673.197C2067.12 633.043 2028.4 613.317 1991.5 604.241L1986.05 602.701C1944.84 591.108 1902.92 580.604 1860.02 578.022C1858.49 576.637 1853.99 577.035 1853.41 578.191C1850.72 579.81 1848.17 582.97 1846.01 586.308C1786.46 579.464 1802.56 540.535 1778.06 534.993ZM1635.59 2821.34C1643.93 2840.28 1632.85 2854.68 1614.28 2862.64C1549.96 2892.46 1478.15 2916.43 1404.43 2921.01C1381.94 2915.57 1359.66 2906.58 1336.86 2901.01L1335.88 2900.84C1327.86 2899.36 1324.09 2897.89 1324.78 2889.55L1324.48 2886.18C1323.97 2880.19 1323.54 2874.22 1323.95 2868.23C1330.96 2885 1351.95 2894.22 1370.35 2897.6C1399.53 2911.45 1432.2 2897.37 1460.86 2891.44C1507.42 2877.28 1608.14 2855.04 1635.59 2821.34ZM2039.68 2821.74L2040.64 2822.03C2048.99 2824.61 2057.48 2827.78 2066.84 2825.45C2108.65 2839.62 2149.34 2855.7 2189.72 2872.43C2233.3 2893.29 2303.46 2917.55 2341.22 2867.13C2335.79 2893.57 2343.46 2902.62 2307.41 2909.22C2250.21 2927.87 2204.24 2918.32 2156.78 2892.83C2122 2875.92 2084.59 2862.48 2050.93 2844.1L2050.48 2843.78C2043.85 2839.05 2035.87 2830.43 2039.68 2821.74ZM2126.51 2707.89C2137.42 2687.76 2166.79 2676.7 2188.64 2684.12C2190.86 2703.54 2185.1 2725.28 2197.43 2742.15C2186.52 2744.06 2175.63 2746.27 2164.76 2748.55L2154.82 2750.65C2149.94 2751.72 2143.73 2753.55 2144.54 2758.73C2145.44 2764.45 2152.95 2762.7 2157.95 2761.26L2159.89 2760.7C2173.92 2756.56 2187.94 2752.35 2201.79 2747.63C2209.1 2755.67 2218.91 2761.97 2228.41 2768.06L2224.47 2768.51C2210.65 2770.06 2196.7 2771.47 2183.05 2774.27C2177.08 2776.04 2178.37 2784.17 2184.47 2783.52C2200.77 2779.27 2217.03 2774.46 2233.61 2771.41C2241.71 2776.77 2249.78 2782.15 2257.9 2787.49C2241.93 2789.8 2225.88 2790.01 2209.91 2791.37C2199.57 2792.32 2199.57 2806.46 2209.91 2805.64C2228.56 2803.93 2247.21 2798.41 2264.97 2792.14L2274.33 2798.29C2285.26 2805.47 2296.21 2812.63 2307.27 2819.64C2313.92 2823.88 2322.52 2827.91 2327.17 2834.05C2341.85 2857.77 2305.16 2880.44 2280.36 2880.06C2242.7 2880.46 2211.34 2860.91 2178.35 2849.2C2160.1 2844.69 2067.32 2798.24 2058.88 2810.46C2053.57 2807.91 2046.19 2806.99 2042.37 2802.79C2041.59 2783.37 2045.68 2763.02 2049.12 2743.43C2049.82 2740.01 2051.49 2735.91 2051.68 2732.4C2067.13 2738.1 2071.53 2759.67 2091.88 2757.84C2095.06 2762.92 2104.86 2760.56 2109.29 2756.52C2114.1 2752.12 2114.71 2745.93 2115.86 2740.42L2116.39 2737.89C2118.55 2727.73 2121.14 2717.33 2126.51 2707.89ZM1668.55 1060.64L1671.04 1061.27C1696.35 1067.61 1722.83 1072.19 1748.85 1070.49C1753.34 1087.5 1751 1127.97 1769.29 1134.44C1775.54 1136.8 1784.94 1134.89 1787.81 1128.51C1825.64 1127.83 1863.74 1124.45 1901.58 1122.2C1930.06 1119.96 1959.61 1120.05 1987.03 1111.4C1983.71 1128.13 1982.57 1144.56 1984.43 1161.66C1990.82 1234.63 2011.88 1305.73 2018.93 1378.38L2019.26 1381.84L2019.46 1381.73C2019.46 1381.86 2019.47 1382 2019.48 1382.13C2017.43 1382.73 2015.37 1383.35 2013.32 1383.99C2012.59 1383.62 2011.6 1383.98 2011.07 1384.68C1860.39 1431.55 1700.44 1451.9 1543.39 1431.28C1515.89 1427.84 1488.58 1423.03 1461.47 1417.33C1461.71 1414.91 1458.01 1414.27 1457.36 1416.56C1451.34 1415.51 1445.33 1414.36 1439.34 1413.59C1440.06 1411.55 1440.19 1409.35 1439.45 1407.36C1427.78 1372.34 1433.11 1332.41 1436.79 1296.09C1441.48 1240.33 1453.19 1185.63 1462.64 1130.62C1507.39 1128.58 1551.87 1121.28 1596.84 1122.19C1601.58 1134.47 1618.09 1144.78 1631.02 1137.76C1640.15 1132.83 1642.85 1122.08 1646.52 1113.2C1653.76 1095.64 1661.15 1078.14 1668.55 1060.64ZM1858.17 579.687C1905.16 593.57 1953.31 603.484 1999.87 618.892C2038.57 628.535 2064.99 652.817 2066.62 694.227C2069.81 782.935 2060.09 872.091 2045.41 959.509L2044.64 963.457C2036.5 1005.59 2029.2 1048.46 2013.82 1088.61C1991.36 1099.05 1965.87 1102.02 1941.31 1103.23C1905.46 1105.06 1869.61 1106.93 1833.8 1109.28L1805.71 1111.1C1797.57 1111.63 1786.24 1110.23 1780.12 1116.57C1779.57 1117.46 1778.47 1117.35 1777.63 1117.9L1777.47 1118.02C1776.57 1118.63 1775.67 1120.1 1774.38 1119.82C1772.29 1119.17 1771.49 1114.99 1770.99 1113L1770.95 1112.82C1768.22 1102.14 1766.24 1091.24 1763.73 1080.51C1757.98 1059.4 1755.51 1037.09 1746.78 1016.88C1759.28 1008.91 1771.04 999.793 1781.13 988.979L1793.3 984.694C1822.4 974.482 1851.83 964.588 1882.17 958.467C1882.9 965.125 1892.45 968.932 1896.01 961.964C1901.92 944.211 1903.02 924.936 1907.09 906.639C1916.34 852.049 1927.32 797.658 1933.72 742.633C1916.09 791.368 1906.95 851.184 1893.48 903.854C1892.85 903.491 1891.99 903.702 1891.96 904.565C1844.25 886.521 1791.28 887.255 1744.19 906.403C1732.4 911.134 1720.42 915.382 1708.68 920.261C1704.68 922.524 1696.7 922.385 1695.35 927.333C1693.91 923.975 1691.97 920.83 1689.4 918.709C1688.6 917.054 1679.48 914.101 1678.59 917.375C1625.09 924.716 1573.08 947.988 1518.04 944.059C1524.56 920.281 1523.79 894.602 1524.22 870.044L1524.09 867.279C1522.96 843.087 1522.14 813.146 1513.94 793.238C1519.18 843.356 1515.37 893.558 1508.97 943.21C1470.15 938.202 1488.02 960.4 1513.88 959.567C1566.06 963.326 1614.22 940.248 1662.24 923.43C1688.47 912.944 1691.45 921.825 1690.28 946.748C1690.25 979.197 1675.56 1008.81 1662.25 1037.6L1656.27 1051.05C1646.33 1073.42 1636.52 1095.66 1626.87 1118.3C1584.68 1104.31 1537.17 1111.99 1493.47 1114.53C1460.11 1118.72 1436.17 1117.24 1407.95 1097.94C1397.77 1078.5 1384.37 1060.06 1379.12 1038.13C1373.04 1018.03 1371.02 996.971 1369.24 976.14L1370.84 970.312C1391.4 895.524 1414.16 821.102 1445.26 749.868L1446.94 745.943C1457.48 721.273 1468.19 695.386 1489.52 678.106C1525.31 651.676 1569.58 639.953 1607.21 616.436L1607.45 618.156C1611.27 645.133 1617.86 673.099 1635.13 694.804C1667.03 733.979 1727.27 735.081 1768.1 709.638C1810.57 686.155 1836.05 642.432 1848.45 596.729L1848.59 596.227C1849.75 592.154 1852.98 579.821 1858.17 579.687ZM1742.82 1019.35C1742.85 1033.72 1745.69 1047.88 1747.6 1062.06C1725.52 1057.7 1703.51 1054.66 1681.79 1048.77C1702.95 1040.78 1723.5 1031.15 1742.82 1019.35ZM1795.99 903.483C1828.19 897.18 1861.15 900.95 1892.99 906.027C1889.53 922.109 1885.58 938.046 1882.28 954.149C1870.87 953.626 1762.72 972.779 1774.93 988.154C1758.96 996.692 1743.84 1006.73 1727.95 1015.45C1711.97 1024.22 1695.33 1031.76 1678.16 1037.89L1679.06 1035.87C1693.84 1002.86 1707.64 965.72 1696.26 929.647C1711.57 935.791 1732.46 922.593 1747.29 917.655C1763.04 911.337 1779.25 906.353 1795.99 903.483ZM2027.79 775.674C2027.68 769.652 2009.08 786.919 2006.65 788.712L2005.18 790.039C1987.34 806.236 1969.71 824.054 1959.76 846.279C1959.04 868.121 1991.59 815.208 1996.1 811.976C2005.95 799.302 2017.94 788.296 2027.79 775.674ZM1513.13 827.087C1518.16 828.744 1504.43 811.677 1499.07 812.922C1496.94 812.611 1495.09 815.7 1497.45 816.763L1498.63 817.28C1504.12 819.664 1509.74 821.7 1513.13 827.087Z" fill="black"/>
<path fill-rule="evenodd" clip-rule="evenodd" d="M1878.8 176.785C1873.74 171.362 1867.28 167.322 1860.21 166.031C1866.67 169.257 1872.99 172.62 1878.8 176.785ZM1888.7 223.543C1889.59 219.41 1890.19 215.238 1890.38 211.066C1889.25 212.783 1887.45 213.93 1885.42 214.522C1886.73 217.453 1887.84 220.471 1888.7 223.543ZM1550.54 288.338C1556.37 264.057 1583.59 217.354 1590.02 208.365C1597.01 186.108 1558.91 168.258 1579.63 150.853C1589.01 143 1601.41 140.221 1613.03 137.436C1693.55 118.099 1780.06 127.851 1854.74 163.41C1866.1 161.02 1877.94 165.691 1886.2 173.896C1925 212.902 1872.12 283.279 1860.55 327.252C1840.71 376.284 1881.58 384.532 1877.2 426.017C1873.79 447.449 1852.09 453.114 1833.77 456.353C1830.83 457.04 1826.91 457.143 1825.96 460.247C1822.99 478.363 1812.82 495.628 1799.15 507.344C1800.35 510.884 1799.44 515.18 1795.22 518.288C1757.06 546.652 1708.93 560.846 1661.33 558.295C1604.6 555.254 1575.26 522.738 1568.18 514.365C1529.04 461.504 1533.71 391.758 1541.7 328.761C1547.26 284.875 1540.21 331.35 1550.54 288.338Z" fill="white"/>
<path fill-rule="evenodd" clip-rule="evenodd" d="M1725.47 86.2977C1723.68 80.7238 1718.64 77.3717 1712.86 78.0636C1707.74 78.6677 1702.27 83.7447 1702.89 89.3478C1703.01 90.4294 1703.16 91.4429 1703.35 92.3978L1703.32 92.4064V92.4064L1703.3 92.4076L1703.43 92.7779C1703.81 94.5611 1704.33 96.1592 1705.11 97.6696C1706.11 100.564 1707.06 103.468 1708.01 106.381C1706.64 106.323 1705.25 106.401 1703.84 106.664C1702.37 102.922 1700.9 99.1898 1699.44 95.4381C1697.87 91.4331 1696.77 86.288 1693.67 83.1892C1689.71 79.2329 1682.83 78.4144 1677.99 81.2403C1672.89 84.2221 1671.06 89.5232 1672.18 95.2043C1672.74 98.1021 1674.68 100.119 1677.07 101.386L1677.33 101.519L1679.17 105.884C1678.61 105.641 1678.02 105.417 1677.39 105.231C1676.39 104.939 1675.42 104.754 1674.47 104.676C1671.83 99.9109 1668.94 95.2822 1665.95 90.7413C1662.51 85.5182 1655.78 83.2964 1650.14 86.5998C1645.1 89.5524 1642.39 97.3091 1646 102.405C1648.75 106.274 1651.35 110.221 1653.91 114.206C1653.48 114.284 1653.04 114.382 1652.62 114.508C1652.42 114.245 1652.22 113.982 1652 113.719C1649.21 110.25 1645.95 107.648 1642.61 104.764C1639.48 102.055 1638.04 97.7963 1633.93 95.7402C1628.75 93.1579 1622.52 94.3955 1619.44 99.5406C1612.83 110.562 1623.92 118.611 1631.01 125.286C1624.85 121.437 1618.42 117.919 1611.84 114.879C1608.13 113.173 1604.37 111.526 1600.55 110.104C1594.89 107.999 1590.31 108.672 1585.66 112.589C1583.59 114.343 1582.55 118.173 1583.51 120.725C1585.36 125.617 1588.28 128.589 1593.41 130.002C1597.02 130.996 1600.71 131.668 1604.31 132.711C1610.36 134.446 1616.22 136.56 1621.91 139.201C1621.5 139.454 1621.11 139.727 1620.75 140.039C1616.5 138.665 1612.18 137.476 1607.83 136.463C1600.62 134.773 1593.29 133.631 1585.92 132.916L1583.47 132.689C1574.64 131.841 1564.01 130.276 1558.59 138.733C1556.81 141.52 1556.61 146.12 1558.59 148.877C1562.37 154.178 1566.13 155.231 1572.39 155.328C1566.23 155.981 1560.08 156.79 1553.96 157.735C1549.75 158.378 1545.53 159.107 1541.33 159.916L1539.23 160.327C1534.11 161.35 1528.4 161.945 1524.01 164.907C1514.42 171.377 1518.92 183.977 1529.54 185.322C1534.68 185.965 1540.38 183.792 1545.42 182.779C1550.31 181.794 1555.22 180.927 1560.15 180.167C1562.7 179.768 1565.26 179.417 1567.82 179.095C1562.61 179.845 1557.43 180.908 1552.4 182.408L1551 182.831C1541.26 185.799 1528.11 190.526 1525.07 200.933C1523.23 207.257 1528.27 212.772 1534.37 213.143C1540.04 213.484 1544.77 210.102 1549.58 207.608C1553.09 205.795 1556.65 204.441 1560.43 203.281C1564.34 202.083 1568.33 201.089 1572.34 200.28C1568.95 202.149 1565.65 204.203 1562.47 206.502L1561.02 207.579C1552.58 213.86 1539.73 223.586 1542.7 235.36C1543.63 239.073 1547.78 242.62 1551.75 242.24C1562.1 241.275 1567.81 230.254 1575.62 224.349C1577.65 222.809 1579.88 221.289 1582.22 219.808C1570.39 233.918 1560.98 250.23 1553.82 267.079C1538.08 304.145 1533.25 338.471 1533.13 378.326L1533.13 379.56C1533.11 401.544 1533.61 423.927 1535.75 445.813C1537.74 466.033 1541.38 485.99 1550.55 504.301C1565.92 535.005 1595.87 558.919 1628.89 568.02C1665.64 578.154 1706.71 570.232 1736.81 546.845C1744.49 540.881 1734.31 527.932 1726.46 533.437C1695.13 555.41 1654.62 562.368 1618.66 547.498C1590.14 535.707 1567.17 510.342 1557.43 481.137C1551.24 462.558 1549.43 442.748 1547.22 423.385L1547.07 422.095C1544.74 401.846 1543.38 381.46 1543.4 361.075C1543.43 323.217 1548.87 292.054 1565.52 257.714C1573.36 241.538 1583.52 226.581 1595.66 213.454C1599.34 214.205 1603.26 213.152 1606.98 212.753C1608.88 212.548 1610.78 212.353 1612.68 212.178C1610.74 213.433 1608.84 214.738 1606.97 216.073L1604.51 217.843C1596.83 223.344 1587.09 229.609 1589.06 240.242C1589.6 243.117 1592.46 245.758 1595.24 246.411C1605.31 248.808 1612.23 239.024 1619.03 233.216C1624.94 228.169 1631.13 223.647 1637.44 219.116C1638.87 218.093 1640.31 217.07 1641.76 216.056C1640.4 217.647 1639.07 219.262 1637.78 220.892L1635.86 223.318C1630.07 230.563 1621.73 239.981 1626.88 249.373C1628.34 252.023 1631.46 253.787 1634.48 253.729C1644.87 253.514 1649 241.723 1653.87 234.279C1658.07 227.896 1662.62 221.884 1667.32 215.871C1668.62 214.224 1669.92 212.577 1671.25 210.931C1693.07 212.061 1714.81 214.945 1736.17 219.555C1750.84 222.722 1765.27 226.825 1779.6 231.316L1780.79 231.695C1788.54 234.191 1796.53 237.385 1802.12 242.864C1802.92 246.638 1802.3 250.618 1801.54 254.388L1800.95 257.273C1798.5 269.337 1796.83 281.178 1798.07 293.564C1799.37 306.34 1803.22 317.828 1807.92 329.697C1810.14 335.291 1812.44 334.277 1813.23 340.28C1813.83 344.852 1813.46 349.572 1813.05 354.183L1812.7 358.091C1811.83 368.33 1811.4 379.492 1818.11 387.941C1819.15 389.237 1821.38 388.72 1822.12 387.424C1822.42 386.908 1822.73 386.411 1823.07 385.933C1826.3 381.246 1831.26 378.576 1836.94 377.543C1837.66 377.416 1837.37 376.452 1836.77 376.374C1831.98 375.809 1827.44 377.007 1823.58 379.482C1825.41 373.155 1839.57 376.232 1844.23 377.461L1844.39 377.504C1850.2 379.063 1855.69 381.597 1860.54 385.183C1870.28 392.394 1875.91 403.639 1875.63 415.751C1875.35 427.659 1869.2 438.661 1858.64 444.362C1853.54 447.109 1847.74 448.435 1841.97 448.376C1835.95 448.318 1830.59 445.677 1824.56 446.047C1821.07 446.262 1818.4 450.004 1820.42 453.268C1821.76 455.451 1823.52 457.166 1825.54 458.481C1820.6 469.873 1814.3 480.738 1807.03 490.765C1803.01 496.329 1798.45 501.465 1793.43 506.152C1789.51 509.816 1781.02 514.055 1781.5 520.164C1781.67 522.367 1782.81 523.711 1784.81 524.53C1791.05 527.081 1798.64 518.296 1802.82 514.061L1803.15 513.723C1808.36 508.539 1813.1 502.809 1817.23 496.729C1824.56 485.932 1829.11 473.761 1830.99 460.976C1841 463.987 1854.25 461.161 1862.42 457.468C1888.09 445.872 1896.48 411.308 1880.87 388.291C1877.85 383.838 1874.07 380.028 1869.77 376.949C1870.71 376.432 1871.6 375.77 1872.39 374.932C1876.75 370.294 1879.84 364.241 1882.9 358.663L1883.27 357.995C1885.99 353.084 1888.56 348.096 1890.96 343.031L1891.86 341.128C1897.23 329.58 1901.93 324.533 1905.76 312.391C1909.45 300.678 1912.35 288.741 1914.23 276.599L1914.73 273.385C1915.82 266.34 1916.85 258.806 1916.05 251.653C1921.52 253.436 1927.01 254.538 1932.42 251.858C1935.99 250.094 1937.96 244.949 1936.74 241.256C1935.85 238.537 1934.37 236.403 1932.49 234.727C1933.61 234.162 1934.66 233.441 1935.59 232.641L1936.4 231.941V231.941C1939.67 229.094 1939.91 223.686 1937.92 220.12C1937.72 219.779 1937.53 219.428 1937.34 219.087C1935.45 215.705 1931.55 213.493 1927.69 213.552C1927.06 213.562 1926.44 213.562 1925.81 213.552C1927.61 213.152 1929.37 212.538 1931.05 211.506C1938.61 206.857 1937.66 194.258 1928.51 192.036C1924.67 191.11 1920.43 191.49 1916.2 192.484C1916.35 192.396 1916.51 192.309 1916.67 192.211C1919.86 190.253 1922.54 186.423 1922.24 182.496C1921.91 178.15 1920.51 175.051 1916.67 172.771C1913.33 170.803 1908.62 170.617 1905.3 172.771C1902.43 174.652 1899.61 176.727 1896.9 178.959C1899.62 175.616 1901.98 171.982 1902.94 168.123C1904.12 163.319 1902.15 158.086 1897.82 155.552C1894.37 153.535 1890.73 153.759 1887.47 155.318C1887.65 152.795 1887.03 150.222 1885.36 147.942C1881.93 143.265 1875.69 140.575 1870.26 143.986C1869.55 144.434 1868.6 145.204 1867.67 146.149C1869.47 140.409 1867.85 134.387 1861.7 131.795C1857.95 130.207 1852.87 131.006 1849.61 133.744C1851.68 122.567 1835.18 114.352 1828.77 125.9C1827.32 128.515 1825.88 131.27 1824.59 134.088L1824.11 135.147L1824.06 135.128L1824.39 134.353V134.353L1824.73 133.578C1826.51 129.437 1828.78 125.13 1829.4 120.638C1830.32 113.992 1827.36 107.687 1820.13 106.713C1816.39 106.206 1812.24 107.901 1809.74 110.865C1811.09 100.554 1799.58 93.0605 1791.28 100.759C1787.36 104.403 1785.26 109.733 1782.77 114.411C1781.35 117.052 1779.91 119.683 1778.5 122.333C1778.14 121.904 1777.75 121.476 1777.34 121.057C1779.43 114.781 1781.06 108.35 1782.43 101.879C1783.74 95.7792 1780.69 89.4452 1774.4 87.7214C1768.68 86.1418 1761.51 89.6703 1760.24 95.7607C1759.34 100.047 1758.28 104.287 1757.11 108.506C1756.31 108.311 1755.52 108.174 1754.74 108.077C1754.68 107.284 1754.6 106.487 1754.52 105.695L1754.21 102.876C1753.53 96.4354 1752.84 89.0831 1749.48 83.6082C1743.74 74.2535 1729.02 78.1318 1728.87 89.1919C1728.78 94.9119 1731.11 100.583 1731.92 106.245C1732.27 108.71 1732.47 111.205 1732.59 113.699C1731.02 105.417 1728.87 97.2409 1726.37 89.1919C1726.08 88.2272 1725.77 87.2624 1725.47 86.2977ZM1852.42 405.705C1839.51 403.707 1827.71 410.909 1820.06 420.994C1818.67 422.836 1819.58 425.438 1820.84 426.987C1821.74 428.127 1822.96 428.264 1824.34 428.439C1825.92 428.644 1827.91 427.367 1828.6 425.993C1833.53 416.171 1842.31 409.963 1852.42 406.144C1852.61 406.075 1852.66 405.744 1852.42 405.705ZM1834.52 229.714L1834.13 229.294C1831.52 226.584 1835.65 222.445 1838.27 225.161C1841.02 228.02 1842.85 231.493 1844.62 235.012C1846.29 238.368 1841.25 241.333 1839.57 237.964L1838.8 236.433C1837.59 234.052 1836.31 231.7 1834.52 229.714V229.714ZM1870.78 224.152C1867.08 223.528 1868.65 217.893 1872.34 218.515C1877.11 219.32 1881.87 220.235 1886.65 221.041C1890.35 221.664 1888.78 227.299 1885.09 226.679C1880.32 225.873 1875.56 224.958 1870.78 224.152ZM1650.2 185.68C1653.77 184.486 1655.31 190.131 1651.75 191.318C1646.83 192.958 1641.96 194.639 1637.29 196.916C1633.93 198.561 1630.96 193.52 1634.34 191.867C1639.46 189.368 1644.8 187.48 1650.2 185.68ZM1871.62 178.102C1875.12 176.705 1876.63 182.358 1873.18 183.74L1860.55 188.791V188.791C1857.06 190.188 1855.54 184.537 1858.99 183.154L1871.62 178.102V178.102ZM1606.1 164.375L1606.56 164.084C1609.73 162.031 1612.66 167.091 1609.51 169.132C1607.66 170.33 1605.41 171.143 1603.72 172.569L1603.37 172.885C1600.63 175.467 1596.49 171.341 1599.23 168.75C1601.24 166.857 1603.78 165.802 1606.1 164.375V164.375Z" fill="black"/>
<path fill-rule="evenodd" clip-rule="evenodd" d="M1559.99 396.932C1566.55 405.746 1578.72 408.553 1589.94 407.584C1614.13 405.255 1621.75 377.774 1622.54 356.415C1606.32 360.979 1623.91 328.653 1568.45 325.098C1548.9 323.469 1554.29 335.277 1545.65 343.905C1545.83 362.012 1548.84 381.687 1559.99 396.932M1675.24 376.125C1689.53 443.024 1767.76 427.112 1775.97 366.806C1768.39 361.451 1770.38 348.226 1760.96 343.435C1746.02 333.889 1727.34 334.298 1710.37 334.522C1688.69 336.012 1682.51 344.995 1671.37 354.796C1671.9 361.343 1673.45 369.101 1675.24 376.125M1529.01 314.018C1529.81 313.885 1530.61 313.759 1531.41 313.641C1532.04 313.285 1532.78 313.012 1533.63 312.847C1535.58 312.351 1537.52 312.017 1539.46 311.836C1567.27 305.579 1631.59 314.464 1634.24 338.19C1643.09 341.145 1650.76 338.499 1661.02 338.762C1668.83 306.112 1803.87 310.721 1810.37 330.405C1810.39 330.398 1810.42 330.392 1810.44 330.384C1816.68 328.453 1825.88 328.919 1833.02 328.613C1848.27 328.293 1863.54 329.652 1878.47 332.869C1906.41 337.31 1944.54 342.508 1925.11 377.402C1925.11 377.408 1925.1 377.414 1925.1 377.42L1925.1 377.417C1921.75 380.85 1916.06 378.086 1915.85 373.439C1922.38 356.908 1907.63 354.923 1896.27 350.172C1868.02 340.023 1839.26 338.615 1810.04 341.755C1807.84 344.343 1804.5 346.6 1800.98 347.781C1781.44 351.024 1791.74 365.516 1779.39 367.624C1781.66 418.142 1720.32 445.717 1684.78 412.508C1670.6 398.636 1667.21 378.086 1663.92 359.562C1662.18 359.172 1661.08 358.221 1660.43 356.962C1656.25 352.785 1653.62 348.928 1645.35 347.781C1637.08 346.635 1630.71 348.936 1629.85 349.64C1629.63 350.078 1629.4 350.516 1629.13 350.955C1628.75 351.609 1628.23 352.13 1627.65 352.54C1635.82 402.846 1596.76 434.66 1557.34 408.569C1540.21 392.454 1536.59 367.783 1535.87 345.762C1533.55 344.361 1532.08 341.645 1532.88 338.231C1533.99 333.524 1531.39 329.449 1527.26 327.402C1521.88 324.745 1522.83 315.04 1529.01 314.018" fill="black"/>
<path fill-rule="evenodd" clip-rule="evenodd" d="M1630.48 452.617C1626.75 446.054 1615.63 447.121 1613.94 454.776C1610.49 470.295 1629.02 484.626 1643.1 484.984C1657.08 485.339 1672.78 473.45 1670.75 458.434C1670.25 454.72 1665.28 455.171 1663.59 457.5L1662.93 458.393C1658.33 464.565 1652.26 470.952 1643.72 469.448C1640.19 468.825 1636.97 466.618 1634.83 463.776C1632.25 460.347 1632.54 456.252 1630.48 452.617ZM1719.42 339.079C1717.52 338.557 1715.61 338.759 1713.93 339.472C1710.18 340.159 1707.05 343.281 1705.94 346.846C1705.86 347.155 1705.76 347.459 1705.65 347.761L1705.49 348.211L1705.94 347.068C1705.73 348.194 1704.81 349.376 1704.48 350.506C1704.08 351.895 1703.98 353.473 1704.11 355.001C1702.92 355.013 1701.73 355.053 1700.54 355.156L1699.39 355.259C1692.96 355.856 1685.9 356.951 1682.09 362.5C1679.94 365.618 1681.95 371.232 1685.89 371.833C1691.94 372.757 1697.16 369.412 1703.19 368.741C1708.9 368.107 1714.87 368.47 1720.5 369.499C1732.12 371.622 1742.8 376.327 1754.13 379.279L1755.68 379.67V379.67L1755.67 379.663C1757.61 380.131 1759.82 377.436 1757.9 375.859C1748.82 368.414 1737.2 362.38 1725.76 358.706C1727.42 356.057 1727.94 352.568 1726.8 349.725C1726.62 349.135 1726.4 348.562 1726.17 347.991L1725.69 346.816V346.816C1725.64 346.262 1725.54 345.714 1725.38 345.177L1725.36 345.014V345.014L1725.34 345.023V345.023C1724.49 342.258 1722.27 339.864 1719.42 339.079ZM1603.63 339.507C1601.15 337.027 1597.66 337.393 1595.07 339.345L1594.73 339.614V339.614C1592.28 340.697 1590.26 343.064 1588.94 345.257C1587.56 347.535 1586.64 349.855 1586.61 352.363C1580.6 352.383 1574.84 354.183 1570.43 359.027C1569.01 360.59 1568.03 363.001 1568.82 365.121L1569.29 366.382V366.382C1570.77 370.385 1577.43 372.69 1579.69 367.982L1579.79 367.752C1582.2 362.162 1591.43 362.749 1596.34 363.32C1599.76 363.72 1603.14 364.569 1606.44 365.52C1607.6 365.855 1608.75 366.219 1609.91 366.59L1611.06 366.963C1611.67 367.162 1614.87 368.897 1612.88 368.486C1612.35 368.376 1611.94 369.154 1612.49 369.416C1614.86 370.549 1617.4 368.292 1617.24 365.747C1616.96 361.328 1609.94 358.905 1606.55 357.381L1606.35 357.289C1605.06 356.69 1603.7 356.117 1602.3 355.584C1603.08 354.413 1603.74 353.112 1604.28 351.716C1604.79 350.398 1605.13 349.116 1605.32 347.714C1605.5 347.029 1605.5 346.344 1605.32 345.657L1605.29 345.461V345.461C1605.39 345.008 1605.43 344.54 1605.43 344.068L1605.45 343.885H1605.43C1605.36 342.233 1604.7 340.579 1603.63 339.507ZM1643.29 386.566C1633.75 389.509 1618.02 397.525 1622.99 409.896C1629.93 421.259 1648.33 412.908 1657.25 409.237C1665.26 406.587 1669.43 417.799 1661.68 421.179C1597.67 446.468 1597.91 379.725 1640.97 380.705C1645.71 380.813 1645.86 385.589 1643.29 386.566ZM1727.98 299.54L1726.35 299.066C1717.9 296.621 1709.27 292.399 1701.77 298.987C1698.82 301.574 1698.22 306.95 1700.32 310.176C1705.13 317.528 1712.25 316.405 1720.01 317.032C1725.91 317.509 1731.73 319.241 1737.25 321.406C1741.75 323.177 1745.93 325.669 1749.88 328.449C1753.75 331.183 1756.4 335.455 1760.38 337.916C1761.83 338.818 1763.52 337.89 1764.04 336.427C1765.89 331.239 1762.76 324.776 1760.11 320.356C1756.87 314.963 1751.96 310.552 1746.67 307.215C1740.88 303.56 1734.48 301.45 1727.98 299.54V299.54ZM1604.82 293.958C1590.53 293.954 1576.78 301.889 1568.79 313.521C1566.08 317.473 1568.07 323.328 1571.97 325.604C1576.34 328.158 1581.01 326.319 1583.9 322.659L1584.07 322.437C1588.65 316.343 1594.56 311.543 1601.56 308.418C1604.98 306.893 1608.75 305.656 1612.45 305.028L1613.64 304.823C1615.32 304.543 1617.26 304.276 1618.77 304.538C1619.59 304.644 1620.33 304.912 1621.02 305.319C1620.69 306.039 1621.54 306.907 1622.33 306.475C1625.88 304.528 1625.44 301.054 1622.51 298.354C1618.36 294.535 1610.18 293.959 1604.82 293.958Z" fill="black"/>
<path fill-rule="evenodd" clip-rule="evenodd" d="M1638.16 420.328C1649 415.447 1668.46 419.706 1675.53 421.4C1691.95 425.339 1708.47 433.851 1713.58 447.186C1719.33 462.215 1707.85 466.946 1706.16 466.173C1694.79 466.974 1681.25 459.827 1669.34 457.982C1659.67 456.472 1649.46 455.153 1640.4 450.014C1633.78 453.653 1618.84 455.621 1606.78 458.803C1596.51 461.512 1592.06 467.387 1582.53 466.138C1571.12 464.641 1575.79 440.638 1588.51 430.914C1602.43 420.271 1625.98 415.956 1638.16 420.328ZM1616.71 522.963C1626.19 525.274 1626.82 504.494 1627.89 497.152C1628.72 491.417 1633.4 476.626 1645.26 477.264C1657.13 477.902 1661.59 490.294 1660.98 498.002C1660.59 503 1655.99 528.319 1670.69 531.521C1680.06 531.488 1690.91 530.856 1700.76 529.039C1712.36 526.411 1727.45 517.213 1731.43 535.328C1732.86 541.847 1681.77 561.216 1659.09 562.968C1636.1 567.628 1609.19 560.463 1592.82 542.871C1589.09 538.869 1578.6 522.258 1577.86 518.188C1576.29 509.637 1579.92 504.135 1590.5 507.148C1597.98 511.14 1610.61 521.476 1616.71 522.963Z" fill="black"/>
</svg>
