<svg width="1534" height="2349" viewBox="0 0 1534 2349" fill="none" xmlns="http://www.w3.org/2000/svg">
<path fill-rule="evenodd" clip-rule="evenodd" d="M354.445 1320.79C334.598 1370.37 310.841 1426.65 288.985 1474.94C290.735 1490.24 297.304 1505.89 292.164 1521.21C314.817 1506.47 340.286 1497.22 366.283 1490.23L367.745 1500.02C370.639 1499.93 375.853 1499.88 378.784 1499.84C378.327 1495.94 377.709 1489 377.429 1485.07L377.42 1485.08C373.794 1442.88 380.568 1399.68 388.841 1358.44C390.859 1343.56 385.934 1320.45 367.181 1320.07C364.393 1320.49 359.802 1312.95 358.111 1311.49L354.445 1320.79ZM616.718 1891.11C522.234 1896.41 468.209 1819.1 422.529 1746.77C417.72 1749.95 412.392 1753.52 407.536 1756.4C400.064 1768.4 384.855 1772.04 371.725 1773.37C324.927 1775.77 314.903 1733.74 303.285 1697.59C301.072 1699.14 296.123 1707.05 292.401 1705.31C271.386 1700.65 250.926 1695.09 228.646 1696.48C203.075 1691.02 70.5652 1749.38 82.7952 1698.48C88.7682 1676.35 121.643 1665.86 138.575 1650.58C163.197 1622.57 157.201 1586.53 168.963 1553.17C178.742 1519.7 190.168 1488.18 211.313 1457.41C213.222 1342.43 217.528 1201.7 247.293 1099.44C266.271 1027.68 289.782 953.484 280.745 878.178L275.612 878.041C273.367 876.768 269.916 875.808 267.161 876.231C264.837 873.662 260.529 874.443 257.371 873.403C251.679 820.214 249.484 774.69 256.707 726.437C263.416 646.763 313.694 614.173 387.129 596.82C467.831 570.349 522.589 543.37 564.402 477.547C572.31 464.189 577.116 448.373 587.652 437.11C613.815 403.996 689.058 409.455 708.49 444.322C716.976 464.719 717.706 488.525 724.161 509.73C749.538 599.794 866.255 589.186 928.047 638.43C955.248 658.602 964.013 689.746 967.539 721.447C971.983 761.312 980.471 799.698 979.382 839.32C982.221 839.858 988.719 837.836 989.82 841.905C987.235 850.464 954.1 850.434 944.859 851.948C957.014 916.313 945.991 980.946 955.76 1045.52C970.819 1118.06 1000.45 1185.44 1023.72 1255.52C1032.68 1278.68 1038.67 1303.51 1051.99 1324.6L1051.75 1324.79C1053.86 1328.29 1056.17 1331.69 1058.57 1334.97C1061.04 1335.86 1063.61 1337.31 1066.05 1338.2L1066.59 1337.28L1067.91 1339.05L1071.77 1337.42C1077.45 1340.26 1083.62 1343.55 1089.68 1347C1164.13 1392.19 1212.86 1438.04 1271.23 1494.81L1263.49 1501.09C1266.31 1505.02 1269.72 1510.21 1272.46 1514.35C1274.75 1512.33 1279.63 1508.93 1282.44 1507.76C1332.21 1566.93 1338.3 1669.5 1314.06 1731.85C1306.35 1750.53 1294.15 1765.87 1279.42 1778.79C1273.33 1787.94 1262.4 1800.57 1248.42 1806.64C1248.42 1806.64 1246.66 1809.13 1246.6 1809.22C1245.86 1809.32 1241.28 1810.37 1241.01 1811.43C1203.82 1817.7 1166.52 1834.07 1127.98 1834.31C1065.12 1833.76 1011.1 1782.73 960.682 1749.02C928.789 1726.27 891.626 1710.65 857.186 1695.44C859.754 1708.55 859.024 1713.05 844.77 1718.01C832.073 1723.06 816.799 1719.11 804.987 1713.56C805.295 1735.29 807.027 1756.99 806.429 1780.16C806.425 1808.21 807.361 1842.71 777.132 1855.66C725.657 1875.94 667.495 1890.5 616.718 1891.11Z" fill="white"/>
<path fill-rule="evenodd" clip-rule="evenodd" d="M1272.26 1506.25C1270.47 1503.55 1268.64 1500.88 1266.76 1498.24C1268.98 1500.65 1271.17 1503.1 1273.3 1505.58C1272.93 1505.77 1272.58 1506 1272.26 1506.25ZM1065.13 1332.68C1064.78 1332.42 1064.39 1332.19 1063.94 1332.01C1062.9 1331.58 1061.86 1331.13 1060.82 1330.7C1058.85 1327.97 1057 1325.17 1055.27 1322.31C1058.89 1326.09 1062.56 1329.76 1066.52 1333.2C1066.06 1333.03 1065.59 1332.86 1065.13 1332.68ZM1031.04 1318.09C1014.16 1309.1 997.153 1300.35 980.103 1291.77C978.633 1291.03 977.203 1291.05 975.993 1291.54C968.663 1287.77 961.293 1284.05 953.843 1280.52C949.313 1278.38 944.743 1276.36 940.193 1274.32C939.843 1273.8 939.523 1273.26 939.253 1272.68C936.523 1266.85 939.113 1259.61 940.873 1253.88C941.323 1252.44 941.133 1251.19 940.563 1250.21C941.523 1241.84 941.163 1233.42 939.513 1225.83C935.593 1207.75 925.903 1191.27 916.683 1175.46C907.213 1159.23 898.913 1142.93 893.543 1124.86C882.753 1088.59 881.923 1050.62 882.703 1013.09C883.563 971.401 885.973 929.721 887.643 888.061C888.143 875.641 888.633 863.221 889.033 850.791C890.003 851.371 890.783 851.971 892.233 852.401C894.593 853.091 897.003 853.661 899.393 854.221C904.163 855.341 909.003 856.121 913.853 856.791C922.973 858.051 932.063 858.621 941.263 858.491C942.393 858.471 943.523 858.441 944.643 858.401C939.323 885.391 939.663 913.971 939.173 941.251C938.593 972.801 937.053 1004.66 940.563 1036.1C943.993 1066.83 953.073 1096.17 962.983 1125.34C973.183 1155.36 983.683 1185.29 993.593 1215.4C999.183 1232.39 1004.79 1249.38 1010.41 1266.36C1013.11 1274.54 1015.82 1282.72 1018.52 1290.89C1021.48 1299.84 1022.96 1310.37 1030.46 1316.63C1031.29 1317.32 1032.22 1317.85 1033.22 1318.22C1033.39 1318.57 1033.55 1318.91 1033.73 1319.26C1032.83 1318.87 1031.94 1318.48 1031.04 1318.09ZM919.343 1250.85C918.163 1256.38 916.163 1261.85 913.433 1266.1C913.433 1266.58 913.333 1267.09 913.093 1267.61C910.373 1273.54 903.873 1276.99 898.253 1279.66C891.483 1282.88 884.493 1285.65 877.663 1288.75C867.443 1293.38 856.963 1296.98 846.223 1299.55C846.023 1299.63 845.823 1299.72 845.613 1299.8C828.123 1306.82 810.213 1312.75 792.053 1317.8C755.253 1328.05 717.483 1334.6 679.543 1338.88C642.793 1343.02 605.773 1345.39 568.813 1346.51C535.263 1347.54 501.183 1346.8 468.103 1340.67C444.413 1336.28 421.133 1329.02 399.783 1317.99C398.063 1315.29 395.653 1312.98 393.633 1310.45C393.883 1306.38 391.423 1301.84 387.703 1300.4C386.263 1297.19 385.133 1293.85 384.333 1290.42C385.203 1282.02 386.373 1273.66 388.083 1265.26C391.453 1248.8 395.853 1232.57 400.273 1216.37C409.493 1182.56 416.863 1148.86 418.093 1113.71C419.343 1078.11 415.763 1042.63 410.863 1007.42C405.893 971.671 399.923 936.051 393.513 900.541C389.873 880.351 386.363 860.121 382.513 839.961C378.623 819.571 375.553 798.781 370.483 778.641C370.323 777.991 369.263 778.111 369.293 778.811C369.993 796.911 372.493 815.051 374.243 833.081C375.473 845.731 376.803 858.361 378.153 870.991C375.413 870.361 372.453 870.731 369.253 870.791C364.003 870.901 358.753 870.841 353.503 870.871C343.013 870.911 332.513 870.961 322.013 871.011C303.963 871.091 285.843 871.361 267.823 872.661C266.713 872.391 265.593 872.121 264.463 871.781C260.153 870.481 258.773 867.401 258.493 863.091C257.763 852.271 259.313 841.051 259.503 830.191C259.703 818.651 259.633 807.111 259.273 795.581C259.043 788.031 259.783 778.771 255.423 772.211C255.843 766.231 256.353 760.251 256.983 754.291C259.343 731.911 263.373 709.431 270.303 687.981C275.313 672.481 283.533 658.261 295.353 646.961C318.543 624.821 350.613 616.061 380.573 607.281C416.783 596.661 452.863 583.581 485.513 564.421C485.113 565.291 485.363 566.431 486.543 566.671C488.443 567.061 489.843 568.091 490.883 569.501C491.343 571.841 492.023 574.151 492.943 576.411C493.133 576.871 493.373 577.281 493.643 577.641C494.103 581.011 494.153 584.461 494.393 586.891C495.193 595.131 496.683 603.181 498.943 611.141C503.493 627.151 510.623 642.541 520.043 656.271C538.963 683.811 567.213 704.841 599.663 713.341C632.423 721.911 668.753 718.321 698.203 701.161C725.443 685.291 746.553 659.021 752.733 627.781C756.023 611.181 755.493 594.281 752.393 577.701C751.893 575.041 751.343 572.311 750.723 569.561C771.493 587.411 798.133 598.361 823.833 606.811C851.303 615.841 879.463 623.261 904.493 638.231C916.023 645.121 926.963 653.701 934.973 664.611C944.913 678.151 949.203 693.911 951.893 710.291C955.503 732.291 958.133 754.491 960.613 776.641C961.853 787.781 963.003 798.941 964.053 810.101C964.603 816.011 965.133 821.921 965.623 827.841C965.983 832.021 966.383 835.351 967.743 838.521C959.883 840.621 951.923 842.201 943.903 843.621C934.433 845.311 924.793 846.291 915.193 846.881C910.243 847.181 905.283 847.281 900.323 847.361C897.853 847.401 895.383 847.341 892.913 847.361C891.503 847.371 890.353 847.751 889.123 848.001C890.223 812.831 890.583 777.631 888.453 742.511C888.403 741.621 886.963 741.301 886.803 742.291C879.763 783.591 876.043 825.501 873.183 867.271C870.373 908.231 867.423 949.191 864.943 990.181C862.673 1027.84 861.823 1065.87 868.253 1103.2C871.393 1121.42 876.573 1139.09 883.923 1156.06C891.163 1172.79 901.393 1187.91 909.723 1204.08C917.343 1218.89 922.753 1235.03 919.343 1250.85ZM867.151 1630.8C852.293 1626.49 838.27 1620.31 824.428 1613.43C811.075 1606.8 796.915 1599.74 785.599 1589.95C785.355 1589.74 785.614 1589.3 785.919 1589.41C799.872 1594.39 813.096 1601.78 826.689 1607.74C840.81 1613.93 855.253 1619.34 869.427 1625.41C872.565 1626.75 870.272 1631.71 867.151 1630.8ZM837.403 1703.79C833.753 1706.25 829.743 1708.48 825.583 1709.93C819.933 1711.92 814.213 1712.43 808.523 1711.85C807.673 1701.6 806.633 1691.35 805.383 1681.13C818.193 1687.59 831.593 1692.96 844.973 1698.34C842.323 1699.93 840.043 1702 837.403 1703.79ZM784.927 1650.98C784.544 1655.12 779.025 1655.03 778.552 1650.98C776.408 1632.65 775.335 1614.18 773.494 1595.81C770.231 1563.25 764.833 1531.2 757.41 1499.34C755.536 1491.29 753.581 1483.27 751.419 1475.3C750.298 1471.16 746.487 1463.9 749.051 1459.67C752.205 1454.47 756.566 1461.83 753.199 1462.25C752.856 1462.29 752.859 1461.8 753.124 1461.69C750.506 1462.74 752.325 1465.09 753.012 1466.96C753.673 1468.75 754.352 1470.54 755.009 1472.33C756.322 1475.92 757.603 1479.52 758.848 1483.13C761.545 1490.95 764.075 1498.81 766.313 1506.77C770.688 1522.34 774.534 1538.1 777.493 1554C783.393 1585.71 787.907 1618.69 784.927 1650.98ZM408.043 1745.34C405.933 1744.25 403.393 1743.86 401.153 1744.31C393.773 1745.78 390.843 1750.05 384.513 1753.26C380.793 1755.15 374.363 1756.72 370.463 1756.96C363.973 1757.35 360.223 1756.9 354.273 1755.01C349.943 1753.63 345.223 1751.07 342.003 1748.1C333.433 1740.21 329.203 1729.29 325.453 1718.2C321.323 1705.97 317.773 1693.32 311.413 1682.01C308.213 1676.33 304.153 1670.84 299.313 1666.45C294.713 1662.28 287.303 1659.25 284.173 1653.72C280.943 1648.02 280.673 1639.76 279.713 1633.35C278.753 1626.92 278.053 1620.45 277.593 1613.97C275.803 1588.75 277.483 1561.09 291.523 1539.23C309.153 1511.8 341.073 1503.84 370.663 1496.16C371.113 1500.88 371.653 1505.59 372.303 1510.29C373.093 1516.05 374.053 1521.79 375.163 1527.5C369.833 1531.76 365.143 1537.2 361.873 1541.18C353.923 1550.87 347.993 1561.92 343.903 1573.76C339.963 1585.17 338.023 1597.27 338.373 1609.34C338.553 1615.34 339.473 1621.19 341.163 1626.95C341.633 1628.54 342.193 1630.26 342.863 1631.99C340.773 1635.62 340.383 1640.31 342.813 1643.86C364.523 1675.57 386.233 1707.27 407.943 1738.98C408.943 1740.44 409.943 1741.91 410.943 1743.38C409.963 1744 409.003 1744.66 408.043 1745.34ZM370.513 1494.55C369.003 1494.57 367.493 1494.61 365.973 1494.65C367.453 1494.24 368.933 1493.83 370.413 1493.42C370.443 1493.8 370.473 1494.17 370.513 1494.55ZM369.643 1483.26C356.193 1486.94 342.763 1490.73 329.733 1495.72C322.113 1498.64 313.123 1501.78 305.503 1506.39C303.253 1507.46 301.063 1508.62 298.923 1509.89C299.223 1508.31 299.213 1506.64 298.833 1504.96C297.073 1497.09 295.763 1489.13 294.293 1481.2C294.133 1480.35 293.943 1478.63 293.623 1476.65C295.063 1474.04 296.143 1471.2 297.363 1468.37C299.583 1463.24 301.803 1458.1 304.033 1452.97C308.213 1443.3 312.393 1433.63 316.573 1423.97C325.143 1404.16 333.673 1384.3 341.893 1364.34C347.463 1350.8 353.043 1337.25 358.413 1323.62C359.903 1325.37 362.213 1326.57 365.353 1326.69C380.503 1327.23 382.513 1347.27 381.263 1358.4C380.313 1366.87 378.043 1375.2 376.453 1383.57C374.833 1392.12 373.493 1400.71 372.333 1409.33C369.063 1433.84 368.123 1458.62 369.643 1483.26ZM242.823 1682.41C224.473 1681.34 205.993 1683.1 188.073 1687.14C170.753 1691.04 153.923 1696.87 136.583 1700.75C128.133 1702.64 119.583 1703.94 110.903 1704.14C106.733 1704.23 102.523 1704.12 98.3728 1703.65C97.8528 1703.59 97.1928 1703.41 96.5228 1703.24C97.7128 1699.59 99.8428 1696.52 102.893 1693.45C107.133 1689.18 110.703 1686.82 115.973 1683.44C126.583 1676.64 137.633 1670.48 146.423 1661.28C157.673 1649.49 163.003 1634.37 165.783 1618.58C168.763 1601.66 170.683 1584.56 173.543 1567.62C175.893 1553.63 178.593 1539.64 181.903 1525.82C185.783 1513.65 190.843 1501.87 196.593 1490.41C201.003 1481.63 205.883 1473.13 210.643 1464.55C214.623 1468.24 220.563 1467.56 223.933 1462.79C225.493 1460.58 227.343 1458.44 228.073 1455.78C228.773 1453.25 228.543 1450.33 228.563 1447.74C228.603 1442.87 228.643 1438 228.683 1433.12C228.773 1423.05 228.883 1412.97 229.023 1402.9C229.293 1383.4 229.693 1363.9 230.353 1344.4C231.683 1305.19 233.813 1266 238.233 1227C246.903 1150.43 268.923 1076.27 278.413 999.831C279.583 990.431 280.603 980.921 281.353 971.341C285.483 941.951 286.193 912.121 283.413 882.511C315.643 882.231 347.863 883.851 379.913 887.361C383.783 923.371 388.203 959.281 392.773 995.191C397.253 1030.32 401.093 1065.75 400.683 1101.21C400.483 1118.66 399.293 1136.15 396.423 1153.37C393.653 1170.01 389.443 1186.36 384.963 1202.61C380.463 1218.9 375.623 1235.11 371.653 1251.54C365.633 1266.64 359.083 1281.52 352.343 1296.31C335.343 1333.62 317.763 1370.65 301.113 1408.12C296.313 1418.94 291.563 1429.78 286.783 1440.61C284.393 1446.03 282.003 1451.45 279.613 1456.86C276.923 1462.96 273.443 1468.91 273.473 1475.73C273.493 1479.8 275.913 1482.75 279.063 1484.06C277.723 1491.93 277.283 1499.91 277.193 1507.89C277.143 1512.65 280.273 1516.57 284.413 1518.1C284.403 1519.13 284.373 1520.15 284.323 1521.18C284.263 1521.24 284.203 1521.3 284.143 1521.35C262.413 1543.33 256.503 1575.2 256.683 1605.01C256.773 1620.6 258.363 1636.32 261.023 1651.67C262.653 1661.09 266.763 1668.86 274.303 1674.82C279.633 1679.03 285.693 1683.1 289.163 1688.22C289.873 1689.28 290.543 1690.35 291.183 1691.44C276.283 1685.19 258.493 1683.32 242.823 1682.41ZM490.233 561.571C490.213 562.291 490.213 563.021 490.233 563.741C489.323 563.491 488.363 563.351 487.303 563.361C488.293 562.781 489.253 562.161 490.233 561.571ZM1329.78 1621.17C1327.39 1599.19 1323.78 1577.07 1315.95 1556.31C1308.75 1537.22 1297.98 1519.99 1285.15 1504.2C1272.24 1488.31 1257.44 1474.09 1242.29 1460.36C1226.31 1445.88 1210.11 1431.61 1193.76 1417.55C1161.57 1389.87 1127.99 1363.37 1091.02 1342.41C1091.01 1342.39 1091 1342.37 1090.98 1342.35C1090.92 1342.32 1090.86 1342.3 1090.79 1342.27C1084.78 1338.87 1078.68 1335.59 1072.48 1332.5C1070.97 1331.75 1069.52 1331.8 1068.29 1332.32C1068.26 1332.28 1068.24 1332.23 1068.2 1332.2C1063.77 1328.05 1059.11 1324.35 1054.29 1320.67C1050.3 1313.84 1046.96 1306.65 1044.41 1299.08C1044.16 1298.34 1043.76 1297.74 1043.29 1297.23C1042.29 1294.49 1041.17 1291.77 1040.18 1289.04C1037.48 1281.55 1034.84 1274.04 1032.17 1266.54C1026.83 1251.54 1021.5 1236.53 1016.14 1221.54C1005.43 1191.57 995.143 1161.45 984.763 1131.36C975.013 1103.1 965.013 1074.72 960.063 1045.15C954.933 1014.55 956.103 983.061 955.693 952.161C955.463 934.321 955.353 916.431 954.433 898.621C953.733 885.001 952.833 871.421 950.363 858.071C957.333 857.561 964.273 856.631 971.153 855.441C978.723 854.121 994.533 853.161 994.203 842.341C994.073 838.261 990.953 835.421 987.173 834.381C986.293 834.131 985.403 834.031 984.503 834.021C985.303 827.201 983.633 819.801 982.983 813.061C982.003 802.881 980.943 792.701 979.793 782.541C977.483 762.061 974.823 741.611 971.863 721.211C969.173 702.691 966.423 684.061 957.763 667.211C951.183 654.401 941.413 643.251 930.153 634.351C883.333 597.341 820.003 596.421 770.783 564.201C758.053 555.861 746.663 545.431 738.433 532.551C733.733 525.181 730.583 517.241 728.343 508.811C726.893 503.371 725.533 498.051 723.793 492.701C722.083 487.471 721.603 483.181 718.373 478.571C718.023 478.071 717.273 478.251 717.233 478.871C716.923 483.631 717.783 487.811 718.023 492.551C718.263 497.491 718.103 502.361 718.603 507.331C718.723 508.581 718.873 509.831 719.023 511.071C718.853 511.371 718.713 511.701 718.603 512.061C716.313 519.361 717.563 527.271 721.453 533.581C721.403 534.241 721.453 534.911 721.633 535.581C723.593 542.871 727.153 549.611 729.813 556.681C732.333 563.391 734.473 570.251 736.133 577.231C739.263 590.401 740.483 603.941 739.173 617.441C736.353 646.381 719.183 671.041 695.143 686.751C668.453 704.191 634.603 708.531 603.883 700.971C572.553 693.261 546.643 673.261 528.343 647.051C518.173 632.491 510.393 616.141 505.543 599.061C503.683 592.511 502.583 585.631 500.803 579.031C502.543 578.081 503.593 576.211 502.583 573.751C499.943 567.311 499.523 560.961 501.473 554.361C519.243 542.321 535.753 528.241 549.823 512.021C563.813 495.891 578.313 476.301 584.353 455.581C586.723 447.441 574.513 442.001 570.473 449.731C566.053 458.181 562.433 466.891 557.603 475.151C552.753 483.471 547.203 491.371 541.053 498.781C528.813 513.541 514.583 526.721 499.043 537.961C464.393 563.021 424.343 579.121 383.733 591.711C352.283 601.461 319.383 609.961 293.273 631.081C264.483 654.371 254.573 690.991 249.163 726.151C246.873 741.021 245.543 755.981 244.943 770.991C244.313 772.191 244.163 773.601 244.803 774.921C243.913 803.081 245.533 831.361 248.223 859.401C248.213 862.371 248.433 865.301 249.093 868.081C249.413 871.171 249.743 874.261 250.083 877.341C250.163 878.121 250.543 878.651 251.283 878.921C254.123 879.941 256.963 880.551 259.833 880.741C260.323 880.911 260.823 881.061 261.323 881.201C262.123 882.231 263.383 882.921 265.113 882.871C266.103 882.841 267.093 882.821 268.073 882.791C269.203 883.111 270.303 883.501 271.343 884.051C272.123 884.461 272.893 884.641 273.623 884.661C274.883 898.971 275.323 913.321 274.953 927.631C273.843 947.781 271.353 967.841 267.423 987.931C260.133 1025.21 249.543 1061.83 239.873 1098.54C219.913 1174.25 210.683 1251.7 207.113 1329.8C206.103 1351.87 205.623 1373.98 205.263 1396.07C205.083 1406.8 204.953 1417.52 204.843 1428.25C204.793 1433.77 204.743 1439.29 204.693 1444.82C204.663 1447.4 204.483 1450.04 204.653 1452.61C204.693 1453.25 204.783 1453.84 204.893 1454.42C204.883 1454.44 204.873 1454.46 204.863 1454.49C194.403 1468.74 186.433 1485.18 179.453 1501.35C172.313 1517.87 166.243 1534.85 161.553 1552.23C156.853 1569.64 153.443 1587.22 150.163 1604.94C147.423 1619.71 144.243 1636.08 132.843 1646.84C124.233 1654.96 112.233 1660.43 102.063 1667.02C90.4628 1674.54 80.0728 1683.73 75.5028 1697.17C72.3228 1706.49 73.8628 1717.18 83.2828 1722.06C91.3928 1726.26 102.893 1725.94 111.803 1725.53C130.633 1724.65 148.953 1719.55 166.993 1714.43C186.823 1708.8 206.473 1703.66 227.193 1703.1C237.573 1702.82 248.063 1703.31 258.323 1704.93C268.983 1706.6 279.203 1710.16 289.813 1711.86C293.343 1712.44 296.873 1711.69 299.223 1709.29C305.973 1728.37 309.843 1749.16 325.313 1763.87C337.213 1775.17 354.133 1780.94 370.463 1779.99C379.273 1779.47 387.633 1777.32 395.573 1773.46C399.373 1771.61 402.803 1769.22 406.093 1766.57C408.113 1764.95 409.523 1763.2 410.503 1761.26C413.463 1759.46 416.383 1757.6 419.263 1755.69C435.553 1779.91 451.743 1804.33 469.933 1827.1C490.513 1852.86 515.363 1873.93 546.333 1885.95C575.203 1897.15 607.143 1899.36 637.773 1896.75C670.093 1893.99 701.853 1886.64 732.843 1877.26C747.983 1872.68 763.703 1868.45 778.063 1861.72C793.393 1854.54 804.003 1841.9 807.603 1825.26C811.143 1808.9 810.723 1791.41 810.843 1774.76C810.963 1757.58 810.543 1740.36 809.383 1723.22C809.373 1723.17 809.373 1723.13 809.373 1723.08C815.013 1725.36 821.143 1726.57 827.193 1726.88C833.273 1727.19 839.593 1726.42 845.293 1724.24C852.093 1721.65 861.493 1717.38 862.733 1709.29C862.923 1708.11 862.933 1706.86 862.783 1705.63C866.923 1707.38 871.043 1709.18 875.103 1711.07C887.823 1716.97 900.503 1722.99 912.983 1729.38C919.223 1732.57 925.353 1736.08 931.693 1739.07C933.393 1739.87 935.103 1740.76 936.833 1741.66C943.143 1745.87 949.393 1750.17 955.613 1754.55C973.203 1766.94 990.583 1779.62 1008.25 1791.88C1026.42 1804.49 1044.94 1816.94 1065.09 1826.18C1085.77 1835.67 1107.75 1841.71 1130.66 1840.86C1155.11 1839.96 1178.94 1833.05 1202.48 1826.98C1214.24 1823.96 1226 1820.93 1237.76 1817.9C1239.4 1818.63 1241.39 1818.52 1243.05 1816.89C1243.21 1816.73 1243.37 1816.57 1243.53 1816.41C1245.22 1815.98 1246.91 1815.54 1248.6 1815.11C1249.34 1814.09 1250.06 1813.05 1250.79 1812.02C1263.72 1805.92 1274.55 1794.95 1282.77 1782.78C1283.39 1782.25 1284.02 1781.74 1284.63 1781.2C1299.17 1768.44 1310.41 1752.61 1317.96 1734.82C1333.05 1699.26 1333.89 1659.05 1329.78 1621.17Z" fill="black"/>
<path fill-rule="evenodd" clip-rule="evenodd" d="M846.617 424.844C842.653 418.982 833.108 376.442 827.011 369.899C827.471 344.769 834.418 257.762 814.575 218.65C818.749 214.429 829.841 178.074 827.011 164.331C836.359 135.549 776.306 89.8356 753.451 77.4828C647.23 20.5241 493.308 83.3968 445.001 188.912C415.972 252.457 415.437 323.603 412.155 391.978C411.767 406.614 410.422 421.364 410.437 435.982C412.536 448.827 422.721 461.908 415 472.589C406.471 478.488 389.233 492.86 396.908 501.01C401.406 504.755 408.591 502.582 413.472 506.183C415.957 507.573 417.507 510.62 420.413 511.083C446.959 510.075 465.691 509.989 492.319 508.913C503.976 508.531 521.727 513.462 535.107 503.646C581.845 529.642 562.295 491.927 571.746 465.075C600.526 474.806 657.856 505.837 688.533 506.839C713.462 509.92 736.773 495.402 761.281 498.707C791.728 510.018 827.41 512.533 855.299 493.395C862.259 488.383 870.002 494.189 878.774 488.776C895.823 480.623 855.221 433.889 846.617 424.844Z" fill="white"/>
<path fill-rule="evenodd" clip-rule="evenodd" d="M811.823 215.312C811.445 213.141 814.436 211.522 815.593 213.722C823.998 229.703 827.365 248.211 830.342 265.863C833.349 283.701 835.336 301.613 835.446 319.721C835.53 333.65 834.265 347.74 831.89 361.679L832.179 362.671C832.712 364.493 833.25 366.314 833.794 368.133L834.615 370.861C836.201 376.099 837.703 381.361 839.332 386.586C842.733 397.491 846.314 408.427 850.7 418.98C854.98 429.278 860.185 439.209 866.372 448.491C872.335 457.439 881.798 465.005 885.999 474.943C887.463 478.406 885.298 482.984 881.254 482.431C880.991 482.748 880.59 482.978 880.046 483.026C876.906 483.3 873.963 483.039 870.83 482.745C869.081 482.581 869.084 480.19 870.83 480.026C872.161 479.901 873.457 479.791 874.752 479.716C865.792 474.407 859.4 464.04 854.289 455.553C847.721 444.649 842.76 432.735 838.716 420.687C834.563 408.317 831.622 395.689 829.259 382.867C828.988 381.391 828.73 379.914 828.482 378.435C825.496 391.128 821.651 403.589 817.094 415.565L816.455 417.232C805.95 444.466 791.722 471.961 768.057 489.961C766.983 490.777 765.886 491.552 764.78 492.31L766.126 493.082C767.466 493.847 768.786 494.581 770.077 495.183C774.859 497.414 780.05 499.115 785.185 500.32C795.791 502.811 806.929 502.097 817.749 502.444C821.298 502.558 823.317 507.879 819.689 509.607C807.738 515.298 794.83 514.09 782.494 510.086C776.39 508.103 770.662 505.328 765.363 501.705C763.172 500.208 760.628 498.36 758.48 496.224C734.813 509.466 705.397 510.948 679.055 506.212C665.366 503.75 652.101 499.255 640.43 491.566C629.204 484.172 621.202 474.81 615.489 462.681C614.982 461.606 616.391 460.267 617.256 461.318C635.201 483.113 666.083 492.207 693.251 493.937C707.747 494.861 722.576 494.093 736.513 489.756C749.734 485.64 761.078 478.096 770.55 468.063C789.749 447.726 801.253 420.06 809.515 393.731C818.503 365.088 822.783 334.952 823.666 304.976C824.113 289.789 823.55 274.474 821.165 259.455C818.799 244.56 814.408 230.144 811.823 215.312ZM542.772 86.2817C544.043 85.6357 544.938 87.3167 543.86 88.1437C521.483 105.305 501.443 127.065 485.223 150.096C455.31 192.573 436.126 241.727 427.292 292.803C422.076 322.966 420.714 353.586 421.235 384.151C421.441 396.292 422.135 408.397 422.906 420.505L423.777 433.927C424.181 440.18 424.519 446.38 424.258 452.664L424.187 454.116C423.773 461.428 424.492 468.799 422.658 475.932C421.717 479.59 416.558 480.166 414.69 476.973C414.324 476.348 413.982 475.703 413.65 475.052C409.272 482.192 403.602 488.575 397.311 494.277C400.318 493.637 403.354 493.229 406.471 493.602C411.412 494.194 415.844 496.102 418.98 499.446C422.093 498.043 425.294 497.077 428.975 497.057C431.686 497.043 433.719 500.248 432.172 502.629C429.086 507.381 424.78 510.045 419.887 512.678C416.419 514.544 412.281 512.948 411 509.258L410.927 509.034C409.486 504.366 401.822 505.12 398.206 505.842L397.142 506.059C390.411 507.46 383.838 509.252 376.981 507.404C372.558 506.211 371.402 499.553 375.666 497.343C389.136 490.363 400.444 480.987 412.065 471.573C409.499 465.282 408.042 458.253 406.362 451.856C403.997 442.852 403.306 433.164 402.452 423.915C400.829 406.33 400.21 388.554 400.384 370.9C400.973 311.272 411.171 251.459 437.22 197.464C448.632 173.811 463.624 151.924 481.345 132.551C498.961 113.292 519.536 98.0837 542.772 86.2817ZM521.917 378.296C521.226 377.338 522.575 376.071 523.521 376.692C544.002 390.145 558.215 410.573 567.386 433.014C576.464 455.231 582.038 482.444 573.085 505.612C571.66 509.302 564.835 510.672 564.136 505.612C561.015 483.016 560.53 460.388 553.667 438.42C546.863 416.643 535.221 396.701 521.917 378.296ZM506.036 451.652C506.148 451.253 506.8 451.322 506.772 451.752C506.259 459.72 505.911 467.785 504.909 475.709C504.422 479.56 503.778 483.386 503.23 487.228C502.668 491.168 502.753 495.146 500.462 498.511C497.426 502.972 489.36 501.717 489.631 495.578C489.818 491.343 491.764 488.625 493.587 484.908C494.757 482.525 495.776 480.062 496.758 477.587L498.218 473.875C501.12 466.514 503.897 459.277 506.036 451.652ZM469.361 430.545C469.485 429.918 470.496 430.069 470.466 430.694C469.919 441.972 468.647 453.123 466.655 464.236C465.747 469.301 464.688 474.338 463.568 479.361L463.084 481.513C461.886 486.803 461.113 493.022 458.429 497.748C455.747 502.471 449.379 499.041 450.204 494.28C451.168 488.722 454.579 483.131 456.562 477.793C458.392 472.865 459.992 467.85 461.487 462.811C464.634 452.204 467.215 441.398 469.361 430.545ZM537.658 461.855L537.896 461.61C538.828 460.597 540.218 461.272 540.663 462.341C542.485 466.722 541.573 471.888 541.443 476.539L541.419 477.554C541.322 482.265 541.39 486.678 539.253 491.027C536.659 496.308 529.824 493.028 529.295 488.33C528.717 483.203 531.142 478.184 532.708 473.382C533.703 470.33 534.428 467.156 535.941 464.386C534.647 464.609 533.355 465.056 532.172 465.379C531.642 465.522 531.442 464.744 531.948 464.564C533.904 463.872 536.112 463.352 537.658 461.855ZM810.317 477.402C809.692 476.703 810.471 475.772 811.282 476.15C821.022 480.699 830.132 483.658 840.879 484.627C845.536 485.047 845.565 492.363 840.879 491.939C829.663 490.929 817.908 485.9 810.317 477.402ZM467.641 323.709C476.216 304.42 503.344 287.309 521.535 305.247C521.876 305.582 521.529 306.313 521.034 306.108C509.719 301.419 495.867 307.383 488.036 315.913C481.823 322.679 478.09 331.367 477.349 340.524C476.608 349.689 478.799 359.255 484.886 366.344C488.079 370.063 492.391 373.583 497.465 374.03C502.588 374.481 506.858 370.873 511.701 369.893C515.352 369.155 518.108 371.446 518.466 375.045C519.255 382.988 511.347 388.319 504.492 389.614C497.118 391.006 489.592 389.485 483.238 385.489C462.716 372.583 458.289 344.748 467.641 323.709ZM660.187 134.646C663.916 131.082 670.259 134.625 668.883 139.709C665.957 150.529 659.738 159.674 652.848 168.354C646.219 176.705 639.117 184.73 631.505 192.199C623.943 199.619 615.727 206.485 607.092 212.618L604.491 214.46C598.371 218.774 591.889 223.137 585.039 226.244C583.385 240.494 580.149 254.554 575.253 268.015C570.538 280.977 564.538 293.504 557.268 305.227L556.224 306.906C549.543 317.613 541.51 329.578 530.174 335.447C529.834 335.624 529.493 335.732 529.157 335.795C531.693 337.486 533.836 339.613 535.11 342.669C536.506 346.015 533.588 349.172 530.791 350.277C524.876 352.614 519.106 348.658 513.789 344.438C513.564 344.944 513.352 345.455 513.17 345.97C511.981 349.34 511.631 352.784 508.565 355.02C507.108 356.083 505.313 355.132 504.396 353.928C501.39 349.978 504.502 344.597 507.145 341.369C507.511 340.923 507.889 340.499 508.278 340.092C507.161 339.271 506.071 338.543 505.015 337.984C498.806 334.696 489.602 334.113 486.027 341.392C485.753 341.951 484.892 341.662 484.892 341.084C484.901 332.143 494.06 327.287 502.008 326.627C507.815 326.145 513.431 328.182 518.658 330.553L519.634 331.001C521.579 331.904 523.583 332.756 525.501 333.709C525.189 332.886 525.194 331.918 525.685 330.958C531.696 319.219 542.018 309.673 549.462 298.801C556.844 288.015 563.182 276.472 568.241 264.419C573.151 252.72 576.998 240.654 579.688 228.347C578.802 228.53 577.803 227.741 577.866 226.816C578.016 224.578 579.111 222.562 581.034 221.703C583.152 210.127 584.233 198.355 584.17 186.488C584.165 185.568 585.498 185.601 585.576 186.488C586.512 197.039 586.588 207.693 585.801 218.285C590.803 213.683 596.078 209.308 600.894 204.584C608.141 197.476 615.152 190.178 621.915 182.609C628.815 174.887 635.337 166.881 641.301 158.41L644.422 153.968C649.22 147.158 654.15 140.419 660.187 134.646ZM650.777 58.6203C691.933 56.0513 735.887 61.1093 772.855 80.4283C793.158 91.0373 808.851 107.072 820.064 127.027C826.759 138.943 831.838 152.138 833.762 165.704C835.738 179.643 833.418 192.072 824.518 203.152C820.983 207.552 815.029 202.637 815.9 198.135C821.228 170.591 812.586 143.377 797.259 120.574C775.018 87.4843 736.177 72.7853 698.36 66.2283C679.78 63.0083 660.935 61.6623 642.085 62.3173C627.714 62.8173 612.972 64.1563 599.334 68.9913C598.759 69.1953 598.53 68.2993 599.084 68.0883C615.352 61.8753 633.512 59.6983 650.777 58.6203ZM711.815 120.903C713.934 119.56 716.526 120.938 717.254 123.117C719.822 130.799 714.44 140.948 710.84 147.596C706.766 155.119 701.527 162.153 696.117 168.76C685.294 181.974 671.069 193 655.459 199.93C654.503 200.355 653.389 199.201 654.266 198.385C666.344 187.138 677.295 175.08 686.775 161.553C691.433 154.906 695.318 147.894 699.028 140.691C702.348 134.245 705.47 124.925 711.815 120.903ZM781.033 129.953C782.387 125.225 790.099 126.03 789.78 131.137C788.955 144.33 782.731 157.573 775.968 168.754C769.004 180.267 760.185 190.527 750.076 199.388C749.578 199.825 748.896 199.152 749.347 198.659C758.069 189.111 765.114 178.235 770.331 166.399C775.542 154.58 777.509 142.248 781.033 129.953ZM742.703 127.817C744.178 123.706 751.238 124.011 750.805 128.914C749.615 142.392 741.705 156.517 734.379 167.649C726.605 179.46 716.682 189.865 705.592 198.604C705.177 198.931 704.59 198.389 704.995 198.007C714.956 188.622 723.034 177.781 729.429 165.689C732.693 159.519 735.431 153.094 737.593 146.457C739.593 140.317 740.532 133.869 742.703 127.817Z" fill="black"/>
<path fill-rule="evenodd" clip-rule="evenodd" d="M669.579 378.858C669.763 378.688 670.054 378.628 670.275 378.767C674.063 381.167 674.512 389.238 674.555 393.899C676.122 394.308 677.669 394.772 679.133 395.097C682.241 395.786 685.367 396.387 688.486 397.021L690.824 397.504C698.638 399.154 706.598 400.375 714.561 400.986C722.289 401.579 730.242 401.796 737.948 400.798C741.257 400.369 744.547 399.654 747.745 398.698C751.525 397.569 754.536 395.696 758.052 394.056C766.853 389.948 774.23 401.985 765.759 407.267C758.487 411.799 748.567 413.433 740.173 414.135C731.594 414.852 723.048 414.065 714.572 412.705C705.409 411.234 696.434 408.976 687.744 405.701C684.069 404.316 680.513 402.637 677.041 400.802L676.096 400.297C675.519 399.987 674.918 399.672 674.313 399.353C673.662 405.166 671.788 410.78 669.523 416.177L669.47 416.082C668.231 420.34 663.756 422.974 659.304 421.093C654.078 418.888 653.681 413.097 656.721 408.987L656.866 408.795C660.442 404.187 662.682 398.47 664.629 393.02C665.628 390.226 666.552 387.365 667.354 384.507C667.934 382.44 667.955 380.36 669.579 378.858ZM804.249 332.569C801.151 341.949 794.395 349.172 784.984 352.348C775.658 355.496 765.284 354.348 755.75 352.646C753.665 352.274 751.551 351.863 749.441 351.383C751.168 352.455 752.693 353.964 754.153 355.559C756.311 357.917 758.269 360.402 758.862 363.354C759.451 366.283 758.523 368.512 756.83 370.193C754.226 372.78 750.025 374.174 746.467 374.944C738.499 376.669 730.517 376.401 722.589 374.632C720.564 374.181 719.192 373.093 718.421 371.674C717.485 369.951 717.408 367.808 717.945 365.856C718.482 363.906 719.642 362.107 721.326 361.112C722.711 360.292 724.445 360.068 726.412 360.723C730.36 362.04 734.28 362.912 738.451 363.013C740.216 363.054 741.993 363.001 743.755 362.839C744.752 362.747 745.747 362.62 746.735 362.461C746.153 361.684 745.587 360.893 745.035 360.093C744.381 359.148 743.745 358.191 743.138 357.218C741.382 354.399 739.919 351.502 738.634 348.445C738.222 347.465 737.84 346.481 737.473 345.494C737.42 345.352 737.367 345.209 737.315 345.067C737.201 344.972 737.089 344.876 736.977 344.78C734.464 342.601 732.357 339.917 730.866 336.593C726.83 327.588 727.487 316.411 729.936 307.061C731.899 299.567 736.23 292.635 741.953 287.926C742.953 286.278 743.612 285.279 744.421 284.438C747.71 281.009 752.299 278.697 756.778 277.29C766.781 274.147 777.675 276.402 786.155 282.386C793.984 287.911 800.113 296.198 803.425 305.414C806.562 314.141 807.174 323.715 804.249 332.569ZM667.997 275.567C679.893 275.465 691.997 278.984 701.65 286.027C710.886 292.766 718.136 302.715 718.127 314.566C718.119 326.105 711.963 337.449 705.135 346.383C697.472 356.412 687.457 361.248 674.864 361.359C668.319 361.418 661.726 360.837 655.227 360.039L651.741 359.599C646.939 358.978 642.088 358.244 637.538 356.591C615.876 348.719 615.205 320.31 623.228 302.151C629.422 288.131 645.101 274.458 660.734 276.099C663.09 275.769 665.509 275.589 667.997 275.567ZM688.089 288.926C673.191 282.227 655.091 284.233 640.64 291.382C634.916 297.64 630.732 305.526 629.039 312.766C627.231 320.494 627.496 328.819 630.214 336.31C633.533 345.454 641.705 347.719 650.52 349.124L653.943 349.663L655.379 349.881C664.041 351.175 673.511 352.182 681.835 350.562C691.113 348.754 697.005 341.245 701.642 333.546L701.858 333.185C706.674 325.118 710.705 315.307 706.666 306.064C703.232 298.207 695.73 292.363 688.089 288.926ZM776.018 291.261C770.905 288.422 765.074 287.907 759.554 289.807C757.178 290.624 755.126 291.949 753.136 293.434L752.343 294.035C749.895 295.917 747.61 296.871 745.774 299.413L745.537 299.753C744.611 301.139 742.99 301.693 741.514 301.509C739.794 306.261 739.084 311.399 739.07 316.457L739.071 317.128L739.08 317.811C739.19 323.79 740.231 331.105 744.927 335.112C749.209 338.767 755.694 339.644 761.484 340.153L765.946 340.526L767.131 340.615C773.234 341.041 779.92 340.896 785.035 337.276C789.489 334.124 791.59 328.773 792.134 323.49C793.422 311.01 787.117 297.423 776.018 291.261ZM664.734 292.414C672.938 288.218 682.793 289.269 689.742 294.529C689.125 294.65 688.517 294.804 687.911 295.108C686.335 295.9 685.356 297.486 684.983 299.174C684.563 301.082 685.549 302.888 687.429 303.489C689.064 304.012 691.003 304.252 692.522 303.256C693.318 302.735 693.874 302.048 694.239 301.183L694.29 301.056L694.355 300.963L694.379 300.919C694.385 300.903 694.356 300.934 694.311 301.005C694.357 300.897 694.4 300.79 694.443 300.68C694.507 300.549 694.568 300.418 694.618 300.282C694.706 300.205 694.787 300.12 694.868 300.035C696.131 301.982 697.122 304.18 697.751 306.625C701.79 322.321 685.227 338.611 670.43 340.24C664.837 340.856 659.738 339.522 655.506 336.892C655.545 336.841 655.588 336.794 655.623 336.74C657.323 337.046 659.352 336.284 659.969 334.384C661.544 329.538 659.929 323.869 654.659 322.286C651.267 321.266 647.797 322.393 645.373 324.715C643.54 320.22 642.884 315.159 643.752 310.09C644.976 302.939 649.281 296.494 655.982 293.519C659.244 292.069 662.056 291.765 664.734 292.414ZM751.128 302.098L751.377 301.704C753.913 297.795 758.758 293 763.78 294.319C764.486 294.504 765.178 294.802 765.801 295.189C768.56 294.814 771.449 295.442 773.822 296.904L773.757 297.068C773.747 297.095 773.738 297.123 773.731 297.152C773.514 298.103 773.64 298.982 774.083 299.855C774.564 300.802 775.249 301.699 776.177 302.242C776.814 302.614 777.562 302.809 778.296 302.795C779.372 302.775 780.319 302.301 781.096 301.576C781.519 301.183 781.814 300.607 781.977 300.014C782.361 300.382 782.733 300.793 783.087 301.259C788.91 308.93 788.105 321.257 781.274 328.095C780.998 328.371 780.705 328.62 780.415 328.874C777.642 332.7 773.367 335.296 768.233 335.821C763.479 336.308 758.726 334.899 755.08 332.012C755.374 331.856 755.648 331.653 755.884 331.385C756.506 330.679 757.019 329.982 757.397 329.12C757.492 328.903 757.583 328.685 757.67 328.464L757.797 328.131C757.819 328.07 758.013 327.509 757.961 327.608L757.949 327.631L758.018 327.469C758.671 325.837 758.407 323.972 756.858 322.949L756.688 322.842C756.182 322.547 755.555 322.407 754.92 322.406C753.339 320.466 750.986 320.021 748.777 320.588L748.7 319.962C748.688 319.857 748.678 319.753 748.67 319.648C746.959 313.963 747.784 307.503 751.128 302.098ZM675.143 244.865L675.711 244.777C680.008 244.154 682.93 244.871 685.724 248.55C687.055 250.303 686.644 252.951 685.724 254.743C682.749 260.533 674.565 259.336 669.054 260.486C663.672 261.608 658.304 263.135 653.269 265.358C648.131 267.626 643.308 270.309 638.605 273.373C634.351 276.145 630.493 280.313 625.634 281.926C625.415 281.999 625.151 281.802 625.165 281.57C625.511 276.032 630.127 270.949 633.703 267.006C637.838 262.446 642.868 258.397 648.105 255.178C653.51 251.857 659.353 249.123 665.402 247.216C668.588 246.212 671.847 245.413 675.143 244.865ZM740.605 252.384C746.015 244.457 759.464 245.977 767.4 248.095C777.35 250.75 788.132 256.119 795.109 263.89C801.359 270.852 792.008 279.897 784.98 274.038L783.105 272.48L781.904 271.492C776.509 267.077 771.166 263.081 764.592 260.138C756.882 256.688 749.071 255.007 740.923 253.169C740.603 253.097 740.415 252.662 740.605 252.384Z" fill="black"/>
</svg>
