<svg width="1534" height="2366" viewBox="0 0 1534 2366" fill="none" xmlns="http://www.w3.org/2000/svg">
<path fill-rule="evenodd" clip-rule="evenodd" d="M354.445 1337.79C334.598 1387.37 310.841 1443.65 288.985 1491.94C290.735 1507.24 297.304 1522.89 292.164 1538.21C314.817 1523.47 340.286 1514.22 366.283 1507.23L367.745 1517.02C370.639 1516.93 375.853 1516.88 378.784 1516.84C378.327 1512.94 377.709 1506 377.429 1502.07L377.42 1502.08C373.794 1459.88 380.568 1416.68 388.841 1375.44C390.859 1360.56 385.934 1337.45 367.181 1337.07C364.393 1337.49 359.802 1329.95 358.111 1328.49L354.445 1337.79ZM616.718 1908.11C522.234 1913.41 468.209 1836.1 422.529 1763.77C417.72 1766.95 412.392 1770.52 407.536 1773.4C400.064 1785.4 384.855 1789.04 371.725 1790.37C324.927 1792.77 314.903 1750.74 303.285 1714.59C301.072 1716.14 296.123 1724.05 292.401 1722.31C271.386 1717.65 250.926 1712.09 228.646 1713.48C203.075 1708.02 70.5654 1766.38 82.7954 1715.48C88.7684 1693.35 121.643 1682.86 138.575 1667.58C163.197 1639.57 157.201 1603.53 168.963 1570.17C178.742 1536.7 190.168 1505.18 211.313 1474.41C213.222 1359.43 217.528 1218.7 247.293 1116.44C266.271 1044.68 289.782 970.484 280.745 895.178L275.612 895.041C273.367 893.768 269.916 892.808 267.161 893.231C264.837 890.662 260.529 891.443 257.371 890.403C251.679 837.214 249.484 791.69 256.707 743.437C263.416 663.763 313.694 631.173 387.129 613.82C467.831 587.349 522.589 560.37 564.402 494.547C572.31 481.189 577.116 465.373 587.652 454.11C613.815 420.996 689.058 426.455 708.49 461.322C716.976 481.719 717.706 505.525 724.161 526.73C749.538 616.794 866.255 606.186 928.047 655.43C955.248 675.602 964.013 706.746 967.539 738.447C971.983 778.312 980.471 816.698 979.382 856.32C982.221 856.858 988.719 854.836 989.82 858.905C987.235 867.464 954.1 867.434 944.859 868.948C957.014 933.313 945.991 997.946 955.76 1062.52C970.819 1135.06 1000.45 1202.44 1023.72 1272.52C1032.68 1295.68 1038.67 1320.51 1051.99 1341.6L1051.75 1341.79C1053.86 1345.29 1056.17 1348.69 1058.57 1351.97C1061.04 1352.86 1063.61 1354.31 1066.05 1355.2L1066.59 1354.28L1067.91 1356.05L1071.77 1354.42C1077.45 1357.26 1083.62 1360.55 1089.68 1364C1164.13 1409.19 1212.86 1455.04 1271.23 1511.81L1263.49 1518.09C1266.31 1522.02 1269.72 1527.21 1272.46 1531.35C1274.75 1529.33 1279.63 1525.93 1282.44 1524.76C1332.21 1583.93 1338.3 1686.5 1314.06 1748.85C1306.35 1767.53 1294.15 1782.87 1279.42 1795.79C1273.33 1804.94 1262.4 1817.57 1248.42 1823.64C1248.42 1823.64 1246.66 1826.13 1246.6 1826.22C1245.86 1826.32 1241.28 1827.37 1241.01 1828.43C1203.82 1834.7 1166.52 1851.07 1127.98 1851.31C1065.12 1850.76 1011.1 1799.73 960.682 1766.02C928.789 1743.27 891.626 1727.65 857.186 1712.44C859.754 1725.55 859.024 1730.05 844.77 1735.01C832.073 1740.06 816.799 1736.11 804.987 1730.56C805.295 1752.29 807.027 1773.99 806.429 1797.16C806.425 1825.21 807.361 1859.71 777.132 1872.66C725.657 1892.94 667.495 1907.5 616.718 1908.11Z" fill="white"/>
<path fill-rule="evenodd" clip-rule="evenodd" d="M1272.26 1523.25C1270.47 1520.55 1268.64 1517.88 1266.76 1515.24C1268.98 1517.65 1271.17 1520.1 1273.3 1522.58C1272.93 1522.77 1272.58 1523 1272.26 1523.25ZM1065.13 1349.68C1064.78 1349.42 1064.39 1349.19 1063.94 1349.01C1062.9 1348.58 1061.86 1348.13 1060.82 1347.7C1058.85 1344.97 1057 1342.17 1055.27 1339.31C1058.89 1343.09 1062.56 1346.76 1066.52 1350.2C1066.06 1350.03 1065.59 1349.86 1065.13 1349.68ZM1031.04 1335.09C1014.16 1326.1 997.153 1317.35 980.103 1308.77C978.633 1308.03 977.203 1308.05 975.993 1308.54C968.663 1304.77 961.293 1301.05 953.843 1297.52C949.313 1295.38 944.743 1293.36 940.193 1291.32C939.843 1290.8 939.523 1290.26 939.253 1289.68C936.523 1283.85 939.113 1276.61 940.873 1270.88C941.323 1269.44 941.133 1268.19 940.563 1267.21C941.523 1258.84 941.163 1250.42 939.513 1242.83C935.593 1224.75 925.903 1208.27 916.683 1192.46C907.213 1176.23 898.913 1159.93 893.543 1141.86C882.753 1105.59 881.923 1067.62 882.703 1030.09C883.563 988.401 885.973 946.721 887.643 905.061C888.143 892.641 888.633 880.221 889.033 867.791C890.003 868.371 890.783 868.971 892.233 869.401C894.593 870.091 897.003 870.661 899.393 871.221C904.163 872.341 909.003 873.121 913.853 873.791C922.973 875.051 932.063 875.621 941.263 875.491C942.393 875.471 943.523 875.441 944.643 875.401C939.323 902.391 939.663 930.971 939.173 958.251C938.593 989.801 937.053 1021.66 940.563 1053.1C943.993 1083.83 953.073 1113.17 962.983 1142.34C973.183 1172.36 983.683 1202.29 993.593 1232.4C999.183 1249.39 1004.79 1266.38 1010.41 1283.36C1013.11 1291.54 1015.82 1299.72 1018.52 1307.89C1021.48 1316.84 1022.96 1327.37 1030.46 1333.63C1031.29 1334.32 1032.22 1334.85 1033.22 1335.22C1033.39 1335.57 1033.55 1335.91 1033.73 1336.26C1032.83 1335.87 1031.94 1335.48 1031.04 1335.09ZM919.343 1267.85C918.163 1273.38 916.163 1278.85 913.433 1283.1C913.433 1283.58 913.333 1284.09 913.093 1284.61C910.373 1290.54 903.873 1293.99 898.253 1296.66C891.483 1299.88 884.493 1302.65 877.663 1305.75C867.443 1310.38 856.963 1313.98 846.223 1316.55C846.023 1316.63 845.823 1316.72 845.613 1316.8C828.123 1323.82 810.213 1329.75 792.053 1334.8C755.253 1345.05 717.483 1351.6 679.543 1355.88C642.793 1360.02 605.773 1362.39 568.813 1363.51C535.263 1364.54 501.183 1363.8 468.103 1357.67C444.413 1353.28 421.133 1346.02 399.783 1334.99C398.063 1332.29 395.653 1329.98 393.633 1327.45C393.883 1323.38 391.423 1318.84 387.703 1317.4C386.263 1314.19 385.133 1310.85 384.333 1307.42C385.203 1299.02 386.373 1290.66 388.083 1282.26C391.453 1265.8 395.853 1249.57 400.273 1233.37C409.493 1199.56 416.863 1165.86 418.093 1130.71C419.343 1095.11 415.763 1059.63 410.863 1024.42C405.893 988.671 399.923 953.051 393.513 917.541C389.873 897.351 386.363 877.121 382.513 856.961C378.623 836.571 375.553 815.781 370.483 795.641C370.323 794.991 369.263 795.111 369.293 795.811C369.993 813.911 372.493 832.051 374.243 850.081C375.473 862.731 376.803 875.361 378.153 887.991C375.413 887.361 372.453 887.731 369.253 887.791C364.003 887.901 358.753 887.841 353.503 887.871C343.013 887.911 332.513 887.961 322.013 888.011C303.963 888.091 285.843 888.361 267.823 889.661C266.713 889.391 265.593 889.121 264.463 888.781C260.153 887.481 258.773 884.401 258.493 880.091C257.763 869.271 259.313 858.051 259.503 847.191C259.703 835.651 259.633 824.111 259.273 812.581C259.043 805.031 259.783 795.771 255.423 789.211C255.843 783.231 256.353 777.251 256.983 771.291C259.343 748.911 263.373 726.431 270.303 704.981C275.313 689.481 283.533 675.261 295.353 663.961C318.543 641.821 350.613 633.061 380.573 624.281C416.783 613.661 452.863 600.581 485.513 581.421C485.113 582.291 485.363 583.431 486.543 583.671C488.443 584.061 489.843 585.091 490.883 586.501C491.343 588.841 492.023 591.151 492.943 593.411C493.133 593.871 493.373 594.281 493.643 594.641C494.103 598.011 494.153 601.461 494.393 603.891C495.193 612.131 496.683 620.181 498.943 628.141C503.493 644.151 510.623 659.541 520.043 673.271C538.963 700.811 567.213 721.841 599.663 730.341C632.423 738.911 668.753 735.321 698.203 718.161C725.443 702.291 746.553 676.021 752.733 644.781C756.023 628.181 755.493 611.281 752.393 594.701C751.893 592.041 751.343 589.311 750.723 586.561C771.493 604.411 798.133 615.361 823.833 623.811C851.303 632.841 879.463 640.261 904.493 655.231C916.023 662.121 926.963 670.701 934.973 681.611C944.913 695.151 949.203 710.911 951.893 727.291C955.503 749.291 958.133 771.491 960.613 793.641C961.853 804.781 963.003 815.941 964.053 827.101C964.603 833.011 965.133 838.921 965.623 844.841C965.983 849.021 966.383 852.351 967.743 855.521C959.883 857.621 951.923 859.201 943.903 860.621C934.433 862.311 924.793 863.291 915.193 863.881C910.243 864.181 905.283 864.281 900.323 864.361C897.853 864.401 895.383 864.341 892.913 864.361C891.503 864.371 890.353 864.751 889.123 865.001C890.223 829.831 890.583 794.631 888.453 759.511C888.403 758.621 886.963 758.301 886.803 759.291C879.763 800.591 876.043 842.501 873.183 884.271C870.373 925.231 867.423 966.191 864.943 1007.18C862.673 1044.84 861.823 1082.87 868.253 1120.2C871.393 1138.42 876.573 1156.09 883.923 1173.06C891.163 1189.79 901.393 1204.91 909.723 1221.08C917.343 1235.89 922.753 1252.03 919.343 1267.85ZM867.151 1647.8C852.293 1643.49 838.27 1637.31 824.428 1630.43C811.075 1623.8 796.915 1616.74 785.599 1606.95C785.355 1606.74 785.614 1606.3 785.919 1606.41C799.872 1611.39 813.096 1618.78 826.689 1624.74C840.81 1630.93 855.253 1636.34 869.427 1642.41C872.565 1643.75 870.272 1648.71 867.151 1647.8ZM837.403 1720.79C833.753 1723.25 829.743 1725.48 825.583 1726.93C819.933 1728.92 814.213 1729.43 808.523 1728.85C807.673 1718.6 806.633 1708.35 805.383 1698.13C818.193 1704.59 831.593 1709.96 844.973 1715.34C842.323 1716.93 840.043 1719 837.403 1720.79ZM784.927 1667.98C784.544 1672.12 779.025 1672.03 778.552 1667.98C776.408 1649.65 775.335 1631.18 773.494 1612.81C770.231 1580.25 764.833 1548.2 757.41 1516.34C755.536 1508.29 753.581 1500.27 751.419 1492.3C750.298 1488.16 746.487 1480.9 749.051 1476.67C752.205 1471.47 756.566 1478.83 753.199 1479.25C752.856 1479.29 752.859 1478.8 753.124 1478.69C750.506 1479.74 752.325 1482.09 753.012 1483.96C753.673 1485.75 754.352 1487.54 755.009 1489.33C756.322 1492.92 757.603 1496.52 758.848 1500.13C761.545 1507.95 764.075 1515.81 766.313 1523.77C770.688 1539.34 774.534 1555.1 777.493 1571C783.393 1602.71 787.907 1635.69 784.927 1667.98ZM408.043 1762.34C405.933 1761.25 403.393 1760.86 401.153 1761.31C393.773 1762.78 390.843 1767.05 384.513 1770.26C380.793 1772.15 374.363 1773.72 370.463 1773.96C363.973 1774.35 360.223 1773.9 354.273 1772.01C349.943 1770.63 345.223 1768.07 342.003 1765.1C333.433 1757.21 329.203 1746.29 325.453 1735.2C321.323 1722.97 317.773 1710.32 311.413 1699.01C308.213 1693.33 304.153 1687.84 299.313 1683.45C294.713 1679.28 287.303 1676.25 284.173 1670.72C280.943 1665.02 280.673 1656.76 279.713 1650.35C278.753 1643.92 278.053 1637.45 277.593 1630.97C275.803 1605.75 277.483 1578.09 291.523 1556.23C309.153 1528.8 341.073 1520.84 370.663 1513.16C371.113 1517.88 371.653 1522.59 372.303 1527.29C373.093 1533.05 374.053 1538.79 375.163 1544.5C369.833 1548.76 365.143 1554.2 361.873 1558.18C353.923 1567.87 347.993 1578.92 343.903 1590.76C339.963 1602.17 338.023 1614.27 338.373 1626.34C338.553 1632.34 339.473 1638.19 341.163 1643.95C341.633 1645.54 342.193 1647.26 342.863 1648.99C340.773 1652.62 340.383 1657.31 342.813 1660.86C364.523 1692.57 386.233 1724.27 407.943 1755.98C408.943 1757.44 409.943 1758.91 410.943 1760.38C409.963 1761 409.003 1761.66 408.043 1762.34ZM370.513 1511.55C369.003 1511.57 367.493 1511.61 365.973 1511.65C367.453 1511.24 368.933 1510.83 370.413 1510.42C370.443 1510.8 370.473 1511.17 370.513 1511.55ZM369.643 1500.26C356.193 1503.94 342.763 1507.73 329.733 1512.72C322.113 1515.64 313.123 1518.78 305.503 1523.39C303.253 1524.46 301.063 1525.62 298.923 1526.89C299.223 1525.31 299.213 1523.64 298.833 1521.96C297.073 1514.09 295.763 1506.13 294.293 1498.2C294.133 1497.35 293.943 1495.63 293.623 1493.65C295.063 1491.04 296.143 1488.2 297.363 1485.37C299.583 1480.24 301.803 1475.1 304.033 1469.97C308.213 1460.3 312.393 1450.63 316.573 1440.97C325.143 1421.16 333.673 1401.3 341.893 1381.34C347.463 1367.8 353.043 1354.25 358.413 1340.62C359.903 1342.37 362.213 1343.57 365.353 1343.69C380.503 1344.23 382.513 1364.27 381.263 1375.4C380.313 1383.87 378.043 1392.2 376.453 1400.57C374.833 1409.12 373.493 1417.71 372.333 1426.33C369.063 1450.84 368.123 1475.62 369.643 1500.26ZM242.823 1699.41C224.473 1698.34 205.993 1700.1 188.073 1704.14C170.753 1708.04 153.923 1713.87 136.583 1717.75C128.133 1719.64 119.583 1720.94 110.903 1721.14C106.733 1721.23 102.523 1721.12 98.3728 1720.65C97.8528 1720.59 97.1928 1720.41 96.5228 1720.24C97.7128 1716.59 99.8428 1713.52 102.893 1710.45C107.133 1706.18 110.703 1703.82 115.973 1700.44C126.583 1693.64 137.633 1687.48 146.423 1678.28C157.673 1666.49 163.003 1651.37 165.783 1635.58C168.763 1618.66 170.683 1601.56 173.543 1584.62C175.893 1570.63 178.593 1556.64 181.903 1542.82C185.783 1530.65 190.843 1518.87 196.593 1507.41C201.003 1498.63 205.883 1490.13 210.643 1481.55C214.623 1485.24 220.563 1484.56 223.933 1479.79C225.493 1477.58 227.343 1475.44 228.073 1472.78C228.773 1470.25 228.543 1467.33 228.563 1464.74C228.603 1459.87 228.643 1455 228.683 1450.12C228.773 1440.05 228.883 1429.97 229.023 1419.9C229.293 1400.4 229.693 1380.9 230.353 1361.4C231.683 1322.19 233.813 1283 238.233 1244C246.903 1167.43 268.923 1093.27 278.413 1016.83C279.583 1007.43 280.603 997.921 281.353 988.341C285.483 958.951 286.193 929.121 283.413 899.511C315.643 899.231 347.863 900.851 379.913 904.361C383.783 940.371 388.203 976.281 392.773 1012.19C397.253 1047.32 401.093 1082.75 400.683 1118.21C400.483 1135.66 399.293 1153.15 396.423 1170.37C393.653 1187.01 389.443 1203.36 384.963 1219.61C380.463 1235.9 375.623 1252.11 371.653 1268.54C365.633 1283.64 359.083 1298.52 352.343 1313.31C335.343 1350.62 317.763 1387.65 301.113 1425.12C296.313 1435.94 291.563 1446.78 286.783 1457.61C284.393 1463.03 282.003 1468.45 279.613 1473.86C276.923 1479.96 273.443 1485.91 273.473 1492.73C273.493 1496.8 275.913 1499.75 279.063 1501.06C277.723 1508.93 277.283 1516.91 277.193 1524.89C277.143 1529.65 280.273 1533.57 284.413 1535.1C284.403 1536.13 284.373 1537.15 284.323 1538.18C284.263 1538.24 284.203 1538.3 284.143 1538.35C262.413 1560.33 256.503 1592.2 256.683 1622.01C256.773 1637.6 258.363 1653.32 261.023 1668.67C262.653 1678.09 266.763 1685.86 274.303 1691.82C279.633 1696.03 285.693 1700.1 289.163 1705.22C289.873 1706.28 290.543 1707.35 291.183 1708.44C276.283 1702.19 258.493 1700.32 242.823 1699.41ZM490.233 578.571C490.213 579.291 490.213 580.021 490.233 580.741C489.323 580.491 488.363 580.351 487.303 580.361C488.293 579.781 489.253 579.161 490.233 578.571ZM1329.78 1638.17C1327.39 1616.19 1323.78 1594.07 1315.95 1573.31C1308.75 1554.22 1297.98 1536.99 1285.15 1521.2C1272.24 1505.31 1257.44 1491.09 1242.29 1477.36C1226.31 1462.88 1210.11 1448.61 1193.76 1434.55C1161.57 1406.87 1127.99 1380.37 1091.02 1359.41C1091.01 1359.39 1091 1359.37 1090.98 1359.35C1090.92 1359.32 1090.86 1359.3 1090.79 1359.27C1084.78 1355.87 1078.68 1352.59 1072.48 1349.5C1070.97 1348.75 1069.52 1348.8 1068.29 1349.32C1068.26 1349.28 1068.24 1349.23 1068.2 1349.2C1063.77 1345.05 1059.11 1341.35 1054.29 1337.67C1050.3 1330.84 1046.96 1323.65 1044.41 1316.08C1044.16 1315.34 1043.76 1314.74 1043.29 1314.23C1042.29 1311.49 1041.17 1308.77 1040.18 1306.04C1037.48 1298.55 1034.84 1291.04 1032.17 1283.54C1026.83 1268.54 1021.5 1253.53 1016.14 1238.54C1005.43 1208.57 995.143 1178.45 984.763 1148.36C975.013 1120.1 965.013 1091.72 960.063 1062.15C954.933 1031.55 956.103 1000.06 955.693 969.161C955.463 951.321 955.353 933.431 954.433 915.621C953.733 902.001 952.833 888.421 950.363 875.071C957.333 874.561 964.273 873.631 971.153 872.441C978.723 871.121 994.533 870.161 994.203 859.341C994.073 855.261 990.953 852.421 987.173 851.381C986.293 851.131 985.403 851.031 984.503 851.021C985.303 844.201 983.633 836.801 982.983 830.061C982.003 819.881 980.943 809.701 979.793 799.541C977.483 779.061 974.823 758.611 971.863 738.211C969.173 719.691 966.423 701.061 957.763 684.211C951.183 671.401 941.413 660.251 930.153 651.351C883.333 614.341 820.003 613.421 770.783 581.201C758.053 572.861 746.663 562.431 738.433 549.551C733.733 542.181 730.583 534.241 728.343 525.811C726.893 520.371 725.533 515.051 723.793 509.701C722.083 504.471 721.603 500.181 718.373 495.571C718.023 495.071 717.273 495.251 717.233 495.871C716.923 500.631 717.783 504.811 718.023 509.551C718.263 514.491 718.103 519.361 718.603 524.331C718.723 525.581 718.873 526.831 719.023 528.071C718.853 528.371 718.713 528.701 718.603 529.061C716.313 536.361 717.563 544.271 721.453 550.581C721.403 551.241 721.453 551.911 721.633 552.581C723.593 559.871 727.153 566.611 729.813 573.681C732.333 580.391 734.473 587.251 736.133 594.231C739.263 607.401 740.483 620.941 739.173 634.441C736.353 663.381 719.183 688.041 695.143 703.751C668.453 721.191 634.603 725.531 603.883 717.971C572.553 710.261 546.643 690.261 528.343 664.051C518.173 649.491 510.393 633.141 505.543 616.061C503.683 609.511 502.583 602.631 500.803 596.031C502.543 595.081 503.593 593.211 502.583 590.751C499.943 584.311 499.523 577.961 501.473 571.361C519.243 559.321 535.753 545.241 549.823 529.021C563.813 512.891 578.313 493.301 584.353 472.581C586.723 464.441 574.513 459.001 570.473 466.731C566.053 475.181 562.433 483.891 557.603 492.151C552.753 500.471 547.203 508.371 541.053 515.781C528.813 530.541 514.583 543.721 499.043 554.961C464.393 580.021 424.343 596.121 383.733 608.711C352.283 618.461 319.383 626.961 293.273 648.081C264.483 671.371 254.573 707.991 249.163 743.151C246.873 758.021 245.543 772.981 244.943 787.991C244.313 789.191 244.163 790.601 244.803 791.921C243.913 820.081 245.533 848.361 248.223 876.401C248.213 879.371 248.433 882.301 249.093 885.081C249.413 888.171 249.743 891.261 250.083 894.341C250.163 895.121 250.543 895.651 251.283 895.921C254.123 896.941 256.963 897.551 259.833 897.741C260.323 897.911 260.823 898.061 261.323 898.201C262.123 899.231 263.383 899.921 265.113 899.871C266.103 899.841 267.093 899.821 268.073 899.791C269.203 900.111 270.303 900.501 271.343 901.051C272.123 901.461 272.893 901.641 273.623 901.661C274.883 915.971 275.323 930.321 274.953 944.631C273.843 964.781 271.353 984.841 267.423 1004.93C260.133 1042.21 249.543 1078.83 239.873 1115.54C219.913 1191.25 210.683 1268.7 207.113 1346.8C206.103 1368.87 205.623 1390.98 205.263 1413.07C205.083 1423.8 204.953 1434.52 204.843 1445.25C204.793 1450.77 204.743 1456.29 204.693 1461.82C204.663 1464.4 204.483 1467.04 204.653 1469.61C204.693 1470.25 204.783 1470.84 204.893 1471.42C204.883 1471.44 204.873 1471.46 204.863 1471.49C194.403 1485.74 186.433 1502.18 179.453 1518.35C172.313 1534.87 166.243 1551.85 161.553 1569.23C156.853 1586.64 153.443 1604.22 150.163 1621.94C147.423 1636.71 144.243 1653.08 132.843 1663.84C124.233 1671.96 112.233 1677.43 102.063 1684.02C90.4628 1691.54 80.0728 1700.73 75.5028 1714.17C72.3228 1723.49 73.8628 1734.18 83.2828 1739.06C91.3928 1743.26 102.893 1742.94 111.803 1742.53C130.633 1741.65 148.953 1736.55 166.993 1731.43C186.823 1725.8 206.473 1720.66 227.193 1720.1C237.573 1719.82 248.063 1720.31 258.323 1721.93C268.983 1723.6 279.203 1727.16 289.813 1728.86C293.343 1729.44 296.873 1728.69 299.223 1726.29C305.973 1745.37 309.843 1766.16 325.313 1780.87C337.213 1792.17 354.133 1797.94 370.463 1796.99C379.273 1796.47 387.633 1794.32 395.573 1790.46C399.373 1788.61 402.803 1786.22 406.093 1783.57C408.113 1781.95 409.523 1780.2 410.503 1778.26C413.463 1776.46 416.383 1774.6 419.263 1772.69C435.553 1796.91 451.743 1821.33 469.933 1844.1C490.513 1869.86 515.363 1890.93 546.333 1902.95C575.203 1914.15 607.143 1916.36 637.773 1913.75C670.093 1910.99 701.853 1903.64 732.843 1894.26C747.983 1889.68 763.703 1885.45 778.063 1878.72C793.393 1871.54 804.003 1858.9 807.603 1842.26C811.143 1825.9 810.723 1808.41 810.843 1791.76C810.963 1774.58 810.543 1757.36 809.383 1740.22C809.373 1740.17 809.373 1740.13 809.373 1740.08C815.013 1742.36 821.143 1743.57 827.193 1743.88C833.273 1744.19 839.593 1743.42 845.293 1741.24C852.093 1738.65 861.493 1734.38 862.733 1726.29C862.923 1725.11 862.933 1723.86 862.783 1722.63C866.923 1724.38 871.043 1726.18 875.103 1728.07C887.823 1733.97 900.503 1739.99 912.983 1746.38C919.223 1749.57 925.353 1753.08 931.693 1756.07C933.393 1756.87 935.103 1757.76 936.833 1758.66C943.143 1762.87 949.393 1767.17 955.613 1771.55C973.203 1783.94 990.583 1796.62 1008.25 1808.88C1026.42 1821.49 1044.94 1833.94 1065.09 1843.18C1085.77 1852.67 1107.75 1858.71 1130.66 1857.86C1155.11 1856.96 1178.94 1850.05 1202.48 1843.98C1214.24 1840.96 1226 1837.93 1237.76 1834.9C1239.4 1835.63 1241.39 1835.52 1243.05 1833.89C1243.21 1833.73 1243.37 1833.57 1243.53 1833.41C1245.22 1832.98 1246.91 1832.54 1248.6 1832.11C1249.34 1831.09 1250.06 1830.05 1250.79 1829.02C1263.72 1822.92 1274.55 1811.95 1282.77 1799.78C1283.39 1799.25 1284.02 1798.74 1284.63 1798.2C1299.17 1785.44 1310.41 1769.61 1317.96 1751.82C1333.05 1716.26 1333.89 1676.05 1329.78 1638.17Z" fill="black"/>
<path fill-rule="evenodd" clip-rule="evenodd" d="M854.617 424.844C850.653 418.982 841.108 376.442 835.011 369.899C835.471 344.769 842.418 257.762 822.575 218.65C826.749 214.429 837.841 178.074 835.011 164.331C844.359 135.549 784.306 89.8356 761.451 77.4828C655.23 20.5241 501.308 83.3968 453.001 188.912C423.972 252.457 423.437 323.603 420.155 391.978C419.767 406.614 418.422 421.364 418.437 435.982C420.536 448.827 430.721 461.908 423 472.589C414.471 478.488 397.233 492.86 404.908 501.01C409.406 504.755 416.591 502.582 421.472 506.183C423.957 507.573 425.507 510.62 428.413 511.083C454.959 510.075 473.692 509.989 500.32 508.913C511.977 508.531 529.727 513.462 543.107 503.646C589.845 529.642 570.295 491.927 579.746 465.075C608.526 474.806 665.856 505.837 696.533 506.839C721.462 509.92 744.773 495.402 769.281 498.707C799.728 510.018 835.41 512.533 863.299 493.395C870.259 488.383 878.003 494.189 886.775 488.776C903.824 480.623 863.221 433.889 854.617 424.844Z" fill="white"/>
<path fill-rule="evenodd" clip-rule="evenodd" d="M819.823 215.312C819.445 213.141 822.436 211.522 823.593 213.722C831.998 229.703 835.365 248.211 838.342 265.863C841.349 283.701 843.336 301.613 843.446 319.721C843.53 333.65 842.265 347.74 839.89 361.679L840.179 362.671C840.712 364.493 841.25 366.314 841.794 368.133L842.615 370.861C844.201 376.099 845.703 381.361 847.332 386.586C850.733 397.491 854.314 408.427 858.7 418.98C862.98 429.278 868.185 439.209 874.372 448.491C880.335 457.439 889.798 465.005 893.999 474.943C895.463 478.406 893.298 482.984 889.254 482.431C888.991 482.748 888.59 482.978 888.046 483.026C884.906 483.3 881.963 483.039 878.83 482.745C877.081 482.581 877.084 480.19 878.83 480.026C880.161 479.901 881.457 479.791 882.752 479.716C873.792 474.407 867.4 464.04 862.289 455.553C855.721 444.649 850.76 432.735 846.716 420.687C842.563 408.317 839.622 395.689 837.259 382.867C836.988 381.391 836.73 379.914 836.482 378.435C833.496 391.128 829.651 403.589 825.094 415.565L824.455 417.232C813.95 444.466 799.722 471.961 776.057 489.961C774.983 490.777 773.886 491.552 772.78 492.31L774.126 493.082C775.466 493.847 776.786 494.581 778.077 495.183C782.859 497.414 788.05 499.115 793.185 500.32C803.791 502.811 814.929 502.097 825.749 502.444C829.298 502.558 831.317 507.879 827.689 509.607C815.738 515.298 802.83 514.09 790.494 510.086C784.39 508.103 778.662 505.328 773.363 501.705C771.172 500.208 768.628 498.36 766.48 496.224C742.813 509.466 713.397 510.948 687.055 506.212C673.366 503.75 660.101 499.255 648.43 491.566C637.204 484.172 629.202 474.81 623.489 462.681C622.982 461.606 624.391 460.267 625.256 461.318C643.201 483.113 674.083 492.207 701.251 493.937C715.747 494.861 730.576 494.093 744.513 489.756C757.734 485.64 769.078 478.096 778.55 468.063C797.749 447.726 809.253 420.06 817.515 393.731C826.503 365.088 830.783 334.952 831.666 304.976C832.113 289.789 831.55 274.474 829.165 259.455C826.799 244.56 822.408 230.144 819.823 215.312ZM550.772 86.2817C552.043 85.6357 552.938 87.3167 551.86 88.1437C529.483 105.305 509.443 127.065 493.223 150.096C463.31 192.573 444.126 241.727 435.292 292.803C430.076 322.966 428.714 353.586 429.235 384.151C429.441 396.292 430.135 408.397 430.906 420.505L431.777 433.927C432.181 440.18 432.519 446.38 432.258 452.664L432.187 454.116C431.773 461.428 432.492 468.799 430.658 475.932C429.717 479.59 424.558 480.166 422.69 476.973C422.324 476.348 421.982 475.703 421.65 475.052C417.272 482.192 411.602 488.575 405.311 494.277C408.318 493.637 411.354 493.229 414.471 493.602C419.412 494.194 423.844 496.102 426.98 499.446C430.093 498.043 433.294 497.077 436.975 497.057C439.686 497.043 441.719 500.248 440.172 502.629C437.086 507.381 432.78 510.045 427.887 512.678C424.419 514.544 420.281 512.948 419 509.258L418.927 509.034C417.486 504.366 409.822 505.12 406.206 505.842L405.142 506.059C398.411 507.46 391.838 509.252 384.981 507.404C380.558 506.211 379.402 499.553 383.666 497.343C397.136 490.363 408.444 480.987 420.065 471.573C417.499 465.282 416.042 458.253 414.362 451.856C411.997 442.852 411.306 433.164 410.452 423.915C408.829 406.33 408.21 388.554 408.384 370.9C408.973 311.272 419.171 251.459 445.22 197.464C456.632 173.811 471.624 151.924 489.345 132.551C506.961 113.292 527.536 98.0837 550.772 86.2817ZM529.917 378.296C529.226 377.338 530.575 376.071 531.521 376.692C552.002 390.145 566.215 410.573 575.386 433.014C584.464 455.231 590.038 482.444 581.085 505.612C579.66 509.302 572.835 510.672 572.136 505.612C569.015 483.016 568.53 460.388 561.667 438.42C554.863 416.643 543.221 396.701 529.917 378.296ZM514.036 451.652C514.148 451.253 514.8 451.322 514.772 451.752C514.259 459.72 513.911 467.785 512.909 475.709C512.422 479.56 511.778 483.386 511.23 487.228C510.668 491.168 510.753 495.146 508.462 498.511C505.426 502.972 497.36 501.717 497.631 495.578C497.818 491.343 499.764 488.625 501.587 484.908C502.757 482.525 503.776 480.062 504.758 477.587L506.218 473.875C509.12 466.514 511.897 459.277 514.036 451.652ZM477.361 430.545C477.485 429.918 478.496 430.069 478.466 430.694C477.919 441.972 476.647 453.123 474.655 464.236C473.747 469.301 472.688 474.338 471.568 479.361L471.084 481.513C469.886 486.803 469.113 493.022 466.429 497.748C463.747 502.471 457.379 499.041 458.204 494.28C459.168 488.722 462.579 483.131 464.562 477.793C466.392 472.865 467.992 467.85 469.487 462.811C472.634 452.204 475.215 441.398 477.361 430.545ZM545.658 461.855L545.896 461.61C546.828 460.597 548.218 461.272 548.663 462.341C550.485 466.722 549.573 471.888 549.443 476.539L549.419 477.554C549.322 482.265 549.39 486.678 547.253 491.027C544.659 496.308 537.824 493.028 537.295 488.33C536.717 483.203 539.142 478.184 540.708 473.382C541.703 470.33 542.428 467.156 543.941 464.386C542.647 464.609 541.355 465.056 540.172 465.379C539.642 465.522 539.442 464.744 539.948 464.564C541.904 463.872 544.112 463.352 545.658 461.855ZM818.317 477.402C817.692 476.703 818.471 475.772 819.282 476.15C829.022 480.699 838.132 483.658 848.879 484.627C853.536 485.047 853.565 492.363 848.879 491.939C837.663 490.929 825.908 485.9 818.317 477.402ZM475.641 323.709C484.216 304.42 511.344 287.309 529.535 305.247C529.876 305.582 529.529 306.313 529.034 306.108C517.719 301.419 503.867 307.383 496.036 315.913C489.823 322.679 486.09 331.367 485.349 340.524C484.608 349.689 486.799 359.255 492.886 366.344C496.079 370.063 500.391 373.583 505.465 374.03C510.588 374.481 514.858 370.873 519.701 369.893C523.352 369.155 526.108 371.446 526.466 375.045C527.255 382.988 519.347 388.319 512.492 389.614C505.118 391.006 497.592 389.485 491.238 385.489C470.716 372.583 466.289 344.748 475.641 323.709ZM668.187 134.646C671.916 131.082 678.259 134.625 676.883 139.709C673.957 150.529 667.738 159.674 660.848 168.354C654.219 176.705 647.117 184.73 639.505 192.199C631.943 199.619 623.727 206.485 615.092 212.618L612.491 214.46C606.371 218.774 599.889 223.137 593.039 226.244C591.385 240.494 588.149 254.554 583.253 268.015C578.538 280.977 572.538 293.504 565.268 305.227L564.224 306.906C557.543 317.613 549.51 329.578 538.174 335.447C537.834 335.624 537.493 335.732 537.157 335.795C539.693 337.486 541.836 339.613 543.11 342.669C544.506 346.015 541.588 349.172 538.791 350.277C532.876 352.614 527.106 348.658 521.789 344.438C521.564 344.944 521.352 345.455 521.17 345.97C519.981 349.34 519.631 352.784 516.565 355.02C515.108 356.083 513.313 355.132 512.396 353.928C509.39 349.978 512.502 344.597 515.145 341.369C515.511 340.923 515.889 340.499 516.278 340.092C515.161 339.271 514.071 338.543 513.015 337.984C506.806 334.696 497.602 334.113 494.027 341.392C493.753 341.951 492.892 341.662 492.892 341.084C492.901 332.143 502.06 327.287 510.008 326.627C515.815 326.145 521.431 328.182 526.658 330.553L527.634 331.001C529.579 331.904 531.583 332.756 533.501 333.709C533.189 332.886 533.194 331.918 533.685 330.958C539.696 319.219 550.018 309.673 557.462 298.801C564.844 288.015 571.182 276.472 576.241 264.419C581.151 252.72 584.998 240.654 587.688 228.347C586.802 228.53 585.803 227.741 585.866 226.816C586.016 224.578 587.111 222.562 589.034 221.703C591.152 210.127 592.233 198.355 592.17 186.488C592.165 185.568 593.498 185.601 593.576 186.488C594.512 197.039 594.588 207.693 593.801 218.285C598.803 213.683 604.078 209.308 608.894 204.584C616.141 197.476 623.152 190.178 629.915 182.609C636.815 174.887 643.337 166.881 649.301 158.41L652.422 153.968C657.22 147.158 662.15 140.419 668.187 134.646ZM658.777 58.6203C699.933 56.0513 743.887 61.1093 780.855 80.4283C801.158 91.0373 816.851 107.072 828.064 127.027C834.759 138.943 839.838 152.138 841.762 165.704C843.738 179.643 841.418 192.072 832.518 203.152C828.983 207.552 823.029 202.637 823.9 198.135C829.228 170.591 820.586 143.377 805.259 120.574C783.018 87.4843 744.177 72.7853 706.36 66.2283C687.78 63.0083 668.935 61.6623 650.085 62.3173C635.714 62.8173 620.972 64.1563 607.334 68.9913C606.759 69.1953 606.53 68.2993 607.084 68.0883C623.352 61.8753 641.512 59.6983 658.777 58.6203ZM719.815 120.903C721.934 119.56 724.526 120.938 725.254 123.117C727.822 130.799 722.44 140.948 718.84 147.596C714.766 155.119 709.527 162.153 704.117 168.76C693.294 181.974 679.069 193 663.459 199.93C662.503 200.355 661.389 199.201 662.266 198.385C674.344 187.138 685.295 175.08 694.775 161.553C699.433 154.906 703.318 147.894 707.028 140.691C710.348 134.245 713.47 124.925 719.815 120.903ZM789.033 129.953C790.387 125.225 798.099 126.03 797.78 131.137C796.955 144.33 790.731 157.573 783.968 168.754C777.004 180.267 768.185 190.527 758.076 199.388C757.578 199.825 756.896 199.152 757.347 198.659C766.069 189.111 773.114 178.235 778.331 166.399C783.542 154.58 785.509 142.248 789.033 129.953ZM750.703 127.817C752.178 123.706 759.238 124.011 758.805 128.914C757.615 142.392 749.705 156.517 742.379 167.649C734.605 179.46 724.682 189.865 713.592 198.604C713.177 198.931 712.59 198.389 712.995 198.007C722.956 188.622 731.034 177.781 737.429 165.689C740.693 159.519 743.431 153.094 745.593 146.457C747.593 140.317 748.532 133.869 750.703 127.817Z" fill="black"/>
<path fill-rule="evenodd" clip-rule="evenodd" d="M740.884 440.932C748.443 439.88 756.571 435.599 763.791 439.078C767.166 440.704 768.768 446.265 766.486 449.356C763.001 454.077 759.403 454.858 753.746 455.312C749.505 455.652 745.241 455.677 741.011 455.188L739.935 455.056C732.387 454.082 724.542 451.975 718.695 446.903C717.499 445.865 718.112 443.623 719.647 443.299C726.591 441.838 733.855 441.911 740.884 440.932ZM731.987 423.526C731.984 423.465 732.077 423.465 732.08 423.526C732.263 427.846 733.477 431.851 735.721 435.547C735.752 435.6 735.671 435.647 735.64 435.595C733.395 431.896 732.17 427.85 731.987 423.526ZM755.814 334.367C763.366 338.957 774.872 349.66 766.748 361.04C757.186 371.073 743.419 359.569 736.634 354.366C730.343 350.334 723.275 360.705 729.112 365.413C778.136 401.708 798.031 335.568 759.634 328.971C755.406 328.244 753.836 332.947 755.814 334.367ZM794.464 283C796.237 283 797.933 283.602 799.478 284.716C800.998 285.812 802.374 287.412 803.52 289.407C805.689 293.183 807.045 298.396 807.045 304.16C807.045 309.925 805.689 315.138 803.52 318.914C802.374 320.909 800.998 322.509 799.478 323.605C797.933 324.719 796.237 325.32 794.464 325.32C792.691 325.32 790.995 324.719 789.45 323.605C787.93 322.509 786.554 320.909 785.408 318.914C783.239 315.138 781.883 309.925 781.883 304.16C781.883 298.396 783.239 293.183 785.408 289.407C786.554 287.412 787.93 285.812 789.45 284.716C790.995 283.602 792.691 283 794.464 283ZM712.347 288.88L713.014 288.753C716.909 288.045 718.877 288.283 722.269 290.938C724.818 292.933 724.088 296.862 722.269 298.96C719.1 302.616 716.005 301.968 711.665 302.108L711.36 302.119C707.743 302.266 704.123 302.369 700.503 302.424C699.513 302.44 698.522 302.436 697.532 302.442C697.637 311.603 692.355 318.578 685.399 323.881C680.903 327.31 675.216 323.354 673.612 319.086C672.285 315.554 672 311.211 672.688 307.344C672.943 305.919 673.474 304.371 674.286 303.052L674.515 302.698L674.478 302.192C674.469 302.067 674.478 301.946 674.474 301.821C668.016 301.429 661.596 300.781 655.178 299.967L653.039 299.69C647.561 298.965 639.516 298.732 635.083 295.169C634.943 295.055 634.993 294.806 635.141 294.727C637.578 293.414 640.05 293.489 642.776 293.368L643.167 293.349C646.131 293.196 649.088 293.068 652.05 292.967L655.015 292.874C662.597 292.657 670.186 292.289 677.761 291.886C679.078 291.816 680.395 291.733 681.714 291.652C683.093 291.074 684.559 290.728 686.007 290.664C687.207 290.61 688.361 290.776 689.446 291.121C692.212 290.907 694.978 290.674 697.74 290.424L700.503 290.168C704.401 289.797 708.499 289.635 712.347 288.88ZM760.215 220.22C768.548 216.125 778.68 216.025 787.262 219.414L787.831 219.644C796.499 223.241 806.943 231.549 804.681 241.898C802.612 251.37 787.755 249.765 787.002 240.812C782.205 234.166 771.448 232.708 764.686 236.934C760.585 239.498 757.77 243.815 755.846 248.169C754.206 251.877 753.897 256.456 751.378 259.686C751.296 259.791 751.132 259.81 751.013 259.782C743.501 258.044 743.327 246.107 744.608 240.317C746.469 231.899 752.442 224.042 760.215 220.22Z" fill="black"/>
</svg>
