<svg width="1075" height="2948" viewBox="0 0 1075 2948" fill="none" xmlns="http://www.w3.org/2000/svg">
<path fill-rule="evenodd" clip-rule="evenodd" d="M1050.92 1480.63C1077.26 1481.22 1065.96 1235 1048.38 1189.62C1045.91 1180.43 1043.88 1167.86 1044.29 1156.58C1066.04 1158.76 1063.7 1143.84 1062.58 1125.85C1062.95 1111.57 1063.94 1082.1 1042.12 1093.57C976.714 962.361 1047.43 623.182 875.221 591.236C854.47 586.186 833.022 580.96 815.551 566.543C797.064 532.3 787.648 527.926 757.014 525.711C751.342 494.867 740.739 461.916 709.142 449.913C680.213 438.554 646.544 437.648 616.379 443.71C591.412 451.87 589.128 498.372 583.582 521.3C549.955 512.365 508.513 493.572 490.409 536.173C481.641 533.547 473.516 535.252 464.606 538.175C389.927 550.232 317.472 584.084 289.773 654.718C272.664 697.105 284.806 743.246 291.223 787.144C297.207 834.946 281.427 879.231 274.112 925.209C263.22 988.524 261.251 1039.31 268.358 1086.37C249.572 1090.65 248.186 1107.77 255.787 1125.69C258.019 1131.75 260.267 1138.15 265.202 1141.57C275.242 1147.91 288.218 1140.61 299.129 1139.49C301.399 1164.77 305.793 1189.58 313.065 1217.78C310.959 1226.22 308.544 1235.64 306.375 1244.12L305.643 1243.32C280.733 1347.87 206.647 1449.43 229.673 1560.55C231.027 1564.25 233.596 1563.48 235.569 1563.41C246.999 1567.77 257.498 1565.01 269.025 1565.45C296.366 1565.47 322.78 1568.98 347.284 1572.03C351.763 1601.35 366.326 1649.35 392.296 1660.53C392.733 1660.68 400.431 1659.07 401.075 1659.03C331.939 1939.93 207.544 2199.67 158.132 2486.23C157.839 2489.73 163.518 2487.88 165.381 2488.3C165.126 2496.26 170.253 2498.17 177.433 2501C168.181 2520.38 159.847 2539.73 150.636 2559.17C146.366 2568.78 139.405 2578.28 138.137 2588.57C127.941 2595.09 121.073 2607.86 121.255 2619.77C93.7588 2631.42 101.232 2688.94 94.9592 2717.42C88.616 2759.87 58.4448 2789.5 37.7574 2824.3C33.5415 2831.29 29.0522 2840.44 28.853 2849.21C16.0283 2855.24 11.2463 2868.4 12.0949 2890.55C12.0492 2916.46 19.3447 2926.33 39.0167 2926.96C92.4497 2932.31 154.801 2930.13 208.544 2924.05C248.748 2918.92 284.374 2923.17 275.386 2874.77C273.536 2863.05 277.089 2847.27 270.167 2837.79C265.9 2809.55 268.383 2781.1 277.585 2753.21C283.179 2729.72 292.631 2681.21 288.715 2649.7C286.903 2635.12 257.207 2627.1 251.98 2626.39C253.643 2615.42 252.911 2596.24 247.019 2588.62C257.838 2587.1 260.558 2584.24 262.811 2572.2C268.196 2552.7 268.912 2531.52 282.247 2515.09C306.231 2515.4 330.134 2509.3 354.104 2508.56L355.297 2505.8C369.475 2505.62 383.573 2503.11 397.03 2498.19C400.014 2499.6 403.831 2500.82 405.508 2496.29L413.513 2471.21C506.698 2174.06 609.988 1876.2 710.701 1581.23C716.58 1566.89 723.65 1551.65 732.844 1538.87C735.958 1719.35 773.689 1899.64 776.929 2080.03C781.308 2204.13 780.181 2326.92 791.83 2451.46C794.829 2477.82 798.016 2476.94 801.942 2475.32C803.516 2475.57 807.218 2476.36 808.825 2476.7C806.199 2502.89 803.177 2545.41 791.968 2572.2C767.19 2576.03 771.628 2595.08 777.123 2610.87C771.212 2615.93 772.053 2627.72 773.807 2634.25C750.494 2634.27 745.411 2653.27 747.015 2665.26C749.233 2685.32 747.992 2716.52 761.345 2733.65C769.209 2755.48 782.009 2776.09 787.009 2799.62C790.151 2816.93 788.938 2842.15 791.968 2859.32C784.344 2862.85 787.574 2868.38 786.289 2879.08C779.689 2928.08 802.919 2919.75 843.993 2923.13C868.612 2928.57 1056.03 2939.41 1047.94 2906.81C1049.32 2893.54 1043.16 2887.71 1040.52 2874.64C1039.33 2871.17 1015.98 2831.03 1002.05 2815.83C955.342 2771.85 957.382 2712.81 958.862 2644.8C956.115 2626.36 941.964 2608.71 923.907 2610.7C929.091 2591.01 919.481 2573.89 899.4 2568.2C901.406 2545.91 903.518 2515.62 910.861 2496.34L903.945 2489.29L913.203 2490.39L916.277 2482.64L919.629 2491.14C935.523 2491.14 953.456 2487.6 968.681 2485.94C971.113 2486.08 970.028 2482.77 970.427 2481.49C984.805 2478.51 986.379 2470.85 983.838 2452.61C987.187 2156.45 985.734 1863.06 981.156 1566.34C1003.63 1567.34 1025.54 1559.13 1047.62 1553.66C1055.46 1558.59 1057.69 1541.02 1056.77 1537.23C1055.52 1517.6 1053.1 1498.45 1050.92 1480.63Z" fill="white"/>
<path fill-rule="evenodd" clip-rule="evenodd" d="M589.466 480C592.806 482.642 592.457 489.966 592.786 494.066L592.809 494.335C593.86 506.719 592.437 519.161 589.424 531.185L588.959 533.018C587.519 538.765 586.089 545.653 581.583 549.595C576.466 554.072 568.337 551.174 568.152 543.955C568.059 540.6 569.177 537.369 570.591 534.222C560.677 538.055 550.763 541.846 540.807 545.544C534.448 598.237 607.912 662.749 650.447 685.334C712.388 719.688 764.505 667.068 772.434 605.209C773.766 596.992 774.659 588.547 774.833 580.217L774.843 579.418C774.878 572.53 773.738 563.321 778.217 557.593C774.92 557.515 771.991 557.98 768.764 558.487L768.919 558.755C770.748 562.031 773.333 570.186 767.542 570.806C755.04 569.488 749.225 547.527 746.177 536.994L746.057 536.537C744.089 528.644 741.583 499.993 747.51 496.558C749.333 503.626 748.616 511.303 750.832 518.392C755.877 520.428 765.482 520.978 767.707 521.353C793.688 521.654 808.419 540.341 818.949 562.216C849.82 587.602 894.194 583.24 927.528 604.147C1029.53 678.233 996.22 966.649 1047.03 1089.35C1057.2 1085.13 1067.57 1093.58 1068.93 1103.88C1070.33 1111.81 1069.91 1120.29 1070.02 1128.32L1070.07 1129.32C1070.9 1145.75 1073.74 1164.2 1051.6 1164.56C1051.64 1173.73 1053.36 1182.61 1055.57 1191.46C1067.83 1245.02 1073.18 1300.2 1074.38 1355.12L1074.44 1359.15C1074.84 1388.02 1075.19 1477.31 1058.63 1487.88L1059.41 1494.17C1061.32 1509.9 1063.13 1525.67 1064.14 1541.48C1065.73 1549.68 1060.32 1569.35 1049.28 1564.14C1029.04 1569.16 1009.09 1576.56 988.055 1576.59C993.151 1746.44 990.617 1916.46 991.371 2086.38C989.747 2211.63 996.505 2337.92 990.598 2462.69L990.811 2464.45C992.481 2478.46 992.982 2490.64 976.819 2495.44C976.587 2498.87 973.954 2500.7 970.832 2501.1C961.973 2502.3 953.114 2503.43 944.246 2504.52C935.984 2505.14 927.145 2507.2 918.912 2506.21C919.707 2507.02 917.546 2507.14 917.312 2506.56C909.805 2525.43 907.627 2546 905.768 2566.14C923.989 2573.1 933.933 2588.75 930.959 2608.37C949.343 2609.12 962.769 2629.59 965.346 2646.84C966.996 2658.74 965.674 2670.56 965.142 2682.49C962.597 2723.24 968.575 2767.14 994.832 2799.64C1011.88 2820.05 1034.06 2838.5 1041.5 2865.07C1043.52 2866.02 1045.18 2867.85 1045.91 2870.7L1050.63 2889.25L1052.97 2898.53C1054.69 2905.29 1056.22 2912.21 1055.3 2919.21L1055.2 2919.89C1050.6 2964.23 869.166 2942.86 833.754 2939.67C819.519 2937.44 803.9 2938.66 791.083 2931.11C775.361 2920.71 773.395 2899.62 776.094 2882.35L776.318 2880.73C777.411 2873 779.011 2864.91 786.326 2860.59C783.863 2844.58 784.816 2828.21 781.887 2812.26C777.463 2789.71 764.081 2770.13 757.249 2748.48C747.284 2737.37 746.948 2720.07 744.864 2705.87C743.285 2692.09 741.994 2678.23 741.461 2664.37C740.015 2646.05 747.949 2630.95 767.174 2628.56C766.282 2625.08 768.724 2622.08 771.153 2619.86C765.421 2599.47 763.839 2571.47 788.704 2564.51C798.122 2541.11 800.86 2515.75 803.366 2490.8C803.068 2490.74 802.772 2490.68 802.473 2490.63C791.08 2495.39 787.988 2475.04 786.921 2464.3L786.684 2461.74C774.96 2337.54 776.039 2212.62 771.636 2088.04L771.205 2079.04C767.345 1996.96 765.048 1914.15 750.88 1833.17C736.621 1742.91 732.894 1651.17 728.02 1559.96C722.28 1568.9 719.193 1579.16 714.547 1588.69C654.266 1766.13 592.416 1943.04 532.821 2120.73C489.627 2249.38 448.36 2378.71 406.97 2507.96C404.858 2514.58 398.204 2515.95 393.334 2513.83C380.938 2518.14 367.929 2520.58 354.836 2521.01C354.048 2522.82 352.428 2524.15 350.058 2523.89C343.056 2523.12 334.998 2525.32 327.996 2526.14C311.973 2527.72 296.418 2530.18 280.249 2530.42C270.232 2543.11 269.602 2560.31 264.984 2575.41C262.325 2583.11 262.742 2600.38 253.561 2602.55C256.852 2607.62 257.283 2613.72 256.75 2620.01C259.605 2620.66 262.501 2621.89 265.188 2623.14C267.804 2624.47 271.26 2624.36 273.063 2627.03C324.343 2636.34 286.868 2733.91 277.954 2766.18C269.206 2792.56 266.466 2820.11 270.458 2847.65C276.561 2856.1 274.517 2868.66 275.451 2878.67C275.943 2887.6 276.845 2896.67 276.764 2905.61C275.767 2942.77 229.991 2936.72 204.164 2941.54C188.038 2943.42 171.838 2944.73 155.639 2945.75C114.555 2948.31 73.2401 2948.5 32.2401 2944.52C5.76798 2943.68 0.0757506 2926.38 0.117786 2902.72L0.0773709 2901.74C-0.519129 2885.67 2.06583 2866.28 17.2908 2857.93C18.0495 2849.44 22.3464 2840.87 26.7334 2833.45C47.134 2799.09 77.7635 2768.97 83.788 2727.73C89.6975 2700.73 83.0026 2641.3 110.394 2627.23C111.03 2615.07 118.483 2602.68 127.711 2596.11C129.492 2585.98 136.201 2576.67 140.352 2567.36C148.819 2549.6 156.651 2531.55 165.072 2513.77C160.663 2511.9 155.977 2508.46 155.362 2503.58C151.129 2503.63 146.946 2500.89 147.458 2495.72C148.954 2480.74 152.226 2466 155.316 2451.27L155.702 2449.43C210.69 2183.09 324.243 1934.05 390.679 1671.13C381.74 1672.75 373.383 1662.51 368.441 1655.84C352.478 1634.3 343.05 1608.25 338.904 1581.81L331.4 1580.88C306.377 1577.8 281.23 1575.1 255.997 1575.83L249.916 1576.03C243.16 1576.24 236.392 1576.18 229.97 1573.75C225.49 1574.16 220.825 1571.75 219.718 1566.72C201.029 1473.39 246.966 1384.83 279.869 1300.5C287.62 1279.77 293.137 1258.73 298.397 1237.26C298.57 1236.57 299.657 1236.71 299.627 1237.43C298.602 1261.3 292.695 1285.37 286.697 1308.37C267 1386.39 225.966 1462.89 235.999 1545.48C267.184 1520.88 304.222 1503.78 343.128 1496.55C345.373 1486.78 347.854 1477.07 349.72 1467.24C347.885 1452.11 346.634 1436.92 345.035 1421.72C340.257 1376.27 332.958 1330.93 323.228 1286.27C308.135 1241.34 294.957 1195.8 290.245 1148.42L289.387 1148.59C278.922 1150.72 267.393 1155.34 257.684 1148.66C251.522 1144.38 248.855 1137.29 246.366 1130.47C239.254 1113.95 237.938 1092.24 258.062 1085.33C250.56 1032.8 255.434 977.97 264.502 925.936C271.762 880.327 287.689 835.392 281.727 788.7C275.108 743.832 262.766 696.839 280.608 652.918C309.93 579.62 384.183 544.843 457.208 533.651L458.391 533.302C467.425 530.623 475.651 527.798 485.064 529.828C507.266 488.548 543.273 505.338 578.434 514.538C580.809 507.538 582.787 500.377 584.647 493.222C585.806 489.578 585.423 481.168 589.466 480ZM792.98 2880.61L792.888 2882.41C791.958 2901.74 793.006 2918.3 816.92 2918.17C833.376 2919.93 849.835 2921.65 866.317 2923.14L872.499 2923.69C921.419 2928.06 970.926 2930.2 1019.75 2923.63L1021.79 2923.36C1025.87 2922.77 1033.42 2922.89 1036.65 2919.87C1040.55 2914.62 1036.04 2904.6 1035.09 2898.51C958.909 2897.62 882.625 2894.81 806.39 2895.78C798.372 2895.82 794.753 2888.95 795.491 2882.7C794.589 2882.09 793.738 2881.38 792.98 2880.61ZM19.4757 2870.92C15.7294 2884.12 16.6521 2896.59 18.7682 2909.81C19.8263 2923.65 26.3972 2924.54 38.2881 2924.86C84.7086 2929.15 131.464 2928.25 177.897 2924.66C202.784 2921.97 228.358 2922.07 252.782 2916.55C264.434 2911.38 257.707 2895.11 258.104 2885.13C203.253 2920.55 120.298 2916.05 60.4849 2895.56L59.5265 2895.15C45.3777 2889.19 27.2909 2885.45 19.4757 2870.92ZM110.333 2632.61C104.027 2639.73 103.896 2660.03 103.631 2666.94L103.598 2667.72C102.89 2682.23 103.002 2696.77 102.375 2711.28C102.837 2772.39 67.6207 2802.86 41.4674 2852C34.3142 2863.92 44.7206 2865.61 53.1851 2869.48C107.996 2895.04 172.83 2898.94 230.092 2879.38C258.875 2870.99 252.591 2851.59 250.147 2827.85C247.741 2779.33 273.216 2735.62 280.752 2688.7L280.955 2687.48C283.202 2673.7 287.084 2638.39 265.177 2645.94C260.411 2648.88 255.93 2645.2 255.367 2640.69C254.799 2640.78 254.216 2640.83 253.655 2640.84C251.121 2656.53 248.496 2672.19 245.975 2687.88C248.097 2689.23 250.086 2690.75 251.849 2692.5C253.992 2694.63 252.495 2699.1 249.265 2698.82C247.606 2698.68 245.965 2698.43 244.334 2698.12C243.041 2711.75 221.431 2704.1 227.674 2693.17C196.602 2682.42 162.371 2683.27 130.818 2691.52L130.687 2691.58C128.244 2692.55 110.68 2696.08 116.331 2698.82C118.686 2699.11 113.324 2702.2 112.383 2697.42C112.08 2691.43 125.732 2688.48 129.915 2686C119.365 2670.87 112.157 2651.26 110.333 2632.61ZM906.342 2584.7C877.072 2568.82 841.101 2574.71 809.354 2577.52L808.021 2577.67C799.941 2578.55 788.68 2579.08 784.971 2587.42C779.601 2600.78 788.502 2630.67 791.298 2645.53L792.25 2649.43C794.569 2658.94 796.769 2668.37 797.563 2678.21C797.583 2678.52 797.286 2678.74 797.009 2678.74C785.888 2666.83 780.89 2650.82 775.695 2635.55C773.479 2636.81 771.316 2638.18 769.277 2639.69C761.306 2667.14 758.637 2696.36 764.948 2724.36L765.175 2725.34C772.971 2759.94 797.244 2788.24 799.551 2824.4C801.093 2839.01 800.748 2853.99 804.944 2868.19C807.331 2868.72 809.412 2870.48 810.347 2872.7L824.031 2872.71C890.169 2872.83 956.326 2873.43 1022.42 2876.16C1020.29 2857.53 1003.89 2841.01 992.331 2828.24C956.877 2791.85 941.542 2739.59 947.383 2689.22C950.456 2664.02 964.49 2624.42 930.16 2615.11C927.652 2635.65 924.263 2656.12 922.388 2676.74C928.867 2679.87 928.467 2688.13 920.552 2687.97C917 2699.95 905.087 2695.11 906.374 2683.81C862.803 2667.68 837.805 2662.27 795.357 2686.57C794.169 2686.39 798.62 2681.62 799.182 2680.77C812.597 2666.28 833.198 2659.46 852.526 2659.22C871.686 2659.22 889.705 2666.45 907.779 2672.05C910.495 2652.59 912.324 2633.01 914.478 2613.49L914.945 2609.31C916.073 2599.06 915.662 2590.59 906.342 2584.7ZM206.133 2835.96C212.51 2834.53 218.376 2832.37 224.854 2833.84C247.656 2851 154.488 2855.84 146.555 2854.62C126.361 2854.03 106.158 2851.46 86.7227 2845.74L85.368 2845.34C83.4538 2844.8 64.0816 2839.4 67.7551 2836.98C94.0417 2839.32 119.777 2844.16 146.555 2842.9C159.914 2842.62 173.325 2841.67 186.54 2839.66C193.112 2838.65 199.653 2837.42 206.133 2835.96ZM822.107 2814.69C817.934 2808.43 838.284 2816.75 840.931 2816.82C857.784 2820.99 874.934 2824.15 892.245 2825.46C903.851 2826.34 915.58 2826.53 927.206 2825.95C935.817 2825.66 944.333 2824.38 952.888 2823.5L953.196 2823.49C958.28 2823.31 968.466 2826.47 962.188 2832.53C952.426 2840.12 937.982 2837.81 926.283 2838.92C890.753 2838.8 853.131 2833.07 822.107 2814.69ZM154.143 2769.13C164.386 2767.27 220.766 2766.66 215.145 2784C213.781 2787.29 210.665 2788.38 207.384 2787.87C172.491 2779.36 134.852 2774.91 100.07 2786.64C99.5064 2786.84 99.1168 2785.91 99.6704 2785.66C116.772 2777.08 135.07 2771.07 154.143 2769.13ZM885.95 2752.17C895.155 2751.47 904.415 2751.72 913.624 2752.41L917.395 2752.71C921.279 2753.02 925.249 2753.43 928.96 2754.56L929.698 2754.79C934.755 2756.43 946.152 2765.13 937.501 2769.32C928.212 2772.34 920.357 2768.75 911.396 2766.45C886.419 2760.52 860.162 2762.52 835.416 2768.59L838.901 2769.71C839.116 2769.55 839.394 2769.92 839.188 2770.09C836.687 2772.28 833.251 2771.5 831.479 2768.78C831.17 2768.32 831.366 2767.57 831.857 2767.31C848.63 2758.49 867.126 2753.61 885.95 2752.17ZM107.996 2749.96C136.205 2737.45 168.888 2736.07 199.14 2739.69L201.295 2739.96C210.733 2741.07 223.043 2741.58 228.443 2750.39C230.309 2753.44 228.381 2756.94 225.367 2758.04C216.489 2761.29 206.051 2754.78 197.522 2752.36C172.299 2745.44 145.362 2744.71 119.714 2749.49C119.894 2750.45 115.646 2750.03 114.721 2750.37C113.562 2750.3 105.868 2752.85 107.996 2749.96ZM819.36 2730.42C843.969 2718.43 872.423 2715.57 898.991 2721.76L900.096 2722.08C911.868 2725.39 930.822 2729.3 935.039 2741.79C935.952 2744.6 933.973 2748.4 931.01 2748.97C920.972 2750.9 911.858 2743.55 902.775 2740.02C876.049 2729.95 845.796 2727.55 818.16 2734.95C817.976 2736.04 817.791 2737.12 817.595 2738.21C818.068 2737.9 818.56 2738.6 818.181 2738.98C813.771 2742.08 809.182 2734.26 819.36 2730.42ZM171.408 2709.34C191.32 2708.01 211.399 2710.55 230.622 2715.81L234.237 2716.81C239.491 2718.29 246.297 2720.61 247.061 2726.3C247.359 2728.56 246.795 2730.12 244.959 2731.53C238.268 2736.54 223.713 2726.03 215.392 2724.79C185.185 2715.7 152.76 2715.83 122.161 2722.79L121.119 2723.03L121.857 2728.29C122.582 2730.81 115.857 2724.88 118.412 2722.17C134.565 2713.93 153.413 2710.82 171.408 2709.34ZM838.132 2699.93C854.114 2697.04 870.599 2696.49 886.757 2697.94L888.666 2698.12C898.315 2698.97 929.578 2700.22 922.183 2716.57C920.943 2719.3 917.344 2719.65 915.016 2718.47C907.203 2714.5 898.663 2713.07 890.041 2711.76C859.597 2707.51 828.493 2709.25 798.772 2717.47C799.418 2718.49 798.085 2719.69 796.824 2719.93C793.687 2720.51 793.687 2716.76 795.03 2714.77C796.63 2712.41 799.818 2711.55 802.279 2710.51C813.725 2705.51 825.862 2702.13 838.132 2699.93ZM232.851 2608.96L231.031 2608.53C200.534 2601.34 132.919 2588.44 125.917 2630.55C123.432 2649.09 131.63 2667.18 131.024 2685.55C162.648 2672.66 197.618 2672.79 230.473 2681.31C233.384 2662.25 236.163 2643.17 239.136 2624.12L239.617 2621.84C240.94 2615.42 241.389 2610.39 232.851 2608.96ZM164.928 2616.63C171.573 2610.92 182.656 2611 189.175 2617.23C195.137 2618.49 199.341 2624.83 199.438 2630.27C208.502 2646.24 197.572 2668.3 180.267 2672.29C141.19 2680.54 123.722 2626.74 164.928 2616.63ZM841.945 2591.15C874.641 2585.3 886.518 2626.87 859.683 2643.73C821.776 2662.79 796.518 2602.87 841.945 2591.15ZM181.106 2498.81C181.588 2501.99 180.028 2504.25 178.164 2506.39C171.461 2533.93 161.372 2559.56 151.425 2585.97C183.785 2580.59 214.36 2585.28 242.992 2594.09C243.334 2586.03 246.998 2577.68 249.542 2570.09C254.497 2555.66 260.487 2541.61 267.396 2528.04L268.264 2526.34C270.746 2521.51 273.134 2516.47 276.066 2511.84C244.394 2507.51 212.723 2503.6 181.106 2498.81ZM818.96 2492.94L818.116 2496.77C814.481 2513.4 811.031 2530.18 805.621 2546.33L805.547 2546.66C804.719 2550.74 802.856 2569.61 801.684 2556.29C800.782 2558.3 799.818 2560.28 798.793 2562.23L806.635 2561.3C835.884 2557.85 866.399 2555.11 895.085 2562.47C892.109 2539.36 896.49 2517.27 902.887 2495.41C874.849 2494.77 847.059 2494.97 818.96 2492.94ZM287.989 2521.67C286.964 2522.64 285.96 2523.62 285.006 2524.65C286.299 2524.32 287.591 2524 288.789 2523.72C288.74 2522.96 288.205 2522.39 287.989 2521.67ZM919.835 2500.47L918.922 2502.62C919.395 2502.34 919.918 2502.07 920.48 2501.83C920.224 2501.41 920.009 2500.97 919.835 2500.47ZM163.781 2495.75C163.449 2496.99 163.196 2498.34 162.6 2499.46C163.072 2499.55 163.554 2499.64 164.037 2499.74C164.62 2498.56 165.236 2497.41 165.902 2496.27C165.194 2496.11 164.487 2495.94 163.781 2495.75ZM407.657 1132.56C404.787 1133.95 401.793 1134.3 397.836 1134.47C365.681 1135.81 333.63 1139.54 302.056 1145.91C303.799 1171.51 311.57 1196.32 318.965 1220.73L320.499 1226.08C345.487 1313.54 367.298 1404.94 362.905 1496.42C363.151 1496.51 363.387 1496.63 363.613 1496.75C363.213 1497.87 362.928 1499.02 362.526 1500.13L362.269 1500.79L360.769 1504.52C359.94 1506.6 359.134 1508.68 358.435 1510.81C357.208 1511.26 355.699 1511.58 354.262 1511.79C346.967 1560.22 353.903 1614.53 386.774 1652.4C375.056 1628.76 370.968 1601.9 371.484 1575.63L371.577 1571.61C371.711 1566.65 372.007 1561.7 373.516 1556.99C373.578 1556.74 373.906 1556.79 373.989 1556.99C380.948 1578.54 381.402 1601.94 388.239 1623.65L388.762 1625.31C394.17 1642.32 403.2 1664.22 418.884 1673.01C421.772 1673.87 426.213 1672.85 427.714 1676.19L427.814 1676.43L427.906 1676.4C420.905 1653.41 416.397 1629.63 414.853 1605.63L414.752 1604C414.26 1595.62 413.174 1586.65 415.255 1578.47C419.223 1585.95 418.237 1598.16 420.083 1607.21L420.157 1607.72C421.615 1617.5 435.655 1692.22 444.875 1682.23C446.78 1679.48 446.285 1674.16 446.343 1670.88L446.35 1670.56C446.495 1665.82 446.443 1661.08 446.28 1656.35C445.284 1628.45 440.958 1599.81 449.437 1572.63C450.852 1568.05 458.542 1567.18 459.475 1572.63C463.207 1594.4 466.774 1616.19 470.342 1637.98C472.943 1651.29 472.834 1666.31 480.738 1677.79C480.83 1652.72 479.444 1627.73 478.245 1602.7L477.924 1601.66C476.977 1598.5 476.043 1594.39 478.215 1591.71C479.087 1586 487.413 1586.65 488.119 1592.63C488.274 1593.88 488.386 1595.15 488.509 1596.4C491.268 1599.87 493.831 1603.41 497.09 1606.4C518.86 1561.83 447.634 1484.87 437.801 1434.55C408.84 1336.55 425.491 1233.8 433.914 1134C425.204 1132.97 416.421 1132.69 407.657 1132.56ZM822.128 568.542C837.353 599.184 848.528 631.613 856.269 664.987C858.654 675.291 844.871 681.615 839.303 672.588L839.137 672.309C832.289 660.854 822.085 650.765 809.168 646.82C800.368 683.816 804.656 722.913 809.229 760.27C817.336 812.315 823.788 864.583 824.754 917.324L824.8 920.15C827.626 1100.26 854.023 1279.56 882.936 1455.91C929.156 1463.35 971.471 1484.35 1014.08 1502.81C1021.48 1505.71 1029.04 1508.24 1036.8 1509.98C1015.39 1310.05 933.98 1122.56 908.824 923.36C902.176 871.553 901.863 818.944 911.048 767.437C911.203 766.45 912.596 766.783 912.658 767.655C913.667 788.813 917.274 809.694 919.414 830.737C920.87 818.719 924.233 806.545 926.95 795.026C930.272 783.756 931.499 765.664 941.233 758.317L941.847 756.188C942.103 755.273 943.456 755.658 943.242 756.572C943.14 757.008 943.036 757.434 942.944 757.87C949.196 759.537 943.356 766.973 941.806 770.532C931.772 797.532 928.786 826.758 921.936 854.586C931.847 941.461 949.698 1027.23 971.683 1111.67C991.881 1106.33 1012.15 1101.18 1032.4 1095.96C987.229 948.281 1013.64 783.476 945.967 642.469C920.613 595.148 858.173 601.576 822.128 568.542ZM478.955 541.545C469.481 541.036 459.587 546.199 450.493 547.975C438.436 550.322 426.44 552.182 414.65 555.787C354.298 572.4 296.072 617.768 285.139 683.134C277.624 728.017 296.232 771.748 295.578 816.506C293.615 860.85 279.053 903.469 273.379 947.365C266.554 992.253 264.204 1039.24 270.059 1084.34C324.197 1068.92 380.737 1067.95 436.253 1075.92C431.623 1007.55 437.698 938.849 441.06 870.531C443.48 826.655 447.622 782.582 446.157 738.623C446.125 737.646 447.704 737.407 447.856 738.384C464.505 828.166 454.74 919.308 453.057 1009.86C451.989 1032.73 454.81 1055.83 453.672 1078.58C478.911 1084.03 477.998 1113.59 470.28 1133.07C468.912 1137.76 464.269 1136.94 460.51 1136.37C456.437 1140.67 446.721 1135.06 441.183 1135.06C436.848 1247.45 410.515 1367.5 464.477 1472.55C487.038 1472.67 508.755 1464.86 530.681 1460.42L531.877 1460.18L531.908 1460.17C535.132 1455.96 536.707 1449.19 537.138 1444.23C540.203 1357.68 530.612 1270.92 536.222 1184.36C543.095 1088.28 564.439 992.785 554.567 896.052C547.74 809.598 529.003 724.71 519.971 638.514L519.513 634.054C518.951 628.74 518.738 622.868 516.12 618.816C500.883 632.758 488.098 649.336 478.943 667.988C473.876 676.998 460.299 672.989 460.09 662.816C458.138 644.654 457.849 626.422 459.827 608.255L460.007 606.652C462.458 583.912 469.301 562.206 478.955 541.545ZM1045.4 1165.31C1025.77 1166.35 1006.13 1168.54 986.467 1168.28L988.446 1175.74C1012.24 1265.22 1037.58 1354.54 1052.52 1446.1L1053.07 1437.51C1053.61 1428.93 1054.12 1420.34 1054.46 1411.73C1058.7 1329.45 1052.23 1247.27 1045.4 1165.31ZM534.543 594.229C534.625 597.948 534.81 601.656 535.098 605.354C544.167 619.017 543.361 637.179 545.391 652.897C556.774 737.78 573.536 822.315 579.183 908.081C584.437 976.691 575.857 1045.06 567.087 1112.98C556.271 1190.77 557.405 1269.36 559.918 1347.67C601.476 1309.89 660.543 1303.26 712.979 1291.53L715.473 1291.02C755.791 1282.72 796.025 1270.7 830.279 1247.09C805.645 1070.11 811.442 890.857 786.254 714.036C785.478 700.112 785.319 686.109 786.469 672.196C785.363 657.134 785.033 641.989 785.004 626.887C773.966 671.501 736.982 714.604 688.525 713.196C636.967 710.156 593.205 667.747 559.59 631.395C550.477 620.551 541.413 607.889 534.543 594.229ZM987.983 1165.39L985.656 1165.28L985.8 1165.79C986.278 1165.69 986.766 1165.6 987.253 1165.52L987.983 1165.39ZM1051.94 1104.96C1051.57 1104.85 1050.94 1104.85 1050.25 1104.88C1049.24 1107.2 1047.21 1109.13 1044.86 1109.76L1025.18 1115.1C1008.79 1119.55 992.383 1123.97 975.958 1128.28C978.715 1138.96 981.515 1149.64 984.344 1160.3C1006.75 1153.04 1031.55 1154.69 1054.39 1150.01C1054.11 1137.68 1053.44 1125.3 1053.23 1112.95C1053.18 1110.93 1053.59 1107.69 1052.56 1105.89C1051.92 1104.73 1052.56 1105.16 1051.94 1104.96ZM299.422 1146.45L298.806 1146.58C299.011 1147.14 299.196 1147.7 299.371 1148.28C299.381 1147.66 299.39 1147.06 299.422 1146.45ZM445.265 1087.14C403.059 1080.95 360.136 1077.3 317.568 1081.51C298.314 1084.13 278.768 1086.93 259.898 1090.51C253.336 1100.66 260.596 1125.35 268.766 1133.16C271.216 1134.1 275.43 1132.28 277.778 1131.75C295.395 1127.74 313.183 1124.52 331.061 1122C331.594 1122.67 332.373 1123.11 333.336 1123.01L337.444 1122.63C362.101 1120.37 386.977 1118.71 411.688 1120.13L411.871 1120.27C428.543 1121.5 445.157 1124.14 461.76 1126.06C468.315 1108.79 467.185 1088.99 445.265 1087.14ZM752.36 524.115C753.99 529.679 755.95 535.085 758.387 540.34C760.932 539.631 764.441 540.2 766.313 541.815L767.108 541.67C769.297 541.252 771.925 540.611 772.609 540.537C802.765 536.333 800.467 576.98 800.577 597.408C800.761 607.65 800.966 617.902 801.274 628.144C809.904 625.182 821.444 630.506 828.987 635.217C823.081 615.409 816.14 595.922 808.399 576.779L806.934 573.049C800.835 557.604 794.084 541.965 781.128 531.21C771.277 528.614 761.734 528.142 752.36 524.115ZM533.714 513.917C505.684 503.844 494.581 526.735 486.807 549.564C477.641 574.847 475.14 602.685 476.667 629.889L477.611 628.631C487.923 614.779 502.793 591.915 521.595 595.59C521.41 585.08 521.787 573.535 523.788 562.621C522.62 555.578 522.322 548.463 523.133 541.348C523.562 532.426 533.207 533.78 539.557 532.519C545.052 528.831 551.706 527.346 558.391 529.942C563.435 529.267 568.479 528.623 573.523 527.979C574.297 526.265 574.923 524.543 575.574 522.786C561.614 519.878 547.657 516.882 533.714 513.917Z" fill="black"/>
<path fill-rule="evenodd" clip-rule="evenodd" d="M870.617 424.844C866.653 418.982 857.108 376.442 851.011 369.899C851.471 344.769 858.418 257.762 838.575 218.65C842.749 214.429 853.841 178.074 851.011 164.331C860.359 135.549 800.306 89.8356 777.451 77.4828C671.23 20.5241 517.308 83.3968 469.001 188.912C439.972 252.457 439.437 323.603 436.155 391.978C435.767 406.614 434.422 421.364 434.437 435.982C436.536 448.827 446.721 461.908 439 472.589C430.471 478.488 413.233 492.86 420.908 501.01C425.406 504.755 432.591 502.582 437.472 506.183C439.957 507.573 441.507 510.62 444.413 511.083C470.959 510.075 489.691 509.989 516.319 508.913C527.976 508.531 545.727 513.462 559.107 503.646C605.845 529.642 586.295 491.927 595.746 465.075C624.526 474.806 681.856 505.837 712.533 506.839C737.462 509.92 760.773 495.402 785.281 498.707C815.728 510.018 851.41 512.533 879.299 493.395C886.259 488.383 894.002 494.189 902.774 488.776C919.823 480.623 879.221 433.889 870.617 424.844Z" fill="white"/>
<path fill-rule="evenodd" clip-rule="evenodd" d="M835.823 215.312C835.445 213.141 838.436 211.522 839.593 213.722C847.998 229.703 851.365 248.211 854.342 265.863C857.349 283.701 859.336 301.613 859.446 319.721C859.53 333.65 858.265 347.74 855.89 361.679L856.179 362.671C856.712 364.493 857.25 366.314 857.794 368.133L858.615 370.861C860.201 376.099 861.703 381.361 863.332 386.586C866.733 397.491 870.314 408.427 874.7 418.98C878.98 429.278 884.185 439.209 890.372 448.491C896.335 457.439 905.798 465.005 909.999 474.943C911.463 478.406 909.298 482.984 905.254 482.431C904.991 482.748 904.59 482.978 904.046 483.026C900.906 483.3 897.963 483.039 894.83 482.745C893.081 482.581 893.084 480.19 894.83 480.026C896.161 479.901 897.457 479.791 898.752 479.716C889.792 474.407 883.4 464.04 878.289 455.553C871.721 444.649 866.76 432.735 862.716 420.687C858.563 408.317 855.622 395.689 853.259 382.867C852.988 381.391 852.73 379.914 852.482 378.435C849.496 391.128 845.651 403.589 841.094 415.565L840.455 417.232C829.95 444.466 815.722 471.961 792.057 489.961C790.983 490.777 789.886 491.552 788.78 492.31L790.126 493.082C791.466 493.847 792.786 494.581 794.077 495.183C798.859 497.414 804.05 499.115 809.185 500.32C819.791 502.811 830.929 502.097 841.749 502.444C845.298 502.558 847.317 507.879 843.689 509.607C831.738 515.298 818.83 514.09 806.494 510.086C800.39 508.103 794.662 505.328 789.363 501.705C787.172 500.208 784.628 498.36 782.48 496.224C758.813 509.466 729.397 510.948 703.055 506.212C689.366 503.75 676.101 499.255 664.43 491.566C653.204 484.172 645.202 474.81 639.489 462.681C638.982 461.606 640.391 460.267 641.256 461.318C659.201 483.113 690.083 492.207 717.251 493.937C731.747 494.861 746.576 494.093 760.513 489.756C773.734 485.64 785.078 478.096 794.55 468.063C813.749 447.726 825.253 420.06 833.515 393.731C842.503 365.088 846.783 334.952 847.666 304.976C848.113 289.789 847.55 274.474 845.165 259.455C842.799 244.56 838.408 230.144 835.823 215.312ZM566.772 86.2817C568.043 85.6357 568.938 87.3167 567.86 88.1437C545.483 105.305 525.443 127.065 509.223 150.096C479.31 192.573 460.126 241.727 451.292 292.803C446.076 322.966 444.714 353.586 445.235 384.151C445.441 396.292 446.135 408.397 446.906 420.505L447.777 433.927C448.181 440.18 448.519 446.38 448.258 452.664L448.187 454.116C447.773 461.428 448.492 468.799 446.658 475.932C445.717 479.59 440.558 480.166 438.69 476.973C438.324 476.348 437.982 475.703 437.65 475.052C433.272 482.192 427.602 488.575 421.311 494.277C424.318 493.637 427.354 493.229 430.471 493.602C435.412 494.194 439.844 496.102 442.98 499.446C446.093 498.043 449.294 497.077 452.975 497.057C455.686 497.043 457.719 500.248 456.172 502.629C453.086 507.381 448.78 510.045 443.887 512.678C440.419 514.544 436.281 512.948 435 509.258L434.927 509.034C433.486 504.366 425.822 505.12 422.206 505.842L421.142 506.059C414.411 507.46 407.838 509.252 400.981 507.404C396.558 506.211 395.402 499.553 399.666 497.343C413.136 490.363 424.444 480.987 436.065 471.573C433.499 465.282 432.042 458.253 430.362 451.856C427.997 442.852 427.306 433.164 426.452 423.915C424.829 406.33 424.21 388.554 424.384 370.9C424.973 311.272 435.171 251.459 461.22 197.464C472.632 173.811 487.624 151.924 505.345 132.551C522.961 113.292 543.536 98.0837 566.772 86.2817ZM545.917 378.296C545.226 377.338 546.575 376.071 547.521 376.692C568.002 390.145 582.215 410.573 591.386 433.014C600.464 455.231 606.038 482.444 597.085 505.612C595.66 509.302 588.835 510.672 588.136 505.612C585.015 483.016 584.53 460.388 577.667 438.42C570.863 416.643 559.221 396.701 545.917 378.296ZM530.036 451.652C530.148 451.253 530.8 451.322 530.772 451.752C530.259 459.72 529.911 467.785 528.909 475.709C528.422 479.56 527.778 483.386 527.23 487.228C526.668 491.168 526.753 495.146 524.462 498.511C521.426 502.972 513.36 501.717 513.631 495.578C513.818 491.343 515.764 488.625 517.587 484.908C518.757 482.525 519.776 480.062 520.758 477.587L522.218 473.875C525.12 466.514 527.897 459.277 530.036 451.652ZM493.361 430.545C493.485 429.918 494.496 430.069 494.466 430.694C493.919 441.972 492.647 453.123 490.655 464.236C489.747 469.301 488.688 474.338 487.568 479.361L487.084 481.513C485.886 486.803 485.113 493.022 482.429 497.748C479.747 502.471 473.379 499.041 474.204 494.28C475.168 488.722 478.579 483.131 480.562 477.793C482.392 472.865 483.992 467.85 485.487 462.811C488.634 452.204 491.215 441.398 493.361 430.545ZM561.658 461.855L561.896 461.61C562.828 460.597 564.218 461.272 564.663 462.341C566.485 466.722 565.573 471.888 565.443 476.539L565.419 477.554C565.322 482.265 565.39 486.678 563.253 491.027C560.659 496.308 553.824 493.028 553.295 488.33C552.717 483.203 555.142 478.184 556.708 473.382C557.703 470.33 558.428 467.156 559.941 464.386C558.647 464.609 557.355 465.056 556.172 465.379C555.642 465.522 555.442 464.744 555.948 464.564C557.904 463.872 560.112 463.352 561.658 461.855ZM834.317 477.402C833.692 476.703 834.471 475.772 835.282 476.15C845.022 480.699 854.132 483.658 864.879 484.627C869.536 485.047 869.565 492.363 864.879 491.939C853.663 490.929 841.908 485.9 834.317 477.402ZM491.641 323.709C500.216 304.42 527.344 287.309 545.535 305.247C545.876 305.582 545.529 306.313 545.034 306.108C533.719 301.419 519.867 307.383 512.036 315.913C505.823 322.679 502.09 331.367 501.349 340.524C500.608 349.689 502.799 359.255 508.886 366.344C512.079 370.063 516.391 373.583 521.465 374.03C526.588 374.481 530.858 370.873 535.701 369.893C539.352 369.155 542.108 371.446 542.466 375.045C543.255 382.988 535.347 388.319 528.492 389.614C521.118 391.006 513.592 389.485 507.238 385.489C486.716 372.583 482.289 344.748 491.641 323.709ZM684.187 134.646C687.916 131.082 694.259 134.625 692.883 139.709C689.957 150.529 683.738 159.674 676.848 168.354C670.219 176.705 663.117 184.73 655.505 192.199C647.943 199.619 639.727 206.485 631.092 212.618L628.491 214.46C622.371 218.774 615.889 223.137 609.039 226.244C607.385 240.494 604.149 254.554 599.253 268.015C594.538 280.977 588.538 293.504 581.268 305.227L580.224 306.906C573.543 317.613 565.51 329.578 554.174 335.447C553.834 335.624 553.493 335.732 553.157 335.795C555.693 337.486 557.836 339.613 559.11 342.669C560.506 346.015 557.588 349.172 554.791 350.277C548.876 352.614 543.106 348.658 537.789 344.438C537.564 344.944 537.352 345.455 537.17 345.97C535.981 349.34 535.631 352.784 532.565 355.02C531.108 356.083 529.313 355.132 528.396 353.928C525.39 349.978 528.502 344.597 531.145 341.369C531.511 340.923 531.889 340.499 532.278 340.092C531.161 339.271 530.071 338.543 529.015 337.984C522.806 334.696 513.602 334.113 510.027 341.392C509.753 341.951 508.892 341.662 508.892 341.084C508.901 332.143 518.06 327.287 526.008 326.627C531.815 326.145 537.431 328.182 542.658 330.553L543.634 331.001C545.579 331.904 547.583 332.756 549.501 333.709C549.189 332.886 549.194 331.918 549.685 330.958C555.696 319.219 566.018 309.673 573.462 298.801C580.844 288.015 587.182 276.472 592.241 264.419C597.151 252.72 600.998 240.654 603.688 228.347C602.802 228.53 601.803 227.741 601.866 226.816C602.016 224.578 603.111 222.562 605.034 221.703C607.152 210.127 608.233 198.355 608.17 186.488C608.165 185.568 609.498 185.601 609.576 186.488C610.512 197.039 610.588 207.693 609.801 218.285C614.803 213.683 620.078 209.308 624.894 204.584C632.141 197.476 639.152 190.178 645.915 182.609C652.815 174.887 659.337 166.881 665.301 158.41L668.422 153.968C673.22 147.158 678.15 140.419 684.187 134.646ZM674.777 58.6203C715.933 56.0513 759.887 61.1093 796.855 80.4283C817.158 91.0373 832.851 107.072 844.064 127.027C850.759 138.943 855.838 152.138 857.762 165.704C859.738 179.643 857.418 192.072 848.518 203.152C844.983 207.552 839.029 202.637 839.9 198.135C845.228 170.591 836.586 143.377 821.259 120.574C799.018 87.4843 760.177 72.7853 722.36 66.2283C703.78 63.0083 684.935 61.6623 666.085 62.3173C651.714 62.8173 636.972 64.1563 623.334 68.9913C622.759 69.1953 622.53 68.2993 623.084 68.0883C639.352 61.8753 657.512 59.6983 674.777 58.6203ZM735.815 120.903C737.934 119.56 740.526 120.938 741.254 123.117C743.822 130.799 738.44 140.948 734.84 147.596C730.766 155.119 725.527 162.153 720.117 168.76C709.294 181.974 695.069 193 679.459 199.93C678.503 200.355 677.389 199.201 678.266 198.385C690.344 187.138 701.295 175.08 710.775 161.553C715.433 154.906 719.318 147.894 723.028 140.691C726.348 134.245 729.47 124.925 735.815 120.903ZM805.033 129.953C806.387 125.225 814.099 126.03 813.78 131.137C812.955 144.33 806.731 157.573 799.968 168.754C793.004 180.267 784.185 190.527 774.076 199.388C773.578 199.825 772.896 199.152 773.347 198.659C782.069 189.111 789.114 178.235 794.331 166.399C799.542 154.58 801.509 142.248 805.033 129.953ZM766.703 127.817C768.178 123.706 775.238 124.011 774.805 128.914C773.615 142.392 765.705 156.517 758.379 167.649C750.605 179.46 740.682 189.865 729.592 198.604C729.177 198.931 728.59 198.389 728.995 198.007C738.956 188.622 747.034 177.781 753.429 165.689C756.693 159.519 759.431 153.094 761.593 146.457C763.593 140.317 764.532 133.869 766.703 127.817Z" fill="black"/>
<path fill-rule="evenodd" clip-rule="evenodd" d="M725.928 395.572C730.98 386.873 741.748 408.184 742.892 411.848C743.906 415.094 744.575 418.42 744.915 421.783C748.831 422.702 752.899 422.704 756.912 421.899C762.877 420.701 766.523 417.344 771.707 414.462C775.288 412.47 779.8 414.805 781.662 418.109C783.853 421.997 782.457 426.032 779.577 428.93C774.114 434.427 763.365 435.689 756.234 434.23C752.148 433.394 748.404 431.79 745.097 429.459C745.075 429.894 745.061 430.329 745.028 430.763L744.965 431.517C744.417 437.613 742.816 445.278 738.293 449.244C730.875 455.751 721.719 443.238 728.928 436.738L729.151 436.543C733.632 432.754 734.609 422.586 734.368 416.986C734.21 413.33 733.574 409.628 732.471 406.147L732.244 405.454C731.912 404.47 728.294 395.142 726.986 396.33L726.924 396.397C726.385 397.071 725.514 396.286 725.928 395.572ZM766.264 346.482C773.084 350.822 783.475 360.94 776.139 371.698C767.503 381.184 755.07 370.308 748.943 365.389C743.261 361.577 736.878 371.382 742.149 375.833C786.423 410.146 804.391 347.617 769.714 341.38C765.896 340.693 764.478 345.14 766.264 346.482ZM693.442 306.373C700.107 305.136 706.934 306.87 712.449 310.953L712.867 311.267C718.181 315.335 724.126 322.478 721.077 329.49C719.853 332.305 716.188 332.747 713.863 331.47C709.991 329.345 709.29 324.116 705.835 321.222C703.002 318.85 699.187 317.411 695.539 317.758C686.967 318.573 681.695 327.423 679.032 335.05C678.692 336.025 677.324 336.404 676.789 335.357C670.512 323.074 681.623 308.568 693.442 306.373ZM800.199 301.738C812.967 300.637 827.911 314.492 824.549 328.599C822.937 335.368 813.345 335.175 811.64 328.599C810.702 324.981 810.796 321.78 808.308 318.776C806.254 316.295 803.336 314.854 800.199 315.076C796.742 315.32 793.553 317.128 791.13 319.67C788.942 321.966 787.634 325.325 785.367 327.356C784.809 327.855 784.062 327.888 783.511 327.356C779.609 323.591 781.951 315.752 784.425 311.821C787.965 306.196 793.73 302.297 800.199 301.738ZM669.129 281.352C677.319 273.762 692.201 266.433 703.246 270.168C709.595 272.315 712.363 283.025 705.275 286.42C697.067 290.351 687.603 288.752 679.248 292.826C675.74 294.538 672.44 296.678 669.997 299.815C668.072 302.289 666.114 305.543 663.331 306.968C662.599 307.344 661.608 307.353 661.022 306.657C654.921 299.433 663.801 286.288 669.129 281.352ZM786.122 269.792C791.184 268.305 796.799 268.335 801.942 269.269C807.082 270.203 812.301 272.434 816.498 275.687L816.985 276.068C821.567 279.682 827.034 284.94 826.741 291.342C826.496 296.688 821.124 300.305 816.485 297.502C812.704 295.217 810.925 290.64 807.723 287.592C805.082 285.076 801.979 283.093 798.668 281.703C794.99 280.159 791.307 279.436 787.36 279.367C784.321 279.314 781.264 280.358 778.282 280.692C778.527 281.219 776.17 280.973 774.819 280.505C773.819 280.059 773.813 278.735 774.16 277.875C775.88 273.618 782.14 270.961 786.122 269.792Z" fill="black"/>
</svg>
