<svg width="926" height="2570" viewBox="0 0 926 2570" fill="none" xmlns="http://www.w3.org/2000/svg">
<path fill-rule="evenodd" clip-rule="evenodd" d="M905.625 1290.95C928.32 1291.47 918.589 1076.78 903.434 1037.22C901.311 1029.21 899.559 1018.25 899.912 1008.41C918.656 1010.31 916.638 997.306 915.67 981.621C915.988 969.168 916.842 943.472 898.042 953.477C841.679 839.075 902.621 543.347 754.218 515.494C736.336 511.091 717.853 506.534 702.797 493.964C686.866 464.108 678.752 460.295 652.354 458.364C647.466 431.471 638.329 402.741 611.1 392.276C586.17 382.372 557.157 381.582 531.162 386.867C509.647 393.982 507.678 434.527 502.899 454.517C473.921 446.727 438.209 430.342 422.608 467.486C415.052 465.196 408.05 466.682 400.372 469.23C336.018 479.743 273.58 509.259 249.711 570.844C234.967 607.8 245.431 648.03 250.96 686.305C256.117 727.983 242.518 766.595 236.215 806.683C226.829 861.887 225.132 906.166 231.256 947.196C215.067 950.929 213.873 965.859 220.423 981.481C222.346 986.767 224.284 992.34 228.537 995.328C237.189 1000.85 248.371 994.487 257.773 993.513C259.729 1015.56 263.516 1037.19 269.782 1061.77C267.967 1069.13 265.886 1077.35 264.017 1084.74L263.387 1084.04C241.92 1175.2 178.077 1263.75 197.92 1360.63C199.086 1363.86 201.3 1363.18 203 1363.13C212.85 1366.93 221.898 1364.52 231.831 1364.9C255.392 1364.92 278.154 1367.98 299.27 1370.64C303.13 1396.21 315.68 1438.06 338.06 1447.81C338.436 1447.94 345.07 1446.53 345.624 1446.49C286.047 1691.41 178.85 1917.88 136.27 2167.73C136.017 2170.78 140.911 2169.16 142.516 2169.53C142.296 2176.47 146.715 2178.13 152.902 2180.6C144.929 2197.5 137.747 2214.38 129.81 2231.32C126.13 2239.7 120.132 2247.99 119.039 2256.95C110.252 2262.64 104.334 2273.77 104.491 2284.16C80.7962 2294.31 87.2363 2344.46 81.8305 2369.3C76.3643 2406.31 50.3644 2432.15 32.5372 2462.49C28.9041 2468.58 25.0355 2476.56 24.8638 2484.21C13.8122 2489.46 9.69128 2500.93 10.4226 2520.25C10.3832 2542.84 16.6701 2551.45 33.6224 2551.99C79.668 2556.66 133.399 2554.76 179.712 2549.45C214.358 2544.99 245.058 2548.69 237.312 2506.49C235.718 2496.27 238.78 2482.51 232.816 2474.25C229.138 2449.63 231.277 2424.82 239.208 2400.5C244.029 2380.03 252.173 2337.73 248.798 2310.25C247.237 2297.54 221.647 2290.55 217.142 2289.93C218.575 2280.36 217.945 2263.64 212.867 2257C222.191 2255.68 224.534 2253.18 226.476 2242.68C231.116 2225.68 231.734 2207.22 243.225 2192.89C263.893 2193.16 284.491 2187.84 305.147 2187.2L306.176 2184.79C318.393 2184.63 330.542 2182.45 342.138 2178.16C344.71 2179.39 348 2180.45 349.445 2176.5L356.343 2154.63C436.645 1895.55 525.655 1635.85 612.444 1378.67C617.509 1366.16 623.602 1352.87 631.525 1341.73C634.209 1499.09 666.723 1656.28 669.515 1813.56C673.289 1921.76 672.317 2028.83 682.356 2137.41C684.94 2160.39 687.687 2159.63 691.07 2158.22C692.426 2158.43 695.617 2159.12 697.002 2159.42C694.738 2182.25 692.134 2219.32 682.475 2242.68C661.123 2246.02 664.947 2262.63 669.683 2276.4C664.589 2280.81 665.313 2291.09 666.825 2296.78C646.735 2296.8 642.355 2313.37 643.737 2323.82C645.648 2341.31 644.579 2368.52 656.086 2383.45C662.862 2402.49 673.893 2420.46 678.201 2440.97C680.909 2456.06 679.864 2478.05 682.475 2493.02C675.905 2496.1 678.689 2500.92 677.581 2510.25C671.894 2552.97 691.912 2545.71 727.307 2548.65C748.522 2553.4 910.033 2562.85 903.054 2534.43C904.244 2522.86 898.934 2517.77 896.661 2506.38C895.639 2503.35 875.517 2468.35 863.516 2455.1C823.262 2416.76 825.02 2365.28 826.295 2305.98C823.928 2289.91 811.733 2274.52 796.172 2276.25C800.64 2259.08 792.359 2244.16 775.054 2239.19C776.783 2219.76 778.603 2193.35 784.931 2176.54L778.971 2170.39L786.949 2171.36L789.597 2164.6L792.486 2172C806.183 2172 821.636 2168.92 834.757 2167.48C836.853 2167.6 835.917 2164.71 836.261 2163.6C848.651 2160.99 850.008 2154.32 847.818 2138.42C850.704 1880.19 849.452 1624.39 845.507 1365.68C864.87 1366.56 883.752 1359.4 902.781 1354.62C909.542 1358.92 911.457 1343.61 910.666 1340.3C909.594 1323.18 907.505 1306.49 905.625 1290.95Z" fill="white"/>
<path fill-rule="evenodd" clip-rule="evenodd" d="M507.97 418.509C510.848 420.812 510.547 427.198 510.831 430.773L510.851 431.007C511.756 441.805 510.53 452.653 507.934 463.136L507.533 464.735C506.292 469.745 505.059 475.751 501.177 479.188C496.767 483.091 489.762 480.565 489.603 474.27C489.522 471.345 490.486 468.528 491.704 465.784C483.161 469.126 474.617 472.432 466.038 475.656C460.558 521.598 523.866 577.846 560.52 597.538C613.898 627.49 658.809 581.612 665.642 527.677C666.79 520.513 667.559 513.15 667.709 505.887L667.718 505.19C667.748 499.184 666.765 491.155 670.625 486.161C667.784 486.094 665.26 486.498 662.479 486.94L662.612 487.175C664.189 490.031 666.417 497.141 661.426 497.681C650.652 496.532 645.641 477.385 643.015 468.201L642.911 467.803C641.216 460.921 639.056 435.94 644.164 432.945C645.735 439.108 645.116 445.801 647.027 451.982C651.373 453.757 659.651 454.237 661.568 454.564C683.957 454.827 696.652 471.119 705.726 490.192C732.329 512.326 770.568 508.522 799.293 526.751C887.197 591.346 858.489 842.814 902.272 949.795C911.038 946.118 919.973 953.48 921.144 962.465C922.354 969.376 921.992 976.775 922.089 983.776L922.13 984.65C922.846 998.968 925.289 1015.06 906.212 1015.37C906.242 1023.37 907.727 1031.11 909.631 1038.82C920.195 1085.53 924.805 1133.64 925.845 1181.52L925.897 1185.04C926.241 1210.2 926.544 1288.06 912.273 1297.27L912.938 1302.75C914.59 1316.47 916.147 1330.22 917.017 1344C918.386 1351.16 913.726 1368.3 904.216 1363.76C886.775 1368.14 869.575 1374.59 851.452 1374.62C855.843 1522.71 853.66 1670.95 854.31 1819.1C852.91 1928.31 858.734 2038.41 853.643 2147.2L853.828 2148.74C855.266 2160.95 855.698 2171.58 841.77 2175.76C841.569 2178.75 839.301 2180.34 836.61 2180.69C828.976 2181.74 821.342 2182.72 813.7 2183.67C806.581 2184.21 798.963 2186.01 791.868 2185.15C792.554 2185.85 790.692 2185.96 790.49 2185.45C784.021 2201.9 782.144 2219.84 780.542 2237.4C796.244 2243.46 804.813 2257.11 802.25 2274.22C818.093 2274.87 829.662 2292.72 831.883 2307.76C833.305 2318.14 832.165 2328.44 831.707 2338.84C829.514 2374.37 834.666 2412.65 857.292 2440.99C871.98 2458.78 891.101 2474.87 897.51 2498.04C899.25 2498.86 900.682 2500.45 901.309 2502.95L905.375 2519.12V2519.12L907.396 2527.21C908.877 2533.1 910.193 2539.14 909.399 2545.24L909.315 2545.83C905.354 2584.49 749 2565.86 718.484 2563.08C706.217 2561.13 692.757 2562.19 681.712 2555.61C668.164 2546.55 666.47 2528.16 668.795 2513.1L668.989 2511.69C669.93 2504.95 671.31 2497.89 677.613 2494.12C675.491 2480.17 676.312 2465.89 673.788 2451.99C669.976 2432.32 658.443 2415.26 652.556 2396.38C643.969 2386.7 643.679 2371.61 641.884 2359.23C640.523 2347.22 639.41 2335.13 638.951 2323.05C637.705 2307.07 644.542 2293.9 661.109 2291.82C660.34 2288.79 662.445 2286.18 664.538 2284.24C659.598 2266.46 658.235 2242.04 679.663 2235.98C687.778 2215.58 690.137 2193.47 692.298 2171.71C692.04 2171.66 691.785 2171.61 691.528 2171.56C681.71 2175.71 679.045 2157.97 678.126 2148.6L677.922 2146.37C667.818 2038.09 668.749 1929.17 664.954 1820.55L664.583 1812.7C661.256 1741.13 659.277 1668.94 647.068 1598.33C634.78 1519.63 631.569 1439.65 627.368 1360.12C622.422 1367.91 619.761 1376.86 615.758 1385.16C563.811 1539.88 510.512 1694.13 459.156 1849.05C421.934 1961.22 386.372 2073.98 350.705 2186.67C348.885 2192.44 343.151 2193.64 338.954 2191.79C328.272 2195.54 317.061 2197.68 305.779 2198.05C305.099 2199.63 303.703 2200.79 301.661 2200.56C295.627 2199.89 288.683 2201.8 282.649 2202.52C268.842 2203.9 255.437 2206.05 241.503 2206.25C232.871 2217.31 232.329 2232.32 228.349 2245.48C226.058 2252.2 226.417 2267.25 218.505 2269.14C221.341 2273.57 221.712 2278.89 221.253 2284.36C223.714 2284.93 226.21 2286 228.524 2287.1C230.779 2288.26 233.757 2288.16 235.311 2290.49C279.501 2298.61 247.207 2383.67 239.526 2411.81C231.987 2434.81 229.626 2458.84 233.066 2482.85C238.325 2490.21 236.564 2501.16 237.369 2509.89C237.792 2517.68 238.57 2525.59 238.5 2533.38C237.641 2565.78 198.193 2560.51 175.938 2564.71C162.041 2566.35 148.081 2567.49 134.121 2568.38C98.7172 2570.61 63.1144 2570.78 27.7828 2567.31C4.97053 2566.58 0.0652777 2551.49 0.101502 2530.86L0.066674 2530C-0.447357 2516 1.78022 2499.09 14.9003 2491.81C15.5541 2484.41 19.2569 2476.93 23.0374 2470.47C40.6175 2440.5 67.0124 2414.25 72.2039 2378.29C77.2965 2354.75 71.5271 2302.93 95.1319 2290.66C95.6797 2280.06 102.102 2269.25 110.054 2263.53C111.589 2254.7 117.371 2246.58 120.948 2238.47C128.244 2222.97 134.993 2207.24 142.25 2191.73C138.45 2190.1 134.413 2187.11 133.883 2182.85C130.235 2182.89 126.63 2180.5 127.072 2176C128.36 2162.93 131.18 2150.08 133.843 2137.24L134.175 2135.64C181.561 1903.42 279.415 1686.28 336.666 1457.05C328.963 1458.46 321.761 1449.53 317.503 1443.71C303.746 1424.94 295.622 1402.22 292.049 1379.17L285.583 1378.36C264.019 1375.67 242.349 1373.32 220.605 1373.95L215.364 1374.13C209.542 1374.31 203.71 1374.26 198.176 1372.14C194.315 1372.5 190.295 1370.4 189.341 1366.01C173.236 1284.64 212.822 1207.42 241.176 1133.9C247.856 1115.82 252.61 1097.48 257.142 1078.76C257.291 1078.15 258.228 1078.28 258.202 1078.91C257.319 1099.72 252.229 1120.7 247.059 1140.76C230.086 1208.78 194.726 1275.48 203.371 1347.5C230.245 1326.04 262.162 1311.14 295.689 1304.83C297.624 1296.31 299.762 1287.85 301.37 1279.27C299.788 1266.09 298.71 1252.84 297.332 1239.59C293.215 1199.96 286.925 1160.42 278.541 1121.49C265.534 1082.31 254.178 1042.61 250.117 1001.3L249.378 1001.45C240.36 1003.3 230.424 1007.33 222.058 1001.51C216.748 997.777 214.45 991.591 212.305 985.65C206.176 971.247 205.042 952.313 222.384 946.29C215.919 900.494 220.119 852.685 227.933 807.317C234.189 767.55 247.915 728.372 242.777 687.661C237.073 648.542 226.437 607.569 241.812 569.275C267.081 505.366 331.068 475.045 393.997 465.286L395.017 464.982C402.802 462.646 409.891 460.183 418.002 461.953C437.134 425.961 468.163 440.601 498.463 448.622C500.51 442.519 502.214 436.275 503.817 430.037C504.816 426.859 504.486 419.527 507.97 418.509ZM683.347 2511.59L683.268 2513.16C682.467 2530.01 683.369 2544.44 703.978 2544.33C718.159 2545.87 732.342 2547.36 746.545 2548.66L751.873 2549.14C794.029 2552.95 836.691 2554.82 878.767 2549.1L880.52 2548.85C884.036 2548.35 890.548 2548.45 893.332 2545.81C896.687 2541.23 892.803 2532.5 891.988 2527.19C826.336 2526.42 760.598 2523.96 694.903 2524.81C687.994 2524.84 684.875 2518.86 685.512 2513.41C684.734 2512.87 684.001 2512.26 683.347 2511.59ZM16.7829 2503.14C13.5546 2514.64 14.3497 2525.52 16.1733 2537.04C17.0851 2549.11 22.7475 2549.88 32.9945 2550.17C72.9972 2553.91 113.289 2553.12 153.302 2549.99C174.748 2547.64 196.787 2547.73 217.834 2542.92C227.875 2538.41 222.078 2524.22 222.42 2515.53C175.152 2546.41 103.666 2542.49 52.1225 2524.62L51.2965 2524.26C39.1039 2519.07 23.5177 2515.8 16.7829 2503.14ZM95.0792 2295.35C89.645 2301.57 89.5321 2319.26 89.3041 2325.29L89.2754 2325.96C88.6649 2338.61 88.7621 2351.29 88.2214 2363.94C88.6199 2417.22 58.2722 2443.8 35.7347 2486.63C29.5704 2497.03 38.5381 2498.51 45.8323 2501.88C93.0657 2524.16 148.936 2527.57 198.281 2510.51C223.085 2503.2 217.67 2486.28 215.564 2465.58C213.49 2423.28 235.443 2385.17 241.937 2344.26L242.112 2343.2C244.048 2331.18 247.394 2300.4 228.516 2306.98C224.408 2309.54 220.547 2306.33 220.062 2302.4C219.572 2302.48 219.07 2302.52 218.586 2302.53C216.403 2316.21 214.141 2329.87 211.969 2343.54C213.797 2344.72 215.511 2346.05 217.03 2347.57C218.877 2349.43 217.587 2353.32 214.804 2353.09C213.373 2352.96 211.96 2352.74 210.554 2352.47C209.44 2364.36 190.817 2357.69 196.197 2348.16C169.421 2338.78 139.923 2339.53 112.732 2346.72L112.619 2346.77C110.514 2347.62 95.3783 2350.69 100.248 2353.09C102.277 2353.34 97.6564 2356.03 96.8462 2351.86C96.5847 2346.64 108.35 2344.07 111.954 2341.9C102.863 2328.71 96.651 2311.61 95.0792 2295.35ZM781.036 2253.58C755.813 2239.73 724.815 2244.87 697.457 2247.32L696.308 2247.46C689.346 2248.22 679.641 2248.68 676.445 2255.95C671.818 2267.6 679.488 2293.66 681.898 2306.62L682.718 2310.01C684.716 2318.31 686.612 2326.53 687.297 2335.11C687.314 2335.38 687.057 2335.57 686.819 2335.57C677.235 2325.19 672.928 2311.23 668.451 2297.91C666.542 2299.02 664.678 2300.21 662.921 2301.53C656.052 2325.46 653.752 2350.94 659.191 2375.35L659.386 2376.21C666.104 2406.38 687.021 2431.05 689.01 2462.57C690.339 2475.32 690.041 2488.38 693.657 2500.75C695.714 2501.21 697.507 2502.75 698.313 2504.68L710.105 2504.7C767.099 2504.8 824.109 2505.32 881.067 2507.7C879.231 2491.46 865.094 2477.05 855.137 2465.92C824.585 2434.2 811.37 2388.63 816.403 2344.71C819.051 2322.74 831.145 2288.22 801.561 2280.1C799.4 2298.01 796.479 2315.85 794.864 2333.83C800.447 2336.56 800.102 2343.76 793.282 2343.62C790.22 2354.07 779.955 2349.84 781.064 2339.99C743.516 2325.93 721.975 2321.22 685.395 2342.4C684.371 2342.25 688.207 2338.08 688.692 2337.35C700.252 2324.71 718.005 2318.77 734.661 2318.55C751.172 2318.55 766.7 2324.86 782.274 2329.74C784.615 2312.77 786.191 2295.71 788.047 2278.68L788.45 2275.04C789.422 2266.1 789.067 2258.72 781.036 2253.58ZM177.634 2472.65C183.13 2471.41 188.184 2469.53 193.767 2470.8C213.416 2485.77 133.129 2489.99 126.293 2488.93C108.891 2488.41 91.4808 2486.17 74.7328 2481.18L73.5654 2480.83C71.9159 2480.36 55.2219 2475.65 58.3875 2473.55C81.0399 2475.58 103.217 2479.8 126.293 2478.7C137.805 2478.46 149.362 2477.63 160.75 2475.87C166.413 2475 172.05 2473.93 177.634 2472.65ZM708.447 2454.11C704.851 2448.65 722.387 2455.9 724.669 2455.97C739.192 2459.6 753.97 2462.35 768.888 2463.49C778.89 2464.26 788.997 2464.43 799.016 2463.93C806.436 2463.67 813.775 2462.56 821.147 2461.79L821.412 2461.78C825.794 2461.62 834.571 2464.38 829.161 2469.66C820.749 2476.28 808.302 2474.26 798.22 2475.23C767.603 2475.13 735.181 2470.13 708.447 2454.11ZM132.833 2414.38C141.659 2412.76 190.244 2412.23 185.401 2427.35C184.226 2430.22 181.54 2431.17 178.713 2430.72C148.644 2423.3 116.209 2419.43 86.2355 2429.65C85.7496 2429.82 85.4139 2429.02 85.8909 2428.8C100.628 2421.31 116.397 2416.08 132.833 2414.38ZM763.463 2399.6C771.396 2398.99 779.375 2399.2 787.311 2399.81L790.561 2400.07C793.909 2400.34 797.329 2400.69 800.527 2401.68L801.164 2401.88C805.521 2403.31 815.342 2410.9 807.887 2414.55C799.882 2417.18 793.114 2414.06 785.392 2412.04C763.868 2406.87 741.241 2408.62 719.916 2413.91L722.919 2414.89V2414.89C723.105 2414.75 723.344 2415.07 723.166 2415.22C721.011 2417.13 718.051 2416.46 716.523 2414.08C716.257 2413.67 716.426 2413.02 716.849 2412.8C731.304 2405.11 747.242 2400.85 763.463 2399.6ZM93.0648 2397.67C117.374 2386.76 145.538 2385.56 171.608 2388.72L173.465 2388.95C181.599 2389.92 192.207 2390.36 196.86 2398.04C198.468 2400.71 196.807 2403.76 194.209 2404.72C186.559 2407.55 177.564 2401.87 170.214 2399.76C148.478 2393.73 125.265 2393.09 103.163 2397.26C103.318 2398.09 99.6576 2397.73 98.8607 2398.02C97.8614 2397.97 91.2315 2400.19 93.0648 2397.67ZM706.08 2380.64C727.287 2370.18 751.807 2367.68 774.702 2373.08L775.654 2373.36C785.799 2376.25 802.132 2379.65 805.766 2390.54C806.553 2393 804.848 2396.31 802.294 2396.81C793.644 2398.49 785.79 2392.08 777.962 2389C754.932 2380.23 728.861 2378.13 705.046 2384.58C704.887 2385.54 704.728 2386.48 704.559 2387.43C704.967 2387.16 705.391 2387.76 705.064 2388.1C701.264 2390.8 697.309 2383.99 706.08 2380.64ZM147.709 2362.25C164.869 2361.09 182.172 2363.31 198.738 2367.9L201.853 2368.77C206.38 2370.05 212.245 2372.08 212.904 2377.04C213.16 2379.02 212.674 2380.37 211.093 2381.6C205.326 2385.97 192.784 2376.81 185.613 2375.73C159.582 2367.8 131.64 2367.91 105.272 2373.98L104.373 2374.19L105.009 2378.78C105.634 2380.97 99.8391 2375.8 102.041 2373.44C115.961 2366.26 132.203 2363.55 147.709 2362.25ZM722.256 2354.05C736.028 2351.53 750.235 2351.05 764.159 2352.32L765.804 2352.47C774.119 2353.22 801.06 2354.3 794.687 2368.55C793.618 2370.94 790.517 2371.24 788.511 2370.21C781.778 2366.75 774.419 2365.5 766.988 2364.36C740.753 2360.66 713.95 2362.18 688.338 2369.34C688.895 2370.23 687.746 2371.28 686.66 2371.49C683.956 2372 683.956 2368.73 685.113 2366.99C686.493 2364.93 689.239 2364.18 691.36 2363.27C701.223 2358.92 711.682 2355.97 722.256 2354.05ZM200.659 2274.74L199.09 2274.36C172.809 2268.09 114.543 2256.84 108.509 2293.56C106.367 2309.73 113.431 2325.5 112.909 2341.51C140.161 2330.27 170.297 2330.39 198.61 2337.82C201.118 2321.2 203.512 2304.56 206.075 2287.95L206.489 2285.97C207.629 2280.36 208.017 2275.98 200.659 2274.74ZM142.126 2281.42C147.853 2276.44 157.403 2276.51 163.021 2281.95C168.158 2283.04 171.782 2288.57 171.865 2293.31C179.676 2307.23 170.257 2326.47 155.344 2329.95C121.67 2337.14 106.616 2290.24 142.126 2281.42ZM725.543 2259.21C753.718 2254.1 763.953 2290.35 740.828 2305.05C708.162 2321.67 686.396 2269.42 725.543 2259.21ZM156.068 2178.69C156.483 2181.46 155.138 2183.44 153.532 2185.3C147.756 2209.32 139.062 2231.67 130.49 2254.69C158.376 2250 184.724 2254.09 209.397 2261.77C209.693 2254.74 212.849 2247.46 215.042 2240.84C219.312 2228.26 224.474 2216.01 230.428 2204.18L231.176 2202.7C233.314 2198.49 235.373 2194.09 237.899 2190.06C210.606 2186.28 183.314 2182.87 156.068 2178.69ZM705.735 2173.58L705.008 2176.92C701.876 2191.41 698.903 2206.04 694.241 2220.13L694.177 2220.42C693.463 2223.97 691.858 2240.43 690.848 2228.81C690.07 2230.56 689.24 2232.29 688.356 2233.99L695.114 2233.18C720.32 2230.18 746.616 2227.78 771.336 2234.2C768.771 2214.05 772.547 2194.79 778.059 2175.73C753.898 2175.17 729.949 2175.35 705.735 2173.58ZM248.174 2198.63C247.29 2199.47 246.425 2200.33 245.603 2201.23C246.717 2200.94 247.83 2200.65 248.863 2200.41C248.82 2199.75 248.359 2199.25 248.174 2198.63ZM792.663 2180.14L791.877 2182.02V2182.02C792.284 2181.77 792.735 2181.54 793.22 2181.33C792.999 2180.97 792.813 2180.58 792.663 2180.14ZM141.137 2176.03C140.852 2177.1 140.633 2178.29 140.12 2179.26C140.527 2179.34 140.942 2179.42 141.358 2179.51C141.861 2178.48 142.392 2177.47 142.965 2176.48C142.355 2176.34 141.746 2176.19 141.137 2176.03ZM351.297 987.471C348.823 988.685 346.243 988.992 342.834 989.137C315.124 990.303 287.504 993.558 260.295 999.109C261.797 1021.43 268.494 1043.06 274.867 1064.34L276.189 1069.01C297.722 1145.27 316.517 1224.95 312.732 1304.71C312.944 1304.8 313.147 1304.9 313.342 1305C312.998 1305.98 312.751 1306.98 312.405 1307.95L312.184 1308.53L310.891 1311.78C310.177 1313.59 309.483 1315.41 308.88 1317.27C307.822 1317.65 306.522 1317.94 305.284 1318.12C298.998 1360.35 304.975 1407.69 333.301 1440.72C323.203 1420.1 319.68 1396.68 320.125 1373.78L320.205 1370.28C320.321 1365.95 320.576 1361.64 321.876 1357.53C321.929 1357.31 322.212 1357.35 322.283 1357.53C328.281 1376.32 328.671 1396.72 334.563 1415.65L335.014 1417.1C339.674 1431.93 347.456 1451.02 360.971 1458.69C363.46 1459.44 367.287 1458.55 368.581 1461.46L368.667 1461.66L368.746 1461.64C362.713 1441.59 358.829 1420.87 357.498 1399.94L357.411 1398.51C356.987 1391.21 356.051 1383.39 357.845 1376.26C361.264 1382.78 360.414 1393.43 362.005 1401.31L362.068 1401.76C363.325 1410.28 375.423 1475.43 383.369 1466.73C385.011 1464.33 384.584 1459.69 384.634 1456.83L384.641 1456.55C384.765 1452.42 384.72 1448.29 384.58 1444.16C383.722 1419.83 379.993 1394.86 387.3 1371.16C388.52 1367.17 395.147 1366.42 395.95 1371.16C399.166 1390.14 402.24 1409.15 405.315 1428.15C407.556 1439.75 407.463 1452.84 414.274 1462.85C414.353 1441 413.159 1419.21 412.126 1397.38L411.849 1396.47C411.033 1393.72 410.228 1390.14 412.1 1387.8C412.851 1382.82 420.026 1383.39 420.635 1388.61C420.768 1389.69 420.865 1390.8 420.971 1391.89C423.348 1394.92 425.557 1398.01 428.366 1400.61C447.125 1361.75 385.747 1294.65 377.273 1250.77C352.317 1165.33 366.665 1075.74 373.924 988.73C366.417 987.829 358.849 987.588 351.297 987.471ZM708.465 495.707C721.585 522.424 731.215 550.699 737.886 579.798C739.941 588.782 728.064 594.295 723.265 586.424L723.122 586.182C717.221 576.194 708.428 567.397 697.297 563.958C689.713 596.214 693.409 630.303 697.349 662.874C704.336 708.252 709.896 753.823 710.728 799.808L710.768 802.272C713.203 959.31 735.951 1115.64 760.866 1269.39C800.696 1275.89 837.16 1294.2 873.876 1310.29C880.255 1312.82 886.775 1315.02 893.455 1316.54C875.008 1142.23 804.853 978.749 783.175 805.071C777.446 759.901 777.176 714.032 785.092 669.123C785.225 668.262 786.426 668.552 786.479 669.313C787.348 687.76 790.457 705.967 792.301 724.314C793.556 713.835 796.454 703.221 798.795 693.177C801.657 683.352 802.715 667.577 811.103 661.171L811.632 659.314V659.314C811.853 658.517 813.019 658.853 812.835 659.65C812.746 660.03 812.657 660.401 812.578 660.782C817.965 662.235 812.933 668.718 811.597 671.822C802.95 695.362 800.377 720.844 794.474 745.107C803.015 820.853 818.398 895.638 837.343 969.258C854.749 964.597 872.214 960.112 889.664 955.555C850.74 826.8 873.5 683.107 815.183 560.164C793.334 518.905 739.526 524.51 708.465 495.707ZM412.737 472.169C404.573 471.725 396.047 476.226 388.21 477.775C377.82 479.822 367.483 481.443 357.322 484.587C305.314 499.072 255.139 538.627 245.717 595.619C239.241 634.753 255.277 672.881 254.713 711.906C253.021 750.569 240.473 787.728 235.583 826.001C229.702 865.138 227.677 906.103 232.722 945.43C279.375 931.984 328.098 931.141 375.939 938.085C371.949 878.477 377.184 818.575 380.081 759.009C382.167 720.754 385.736 682.327 384.473 644C384.446 643.148 385.807 642.94 385.937 643.791C400.285 722.072 391.87 801.538 390.419 880.485C389.5 900.431 391.93 920.568 390.95 940.404C412.699 945.161 411.913 970.929 405.262 987.914C404.083 992.001 400.082 991.292 396.843 990.794C393.332 994.542 384.959 989.652 380.188 989.653C376.452 1087.65 353.759 1192.32 400.261 1283.9C419.702 1284.01 438.417 1277.2 457.312 1273.33L458.343 1273.12L458.369 1273.12C461.147 1269.44 462.505 1263.54 462.876 1259.21C465.517 1183.75 457.253 1108.11 462.087 1032.64C468.009 948.863 486.402 865.602 477.896 781.261C472.012 705.882 455.866 631.869 448.083 556.715L447.688 552.827C447.204 548.194 447.02 543.074 444.764 539.541C431.633 551.697 420.616 566.151 412.727 582.414C408.36 590.27 396.661 586.774 396.48 577.905C394.798 562.069 394.549 546.173 396.253 530.333L396.409 528.936C398.521 509.108 404.418 490.184 412.737 472.169ZM900.867 1016.03C883.957 1016.93 867.024 1018.84 850.084 1018.62L851.79 1025.12C872.297 1103.14 894.134 1181.02 907.008 1260.84L907.475 1253.36C907.941 1245.87 908.387 1238.38 908.678 1230.88C912.33 1159.13 906.752 1087.49 900.867 1016.03ZM460.64 518.104C460.711 521.347 460.87 524.58 461.118 527.804C468.934 539.717 468.239 555.552 469.989 569.256C479.797 643.265 494.242 716.971 499.108 791.749C503.636 851.57 496.242 911.18 488.685 970.399C479.364 1038.22 480.342 1106.74 482.507 1175.02C518.319 1142.08 569.22 1136.3 614.406 1126.07L616.556 1125.63C651.3 1118.4 685.971 1107.92 715.49 1087.33C694.261 933.024 699.257 776.732 677.551 622.563C676.882 610.423 676.745 598.214 677.736 586.083C676.783 572.95 676.499 559.746 676.474 546.578C666.962 585.477 635.091 623.058 593.334 621.83C548.904 619.18 511.192 582.204 482.224 550.509C474.371 541.054 466.561 530.014 460.64 518.104ZM851.39 1016.1L849.385 1016L849.508 1016.44V1016.44C849.921 1016.36 850.341 1016.28 850.761 1016.21L851.39 1016.1ZM906.503 963.408C906.186 963.308 905.646 963.308 905.046 963.335C904.18 965.364 902.431 967.039 900.399 967.592L883.447 972.247C869.318 976.125 855.181 979.986 841.027 983.74C843.403 993.05 845.816 1002.36 848.254 1011.66C867.558 1005.33 888.933 1006.76 908.616 1002.69C908.374 991.94 907.797 981.138 907.617 970.372C907.572 968.615 907.926 965.79 907.042 964.214C906.487 963.208 907.042 963.58 906.503 963.408ZM258.026 999.58L257.495 999.697V999.697C257.671 1000.19 257.831 1000.68 257.981 1001.17C257.99 1000.64 257.998 1000.11 258.026 999.58ZM383.705 947.866C347.335 942.473 310.345 939.286 273.663 942.957C257.071 945.245 240.227 947.687 223.966 950.81C218.311 959.657 224.567 981.185 231.608 987.996C233.719 988.811 237.351 987.226 239.374 986.764C254.555 983.271 269.884 980.457 285.291 978.26C285.749 978.849 286.421 979.229 287.251 979.148L290.791 978.814C312.039 976.841 333.476 975.394 354.77 976.63L354.928 976.757V976.757C369.295 977.825 383.612 980.132 397.92 981.801C403.568 966.749 402.595 949.479 383.705 947.866ZM648.343 456.972C649.748 461.823 651.437 466.537 653.537 471.119C655.73 470.5 658.754 470.996 660.366 472.405L661.052 472.278C662.938 471.913 665.203 471.355 665.792 471.291C691.779 467.625 689.799 503.065 689.893 520.876C690.052 529.805 690.229 538.744 690.494 547.674C697.932 545.092 707.875 549.733 714.375 553.842C709.286 536.571 703.305 519.58 696.635 502.889L695.372 499.637C690.116 486.171 684.298 472.535 673.133 463.158C664.644 460.895 656.421 460.484 648.343 456.972ZM459.926 448.08C435.772 439.298 426.203 459.256 419.504 479.161C411.606 501.205 409.45 525.476 410.766 549.195L411.58 548.098C420.466 536.022 433.28 516.087 449.483 519.291C449.323 510.127 449.648 500.061 451.373 490.545C450.366 484.405 450.109 478.201 450.808 471.997C451.177 464.218 459.489 465.398 464.961 464.299C469.697 461.084 475.431 459.789 481.191 462.053C485.538 461.464 489.885 460.903 494.232 460.341C494.899 458.847 495.438 457.345 495.999 455.813C483.969 453.278 471.942 450.665 459.926 448.08Z" fill="black"/>
<path fill-rule="evenodd" clip-rule="evenodd" d="M750.251 370.419C746.835 365.308 738.609 328.217 733.355 322.513C733.752 300.602 739.738 224.741 722.639 190.64C726.235 186.959 735.794 155.262 733.355 143.279C741.411 118.184 689.66 78.3272 669.965 67.5569C578.43 17.895 445.788 72.7133 404.16 164.711C379.144 220.116 378.683 282.147 375.855 341.763C375.52 354.524 374.361 367.384 374.374 380.129C376.183 391.329 384.96 402.734 378.306 412.047C370.956 417.191 356.102 429.721 362.716 436.827C366.592 440.092 372.783 438.198 376.99 441.337C379.131 442.55 380.467 445.206 382.971 445.61C405.847 444.731 421.99 444.656 444.936 443.718C454.982 443.385 470.278 447.684 481.808 439.126C522.084 461.791 505.237 428.908 513.382 405.496C538.183 413.98 587.587 441.036 614.022 441.909C635.505 444.596 655.593 431.938 676.713 434.819C702.95 444.681 733.699 446.874 757.732 430.188C763.73 425.817 770.403 430.88 777.962 426.161C792.654 419.052 757.665 378.305 750.251 370.419Z" fill="white"/>
<path fill-rule="evenodd" clip-rule="evenodd" d="M720.266 187.729C719.941 185.837 722.518 184.425 723.515 186.343C730.758 200.277 733.66 216.414 736.225 231.804C738.816 247.357 740.529 262.975 740.623 278.763C740.696 290.907 739.606 303.192 737.559 315.346L737.808 316.211V316.211C738.268 317.799 738.732 319.387 739.2 320.973L739.907 323.351C741.274 327.918 742.568 332.506 743.972 337.062C746.903 346.57 749.989 356.105 753.769 365.306C757.457 374.285 761.942 382.944 767.274 391.036C772.412 398.838 780.567 405.435 784.187 414.1C785.449 417.119 783.583 421.111 780.098 420.629C779.872 420.905 779.526 421.105 779.057 421.147C776.351 421.386 773.815 421.159 771.115 420.902C769.608 420.759 769.611 418.675 771.115 418.532C772.262 418.423 773.379 418.327 774.495 418.261C766.774 413.632 761.266 404.594 756.861 397.194C751.201 387.687 746.926 377.299 743.441 366.794C739.863 356.009 737.328 344.999 735.292 333.819C735.058 332.532 734.836 331.245 734.622 329.955C732.049 341.022 728.736 351.887 724.809 362.329L724.258 363.782C715.206 387.526 702.945 411.499 682.551 427.194C681.626 427.905 680.68 428.581 679.727 429.242L680.887 429.915C682.042 430.582 683.18 431.222 684.292 431.747C688.413 433.692 692.886 435.175 697.311 436.226C706.451 438.398 716.049 437.775 725.373 438.078C728.431 438.177 730.171 442.816 727.045 444.323C716.746 449.285 705.623 448.232 694.992 444.741C689.732 443.012 684.796 440.592 680.23 437.433C678.342 436.128 676.149 434.517 674.298 432.655C653.903 444.2 628.554 445.492 605.854 441.363C594.058 439.216 582.627 435.297 572.569 428.593C562.895 422.146 556 413.984 551.076 403.409C550.64 402.471 551.854 401.304 552.599 402.22C568.063 421.223 594.676 429.152 618.088 430.661C630.579 431.466 643.358 430.797 655.368 427.015C666.761 423.426 676.537 416.849 684.7 408.101C701.244 390.369 711.158 366.248 718.278 343.292C726.023 318.318 729.711 292.043 730.472 265.907C730.857 252.665 730.372 239.312 728.317 226.217C726.278 213.231 722.494 200.661 720.266 187.729ZM488.413 75.2285C489.508 74.6652 490.279 76.1309 489.351 76.8519C470.067 91.8145 452.798 110.787 438.82 130.867C413.043 167.903 396.511 210.76 388.899 255.293C384.404 281.592 383.23 308.289 383.679 334.938C383.857 345.524 384.454 356.078 385.119 366.635L385.87 378.338C386.218 383.79 386.509 389.196 386.284 394.675L386.223 395.94C385.866 402.316 386.486 408.742 384.905 414.962C384.094 418.151 379.649 418.653 378.039 415.869C377.723 415.324 377.429 414.762 377.143 414.194C373.37 420.42 368.484 425.985 363.063 430.956C365.654 430.398 368.27 430.043 370.956 430.368C375.214 430.884 379.033 432.548 381.736 435.463C384.418 434.24 387.177 433.398 390.349 433.38C392.685 433.368 394.437 436.162 393.104 438.238C390.445 442.382 386.734 444.704 382.517 447C379.529 448.628 375.963 447.236 374.859 444.018L374.796 443.823C373.554 439.753 366.95 440.41 363.834 441.04L362.917 441.229C357.116 442.45 351.452 444.014 345.543 442.402C341.732 441.362 340.736 435.556 344.41 433.63C356.018 427.544 365.762 419.369 375.777 411.161C373.566 405.676 372.31 399.547 370.862 393.97C368.824 386.119 368.229 377.672 367.493 369.608C366.094 354.276 365.561 338.777 365.711 323.385C366.218 271.396 375.006 219.245 397.454 172.167C407.288 151.544 420.207 132.461 435.478 115.57C450.659 98.7783 468.389 85.5186 488.413 75.2285ZM470.441 329.833C469.846 328.998 471.008 327.893 471.823 328.435C489.473 340.164 501.721 357.975 509.624 377.541C517.447 396.912 522.25 420.639 514.535 440.839C513.307 444.056 507.426 445.251 506.823 440.839C504.134 421.138 503.716 401.409 497.802 382.255C491.938 363.268 481.906 345.88 470.441 329.833ZM456.756 393.793C456.853 393.445 457.415 393.505 457.391 393.88C456.948 400.827 456.649 407.859 455.785 414.768C455.365 418.125 454.81 421.461 454.338 424.811C453.854 428.246 453.927 431.715 451.953 434.649C449.337 438.538 442.386 437.444 442.619 432.091C442.78 428.399 444.457 426.029 446.028 422.788C447.036 420.71 447.914 418.562 448.761 416.405L450.019 413.169C452.52 406.751 454.913 400.441 456.756 393.793ZM425.152 375.389C425.259 374.842 426.13 374.974 426.104 375.519C425.633 385.352 424.537 395.075 422.82 404.764C422.037 409.181 421.125 413.572 420.159 417.952L419.743 419.828C418.71 424.44 418.044 429.862 415.731 433.983C413.42 438.101 407.933 435.11 408.643 430.959C409.474 426.113 412.414 421.238 414.122 416.584C415.699 412.288 417.078 407.915 418.367 403.522C421.078 394.273 423.303 384.852 425.152 375.389ZM484.006 402.688L484.211 402.475C485.015 401.592 486.212 402.18 486.596 403.112C488.166 406.932 487.38 411.436 487.268 415.491L487.247 416.376C487.164 420.484 487.222 424.331 485.381 428.123C483.145 432.728 477.255 429.868 476.8 425.772C476.301 421.302 478.391 416.926 479.741 412.739C480.598 410.078 481.223 407.31 482.527 404.895C481.412 405.09 480.298 405.479 479.279 405.761C478.822 405.886 478.65 405.207 479.086 405.05C480.771 404.447 482.674 403.993 484.006 402.688V402.688ZM718.969 416.243C718.43 415.634 719.101 414.822 719.8 415.152C728.194 419.118 736.044 421.698 745.305 422.543C749.318 422.909 749.343 429.288 745.305 428.918C735.64 428.037 725.51 423.653 718.969 416.243ZM423.67 282.239C431.059 265.421 454.436 250.502 470.112 266.142C470.406 266.434 470.107 267.072 469.681 266.893C459.93 262.805 447.993 268.005 441.245 275.442C435.891 281.341 432.674 288.916 432.035 296.9C431.397 304.891 433.285 313.232 438.53 319.412C441.282 322.655 444.998 325.724 449.37 326.114C453.785 326.507 457.465 323.361 461.638 322.507C464.784 321.863 467.159 323.861 467.468 326.999C468.148 333.924 461.333 338.572 455.426 339.701C449.071 340.915 442.586 339.589 437.11 336.105C419.425 324.852 415.611 300.583 423.67 282.239ZM589.595 117.397C592.808 114.29 598.274 117.379 597.088 121.812C594.567 131.245 589.208 139.219 583.27 146.787C577.558 154.068 571.438 161.065 564.878 167.577C558.362 174.047 551.281 180.033 543.84 185.38L541.599 186.987C536.325 190.748 530.739 194.552 524.836 197.261C523.411 209.685 520.622 221.944 516.403 233.681C512.34 244.982 507.17 255.904 500.905 266.126L500.005 267.589C494.248 276.924 487.326 287.357 477.557 292.474C477.264 292.628 476.97 292.723 476.68 292.778C478.866 294.252 480.712 296.106 481.81 298.771C483.013 301.688 480.499 304.441 478.088 305.404C472.991 307.442 468.019 303.993 463.437 300.313C463.243 300.754 463.06 301.2 462.903 301.649C461.879 304.587 461.577 307.59 458.935 309.54C457.679 310.467 456.133 309.637 455.342 308.588C452.752 305.144 455.434 300.452 457.711 297.637C458.027 297.249 458.353 296.879 458.688 296.524C457.725 295.808 456.786 295.174 455.876 294.686C450.525 291.819 442.594 291.311 439.513 297.658C439.277 298.145 438.535 297.893 438.535 297.389C438.543 289.593 446.435 285.359 453.285 284.784C458.289 284.364 463.129 286.139 467.633 288.207L468.474 288.598C470.15 289.385 471.877 290.128 473.53 290.959C473.261 290.241 473.265 289.397 473.688 288.56C478.868 278.325 487.763 270.002 494.178 260.523C500.539 251.119 506.001 241.054 510.361 230.545C514.592 220.345 517.907 209.825 520.225 199.094C519.461 199.254 518.601 198.566 518.655 197.76C518.784 195.808 519.728 194.051 521.385 193.302C523.21 183.209 524.142 172.945 524.087 162.598C524.083 161.796 525.232 161.824 525.299 162.598C526.106 171.797 526.171 181.086 525.493 190.321C529.803 186.309 534.349 182.494 538.499 178.376C544.744 172.178 550.786 165.815 556.614 159.216C562.56 152.483 568.18 145.503 573.32 138.117L576.009 134.244C580.145 128.306 584.393 122.43 589.595 117.397ZM581.486 51.1107C616.952 48.8708 654.829 53.2808 686.686 70.1249C704.182 79.3748 717.706 93.3557 727.368 110.754C733.138 121.144 737.515 132.648 739.173 144.476C740.875 156.63 738.876 167.467 731.207 177.127C728.16 180.963 723.03 176.678 723.78 172.753C728.371 148.737 720.924 125.01 707.716 105.128C688.55 76.277 655.079 63.4611 622.49 57.7441C606.479 54.9366 590.24 53.763 573.996 54.3341C561.612 54.77 548.908 55.9375 537.155 60.1531C536.66 60.331 536.462 59.5497 536.94 59.3658C550.959 53.9487 566.608 52.0506 581.486 51.1107ZM634.085 105.415C635.911 104.244 638.145 105.445 638.772 107.345C640.985 114.043 636.347 122.892 633.245 128.688C629.734 135.247 625.22 141.38 620.558 147.141C611.231 158.662 598.973 168.276 585.521 174.318C584.697 174.688 583.737 173.682 584.493 172.971C594.901 163.165 604.338 152.651 612.507 140.857C616.521 135.062 619.869 128.948 623.066 122.668C625.927 117.048 628.618 108.921 634.085 105.415ZM693.733 113.305C694.9 109.183 701.546 109.884 701.271 114.337C700.56 125.84 695.197 137.387 689.369 147.135C683.367 157.173 675.768 166.119 667.056 173.845C666.627 174.226 666.039 173.639 666.428 173.209C673.944 164.884 680.015 155.402 684.511 145.082C689.001 134.777 690.697 124.025 693.733 113.305ZM660.703 111.442C661.974 107.858 668.058 108.124 667.685 112.399C666.66 124.15 659.843 136.466 653.53 146.172C646.831 156.47 638.28 165.542 628.723 173.161C628.365 173.446 627.859 172.974 628.208 172.641C636.792 164.458 643.753 155.006 649.264 144.463C652.077 139.083 654.437 133.481 656.3 127.695C658.023 122.341 658.832 116.719 660.703 111.442Z" fill="black"/>
<path fill-rule="evenodd" clip-rule="evenodd" d="M625.566 344.897C629.919 337.312 639.199 355.893 640.185 359.088C641.058 361.918 641.635 364.817 641.928 367.75C645.303 368.551 648.808 368.553 652.266 367.85C657.407 366.806 660.549 363.879 665.016 361.366C668.102 359.63 671.99 361.666 673.595 364.546C675.482 367.936 674.28 371.454 671.798 373.982C667.09 378.774 657.827 379.875 651.682 378.602C648.161 377.873 644.935 376.475 642.085 374.442C642.066 374.822 642.054 375.201 642.025 375.58L641.971 376.237C641.499 381.551 640.119 388.235 636.222 391.693C629.829 397.366 621.939 386.456 628.151 380.789L628.344 380.619C632.205 377.315 633.047 368.45 632.839 363.567C632.703 360.38 632.155 357.152 631.205 354.117L631.009 353.512C630.723 352.655 627.605 344.522 626.478 345.557L626.424 345.616C625.96 346.203 625.209 345.519 625.566 344.897ZM660.326 302.096C666.203 305.879 675.157 314.702 668.835 324.081C661.393 332.352 650.679 322.869 645.399 318.58C640.503 315.257 635.002 323.805 639.545 327.686C677.698 357.604 693.181 303.085 663.298 297.647C660.008 297.048 658.786 300.925 660.326 302.096ZM597.571 267.125C603.315 266.046 609.198 267.558 613.951 271.117L614.311 271.392C618.89 274.939 624.013 281.166 621.386 287.28C620.331 289.735 617.173 290.12 615.169 289.007C611.833 287.154 611.228 282.595 608.251 280.072C605.81 278.003 602.522 276.749 599.378 277.051C591.992 277.762 587.448 285.478 585.154 292.128C584.861 292.978 583.682 293.309 583.221 292.395C577.811 281.686 587.387 269.039 597.571 267.125ZM689.569 263.083C700.571 262.123 713.449 274.204 710.553 286.504C709.163 292.406 700.898 292.237 699.428 286.504C698.62 283.349 698.701 280.558 696.556 277.939C694.787 275.776 692.272 274.519 689.569 274.712C686.59 274.925 683.842 276.502 681.754 278.718C679.868 280.72 678.741 283.648 676.787 285.42C676.306 285.855 675.663 285.883 675.188 285.42C671.826 282.137 673.844 275.302 675.976 271.874C679.026 266.97 683.994 263.571 689.569 263.083ZM576.62 245.309C583.678 238.692 596.502 232.301 606.02 235.558C611.492 237.43 613.877 246.768 607.768 249.728C600.695 253.155 592.54 251.761 585.34 255.313C582.316 256.806 579.473 258.671 577.367 261.407C575.709 263.563 574.022 266.401 571.623 267.644C570.993 267.971 570.139 267.979 569.634 267.372C564.376 261.073 572.029 249.612 576.62 245.309ZM677.438 235.23C681.8 233.933 686.639 233.96 691.071 234.774C695.5 235.589 699.998 237.533 703.614 240.369L704.034 240.701C707.982 243.853 712.694 248.437 712.441 254.019C712.231 258.681 707.601 261.834 703.604 259.39C700.345 257.398 698.812 253.407 696.053 250.75C693.777 248.556 691.102 246.827 688.249 245.615C685.08 244.269 681.906 243.638 678.505 243.578C675.886 243.532 673.252 244.442 670.682 244.733C670.893 245.193 668.862 244.979 667.698 244.571C666.836 244.182 666.831 243.027 667.13 242.278C668.612 238.566 674.007 236.249 677.438 235.23Z" fill="black"/>
</svg>
