<svg width="1534" height="2361" viewBox="0 0 1534 2361" fill="none" xmlns="http://www.w3.org/2000/svg">
<path fill-rule="evenodd" clip-rule="evenodd" d="M354.445 1332.79C334.598 1382.37 310.841 1438.65 288.985 1486.94C290.735 1502.24 297.304 1517.89 292.164 1533.21C314.817 1518.47 340.286 1509.22 366.283 1502.23L367.745 1512.02C370.639 1511.93 375.853 1511.88 378.784 1511.84C378.327 1507.94 377.709 1501 377.429 1497.07L377.42 1497.08C373.794 1454.88 380.568 1411.68 388.841 1370.44C390.859 1355.56 385.934 1332.45 367.181 1332.07C364.393 1332.49 359.802 1324.95 358.111 1323.49L354.445 1332.79ZM616.718 1903.11C522.234 1908.41 468.209 1831.1 422.529 1758.77C417.72 1761.95 412.392 1765.52 407.536 1768.4C400.064 1780.4 384.855 1784.04 371.725 1785.37C324.927 1787.77 314.903 1745.74 303.285 1709.59C301.072 1711.14 296.123 1719.05 292.401 1717.31C271.386 1712.65 250.926 1707.09 228.646 1708.48C203.075 1703.02 70.5653 1761.38 82.7953 1710.48C88.7683 1688.35 121.643 1677.86 138.575 1662.58C163.197 1634.57 157.201 1598.53 168.963 1565.17C178.742 1531.7 190.168 1500.18 211.313 1469.41C213.222 1354.43 217.528 1213.7 247.293 1111.44C266.271 1039.68 289.782 965.484 280.745 890.178L275.612 890.041C273.367 888.768 269.916 887.808 267.161 888.231C264.837 885.662 260.529 886.443 257.371 885.403C251.679 832.214 249.484 786.69 256.707 738.437C263.416 658.763 313.694 626.173 387.129 608.82C467.831 582.349 522.589 555.37 564.402 489.547C572.31 476.189 577.116 460.373 587.652 449.11C613.815 415.996 689.058 421.455 708.49 456.322C716.976 476.719 717.706 500.525 724.161 521.73C749.538 611.794 866.255 601.186 928.047 650.43C955.248 670.602 964.013 701.746 967.539 733.447C971.983 773.312 980.471 811.698 979.382 851.32C982.221 851.858 988.719 849.836 989.82 853.905C987.235 862.464 954.1 862.434 944.859 863.948C957.014 928.313 945.991 992.946 955.76 1057.52C970.819 1130.06 1000.45 1197.44 1023.72 1267.52C1032.68 1290.68 1038.67 1315.51 1051.99 1336.6L1051.75 1336.79C1053.86 1340.29 1056.17 1343.69 1058.57 1346.97C1061.04 1347.86 1063.61 1349.31 1066.05 1350.2L1066.59 1349.28L1067.91 1351.05L1071.77 1349.42C1077.45 1352.26 1083.62 1355.55 1089.68 1359C1164.13 1404.19 1212.86 1450.04 1271.23 1506.81L1263.49 1513.09C1266.31 1517.02 1269.72 1522.21 1272.46 1526.35C1274.75 1524.33 1279.63 1520.93 1282.44 1519.76C1332.21 1578.93 1338.3 1681.5 1314.06 1743.85C1306.35 1762.53 1294.15 1777.87 1279.42 1790.79C1273.33 1799.94 1262.4 1812.57 1248.42 1818.64C1248.42 1818.64 1246.66 1821.13 1246.6 1821.22C1245.86 1821.32 1241.28 1822.37 1241.01 1823.43C1203.82 1829.7 1166.52 1846.07 1127.98 1846.31C1065.12 1845.76 1011.1 1794.73 960.682 1761.02C928.789 1738.27 891.626 1722.65 857.186 1707.44C859.754 1720.55 859.024 1725.05 844.77 1730.01C832.073 1735.06 816.799 1731.11 804.987 1725.56C805.295 1747.29 807.027 1768.99 806.429 1792.16C806.425 1820.21 807.361 1854.71 777.132 1867.66C725.657 1887.94 667.495 1902.5 616.718 1903.11Z" fill="white"/>
<path fill-rule="evenodd" clip-rule="evenodd" d="M1272.26 1518.25C1270.47 1515.55 1268.64 1512.88 1266.76 1510.24C1268.98 1512.65 1271.17 1515.1 1273.3 1517.58C1272.93 1517.77 1272.58 1518 1272.26 1518.25ZM1065.13 1344.68C1064.78 1344.42 1064.39 1344.19 1063.94 1344.01C1062.9 1343.58 1061.86 1343.13 1060.82 1342.7C1058.85 1339.97 1057 1337.17 1055.27 1334.31C1058.89 1338.09 1062.56 1341.76 1066.52 1345.2C1066.06 1345.03 1065.59 1344.86 1065.13 1344.68ZM1031.04 1330.09C1014.16 1321.1 997.153 1312.35 980.103 1303.77C978.633 1303.03 977.203 1303.05 975.993 1303.54C968.663 1299.77 961.293 1296.05 953.843 1292.52C949.313 1290.38 944.743 1288.36 940.193 1286.32C939.843 1285.8 939.523 1285.26 939.253 1284.68C936.523 1278.85 939.113 1271.61 940.873 1265.88C941.323 1264.44 941.133 1263.19 940.563 1262.21C941.523 1253.84 941.163 1245.42 939.513 1237.83C935.593 1219.75 925.903 1203.27 916.683 1187.46C907.213 1171.23 898.913 1154.93 893.543 1136.86C882.753 1100.59 881.923 1062.62 882.703 1025.09C883.563 983.401 885.973 941.721 887.643 900.061C888.143 887.641 888.633 875.221 889.033 862.791C890.003 863.371 890.783 863.971 892.233 864.401C894.593 865.091 897.003 865.661 899.393 866.221C904.163 867.341 909.003 868.121 913.853 868.791C922.973 870.051 932.063 870.621 941.263 870.491C942.393 870.471 943.523 870.441 944.643 870.401C939.323 897.391 939.663 925.971 939.173 953.251C938.593 984.801 937.053 1016.66 940.563 1048.1C943.993 1078.83 953.073 1108.17 962.983 1137.34C973.183 1167.36 983.683 1197.29 993.593 1227.4C999.183 1244.39 1004.79 1261.38 1010.41 1278.36C1013.11 1286.54 1015.82 1294.72 1018.52 1302.89C1021.48 1311.84 1022.96 1322.37 1030.46 1328.63C1031.29 1329.32 1032.22 1329.85 1033.22 1330.22C1033.39 1330.57 1033.55 1330.91 1033.73 1331.26C1032.83 1330.87 1031.94 1330.48 1031.04 1330.09ZM919.343 1262.85C918.163 1268.38 916.163 1273.85 913.433 1278.1C913.433 1278.58 913.333 1279.09 913.093 1279.61C910.373 1285.54 903.873 1288.99 898.253 1291.66C891.483 1294.88 884.493 1297.65 877.663 1300.75C867.443 1305.38 856.963 1308.98 846.223 1311.55C846.023 1311.63 845.823 1311.72 845.613 1311.8C828.123 1318.82 810.213 1324.75 792.053 1329.8C755.253 1340.05 717.483 1346.6 679.543 1350.88C642.793 1355.02 605.773 1357.39 568.813 1358.51C535.263 1359.54 501.183 1358.8 468.103 1352.67C444.413 1348.28 421.133 1341.02 399.783 1329.99C398.063 1327.29 395.653 1324.98 393.633 1322.45C393.883 1318.38 391.423 1313.84 387.703 1312.4C386.263 1309.19 385.133 1305.85 384.333 1302.42C385.203 1294.02 386.373 1285.66 388.083 1277.26C391.453 1260.8 395.853 1244.57 400.273 1228.37C409.493 1194.56 416.863 1160.86 418.093 1125.71C419.343 1090.11 415.763 1054.63 410.863 1019.42C405.893 983.671 399.923 948.051 393.513 912.541C389.873 892.351 386.363 872.121 382.513 851.961C378.623 831.571 375.553 810.781 370.483 790.641C370.323 789.991 369.263 790.111 369.293 790.811C369.993 808.911 372.493 827.051 374.243 845.081C375.473 857.731 376.803 870.361 378.153 882.991C375.413 882.361 372.453 882.731 369.253 882.791C364.003 882.901 358.753 882.841 353.503 882.871C343.013 882.911 332.513 882.961 322.013 883.011C303.963 883.091 285.843 883.361 267.823 884.661C266.713 884.391 265.593 884.121 264.463 883.781C260.153 882.481 258.773 879.401 258.493 875.091C257.763 864.271 259.313 853.051 259.503 842.191C259.703 830.651 259.633 819.111 259.273 807.581C259.043 800.031 259.783 790.771 255.423 784.211C255.843 778.231 256.353 772.251 256.983 766.291C259.343 743.911 263.373 721.431 270.303 699.981C275.313 684.481 283.533 670.261 295.353 658.961C318.543 636.821 350.613 628.061 380.573 619.281C416.783 608.661 452.863 595.581 485.513 576.421C485.113 577.291 485.363 578.431 486.543 578.671C488.443 579.061 489.843 580.091 490.883 581.501C491.343 583.841 492.023 586.151 492.943 588.411C493.133 588.871 493.373 589.281 493.643 589.641C494.103 593.011 494.153 596.461 494.393 598.891C495.193 607.131 496.683 615.181 498.943 623.141C503.493 639.151 510.623 654.541 520.043 668.271C538.963 695.811 567.213 716.841 599.663 725.341C632.423 733.911 668.753 730.321 698.203 713.161C725.443 697.291 746.553 671.021 752.733 639.781C756.023 623.181 755.493 606.281 752.393 589.701C751.893 587.041 751.343 584.311 750.723 581.561C771.493 599.411 798.133 610.361 823.833 618.811C851.303 627.841 879.463 635.261 904.493 650.231C916.023 657.121 926.963 665.701 934.973 676.611C944.913 690.151 949.203 705.911 951.893 722.291C955.503 744.291 958.133 766.491 960.613 788.641C961.853 799.781 963.003 810.941 964.053 822.101C964.603 828.011 965.133 833.921 965.623 839.841C965.983 844.021 966.383 847.351 967.743 850.521C959.883 852.621 951.923 854.201 943.903 855.621C934.433 857.311 924.793 858.291 915.193 858.881C910.243 859.181 905.283 859.281 900.323 859.361C897.853 859.401 895.383 859.341 892.913 859.361C891.503 859.371 890.353 859.751 889.123 860.001C890.223 824.831 890.583 789.631 888.453 754.511C888.403 753.621 886.963 753.301 886.803 754.291C879.763 795.591 876.043 837.501 873.183 879.271C870.373 920.231 867.423 961.191 864.943 1002.18C862.673 1039.84 861.823 1077.87 868.253 1115.2C871.393 1133.42 876.573 1151.09 883.923 1168.06C891.163 1184.79 901.393 1199.91 909.723 1216.08C917.343 1230.89 922.753 1247.03 919.343 1262.85ZM867.151 1642.8C852.293 1638.49 838.27 1632.31 824.428 1625.43C811.075 1618.8 796.915 1611.74 785.599 1601.95C785.355 1601.74 785.614 1601.3 785.919 1601.41C799.872 1606.39 813.096 1613.78 826.689 1619.74C840.81 1625.93 855.253 1631.34 869.427 1637.41C872.565 1638.75 870.272 1643.71 867.151 1642.8ZM837.403 1715.79C833.753 1718.25 829.743 1720.48 825.583 1721.93C819.933 1723.92 814.213 1724.43 808.523 1723.85C807.673 1713.6 806.633 1703.35 805.383 1693.13C818.193 1699.59 831.593 1704.96 844.973 1710.34C842.323 1711.93 840.043 1714 837.403 1715.79ZM784.927 1662.98C784.544 1667.12 779.025 1667.03 778.552 1662.98C776.408 1644.65 775.335 1626.18 773.494 1607.81C770.231 1575.25 764.833 1543.2 757.41 1511.34C755.536 1503.29 753.581 1495.27 751.419 1487.3C750.298 1483.16 746.487 1475.9 749.051 1471.67C752.205 1466.47 756.566 1473.83 753.199 1474.25C752.856 1474.29 752.859 1473.8 753.124 1473.69C750.506 1474.74 752.325 1477.09 753.012 1478.96C753.673 1480.75 754.352 1482.54 755.009 1484.33C756.322 1487.92 757.603 1491.52 758.848 1495.13C761.545 1502.95 764.075 1510.81 766.313 1518.77C770.688 1534.34 774.534 1550.1 777.493 1566C783.393 1597.71 787.907 1630.69 784.927 1662.98ZM408.043 1757.34C405.933 1756.25 403.393 1755.86 401.153 1756.31C393.773 1757.78 390.843 1762.05 384.513 1765.26C380.793 1767.15 374.363 1768.72 370.463 1768.96C363.973 1769.35 360.223 1768.9 354.273 1767.01C349.943 1765.63 345.223 1763.07 342.003 1760.1C333.433 1752.21 329.203 1741.29 325.453 1730.2C321.323 1717.97 317.773 1705.32 311.413 1694.01C308.213 1688.33 304.153 1682.84 299.313 1678.45C294.713 1674.28 287.303 1671.25 284.173 1665.72C280.943 1660.02 280.673 1651.76 279.713 1645.35C278.753 1638.92 278.053 1632.45 277.593 1625.97C275.803 1600.75 277.483 1573.09 291.523 1551.23C309.153 1523.8 341.073 1515.84 370.663 1508.16C371.113 1512.88 371.653 1517.59 372.303 1522.29C373.093 1528.05 374.053 1533.79 375.163 1539.5C369.833 1543.76 365.143 1549.2 361.873 1553.18C353.923 1562.87 347.993 1573.92 343.903 1585.76C339.963 1597.17 338.023 1609.27 338.373 1621.34C338.553 1627.34 339.473 1633.19 341.163 1638.95C341.633 1640.54 342.193 1642.26 342.863 1643.99C340.773 1647.62 340.383 1652.31 342.813 1655.86C364.523 1687.57 386.233 1719.27 407.943 1750.98C408.943 1752.44 409.943 1753.91 410.943 1755.38C409.963 1756 409.003 1756.66 408.043 1757.34ZM370.513 1506.55C369.003 1506.57 367.493 1506.61 365.973 1506.65C367.453 1506.24 368.933 1505.83 370.413 1505.42C370.443 1505.8 370.473 1506.17 370.513 1506.55ZM369.643 1495.26C356.193 1498.94 342.763 1502.73 329.733 1507.72C322.113 1510.64 313.123 1513.78 305.503 1518.39C303.253 1519.46 301.063 1520.62 298.923 1521.89C299.223 1520.31 299.213 1518.64 298.833 1516.96C297.073 1509.09 295.763 1501.13 294.293 1493.2C294.133 1492.35 293.943 1490.63 293.623 1488.65C295.063 1486.04 296.143 1483.2 297.363 1480.37C299.583 1475.24 301.803 1470.1 304.033 1464.97C308.213 1455.3 312.393 1445.63 316.573 1435.97C325.143 1416.16 333.673 1396.3 341.893 1376.34C347.463 1362.8 353.043 1349.25 358.413 1335.62C359.903 1337.37 362.213 1338.57 365.353 1338.69C380.503 1339.23 382.513 1359.27 381.263 1370.4C380.313 1378.87 378.043 1387.2 376.453 1395.57C374.833 1404.12 373.493 1412.71 372.333 1421.33C369.063 1445.84 368.123 1470.62 369.643 1495.26ZM242.823 1694.41C224.473 1693.34 205.993 1695.1 188.073 1699.14C170.753 1703.04 153.923 1708.87 136.583 1712.75C128.133 1714.64 119.583 1715.94 110.903 1716.14C106.733 1716.23 102.523 1716.12 98.3727 1715.65C97.8527 1715.59 97.1927 1715.41 96.5227 1715.24C97.7127 1711.59 99.8427 1708.52 102.893 1705.45C107.133 1701.18 110.703 1698.82 115.973 1695.44C126.583 1688.64 137.633 1682.48 146.423 1673.28C157.673 1661.49 163.003 1646.37 165.783 1630.58C168.763 1613.66 170.683 1596.56 173.543 1579.62C175.893 1565.63 178.593 1551.64 181.903 1537.82C185.783 1525.65 190.843 1513.87 196.593 1502.41C201.003 1493.63 205.883 1485.13 210.643 1476.55C214.623 1480.24 220.563 1479.56 223.933 1474.79C225.493 1472.58 227.343 1470.44 228.073 1467.78C228.773 1465.25 228.543 1462.33 228.563 1459.74C228.603 1454.87 228.643 1450 228.683 1445.12C228.773 1435.05 228.883 1424.97 229.023 1414.9C229.293 1395.4 229.693 1375.9 230.353 1356.4C231.683 1317.19 233.813 1278 238.233 1239C246.903 1162.43 268.923 1088.27 278.413 1011.83C279.583 1002.43 280.603 992.921 281.353 983.341C285.483 953.951 286.193 924.121 283.413 894.511C315.643 894.231 347.863 895.851 379.913 899.361C383.783 935.371 388.203 971.281 392.773 1007.19C397.253 1042.32 401.093 1077.75 400.683 1113.21C400.483 1130.66 399.293 1148.15 396.423 1165.37C393.653 1182.01 389.443 1198.36 384.963 1214.61C380.463 1230.9 375.623 1247.11 371.653 1263.54C365.633 1278.64 359.083 1293.52 352.343 1308.31C335.343 1345.62 317.763 1382.65 301.113 1420.12C296.313 1430.94 291.563 1441.78 286.783 1452.61C284.393 1458.03 282.003 1463.45 279.613 1468.86C276.923 1474.96 273.443 1480.91 273.473 1487.73C273.493 1491.8 275.913 1494.75 279.063 1496.06C277.723 1503.93 277.283 1511.91 277.193 1519.89C277.143 1524.65 280.273 1528.57 284.413 1530.1C284.403 1531.13 284.373 1532.15 284.323 1533.18C284.263 1533.24 284.203 1533.3 284.143 1533.35C262.413 1555.33 256.503 1587.2 256.683 1617.01C256.773 1632.6 258.363 1648.32 261.023 1663.67C262.653 1673.09 266.763 1680.86 274.303 1686.82C279.633 1691.03 285.693 1695.1 289.163 1700.22C289.873 1701.28 290.543 1702.35 291.183 1703.44C276.283 1697.19 258.493 1695.32 242.823 1694.41ZM490.233 573.571C490.213 574.291 490.213 575.021 490.233 575.741C489.323 575.491 488.363 575.351 487.303 575.361C488.293 574.781 489.253 574.161 490.233 573.571ZM1329.78 1633.17C1327.39 1611.19 1323.78 1589.07 1315.95 1568.31C1308.75 1549.22 1297.98 1531.99 1285.15 1516.2C1272.24 1500.31 1257.44 1486.09 1242.29 1472.36C1226.31 1457.88 1210.11 1443.61 1193.76 1429.55C1161.57 1401.87 1127.99 1375.37 1091.02 1354.41C1091.01 1354.39 1091 1354.37 1090.98 1354.35C1090.92 1354.32 1090.86 1354.3 1090.79 1354.27C1084.78 1350.87 1078.68 1347.59 1072.48 1344.5C1070.97 1343.75 1069.52 1343.8 1068.29 1344.32C1068.26 1344.28 1068.24 1344.23 1068.2 1344.2C1063.77 1340.05 1059.11 1336.35 1054.29 1332.67C1050.3 1325.84 1046.96 1318.65 1044.41 1311.08C1044.16 1310.34 1043.76 1309.74 1043.29 1309.23C1042.29 1306.49 1041.17 1303.77 1040.18 1301.04C1037.48 1293.55 1034.84 1286.04 1032.17 1278.54C1026.83 1263.54 1021.5 1248.53 1016.14 1233.54C1005.43 1203.57 995.143 1173.45 984.763 1143.36C975.013 1115.1 965.013 1086.72 960.063 1057.15C954.933 1026.55 956.103 995.061 955.693 964.161C955.463 946.321 955.353 928.431 954.433 910.621C953.733 897.001 952.833 883.421 950.363 870.071C957.333 869.561 964.273 868.631 971.153 867.441C978.723 866.121 994.533 865.161 994.203 854.341C994.073 850.261 990.953 847.421 987.173 846.381C986.293 846.131 985.403 846.031 984.503 846.021C985.303 839.201 983.633 831.801 982.983 825.061C982.003 814.881 980.943 804.701 979.793 794.541C977.483 774.061 974.823 753.611 971.863 733.211C969.173 714.691 966.423 696.061 957.763 679.211C951.183 666.401 941.413 655.251 930.153 646.351C883.333 609.341 820.003 608.421 770.783 576.201C758.053 567.861 746.663 557.431 738.433 544.551C733.733 537.181 730.583 529.241 728.343 520.811C726.893 515.371 725.533 510.051 723.793 504.701C722.083 499.471 721.603 495.181 718.373 490.571C718.023 490.071 717.273 490.251 717.233 490.871C716.923 495.631 717.783 499.811 718.023 504.551C718.263 509.491 718.103 514.361 718.603 519.331C718.723 520.581 718.873 521.831 719.023 523.071C718.853 523.371 718.713 523.701 718.603 524.061C716.313 531.361 717.563 539.271 721.453 545.581C721.403 546.241 721.453 546.911 721.633 547.581C723.593 554.871 727.153 561.611 729.813 568.681C732.333 575.391 734.473 582.251 736.133 589.231C739.263 602.401 740.483 615.941 739.173 629.441C736.353 658.381 719.183 683.041 695.143 698.751C668.453 716.191 634.603 720.531 603.883 712.971C572.553 705.261 546.643 685.261 528.343 659.051C518.173 644.491 510.393 628.141 505.543 611.061C503.683 604.511 502.583 597.631 500.803 591.031C502.543 590.081 503.593 588.211 502.583 585.751C499.943 579.311 499.523 572.961 501.473 566.361C519.243 554.321 535.753 540.241 549.823 524.021C563.813 507.891 578.313 488.301 584.353 467.581C586.723 459.441 574.513 454.001 570.473 461.731C566.053 470.181 562.433 478.891 557.603 487.151C552.753 495.471 547.203 503.371 541.053 510.781C528.813 525.541 514.583 538.721 499.043 549.961C464.393 575.021 424.343 591.121 383.733 603.711C352.283 613.461 319.383 621.961 293.273 643.081C264.483 666.371 254.573 702.991 249.163 738.151C246.873 753.021 245.543 767.981 244.943 782.991C244.313 784.191 244.163 785.601 244.803 786.921C243.913 815.081 245.533 843.361 248.223 871.401C248.213 874.371 248.433 877.301 249.093 880.081C249.413 883.171 249.743 886.261 250.083 889.341C250.163 890.121 250.543 890.651 251.283 890.921C254.123 891.941 256.963 892.551 259.833 892.741C260.323 892.911 260.823 893.061 261.323 893.201C262.123 894.231 263.383 894.921 265.113 894.871C266.103 894.841 267.093 894.821 268.073 894.791C269.203 895.111 270.303 895.501 271.343 896.051C272.123 896.461 272.893 896.641 273.623 896.661C274.883 910.971 275.323 925.321 274.953 939.631C273.843 959.781 271.353 979.841 267.423 999.931C260.133 1037.21 249.543 1073.83 239.873 1110.54C219.913 1186.25 210.683 1263.7 207.113 1341.8C206.103 1363.87 205.623 1385.98 205.263 1408.07C205.083 1418.8 204.953 1429.52 204.843 1440.25C204.793 1445.77 204.743 1451.29 204.693 1456.82C204.663 1459.4 204.483 1462.04 204.653 1464.61C204.693 1465.25 204.783 1465.84 204.893 1466.42C204.883 1466.44 204.873 1466.46 204.863 1466.49C194.403 1480.74 186.433 1497.18 179.453 1513.35C172.313 1529.87 166.243 1546.85 161.553 1564.23C156.853 1581.64 153.443 1599.22 150.163 1616.94C147.423 1631.71 144.243 1648.08 132.843 1658.84C124.233 1666.96 112.233 1672.43 102.063 1679.02C90.4627 1686.54 80.0727 1695.73 75.5027 1709.17C72.3227 1718.49 73.8627 1729.18 83.2827 1734.06C91.3927 1738.26 102.893 1737.94 111.803 1737.53C130.633 1736.65 148.953 1731.55 166.993 1726.43C186.823 1720.8 206.473 1715.66 227.193 1715.1C237.573 1714.82 248.063 1715.31 258.323 1716.93C268.983 1718.6 279.203 1722.16 289.813 1723.86C293.343 1724.44 296.873 1723.69 299.223 1721.29C305.973 1740.37 309.843 1761.16 325.313 1775.87C337.213 1787.17 354.133 1792.94 370.463 1791.99C379.273 1791.47 387.633 1789.32 395.573 1785.46C399.373 1783.61 402.803 1781.22 406.093 1778.57C408.113 1776.95 409.523 1775.2 410.503 1773.26C413.463 1771.46 416.383 1769.6 419.263 1767.69C435.553 1791.91 451.743 1816.33 469.933 1839.1C490.513 1864.86 515.363 1885.93 546.333 1897.95C575.203 1909.15 607.143 1911.36 637.773 1908.75C670.093 1905.99 701.853 1898.64 732.843 1889.26C747.983 1884.68 763.703 1880.45 778.063 1873.72C793.393 1866.54 804.003 1853.9 807.603 1837.26C811.143 1820.9 810.723 1803.41 810.843 1786.76C810.963 1769.58 810.543 1752.36 809.383 1735.22C809.373 1735.17 809.373 1735.13 809.373 1735.08C815.013 1737.36 821.143 1738.57 827.193 1738.88C833.273 1739.19 839.593 1738.42 845.293 1736.24C852.093 1733.65 861.493 1729.38 862.733 1721.29C862.923 1720.11 862.933 1718.86 862.783 1717.63C866.923 1719.38 871.043 1721.18 875.103 1723.07C887.823 1728.97 900.503 1734.99 912.983 1741.38C919.223 1744.57 925.353 1748.08 931.693 1751.07C933.393 1751.87 935.103 1752.76 936.833 1753.66C943.143 1757.87 949.393 1762.17 955.613 1766.55C973.203 1778.94 990.583 1791.62 1008.25 1803.88C1026.42 1816.49 1044.94 1828.94 1065.09 1838.18C1085.77 1847.67 1107.75 1853.71 1130.66 1852.86C1155.11 1851.96 1178.94 1845.05 1202.48 1838.98C1214.24 1835.96 1226 1832.93 1237.76 1829.9C1239.4 1830.63 1241.39 1830.52 1243.05 1828.89C1243.21 1828.73 1243.37 1828.57 1243.53 1828.41C1245.22 1827.98 1246.91 1827.54 1248.6 1827.11C1249.34 1826.09 1250.06 1825.05 1250.79 1824.02C1263.72 1817.92 1274.55 1806.95 1282.77 1794.78C1283.39 1794.25 1284.02 1793.74 1284.63 1793.2C1299.17 1780.44 1310.41 1764.61 1317.96 1746.82C1333.05 1711.26 1333.89 1671.05 1329.78 1633.17Z" fill="black"/>
<path fill-rule="evenodd" clip-rule="evenodd" d="M864.617 424.844C860.653 418.982 851.108 376.442 845.011 369.899C845.471 344.769 852.418 257.762 832.575 218.65C836.749 214.429 847.841 178.074 845.011 164.331C854.359 135.549 794.306 89.8356 771.451 77.4828C665.23 20.5241 511.308 83.3968 463.001 188.912C433.972 252.457 433.437 323.603 430.155 391.978C429.767 406.614 428.422 421.364 428.437 435.982C430.536 448.827 440.721 461.908 433 472.589C424.471 478.488 407.233 492.86 414.908 501.01C419.406 504.755 426.591 502.582 431.472 506.183C433.957 507.573 435.507 510.62 438.413 511.083C464.959 510.075 483.692 509.989 510.32 508.913C521.977 508.531 539.727 513.462 553.107 503.646C599.845 529.642 580.295 491.927 589.746 465.075C618.526 474.806 675.856 505.837 706.533 506.839C731.462 509.92 754.773 495.402 779.281 498.707C809.728 510.018 845.41 512.533 873.299 493.395C880.259 488.383 888.002 494.189 896.774 488.776C913.823 480.623 873.221 433.889 864.617 424.844Z" fill="white"/>
<path fill-rule="evenodd" clip-rule="evenodd" d="M829.823 215.312C829.445 213.141 832.436 211.522 833.593 213.722C841.998 229.703 845.365 248.211 848.342 265.863C851.349 283.701 853.336 301.613 853.446 319.721C853.53 333.65 852.265 347.74 849.89 361.679L850.179 362.671C850.712 364.493 851.25 366.314 851.794 368.133L852.615 370.861C854.201 376.099 855.703 381.361 857.332 386.586C860.733 397.491 864.314 408.427 868.7 418.98C872.98 429.278 878.185 439.209 884.372 448.491C890.335 457.439 899.798 465.005 903.999 474.943C905.463 478.406 903.298 482.984 899.254 482.431C898.991 482.748 898.59 482.978 898.046 483.026C894.906 483.3 891.963 483.039 888.83 482.745C887.081 482.581 887.084 480.19 888.83 480.026C890.161 479.901 891.457 479.791 892.752 479.716C883.792 474.407 877.4 464.04 872.289 455.553C865.721 444.649 860.76 432.735 856.716 420.687C852.563 408.317 849.622 395.689 847.259 382.867C846.988 381.391 846.73 379.914 846.482 378.435C843.496 391.128 839.651 403.589 835.094 415.565L834.455 417.232C823.95 444.466 809.722 471.961 786.057 489.961C784.983 490.777 783.886 491.552 782.78 492.31L784.126 493.082C785.466 493.847 786.786 494.581 788.077 495.183C792.859 497.414 798.05 499.115 803.185 500.32C813.791 502.811 824.929 502.097 835.749 502.444C839.298 502.558 841.317 507.879 837.689 509.607C825.738 515.298 812.83 514.09 800.494 510.086C794.39 508.103 788.662 505.328 783.363 501.705C781.172 500.208 778.628 498.36 776.48 496.224C752.813 509.466 723.397 510.948 697.055 506.212C683.366 503.75 670.101 499.255 658.43 491.566C647.204 484.172 639.202 474.81 633.489 462.681C632.982 461.606 634.391 460.267 635.256 461.318C653.201 483.113 684.083 492.207 711.251 493.937C725.747 494.861 740.576 494.093 754.513 489.756C767.734 485.64 779.078 478.096 788.55 468.063C807.749 447.726 819.253 420.06 827.515 393.731C836.503 365.088 840.783 334.952 841.666 304.976C842.113 289.789 841.55 274.474 839.165 259.455C836.799 244.56 832.408 230.144 829.823 215.312ZM560.772 86.2817C562.043 85.6357 562.938 87.3167 561.86 88.1437C539.483 105.305 519.443 127.065 503.223 150.096C473.31 192.573 454.126 241.727 445.292 292.803C440.076 322.966 438.714 353.586 439.235 384.151C439.441 396.292 440.135 408.397 440.906 420.505L441.777 433.927C442.181 440.18 442.519 446.38 442.258 452.664L442.187 454.116C441.773 461.428 442.492 468.799 440.658 475.932C439.717 479.59 434.558 480.166 432.69 476.973C432.324 476.348 431.982 475.703 431.65 475.052C427.272 482.192 421.602 488.575 415.311 494.277C418.318 493.637 421.354 493.229 424.471 493.602C429.412 494.194 433.844 496.102 436.98 499.446C440.093 498.043 443.294 497.077 446.975 497.057C449.686 497.043 451.719 500.248 450.172 502.629C447.086 507.381 442.78 510.045 437.887 512.678C434.419 514.544 430.281 512.948 429 509.258L428.927 509.034C427.486 504.366 419.822 505.12 416.206 505.842L415.142 506.059C408.411 507.46 401.838 509.252 394.981 507.404C390.558 506.211 389.402 499.553 393.666 497.343C407.136 490.363 418.444 480.987 430.065 471.573C427.499 465.282 426.042 458.253 424.362 451.856C421.997 442.852 421.306 433.164 420.452 423.915C418.829 406.33 418.21 388.554 418.384 370.9C418.973 311.272 429.171 251.459 455.22 197.464C466.632 173.811 481.624 151.924 499.345 132.551C516.961 113.292 537.536 98.0837 560.772 86.2817ZM539.917 378.296C539.226 377.338 540.575 376.071 541.521 376.692C562.002 390.145 576.215 410.573 585.386 433.014C594.464 455.231 600.038 482.444 591.085 505.612C589.66 509.302 582.835 510.672 582.136 505.612C579.015 483.016 578.53 460.388 571.667 438.42C564.863 416.643 553.221 396.701 539.917 378.296ZM524.036 451.652C524.148 451.253 524.8 451.322 524.772 451.752C524.259 459.72 523.911 467.785 522.909 475.709C522.422 479.56 521.778 483.386 521.23 487.228C520.668 491.168 520.753 495.146 518.462 498.511C515.426 502.972 507.36 501.717 507.631 495.578C507.818 491.343 509.764 488.625 511.587 484.908C512.757 482.525 513.776 480.062 514.758 477.587L516.218 473.875C519.12 466.514 521.897 459.277 524.036 451.652ZM487.361 430.545C487.485 429.918 488.496 430.069 488.466 430.694C487.919 441.972 486.647 453.123 484.655 464.236C483.747 469.301 482.688 474.338 481.568 479.361L481.084 481.513C479.886 486.803 479.113 493.022 476.429 497.748C473.747 502.471 467.379 499.041 468.204 494.28C469.168 488.722 472.579 483.131 474.562 477.793C476.392 472.865 477.992 467.85 479.487 462.811C482.634 452.204 485.215 441.398 487.361 430.545ZM555.658 461.855L555.896 461.61C556.828 460.597 558.218 461.272 558.663 462.341C560.485 466.722 559.573 471.888 559.443 476.539L559.419 477.554C559.322 482.265 559.389 486.678 557.253 491.027C554.659 496.308 547.824 493.028 547.295 488.33C546.717 483.203 549.142 478.184 550.708 473.382C551.703 470.33 552.428 467.156 553.941 464.386C552.647 464.609 551.355 465.056 550.172 465.379C549.642 465.522 549.442 464.744 549.948 464.564C551.904 463.872 554.112 463.352 555.658 461.855ZM828.316 477.402C827.691 476.703 828.47 475.772 829.281 476.15C839.021 480.699 848.132 483.658 858.879 484.627C863.535 485.047 863.565 492.363 858.879 491.939C847.663 490.929 835.908 485.9 828.316 477.402ZM485.641 323.709C494.216 304.42 521.344 287.309 539.535 305.247C539.876 305.582 539.529 306.313 539.034 306.108C527.719 301.419 513.867 307.383 506.036 315.913C499.823 322.679 496.09 331.367 495.349 340.524C494.608 349.689 496.799 359.255 502.886 366.344C506.079 370.063 510.391 373.583 515.465 374.03C520.588 374.481 524.858 370.873 529.701 369.893C533.352 369.155 536.108 371.446 536.466 375.045C537.255 382.988 529.347 388.319 522.492 389.614C515.118 391.006 507.592 389.485 501.238 385.489C480.716 372.583 476.289 344.748 485.641 323.709ZM678.186 134.646C681.915 131.082 688.258 134.625 686.883 139.709C683.956 150.529 677.737 159.674 670.848 168.354C664.218 176.705 657.117 184.73 649.505 192.199C641.943 199.619 633.727 206.485 625.092 212.618L622.491 214.46C616.371 218.774 609.889 223.137 603.038 226.244C601.384 240.494 598.148 254.554 593.253 268.015C588.537 280.977 582.537 293.504 575.268 305.227L574.224 306.906C567.543 317.613 559.51 329.578 548.173 335.447C547.833 335.624 547.492 335.732 547.156 335.795C549.692 337.486 551.835 339.613 553.109 342.669C554.505 346.015 551.587 349.172 548.79 350.277C542.876 352.614 537.105 348.658 531.788 344.438C531.563 344.944 531.352 345.455 531.169 345.97C529.98 349.34 529.63 352.784 526.564 355.02C525.107 356.083 523.312 355.132 522.395 353.928C519.389 349.978 522.501 344.597 525.145 341.369C525.51 340.923 525.888 340.499 526.277 340.092C525.16 339.271 524.07 338.543 523.014 337.984C516.805 334.696 507.601 334.113 504.026 341.392C503.752 341.951 502.891 341.662 502.891 341.084C502.9 332.143 512.059 327.287 520.007 326.627C525.815 326.145 531.431 328.182 536.658 330.553L537.633 331.001C539.578 331.904 541.582 332.756 543.501 333.709C543.188 332.886 543.193 331.918 543.684 330.958C549.695 319.219 560.018 309.673 567.462 298.801C574.843 288.015 581.181 276.472 586.24 264.419C591.15 252.72 594.997 240.654 597.688 228.347C596.801 228.53 595.802 227.741 595.865 226.816C596.015 224.578 597.11 222.562 599.033 221.703C601.151 210.127 602.232 198.355 602.169 186.488C602.164 185.568 603.497 185.601 603.576 186.488C604.511 197.039 604.587 207.693 603.801 218.285C608.803 213.683 614.077 209.308 618.893 204.584C626.14 197.476 633.151 190.178 639.914 182.609C646.814 174.887 653.336 166.881 659.301 158.41L662.422 153.968C667.22 147.158 672.15 140.419 678.186 134.646ZM668.777 58.6203C709.933 56.0513 753.887 61.1093 790.855 80.4283C811.158 91.0373 826.851 107.072 838.064 127.027C844.759 138.943 849.838 152.138 851.762 165.704C853.738 179.643 851.418 192.072 842.518 203.152C838.983 207.552 833.029 202.637 833.9 198.135C839.228 170.591 830.586 143.377 815.259 120.574C793.018 87.4843 754.177 72.7853 716.36 66.2283C697.78 63.0083 678.935 61.6623 660.085 62.3173C645.714 62.8173 630.972 64.1563 617.334 68.9913C616.759 69.1953 616.53 68.2993 617.084 68.0883C633.352 61.8753 651.512 59.6983 668.777 58.6203ZM729.815 120.903C731.934 119.56 734.526 120.938 735.254 123.117C737.822 130.799 732.44 140.948 728.84 147.596C724.766 155.119 719.527 162.153 714.117 168.76C703.294 181.974 689.069 193 673.459 199.93C672.503 200.355 671.389 199.201 672.266 198.385C684.344 187.138 695.295 175.08 704.775 161.553C709.433 154.906 713.318 147.894 717.028 140.691C720.348 134.245 723.47 124.925 729.815 120.903ZM799.033 129.953C800.387 125.225 808.099 126.03 807.78 131.137C806.955 144.33 800.731 157.573 793.968 168.754C787.004 180.267 778.185 190.527 768.076 199.388C767.578 199.825 766.896 199.152 767.347 198.659C776.069 189.111 783.114 178.235 788.331 166.399C793.542 154.58 795.509 142.248 799.033 129.953ZM760.703 127.817C762.178 123.706 769.238 124.011 768.805 128.914C767.615 142.392 759.705 156.517 752.379 167.649C744.605 179.46 734.682 189.865 723.592 198.604C723.177 198.931 722.59 198.389 722.995 198.007C732.956 188.622 741.034 177.781 747.429 165.689C750.693 159.519 753.431 153.094 755.593 146.457C757.593 140.317 758.532 133.869 760.703 127.817Z" fill="black"/>
<path fill-rule="evenodd" clip-rule="evenodd" d="M674.281 390.29C686.527 376.06 707.152 375.069 724.237 378.627C735.201 380.911 745.876 384.715 757.012 386.125C762.213 386.784 767.47 386.981 772.709 386.884C777.855 386.789 783.009 385.752 788.137 385.945C788.925 385.974 789.223 387.009 788.54 387.43C781.505 391.751 772.028 393.137 763.718 393.982C763.744 394.597 763.781 395.197 763.866 395.706C764.093 397.063 764.3 398.411 764.467 399.777C764.844 402.858 765.266 405.929 765.687 409.004C766.517 415.056 766.778 421.299 768.237 427.245L768.492 428.234C768.83 429.484 768.907 430.611 768.794 431.627L769.132 431.474L770.199 430.957L770.899 430.626C773.453 429.442 775.89 428.58 778.893 428.868C781.179 429.086 783.098 430.645 783.112 433.086C783.169 444.041 768.405 447.564 759.96 449.661L757.483 450.271C746.734 452.893 735.758 455.191 724.703 455.741C706.961 456.622 687.024 451.728 675.418 437.337C664.589 423.91 662.604 403.858 674.281 390.29ZM754.852 436.318C752.99 419.824 732.722 418.917 726.891 429.377C724.304 414.798 686.028 428.117 689.021 431.015C700.365 442.001 717.58 442.99 732.379 440.958C739.916 439.923 747.459 438.238 754.852 436.318ZM732.358 393.088L727.262 392.355L725.255 392.078C712.623 390.387 698.416 389.513 688.03 397.612C684.238 400.568 682.104 404.424 681.307 408.566C691.135 407.109 700.998 405.998 710.891 405.073L713.59 404.825C719.78 404.267 725.967 403.679 732.151 403.062L736.546 402.617L740.939 402.161C742.485 401.999 752.904 401.466 754.863 401.824C755.072 400.064 755.345 396.255 755.787 394.542C748.385 394.793 741.015 394.243 733.656 393.265L732.358 393.088ZM755.814 319.367C763.366 323.957 774.872 334.66 766.748 346.04C757.186 356.073 743.419 344.569 736.634 339.366C730.343 335.334 723.275 345.705 729.112 350.413C778.136 386.708 798.031 320.567 759.634 313.97C755.406 313.243 753.836 317.947 755.814 319.367ZM769.328 338.704L769.691 338.507L769.814 338.432C770.026 338.295 769.891 338.31 769.408 338.477L769.046 338.607V338.863C769.139 338.806 769.238 338.763 769.328 338.704ZM672.617 297.924L672.616 297.699C672.63 291.322 676.344 276.762 685.524 276.762C691.259 276.762 694.741 286.671 695.344 296.886L695.365 297.302C695.631 303.653 693.888 317.534 685.524 317.534C677.072 317.534 672.704 304.387 672.617 297.924ZM807.773 295.924L807.774 295.699C807.76 289.322 804.046 274.762 794.866 274.762C789.274 274.762 785.824 284.182 785.097 294.12L785.046 294.886C784.684 301.022 786.314 315.534 794.866 315.534C803.318 315.534 807.686 302.387 807.773 295.924ZM677.855 233.285C685.347 232.146 695.268 234.31 698.761 241.928C700.317 245.322 698.474 249.075 694.551 249.263C685.07 249.717 676.567 247.607 668.245 253.772C664.664 256.426 661.653 260.1 659.126 263.764L658.17 265.159L657.378 266.308C655.662 268.831 654.037 271.571 654.291 274.615C654.366 275.516 653.445 276.371 652.57 276.335C647.116 276.111 646.529 269.273 647.246 265.166C648.58 257.544 652.269 250.389 657.382 244.626C662.752 238.574 669.841 234.504 677.855 233.285ZM781.044 242.535C786.21 239.214 792.818 237.938 798.87 238.427C810.803 239.388 830.822 249.532 828.187 264.107C827.374 268.602 821.122 270.974 817.438 268.48C813.477 265.799 812.513 261.632 809.565 258.128C807.213 255.329 804.232 253.304 801.04 251.579C797.894 249.878 794.254 248.847 790.684 248.471L790.089 248.414C787.94 248.231 777.088 248.28 778.681 252.331C778.993 253.124 777.813 253.752 777.271 253.152C773.944 249.472 777.712 244.677 781.044 242.535Z" fill="black"/>
</svg>
