<?xml version="1.0" encoding="utf-8"?>
<svg xmlns="http://www.w3.org/2000/svg" xmlns:xlink="http://www.w3.org/1999/xlink" style="background: rgb(249, 90, 44); display: block; position: relative; shape-rendering: auto;" width="76" height="76" preserveAspectRatio="xMidYMid" viewBox="0 0 76 76"><g transform="scale(0.30000000000000004)" data-fill="c1" style="fill: rgb(255, 189, 18);">
<!-- Generator: Adobe Illustrator 21.0.0, SVG Export Plug-In . SVG Version: 6.00 Build 0)  -->


<g data-idx="0" data-dup="" dx="-384" dy="-128" style="transform-origin: -224px -59.2745px; animation: 1s linear 0s infinite normal forwards running slide-ltr-65ddb7f9-4d4d-40c7-889d-b26b7b4d41ab;"><g transform="translate(-384,-128)"><path fill="none" stroke="#000000" stroke-width="8" stroke-linecap="round" stroke-linejoin="round" stroke-miterlimit="10" d="
	M173.432,32.831c-1.41,5.261-8.528,3.354-9.938,8.616c-1.41,5.262,5.709,7.169,4.299,12.431c-1.41,5.263-8.529,3.356-9.939,8.619
	c-1.411,5.265,5.708,7.172,4.297,12.437c-1.41,5.263-8.529,3.356-9.939,8.619c-1.411,5.267,5.707,7.174,4.296,12.441
	c-1.411,5.267-8.53,3.359-9.941,8.626" data-stroke="c1" style="stroke: rgb(255, 189, 18);"></path></g></g><g data-idx="0" data-dup="" dx="-128" dy="-128" style="transform-origin: 31.9995px -59.2745px; animation: 1s linear 0s infinite normal forwards running slide-ltr-65ddb7f9-4d4d-40c7-889d-b26b7b4d41ab;"><g transform="translate(-128,-128)"><path fill="none" stroke="#000000" stroke-width="8" stroke-linecap="round" stroke-linejoin="round" stroke-miterlimit="10" d="
	M173.432,32.831c-1.41,5.261-8.528,3.354-9.938,8.616c-1.41,5.262,5.709,7.169,4.299,12.431c-1.41,5.263-8.529,3.356-9.939,8.619
	c-1.411,5.265,5.708,7.172,4.297,12.437c-1.41,5.263-8.529,3.356-9.939,8.619c-1.411,5.267,5.707,7.174,4.296,12.441
	c-1.411,5.267-8.53,3.359-9.941,8.626" data-stroke="c1" style="stroke: rgb(255, 189, 18);"></path></g></g><g data-idx="0" data-dup="" dx="128" dy="-128" style="transform-origin: 288px -59.2745px; animation: 1s linear 0s infinite normal forwards running slide-ltr-65ddb7f9-4d4d-40c7-889d-b26b7b4d41ab;"><g transform="translate(128,-128)"><path fill="none" stroke="#000000" stroke-width="8" stroke-linecap="round" stroke-linejoin="round" stroke-miterlimit="10" d="
	M173.432,32.831c-1.41,5.261-8.528,3.354-9.938,8.616c-1.41,5.262,5.709,7.169,4.299,12.431c-1.41,5.263-8.529,3.356-9.939,8.619
	c-1.411,5.265,5.708,7.172,4.297,12.437c-1.41,5.263-8.529,3.356-9.939,8.619c-1.411,5.267,5.707,7.174,4.296,12.441
	c-1.411,5.267-8.53,3.359-9.941,8.626" data-stroke="c1" style="stroke: rgb(255, 189, 18);"></path></g></g><g data-idx="1" data-dup="" dx="-384" dy="-128" style="transform-origin: -169.168px 33.686px; animation: 1s linear 0s infinite normal forwards running slide-ltr-65ddb7f9-4d4d-40c7-889d-b26b7b4d41ab;"><g transform="translate(-384,-128)"><path fill="none" stroke="#777777" stroke-width="8" stroke-linecap="round" stroke-linejoin="round" stroke-miterlimit="10" d="
	M228.264,125.792c-1.41,5.261-8.528,3.354-9.938,8.616c-1.41,5.262,5.708,7.169,4.299,12.43c-1.41,5.263-8.529,3.356-9.939,8.619
	c-1.411,5.265,5.708,7.172,4.297,12.437c-1.41,5.263-8.529,3.356-9.939,8.619c-1.411,5.267,5.707,7.174,4.296,12.441
	s-8.53,3.359-9.941,8.626" data-stroke="c2" style="stroke: rgb(214, 214, 214);"></path></g></g><g data-idx="1" data-dup="" dx="-128" dy="-128" style="transform-origin: 86.8315px 33.686px; animation: 1s linear 0s infinite normal forwards running slide-ltr-65ddb7f9-4d4d-40c7-889d-b26b7b4d41ab;"><g transform="translate(-128,-128)"><path fill="none" stroke="#777777" stroke-width="8" stroke-linecap="round" stroke-linejoin="round" stroke-miterlimit="10" d="
	M228.264,125.792c-1.41,5.261-8.528,3.354-9.938,8.616c-1.41,5.262,5.708,7.169,4.299,12.43c-1.41,5.263-8.529,3.356-9.939,8.619
	c-1.411,5.265,5.708,7.172,4.297,12.437c-1.41,5.263-8.529,3.356-9.939,8.619c-1.411,5.267,5.707,7.174,4.296,12.441
	s-8.53,3.359-9.941,8.626" data-stroke="c2" style="stroke: rgb(214, 214, 214);"></path></g></g><g data-idx="1" data-dup="" dx="128" dy="-128" style="transform-origin: 342.832px 33.686px; animation: 1s linear 0s infinite normal forwards running slide-ltr-65ddb7f9-4d4d-40c7-889d-b26b7b4d41ab;"><g transform="translate(128,-128)"><path fill="none" stroke="#777777" stroke-width="8" stroke-linecap="round" stroke-linejoin="round" stroke-miterlimit="10" d="
	M228.264,125.792c-1.41,5.261-8.528,3.354-9.938,8.616c-1.41,5.262,5.708,7.169,4.299,12.43c-1.41,5.263-8.529,3.356-9.939,8.619
	c-1.411,5.265,5.708,7.172,4.297,12.437c-1.41,5.263-8.529,3.356-9.939,8.619c-1.411,5.267,5.707,7.174,4.296,12.441
	s-8.53,3.359-9.941,8.626" data-stroke="c2" style="stroke: rgb(214, 214, 214);"></path></g></g><g data-idx="2" data-dup="" dx="-384" dy="-128" style="transform-origin: -288.001px 68.725px; animation: 1s linear 0s infinite normal forwards running slide-ltr-65ddb7f9-4d4d-40c7-889d-b26b7b4d41ab;"><g transform="translate(-384,-128)"><path fill="none" stroke="#000000" stroke-width="8" stroke-linecap="round" stroke-linejoin="round" stroke-miterlimit="10" d="
	M109.432,160.831c-1.41,5.261-8.528,3.354-9.938,8.616c-1.41,5.262,5.709,7.169,4.299,12.43c-1.41,5.263-8.529,3.356-9.939,8.619
	c-1.411,5.265,5.708,7.172,4.297,12.437c-1.41,5.263-8.529,3.356-9.939,8.619c-1.411,5.267,5.707,7.174,4.296,12.441
	s-8.53,3.359-9.941,8.626" data-stroke="c1" style="stroke: rgb(255, 189, 18);"></path></g></g><g data-idx="2" data-dup="" dx="-128" dy="-128" style="transform-origin: -32.0005px 68.725px; animation: 1s linear 0s infinite normal forwards running slide-ltr-65ddb7f9-4d4d-40c7-889d-b26b7b4d41ab;"><g transform="translate(-128,-128)"><path fill="none" stroke="#000000" stroke-width="8" stroke-linecap="round" stroke-linejoin="round" stroke-miterlimit="10" d="
	M109.432,160.831c-1.41,5.261-8.528,3.354-9.938,8.616c-1.41,5.262,5.709,7.169,4.299,12.43c-1.41,5.263-8.529,3.356-9.939,8.619
	c-1.411,5.265,5.708,7.172,4.297,12.437c-1.41,5.263-8.529,3.356-9.939,8.619c-1.411,5.267,5.707,7.174,4.296,12.441
	s-8.53,3.359-9.941,8.626" data-stroke="c1" style="stroke: rgb(255, 189, 18);"></path></g></g><g data-idx="2" data-dup="" dx="128" dy="-128" style="transform-origin: 223.999px 68.725px; animation: 1s linear 0s infinite normal forwards running slide-ltr-65ddb7f9-4d4d-40c7-889d-b26b7b4d41ab;"><g transform="translate(128,-128)"><path fill="none" stroke="#000000" stroke-width="8" stroke-linecap="round" stroke-linejoin="round" stroke-miterlimit="10" d="
	M109.432,160.831c-1.41,5.261-8.528,3.354-9.938,8.616c-1.41,5.262,5.709,7.169,4.299,12.43c-1.41,5.263-8.529,3.356-9.939,8.619
	c-1.411,5.265,5.708,7.172,4.297,12.437c-1.41,5.263-8.529,3.356-9.939,8.619c-1.411,5.267,5.707,7.174,4.296,12.441
	s-8.53,3.359-9.941,8.626" data-stroke="c1" style="stroke: rgb(255, 189, 18);"></path></g></g><g data-idx="3" data-dup="" dx="-384" dy="-128" style="transform-origin: -340.992px -29.848px; animation: 1s linear 0s infinite normal forwards running slide-ltr-65ddb7f9-4d4d-40c7-889d-b26b7b4d41ab;"><g transform="translate(-384,-128)"><path fill="none" stroke="#777777" stroke-width="8" stroke-linecap="round" stroke-linejoin="round" stroke-miterlimit="10" d="
	M56.44,62.258c-1.41,5.261-8.528,3.354-9.938,8.616c-1.41,5.262,5.709,7.169,4.299,12.43c-1.41,5.263-8.529,3.356-9.939,8.619
	c-1.411,5.265,5.708,7.172,4.297,12.437c-1.41,5.263-8.529,3.356-9.939,8.619c-1.411,5.267,5.707,7.174,4.296,12.441
	c-1.411,5.267-8.53,3.359-9.941,8.626" data-stroke="c2" style="stroke: rgb(214, 214, 214);"></path></g></g><g data-idx="3" data-dup="" dx="-128" dy="-128" style="transform-origin: -84.9925px -29.848px; animation: 1s linear 0s infinite normal forwards running slide-ltr-65ddb7f9-4d4d-40c7-889d-b26b7b4d41ab;"><g transform="translate(-128,-128)"><path fill="none" stroke="#777777" stroke-width="8" stroke-linecap="round" stroke-linejoin="round" stroke-miterlimit="10" d="
	M56.44,62.258c-1.41,5.261-8.528,3.354-9.938,8.616c-1.41,5.262,5.709,7.169,4.299,12.43c-1.41,5.263-8.529,3.356-9.939,8.619
	c-1.411,5.265,5.708,7.172,4.297,12.437c-1.41,5.263-8.529,3.356-9.939,8.619c-1.411,5.267,5.707,7.174,4.296,12.441
	c-1.411,5.267-8.53,3.359-9.941,8.626" data-stroke="c2" style="stroke: rgb(214, 214, 214);"></path></g></g><g data-idx="3" data-dup="" dx="128" dy="-128" style="transform-origin: 171.007px -29.848px; animation: 1s linear 0s infinite normal forwards running slide-ltr-65ddb7f9-4d4d-40c7-889d-b26b7b4d41ab;"><g transform="translate(128,-128)"><path fill="none" stroke="#777777" stroke-width="8" stroke-linecap="round" stroke-linejoin="round" stroke-miterlimit="10" d="
	M56.44,62.258c-1.41,5.261-8.528,3.354-9.938,8.616c-1.41,5.262,5.709,7.169,4.299,12.43c-1.41,5.263-8.529,3.356-9.939,8.619
	c-1.411,5.265,5.708,7.172,4.297,12.437c-1.41,5.263-8.529,3.356-9.939,8.619c-1.411,5.267,5.707,7.174,4.296,12.441
	c-1.411,5.267-8.53,3.359-9.941,8.626" data-stroke="c2" style="stroke: rgb(214, 214, 214);"></path></g></g><g data-idx="0" data-dup="" dx="-384" dy="128" style="transform-origin: -224px 196.725px; animation: 1s linear 0s infinite normal forwards running slide-ltr-65ddb7f9-4d4d-40c7-889d-b26b7b4d41ab;"><g transform="translate(-384,128)"><path fill="none" stroke="#000000" stroke-width="8" stroke-linecap="round" stroke-linejoin="round" stroke-miterlimit="10" d="
	M173.432,32.831c-1.41,5.261-8.528,3.354-9.938,8.616c-1.41,5.262,5.709,7.169,4.299,12.431c-1.41,5.263-8.529,3.356-9.939,8.619
	c-1.411,5.265,5.708,7.172,4.297,12.437c-1.41,5.263-8.529,3.356-9.939,8.619c-1.411,5.267,5.707,7.174,4.296,12.441
	c-1.411,5.267-8.53,3.359-9.941,8.626" data-stroke="c1" style="stroke: rgb(255, 189, 18);"></path></g></g><g data-idx="0" data-dup="" dx="-128" dy="128" style="transform-origin: 31.9995px 196.725px; animation: 1s linear 0s infinite normal forwards running slide-ltr-65ddb7f9-4d4d-40c7-889d-b26b7b4d41ab;"><g transform="translate(-128,128)"><path fill="none" stroke="#000000" stroke-width="8" stroke-linecap="round" stroke-linejoin="round" stroke-miterlimit="10" d="
	M173.432,32.831c-1.41,5.261-8.528,3.354-9.938,8.616c-1.41,5.262,5.709,7.169,4.299,12.431c-1.41,5.263-8.529,3.356-9.939,8.619
	c-1.411,5.265,5.708,7.172,4.297,12.437c-1.41,5.263-8.529,3.356-9.939,8.619c-1.411,5.267,5.707,7.174,4.296,12.441
	c-1.411,5.267-8.53,3.359-9.941,8.626" data-stroke="c1" style="stroke: rgb(255, 189, 18);"></path></g></g><g data-idx="0" data-dup="" dx="128" dy="128" style="transform-origin: 288px 196.725px; animation: 1s linear 0s infinite normal forwards running slide-ltr-65ddb7f9-4d4d-40c7-889d-b26b7b4d41ab;"><g transform="translate(128,128)"><path fill="none" stroke="#000000" stroke-width="8" stroke-linecap="round" stroke-linejoin="round" stroke-miterlimit="10" d="
	M173.432,32.831c-1.41,5.261-8.528,3.354-9.938,8.616c-1.41,5.262,5.709,7.169,4.299,12.431c-1.41,5.263-8.529,3.356-9.939,8.619
	c-1.411,5.265,5.708,7.172,4.297,12.437c-1.41,5.263-8.529,3.356-9.939,8.619c-1.411,5.267,5.707,7.174,4.296,12.441
	c-1.411,5.267-8.53,3.359-9.941,8.626" data-stroke="c1" style="stroke: rgb(255, 189, 18);"></path></g></g><g data-idx="1" data-dup="" dx="-384" dy="128" style="transform-origin: -169.168px 289.686px; animation: 1s linear 0s infinite normal forwards running slide-ltr-65ddb7f9-4d4d-40c7-889d-b26b7b4d41ab;"><g transform="translate(-384,128)"><path fill="none" stroke="#777777" stroke-width="8" stroke-linecap="round" stroke-linejoin="round" stroke-miterlimit="10" d="
	M228.264,125.792c-1.41,5.261-8.528,3.354-9.938,8.616c-1.41,5.262,5.708,7.169,4.299,12.43c-1.41,5.263-8.529,3.356-9.939,8.619
	c-1.411,5.265,5.708,7.172,4.297,12.437c-1.41,5.263-8.529,3.356-9.939,8.619c-1.411,5.267,5.707,7.174,4.296,12.441
	s-8.53,3.359-9.941,8.626" data-stroke="c2" style="stroke: rgb(214, 214, 214);"></path></g></g><g data-idx="1" data-dup="" dx="-128" dy="128" style="transform-origin: 86.8315px 289.686px; animation: 1s linear 0s infinite normal forwards running slide-ltr-65ddb7f9-4d4d-40c7-889d-b26b7b4d41ab;"><g transform="translate(-128,128)"><path fill="none" stroke="#777777" stroke-width="8" stroke-linecap="round" stroke-linejoin="round" stroke-miterlimit="10" d="
	M228.264,125.792c-1.41,5.261-8.528,3.354-9.938,8.616c-1.41,5.262,5.708,7.169,4.299,12.43c-1.41,5.263-8.529,3.356-9.939,8.619
	c-1.411,5.265,5.708,7.172,4.297,12.437c-1.41,5.263-8.529,3.356-9.939,8.619c-1.411,5.267,5.707,7.174,4.296,12.441
	s-8.53,3.359-9.941,8.626" data-stroke="c2" style="stroke: rgb(214, 214, 214);"></path></g></g><g data-idx="1" data-dup="" dx="128" dy="128" style="transform-origin: 342.832px 289.686px; animation: 1s linear 0s infinite normal forwards running slide-ltr-65ddb7f9-4d4d-40c7-889d-b26b7b4d41ab;"><g transform="translate(128,128)"><path fill="none" stroke="#777777" stroke-width="8" stroke-linecap="round" stroke-linejoin="round" stroke-miterlimit="10" d="
	M228.264,125.792c-1.41,5.261-8.528,3.354-9.938,8.616c-1.41,5.262,5.708,7.169,4.299,12.43c-1.41,5.263-8.529,3.356-9.939,8.619
	c-1.411,5.265,5.708,7.172,4.297,12.437c-1.41,5.263-8.529,3.356-9.939,8.619c-1.411,5.267,5.707,7.174,4.296,12.441
	s-8.53,3.359-9.941,8.626" data-stroke="c2" style="stroke: rgb(214, 214, 214);"></path></g></g><g data-idx="2" data-dup="" dx="-384" dy="128" style="transform-origin: -288.001px 324.725px; animation: 1s linear 0s infinite normal forwards running slide-ltr-65ddb7f9-4d4d-40c7-889d-b26b7b4d41ab;"><g transform="translate(-384,128)"><path fill="none" stroke="#000000" stroke-width="8" stroke-linecap="round" stroke-linejoin="round" stroke-miterlimit="10" d="
	M109.432,160.831c-1.41,5.261-8.528,3.354-9.938,8.616c-1.41,5.262,5.709,7.169,4.299,12.43c-1.41,5.263-8.529,3.356-9.939,8.619
	c-1.411,5.265,5.708,7.172,4.297,12.437c-1.41,5.263-8.529,3.356-9.939,8.619c-1.411,5.267,5.707,7.174,4.296,12.441
	s-8.53,3.359-9.941,8.626" data-stroke="c1" style="stroke: rgb(255, 189, 18);"></path></g></g><g data-idx="2" data-dup="" dx="-128" dy="128" style="transform-origin: -32.0005px 324.725px; animation: 1s linear 0s infinite normal forwards running slide-ltr-65ddb7f9-4d4d-40c7-889d-b26b7b4d41ab;"><g transform="translate(-128,128)"><path fill="none" stroke="#000000" stroke-width="8" stroke-linecap="round" stroke-linejoin="round" stroke-miterlimit="10" d="
	M109.432,160.831c-1.41,5.261-8.528,3.354-9.938,8.616c-1.41,5.262,5.709,7.169,4.299,12.43c-1.41,5.263-8.529,3.356-9.939,8.619
	c-1.411,5.265,5.708,7.172,4.297,12.437c-1.41,5.263-8.529,3.356-9.939,8.619c-1.411,5.267,5.707,7.174,4.296,12.441
	s-8.53,3.359-9.941,8.626" data-stroke="c1" style="stroke: rgb(255, 189, 18);"></path></g></g><g data-idx="2" data-dup="" dx="128" dy="128" style="transform-origin: 223.999px 324.725px; animation: 1s linear 0s infinite normal forwards running slide-ltr-65ddb7f9-4d4d-40c7-889d-b26b7b4d41ab;"><g transform="translate(128,128)"><path fill="none" stroke="#000000" stroke-width="8" stroke-linecap="round" stroke-linejoin="round" stroke-miterlimit="10" d="
	M109.432,160.831c-1.41,5.261-8.528,3.354-9.938,8.616c-1.41,5.262,5.709,7.169,4.299,12.43c-1.41,5.263-8.529,3.356-9.939,8.619
	c-1.411,5.265,5.708,7.172,4.297,12.437c-1.41,5.263-8.529,3.356-9.939,8.619c-1.411,5.267,5.707,7.174,4.296,12.441
	s-8.53,3.359-9.941,8.626" data-stroke="c1" style="stroke: rgb(255, 189, 18);"></path></g></g><g data-idx="3" data-dup="" dx="-384" dy="128" style="transform-origin: -340.992px 226.152px; animation: 1s linear 0s infinite normal forwards running slide-ltr-65ddb7f9-4d4d-40c7-889d-b26b7b4d41ab;"><g transform="translate(-384,128)"><path fill="none" stroke="#777777" stroke-width="8" stroke-linecap="round" stroke-linejoin="round" stroke-miterlimit="10" d="
	M56.44,62.258c-1.41,5.261-8.528,3.354-9.938,8.616c-1.41,5.262,5.709,7.169,4.299,12.43c-1.41,5.263-8.529,3.356-9.939,8.619
	c-1.411,5.265,5.708,7.172,4.297,12.437c-1.41,5.263-8.529,3.356-9.939,8.619c-1.411,5.267,5.707,7.174,4.296,12.441
	c-1.411,5.267-8.53,3.359-9.941,8.626" data-stroke="c2" style="stroke: rgb(214, 214, 214);"></path></g></g><g data-idx="3" data-dup="" dx="-128" dy="128" style="transform-origin: -84.9925px 226.152px; animation: 1s linear 0s infinite normal forwards running slide-ltr-65ddb7f9-4d4d-40c7-889d-b26b7b4d41ab;"><g transform="translate(-128,128)"><path fill="none" stroke="#777777" stroke-width="8" stroke-linecap="round" stroke-linejoin="round" stroke-miterlimit="10" d="
	M56.44,62.258c-1.41,5.261-8.528,3.354-9.938,8.616c-1.41,5.262,5.709,7.169,4.299,12.43c-1.41,5.263-8.529,3.356-9.939,8.619
	c-1.411,5.265,5.708,7.172,4.297,12.437c-1.41,5.263-8.529,3.356-9.939,8.619c-1.411,5.267,5.707,7.174,4.296,12.441
	c-1.411,5.267-8.53,3.359-9.941,8.626" data-stroke="c2" style="stroke: rgb(214, 214, 214);"></path></g></g><g data-idx="3" data-dup="" dx="128" dy="128" style="transform-origin: 171.007px 226.152px; animation: 1s linear 0s infinite normal forwards running slide-ltr-65ddb7f9-4d4d-40c7-889d-b26b7b4d41ab;"><g transform="translate(128,128)"><path fill="none" stroke="#777777" stroke-width="8" stroke-linecap="round" stroke-linejoin="round" stroke-miterlimit="10" d="
	M56.44,62.258c-1.41,5.261-8.528,3.354-9.938,8.616c-1.41,5.262,5.709,7.169,4.299,12.43c-1.41,5.263-8.529,3.356-9.939,8.619
	c-1.411,5.265,5.708,7.172,4.297,12.437c-1.41,5.263-8.529,3.356-9.939,8.619c-1.411,5.267,5.707,7.174,4.296,12.441
	c-1.411,5.267-8.53,3.359-9.941,8.626" data-stroke="c2" style="stroke: rgb(214, 214, 214);"></path></g></g></g><style id="slide-ltr-65ddb7f9-4d4d-40c7-889d-b26b7b4d41ab" data-anikit="">@keyframes slide-ltr-65ddb7f9-4d4d-40c7-889d-b26b7b4d41ab
{
  0% {
    animation-timing-function: cubic-bezier(0.4652,0.1051,0.774,0.6426);
    transform: translate(0px,0px) rotate(0deg) scale(1,1) skewX(0deg) skewY(0deg);
    opacity: 1;
  }
  22.5% {
    animation-timing-function: cubic-bezier(0.4142,0.3131,0.7623,0.6513);
    transform: translate(47.8px,0px) rotate(0deg) scale(1,1) skewX(0deg) skewY(0deg);
    opacity: 1;
  }
  45% {
    animation-timing-function: cubic-bezier(0.3615,0.331,0.9646,1.3461);
    transform: translate(147.8px,0px) rotate(0deg) scale(1,1) skewX(0deg) skewY(0deg);
    opacity: 1;
  }
  47.5% {
    animation-timing-function: cubic-bezier(0.7006,0.3332,0.6667,0.6667);
    transform: translate(165.6px,0px) rotate(0deg) scale(1,1) skewX(0deg) skewY(0deg);
    opacity: 0;
  }
  50% {
    animation-timing-function: cubic-bezier(0.1604,0.3176,-0.0218,0.6965);
    transform: translate(-200px,0px) rotate(0deg) scale(1,1) skewX(0deg) skewY(0deg);
    opacity: 0;
  }
  51% {
    animation-timing-function: cubic-bezier(0.1983,0.3529,0.5263,0.6945);
    transform: translate(-179.8px,0px) rotate(0deg) scale(1,1) skewX(0deg) skewY(0deg);
    opacity: 0;
  }
  80.4% {
    animation-timing-function: cubic-bezier(0.2342,0.3708,0.5422,0.9065);
    transform: translate(-38.4px,0px) rotate(0deg) scale(1,1) skewX(0deg) skewY(0deg);
    opacity: 1;
  }
  100% {
    transform: translate(0px,0px) rotate(0deg) scale(1,1) skewX(0deg) skewY(0deg);
    opacity: 1;
  }
}</style></svg>